<?xml version="1.0" encoding="UTF-8" standalone="no"?>
<!-- Created with Inkscape (http://www.inkscape.org/) -->

<svg
   width="149.70125mm"
   height="72.945618mm"
   viewBox="0 0 149.70125 72.945618"
   version="1.1"
   id="svg1"
   inkscape:version="1.3.2 (1:1.3.2+202311252150+091e20ef0f)"
   sodipodi:docname="vm-03-14_2.svg"
   xmlns:inkscape="http://www.inkscape.org/namespaces/inkscape"
   xmlns:sodipodi="http://sodipodi.sourceforge.net/DTD/sodipodi-0.dtd"
   xmlns="http://www.w3.org/2000/svg"
   xmlns:svg="http://www.w3.org/2000/svg">
  <sodipodi:namedview
     id="namedview1"
     pagecolor="#ffffff"
     bordercolor="#000000"
     borderopacity="0.25"
     inkscape:showpageshadow="2"
     inkscape:pageopacity="0.0"
     inkscape:pagecheckerboard="0"
     inkscape:deskcolor="#d1d1d1"
     inkscape:document-units="mm"
     inkscape:zoom="1.7131103"
     inkscape:cx="-44.071886"
     inkscape:cy="16.052674"
     inkscape:window-width="3840"
     inkscape:window-height="2123"
     inkscape:window-x="0"
     inkscape:window-y="0"
     inkscape:window-maximized="1"
     inkscape:current-layer="layer1" />
  <defs
     id="defs1">
    <clipPath
       id="c0_47">
      <path
         d="M 0,825 V 0 h 1100 v 825 z"
         id="path2" />
    </clipPath>
    <clipPath
       id="clipPath1">
      <path
         d="M 0,825 V 0 h 1100 v 825 z"
         id="path1" />
    </clipPath>
    <clipPath
       id="clipPath3">
      <path
         d="M 0,825 V 0 h 1100 v 825 z"
         id="path3" />
    </clipPath>
  </defs>
  <g
     inkscape:label="Layer 1"
     inkscape:groupmode="layer"
     id="layer1"
     transform="translate(-116.68125,-144.19792)">
    <path
       fill-rule="evenodd"
       d="M 116.68125,144.19792 H 266.3825 v 72.94562 H 116.68125 Z"
       class="g1_47"
       id="path42"
       style="display:block;fill:#000000;fill-opacity:0;stroke-width:0.264583" />
    <path
       fill-rule="evenodd"
       d="m 216.11167,182.03333 h 15.00187 v -16.95979 h 14.34042 v 16.95979 h 15.00187 v 14.34042 h -15.00187 v 16.95979 h -14.34042 v -16.95979 h -15.00187 z"
       class="g5_47"
       id="path48"
       style="display:block;fill:#666666;stroke-width:0.264583" />
    <path
       d="m 216.11167,182.03333 h 15.00187 v -16.95979 h 14.34042 v 16.95979 h 15.00187 v 14.34042 h -15.00187 v 16.95979 h -14.34042 v -16.95979 h -15.00187 z"
       class="g6_47"
       id="path49"
       style="display:block;fill:none;stroke:#666666;stroke-width:0.302948;stroke-linejoin:round" />
    <path
       fill-rule="evenodd"
       d="m 231.08708,165.04708 h 0.79375 v 16.32479 h -0.79375 z"
       class="g7_47"
       id="path50"
       style="display:block;fill:#999999;stroke-width:0.264583" />
    <path
       d="m 231.08708,165.04708 h 0.79375 v 16.32479 h -0.79375 z"
       class="g8_47"
       id="path51"
       style="display:block;fill:none;stroke:#999999;stroke-width:0.302948;stroke-linejoin:round" />
    <path
       fill-rule="evenodd"
       d="m 244.60729,165.04708 h 0.82021 v 16.32479 h -0.82021 z"
       class="g7_47"
       id="path52"
       style="display:block;fill:#999999;stroke-width:0.264583" />
    <path
       d="m 244.60729,165.04708 h 0.82021 v 16.32479 h -0.82021 z"
       class="g8_47"
       id="path53"
       style="display:block;fill:none;stroke:#999999;stroke-width:0.302948;stroke-linejoin:round" />
    <path
       fill-rule="evenodd"
       d="m 231.11354,197.06167 h 0.79375 v 16.32479 h -0.79375 z"
       class="g7_47"
       id="path54"
       style="display:block;fill:#999999;stroke-width:0.264583" />
    <path
       d="m 231.11354,197.06167 h 0.79375 v 16.32479 h -0.79375 z"
       class="g8_47"
       id="path55"
       style="display:block;fill:none;stroke:#999999;stroke-width:0.302948;stroke-linejoin:round" />
    <path
       fill-rule="evenodd"
       d="m 244.63375,197.06167 h 0.82021 v 16.32479 h -0.82021 z"
       class="g7_47"
       id="path56"
       style="display:block;fill:#999999;stroke-width:0.264583" />
    <path
       d="m 244.63375,197.06167 h 0.82021 v 16.32479 h -0.82021 z"
       class="g8_47"
       id="path57"
       style="display:block;fill:none;stroke:#999999;stroke-width:0.302948;stroke-linejoin:round" />
    <path
       fill-rule="evenodd"
       d="m 231.90729,181.37187 v 0.89959 h -15.79562 v -0.89959 z"
       class="g7_47"
       id="path58"
       style="display:block;fill:#999999;stroke-width:0.264583" />
    <path
       d="m 231.90729,181.37187 v 0.89959 h -15.79562 v -0.89959 z"
       class="g8_47"
       id="path59"
       style="display:block;fill:none;stroke:#999999;stroke-width:0.302948;stroke-linejoin:round" />
    <path
       fill-rule="evenodd"
       d="m 231.90729,196.10917 v 0.89958 h -15.79562 v -0.89958 z"
       class="g7_47"
       id="path60"
       style="display:block;fill:#999999;stroke-width:0.264583" />
    <path
       d="m 231.90729,196.10917 v 0.89958 h -15.79562 v -0.89958 z"
       class="g8_47"
       id="path61"
       style="display:block;fill:none;stroke:#999999;stroke-width:0.302948;stroke-linejoin:round" />
    <path
       fill-rule="evenodd"
       d="m 260.42937,181.39833 v 0.89959 h -15.79562 v -0.89959 z"
       class="g7_47"
       id="path62"
       style="display:block;fill:#999999;stroke-width:0.264583" />
    <path
       d="m 260.42937,181.39833 v 0.89959 h -15.79562 v -0.89959 z"
       class="g8_47"
       id="path63"
       style="display:block;fill:none;stroke:#999999;stroke-width:0.302948;stroke-linejoin:round" />
    <path
       fill-rule="evenodd"
       d="m 260.42937,196.13562 v 0.89959 h -15.79562 v -0.89959 z"
       class="g7_47"
       id="path64"
       style="display:block;fill:#999999;stroke-width:0.264583" />
    <path
       d="m 260.42937,196.13562 v 0.89959 h -15.79562 v -0.89959 z"
       class="g8_47"
       id="path65"
       style="display:block;fill:none;stroke:#999999;stroke-width:0.302948;stroke-linejoin:round" />
    <path
       fill-rule="evenodd"
       d="m 223.25542,189.23 -7.14375,-0.0265 z"
       class="g1_47"
       id="path66"
       style="display:block;fill:#000000;fill-opacity:0;stroke-width:0.264583" />
    <path
       d="m 223.25542,189.23 -7.14375,-0.0265"
       class="g9_47"
       id="path67"
       style="display:block;fill:none;stroke:#f3f3f3;stroke-width:0.60616;stroke-linejoin:round;stroke-dasharray:2.64583, 1.85208" />
    <path
       fill-rule="evenodd"
       d="m 260.42937,189.23 -7.14375,-0.0265 z"
       class="g1_47"
       id="path68"
       style="display:block;fill:#000000;fill-opacity:0;stroke-width:0.264583" />
    <path
       d="m 260.42937,189.23 -7.14375,-0.0265"
       class="g9_47"
       id="path69"
       style="display:block;fill:none;stroke:#f3f3f3;stroke-width:0.60616;stroke-linejoin:round;stroke-dasharray:2.64583, 1.85208" />
    <path
       fill-rule="evenodd"
       d="m 238.23083,172.82583 0.0529,-7.75229 z"
       class="g1_47"
       id="path70"
       style="display:block;fill:#000000;fill-opacity:0;stroke-width:0.264583" />
    <path
       d="m 238.23083,172.82583 0.0529,-7.75229"
       class="g9_47"
       id="path71"
       style="display:block;fill:none;stroke:#f3f3f3;stroke-width:0.60616;stroke-linejoin:round;stroke-dasharray:2.64583, 1.85208" />
    <path
       fill-rule="evenodd"
       d="m 239.02458,213.54521 0.0529,-9.49854 z"
       class="g1_47"
       id="path72"
       style="display:block;fill:#000000;fill-opacity:0;stroke-width:0.264583" />
    <path
       d="m 239.02458,213.54521 0.0529,-9.49854"
       class="g9_47"
       id="path73"
       style="display:block;fill:none;stroke:#f3f3f3;stroke-width:0.60616;stroke-linejoin:round;stroke-dasharray:2.64583, 1.85208" />
    <path
       fill-rule="evenodd"
       d="m 223.33479,189.30937 v -7.03791 z"
       class="g1_47"
       id="path74"
       style="display:block;fill:#000000;fill-opacity:0;stroke-width:0.264583" />
    <path
       d="m 223.33479,189.30937 v -7.03791"
       class="ga_47"
       id="path75"
       style="display:block;fill:none;stroke:#f3f3f3;stroke-width:0.909373;stroke-linejoin:round" />
    <path
       fill-rule="evenodd"
       d="m 253.365,196.24146 v -7.03792 z"
       class="g1_47"
       id="path76"
       style="display:block;fill:#000000;fill-opacity:0;stroke-width:0.264583" />
    <path
       d="m 253.365,196.24146 v -7.03792"
       class="ga_47"
       id="path77"
       style="display:block;fill:none;stroke:#f3f3f3;stroke-width:0.909373;stroke-linejoin:round" />
    <path
       fill-rule="evenodd"
       d="m 238.15146,172.95812 6.48229,0.0265 z"
       class="g1_47"
       id="path78"
       style="display:block;fill:#000000;fill-opacity:0;stroke-width:0.264583" />
    <path
       d="m 238.15146,172.95812 6.48229,0.0265"
       class="ga_47"
       id="path79"
       style="display:block;fill:none;stroke:#f3f3f3;stroke-width:0.909373;stroke-linejoin:round" />
    <path
       fill-rule="evenodd"
       d="m 231.06062,204.02021 7.91105,0.0265 z"
       class="g1_47"
       id="path80"
       style="display:block;fill:#000000;fill-opacity:0;stroke-width:0.264583" />
    <path
       d="m 231.06062,204.02021 7.91105,0.0265"
       class="ga_47"
       id="path81"
       style="display:block;fill:none;stroke:#f3f3f3;stroke-width:0.909373;stroke-linejoin:round" />
    <path
       fill-rule="evenodd"
       d="m 232.27771,200.71292 h 0.68791 v 3.175 h -0.68791 z"
       class="gb_47"
       id="path82"
       style="display:block;fill:#eeeeee;stroke-width:0.264583" />
    <path
       fill-rule="evenodd"
       d="m 233.73292,200.71292 h 0.68791 v 3.175 h -0.68791 z"
       class="gb_47"
       id="path83"
       style="display:block;fill:#eeeeee;stroke-width:0.264583" />
    <path
       fill-rule="evenodd"
       d="m 235.18812,200.71292 h 0.68792 v 3.175 h -0.68792 z"
       class="gb_47"
       id="path84"
       style="display:block;fill:#eeeeee;stroke-width:0.264583" />
    <path
       fill-rule="evenodd"
       d="m 236.61687,200.71292 h 0.68792 v 3.175 h -0.68792 z"
       class="gb_47"
       id="path85"
       style="display:block;fill:#eeeeee;stroke-width:0.264583" />
    <path
       fill-rule="evenodd"
       d="M 238.07208,200.71292 H 238.76 v 3.175 h -0.68792 z"
       class="gb_47"
       id="path86"
       style="display:block;fill:#eeeeee;stroke-width:0.264583" />
    <path
       fill-rule="evenodd"
       d="m 239.52729,200.71292 h 0.68792 v 3.175 h -0.68792 z"
       class="gb_47"
       id="path87"
       style="display:block;fill:#eeeeee;stroke-width:0.264583" />
    <path
       fill-rule="evenodd"
       d="m 240.9825,200.71292 h 0.68792 v 3.175 h -0.68792 z"
       class="gb_47"
       id="path88"
       style="display:block;fill:#eeeeee;stroke-width:0.264583" />
    <path
       fill-rule="evenodd"
       d="m 242.43771,200.71292 h 0.68791 v 3.175 h -0.68791 z"
       class="gb_47"
       id="path89"
       style="display:block;fill:#eeeeee;stroke-width:0.264583" />
    <path
       fill-rule="evenodd"
       d="m 243.89292,200.71292 h 0.68791 v 3.175 h -0.68791 z"
       class="gb_47"
       id="path90"
       style="display:block;fill:#eeeeee;stroke-width:0.264583" />
    <path
       fill-rule="evenodd"
       d="m 232.11896,174.81021 h 0.66146 v 3.20146 h -0.66146 z"
       class="gb_47"
       id="path91"
       style="display:block;fill:#eeeeee;stroke-width:0.264583" />
    <path
       fill-rule="evenodd"
       d="m 233.54771,174.81021 h 0.68791 v 3.20146 h -0.68791 z"
       class="gb_47"
       id="path92"
       style="display:block;fill:#eeeeee;stroke-width:0.264583" />
    <path
       fill-rule="evenodd"
       d="m 235.00292,174.81021 h 0.68791 v 3.20146 h -0.68791 z"
       class="gb_47"
       id="path93"
       style="display:block;fill:#eeeeee;stroke-width:0.264583" />
    <path
       fill-rule="evenodd"
       d="m 236.45812,174.81021 h 0.68792 v 3.20146 h -0.68792 z"
       class="gb_47"
       id="path94"
       style="display:block;fill:#eeeeee;stroke-width:0.264583" />
    <path
       fill-rule="evenodd"
       d="m 237.91333,174.81021 h 0.68792 v 3.20146 h -0.68792 z"
       class="gb_47"
       id="path95"
       style="display:block;fill:#eeeeee;stroke-width:0.264583" />
    <path
       fill-rule="evenodd"
       d="m 239.36854,174.81021 h 0.68792 v 3.20146 h -0.68792 z"
       class="gb_47"
       id="path96"
       style="display:block;fill:#eeeeee;stroke-width:0.264583" />
    <path
       fill-rule="evenodd"
       d="m 240.82375,174.81021 h 0.68792 v 3.20146 h -0.68792 z"
       class="gb_47"
       id="path97"
       style="display:block;fill:#eeeeee;stroke-width:0.264583" />
    <path
       fill-rule="evenodd"
       d="m 242.27896,174.81021 h 0.68791 v 3.20146 h -0.68791 z"
       class="gb_47"
       id="path98"
       style="display:block;fill:#eeeeee;stroke-width:0.264583" />
    <path
       fill-rule="evenodd"
       d="m 243.73417,174.81021 h 0.66145 v 3.20146 h -0.66145 z"
       class="gb_47"
       id="path99"
       style="display:block;fill:#eeeeee;stroke-width:0.264583" />
    <path
       fill-rule="evenodd"
       d="m 228.07083,182.50958 v 0.76729 h -2.93687 v -0.76729 z"
       class="gb_47"
       id="path100"
       style="display:block;fill:#eeeeee;stroke-width:0.264583" />
    <path
       fill-rule="evenodd"
       d="m 228.07083,184.09708 v 0.74084 h -2.93687 v -0.74084 z"
       class="gb_47"
       id="path101"
       style="display:block;fill:#eeeeee;stroke-width:0.264583" />
    <path
       fill-rule="evenodd"
       d="m 228.07083,185.68458 v 0.74084 h -2.93687 v -0.74084 z"
       class="gb_47"
       id="path102"
       style="display:block;fill:#eeeeee;stroke-width:0.264583" />
    <path
       fill-rule="evenodd"
       d="m 228.07083,187.27208 v 0.74084 h -2.93687 v -0.74084 z"
       class="gb_47"
       id="path103"
       style="display:block;fill:#eeeeee;stroke-width:0.264583" />
    <path
       fill-rule="evenodd"
       d="m 228.07083,188.83312 v 0.74084 h -2.93687 v -0.74084 z"
       class="gb_47"
       id="path104"
       style="display:block;fill:#eeeeee;stroke-width:0.264583" />
    <path
       fill-rule="evenodd"
       d="m 228.07083,190.42062 v 0.74084 h -2.93687 v -0.74084 z"
       class="gb_47"
       id="path105"
       style="display:block;fill:#eeeeee;stroke-width:0.264583" />
    <path
       fill-rule="evenodd"
       d="m 228.07083,192.00812 v 0.74084 h -2.93687 v -0.74084 z"
       class="gb_47"
       id="path106"
       style="display:block;fill:#eeeeee;stroke-width:0.264583" />
    <path
       fill-rule="evenodd"
       d="m 228.07083,193.56917 v 0.76729 h -2.93687 v -0.76729 z"
       class="gb_47"
       id="path107"
       style="display:block;fill:#eeeeee;stroke-width:0.264583" />
    <path
       fill-rule="evenodd"
       d="m 228.07083,195.15667 v 0.74083 h -2.93687 v -0.74083 z"
       class="gb_47"
       id="path108"
       style="display:block;fill:#eeeeee;stroke-width:0.264583" />
    <path
       fill-rule="evenodd"
       d="m 251.48646,182.50958 v 0.76729 h -2.93688 v -0.76729 z"
       class="gb_47"
       id="path109"
       style="display:block;fill:#eeeeee;stroke-width:0.264583" />
    <path
       fill-rule="evenodd"
       d="m 251.48646,184.09708 v 0.74084 h -2.93688 v -0.74084 z"
       class="gb_47"
       id="path110"
       style="display:block;fill:#eeeeee;stroke-width:0.264583" />
    <path
       fill-rule="evenodd"
       d="m 251.48646,185.68458 v 0.74084 h -2.93688 v -0.74084 z"
       class="gb_47"
       id="path111"
       style="display:block;fill:#eeeeee;stroke-width:0.264583" />
    <path
       fill-rule="evenodd"
       d="m 251.48646,187.27208 v 0.74084 h -2.93688 v -0.74084 z"
       class="gb_47"
       id="path112"
       style="display:block;fill:#eeeeee;stroke-width:0.264583" />
    <path
       fill-rule="evenodd"
       d="m 251.48646,188.83312 v 0.74084 h -2.93688 v -0.74084 z"
       class="gb_47"
       id="path113"
       style="display:block;fill:#eeeeee;stroke-width:0.264583" />
    <path
       fill-rule="evenodd"
       d="m 251.48646,190.42062 v 0.74084 h -2.93688 v -0.74084 z"
       class="gb_47"
       id="path114"
       style="display:block;fill:#eeeeee;stroke-width:0.264583" />
    <path
       fill-rule="evenodd"
       d="m 251.48646,192.00812 v 0.74084 h -2.93688 v -0.74084 z"
       class="gb_47"
       id="path115"
       style="display:block;fill:#eeeeee;stroke-width:0.264583" />
    <path
       fill-rule="evenodd"
       d="m 251.48646,193.56917 v 0.76729 h -2.93688 v -0.76729 z"
       class="gb_47"
       id="path116"
       style="display:block;fill:#eeeeee;stroke-width:0.264583" />
    <path
       fill-rule="evenodd"
       d="m 251.48646,195.15667 v 0.74083 h -2.93688 v -0.74083 z"
       class="gb_47"
       id="path117"
       style="display:block;fill:#eeeeee;stroke-width:0.264583" />
    <path
       fill-rule="evenodd"
       d="m 237.62229,189.36229 0.68792,-0.74083 0.68791,0.74083 -0.68791,0.74083 z"
       class="g1_47"
       id="path118"
       style="display:block;fill:#000000;fill-opacity:0;stroke-width:0.264583" />
    <path
       d="m 237.62229,189.36229 0.68792,-0.74083 0.68791,0.74083 -0.68791,0.74083 z"
       class="gc_47"
       id="path119"
       style="display:block;fill:none;stroke:#f3f3f3;stroke-width:0.302948;stroke-linejoin:round" />
    <path
       fill-rule="evenodd"
       d="M 246.11542,191.58479 H 245.745 v 7.75229 h 0.37042 z"
       class="g7_47"
       id="path120"
       style="display:block;fill:#999999;stroke-width:0.264583" />
    <path
       d="M 246.11542,191.58479 H 245.745 v 7.75229 h 0.37042 z"
       class="g8_47"
       id="path121"
       style="display:block;fill:none;stroke:#999999;stroke-width:0.302948;stroke-linejoin:round" />
    <path
       fill-rule="evenodd"
       d="m 245.98312,191.90229 v 0 c 0,-0.18521 -0.15875,-0.3175 -0.3175,-0.3175 h -3.91583 c -0.0794,0 -0.15875,0.0265 -0.23812,0.0794 -0.0529,0.0529 -0.0794,0.15875 -0.0794,0.23812 v 1.29646 c 0,0.18521 0.13229,0.3175 0.3175,0.3175 h 3.91583 c 0.15875,0 0.3175,-0.13229 0.3175,-0.3175 z"
       class="g7_47"
       id="path122"
       style="display:block;fill:#999999;stroke-width:0.264583" />
    <path
       d="m 245.98312,191.90229 v 0 c 0,-0.18521 -0.15875,-0.3175 -0.3175,-0.3175 h -3.91583 c -0.0794,0 -0.15875,0.0265 -0.23812,0.0794 -0.0529,0.0529 -0.0794,0.15875 -0.0794,0.23812 v 1.29646 c 0,0.18521 0.13229,0.3175 0.3175,0.3175 h 3.91583 c 0.15875,0 0.3175,-0.13229 0.3175,-0.3175 z"
       class="g8_47"
       id="path123"
       style="display:block;fill:none;stroke:#999999;stroke-width:0.302948;stroke-linejoin:round" />
    <path
       fill-rule="evenodd"
       d="m 227.27708,198.14646 v -0.39688 h 3.36021 v 0.39688 z"
       class="g7_47"
       id="path124"
       style="display:block;fill:#999999;stroke-width:0.264583" />
    <path
       d="m 227.27708,198.14646 v -0.39688 h 3.36021 v 0.39688 z"
       class="g8_47"
       id="path125"
       style="display:block;fill:none;stroke:#999999;stroke-width:0.302948;stroke-linejoin:round" />
    <path
       fill-rule="evenodd"
       d="m 227.56812,198.09354 v 0 c -0.15875,0 -0.29104,-0.13229 -0.29104,-0.29104 v -4.36563 c 0,-0.0794 0.0265,-0.13229 0.0794,-0.21166 0.0529,-0.0529 0.13229,-0.0794 0.21166,-0.0794 h 1.19063 c 0.15875,0 0.29104,0.13229 0.29104,0.29104 v 4.36563 c 0,0.15875 -0.13229,0.29104 -0.29104,0.29104 z"
       class="g7_47"
       id="path126"
       style="display:block;fill:#999999;stroke-width:0.264583" />
    <path
       d="m 227.56812,198.09354 v 0 c -0.15875,0 -0.29104,-0.13229 -0.29104,-0.29104 v -4.36563 c 0,-0.0794 0.0265,-0.13229 0.0794,-0.21166 0.0529,-0.0529 0.13229,-0.0794 0.21166,-0.0794 h 1.19063 c 0.15875,0 0.29104,0.13229 0.29104,0.29104 v 4.36563 c 0,0.15875 -0.13229,0.29104 -0.29104,0.29104 z"
       class="g8_47"
       id="path127"
       style="display:block;fill:none;stroke:#999999;stroke-width:0.302948;stroke-linejoin:round" />
    <path
       fill-rule="evenodd"
       d="m 228.15021,194.70687 v 0 c -0.29104,0 -0.52917,-0.23812 -0.52917,-0.55562 0,-0.29104 0.23813,-0.55563 0.52917,-0.55563 0.29104,0 0.50271,0.26459 0.50271,0.55563 0,0.3175 -0.21167,0.55562 -0.50271,0.55562 z"
       class="gd_47"
       id="path128"
       style="display:block;fill:#ff0000;stroke-width:0.264583" />
    <path
       fill-rule="evenodd"
       d="m 228.15021,196.29437 v 0 c -0.29104,0 -0.52917,-0.26458 -0.52917,-0.55562 0,-0.3175 0.23813,-0.58208 0.52917,-0.58208 0.29104,0 0.50271,0.26458 0.50271,0.58208 0,0.29104 -0.21167,0.55562 -0.50271,0.55562 z"
       class="ge_47"
       id="path129"
       style="display:block;fill:#f1c232;stroke-width:0.264583" />
    <path
       fill-rule="evenodd"
       d="m 228.15021,197.85542 v 0 c -0.29104,0 -0.52917,-0.23813 -0.52917,-0.55563 0,-0.3175 0.23813,-0.55562 0.52917,-0.55562 0.29104,0 0.50271,0.23812 0.50271,0.55562 0,0.3175 -0.21167,0.55563 -0.50271,0.55563 z"
       class="gf_47"
       id="path130"
       style="display:block;fill:#38761d;stroke-width:0.264583" />
    <path
       fill-rule="evenodd"
       d="m 249.26396,180.73687 v -0.42333 h -3.36021 v 0.42333 z"
       class="g7_47"
       id="path131"
       style="display:block;fill:#999999;stroke-width:0.264583" />
    <path
       d="m 249.26396,180.73687 v -0.42333 h -3.36021 v 0.42333 z"
       class="g8_47"
       id="path132"
       style="display:block;fill:none;stroke:#999999;stroke-width:0.302948;stroke-linejoin:round" />
    <path
       fill-rule="evenodd"
       d="m 248.94646,180.6575 v 0 c 0.18521,0 0.3175,-0.13229 0.3175,-0.29104 v -4.33917 c 0,-0.0794 -0.0529,-0.15875 -0.10584,-0.21167 -0.0529,-0.0794 -0.13229,-0.10583 -0.21166,-0.10583 h -1.19063 c -0.15875,0 -0.29104,0.13229 -0.29104,0.3175 v 4.33917 c 0,0.15875 0.13229,0.29104 0.29104,0.29104 z"
       class="g7_47"
       id="path133"
       style="display:block;fill:#999999;stroke-width:0.264583" />
    <path
       d="m 248.94646,180.6575 v 0 c 0.18521,0 0.3175,-0.13229 0.3175,-0.29104 v -4.33917 c 0,-0.0794 -0.0529,-0.15875 -0.10584,-0.21167 -0.0529,-0.0794 -0.13229,-0.10583 -0.21166,-0.10583 h -1.19063 c -0.15875,0 -0.29104,0.13229 -0.29104,0.3175 v 4.33917 c 0,0.15875 0.13229,0.29104 0.29104,0.29104 z"
       class="g8_47"
       id="path134"
       style="display:block;fill:none;stroke:#999999;stroke-width:0.302948;stroke-linejoin:round" />
    <path
       fill-rule="evenodd"
       d="m 248.39083,177.29729 v 0 c 0.26459,0 0.50271,-0.26458 0.50271,-0.58208 0,-0.29104 -0.23812,-0.55563 -0.50271,-0.55563 -0.29104,0 -0.52916,0.26459 -0.52916,0.55563 0,0.3175 0.23812,0.58208 0.52916,0.58208 z"
       class="gd_47"
       id="path135"
       style="display:block;fill:#ff0000;stroke-width:0.264583" />
    <path
       fill-rule="evenodd"
       d="m 248.39083,178.85833 v 0 c 0.26459,0 0.50271,-0.26458 0.50271,-0.55562 0,-0.3175 -0.23812,-0.55563 -0.50271,-0.55563 -0.29104,0 -0.52916,0.23813 -0.52916,0.55563 0,0.29104 0.23812,0.55562 0.52916,0.55562 z"
       class="ge_47"
       id="path136"
       style="display:block;fill:#f1c232;stroke-width:0.264583" />
    <path
       fill-rule="evenodd"
       d="m 248.39083,180.41937 v 0 c 0.26459,0 0.50271,-0.23812 0.50271,-0.55562 0,-0.29104 -0.23812,-0.55563 -0.50271,-0.55563 -0.29104,0 -0.52916,0.26459 -0.52916,0.55563 0,0.3175 0.23812,0.55562 0.52916,0.55562 z"
       class="gf_47"
       id="path137"
       style="display:block;fill:#38761d;stroke-width:0.264583" />
    <path
       fill-rule="evenodd"
       d="m 230.45208,171.79396 h 0.37042 v 7.77875 h -0.37042 z"
       class="g7_47"
       id="path138"
       style="display:block;fill:#999999;stroke-width:0.264583" />
    <path
       d="m 230.45208,171.79396 h 0.37042 v 7.77875 h -0.37042 z"
       class="g8_47"
       id="path139"
       style="display:block;fill:none;stroke:#999999;stroke-width:0.302948;stroke-linejoin:round" />
    <path
       fill-rule="evenodd"
       d="m 230.58437,172.11146 v 0 c 0,-0.18521 0.15875,-0.3175 0.3175,-0.3175 h 3.91584 c 0.0794,0 0.15875,0.0265 0.21166,0.10583 0.0794,0.0529 0.10584,0.13229 0.10584,0.21167 v 1.29646 c 0,0.1852 -0.15875,0.34395 -0.3175,0.34395 h -3.91584 c -0.15875,0 -0.3175,-0.15875 -0.3175,-0.34395 z"
       class="g7_47"
       id="path140"
       style="display:block;fill:#999999;stroke-width:0.264583" />
    <path
       d="m 230.58437,172.11146 v 0 c 0,-0.18521 0.15875,-0.3175 0.3175,-0.3175 h 3.91584 c 0.0794,0 0.15875,0.0265 0.21166,0.10583 0.0794,0.0529 0.10584,0.13229 0.10584,0.21167 v 1.29646 c 0,0.1852 -0.15875,0.34395 -0.3175,0.34395 h -3.91584 c -0.15875,0 -0.3175,-0.15875 -0.3175,-0.34395 z"
       class="g8_47"
       id="path141"
       style="display:block;fill:none;stroke:#999999;stroke-width:0.302948;stroke-linejoin:round" />
    <path
       fill-rule="evenodd"
       d="m 233.70646,172.74646 v 0 c 0,-0.3175 0.21166,-0.55563 0.50271,-0.55563 0.13229,0 0.26458,0.0529 0.37041,0.15875 0.0794,0.10584 0.13229,0.23813 0.13229,0.39688 0,0.3175 -0.21166,0.55562 -0.5027,0.55562 -0.29105,0 -0.50271,-0.23812 -0.50271,-0.55562 z"
       class="gd_47"
       id="path142"
       style="display:block;fill:#ff0000;stroke-width:0.264583" />
    <path
       fill-rule="evenodd"
       d="m 232.25125,172.74646 v 0 c 0,-0.3175 0.23812,-0.55563 0.50271,-0.55563 0.13229,0 0.26458,0.0529 0.37041,0.15875 0.10584,0.10584 0.15875,0.23813 0.15875,0.39688 0,0.3175 -0.23812,0.55562 -0.52916,0.55562 -0.26459,0 -0.50271,-0.23812 -0.50271,-0.55562 z"
       class="ge_47"
       id="path143"
       style="display:block;fill:#f1c232;stroke-width:0.264583" />
    <path
       fill-rule="evenodd"
       d="m 230.79604,172.74646 v 0 c 0,-0.3175 0.23813,-0.55563 0.52917,-0.55563 0.13229,0 0.26458,0.0529 0.34396,0.15875 0.10583,0.10584 0.15875,0.23813 0.15875,0.39688 0,0.3175 -0.23813,0.55562 -0.50271,0.55562 -0.29104,0 -0.52917,-0.23812 -0.52917,-0.55562 z"
       class="gf_47"
       id="path144"
       style="display:block;fill:#38761d;stroke-width:0.264583" />
    <path
       fill-rule="evenodd"
       d="m 232.41,200.15729 c 0.0265,-0.79375 -0.0265,-3.41312 0.13229,-4.78896 0.15875,-1.37583 0.42333,-2.27541 0.79375,-3.46604 0.39688,-1.21708 1.24354,-3.14854 1.48167,-3.78354 z"
       class="g1_47"
       id="path145"
       style="display:block;fill:#000000;fill-opacity:0;stroke-width:0.264583" />
    <path
       d="m 232.41,200.15729 c 0.0265,-0.79375 -0.0265,-3.41312 0.13229,-4.78896 0.15875,-1.37583 0.42333,-2.27541 0.79375,-3.46604 0.39688,-1.21708 1.24354,-3.14854 1.48167,-3.78354"
       class="gg_47"
       id="path146"
       style="display:block;fill:none;stroke:#ffffff;stroke-width:0.60616;stroke-linejoin:round;stroke-dasharray:2.64583, 1.85208" />
    <path
       fill-rule="evenodd"
       d="m 239.23625,200.58062 c 0,-0.55562 -0.18521,-2.01083 0,-3.33375 0.18521,-1.29645 0.89958,-3.73062 1.08479,-4.47145 z"
       class="g1_47"
       id="path147"
       style="display:block;fill:#000000;fill-opacity:0;stroke-width:0.264583" />
    <path
       d="m 239.23625,200.58062 c 0,-0.55562 -0.18521,-2.01083 0,-3.33375 0.18521,-1.29645 0.89958,-3.73062 1.08479,-4.47145"
       class="gg_47"
       id="path148"
       style="display:block;fill:none;stroke:#ffffff;stroke-width:0.60616;stroke-linejoin:round;stroke-dasharray:2.64583, 1.85208" />
    <path
       fill-rule="evenodd"
       d="M 240.29458,194.60104 233.68,189.01833 Z"
       class="g1_47"
       id="path149"
       style="display:block;fill:#000000;fill-opacity:0;stroke-width:0.264583" />
    <path
       d="M 240.29458,194.60104 233.68,189.01833"
       class="ga_47"
       id="path150"
       style="display:block;fill:none;stroke:#f3f3f3;stroke-width:0.909373;stroke-linejoin:round" />
    <path
       fill-rule="evenodd"
       d="m 251.59229,182.53604 -0.0529,6.79979 h -4.33916 l -1.11125,0.0794 -0.76729,0.15875 -0.635,0.10583 -0.71438,0.29104 -0.635,0.29104 -1.05833,0.68792 -0.87313,0.74083 -0.55562,0.52917 -0.58209,0.84667 -0.58208,1.08479 -0.42333,1.03187 -0.15875,0.84667 -0.15875,1.08479 -0.0265,1.05834 0.0794,2.80458 v 3.51896 h -6.82625 V 197.485 l 0.15875,-1.64042 0.39688,-2.16958 0.79375,-2.14313 0.44979,-0.92604 0.97896,-1.5875 0.89958,-1.27 1.03188,-0.97896 1.48166,-1.32291 1.11125,-0.76729 1.69334,-0.89959 1.24354,-0.50271 1.69333,-0.44979 1.87854,-0.34396 h 1.50813 z"
       class="gh_47"
       id="path151"
       style="display:block;fill:#f4cccc;fill-opacity:0.43;stroke-width:0.264583" />
    <path
       d="m 251.59229,182.53604 -0.0529,6.79979 h -4.33916 l -1.11125,0.0794 -0.76729,0.15875 -0.635,0.10583 -0.71438,0.29104 -0.635,0.29104 -1.05833,0.68792 -0.87313,0.74083 -0.55562,0.52917 -0.58209,0.84667 -0.58208,1.08479 -0.42333,1.03187 -0.15875,0.84667 -0.15875,1.08479 -0.0265,1.05834 0.0794,2.80458 v 3.51896 h -6.82625 V 197.485 l 0.15875,-1.64042 0.39688,-2.16958 0.79375,-2.14313 0.44979,-0.92604 0.97896,-1.5875 0.89958,-1.27 1.03188,-0.97896 1.48166,-1.32291 1.11125,-0.76729 1.69334,-0.89959 1.24354,-0.50271 1.69333,-0.44979 1.87854,-0.34396 h 1.50813 z"
       class="gi_47"
       id="path152"
       style="display:block;fill:none;stroke:#ff0000;stroke-width:0.302948;stroke-linejoin:round" />
    <path
       fill-rule="evenodd"
       d="m 239.7125,194.12479 -5.18583,-4.28625 z"
       class="g1_47"
       id="path153"
       style="display:block;fill:#000000;fill-opacity:0;stroke-width:0.264583" />
    <path
       d="m 239.7125,194.12479 -5.18583,-4.28625"
       class="gj_47"
       id="path154"
       style="display:block;fill:none;stroke:#ff9900;stroke-width:0.302948;stroke-linejoin:round" />
    <path
       fill-rule="evenodd"
       d="m 175.23354,189.20354 h 33.62854 v 15.68979 h -33.62854 z"
       class="g1_47"
       id="path155"
       style="display:block;fill:#000000;fill-opacity:0;stroke-width:0.264583" />
    <g
       clip-path="url(#c0_47)"
       id="g156"
       style="display:block"
       transform="matrix(0.26458333,0,0,0.26458333,-14.73729,88.000417)">
      <text
         x="728.29999"
         y="407.5"
         class="s7_47"
         id="text155"
         style="font-size:15.28px;font-family:ArialMT_bj;white-space:pre;fill:#000000">Linestring </text>
      <text
         x="736.70001"
         y="425.79999"
         class="s7_47"
         id="text156"
         style="font-size:15.28px;font-family:ArialMT_bj;white-space:pre;fill:#000000">type:stop_line </text>
    </g>
    <path
       fill-rule="evenodd"
       d="M 174.41333,157.98271 H 230.8225 V 173.6725 H 174.41333 Z"
       class="g1_47"
       id="path156"
       style="display:block;fill:#000000;fill-opacity:0;stroke-width:0.264583" />
    <g
       clip-path="url(#c0_47)"
       id="g158"
       style="display:block"
       transform="matrix(0.26458333,0,0,0.26458333,-14.73729,88.000417)">
      <text
         x="725.20001"
         y="289.5"
         class="s7_47"
         id="text157"
         style="font-size:15.28px;font-family:ArialMT_bj;white-space:pre;fill:#000000">Lanelet </text>
      <text
         x="733.70001"
         y="307.89999"
         class="s7_47"
         id="text158"
         style="font-size:15.28px;font-family:ArialMT_bj;white-space:pre;fill:#000000">tag: turn_direction=right </text>
    </g>
    <path
       fill-rule="evenodd"
       d="m 118.77146,168.56604 h 49.60937 v 15.68979 h -49.60937 z"
       class="gk_47"
       id="path158"
       style="display:block;fill:#0000ff;stroke-width:0.264583" />
    <g
       clip-path="url(#c0_47)"
       id="g160"
       style="display:block"
       transform="matrix(0.26458333,0,0,0.26458333,-14.73729,88.000417)">
      <text
         x="514.90002"
         y="329.5"
         class="s8_47"
         id="text159"
         style="font-size:15.28px;font-family:ArialMT_bj;white-space:pre;fill:#ffffff">Regulatory Element </text>
      <text
         x="523.40002"
         y="347.89999"
         class="s8_47"
         id="text160"
         style="font-size:15.28px;font-family:ArialMT_bj;white-space:pre;fill:#ffffff">subtype: road_marking </text>
    </g>
    <path
       fill-rule="evenodd"
       d="M 241.32646,185.7375 219.3925,171.87333 Z"
       class="g1_47"
       id="path160"
       style="display:block;fill:#000000;fill-opacity:0;stroke-width:0.264583" />
    <path
       d="M 241.32646,185.7375 219.3925,171.87333"
       class="gi_47"
       id="path161"
       style="display:block;fill:none;stroke:#ff0000;stroke-width:0.302948;stroke-linejoin:round" />
    <path
       fill-rule="evenodd"
       d="m 176.82104,167.79875 -7.62,2.91042 z"
       class="g1_47"
       id="path162"
       style="display:block;fill:#000000;fill-opacity:0;stroke-width:0.264583" />
    <path
       d="m 176.82104,167.79875 -5.90021,2.24896"
       class="gi_47"
       id="path163"
       style="display:block;fill:none;stroke:#ff0000;stroke-width:0.302948;stroke-linejoin:round" />
    <path
       fill-rule="evenodd"
       d="m 170.73562,169.59792 -1.11125,0.9525 1.45521,-0.0265 z"
       class="gl_47"
       id="path164"
       style="display:block;fill:#ff0000;stroke:#ff0000;stroke-width:0.302948;stroke-miterlimit:10" />
    <path
       fill-rule="evenodd"
       d="m 166.07896,184.28229 12.11791,8.12271 z"
       class="g1_47"
       id="path165"
       style="display:block;fill:#000000;fill-opacity:0;stroke-width:0.264583" />
    <path
       d="m 166.07896,184.28229 10.60979,7.11729"
       class="gj_47"
       id="path166"
       style="display:block;fill:none;stroke:#ff9900;stroke-width:0.302948;stroke-linejoin:round" />
    <path
       fill-rule="evenodd"
       d="m 176.39771,191.82292 1.42875,0.34395 -0.87313,-1.19062 z"
       class="gm_47"
       id="path167"
       style="display:block;fill:#ff9900;stroke:#ff9900;stroke-width:0.302948;stroke-miterlimit:10" />
    <path
       fill-rule="evenodd"
       d="m 203.22646,195.44771 33.17875,-3.54542 z"
       class="g1_47"
       id="path168"
       style="display:block;fill:#000000;fill-opacity:0;stroke-width:0.264583" />
    <path
       d="m 203.22646,195.44771 33.17875,-3.54542"
       class="gj_47"
       id="path169"
       style="display:block;fill:none;stroke:#ff9900;stroke-width:0.302948;stroke-linejoin:round" />
  </g>
</svg>
