<?xml version="1.0" encoding="UTF-8" standalone="no"?>
<!-- Created with Inkscape (http://www.inkscape.org/) -->

<svg
   width="116.362mm"
   height="62.296001mm"
   viewBox="0 0 116.362 62.296002"
   version="1.1"
   id="svg1"
   inkscape:version="1.3.2 (1:1.3.2+202311252150+091e20ef0f)"
   sodipodi:docname="vm-01-15_3.svg"
   xmlns:inkscape="http://www.inkscape.org/namespaces/inkscape"
   xmlns:sodipodi="http://sodipodi.sourceforge.net/DTD/sodipodi-0.dtd"
   xmlns="http://www.w3.org/2000/svg"
   xmlns:svg="http://www.w3.org/2000/svg">
  <sodipodi:namedview
     id="namedview1"
     pagecolor="#ffffff"
     bordercolor="#000000"
     borderopacity="0.25"
     inkscape:showpageshadow="2"
     inkscape:pageopacity="0.0"
     inkscape:pagecheckerboard="0"
     inkscape:deskcolor="#d1d1d1"
     inkscape:document-units="mm"
     inkscape:zoom="1.7131103"
     inkscape:cx="208.68476"
     inkscape:cy="106.53138"
     inkscape:window-width="3840"
     inkscape:window-height="2123"
     inkscape:window-x="0"
     inkscape:window-y="0"
     inkscape:window-maximized="1"
     inkscape:current-layer="layer1" />
  <defs
     id="defs1">
    <clipPath
       id="c0_23">
      <path
         d="M 0,825 V 0 h 1100 v 825 z"
         id="path2" />
    </clipPath>
    <clipPath
       id="clipPath1">
      <path
         d="M 0,825 V 0 h 1100 v 825 z"
         id="path1" />
    </clipPath>
    <clipPath
       id="clipPath3">
      <path
         d="M 0,825 V 0 h 1100 v 825 z"
         id="path3" />
    </clipPath>
  </defs>
  <g
     inkscape:label="Layer 1"
     inkscape:groupmode="layer"
     id="layer1"
     transform="translate(-49.741662,-120.38541)">
    <text
       clip-path="url(#c0_23)"
       x="850"
       y="736.40002"
       class="sb_23"
       id="text123"
       transform="matrix(0.26458333,0,0,0.26458333,-172.50646,-66.979322)"
       style="font-size:18.33px;font-family:MS-PGothic_bp;white-space:pre;display:block;fill:#000000"><tspan
         sodipodi:role="line"
         id="tspan180"
         x="850"
         y="736.40002">Example of no</tspan><tspan
         sodipodi:role="line"
         id="tspan181"
         x="850"
         y="759.3125">road shoulder</tspan></text>
    <path
       fill-rule="evenodd"
       d="m 117.31413,123.08712 14.86958,14.52563 -11.43,12.3825 -1.79916,2.11666 -0.1323,2.14313 0.10584,24.95021 -21.669378,-0.0794 -0.07937,-28.36333 2.248958,-6.08542 2.06375,-5.90021 4.10105,-4.07458 z"
       class="g3_23"
       id="path123"
       style="display:block;fill:#38761d;stroke-width:0.264583" />
    <path
       fill-rule="evenodd"
       d="m 120.09225,125.60066 10.21292,10.10709 -11.66812,11.53583 -1.03188,1.13771 -0.87312,1.00541 -0.4498,0.82021 -0.5027,1.11125 -0.26459,1.24354 -0.21166,1.32292 v 1.19063 l 0.0264,1.40229 -0.0529,22.75416 H 100.96288 V 155.234 l 0.0529,-2.06375 0.26458,-2.91042 0.52917,-2.27542 0.79375,-2.43416 1.11125,-2.16959 1.24354,-2.19604 1.45521,-1.74625 1.1377,-1.34937 1.05834,-1.08479 0.9525,-0.97896 z"
       class="g4_23"
       id="path124"
       style="display:block;fill:#666666;stroke-width:0.264583" />
    <path
       d="m 120.09225,125.60066 10.21292,10.10709 -11.66812,11.53583 -1.03188,1.13771 -0.87312,1.00541 -0.4498,0.82021 -0.5027,1.11125 -0.26459,1.24354 -0.21166,1.32292 v 1.19063 l 0.0264,1.40229 -0.0529,22.75416 H 100.96288 V 155.234 l 0.0529,-2.06375 0.26458,-2.91042 0.52917,-2.27542 0.79375,-2.43416 1.11125,-2.16959 1.24354,-2.19604 1.45521,-1.74625 1.1377,-1.34937 1.05834,-1.08479 0.9525,-0.97896 z"
       class="g5_23"
       id="path125"
       style="display:block;fill:none;stroke:#666666;stroke-width:0.302948;stroke-linejoin:round" />
    <path
       fill-rule="evenodd"
       d="m 107.8685,154.25504 v 25.00312 z"
       class="g1_23"
       id="path126"
       style="display:block;fill:#000000;fill-opacity:0;stroke-width:0.264583" />
    <path
       d="m 107.8685,154.25504 v 25.00312"
       class="g6_23"
       id="path127"
       style="display:block;fill:none;stroke:#595959;stroke-width:0.302948;stroke-linejoin:round" />
    <path
       fill-rule="evenodd"
       d="m 130.27871,135.78712 0.92604,0.9525 -10.42458,10.42458 -1.00542,0.97896 -1.00541,0.97896 -0.50271,0.60854 -0.42333,0.71438 -0.52917,1.00541 -0.39688,1.13771 -0.21166,1.13771 -0.0265,0.9525 v 24.60625 h -1.37583 v -22.225 l 0.0264,-2.88396 0.23813,-1.95791 0.52917,-1.4023 0.29104,-0.635 0.76729,-1.19062 0.87312,-0.9525 0.82021,-0.89958 1.08479,-1.00542 z"
       class="g3_23"
       id="path128"
       style="display:block;fill:#38761d;stroke-width:0.264583" />
    <path
       fill-rule="evenodd"
       d="m 120.03934,125.62712 -1.08479,-1.08479 -9.73667,9.76313 -1.5875,1.66687 -0.9525,0.87313 -0.82021,0.76729 -0.84667,1.00541 -0.68791,0.89959 -1.16417,1.5875 -0.55562,0.9525 -0.52917,0.89958 -0.52917,1.29646 -0.52916,1.29646 -0.55563,1.56104 -0.42333,1.29646 -0.291045,1.66687 -0.211667,1.53458 -0.15875,1.56105 -0.05292,1.7727 v 24.39459 h 1.613962 V 158.2767 l 0.0265,-3.94229 0.0794,-2.09021 0.23812,-2.24895 0.47625,-1.95792 0.66146,-1.95792 1.19062,-2.61937 1.32292,-2.11667 1.19062,-1.5875 1.5875,-1.79916 1.32292,-1.42875 z"
       class="g3_23"
       id="path129"
       style="display:block;fill:#38761d;stroke-width:0.264583" />
    <path
       fill-rule="evenodd"
       d="m 108.26538,138.56525 12.40896,-12.40896 z"
       class="g1_23"
       id="path130"
       style="display:block;fill:#000000;fill-opacity:0;stroke-width:0.264583" />
    <path
       d="m 108.26538,138.56525 12.40896,-12.40896"
       class="g6_23"
       id="path131"
       style="display:block;fill:none;stroke:#595959;stroke-width:0.302948;stroke-linejoin:round" />
    <path
       fill-rule="evenodd"
       d="m 107.65684,154.25504 h 0.37041 v 25.05604 h -0.37041 z"
       class="g0_23"
       id="path132"
       style="display:block;fill:#ffffff;stroke-width:0.264583" />
    <path
       fill-rule="evenodd"
       d="m 124.85475,130.36316 0.26459,0.26459 -12.3825,12.35604 -0.23813,-0.23813 z"
       class="g0_23"
       id="path133"
       style="display:block;fill:#ffffff;stroke-width:0.264583" />
    <path
       fill-rule="evenodd"
       d="m 112.49871,142.7192 0.23813,0.23813 -0.55563,0.635 -0.635,0.74083 -0.58208,0.74084 -0.42333,0.60854 -0.39688,0.66146 -0.52917,0.9525 -0.47625,1.05833 -0.3175,0.92604 -0.21166,0.74083 -0.15875,0.635 -0.21167,1.0848 -0.10583,0.58208 -0.0529,0.60854 -0.0529,0.82021 v 0.52917 h -0.37041 l 0.0529,-0.89959 0.0794,-1.03187 0.15875,-1.00542 0.21167,-1.11125 0.34395,-1.08479 0.4498,-1.24354 0.37041,-0.82021 0.58209,-1.13771 0.58208,-0.87312 0.82021,-1.0848 0.58208,-0.71437 z"
       class="g0_23"
       id="path134"
       style="display:block;fill:#ffffff;stroke-width:0.264583" />
    <path
       fill-rule="evenodd"
       d="m 114.11267,154.25504 h 0.37042 v 25.05604 h -0.37042 z"
       class="g0_23"
       id="path135"
       style="display:block;fill:#ffffff;stroke-width:0.264583" />
    <path
       fill-rule="evenodd"
       d="m 101.57142,154.25504 h 0.37042 v 25.05604 h -0.37042 z"
       class="g0_23"
       id="path136"
       style="display:block;fill:#ffffff;stroke-width:0.264583" />
    <path
       fill-rule="evenodd"
       d="m 129.43205,134.88754 0.26458,0.23812 -12.3825,12.3825 -0.26458,-0.26458 z"
       class="g0_23"
       id="path137"
       style="display:block;fill:#ffffff;stroke-width:0.264583" />
    <path
       fill-rule="evenodd"
       d="m 120.51559,126.05046 0.26458,0.26458 -12.3825,12.35604 -0.26458,-0.23812 z"
       class="g0_23"
       id="path138"
       style="display:block;fill:#ffffff;stroke-width:0.264583" />
    <path
       fill-rule="evenodd"
       d="m 117.076,147.24358 0.23813,0.23812 -0.29104,0.3175 -0.37042,0.39688 -0.3175,0.39687 -0.3175,0.47625 -0.34396,0.635 -0.29104,0.60855 -0.23812,0.58208 -0.26459,0.71437 -0.13229,0.58209 -0.13229,0.60854 -0.0794,0.50271 -0.0264,0.58208 -0.0265,0.39688 h -0.37042 l 0.0265,-0.84667 0.10583,-0.68792 0.13229,-0.68791 0.18521,-0.66146 0.26459,-0.79375 0.29104,-0.71438 0.44979,-0.82021 0.44979,-0.71437 0.50271,-0.60854 z"
       class="g0_23"
       id="path139"
       style="display:block;fill:#ffffff;stroke-width:0.264583" />
    <path
       fill-rule="evenodd"
       d="m 108.186,138.4065 0.26459,0.23812 -0.34396,0.34396 -0.60854,0.60854 -0.58209,0.66146 -0.68791,0.87312 -0.74084,1.03188 -0.635,1.13771 -0.635,1.21708 -0.58208,1.29646 -0.52917,1.45521 -0.37041,1.19062 -0.3175,1.13771 -0.29104,1.5875 -0.10584,1.21708 -0.0794,0.84667 v 1.24354 h -0.39687 l 0.0265,-1.34937 0.13229,-1.45521 0.15875,-1.37583 0.42333,-1.82563 0.39688,-1.29646 0.50271,-1.45521 0.60854,-1.42875 0.76729,-1.42875 0.76729,-1.21708 0.87313,-1.24354 0.74083,-0.84667 0.82021,-0.79375 z"
       class="g0_23"
       id="path140"
       style="display:block;fill:#ffffff;stroke-width:0.264583" />
    <path
       fill-rule="evenodd"
       d="m 142.66121,130.33671 -12.96458,5.55625 z"
       class="g1_23"
       id="path141"
       style="display:block;fill:#000000;fill-opacity:0;stroke-width:0.264583" />
    <path
       d="m 142.66121,130.33671 -11.29771,4.84187"
       class="g2_23"
       id="path142"
       style="display:block;fill:none;stroke:#000000;stroke-width:0.302948;stroke-linejoin:round" />
    <path
       fill-rule="evenodd"
       d="m 131.15184,134.70233 -1.05834,1.00542 1.45521,-0.0794 z"
       class="g8_23"
       id="path143"
       style="display:block;fill:#000000;stroke:#000000;stroke-width:0.302948;stroke-miterlimit:10" />
    <text
       clip-path="url(#c0_23)"
       x="906.5"
       y="557.29999"
       class="sb_23"
       id="text144"
       transform="matrix(0.26458333,0,0,0.26458333,-97.235841,-17.236265)"
       style="font-size:18.33px;font-family:MS-PGothic_bp;white-space:pre;display:block;fill:#000000">side strip</text>
    <path
       fill-rule="evenodd"
       d="M 129.06163,154.06983 H 152.001 v 7.54062 h -22.93937 z"
       class="g1_23"
       id="path145"
       style="display:block;fill:#000000;fill-opacity:0;stroke-width:0.264583" />
    <text
       clip-path="url(#c0_23)"
       x="877.09998"
       y="675.29999"
       class="s8_23"
       id="text145"
       style="font-size:15.28px;font-family:MS-PGothic_bp;white-space:pre;display:block;fill:#000000"
       transform="matrix(0.26458333,0,0,0.26458333,-97.448161,-19.364538)">off road </text>
    <path
       fill-rule="evenodd"
       d="m 134.3533,159.81129 -16.85396,0.68791 z"
       class="g1_23"
       id="path146"
       style="display:block;fill:#000000;fill-opacity:0;stroke-width:0.264583" />
    <path
       d="m 134.3533,159.81129 -15.02834,0.60854"
       class="g2_23"
       id="path147"
       style="display:block;fill:none;stroke:#000000;stroke-width:0.302948;stroke-linejoin:round" />
    <path
       fill-rule="evenodd"
       d="m 119.2985,159.91712 -1.34937,0.55563 1.40229,0.44979 z"
       class="g8_23"
       id="path148"
       style="display:block;fill:#000000;stroke:#000000;stroke-width:0.302948;stroke-miterlimit:10" />
  </g>
</svg>
