<?xml version="1.0" encoding="UTF-8" standalone="no"?>
<!-- Created with Inkscape (http://www.inkscape.org/) -->

<svg
   width="131.965mm"
   height="67.898003mm"
   viewBox="0 0 131.965 67.898003"
   version="1.1"
   id="svg1"
   inkscape:version="1.3.2 (1:1.3.2+202311252150+091e20ef0f)"
   sodipodi:docname="vm-03-04_3.svg"
   xmlns:inkscape="http://www.inkscape.org/namespaces/inkscape"
   xmlns:sodipodi="http://sodipodi.sourceforge.net/DTD/sodipodi-0.dtd"
   xmlns="http://www.w3.org/2000/svg"
   xmlns:svg="http://www.w3.org/2000/svg">
  <sodipodi:namedview
     id="namedview1"
     pagecolor="#ffffff"
     bordercolor="#000000"
     borderopacity="0.25"
     inkscape:showpageshadow="2"
     inkscape:pageopacity="0.0"
     inkscape:pagecheckerboard="0"
     inkscape:deskcolor="#d1d1d1"
     inkscape:document-units="mm"
     inkscape:zoom="1.7131103"
     inkscape:cx="237.87144"
     inkscape:cy="117.03858"
     inkscape:window-width="3840"
     inkscape:window-height="2123"
     inkscape:window-x="0"
     inkscape:window-y="0"
     inkscape:window-maximized="1"
     inkscape:current-layer="layer1" />
  <defs
     id="defs1">
    <clipPath
       id="c0_37">
      <path
         d="M 0,825 V 0 h 1100 v 825 z"
         id="path2" />
    </clipPath>
  </defs>
  <g
     inkscape:label="Layer 1"
     inkscape:groupmode="layer"
     id="layer1"
     transform="translate(-42.068746,-117.475)">
    <path
       fill-rule="evenodd"
       d="m 133.29146,120.54012 h 18.36209 v 61.85958 h -18.36209 z"
       class="g5_37"
       id="path167"
       style="display:block;fill:#666666;stroke-width:0.264583" />
    <path
       fill-rule="evenodd"
       d="m 114.16209,142.23595 h 56.72666 v 18.44146 h -56.72666 z"
       class="g5_37"
       id="path168"
       style="display:block;fill:#666666;stroke-width:0.264583" />
    <path
       fill-rule="evenodd"
       d="m 133.34438,120.67241 h 1.03187 v 20.79625 h -1.03187 z"
       class="g6_37"
       id="path169"
       style="display:block;fill:#999999;stroke-width:0.264583" />
    <path
       d="m 133.34438,120.67241 h 1.03187 v 20.79625 h -1.03187 z"
       class="g7_37"
       id="path170"
       style="display:block;fill:none;stroke:#999999;stroke-width:0.302948;stroke-linejoin:round" />
    <path
       fill-rule="evenodd"
       d="m 150.59521,120.67241 h 1.03188 v 20.79625 h -1.03188 z"
       class="g6_37"
       id="path171"
       style="display:block;fill:#999999;stroke-width:0.264583" />
    <path
       d="m 150.59521,120.67241 h 1.03188 v 20.79625 h -1.03188 z"
       class="g7_37"
       id="path172"
       style="display:block;fill:none;stroke:#999999;stroke-width:0.302948;stroke-linejoin:round" />
    <path
       fill-rule="evenodd"
       d="m 133.37084,161.47116 h 1.03187 v 20.79625 h -1.03187 z"
       class="g6_37"
       id="path173"
       style="display:block;fill:#999999;stroke-width:0.264583" />
    <path
       d="m 133.37084,161.47116 h 1.03187 v 20.79625 h -1.03187 z"
       class="g7_37"
       id="path174"
       style="display:block;fill:none;stroke:#999999;stroke-width:0.302948;stroke-linejoin:round" />
    <path
       fill-rule="evenodd"
       d="m 150.62167,161.47116 h 1.03188 v 20.79625 h -1.03188 z"
       class="g6_37"
       id="path175"
       style="display:block;fill:#999999;stroke-width:0.264583" />
    <path
       d="m 150.62167,161.47116 h 1.03188 v 20.79625 h -1.03188 z"
       class="g7_37"
       id="path176"
       style="display:block;fill:none;stroke:#999999;stroke-width:0.302948;stroke-linejoin:round" />
    <path
       fill-rule="evenodd"
       d="m 134.37625,141.46866 v 1.13771 h -20.10833 v -1.13771 z"
       class="g6_37"
       id="path177"
       style="display:block;fill:#999999;stroke-width:0.264583" />
    <path
       d="m 134.37625,141.46866 v 1.13771 h -20.10833 v -1.13771 z"
       class="g7_37"
       id="path178"
       style="display:block;fill:none;stroke:#999999;stroke-width:0.302948;stroke-linejoin:round" />
    <path
       fill-rule="evenodd"
       d="m 134.37625,160.25407 v 1.13771 h -20.10833 v -1.13771 z"
       class="g6_37"
       id="path179"
       style="display:block;fill:#999999;stroke-width:0.264583" />
    <path
       d="m 134.37625,160.25407 v 1.13771 h -20.10833 v -1.13771 z"
       class="g7_37"
       id="path180"
       style="display:block;fill:none;stroke:#999999;stroke-width:0.302948;stroke-linejoin:round" />
    <path
       fill-rule="evenodd"
       d="m 170.73,141.52157 v 1.11125 h -20.10833 v -1.11125 z"
       class="g6_37"
       id="path181"
       style="display:block;fill:#999999;stroke-width:0.264583" />
    <path
       d="m 170.73,141.52157 v 1.11125 h -20.10833 v -1.11125 z"
       class="g7_37"
       id="path182"
       style="display:block;fill:none;stroke:#999999;stroke-width:0.302948;stroke-linejoin:round" />
    <path
       fill-rule="evenodd"
       d="m 170.73,160.28053 v 1.13771 h -20.10833 v -1.13771 z"
       class="g6_37"
       id="path183"
       style="display:block;fill:#999999;stroke-width:0.264583" />
    <path
       d="m 170.73,160.28053 v 1.13771 h -20.10833 v -1.13771 z"
       class="g7_37"
       id="path184"
       style="display:block;fill:none;stroke:#999999;stroke-width:0.302948;stroke-linejoin:round" />
    <path
       fill-rule="evenodd"
       d="m 123.34313,151.49637 -9.10167,-0.0529 z"
       class="g1_37"
       id="path185"
       style="display:block;fill:#000000;fill-opacity:0;stroke-width:0.264583" />
    <path
       d="m 123.34313,151.49637 -9.10167,-0.0529"
       class="g8_37"
       id="path186"
       style="display:block;fill:none;stroke:#f3f3f3;stroke-width:0.60616;stroke-linejoin:round;stroke-dasharray:2.64583, 1.85208" />
    <path
       fill-rule="evenodd"
       d="m 170.73,151.49637 -9.0752,-0.0529 z"
       class="g1_37"
       id="path187"
       style="display:block;fill:#000000;fill-opacity:0;stroke-width:0.264583" />
    <path
       d="m 170.73,151.49637 -9.0752,-0.0529"
       class="g8_37"
       id="path188"
       style="display:block;fill:none;stroke:#f3f3f3;stroke-width:0.60616;stroke-linejoin:round;stroke-dasharray:2.64583, 1.85208" />
    <path
       fill-rule="evenodd"
       d="m 142.44605,130.56782 0.0529,-9.89541 z"
       class="g1_37"
       id="path189"
       style="display:block;fill:#000000;fill-opacity:0;stroke-width:0.264583" />
    <path
       d="m 142.44605,130.56782 0.0529,-9.89541"
       class="g8_37"
       id="path190"
       style="display:block;fill:none;stroke:#f3f3f3;stroke-width:0.60616;stroke-linejoin:round;stroke-dasharray:2.64583, 1.85208" />
    <path
       fill-rule="evenodd"
       d="m 142.49896,182.26741 0.0265,-9.92188 z"
       class="g1_37"
       id="path191"
       style="display:block;fill:#000000;fill-opacity:0;stroke-width:0.264583" />
    <path
       d="m 142.49896,182.26741 0.0265,-9.92188"
       class="g8_37"
       id="path192"
       style="display:block;fill:none;stroke:#f3f3f3;stroke-width:0.60616;stroke-linejoin:round;stroke-dasharray:2.64583, 1.85208" />
    <path
       fill-rule="evenodd"
       d="m 123.44896,151.6022 0.0265,-8.99583 z"
       class="g1_37"
       id="path193"
       style="display:block;fill:#000000;fill-opacity:0;stroke-width:0.264583" />
    <path
       d="m 123.44896,151.6022 0.0265,-8.99583"
       class="g9_37"
       id="path194"
       style="display:block;fill:none;stroke:#f3f3f3;stroke-width:0.909373;stroke-linejoin:round" />
    <path
       fill-rule="evenodd"
       d="m 161.73417,160.41282 0.0265,-8.96937 z"
       class="g1_37"
       id="path195"
       style="display:block;fill:#000000;fill-opacity:0;stroke-width:0.264583" />
    <path
       d="m 161.73417,160.41282 0.0265,-8.96937"
       class="g9_37"
       id="path196"
       style="display:block;fill:none;stroke:#f3f3f3;stroke-width:0.909373;stroke-linejoin:round" />
    <path
       fill-rule="evenodd"
       d="m 142.36667,130.75303 h 8.255 z"
       class="g1_37"
       id="path197"
       style="display:block;fill:#000000;fill-opacity:0;stroke-width:0.264583" />
    <path
       d="m 142.36667,130.75303 h 8.255"
       class="g9_37"
       id="path198"
       style="display:block;fill:none;stroke:#f3f3f3;stroke-width:0.909373;stroke-linejoin:round" />
    <path
       fill-rule="evenodd"
       d="m 134.40271,172.37199 h 8.28146 z"
       class="g1_37"
       id="path199"
       style="display:block;fill:#000000;fill-opacity:0;stroke-width:0.264583" />
    <path
       d="m 134.40271,172.37199 h 8.28146"
       class="g9_37"
       id="path200"
       style="display:block;fill:none;stroke:#f3f3f3;stroke-width:0.909373;stroke-linejoin:round" />
    <path
       fill-rule="evenodd"
       d="m 134.8525,166.12782 h 0.87313 v 4.07459 h -0.87313 z"
       class="ga_37"
       id="path201"
       style="display:block;fill:#eeeeee;stroke-width:0.264583" />
    <path
       fill-rule="evenodd"
       d="m 136.70459,166.12782 h 0.87312 v 4.07459 h -0.87312 z"
       class="ga_37"
       id="path202"
       style="display:block;fill:#eeeeee;stroke-width:0.264583" />
    <path
       fill-rule="evenodd"
       d="m 138.55667,166.12782 h 0.87313 v 4.07459 h -0.87313 z"
       class="ga_37"
       id="path203"
       style="display:block;fill:#eeeeee;stroke-width:0.264583" />
    <path
       fill-rule="evenodd"
       d="m 140.40875,166.12782 h 0.87313 v 4.07459 h -0.87313 z"
       class="ga_37"
       id="path204"
       style="display:block;fill:#eeeeee;stroke-width:0.264583" />
    <path
       fill-rule="evenodd"
       d="m 142.26084,166.12782 h 0.87312 v 4.07459 h -0.87312 z"
       class="ga_37"
       id="path205"
       style="display:block;fill:#eeeeee;stroke-width:0.264583" />
    <path
       fill-rule="evenodd"
       d="m 144.11292,166.12782 h 0.87313 v 4.07459 h -0.87313 z"
       class="ga_37"
       id="path206"
       style="display:block;fill:#eeeeee;stroke-width:0.264583" />
    <path
       fill-rule="evenodd"
       d="m 145.965,166.12782 h 0.87313 v 4.07459 H 145.965 Z"
       class="ga_37"
       id="path207"
       style="display:block;fill:#eeeeee;stroke-width:0.264583" />
    <path
       fill-rule="evenodd"
       d="m 147.81709,166.12782 h 0.87312 v 4.07459 h -0.87312 z"
       class="ga_37"
       id="path208"
       style="display:block;fill:#eeeeee;stroke-width:0.264583" />
    <path
       fill-rule="evenodd"
       d="m 149.66917,166.12782 h 0.87313 v 4.07459 h -0.87313 z"
       class="ga_37"
       id="path209"
       style="display:block;fill:#eeeeee;stroke-width:0.264583" />
    <path
       fill-rule="evenodd"
       d="m 134.64084,133.10782 h 0.87312 v 4.07459 h -0.87312 z"
       class="ga_37"
       id="path210"
       style="display:block;fill:#eeeeee;stroke-width:0.264583" />
    <path
       fill-rule="evenodd"
       d="m 136.49292,133.10782 h 0.87313 v 4.07459 h -0.87313 z"
       class="ga_37"
       id="path211"
       style="display:block;fill:#eeeeee;stroke-width:0.264583" />
    <path
       fill-rule="evenodd"
       d="m 138.345,133.10782 h 0.87313 v 4.07459 H 138.345 Z"
       class="ga_37"
       id="path212"
       style="display:block;fill:#eeeeee;stroke-width:0.264583" />
    <path
       fill-rule="evenodd"
       d="m 140.19709,133.10782 h 0.87312 v 4.07459 h -0.87312 z"
       class="ga_37"
       id="path213"
       style="display:block;fill:#eeeeee;stroke-width:0.264583" />
    <path
       fill-rule="evenodd"
       d="m 142.04917,133.10782 h 0.87313 v 4.07459 h -0.87313 z"
       class="ga_37"
       id="path214"
       style="display:block;fill:#eeeeee;stroke-width:0.264583" />
    <path
       fill-rule="evenodd"
       d="m 143.90125,133.10782 h 0.87313 v 4.07459 h -0.87313 z"
       class="ga_37"
       id="path215"
       style="display:block;fill:#eeeeee;stroke-width:0.264583" />
    <path
       fill-rule="evenodd"
       d="m 145.75334,133.10782 h 0.87312 v 4.07459 h -0.87312 z"
       class="ga_37"
       id="path216"
       style="display:block;fill:#eeeeee;stroke-width:0.264583" />
    <path
       fill-rule="evenodd"
       d="m 147.60542,133.10782 h 0.87313 v 4.07459 h -0.87313 z"
       class="ga_37"
       id="path217"
       style="display:block;fill:#eeeeee;stroke-width:0.264583" />
    <path
       fill-rule="evenodd"
       d="m 149.4575,133.10782 h 0.87313 v 4.07459 h -0.87313 z"
       class="ga_37"
       id="path218"
       style="display:block;fill:#eeeeee;stroke-width:0.264583" />
    <path
       fill-rule="evenodd"
       d="m 129.50792,142.92387 v 0.9525 h -3.75708 v -0.9525 z"
       class="ga_37"
       id="path219"
       style="display:block;fill:#eeeeee;stroke-width:0.264583" />
    <path
       fill-rule="evenodd"
       d="m 129.50792,144.9347 v 0.97896 h -3.75708 v -0.97896 z"
       class="ga_37"
       id="path220"
       style="display:block;fill:#eeeeee;stroke-width:0.264583" />
    <path
       fill-rule="evenodd"
       d="m 129.50792,146.97199 v 0.9525 h -3.75708 v -0.9525 z"
       class="ga_37"
       id="path221"
       style="display:block;fill:#eeeeee;stroke-width:0.264583" />
    <path
       fill-rule="evenodd"
       d="m 129.50792,148.98282 v 0.9525 h -3.75708 v -0.9525 z"
       class="ga_37"
       id="path222"
       style="display:block;fill:#eeeeee;stroke-width:0.264583" />
    <path
       fill-rule="evenodd"
       d="m 129.50792,150.99366 v 0.9525 h -3.75708 v -0.9525 z"
       class="ga_37"
       id="path223"
       style="display:block;fill:#eeeeee;stroke-width:0.264583" />
    <path
       fill-rule="evenodd"
       d="m 129.50792,153.00449 v 0.9525 h -3.75708 v -0.9525 z"
       class="ga_37"
       id="path224"
       style="display:block;fill:#eeeeee;stroke-width:0.264583" />
    <path
       fill-rule="evenodd"
       d="m 129.50792,155.01532 v 0.9525 h -3.75708 v -0.9525 z"
       class="ga_37"
       id="path225"
       style="display:block;fill:#eeeeee;stroke-width:0.264583" />
    <path
       fill-rule="evenodd"
       d="m 129.50792,157.02616 v 0.9525 h -3.75708 v -0.9525 z"
       class="ga_37"
       id="path226"
       style="display:block;fill:#eeeeee;stroke-width:0.264583" />
    <path
       fill-rule="evenodd"
       d="m 129.50792,159.03699 v 0.9525 h -3.75708 v -0.9525 z"
       class="ga_37"
       id="path227"
       style="display:block;fill:#eeeeee;stroke-width:0.264583" />
    <path
       fill-rule="evenodd"
       d="m 159.35292,142.92387 v 0.9525 h -3.73062 v -0.9525 z"
       class="ga_37"
       id="path228"
       style="display:block;fill:#eeeeee;stroke-width:0.264583" />
    <path
       fill-rule="evenodd"
       d="m 159.35292,144.9347 v 0.97896 h -3.73062 v -0.97896 z"
       class="ga_37"
       id="path229"
       style="display:block;fill:#eeeeee;stroke-width:0.264583" />
    <path
       fill-rule="evenodd"
       d="m 159.35292,146.97199 v 0.9525 h -3.73062 v -0.9525 z"
       class="ga_37"
       id="path230"
       style="display:block;fill:#eeeeee;stroke-width:0.264583" />
    <path
       fill-rule="evenodd"
       d="m 159.35292,148.98282 v 0.9525 h -3.73062 v -0.9525 z"
       class="ga_37"
       id="path231"
       style="display:block;fill:#eeeeee;stroke-width:0.264583" />
    <path
       fill-rule="evenodd"
       d="m 159.35292,150.99366 v 0.9525 h -3.73062 v -0.9525 z"
       class="ga_37"
       id="path232"
       style="display:block;fill:#eeeeee;stroke-width:0.264583" />
    <path
       fill-rule="evenodd"
       d="m 159.35292,153.00449 v 0.9525 h -3.73062 v -0.9525 z"
       class="ga_37"
       id="path233"
       style="display:block;fill:#eeeeee;stroke-width:0.264583" />
    <path
       fill-rule="evenodd"
       d="m 159.35292,155.01532 v 0.9525 h -3.73062 v -0.9525 z"
       class="ga_37"
       id="path234"
       style="display:block;fill:#eeeeee;stroke-width:0.264583" />
    <path
       fill-rule="evenodd"
       d="m 159.35292,157.02616 v 0.9525 h -3.73062 v -0.9525 z"
       class="ga_37"
       id="path235"
       style="display:block;fill:#eeeeee;stroke-width:0.264583" />
    <path
       fill-rule="evenodd"
       d="m 159.35292,159.03699 v 0.9525 h -3.73062 v -0.9525 z"
       class="ga_37"
       id="path236"
       style="display:block;fill:#eeeeee;stroke-width:0.264583" />
    <path
       fill-rule="evenodd"
       d="m 141.67875,151.65512 0.87313,-0.9525 0.87312,0.9525 -0.87312,0.9525 z"
       class="g1_37"
       id="path237"
       style="display:block;fill:#000000;fill-opacity:0;stroke-width:0.264583" />
    <path
       d="m 141.67875,151.65512 0.87313,-0.9525 0.87312,0.9525 -0.87312,0.9525 z"
       class="gb_37"
       id="path238"
       style="display:block;fill:none;stroke:#f3f3f3;stroke-width:0.302948;stroke-linejoin:round" />
    <path
       fill-rule="evenodd"
       d="m 156.49542,140.62199 v -0.50271 h -4.28625 v 0.50271 z"
       class="g6_37"
       id="path239"
       style="display:block;fill:#999999;stroke-width:0.264583" />
    <path
       d="m 156.49542,140.62199 v -0.50271 h -4.28625 v 0.50271 z"
       class="g7_37"
       id="path240"
       style="display:block;fill:none;stroke:#999999;stroke-width:0.302948;stroke-linejoin:round" />
    <path
       fill-rule="evenodd"
       d="m 156.125,140.56907 v 0 c 0.21167,0 0.37042,-0.1852 0.37042,-0.39687 v -5.55625 c 0,-0.0794 -0.0265,-0.18521 -0.10583,-0.26458 -0.0529,-0.0529 -0.15875,-0.10584 -0.26459,-0.10584 h -1.50812 c -0.21167,0 -0.39688,0.15875 -0.39688,0.37042 v 5.55625 c 0,0.21167 0.18521,0.39687 0.39688,0.39687 z"
       class="g6_37"
       id="path241"
       style="display:block;fill:#999999;stroke-width:0.264583" />
    <path
       d="m 156.125,140.56907 v 0 c 0.21167,0 0.37042,-0.1852 0.37042,-0.39687 v -5.55625 c 0,-0.0794 -0.0265,-0.18521 -0.10583,-0.26458 -0.0529,-0.0529 -0.15875,-0.10584 -0.26459,-0.10584 h -1.50812 c -0.21167,0 -0.39688,0.15875 -0.39688,0.37042 v 5.55625 c 0,0.21167 0.18521,0.39687 0.39688,0.39687 z"
       class="g7_37"
       id="path242"
       style="display:block;fill:none;stroke:#999999;stroke-width:0.302948;stroke-linejoin:round" />
    <path
       fill-rule="evenodd"
       d="m 155.41063,136.25637 v 0 c 0.34396,0 0.635,-0.34396 0.635,-0.71438 0,-0.39687 -0.29104,-0.74083 -0.635,-0.74083 -0.37042,0 -0.66146,0.34396 -0.66146,0.74083 0,0.37042 0.29104,0.71438 0.66146,0.71438 z"
       class="gc_37"
       id="path243"
       style="display:block;fill:#ff0000;stroke-width:0.264583" />
    <path
       fill-rule="evenodd"
       d="m 155.41063,138.24074 v 0 c 0.34396,0 0.635,-0.3175 0.635,-0.71437 0,-0.39688 -0.29104,-0.71438 -0.635,-0.71438 -0.37042,0 -0.66146,0.3175 -0.66146,0.71438 0,0.39687 0.29104,0.71437 0.66146,0.71437 z"
       class="gd_37"
       id="path244"
       style="display:block;fill:#f1c232;stroke-width:0.264583" />
    <path
       fill-rule="evenodd"
       d="m 155.41063,140.25157 v 0 c 0.34396,0 0.635,-0.3175 0.635,-0.71437 0,-0.39688 -0.29104,-0.71438 -0.635,-0.71438 -0.37042,0 -0.66146,0.3175 -0.66146,0.71438 0,0.39687 0.29104,0.71437 0.66146,0.71437 z"
       class="ge_37"
       id="path245"
       style="display:block;fill:#38761d;stroke-width:0.264583" />
    <path
       fill-rule="evenodd"
       d="m 134.42917,172.53074 h 8.12271 v 9.73667 h -8.12271 z"
       class="gf_37"
       id="path246"
       style="display:block;fill:#ea9999;fill-opacity:0.37;stroke-width:0.264583" />
    <path
       fill-rule="evenodd"
       d="m 123.31667,151.46991 v 8.75771 h -9.12812 v -8.75771 z"
       class="gf_37"
       id="path247"
       style="display:block;fill:#ea9999;fill-opacity:0.37;stroke-width:0.264583" />
    <path
       fill-rule="evenodd"
       d="m 123.34313,151.57574 v 8.59896 l 11.1125,-0.0265 0.13229,12.25021 7.9375,0.0265 0.0529,-11.61521 v -1.53458 l -0.0794,-1.0848 -0.23812,-1.1377 -0.34396,-0.87313 -0.37042,-0.71437 -0.50271,-0.79375 -0.52916,-0.55563 -0.50271,-0.55562 -0.635,-0.55563 -0.50271,-0.29104 -0.82021,-0.47625 -0.79375,-0.34396 -0.71437,-0.21167 -0.68792,-0.10583 -1.16417,-0.10583 -4.68312,0.0265 z"
       class="gi_37"
       id="path248"
       style="display:block;fill:#f4cccc;fill-opacity:0.43;stroke-width:0.264583" />
    <path
       fill-rule="evenodd"
       d="m 132.52417,129.24491 h 0.47625 v 9.92187 h -0.47625 z"
       class="g6_37"
       id="path249"
       style="display:block;fill:#999999;stroke-width:0.264583" />
    <path
       d="m 132.52417,129.24491 h 0.47625 v 9.92187 h -0.47625 z"
       class="g7_37"
       id="path250"
       style="display:block;fill:none;stroke:#999999;stroke-width:0.302948;stroke-linejoin:round" />
    <path
       fill-rule="evenodd"
       d="m 132.70938,129.66824 v 0 c 0,-0.23812 0.18521,-0.42333 0.39687,-0.42333 h 4.97417 c 0.10583,0 0.21167,0.0529 0.29104,0.13229 0.0794,0.0794 0.13229,0.18521 0.13229,0.29104 v 1.64042 c 0,0.23812 -0.1852,0.42333 -0.42333,0.42333 h -4.97417 c -0.21166,0 -0.39687,-0.18521 -0.39687,-0.42333 z"
       class="g6_37"
       id="path251"
       style="display:block;fill:#999999;stroke-width:0.264583" />
    <path
       d="m 132.70938,129.66824 v 0 c 0,-0.23812 0.18521,-0.42333 0.39687,-0.42333 h 4.97417 c 0.10583,0 0.21167,0.0529 0.29104,0.13229 0.0794,0.0794 0.13229,0.18521 0.13229,0.29104 v 1.64042 c 0,0.23812 -0.1852,0.42333 -0.42333,0.42333 h -4.97417 c -0.21166,0 -0.39687,-0.18521 -0.39687,-0.42333 z"
       class="g7_37"
       id="path252"
       style="display:block;fill:none;stroke:#999999;stroke-width:0.302948;stroke-linejoin:round" />
    <path
       fill-rule="evenodd"
       d="m 136.65167,130.46199 v 0 c 0,-0.39687 0.29104,-0.71437 0.66146,-0.71437 0.18521,0 0.34396,0.0794 0.44979,0.21166 0.13229,0.13229 0.21167,0.3175 0.21167,0.50271 0,0.39688 -0.29104,0.71438 -0.66146,0.71438 -0.37042,0 -0.66146,-0.3175 -0.66146,-0.71438 z"
       class="gc_37"
       id="path253"
       style="display:block;fill:#ff0000;stroke-width:0.264583" />
    <path
       fill-rule="evenodd"
       d="m 134.82605,130.46199 v 0 c 0,-0.39687 0.29104,-0.71437 0.635,-0.71437 0.1852,0 0.34395,0.0794 0.47625,0.21166 0.10583,0.13229 0.1852,0.3175 0.1852,0.50271 0,0.39688 -0.29104,0.71438 -0.66145,0.71438 -0.34396,0 -0.635,-0.3175 -0.635,-0.71438 z"
       class="gd_37"
       id="path254"
       style="display:block;fill:#f1c232;stroke-width:0.264583" />
    <path
       fill-rule="evenodd"
       d="m 132.97396,130.46199 v 0 c 0,-0.39687 0.29104,-0.71437 0.66146,-0.71437 0.15875,0 0.34396,0.0794 0.44979,0.21166 0.13229,0.13229 0.18521,0.3175 0.18521,0.50271 0,0.39688 -0.29104,0.71438 -0.635,0.71438 -0.37042,0 -0.66146,-0.3175 -0.66146,-0.71438 z"
       class="ge_37"
       id="path255"
       style="display:block;fill:#38761d;stroke-width:0.264583" />
    <path
       fill-rule="evenodd"
       d="m 152.50021,154.4597 h -0.47625 v 9.92187 h 0.47625 z"
       class="g6_37"
       id="path256"
       style="display:block;fill:#999999;stroke-width:0.264583" />
    <path
       d="m 152.50021,154.4597 h -0.47625 v 9.92187 h 0.47625 z"
       class="g7_37"
       id="path257"
       style="display:block;fill:none;stroke:#999999;stroke-width:0.302948;stroke-linejoin:round" />
    <path
       fill-rule="evenodd"
       d="m 152.34146,154.88303 v 0 c 0,-0.23812 -0.18521,-0.42333 -0.42333,-0.42333 h -4.97417 c -0.10583,0 -0.21166,0.0529 -0.29104,0.13229 -0.0794,0.0794 -0.10583,0.18521 -0.10583,0.29104 v 1.66688 c 0,0.21166 0.18521,0.39687 0.39687,0.39687 h 4.97417 c 0.23812,0 0.42333,-0.18521 0.42333,-0.39687 z"
       class="g6_37"
       id="path258"
       style="display:block;fill:#999999;stroke-width:0.264583" />
    <path
       d="m 152.34146,154.88303 v 0 c 0,-0.23812 -0.18521,-0.42333 -0.42333,-0.42333 h -4.97417 c -0.10583,0 -0.21166,0.0529 -0.29104,0.13229 -0.0794,0.0794 -0.10583,0.18521 -0.10583,0.29104 v 1.66688 c 0,0.21166 0.18521,0.39687 0.39687,0.39687 h 4.97417 c 0.23812,0 0.42333,-0.18521 0.42333,-0.39687 z"
       class="g7_37"
       id="path259"
       style="display:block;fill:none;stroke:#999999;stroke-width:0.302948;stroke-linejoin:round" />
    <path
       fill-rule="evenodd"
       d="m 128.47605,162.84699 v -0.50271 h 4.28625 v 0.50271 z"
       class="g6_37"
       id="path260"
       style="display:block;fill:#999999;stroke-width:0.264583" />
    <path
       d="m 128.47605,162.84699 v -0.50271 h 4.28625 v 0.50271 z"
       class="g7_37"
       id="path261"
       style="display:block;fill:none;stroke:#999999;stroke-width:0.302948;stroke-linejoin:round" />
    <path
       fill-rule="evenodd"
       d="m 128.87292,162.79407 v 0 c -0.21167,0 -0.39687,-0.1852 -0.39687,-0.39687 v -5.55625 c 0,-0.0794 0.0529,-0.18521 0.10583,-0.26458 0.0794,-0.0529 0.18521,-0.10584 0.29104,-0.10584 h 1.50813 c 0.21166,0 0.37041,0.15875 0.37041,0.37042 v 5.55625 c 0,0.21167 -0.15875,0.39687 -0.37041,0.39687 z"
       class="g6_37"
       id="path262"
       style="display:block;fill:#999999;stroke-width:0.264583" />
    <path
       d="m 128.87292,162.79407 v 0 c -0.21167,0 -0.39687,-0.1852 -0.39687,-0.39687 v -5.55625 c 0,-0.0794 0.0529,-0.18521 0.10583,-0.26458 0.0794,-0.0529 0.18521,-0.10584 0.29104,-0.10584 h 1.50813 c 0.21166,0 0.37041,0.15875 0.37041,0.37042 v 5.55625 c 0,0.21167 -0.15875,0.39687 -0.37041,0.39687 z"
       class="g7_37"
       id="path263"
       style="display:block;fill:none;stroke:#999999;stroke-width:0.302948;stroke-linejoin:round" />
    <path
       fill-rule="evenodd"
       d="m 129.5873,158.48137 v 0 c -0.37042,0 -0.66146,-0.34396 -0.66146,-0.74084 0,-0.37041 0.29104,-0.71437 0.66146,-0.71437 0.37041,0 0.66145,0.34396 0.66145,0.71437 0,0.39688 -0.29104,0.74084 -0.66145,0.74084 z"
       class="gc_37"
       id="path264"
       style="display:block;fill:#ff0000;stroke-width:0.264583" />
    <path
       fill-rule="evenodd"
       d="m 129.5873,160.46574 v 0 c -0.37042,0 -0.66146,-0.3175 -0.66146,-0.71437 0,-0.39688 0.29104,-0.71438 0.66146,-0.71438 0.37041,0 0.66145,0.3175 0.66145,0.71438 0,0.39687 -0.29104,0.71437 -0.66145,0.71437 z"
       class="gd_37"
       id="path265"
       style="display:block;fill:#f1c232;stroke-width:0.264583" />
    <path
       fill-rule="evenodd"
       d="m 129.5873,162.47657 v 0 c -0.37042,0 -0.66146,-0.3175 -0.66146,-0.71437 0,-0.39688 0.29104,-0.71438 0.66146,-0.71438 0.37041,0 0.66145,0.3175 0.66145,0.71438 0,0.39687 -0.29104,0.71437 -0.66145,0.71437 z"
       class="ge_37"
       id="path266"
       style="display:block;fill:#38761d;stroke-width:0.264583" />
    <path
       fill-rule="evenodd"
       d="m 51.376461,138.61116 h 54.848129 v 23.52146 H 51.376461 Z"
       class="g1_37"
       id="path270"
       style="display:block;fill:#000000;fill-opacity:0;stroke-width:0.264583" />
    <g
       clip-path="url(#c0_37)"
       id="g274"
       transform="matrix(0.26458333,0,0,0.26458333,-98.841812,-15.588486)"
       style="display:block">
      <text
         x="543.40002"
         y="611.70001"
         class="s1_37"
         id="text271"
         style="font-size:18.33px;font-family:MS-PGothic_bn;white-space:pre;fill:#000000">Your creation is incomplete.</text>
      <text
         x="543.40002"
         y="633.70001"
         class="s1_37"
         id="text272"
         style="font-size:18.33px;font-family:MS-PGothic_bn;white-space:pre;fill:#000000" />
      <text
         x="576.90002"
         y="633.70001"
         class="s6_37"
         id="text273"
         style="font-size:18.33px;font-family:ArialMT_bj;white-space:pre;fill:#000000" />
      <text
         x="637"
         y="633.70001"
         class="s1_37"
         id="text274"
         style="font-size:18.33px;font-family:MS-PGothic_bn;white-space:pre;fill:#000000" />
    </g>
  </g>
</svg>
