<?xml version="1.0" encoding="UTF-8" standalone="no"?>
<!-- Created with Inkscape (http://www.inkscape.org/) -->

<svg
   width="62.950001mm"
   height="67.976997mm"
   viewBox="0 0 62.95 67.976997"
   version="1.1"
   id="svg1"
   inkscape:version="1.3.2 (1:1.3.2+202311252150+091e20ef0f)"
   sodipodi:docname="vm-03-11_3.svg"
   xmlns:inkscape="http://www.inkscape.org/namespaces/inkscape"
   xmlns:sodipodi="http://sodipodi.sourceforge.net/DTD/sodipodi-0.dtd"
   xmlns="http://www.w3.org/2000/svg"
   xmlns:svg="http://www.w3.org/2000/svg">
  <sodipodi:namedview
     id="namedview1"
     pagecolor="#ffffff"
     bordercolor="#000000"
     borderopacity="0.25"
     inkscape:showpageshadow="2"
     inkscape:pageopacity="0.0"
     inkscape:pagecheckerboard="0"
     inkscape:deskcolor="#d1d1d1"
     inkscape:document-units="mm"
     inkscape:zoom="1.7131103"
     inkscape:cx="107.69885"
     inkscape:cy="117.03858"
     inkscape:window-width="3840"
     inkscape:window-height="2123"
     inkscape:window-x="0"
     inkscape:window-y="0"
     inkscape:window-maximized="1"
     inkscape:current-layer="layer1" />
  <defs
     id="defs1" />
  <g
     inkscape:label="Layer 1"
     inkscape:groupmode="layer"
     id="layer1"
     transform="translate(-76.46458,-117.475)">
    <path
       fill-rule="evenodd"
       d="M 98.930063,120.97201 H 117.29214 V 182.8316 H 98.930063 Z"
       class="g3_44"
       id="path38"
       style="display:block;fill:#666666;stroke-width:0.264583" />
    <path
       fill-rule="evenodd"
       d="m 79.800689,142.64139 h 56.700201 v 18.44146 H 79.800689 Z"
       class="g3_44"
       id="path39"
       style="display:block;fill:#666666;stroke-width:0.264583" />
    <path
       fill-rule="evenodd"
       d="m 98.956522,121.07785 h 1.058328 v 20.79625 h -1.058328 z"
       class="g4_44"
       id="path40"
       style="display:block;fill:#999999;stroke-width:0.264583" />
    <path
       d="m 98.956522,121.07785 h 1.058328 v 20.79625 h -1.058328 z"
       class="g5_44"
       id="path41"
       style="display:block;fill:none;stroke:#999999;stroke-width:0.302948;stroke-linejoin:round" />
    <path
       fill-rule="evenodd"
       d="m 116.20735,121.07785 h 1.05834 v 20.79625 h -1.05834 z"
       class="g4_44"
       id="path42"
       style="display:block;fill:#999999;stroke-width:0.264583" />
    <path
       d="m 116.20735,121.07785 h 1.05834 v 20.79625 h -1.05834 z"
       class="g5_44"
       id="path43"
       style="display:block;fill:none;stroke:#999999;stroke-width:0.302948;stroke-linejoin:round" />
    <path
       fill-rule="evenodd"
       d="m 99.009438,161.90306 h 1.031872 v 20.79625 h -1.031872 z"
       class="g4_44"
       id="path44"
       style="display:block;fill:#999999;stroke-width:0.264583" />
    <path
       d="m 99.009438,161.90306 h 1.031872 v 20.79625 h -1.031872 z"
       class="g5_44"
       id="path45"
       style="display:block;fill:none;stroke:#999999;stroke-width:0.302948;stroke-linejoin:round" />
    <path
       fill-rule="evenodd"
       d="m 116.26027,161.90306 h 1.03187 v 20.79625 h -1.03187 z"
       class="g4_44"
       id="path46"
       style="display:block;fill:#999999;stroke-width:0.264583" />
    <path
       d="m 116.26027,161.90306 h 1.03187 v 20.79625 h -1.03187 z"
       class="g5_44"
       id="path47"
       style="display:block;fill:none;stroke:#999999;stroke-width:0.302948;stroke-linejoin:round" />
    <path
       fill-rule="evenodd"
       d="m 100.01485,141.90056 v 1.11125 H 79.906522 v -1.11125 z"
       class="g4_44"
       id="path48"
       style="display:block;fill:#999999;stroke-width:0.264583" />
    <path
       d="m 100.01485,141.90056 v 1.11125 H 79.906522 v -1.11125 z"
       class="g5_44"
       id="path49"
       style="display:block;fill:none;stroke:#999999;stroke-width:0.302948;stroke-linejoin:round" />
    <path
       fill-rule="evenodd"
       d="m 100.01485,160.65951 v 1.13771 H 79.906522 v -1.13771 z"
       class="g4_44"
       id="path50"
       style="display:block;fill:#999999;stroke-width:0.264583" />
    <path
       d="m 100.01485,160.65951 v 1.13771 H 79.906522 v -1.13771 z"
       class="g5_44"
       id="path51"
       style="display:block;fill:none;stroke:#999999;stroke-width:0.302948;stroke-linejoin:round" />
    <path
       fill-rule="evenodd"
       d="m 136.3686,141.92701 v 1.13771 h -20.10833 v -1.13771 z"
       class="g4_44"
       id="path52"
       style="display:block;fill:#999999;stroke-width:0.264583" />
    <path
       d="m 136.3686,141.92701 v 1.13771 h -20.10833 v -1.13771 z"
       class="g5_44"
       id="path53"
       style="display:block;fill:none;stroke:#999999;stroke-width:0.302948;stroke-linejoin:round" />
    <path
       fill-rule="evenodd"
       d="m 136.3686,160.71243 v 1.11125 h -20.10833 v -1.11125 z"
       class="g4_44"
       id="path54"
       style="display:block;fill:#999999;stroke-width:0.264583" />
    <path
       d="m 136.3686,160.71243 v 1.11125 h -20.10833 v -1.11125 z"
       class="g5_44"
       id="path55"
       style="display:block;fill:none;stroke:#999999;stroke-width:0.302948;stroke-linejoin:round" />
    <path
       fill-rule="evenodd"
       d="m 88.98173,151.90181 -9.101666,-0.0529 z"
       class="g1_44"
       id="path56"
       style="display:block;fill:#000000;fill-opacity:0;stroke-width:0.264583" />
    <path
       d="m 88.98173,151.90181 -9.101666,-0.0529"
       class="g6_44"
       id="path57"
       style="display:block;fill:none;stroke:#f3f3f3;stroke-width:0.60616;stroke-linejoin:round;stroke-dasharray:2.64583, 1.85208" />
    <path
       fill-rule="evenodd"
       d="m 136.3686,151.90181 -9.10166,-0.0529 z"
       class="g1_44"
       id="path58"
       style="display:block;fill:#000000;fill-opacity:0;stroke-width:0.264583" />
    <path
       d="m 136.3686,151.90181 -9.10166,-0.0529"
       class="g6_44"
       id="path59"
       style="display:block;fill:none;stroke:#f3f3f3;stroke-width:0.60616;stroke-linejoin:round;stroke-dasharray:2.64583, 1.85208" />
    <path
       fill-rule="evenodd"
       d="m 108.08464,130.99972 0.0529,-9.92187 z"
       class="g1_44"
       id="path60"
       style="display:block;fill:#000000;fill-opacity:0;stroke-width:0.264583" />
    <path
       d="m 108.08464,130.99972 0.0529,-9.92187"
       class="g6_44"
       id="path61"
       style="display:block;fill:none;stroke:#f3f3f3;stroke-width:0.60616;stroke-linejoin:round;stroke-dasharray:2.64583, 1.85208" />
    <path
       fill-rule="evenodd"
       d="m 108.1111,182.67285 0.0529,-9.89542 z"
       class="g1_44"
       id="path62"
       style="display:block;fill:#000000;fill-opacity:0;stroke-width:0.264583" />
    <path
       d="m 108.1111,182.67285 0.0529,-9.89542"
       class="g6_44"
       id="path63"
       style="display:block;fill:none;stroke:#f3f3f3;stroke-width:0.60616;stroke-linejoin:round;stroke-dasharray:2.64583, 1.85208" />
    <path
       fill-rule="evenodd"
       d="m 89.087564,152.00764 v -8.96938 z"
       class="g1_44"
       id="path64"
       style="display:block;fill:#000000;fill-opacity:0;stroke-width:0.264583" />
    <path
       d="m 89.087564,152.00764 v -8.96938"
       class="g7_44"
       id="path65"
       style="display:block;fill:none;stroke:#f3f3f3;stroke-width:0.909373;stroke-linejoin:round" />
    <path
       fill-rule="evenodd"
       d="m 127.37277,160.84472 v -8.99583 z"
       class="g1_44"
       id="path66"
       style="display:block;fill:#000000;fill-opacity:0;stroke-width:0.264583" />
    <path
       d="m 127.37277,160.84472 v -8.99583"
       class="g7_44"
       id="path67"
       style="display:block;fill:none;stroke:#f3f3f3;stroke-width:0.909373;stroke-linejoin:round" />
    <path
       fill-rule="evenodd"
       d="m 108.00527,131.15847 8.255,0.0265 z"
       class="g1_44"
       id="path68"
       style="display:block;fill:#000000;fill-opacity:0;stroke-width:0.264583" />
    <path
       d="m 108.00527,131.15847 8.255,0.0265"
       class="g7_44"
       id="path69"
       style="display:block;fill:none;stroke:#f3f3f3;stroke-width:0.909373;stroke-linejoin:round" />
    <path
       fill-rule="evenodd"
       d="m 100.04131,172.77743 8.255,0.0265 z"
       class="g1_44"
       id="path70"
       style="display:block;fill:#000000;fill-opacity:0;stroke-width:0.264583" />
    <path
       d="m 100.04131,172.77743 8.255,0.0265"
       class="g7_44"
       id="path71"
       style="display:block;fill:none;stroke:#f3f3f3;stroke-width:0.909373;stroke-linejoin:round" />
    <path
       fill-rule="evenodd"
       d="m 100.4911,166.53326 h 0.87313 v 4.07459 h -0.87313 z"
       class="g8_44"
       id="path72"
       style="display:block;fill:#eeeeee;stroke-width:0.264583" />
    <path
       fill-rule="evenodd"
       d="m 102.34319,166.53326 h 0.87312 v 4.07459 h -0.87312 z"
       class="g8_44"
       id="path73"
       style="display:block;fill:#eeeeee;stroke-width:0.264583" />
    <path
       fill-rule="evenodd"
       d="m 104.19527,166.53326 h 0.87312 v 4.07459 h -0.87312 z"
       class="g8_44"
       id="path74"
       style="display:block;fill:#eeeeee;stroke-width:0.264583" />
    <path
       fill-rule="evenodd"
       d="m 106.04735,166.53326 h 0.87313 v 4.07459 h -0.87313 z"
       class="g8_44"
       id="path75"
       style="display:block;fill:#eeeeee;stroke-width:0.264583" />
    <path
       fill-rule="evenodd"
       d="m 107.89944,166.53326 h 0.87312 v 4.07459 h -0.87312 z"
       class="g8_44"
       id="path76"
       style="display:block;fill:#eeeeee;stroke-width:0.264583" />
    <path
       fill-rule="evenodd"
       d="m 109.75152,166.53326 h 0.87312 v 4.07459 h -0.87312 z"
       class="g8_44"
       id="path77"
       style="display:block;fill:#eeeeee;stroke-width:0.264583" />
    <path
       fill-rule="evenodd"
       d="m 111.57714,166.53326 h 0.89959 v 4.07459 h -0.89959 z"
       class="g8_44"
       id="path78"
       style="display:block;fill:#eeeeee;stroke-width:0.264583" />
    <path
       fill-rule="evenodd"
       d="m 113.42923,166.53326 h 0.89958 v 4.07459 h -0.89958 z"
       class="g8_44"
       id="path79"
       style="display:block;fill:#eeeeee;stroke-width:0.264583" />
    <path
       fill-rule="evenodd"
       d="m 115.28131,166.53326 h 0.87313 v 4.07459 h -0.87313 z"
       class="g8_44"
       id="path80"
       style="display:block;fill:#eeeeee;stroke-width:0.264583" />
    <path
       fill-rule="evenodd"
       d="m 100.27944,133.53972 h 0.87312 v 4.04813 h -0.87312 z"
       class="g8_44"
       id="path81"
       style="display:block;fill:#eeeeee;stroke-width:0.264583" />
    <path
       fill-rule="evenodd"
       d="m 102.13152,133.53972 h 0.87313 v 4.04813 h -0.87313 z"
       class="g8_44"
       id="path82"
       style="display:block;fill:#eeeeee;stroke-width:0.264583" />
    <path
       fill-rule="evenodd"
       d="m 103.9836,133.53972 h 0.87313 v 4.04813 h -0.87313 z"
       class="g8_44"
       id="path83"
       style="display:block;fill:#eeeeee;stroke-width:0.264583" />
    <path
       fill-rule="evenodd"
       d="m 105.83569,133.53972 h 0.87312 v 4.04813 h -0.87312 z"
       class="g8_44"
       id="path84"
       style="display:block;fill:#eeeeee;stroke-width:0.264583" />
    <path
       fill-rule="evenodd"
       d="m 107.68777,133.53972 h 0.87312 v 4.04813 h -0.87312 z"
       class="g8_44"
       id="path85"
       style="display:block;fill:#eeeeee;stroke-width:0.264583" />
    <path
       fill-rule="evenodd"
       d="m 109.53985,133.53972 h 0.87313 v 4.04813 h -0.87313 z"
       class="g8_44"
       id="path86"
       style="display:block;fill:#eeeeee;stroke-width:0.264583" />
    <path
       fill-rule="evenodd"
       d="m 111.36548,133.53972 h 0.89958 v 4.04813 h -0.89958 z"
       class="g8_44"
       id="path87"
       style="display:block;fill:#eeeeee;stroke-width:0.264583" />
    <path
       fill-rule="evenodd"
       d="m 113.21756,133.53972 h 0.87313 v 4.04813 h -0.87313 z"
       class="g8_44"
       id="path88"
       style="display:block;fill:#eeeeee;stroke-width:0.264583" />
    <path
       fill-rule="evenodd"
       d="m 115.06964,133.53972 h 0.87313 v 4.04813 h -0.87313 z"
       class="g8_44"
       id="path89"
       style="display:block;fill:#eeeeee;stroke-width:0.264583" />
    <path
       fill-rule="evenodd"
       d="m 95.120063,143.35576 v 0.9525 h -3.730624 v -0.9525 z"
       class="g8_44"
       id="path90"
       style="display:block;fill:#eeeeee;stroke-width:0.264583" />
    <path
       fill-rule="evenodd"
       d="m 95.120063,145.3666 v 0.9525 h -3.730624 v -0.9525 z"
       class="g8_44"
       id="path91"
       style="display:block;fill:#eeeeee;stroke-width:0.264583" />
    <path
       fill-rule="evenodd"
       d="m 95.120063,147.37743 v 0.9525 h -3.730624 v -0.9525 z"
       class="g8_44"
       id="path92"
       style="display:block;fill:#eeeeee;stroke-width:0.264583" />
    <path
       fill-rule="evenodd"
       d="m 95.120063,149.38826 v 0.9525 h -3.730624 v -0.9525 z"
       class="g8_44"
       id="path93"
       style="display:block;fill:#eeeeee;stroke-width:0.264583" />
    <path
       fill-rule="evenodd"
       d="m 95.120063,151.3991 v 0.9525 h -3.730624 v -0.9525 z"
       class="g8_44"
       id="path94"
       style="display:block;fill:#eeeeee;stroke-width:0.264583" />
    <path
       fill-rule="evenodd"
       d="m 95.120063,153.40993 v 0.9525 h -3.730624 v -0.9525 z"
       class="g8_44"
       id="path95"
       style="display:block;fill:#eeeeee;stroke-width:0.264583" />
    <path
       fill-rule="evenodd"
       d="m 95.120063,155.42076 v 0.9525 h -3.730624 v -0.9525 z"
       class="g8_44"
       id="path96"
       style="display:block;fill:#eeeeee;stroke-width:0.264583" />
    <path
       fill-rule="evenodd"
       d="m 95.120063,157.45806 v 0.9525 h -3.730624 v -0.9525 z"
       class="g8_44"
       id="path97"
       style="display:block;fill:#eeeeee;stroke-width:0.264583" />
    <path
       fill-rule="evenodd"
       d="m 95.120063,159.46889 v 0.9525 h -3.730624 v -0.9525 z"
       class="g8_44"
       id="path98"
       style="display:block;fill:#eeeeee;stroke-width:0.264583" />
    <path
       fill-rule="evenodd"
       d="m 124.96506,143.35576 v 0.9525 h -3.73062 v -0.9525 z"
       class="g8_44"
       id="path99"
       style="display:block;fill:#eeeeee;stroke-width:0.264583" />
    <path
       fill-rule="evenodd"
       d="m 124.96506,145.3666 v 0.9525 h -3.73062 v -0.9525 z"
       class="g8_44"
       id="path100"
       style="display:block;fill:#eeeeee;stroke-width:0.264583" />
    <path
       fill-rule="evenodd"
       d="m 124.96506,147.37743 v 0.9525 h -3.73062 v -0.9525 z"
       class="g8_44"
       id="path101"
       style="display:block;fill:#eeeeee;stroke-width:0.264583" />
    <path
       fill-rule="evenodd"
       d="m 124.96506,149.38826 v 0.9525 h -3.73062 v -0.9525 z"
       class="g8_44"
       id="path102"
       style="display:block;fill:#eeeeee;stroke-width:0.264583" />
    <path
       fill-rule="evenodd"
       d="m 124.96506,151.3991 v 0.9525 h -3.73062 v -0.9525 z"
       class="g8_44"
       id="path103"
       style="display:block;fill:#eeeeee;stroke-width:0.264583" />
    <path
       fill-rule="evenodd"
       d="m 124.96506,153.40993 v 0.9525 h -3.73062 v -0.9525 z"
       class="g8_44"
       id="path104"
       style="display:block;fill:#eeeeee;stroke-width:0.264583" />
    <path
       fill-rule="evenodd"
       d="m 124.96506,155.42076 v 0.9525 h -3.73062 v -0.9525 z"
       class="g8_44"
       id="path105"
       style="display:block;fill:#eeeeee;stroke-width:0.264583" />
    <path
       fill-rule="evenodd"
       d="m 124.96506,157.45806 v 0.9525 h -3.73062 v -0.9525 z"
       class="g8_44"
       id="path106"
       style="display:block;fill:#eeeeee;stroke-width:0.264583" />
    <path
       fill-rule="evenodd"
       d="m 124.96506,159.46889 v 0.9525 h -3.73062 v -0.9525 z"
       class="g8_44"
       id="path107"
       style="display:block;fill:#eeeeee;stroke-width:0.264583" />
    <path
       fill-rule="evenodd"
       d="m 107.31735,152.08701 0.87313,-0.9525 0.87312,0.9525 -0.87312,0.9525 z"
       class="g1_44"
       id="path108"
       style="display:block;fill:#000000;fill-opacity:0;stroke-width:0.264583" />
    <path
       d="m 107.31735,152.08701 0.87313,-0.9525 0.87312,0.9525 -0.87312,0.9525 z"
       class="g9_44"
       id="path109"
       style="display:block;fill:none;stroke:#f3f3f3;stroke-width:0.302948;stroke-linejoin:round" />
    <path
       fill-rule="evenodd"
       d="m 136.47443,143.1441 v 8.70479 h -8.94291 v -8.70479 z"
       class="g1_44"
       id="path110"
       style="display:block;fill:#000000;fill-opacity:0;stroke-width:0.264583" />
    <path
       d="m 136.47443,143.1441 v 8.70479 h -8.94291 v -8.70479 z"
       class="g2_44"
       id="path111"
       style="display:block;fill:none;stroke:#000000;stroke-width:0.302948;stroke-linejoin:round" />
    <path
       fill-rule="evenodd"
       d="m 100.06777,172.93618 h 8.09625 v 9.76313 h -8.09625 z"
       class="g1_44"
       id="path112"
       style="display:block;fill:#000000;fill-opacity:0;stroke-width:0.264583" />
    <path
       d="m 100.06777,172.93618 h 8.09625 v 9.76313 h -8.09625 z"
       class="g2_44"
       id="path113"
       style="display:block;fill:none;stroke:#000000;stroke-width:0.302948;stroke-linejoin:round" />
    <path
       fill-rule="evenodd"
       d="m 136.39506,151.90181 v 8.78416 h -8.83708 v -8.78416 z"
       class="g1_44"
       id="path114"
       style="display:block;fill:#000000;fill-opacity:0;stroke-width:0.264583" />
    <path
       d="m 136.39506,151.90181 v 8.78416 h -8.83708 v -8.78416 z"
       class="g2_44"
       id="path115"
       style="display:block;fill:none;stroke:#000000;stroke-width:0.302948;stroke-linejoin:round" />
    <path
       fill-rule="evenodd"
       d="m 88.955272,143.11764 v 8.75771 h -9.128125 v -8.75771 z"
       class="g1_44"
       id="path116"
       style="display:block;fill:#000000;fill-opacity:0;stroke-width:0.264583" />
    <path
       d="m 88.955272,143.11764 v 8.75771 h -9.128125 v -8.75771 z"
       class="g2_44"
       id="path117"
       style="display:block;fill:none;stroke:#000000;stroke-width:0.302948;stroke-linejoin:round" />
    <path
       fill-rule="evenodd"
       d="m 88.955272,151.90181 v 8.73125 h -9.128125 v -8.73125 z"
       class="g1_44"
       id="path118"
       style="display:block;fill:#000000;fill-opacity:0;stroke-width:0.264583" />
    <path
       d="m 88.955272,151.90181 v 8.73125 h -9.128125 v -8.73125 z"
       class="g2_44"
       id="path119"
       style="display:block;fill:none;stroke:#000000;stroke-width:0.302948;stroke-linejoin:round" />
    <path
       fill-rule="evenodd"
       d="m 116.20735,182.67285 h -8.01687 v -9.71021 h 8.01687 z"
       class="g1_44"
       id="path120"
       style="display:block;fill:#000000;fill-opacity:0;stroke-width:0.264583" />
    <path
       d="m 116.20735,182.67285 h -8.01687 v -9.71021 h 8.01687 z"
       class="g2_44"
       id="path121"
       style="display:block;fill:none;stroke:#000000;stroke-width:0.302948;stroke-linejoin:round" />
    <path
       fill-rule="evenodd"
       d="m 116.15444,130.97326 h -8.01688 v -9.92187 h 8.01688 z"
       class="g1_44"
       id="path122"
       style="display:block;fill:#000000;fill-opacity:0;stroke-width:0.264583" />
    <path
       d="m 116.15444,130.97326 h -8.01688 v -9.92187 h 8.01688 z"
       class="g2_44"
       id="path123"
       style="display:block;fill:none;stroke:#000000;stroke-width:0.302948;stroke-linejoin:round" />
    <path
       fill-rule="evenodd"
       d="m 108.1111,130.97326 h -8.01687 v -9.94833 h 8.01687 z"
       class="g1_44"
       id="path124"
       style="display:block;fill:#000000;fill-opacity:0;stroke-width:0.264583" />
    <path
       d="m 108.1111,130.97326 h -8.01687 v -9.94833 h 8.01687 z"
       class="g2_44"
       id="path125"
       style="display:block;fill:none;stroke:#000000;stroke-width:0.302948;stroke-linejoin:round" />
    <path
       fill-rule="evenodd"
       d="m 116.20735,172.93618 h -8.01687 v -41.91 h 8.01687 z"
       class="g1_44"
       id="path126"
       style="display:block;fill:#000000;fill-opacity:0;stroke-width:0.264583" />
    <path
       d="m 116.20735,172.93618 h -8.01687 v -41.91 h 8.01687 z"
       class="g2_44"
       id="path127"
       style="display:block;fill:none;stroke:#000000;stroke-width:0.302948;stroke-linejoin:round" />
    <path
       fill-rule="evenodd"
       d="m 108.1111,172.93618 h -7.99041 v -41.91 h 7.99041 z"
       class="g1_44"
       id="path128"
       style="display:block;fill:#000000;fill-opacity:0;stroke-width:0.264583" />
    <path
       d="m 108.1111,172.93618 h -7.99041 v -41.91 h 7.99041 z"
       class="g2_44"
       id="path129"
       style="display:block;fill:none;stroke:#000000;stroke-width:0.302948;stroke-linejoin:round" />
    <path
       fill-rule="evenodd"
       d="m 88.955272,160.6066 v -8.70479 h 38.549788 v 8.70479 z"
       class="g1_44"
       id="path130"
       style="display:block;fill:#000000;fill-opacity:0;stroke-width:0.264583" />
    <path
       d="m 88.955272,160.6066 v -8.70479 h 38.549788 v 8.70479 z"
       class="g2_44"
       id="path131"
       style="display:block;fill:none;stroke:#000000;stroke-width:0.302948;stroke-linejoin:round" />
    <path
       fill-rule="evenodd"
       d="m 88.955272,151.82243 v -8.73125 h 38.549788 v 8.73125 z"
       class="g1_44"
       id="path132"
       style="display:block;fill:#000000;fill-opacity:0;stroke-width:0.264583" />
    <path
       d="m 88.955272,151.82243 v -8.73125 h 38.549788 v 8.73125 z"
       class="g2_44"
       id="path133"
       style="display:block;fill:none;stroke:#000000;stroke-width:0.302948;stroke-linejoin:round" />
    <path
       fill-rule="evenodd"
       d="m 89.008189,160.58014 0.02646,-8.59896 2.69875,-0.39687 2.936875,-0.82021 2.328333,-1.08479 1.878542,-1.0848 1.666871,-1.16416 1.24354,-1.21709 1.32292,-1.34937 1.05833,-1.24354 0.76729,-1.08479 0.74084,-1.4023 0.87312,-1.74625 0.9525,-2.67229 0.58208,-3.12208 0.1323,-2.56646 8.01687,0.0265 -0.21167,4.73604 -0.55562,3.4925 -1.00542,3.22792 -1.16416,2.54 -0.87313,1.5875 -0.97896,1.45521 -0.82021,1.05833 -0.68791,0.84667 -0.79375,0.84666 -0.97896,1.00542 -1.13771,1.08479 -1.03187,0.92604 -0.97896,0.76729 -1.50813,1.11125 -1.98437,1.21709 -2.619373,1.24354 -2.725208,0.97896 -3.677708,0.97896 z"
       class="g1_44"
       id="path134"
       style="display:block;fill:#000000;fill-opacity:0;stroke-width:0.264583" />
    <path
       d="m 89.008189,160.58014 0.02646,-8.59896 2.69875,-0.39687 2.936875,-0.82021 2.328333,-1.08479 1.878542,-1.0848 1.666871,-1.16416 1.24354,-1.21709 1.32292,-1.34937 1.05833,-1.24354 0.76729,-1.08479 0.74084,-1.4023 0.87312,-1.74625 0.9525,-2.67229 0.58208,-3.12208 0.1323,-2.56646 8.01687,0.0265 -0.21167,4.73604 -0.55562,3.4925 -1.00542,3.22792 -1.16416,2.54 -0.87313,1.5875 -0.97896,1.45521 -0.82021,1.05833 -0.68791,0.84667 -0.79375,0.84666 -0.97896,1.00542 -1.13771,1.08479 -1.03187,0.92604 -0.97896,0.76729 -1.50813,1.11125 -1.98437,1.21709 -2.619373,1.24354 -2.725208,0.97896 -3.677708,0.97896 z"
       class="g2_44"
       id="path135"
       style="display:block;fill:none;stroke:#000000;stroke-width:0.302948;stroke-linejoin:round" />
  </g>
</svg>
