<?xml version="1.0" encoding="UTF-8" standalone="no"?>
<!-- Created with Inkscape (http://www.inkscape.org/) -->

<svg
   width="69.537003mm"
   height="51.943001mm"
   viewBox="0 0 69.537002 51.943001"
   version="1.1"
   id="svg1"
   inkscape:version="1.3.2 (1:1.3.2+202311252150+091e20ef0f)"
   sodipodi:docname="vm-03-13_1.svg"
   xmlns:inkscape="http://www.inkscape.org/namespaces/inkscape"
   xmlns:sodipodi="http://sodipodi.sourceforge.net/DTD/sodipodi-0.dtd"
   xmlns="http://www.w3.org/2000/svg"
   xmlns:svg="http://www.w3.org/2000/svg">
  <sodipodi:namedview
     id="namedview1"
     pagecolor="#ffffff"
     bordercolor="#000000"
     borderopacity="0.25"
     inkscape:showpageshadow="2"
     inkscape:pageopacity="0.0"
     inkscape:pagecheckerboard="0"
     inkscape:deskcolor="#d1d1d1"
     inkscape:document-units="mm"
     inkscape:zoom="1.7131103"
     inkscape:cx="331.85254"
     inkscape:cy="-96.607908"
     inkscape:window-width="3840"
     inkscape:window-height="2123"
     inkscape:window-x="0"
     inkscape:window-y="0"
     inkscape:window-maximized="1"
     inkscape:current-layer="layer1" />
  <defs
     id="defs1">
    <clipPath
       id="c0_46">
      <path
         d="M 0,825 V 0 h 1100 v 825 z"
         id="path2" />
    </clipPath>
    <clipPath
       id="clipPath1">
      <path
         d="M 0,825 V 0 h 1100 v 825 z"
         id="path1" />
    </clipPath>
  </defs>
  <g
     inkscape:label="Layer 1"
     inkscape:groupmode="layer"
     id="layer1"
     transform="translate(-17.197917,-174.09583)">
    <path
       fill-rule="evenodd"
       d="m 53.6575,178.48792 h 8.678333 v 17.99166 H 53.6575 Z"
       class="g3_46"
       id="path103"
       style="display:block;fill:#eeeeee;stroke-width:0.264583" />
    <path
       fill-rule="evenodd"
       d="m 29.845,199.04604 h 52.890208 v 20.45229 H 29.845 Z"
       class="g4_46"
       id="path104"
       style="display:block;fill:#666666;stroke-width:0.264583" />
    <path
       fill-rule="evenodd"
       d="M 29.845,200.47479 H 82.735208 Z"
       class="g1_46"
       id="path105"
       style="display:block;fill:#000000;fill-opacity:0;stroke-width:0.264583" />
    <path
       d="M 29.845,200.47479 H 82.735208"
       class="g5_46"
       id="path106"
       style="display:block;fill:none;stroke:#ffffff;stroke-width:0.302948;stroke-linejoin:round" />
    <path
       fill-rule="evenodd"
       d="m 29.845,196.47958 h 52.890208 v 2.56646 H 29.845 Z"
       class="g6_46"
       id="path107"
       style="display:block;fill:#cdb164;stroke-width:0.264583" />
    <path
       fill-rule="evenodd"
       d="m 45.005625,178.48792 h 8.678333 v 17.99166 h -8.678333 z"
       class="g3_46"
       id="path108"
       style="display:block;fill:#eeeeee;stroke-width:0.264583" />
    <path
       fill-rule="evenodd"
       d="m 45.058542,178.48792 v 17.96521 z"
       class="g1_46"
       id="path109"
       style="display:block;fill:#000000;fill-opacity:0;stroke-width:0.264583" />
    <path
       d="m 45.058542,178.48792 v 17.96521"
       class="g7_46"
       id="path110"
       style="display:block;fill:none;stroke:#595959;stroke-width:0.302948;stroke-linejoin:round" />
    <path
       fill-rule="evenodd"
       d="m 53.6575,178.46146 v 17.99167 z"
       class="g1_46"
       id="path111"
       style="display:block;fill:#000000;fill-opacity:0;stroke-width:0.264583" />
    <path
       d="m 53.6575,178.46146 v 17.99167"
       class="g7_46"
       id="path112"
       style="display:block;fill:none;stroke:#595959;stroke-width:0.302948;stroke-linejoin:round" />
    <path
       fill-rule="evenodd"
       d="m 62.309375,178.48792 v 17.99166 z"
       class="g1_46"
       id="path113"
       style="display:block;fill:#000000;fill-opacity:0;stroke-width:0.264583" />
    <path
       d="m 62.309375,178.48792 v 17.99166"
       class="g7_46"
       id="path114"
       style="display:block;fill:none;stroke:#595959;stroke-width:0.302948;stroke-linejoin:round" />
    <path
       fill-rule="evenodd"
       d="M 29.845,218.09604 H 82.735208 Z"
       class="g1_46"
       id="path115"
       style="display:block;fill:#000000;fill-opacity:0;stroke-width:0.264583" />
    <path
       d="M 29.845,218.09604 H 82.735208"
       class="g5_46"
       id="path116"
       style="display:block;fill:none;stroke:#ffffff;stroke-width:0.302948;stroke-linejoin:round" />
    <path
       fill-rule="evenodd"
       d="M 29.845,209.28542 H 82.735208 Z"
       class="g1_46"
       id="path117"
       style="display:block;fill:#000000;fill-opacity:0;stroke-width:0.264583" />
    <path
       d="M 29.845,209.28542 H 82.735208"
       class="g5_46"
       id="path118"
       style="display:block;fill:none;stroke:#ffffff;stroke-width:0.302948;stroke-linejoin:round" />
    <path
       fill-rule="evenodd"
       d="m 43.682708,204.31125 c 0.846667,-0.37042 4.021667,-0.92604 4.974167,-2.14312 0.9525,-1.24355 0.582083,-3.67771 0.740833,-5.29167 0.132292,-1.64042 0.105833,-3.75708 0.132292,-4.49792 z"
       class="g1_46"
       id="path119"
       style="display:block;fill:#000000;fill-opacity:0;stroke-width:0.264583" />
    <path
       d="m 43.682708,204.31125 c 0.846667,-0.37042 4.021667,-0.92604 4.974167,-2.14312 0.9525,-1.24355 0.582083,-3.67771 0.740833,-5.29167 0,-0.21167 0.02646,-0.42333 0.02646,-0.635 l 0.02646,-0.23813"
       class="gh_46"
       id="path120"
       style="display:block;fill:none;stroke:#ff9900;stroke-width:0.60616;stroke-linejoin:round" />
    <path
       fill-rule="evenodd"
       d="m 50.456041,196.02979 -0.9525,-2.77812 -1.058333,2.75166 z"
       class="gi_46"
       id="path121"
       style="display:block;fill:#ff9900;stroke:#ff9900;stroke-width:0.60616;stroke-miterlimit:10" />
    <path
       fill-rule="evenodd"
       d="m 57.970208,190.84396 c 0.105833,1.66687 -0.3175,6.77333 0.661458,10.02771 0.978959,3.25437 3.33375,7.3025 5.212292,9.44562 1.905,2.14313 3.704167,2.77813 6.111875,3.38667 2.38125,0.60854 6.852708,0.26458 8.228541,0.3175 z"
       class="g1_46"
       id="path122"
       style="display:block;fill:#000000;fill-opacity:0;stroke-width:0.264583" />
    <path
       d="m 57.970208,190.84396 c 0.105833,1.66687 -0.3175,6.77333 0.661458,10.02771 0.978959,3.25437 3.33375,7.3025 5.212292,9.44562 1.905,2.14313 3.704167,2.77813 6.111875,3.38667 1.190625,0.3175 2.910416,0.37042 4.497916,0.37042 h 0.105834"
       class="gh_46"
       id="path123"
       style="display:block;fill:none;stroke:#ff9900;stroke-width:0.60616;stroke-linejoin:round" />
    <path
       fill-rule="evenodd"
       d="m 74.559583,215.07979 2.751666,-1.03187 -2.778125,-0.97896 z"
       class="gi_46"
       id="path124"
       style="display:block;fill:#ff9900;stroke:#ff9900;stroke-width:0.60616;stroke-miterlimit:10" />
    <path
       fill-rule="evenodd"
       d="m 18.970625,174.09583 h 23.124583 v 12.1973 H 18.970625 Z"
       class="g1_46"
       id="path125"
       style="display:block;fill:#000000;fill-opacity:0;stroke-width:0.264583" />
    <text
       clip-path="url(#c0_46)"
       x="160.5"
       y="581.40002"
       class="s6_46"
       id="text125"
       transform="matrix(0.26458333,0,0,0.26458333,-21.112168,25.107624)"
       style="font-size:10.69px;font-family:MS-PGothic_bn;white-space:pre;display:block;fill:#000000">private area </text>
    <path
       fill-rule="evenodd"
       d="M 32.649583,179.49333 47.122291,185.42 Z"
       class="g1_46"
       id="path126"
       style="display:block;fill:#000000;fill-opacity:0;stroke-width:0.264583" />
    <path
       d="M 32.649583,179.49333 47.122291,185.42"
       class="g2_46"
       id="path127"
       style="display:block;fill:none;stroke:#000000;stroke-width:0.302948;stroke-linejoin:round" />
    <path
       fill-rule="evenodd"
       d="M 17.197917,186.53125 H 40.3225 v 12.19729 H 17.197917 Z"
       class="g1_46"
       id="path128"
       style="display:block;fill:#000000;fill-opacity:0;stroke-width:0.264583" />
    <text
       clip-path="url(#c0_46)"
       x="153.8"
       y="628.40002"
       class="s6_46"
       id="text128"
       transform="matrix(0.26458333,0,0,0.26458333,-21.43479,24.947456)"
       style="font-size:10.69px;font-family:MS-PGothic_bn;white-space:pre;display:block;fill:#000000">sidewalk </text>
    <path
       fill-rule="evenodd"
       d="m 27.305,191.95521 14.472708,5.90021 z"
       class="g1_46"
       id="path129"
       style="display:block;fill:#000000;fill-opacity:0;stroke-width:0.264583" />
    <path
       d="m 27.305,191.95521 14.472708,5.90021"
       class="g2_46"
       id="path130"
       style="display:block;fill:none;stroke:#000000;stroke-width:0.302948;stroke-linejoin:round" />
    <path
       fill-rule="evenodd"
       d="m 29.845,219.47188 h 52.890208 v 2.56645 H 29.845 Z"
       class="g6_46"
       id="path131"
       style="display:block;fill:#cdb164;stroke-width:0.264583" />
    <path
       fill-rule="evenodd"
       d="m 61.012916,188.14521 v 0 c 0,0.0529 -0.02646,0.10583 -0.07937,0.10583 h -0.396875 c -0.02646,0 -0.05292,0 -0.07937,-0.0265 -0.02646,-0.0265 -0.02646,-0.0529 -0.02646,-0.0794 v -1.5875 c 0,-0.0529 0.05292,-0.10583 0.105833,-0.10583 h 0.396875 c 0.05292,0 0.07937,0.0529 0.07937,0.10583 z"
       class="gj_46"
       id="path132"
       style="display:block;fill:#000000;stroke-width:0.264583" />
    <path
       fill-rule="evenodd"
       d="m 55.774166,188.14521 v 0 c 0,0.0529 -0.05292,0.10583 -0.105833,0.10583 h -0.370417 c -0.02646,0 -0.05292,0 -0.07937,-0.0265 -0.02646,-0.0265 -0.02646,-0.0529 -0.02646,-0.0794 v -1.5875 c 0,-0.0529 0.02646,-0.10583 0.105833,-0.10583 h 0.370417 c 0.05292,0 0.105833,0.0529 0.105833,0.10583 z"
       class="gj_46"
       id="path133"
       style="display:block;fill:#000000;stroke-width:0.264583" />
    <path
       fill-rule="evenodd"
       d="m 61.012916,181.61 v 0 c 0,0.0529 -0.02646,0.10583 -0.07937,0.10583 h -0.396875 c -0.02646,0 -0.05292,-0.0265 -0.07937,-0.0265 -0.02646,-0.0265 -0.02646,-0.0529 -0.02646,-0.0794 v -1.5875 c 0,-0.0529 0.05292,-0.10583 0.105833,-0.10583 h 0.396875 c 0.05292,0 0.07937,0.0529 0.07937,0.10583 z"
       class="gj_46"
       id="path134"
       style="display:block;fill:#000000;stroke-width:0.264583" />
    <path
       fill-rule="evenodd"
       d="m 55.774166,181.61 v 0 c 0,0.0529 -0.05292,0.10583 -0.105833,0.10583 h -0.370417 c -0.02646,0 -0.05292,-0.0265 -0.07937,-0.0265 -0.02646,-0.0265 -0.02646,-0.0529 -0.02646,-0.0794 v -1.5875 c 0,-0.0529 0.02646,-0.10583 0.105833,-0.10583 h 0.370417 c 0.05292,0 0.105833,0.0529 0.105833,0.10583 z"
       class="gj_46"
       id="path135"
       style="display:block;fill:#000000;stroke-width:0.264583" />
    <path
       fill-rule="evenodd"
       d="m 60.827708,188.38333 v 0 c 0,0.82021 -0.687917,1.50813 -1.534583,1.50813 H 56.8325 c -0.396875,0 -0.79375,-0.15875 -1.058334,-0.44979 -0.291041,-0.26459 -0.449791,-0.66146 -0.449791,-1.05834 v -8.54604 c 0,-0.84666 0.687916,-1.53458 1.508125,-1.53458 h 2.460625 c 0.846666,0 1.534583,0.68792 1.534583,1.53458 z"
       class="gk_46"
       id="path136"
       style="display:block;fill:#3d85c6;stroke-width:0.264583" />
    <path
       fill-rule="evenodd"
       d="m 58.605208,189.97083 v 0 c 0,0.0265 -0.02646,0.0529 -0.05292,0.0529 h -0.9525 c 0,0 -0.02646,-0.0265 -0.02646,-0.0265 0,0 0,-0.0265 0,-0.0265 v -0.15875 c 0,-0.0265 0,-0.0529 0.02646,-0.0529 h 0.9525 c 0.02646,0 0.05292,0.0265 0.05292,0.0529 z"
       class="gl_46"
       id="path137"
       style="display:block;fill:#efefef;stroke-width:0.264583" />
    <path
       fill-rule="evenodd"
       d="m 60.033958,189.44167 -0.05292,-0.34396 -0.423333,0.10583 -0.07937,0.0265 -0.05292,0.0529 -0.02646,0.0529 0.02646,0.0794 0.02646,0.0529 0.105833,0.0265 h 0.185208 z"
       class="g0_46"
       id="path138"
       style="display:block;fill:#ffffff;stroke-width:0.264583" />
    <path
       fill-rule="evenodd"
       d="m 56.144583,189.44167 0.05292,-0.34396 0.423333,0.10583 0.07938,0.0265 0.05292,0.0529 0.02646,0.0529 -0.02646,0.0794 -0.05292,0.0529 -0.105833,0.0265 h -0.15875 z"
       class="g0_46"
       id="path139"
       style="display:block;fill:#ffffff;stroke-width:0.264583" />
    <path
       fill-rule="evenodd"
       d="m 60.16625,186.24021 -0.343959,-1.16417 -0.07937,-0.0794 -0.105833,-0.0529 H 56.59438 l -0.105834,0.0265 -0.07937,0.10583 -0.370416,0.97896 v 0.13229 l 0.07937,0.13229 0.423333,0.1323 0.608542,0.13229 0.502708,0.0529 h 0.582083 l 0.370417,-0.0265 h 0.238125 l 0.370417,-0.0529 0.343958,-0.0794 0.238125,-0.0794 0.264583,-0.10583 z"
       class="gm_46"
       id="path140"
       style="display:block;fill:#9fc5e8;stroke-width:0.264583" />
    <path
       d="m 60.16625,186.24021 -0.343959,-1.16417 -0.07937,-0.0794 -0.105833,-0.0529 H 56.59438 l -0.105834,0.0265 -0.07937,0.10583 -0.370416,0.97896 v 0.13229 l 0.07937,0.13229 0.423333,0.1323 0.608542,0.13229 0.502708,0.0529 h 0.582083 l 0.370417,-0.0265 h 0.238125 l 0.370417,-0.0529 0.343958,-0.0794 0.238125,-0.0794 0.264583,-0.10583 z"
       class="gn_46"
       id="path141"
       style="display:block;fill:none;stroke:#073763;stroke-width:0.302948;stroke-linejoin:round" />
    <path
       fill-rule="evenodd"
       d="m 60.48375,185.81688 v -5.74146 l -0.02646,-0.10584 -0.105833,-0.0529 -0.423333,0.39687 -0.132292,0.23813 -0.05292,0.18521 0.05292,3.38666 0.05292,0.23813 0.132291,0.44979 0.185209,0.44979 z"
       class="gm_46"
       id="path142"
       style="display:block;fill:#9fc5e8;stroke-width:0.264583" />
    <path
       d="m 60.48375,185.81688 v -5.74146 l -0.02646,-0.10584 -0.105833,-0.0529 -0.423333,0.39687 -0.132292,0.23813 -0.05292,0.18521 0.05292,3.38666 0.05292,0.23813 0.132291,0.44979 0.185209,0.44979 z"
       class="gn_46"
       id="path143"
       style="display:block;fill:none;stroke:#073763;stroke-width:0.302948;stroke-linejoin:round" />
    <path
       fill-rule="evenodd"
       d="m 55.615416,185.76396 v -5.74146 l 0.02646,-0.13229 0.105833,-0.0265 0.423333,0.39688 0.132292,0.21166 0.07937,0.21167 -0.07937,3.36021 -0.02646,0.26458 -0.15875,0.42333 -0.185209,0.4498 z"
       class="gm_46"
       id="path144"
       style="display:block;fill:#9fc5e8;stroke-width:0.264583" />
    <path
       d="m 55.615416,185.76396 v -5.74146 l 0.02646,-0.13229 0.105833,-0.0265 0.423333,0.39688 0.132292,0.21166 0.07937,0.21167 -0.07937,3.36021 -0.02646,0.26458 -0.15875,0.42333 -0.185209,0.4498 z"
       class="gn_46"
       id="path145"
       style="display:block;fill:none;stroke:#073763;stroke-width:0.302948;stroke-linejoin:round" />
    <path
       fill-rule="evenodd"
       d="m 60.510208,185.89625 0.105833,0.0265 h 0.132292 l 0.132292,-0.0265 0.15875,-0.0529 0.105833,-0.0794 0.02646,-0.10583 v -0.0794 l -0.07937,-0.0794 L 60.96,185.44646 60.774791,185.42 h -0.15875 l -0.105833,0.0529 -0.105833,0.10583 -0.02646,0.0794 v 0.0794 l 0.05292,0.0794 z"
       class="go_46"
       id="path146"
       style="display:block;fill:#0b5394;stroke-width:0.264583" />
    <path
       fill-rule="evenodd"
       d="m 55.668333,185.89625 -0.105833,0.0265 h -0.15875 l -0.132292,-0.0265 -0.132292,-0.0529 -0.132291,-0.0794 -0.02646,-0.10583 v -0.0794 l 0.105834,-0.0794 0.105833,-0.0529 0.211667,-0.0265 h 0.132291 l 0.132292,0.0529 0.07938,0.10583 0.02646,0.0794 v 0.0794 l -0.02646,0.0794 z"
       class="go_46"
       id="path147"
       style="display:block;fill:#0b5394;stroke-width:0.264583" />
    <path
       fill-rule="evenodd"
       d="m 58.605208,178.46146 v 0 c 0,0 -0.02646,0.0265 -0.05292,0.0265 h -0.9525 c 0,0 -0.02646,0 -0.02646,0 q 0,-0.0265 0,-0.0265 v -0.18521 q 0,-0.0265 0.02646,-0.0265 h 0.9525 c 0.02646,0 0.05292,0 0.05292,0.0265 z"
       class="gl_46"
       id="path148"
       style="display:block;fill:#efefef;stroke-width:0.264583" />
    <path
       fill-rule="evenodd"
       d="m 60.033958,178.24979 -0.05292,0.34396 -0.423333,-0.10583 -0.07937,-0.0265 -0.05292,-0.0529 -0.02646,-0.0529 0.02646,-0.0794 0.02646,-0.0794 h 0.291041 z"
       class="go_46"
       id="path149"
       style="display:block;fill:#0b5394;stroke-width:0.264583" />
    <path
       fill-rule="evenodd"
       d="m 56.144583,178.24979 0.05292,0.34396 0.423333,-0.10583 0.07938,-0.0265 0.05292,-0.0529 0.02646,-0.0529 -0.02646,-0.0794 -0.05292,-0.0794 h -0.264583 z"
       class="go_46"
       id="path150"
       style="display:block;fill:#0b5394;stroke-width:0.264583" />
    <path
       fill-rule="evenodd"
       d="m 59.451875,180.15479 0.105833,-0.0265 0.740833,-0.60854 0.05292,-0.13229 -0.02646,-0.13229 -0.211667,-0.15875 -0.291042,-0.10583 -0.423333,-0.10584 -0.423333,-0.0529 -0.47625,-0.0529 -0.47625,0.0265 h -0.502709 l -0.47625,0.0265 -0.529166,0.13229 -0.370417,0.10583 -0.264583,0.18521 -0.05292,0.13229 0.07937,0.13229 0.661458,0.55563 0.07938,0.0529 0.740834,0.0265 h 1.42875 z"
       class="gm_46"
       id="path151"
       style="display:block;fill:#9fc5e8;stroke-width:0.264583" />
    <path
       d="m 59.451875,180.15479 0.105833,-0.0265 0.740833,-0.60854 0.05292,-0.13229 -0.02646,-0.13229 -0.211667,-0.15875 -0.291042,-0.10583 -0.423333,-0.10584 -0.423333,-0.0529 -0.47625,-0.0529 -0.47625,0.0265 h -0.502709 l -0.47625,0.0265 -0.529166,0.13229 -0.370417,0.10583 -0.264583,0.18521 -0.05292,0.13229 0.07937,0.13229 0.661458,0.55563 0.07938,0.0529 0.740834,0.0265 h 1.42875 z"
       class="gn_46"
       id="path152"
       style="display:block;fill:none;stroke:#073763;stroke-width:0.302948;stroke-linejoin:round" />
    <path
       fill-rule="evenodd"
       d="m 59.425416,189.38875 c -0.132291,0 -0.449791,0.0529 -0.714375,0.0529 -0.291041,0.0265 -0.661458,0.0265 -0.899583,0.0265 -0.238125,0 -0.370417,-0.0265 -0.529167,-0.0529 -0.15875,0 -0.396875,-0.0265 -0.47625,-0.0265 z"
       class="g1_46"
       id="path153"
       style="display:block;fill:#000000;fill-opacity:0;stroke-width:0.264583" />
    <path
       d="m 59.425416,189.38875 c -0.132291,0 -0.449791,0.0529 -0.714375,0.0529 -0.291041,0.0265 -0.661458,0.0265 -0.899583,0.0265 -0.238125,0 -0.370417,-0.0265 -0.529167,-0.0529 -0.15875,0 -0.396875,-0.0265 -0.47625,-0.0265"
       class="gn_46"
       id="path154"
       style="display:block;fill:none;stroke:#073763;stroke-width:0.302948;stroke-linejoin:round" />
    <path
       fill-rule="evenodd"
       d="m 60.219166,189.09771 c 0.02646,-0.0265 0.07937,-0.0529 0.105834,-0.13229 0.02646,-0.0794 0.02646,-0.15875 0.05292,-0.34396 0.02646,-0.15875 0.07937,-0.44979 0.105834,-0.66146 0.02646,-0.21167 0.02646,-0.39687 0,-0.58208 0,-0.18521 -0.02646,-0.3175 -0.07937,-0.50271 -0.02646,-0.21167 -0.132292,-0.52917 -0.15875,-0.635 z"
       class="g1_46"
       id="path155"
       style="display:block;fill:#000000;fill-opacity:0;stroke-width:0.264583" />
    <path
       d="m 60.219166,189.09771 c 0.02646,-0.0265 0.07937,-0.0529 0.105834,-0.13229 0.02646,-0.0794 0.02646,-0.15875 0.05292,-0.34396 0.02646,-0.15875 0.07937,-0.44979 0.105834,-0.66146 0.02646,-0.21167 0.02646,-0.39687 0,-0.58208 0,-0.18521 -0.02646,-0.3175 -0.07937,-0.50271 -0.02646,-0.21167 -0.132292,-0.52917 -0.15875,-0.635"
       class="gn_46"
       id="path156"
       style="display:block;fill:none;stroke:#073763;stroke-width:0.302948;stroke-linejoin:round" />
    <path
       fill-rule="evenodd"
       d="m 55.985833,189.12417 c -0.02646,-0.0265 -0.07937,-0.0794 -0.105833,-0.15875 0,-0.0794 -0.02646,-0.13229 -0.05292,-0.26459 -0.02646,-0.10583 -0.05292,-0.29104 -0.07937,-0.44979 -0.02646,-0.15875 -0.02646,-0.34396 -0.02646,-0.52916 0,-0.15875 0,-0.42334 0.02646,-0.55563 0,-0.13229 -0.02646,-0.0794 0,-0.23812 0.02646,-0.15875 0.15875,-0.55563 0.211667,-0.66146 z"
       class="g1_46"
       id="path157"
       style="display:block;fill:#000000;fill-opacity:0;stroke-width:0.264583" />
    <path
       d="m 55.985833,189.12417 c -0.02646,-0.0265 -0.07937,-0.0794 -0.105833,-0.15875 0,-0.0794 -0.02646,-0.13229 -0.05292,-0.26459 -0.02646,-0.10583 -0.05292,-0.29104 -0.07937,-0.44979 -0.02646,-0.15875 -0.02646,-0.34396 -0.02646,-0.52916 0,-0.15875 0,-0.42334 0.02646,-0.55563 0,-0.13229 -0.02646,-0.0794 0,-0.23812 0.02646,-0.15875 0.15875,-0.55563 0.211667,-0.66146"
       class="gn_46"
       id="path158"
       style="display:block;fill:none;stroke:#073763;stroke-width:0.302948;stroke-linejoin:round" />
    <path
       fill-rule="evenodd"
       d="m 57.546875,186.34604 1.640416,-1.16416 h 0.238125 l 0.15875,0.0264 0.07937,0.0529 0.07937,0.0794 0.291042,0.68791 -0.02646,0.0794 -0.05292,0.0265 -0.423333,0.13229 -0.449792,0.0529 -0.502708,0.0529 h -0.740834 z"
       class="gp_46"
       id="path159"
       style="display:block;fill:#cfe2f3;stroke-width:0.264583" />
    <path
       fill-rule="evenodd"
       d="m 40.48125,201.95646 v 0 c 0.05292,0 0.105833,0.0265 0.105833,0.10583 v 0.37042 c 0,0.0265 -0.02646,0.0529 -0.02646,0.0794 -0.02646,0.0265 -0.05292,0.0265 -0.07937,0.0265 h -1.5875 c -0.05292,0 -0.105833,-0.0529 -0.105833,-0.10583 v -0.37042 c 0,-0.0794 0.05292,-0.10583 0.105833,-0.10583 z"
       class="gj_46"
       id="path160"
       style="display:block;fill:#000000;stroke-width:0.264583" />
    <path
       fill-rule="evenodd"
       d="m 40.48125,207.19521 v 0 c 0.05292,0 0.105833,0.0529 0.105833,0.10583 v 0.39688 c 0,0.0265 -0.02646,0.0529 -0.02646,0.0529 -0.02646,0.0265 -0.05292,0.0265 -0.07937,0.0265 h -1.5875 c -0.05292,0 -0.105833,-0.0265 -0.105833,-0.0794 v -0.39688 c 0,-0.0529 0.05292,-0.10583 0.105833,-0.10583 z"
       class="gj_46"
       id="path161"
       style="display:block;fill:#000000;stroke-width:0.264583" />
    <path
       fill-rule="evenodd"
       d="m 33.946042,201.95646 v 0 c 0.05292,0 0.105833,0.0265 0.105833,0.10583 v 0.37042 c 0,0.0265 -0.02646,0.0529 -0.05292,0.0794 0,0.0265 -0.02646,0.0265 -0.05292,0.0265 h -1.5875 c -0.05292,0 -0.105834,-0.0529 -0.105834,-0.10583 v -0.37042 c 0,-0.0794 0.05292,-0.10583 0.105834,-0.10583 z"
       class="gj_46"
       id="path162"
       style="display:block;fill:#000000;stroke-width:0.264583" />
    <path
       fill-rule="evenodd"
       d="m 33.946042,207.19521 v 0 c 0.05292,0 0.105833,0.0529 0.105833,0.10583 v 0.39688 c 0,0.0265 -0.02646,0.0529 -0.05292,0.0529 0,0.0265 -0.02646,0.0265 -0.05292,0.0265 h -1.5875 c -0.05292,0 -0.105834,-0.0265 -0.105834,-0.0794 v -0.39688 c 0,-0.0529 0.05292,-0.10583 0.105834,-0.10583 z"
       class="gj_46"
       id="path163"
       style="display:block;fill:#000000;stroke-width:0.264583" />
    <path
       fill-rule="evenodd"
       d="m 40.692917,202.14167 v 0 c 0.846666,0 1.534583,0.68791 1.534583,1.53458 v 2.46063 c 0,0.39687 -0.15875,0.79375 -0.449792,1.05833 -0.291041,0.29104 -0.661458,0.44979 -1.084791,0.44979 h -8.546042 c -0.820208,0 -1.508125,-0.66146 -1.508125,-1.50812 v -2.46063 c 0,-0.84667 0.687917,-1.53458 1.508125,-1.53458 z"
       class="gk_46"
       id="path164"
       style="display:block;fill:#3d85c6;stroke-width:0.264583" />
    <path
       fill-rule="evenodd"
       d="m 42.306875,204.36417 v 0 c 0.02646,0 0.02646,0.0265 0.02646,0.0529 v 0.9525 c 0,0 0,0.0265 0,0.0265 0,0 -0.02646,0 -0.02646,0 h -0.185208 c 0,0 -0.02646,0 -0.02646,-0.0265 v -0.9525 c 0,-0.0265 0.02646,-0.0529 0.02646,-0.0529 z"
       class="gl_46"
       id="path165"
       style="display:block;fill:#efefef;stroke-width:0.264583" />
    <path
       fill-rule="evenodd"
       d="m 41.75125,202.93542 -0.343958,0.0529 0.105833,0.42334 0.05292,0.10583 0.05292,0.0265 0.05292,0.0265 0.07937,-0.0265 0.05292,-0.0265 0.02646,-0.10583 -0.02646,-0.18521 z"
       class="g0_46"
       id="path166"
       style="display:block;fill:#ffffff;stroke-width:0.264583" />
    <path
       fill-rule="evenodd"
       d="m 41.75125,206.82479 -0.343958,-0.0529 0.105833,-0.42334 0.05292,-0.0794 0.05292,-0.0529 h 0.132292 l 0.05292,0.0529 0.02646,0.10583 -0.02646,0.15875 z"
       class="g0_46"
       id="path167"
       style="display:block;fill:#ffffff;stroke-width:0.264583" />
    <path
       fill-rule="evenodd"
       d="m 38.57625,202.80313 -1.164167,0.34395 -0.07938,0.0794 -0.05292,0.10583 v 3.04271 l 0.02646,0.10583 0.07937,0.0794 1.005417,0.37042 h 0.132291 l 0.105834,-0.0794 0.15875,-0.39687 0.132291,-0.635 0.05292,-0.50271 v -0.58209 l -0.02646,-0.34395 -0.02646,-0.26459 -0.02646,-0.37041 -0.105833,-0.34396 -0.07937,-0.23813 -0.07937,-0.23812 z"
       class="gm_46"
       id="path168"
       style="display:block;fill:#9fc5e8;stroke-width:0.264583" />
    <path
       d="m 38.57625,202.80313 -1.164167,0.34395 -0.07938,0.0794 -0.05292,0.10583 v 3.04271 l 0.02646,0.10583 0.07937,0.0794 1.005417,0.37042 h 0.132291 l 0.105834,-0.0794 0.15875,-0.39687 0.132291,-0.635 0.05292,-0.50271 v -0.58209 l -0.02646,-0.34395 -0.02646,-0.26459 -0.02646,-0.37041 -0.105833,-0.34396 -0.07937,-0.23813 -0.07937,-0.23812 z"
       class="gn_46"
       id="path169"
       style="display:block;fill:none;stroke:#073763;stroke-width:0.302948;stroke-linejoin:round" />
    <path
       fill-rule="evenodd"
       d="m 38.152917,202.48563 h -5.741459 l -0.105833,0.0265 -0.05292,0.10584 0.396875,0.42333 0.211667,0.13229 0.211667,0.0794 3.360208,-0.0794 0.264583,-0.0265 0.423334,-0.15875 0.449791,-0.1852 z"
       class="gm_46"
       id="path170"
       style="display:block;fill:#9fc5e8;stroke-width:0.264583" />
    <path
       d="m 38.152917,202.48563 h -5.741459 l -0.105833,0.0265 -0.05292,0.10584 0.396875,0.42333 0.211667,0.13229 0.211667,0.0794 3.360208,-0.0794 0.264583,-0.0265 0.423334,-0.15875 0.449791,-0.1852 z"
       class="gn_46"
       id="path171"
       style="display:block;fill:none;stroke:#073763;stroke-width:0.302948;stroke-linejoin:round" />
    <path
       fill-rule="evenodd"
       d="m 38.1,207.35396 h -5.767917 l -0.105833,-0.0265 -0.02646,-0.10583 0.370416,-0.42334 0.238125,-0.13229 0.211667,-0.0794 3.360208,0.0794 0.238125,0.0265 0.449792,0.15875 0.449792,0.18521 z"
       class="gm_46"
       id="path172"
       style="display:block;fill:#9fc5e8;stroke-width:0.264583" />
    <path
       d="m 38.1,207.35396 h -5.767917 l -0.105833,-0.0265 -0.02646,-0.10583 0.370416,-0.42334 0.238125,-0.13229 0.211667,-0.0794 3.360208,0.0794 0.238125,0.0265 0.449792,0.15875 0.449792,0.18521 z"
       class="gn_46"
       id="path173"
       style="display:block;fill:none;stroke:#073763;stroke-width:0.302948;stroke-linejoin:round" />
    <path
       fill-rule="evenodd"
       d="m 38.205833,202.48563 0.05292,-0.1323 -0.02646,-0.13229 -0.02646,-0.13229 -0.05292,-0.15875 -0.07937,-0.10583 -0.07938,-0.0265 h -0.07937 l -0.07937,0.0794 -0.05292,0.1323 -0.02646,0.1852 -0.02646,0.15875 0.07937,0.10584 0.105834,0.10583 0.05292,0.0265 h 0.105834 l 0.07937,-0.0529 z"
       class="go_46"
       id="path174"
       style="display:block;fill:#0b5394;stroke-width:0.264583" />
    <path
       fill-rule="evenodd"
       d="m 38.205833,207.30104 0.05292,0.13229 -0.02646,0.1323 -0.02646,0.13229 -0.05292,0.15875 -0.07937,0.10583 -0.07938,0.0265 h -0.07937 l -0.07937,-0.0794 -0.05292,-0.13229 -0.02646,-0.21166 -0.02646,-0.1323 0.07937,-0.13229 0.105834,-0.0794 0.05292,-0.0265 h 0.105834 l 0.07937,0.0529 z"
       class="go_46"
       id="path175"
       style="display:block;fill:#0b5394;stroke-width:0.264583" />
    <path
       fill-rule="evenodd"
       d="m 30.771042,204.36417 v 0 c 0.02646,0 0.05292,0.0265 0.05292,0.0529 v 0.9525 c 0,0 0,0.0265 -0.02646,0.0265 h -0.185208 c -0.02646,0 -0.05292,0 -0.05292,-0.0265 v -0.9525 c 0,-0.0265 0.02646,-0.0529 0.05292,-0.0529 z"
       class="gl_46"
       id="path176"
       style="display:block;fill:#efefef;stroke-width:0.264583" />
    <path
       fill-rule="evenodd"
       d="m 30.585833,202.93542 0.343959,0.0529 -0.105834,0.42334 -0.02646,0.10583 -0.05292,0.0265 -0.07937,0.0265 -0.07937,-0.0265 -0.05292,-0.0265 v -0.29104 z"
       class="go_46"
       id="path177"
       style="display:block;fill:#0b5394;stroke-width:0.264583" />
    <path
       fill-rule="evenodd"
       d="m 30.585833,206.82479 0.343959,-0.0529 -0.105834,-0.42334 -0.02646,-0.0794 -0.05292,-0.0529 h -0.15875 l -0.05292,0.0529 v 0.26458 z"
       class="go_46"
       id="path178"
       style="display:block;fill:#0b5394;stroke-width:0.264583" />
    <path
       fill-rule="evenodd"
       d="m 32.490833,203.5175 -0.02646,-0.10583 -0.608542,-0.71438 -0.15875,-0.0794 -0.105833,0.0265 -0.15875,0.21166 -0.105833,0.29104 -0.105834,0.42334 -0.05292,0.44979 L 31.115,204.47 v 0.47625 l 0.02646,0.50271 0.02646,0.47625 0.105833,0.55562 0.132292,0.34396 0.185208,0.26459 0.132292,0.0529 0.132291,-0.0794 0.555625,-0.66146 0.05292,-0.0529 0.02646,-0.76729 v -1.42875 z"
       class="gm_46"
       id="path179"
       style="display:block;fill:#9fc5e8;stroke-width:0.264583" />
    <path
       d="m 32.490833,203.5175 -0.02646,-0.10583 -0.608542,-0.71438 -0.15875,-0.0794 -0.105833,0.0265 -0.15875,0.21166 -0.105833,0.29104 -0.105834,0.42334 -0.05292,0.44979 L 31.115,204.47 v 0.47625 l 0.02646,0.50271 0.02646,0.47625 0.105833,0.55562 0.132292,0.34396 0.185208,0.26459 0.132292,0.0529 0.132291,-0.0794 0.555625,-0.66146 0.05292,-0.0529 0.02646,-0.76729 v -1.42875 z"
       class="gn_46"
       id="path180"
       style="display:block;fill:none;stroke:#073763;stroke-width:0.302948;stroke-linejoin:round" />
    <path
       fill-rule="evenodd"
       d="m 41.724792,203.54396 c 0,0.13229 0.05292,0.44979 0.05292,0.74083 0.02646,0.26459 0.02646,0.635 0,0.87313 0,0.23812 0,0.37041 -0.02646,0.52916 0,0.15875 -0.02646,0.39688 -0.05292,0.47625 z"
       class="g1_46"
       id="path181"
       style="display:block;fill:#000000;fill-opacity:0;stroke-width:0.264583" />
    <path
       d="m 41.724792,203.54396 c 0,0.13229 0.05292,0.44979 0.05292,0.74083 0.02646,0.26459 0.02646,0.635 0,0.87313 0,0.23812 0,0.37041 -0.02646,0.52916 0,0.15875 -0.02646,0.39688 -0.05292,0.47625"
       class="gn_46"
       id="path182"
       style="display:block;fill:none;stroke:#073763;stroke-width:0.302948;stroke-linejoin:round" />
    <path
       fill-rule="evenodd"
       d="m 41.407292,202.75021 c 0,-0.0265 -0.02646,-0.0529 -0.105834,-0.0794 -0.07937,-0.0264 -0.185208,-0.0529 -0.343958,-0.0794 -0.185208,-0.0265 -0.47625,-0.0794 -0.661458,-0.10583 -0.211667,0 -0.396875,0 -0.582084,0 -0.185208,0 -0.343958,0.0265 -0.529166,0.0794 -0.185209,0.0265 -0.502709,0.13229 -0.608542,0.15875 z"
       class="g1_46"
       id="path183"
       style="display:block;fill:#000000;fill-opacity:0;stroke-width:0.264583" />
    <path
       d="m 41.407292,202.75021 c 0,-0.0265 -0.02646,-0.0529 -0.105834,-0.0794 -0.07937,-0.0264 -0.185208,-0.0529 -0.343958,-0.0794 -0.185208,-0.0265 -0.47625,-0.0794 -0.661458,-0.10583 -0.211667,0 -0.396875,0 -0.582084,0 -0.185208,0 -0.343958,0.0265 -0.529166,0.0794 -0.185209,0.0265 -0.502709,0.13229 -0.608542,0.15875"
       class="gn_46"
       id="path184"
       style="display:block;fill:none;stroke:#073763;stroke-width:0.302948;stroke-linejoin:round" />
    <path
       fill-rule="evenodd"
       d="m 41.460208,207.01 c -0.02646,0 -0.105833,0.0529 -0.15875,0.0794 -0.07937,0.0264 -0.132291,0.0264 -0.264583,0.0529 -0.132292,0.0265 -0.291042,0.0529 -0.449792,0.0794 -0.15875,0.0265 -0.343958,0.0265 -0.529166,0.0529 -0.185209,0 -0.423334,-0.0264 -0.555625,-0.0529 -0.132292,0 -0.07937,0.0529 -0.238125,0 -0.15875,-0.0265 -0.555625,-0.15875 -0.661459,-0.18521 z"
       class="g1_46"
       id="path185"
       style="display:block;fill:#000000;fill-opacity:0;stroke-width:0.264583" />
    <path
       d="m 41.460208,207.01 c -0.02646,0 -0.105833,0.0529 -0.15875,0.0794 -0.07937,0.0264 -0.132291,0.0264 -0.264583,0.0529 -0.132292,0.0265 -0.291042,0.0529 -0.449792,0.0794 -0.15875,0.0265 -0.343958,0.0265 -0.529166,0.0529 -0.185209,0 -0.423334,-0.0264 -0.555625,-0.0529 -0.132292,0 -0.07937,0.0529 -0.238125,0 -0.15875,-0.0265 -0.555625,-0.15875 -0.661459,-0.18521"
       class="gn_46"
       id="path186"
       style="display:block;fill:none;stroke:#073763;stroke-width:0.302948;stroke-linejoin:round" />
    <path
       fill-rule="evenodd"
       d="m 38.682083,205.4225 -1.164166,-1.64042 -0.02646,-0.23812 0.02646,-0.15875 0.07938,-0.0794 0.07937,-0.0794 0.687916,-0.29104 0.05292,0.0265 0.05292,0.0529 0.105833,0.42334 0.07937,0.47625 0.05292,0.47625 v 0.74083 z"
       class="gp_46"
       id="path187"
       style="display:block;fill:#cfe2f3;stroke-width:0.264583" />
  </g>
</svg>
