<?xml version="1.0" encoding="UTF-8" standalone="no"?>
<!-- Created with Inkscape (http://www.inkscape.org/) -->

<svg
   width="110.794mm"
   height="73.348mm"
   viewBox="0 0 110.794 73.348"
   version="1.1"
   id="svg1"
   inkscape:version="1.3.2 (1:1.3.2+202311252150+091e20ef0f)"
   sodipodi:docname="vm-06-05_1.svg"
   xmlns:inkscape="http://www.inkscape.org/namespaces/inkscape"
   xmlns:sodipodi="http://sodipodi.sourceforge.net/DTD/sodipodi-0.dtd"
   xmlns="http://www.w3.org/2000/svg"
   xmlns:svg="http://www.w3.org/2000/svg">
  <sodipodi:namedview
     id="namedview1"
     pagecolor="#ffffff"
     bordercolor="#000000"
     borderopacity="0.25"
     inkscape:showpageshadow="2"
     inkscape:pageopacity="0.0"
     inkscape:pagecheckerboard="0"
     inkscape:deskcolor="#d1d1d1"
     inkscape:document-units="mm"
     inkscape:zoom="1.7131103"
     inkscape:cx="86.976304"
     inkscape:cy="12.550272"
     inkscape:window-width="3840"
     inkscape:window-height="2123"
     inkscape:window-x="0"
     inkscape:window-y="0"
     inkscape:window-maximized="1"
     inkscape:current-layer="layer1" />
  <defs
     id="defs1">
    <clipPath
       id="c0_65">
      <path
         d="M 0,825 V 0 h 1100 v 825 z"
         id="path2" />
    </clipPath>
    <clipPath
       id="clipPath1">
      <path
         d="M 0,825 V 0 h 1100 v 825 z"
         id="path1" />
    </clipPath>
    <clipPath
       id="clipPath3">
      <path
         d="M 0,825 V 0 h 1100 v 825 z"
         id="path3" />
    </clipPath>
    <clipPath
       id="clipPath4">
      <path
         d="M 0,825 V 0 h 1100 v 825 z"
         id="path4" />
    </clipPath>
    <clipPath
       id="clipPath5">
      <path
         d="M 0,825 V 0 h 1100 v 825 z"
         id="path5" />
    </clipPath>
    <clipPath
       id="clipPath6">
      <path
         d="M 0,825 V 0 h 1100 v 825 z"
         id="path6" />
    </clipPath>
    <clipPath
       id="clipPath7">
      <path
         d="M 0,825 V 0 h 1100 v 825 z"
         id="path7" />
    </clipPath>
    <clipPath
       id="clipPath8">
      <path
         d="M 0,825 V 0 h 1100 v 825 z"
         id="path8" />
    </clipPath>
    <clipPath
       id="clipPath9">
      <path
         d="M 0,825 V 0 h 1100 v 825 z"
         id="path9" />
    </clipPath>
    <clipPath
       id="clipPath10">
      <path
         d="M 0,825 V 0 h 1100 v 825 z"
         id="path10" />
    </clipPath>
    <clipPath
       id="clipPath11">
      <path
         d="M 0,825 V 0 h 1100 v 825 z"
         id="path11" />
    </clipPath>
    <clipPath
       id="clipPath12">
      <path
         d="M 0,825 V 0 h 1100 v 825 z"
         id="path12" />
    </clipPath>
    <clipPath
       id="clipPath13">
      <path
         d="M 0,825 V 0 h 1100 v 825 z"
         id="path13" />
    </clipPath>
  </defs>
  <g
     inkscape:label="Layer 1"
     inkscape:groupmode="layer"
     id="layer1"
     transform="translate(-82.020836,-145.25625)">
    <path
       fill-rule="evenodd"
       d="m 85.571708,172.48982 h 72.310622 v 39.60812 H 85.571708 Z"
       class="g5_65"
       id="path67"
       style="display:block;fill:#b7b7b7;stroke-width:0.264583" />
    <path
       fill-rule="evenodd"
       d="M 85.571708,192.99503 H 128.72525 Z"
       class="g1_65"
       id="path68"
       style="display:block;fill:#000000;fill-opacity:0;stroke-width:0.264583" />
    <path
       d="M 85.571708,192.99503 H 128.72525"
       class="g6_65"
       id="path69"
       style="display:block;fill:none;stroke:#ffffff;stroke-width:0.909373;stroke-linejoin:round;stroke-dasharray:3.70417, 2.91042" />
    <path
       fill-rule="evenodd"
       d="m 127.85212,179.18378 0.0529,12.83229 z"
       class="g1_65"
       id="path70"
       style="display:block;fill:#000000;fill-opacity:0;stroke-width:0.264583" />
    <path
       d="m 127.85212,179.18378 0.0529,12.83229"
       class="g7_65"
       id="path71"
       style="display:block;fill:none;stroke:#ffffff;stroke-width:1.21259;stroke-linejoin:round" />
    <path
       fill-rule="evenodd"
       d="m 85.412958,179.81878 h 41.460202 v 12.27666 H 85.412958 Z"
       class="g8_65"
       id="path72"
       style="display:block;fill:#00ff00;fill-opacity:0.17;stroke-width:0.264583" />
    <path
       fill-rule="evenodd"
       d="m 99.435874,183.41711 h 9.683746 v 4.92125 h -9.683746 z"
       class="g9_65"
       id="path73"
       style="display:block;fill:#00ff00;stroke-width:0.264583" />
    <path
       d="m 99.435874,183.41711 h 9.683746 v 4.92125 h -9.683746 z"
       class="ga_65"
       id="path74"
       style="display:block;fill:none;stroke:#335b74;stroke-width:0.302948;stroke-linejoin:round" />
    <text
       clip-path="url(#c0_65)"
       x="694"
       y="375.89999"
       class="s7_65"
       id="text74"
       style="font-size:7.64px;font-family:ArialMT_bj;white-space:pre;display:block;fill:#000000"
       transform="matrix(0.26458333,0,0,0.26458333,-83.258915,86.844198)">Lanelet </text>
    <path
       fill-rule="evenodd"
       d="M 162.88295,154.41878 V 215.2994 H 131.23879 V 154.41878 Z"
       class="g5_65"
       id="path75"
       style="display:block;fill:#b7b7b7;stroke-width:0.264583" />
    <path
       fill-rule="evenodd"
       d="M 147.06087,154.41878 V 215.2994 Z"
       class="g1_65"
       id="path76"
       style="display:block;fill:#000000;fill-opacity:0;stroke-width:0.264583" />
    <path
       d="M 147.06087,154.41878 V 215.2994"
       class="g6_65"
       id="path77"
       style="display:block;fill:none;stroke:#ffffff;stroke-width:0.909373;stroke-linejoin:round;stroke-dasharray:3.70417, 2.91042" />
    <path
       fill-rule="evenodd"
       d="m 85.439416,178.7869 45.508334,-0.0794 z"
       class="g1_65"
       id="path78"
       style="display:block;fill:#000000;fill-opacity:0;stroke-width:0.264583" />
    <path
       d="m 85.439416,178.7869 45.508334,-0.0794"
       class="g7_65"
       id="path79"
       style="display:block;fill:none;stroke:#ffffff;stroke-width:1.21259;stroke-linejoin:round" />
    <path
       fill-rule="evenodd"
       d="m 134.83712,174.81815 -0.0265,-20.26708 z"
       class="g1_65"
       id="path80"
       style="display:block;fill:#000000;fill-opacity:0;stroke-width:0.264583" />
    <path
       d="m 134.83712,174.81815 -0.0265,-20.26708"
       class="g7_65"
       id="path81"
       style="display:block;fill:none;stroke:#ffffff;stroke-width:1.21259;stroke-linejoin:round" />
    <path
       fill-rule="evenodd"
       d="m 85.86275,206.43586 h 45.085 z"
       class="g1_65"
       id="path82"
       style="display:block;fill:#000000;fill-opacity:0;stroke-width:0.264583" />
    <path
       d="m 85.86275,206.43586 h 45.085"
       class="g7_65"
       id="path83"
       style="display:block;fill:none;stroke:#ffffff;stroke-width:1.21259;stroke-linejoin:round" />
    <path
       fill-rule="evenodd"
       d="m 134.96941,215.2994 -0.13229,-4.97416 z"
       class="g1_65"
       id="path84"
       style="display:block;fill:#000000;fill-opacity:0;stroke-width:0.264583" />
    <path
       d="m 134.96941,215.2994 -0.13229,-4.97416"
       class="g7_65"
       id="path85"
       style="display:block;fill:none;stroke:#ffffff;stroke-width:1.21259;stroke-linejoin:round" />
    <path
       fill-rule="evenodd"
       d="M 158.99358,215.14065 158.729,154.41878 Z"
       class="g1_65"
       id="path86"
       style="display:block;fill:#000000;fill-opacity:0;stroke-width:0.264583" />
    <path
       d="M 158.99358,215.14065 158.729,154.41878"
       class="g7_65"
       id="path87"
       style="display:block;fill:none;stroke:#ffffff;stroke-width:1.21259;stroke-linejoin:round" />
    <path
       fill-rule="evenodd"
       d="m 130.94775,206.43586 v 0 c 1.03187,0 2.01083,0.39688 2.75166,1.13771 0.71438,0.74083 1.13771,1.71979 1.13771,2.75167 h -3.88937 z"
       class="g1_65"
       id="path88"
       style="display:block;fill:#000000;fill-opacity:0;stroke-width:0.264583" />
    <path
       fill-rule="evenodd"
       d="m 130.94775,206.43586 v 0 c 1.03187,0 2.01083,0.39688 2.75166,1.13771 0.71438,0.74083 1.13771,1.71979 1.13771,2.75167 z"
       class="g1_65"
       id="path89"
       style="display:block;fill:#000000;fill-opacity:0;stroke-width:0.264583" />
    <path
       d="m 130.94775,206.43586 v 0 c 1.03187,0 2.01083,0.39688 2.75166,1.13771 0.71438,0.74083 1.13771,1.71979 1.13771,2.75167"
       class="g7_65"
       id="path90"
       style="display:block;fill:none;stroke:#ffffff;stroke-width:1.21259;stroke-linejoin:round" />
    <path
       fill-rule="evenodd"
       d="m 134.83712,174.81815 v 0 c 0,1.03188 -0.42333,2.03729 -1.13771,2.75167 -0.74083,0.74083 -1.71979,1.13771 -2.75166,1.13771 v -3.88938 z"
       class="g1_65"
       id="path91"
       style="display:block;fill:#000000;fill-opacity:0;stroke-width:0.264583" />
    <path
       fill-rule="evenodd"
       d="m 134.83712,174.81815 v 0 c 0,1.03188 -0.42333,2.03729 -1.13771,2.75167 -0.74083,0.74083 -1.71979,1.13771 -2.75166,1.13771 z"
       class="g1_65"
       id="path92"
       style="display:block;fill:#000000;fill-opacity:0;stroke-width:0.264583" />
    <path
       d="m 134.83712,174.81815 v 0 c 0,1.03188 -0.42333,2.03729 -1.13771,2.75167 -0.74083,0.74083 -1.71979,1.13771 -2.75166,1.13771"
       class="g7_65"
       id="path93"
       style="display:block;fill:none;stroke:#ffffff;stroke-width:1.21259;stroke-linejoin:round" />
    <path
       fill-rule="evenodd"
       d="m 104.27775,183.41711 0.39687,-3.81 z"
       class="g1_65"
       id="path94"
       style="display:block;fill:#000000;fill-opacity:0;stroke-width:0.264583" />
    <path
       d="m 104.27775,183.41711 0.21166,-1.98437"
       class="ga_65"
       id="path95"
       style="display:block;fill:none;stroke:#335b74;stroke-width:0.302948;stroke-linejoin:round" />
    <path
       fill-rule="evenodd"
       d="m 104.99212,181.48565 -0.37041,-1.42875 -0.635,1.32292 z"
       class="gb_65"
       id="path96"
       style="display:block;fill:#335b74;stroke:#335b74;stroke-width:0.302948;stroke-miterlimit:10" />
    <path
       fill-rule="evenodd"
       d="m 104.27775,188.33836 0.0529,4.15396 z"
       class="g1_65"
       id="path97"
       style="display:block;fill:#000000;fill-opacity:0;stroke-width:0.264583" />
    <path
       d="m 104.27775,188.33836 0.0265,2.32833"
       class="ga_65"
       id="path98"
       style="display:block;fill:none;stroke:#335b74;stroke-width:0.302948;stroke-linejoin:round" />
    <path
       fill-rule="evenodd"
       d="m 103.8015,190.69315 0.52916,1.34938 0.47625,-1.37584 z"
       class="gb_65"
       id="path99"
       style="display:block;fill:#335b74;stroke:#335b74;stroke-width:0.302948;stroke-miterlimit:10" />
    <path
       fill-rule="evenodd"
       d="m 94.726291,179.13086 h 9.286869 v 3.175 h -9.286869 z"
       class="g1_65"
       id="path100"
       style="display:block;fill:#000000;fill-opacity:0;stroke-width:0.264583" />
    <text
       clip-path="url(#c0_65)"
       x="672.70001"
       y="354.70001"
       class="s8_65"
       id="text100"
       style="font-size:6.11px;font-family:ArialMT_bj;white-space:pre;display:block;fill:#000000"
       transform="matrix(0.26458333,0,0,0.26458333,-83.258915,86.844198)">leftBound </text>
    <path
       fill-rule="evenodd"
       d="m 93.244624,189.44961 h 10.768536 v 3.175 H 93.244624 Z"
       class="g1_65"
       id="path101"
       style="display:block;fill:#000000;fill-opacity:0;stroke-width:0.264583" />
    <text
       clip-path="url(#c0_65)"
       x="667.09998"
       y="393.60001"
       class="s8_65"
       id="text101"
       style="font-size:6.11px;font-family:ArialMT_bj;white-space:pre;display:block;fill:#000000"
       transform="matrix(0.26458333,0,0,0.26458333,-83.258915,86.844198)">rightBound </text>
    <path
       fill-rule="evenodd"
       d="m 121.95191,148.9419 h 39.71396 v 11.53584 h -39.71396 z"
       class="gc_65"
       id="path102"
       style="display:block;fill:#0000ff;stroke-width:0.264583" />
    <path
       d="m 121.95191,148.9419 h 39.71396 v 11.53584 h -39.71396 z"
       class="ga_65"
       id="path103"
       style="display:block;fill:none;stroke:#335b74;stroke-width:0.302948;stroke-linejoin:round" />
    <g
       clip-path="url(#c0_65)"
       id="g104"
       style="display:block"
       transform="matrix(0.26458333,0,0,0.26458333,-83.258915,86.844198)">
      <text
         x="779.09998"
         y="252.2"
         class="s9_65"
         id="text103"
         style="font-size:12.22px;font-family:ArialMT_bj;white-space:pre;fill:#ffffff">RegulatoryElement </text>
      <text
         x="779.09998"
         y="267.10001"
         class="s9_65"
         id="text104"
         style="font-size:12.22px;font-family:ArialMT_bj;white-space:pre;fill:#ffffff">subtype: detection_area </text>
    </g>
    <path
       fill-rule="evenodd"
       d="m 123.46004,174.81815 h 7.77875 v 2.14313 h -7.77875 z"
       class="g1_65"
       id="path104"
       style="display:block;fill:#000000;fill-opacity:0;stroke-width:0.264583" />
    <text
       clip-path="url(#c0_65)"
       x="781.29999"
       y="338.39999"
       class="s8_65"
       id="text105"
       style="font-size:6.11px;font-family:ArialMT_bj;white-space:pre;display:block;fill:#000000"
       transform="matrix(0.26458333,0,0,0.26458333,-83.258915,86.844198)">ref_line </text>
    <path
       fill-rule="evenodd"
       d="m 141.82212,160.47774 -14.94896,25.47937 z"
       class="g1_65"
       id="path105"
       style="display:block;fill:#000000;fill-opacity:0;stroke-width:0.264583" />
    <path
       d="m 141.82212,160.47774 -14.02291,23.91833"
       class="ga_65"
       id="path106"
       style="display:block;fill:none;stroke:#335b74;stroke-width:0.302948;stroke-linejoin:round" />
    <path
       fill-rule="evenodd"
       d="m 127.37587,184.13149 -0.26458,1.42875 1.11125,-0.92605 z"
       class="gb_65"
       id="path107"
       style="display:block;fill:#335b74;stroke:#335b74;stroke-width:0.302948;stroke-miterlimit:10" />
    <path
       fill-rule="evenodd"
       d="m 105.25671,195.37628 h 9.2075 l 12.8852,-7.38188 -8.96937,7.38188 h 2.64583 v 8.33437 h -15.76916 v -6.95854 z"
       class="gd_65"
       id="path108"
       style="display:block;fill:#00ffff;stroke-width:0.264583" />
    <path
       d="m 105.25671,195.37628 h 9.2075 l 12.8852,-7.38188 -8.96937,7.38188 h 2.64583 v 8.33437 h -15.76916 v -6.95854 z"
       class="ga_65"
       id="path109"
       style="display:block;fill:none;stroke:#335b74;stroke-width:0.302948;stroke-linejoin:round" />
    <g
       clip-path="url(#c0_65)"
       id="g110"
       style="display:block"
       transform="matrix(0.26458333,0,0,0.26458333,-83.258915,86.844198)">
      <text
         x="713.70001"
         y="423"
         class="s7_65"
         id="text109"
         style="font-size:7.64px;font-family:ArialMT_bj;white-space:pre;fill:#000000">LineString </text>
      <text
         x="713.70001"
         y="432.10001"
         class="s7_65"
         id="text110"
         style="font-size:7.64px;font-family:ArialMT_bj;white-space:pre;fill:#000000">type: stop_line </text>
    </g>
    <path
       fill-rule="evenodd"
       d="m 104.27775,183.41711 37.54437,-22.93937 z"
       class="g1_65"
       id="path110"
       style="display:block;fill:#000000;fill-opacity:0;stroke-width:0.264583" />
    <path
       d="m 104.27775,183.41711 35.98333,-21.98687"
       class="ga_65"
       id="path111"
       style="display:block;fill:none;stroke:#335b74;stroke-width:0.302948;stroke-linejoin:round" />
    <path
       fill-rule="evenodd"
       d="m 140.52566,161.85357 0.89959,-1.13771 -1.42875,0.29104 z"
       class="gb_65"
       id="path112"
       style="display:block;fill:#335b74;stroke:#335b74;stroke-width:0.302948;stroke-miterlimit:10" />
    <path
       fill-rule="evenodd"
       d="m 106.95004,168.49461 h 10.39812 v 5.97958 h -10.39812 z"
       class="g1_65"
       id="path113"
       style="display:block;fill:#000000;fill-opacity:0;stroke-width:0.264583" />
    <g
       clip-path="url(#c0_65)"
       id="g114"
       style="display:block"
       transform="matrix(0.26458333,0,0,0.26458333,-83.258915,86.844198)">
      <text
         x="718.90002"
         y="314.39999"
         class="s8_65"
         id="text113"
         style="font-size:6.11px;font-family:ArialMT_bj;white-space:pre;fill:#000000">regulatory_ele </text>
      <text
         x="718.90002"
         y="321.29999"
         class="s8_65"
         id="text114"
         style="font-size:6.11px;font-family:ArialMT_bj;white-space:pre;fill:#000000">ment </text>
    </g>
    <path
       fill-rule="evenodd"
       d="m 141.82212,160.47774 11.66813,44.74104 z"
       class="g1_65"
       id="path114"
       style="display:block;fill:#000000;fill-opacity:0;stroke-width:0.264583" />
    <path
       d="M 141.82212,160.47774 153.014,203.44607"
       class="ga_65"
       id="path115"
       style="display:block;fill:none;stroke:#335b74;stroke-width:0.302948;stroke-linejoin:round" />
    <path
       fill-rule="evenodd"
       d="m 152.53775,203.57836 0.84666,1.21708 0.1323,-1.48166 z"
       class="gb_65"
       id="path116"
       style="display:block;fill:#335b74;stroke:#335b74;stroke-width:0.302948;stroke-miterlimit:10" />
    <path
       fill-rule="evenodd"
       d="m 148.22504,188.97336 h 11.58875 v 3.175 h -11.58875 z"
       class="g1_65"
       id="path117"
       style="display:block;fill:#000000;fill-opacity:0;stroke-width:0.264583" />
    <text
       clip-path="url(#c0_65)"
       x="874.90002"
       y="391.79999"
       class="s8_65"
       id="text117"
       style="font-size:6.11px;font-family:ArialMT_bj;white-space:pre;display:block;fill:#000000"
       transform="matrix(0.26458333,0,0,0.26458333,-83.258915,86.844198)">refers </text>
    <path
       fill-rule="evenodd"
       d="m 163.51795,180.82419 h 26.53771 v 12.27667 h -15.47812 l -23.23042,11.50938 16.58938,-11.50938 h -4.41855 v -5.10646 z"
       class="gd_65"
       id="path118"
       style="display:block;fill:#00ffff;stroke-width:0.264583" />
    <path
       d="m 163.51795,180.82419 h 26.53771 v 12.27667 h -15.47812 l -23.23042,11.50938 16.58938,-11.50938 h -4.41855 v -5.10646 z"
       class="ga_65"
       id="path119"
       style="display:block;fill:none;stroke:#335b74;stroke-width:0.302948;stroke-linejoin:round" />
    <g
       clip-path="url(#c0_65)"
       id="g122"
       style="display:block"
       transform="matrix(0.26458333,0,0,0.26458333,-83.258915,86.844198)">
      <text
         x="933.90002"
         y="367.39999"
         class="s7_65"
         id="text119"
         style="font-size:7.64px;font-family:ArialMT_bj;white-space:pre;fill:#000000">Polygon </text>
      <text
         x="933.90002"
         y="376.60001"
         dx="0 0 0 0 0 -0.60000002"
         class="s7_65"
         id="text120"
         style="font-size:7.64px;font-family:ArialMT_bj;white-space:pre;fill:#000000">Id: 11 </text>
      <text
         x="933.90002"
         y="385.70001"
         class="s7_65"
         id="text121"
         style="font-size:7.64px;font-family:ArialMT_bj;white-space:pre;fill:#000000">type: detection_area </text>
      <text
         x="933.90002"
         y="394.89999"
         class="s7_65"
         id="text122"
         style="font-size:7.64px;font-family:ArialMT_bj;white-space:pre;fill:#000000">area: yes </text>
    </g>
    <path
       fill-rule="evenodd"
       d="m 135.10171,204.87482 h 23.49499 v 9.8425 h -23.49499 z"
       class="ge_65"
       id="path122"
       style="display:block;fill:#0000ff;fill-opacity:0.47;stroke-width:0.264583" />
    <path
       d="m 135.10171,204.87482 h 23.49499 v 9.8425 h -23.49499 z"
       class="gf_65"
       id="path123"
       style="display:block;fill:none;stroke:#000000;stroke-width:1.21259;stroke-linejoin:round" />
    <path
       fill-rule="evenodd"
       d="m 133.46129,205.64211 v 0 c 0,-1.05833 0.84667,-1.93146 1.93146,-1.93146 0.52916,0 1.00541,0.21167 1.37583,0.58209 0.37042,0.34395 0.58208,0.84666 0.58208,1.34937 0,1.08479 -0.87312,1.95792 -1.95791,1.95792 -1.08479,0 -1.93146,-0.87313 -1.93146,-1.95792 z"
       class="gg_65"
       id="path124"
       style="display:block;fill:#dfe3e5;stroke-width:0.264583" />
    <path
       d="m 133.46129,205.64211 v 0 c 0,-1.05833 0.84667,-1.93146 1.93146,-1.93146 0.52916,0 1.00541,0.21167 1.37583,0.58209 0.37042,0.34395 0.58208,0.84666 0.58208,1.34937 0,1.08479 -0.87312,1.95792 -1.95791,1.95792 -1.08479,0 -1.93146,-0.87313 -1.93146,-1.95792 z"
       class="ga_65"
       id="path125"
       style="display:block;fill:none;stroke:#335b74;stroke-width:0.302948;stroke-linejoin:round" />
    <path
       fill-rule="evenodd"
       d="m 132.45587,203.73711 h 4.89479 v 3.86292 h -4.89479 z"
       class="g1_65"
       id="path126"
       style="display:block;fill:#000000;fill-opacity:0;stroke-width:0.264583" />
    <text
       clip-path="url(#c0_65)"
       x="823.5"
       y="451.5"
       class="s8_65"
       id="text126"
       style="font-size:6.11px;font-family:ArialMT_bj;white-space:pre;display:block;fill:#000000"
       transform="matrix(0.26458333,0,0,0.26458333,-83.258915,86.844198)">1 </text>
    <path
       fill-rule="evenodd"
       d="m 156.08316,214.0294 v 0 c 0,-1.05833 0.87313,-1.93146 1.93146,-1.93146 0.52917,0 1.03188,0.21167 1.37583,0.55563 0.37042,0.37042 0.58209,0.87312 0.58209,1.37583 0,1.08479 -0.87313,1.95792 -1.95792,1.95792 -1.05833,0 -1.93146,-0.87313 -1.93146,-1.95792 z"
       class="gg_65"
       id="path127"
       style="display:block;fill:#dfe3e5;stroke-width:0.264583" />
    <path
       d="m 156.08316,214.0294 v 0 c 0,-1.05833 0.87313,-1.93146 1.93146,-1.93146 0.52917,0 1.03188,0.21167 1.37583,0.55563 0.37042,0.37042 0.58209,0.87312 0.58209,1.37583 0,1.08479 -0.87313,1.95792 -1.95792,1.95792 -1.05833,0 -1.93146,-0.87313 -1.93146,-1.95792 z"
       class="ga_65"
       id="path128"
       style="display:block;fill:none;stroke:#335b74;stroke-width:0.302948;stroke-linejoin:round" />
    <path
       fill-rule="evenodd"
       d="m 156.16254,212.09794 h 3.73062 v 3.86292 h -3.73062 z"
       class="g1_65"
       id="path129"
       style="display:block;fill:#000000;fill-opacity:0;stroke-width:0.264583" />
    <text
       clip-path="url(#c0_65)"
       x="910.20001"
       y="483.20001"
       class="s8_65"
       id="text129"
       style="font-size:6.11px;font-family:ArialMT_bj;white-space:pre;display:block;fill:#000000"
       transform="matrix(0.26458333,0,0,0.26458333,-83.258915,86.844198)">3 </text>
    <path
       fill-rule="evenodd"
       d="m 156.08316,205.37753 v 0 c 0,-1.08479 0.87313,-1.95792 1.93146,-1.95792 0.52917,0 1.03188,0.21167 1.37583,0.58208 0.37042,0.37042 0.58209,0.84667 0.58209,1.37584 0,1.05833 -0.87313,1.93146 -1.95792,1.93146 -1.05833,0 -1.93146,-0.87313 -1.93146,-1.93146 z"
       class="gg_65"
       id="path130"
       style="display:block;fill:#dfe3e5;stroke-width:0.264583" />
    <path
       d="m 156.08316,205.37753 v 0 c 0,-1.08479 0.87313,-1.95792 1.93146,-1.95792 0.52917,0 1.03188,0.21167 1.37583,0.58208 0.37042,0.37042 0.58209,0.84667 0.58209,1.37584 0,1.05833 -0.87313,1.93146 -1.95792,1.93146 -1.05833,0 -1.93146,-0.87313 -1.93146,-1.93146 z"
       class="ga_65"
       id="path131"
       style="display:block;fill:none;stroke:#335b74;stroke-width:0.302948;stroke-linejoin:round" />
    <path
       fill-rule="evenodd"
       d="m 156.16254,203.44607 h 3.73062 v 3.86292 h -3.73062 z"
       class="g1_65"
       id="path132"
       style="display:block;fill:#000000;fill-opacity:0;stroke-width:0.264583" />
    <text
       clip-path="url(#c0_65)"
       x="910.20001"
       y="450.39999"
       class="s8_65"
       id="text132"
       style="font-size:6.11px;font-family:ArialMT_bj;white-space:pre;display:block;fill:#000000"
       transform="matrix(0.26458333,0,0,0.26458333,-83.258915,86.844198)">2 </text>
    <path
       fill-rule="evenodd"
       d="m 132.95858,214.0294 v 0 c 0,-1.05833 0.87313,-1.93146 1.93146,-1.93146 0.52917,0 1.03187,0.21167 1.37583,0.55563 0.37042,0.37042 0.58209,0.87312 0.58209,1.37583 0,1.08479 -0.87313,1.95792 -1.95792,1.95792 -1.05833,0 -1.93146,-0.87313 -1.93146,-1.95792 z"
       class="gg_65"
       id="path133"
       style="display:block;fill:#dfe3e5;stroke-width:0.264583" />
    <path
       d="m 132.95858,214.0294 v 0 c 0,-1.05833 0.87313,-1.93146 1.93146,-1.93146 0.52917,0 1.03187,0.21167 1.37583,0.55563 0.37042,0.37042 0.58209,0.87312 0.58209,1.37583 0,1.08479 -0.87313,1.95792 -1.95792,1.95792 -1.05833,0 -1.93146,-0.87313 -1.93146,-1.95792 z"
       class="ga_65"
       id="path134"
       style="display:block;fill:none;stroke:#335b74;stroke-width:0.302948;stroke-linejoin:round" />
    <path
       fill-rule="evenodd"
       d="m 133.03796,212.09794 h 3.73062 v 3.86292 h -3.73062 z"
       class="g1_65"
       id="path135"
       style="display:block;fill:#000000;fill-opacity:0;stroke-width:0.264583" />
    <text
       clip-path="url(#c0_65)"
       x="822.79999"
       y="483.20001"
       class="s8_65"
       id="text135"
       style="font-size:6.11px;font-family:ArialMT_bj;white-space:pre;display:block;fill:#000000"
       transform="matrix(0.26458333,0,0,0.26458333,-83.258915,86.844198)">4 </text>
  </g>
</svg>
