<?xml version="1.0" encoding="UTF-8" standalone="no"?>
<!-- Created with Inkscape (http://www.inkscape.org/) -->

<svg
   width="72.443001mm"
   height="63.175999mm"
   viewBox="0 0 72.443 63.175999"
   version="1.1"
   id="svg1"
   inkscape:version="1.3.2 (1:1.3.2+202311252150+091e20ef0f)"
   sodipodi:docname="vm-06-03_1.svg"
   xmlns:inkscape="http://www.inkscape.org/namespaces/inkscape"
   xmlns:sodipodi="http://sodipodi.sourceforge.net/DTD/sodipodi-0.dtd"
   xmlns="http://www.w3.org/2000/svg"
   xmlns:svg="http://www.w3.org/2000/svg">
  <sodipodi:namedview
     id="namedview1"
     pagecolor="#ffffff"
     bordercolor="#000000"
     borderopacity="0.25"
     inkscape:showpageshadow="2"
     inkscape:pageopacity="0.0"
     inkscape:pagecheckerboard="0"
     inkscape:deskcolor="#d1d1d1"
     inkscape:document-units="mm"
     inkscape:zoom="1.7131103"
     inkscape:cx="125.79459"
     inkscape:cy="108.28258"
     inkscape:window-width="1920"
     inkscape:window-height="2123"
     inkscape:window-x="0"
     inkscape:window-y="0"
     inkscape:window-maximized="0"
     inkscape:current-layer="layer1" />
  <defs
     id="defs1">
    <clipPath
       id="c0_63">
      <path
         d="M 0,825 V 0 h 1100 v 825 z"
         id="path2" />
    </clipPath>
  </defs>
  <g
     inkscape:label="Layer 1"
     inkscape:groupmode="layer"
     id="layer1"
     transform="translate(-71.702083,-119.85625)">
    <path
       fill-rule="evenodd"
       d="m 91.450215,121.53727 h 24.844375 v 10.29229 H 91.450215 Z"
       class="g1_63"
       id="path67"
       style="display:block;fill:#000000;fill-opacity:0;stroke-width:0.264583" />
    <text
       clip-path="url(#c0_63)"
       x="203.39999"
       y="543.20001"
       class="s9_63"
       id="text67"
       transform="matrix(0.26458333,0,0,0.26458333,20.993094,-15.333696)"
       style="font-size:13.75px;font-family:MS-PGothic_bn;white-space:pre;display:block;fill:#000000">No parking and stopping </text>
    <path
       fill-rule="evenodd"
       d="m 86.185006,152.17602 v 0 c 0,-3.96875 3.227917,-7.19667 7.223125,-7.19667 1.905,0 3.730625,0.74083 5.08,2.11667 1.375834,1.34937 2.116669,3.175 2.116669,5.08 0,3.9952 -3.227919,7.22312 -7.196669,7.22312 -3.995208,0 -7.223125,-3.22792 -7.223125,-7.22312 z"
       class="g0_63"
       id="path68"
       style="display:block;fill:#ffffff;stroke-width:0.264583" />
    <path
       d="m 86.185006,152.17602 v 0 c 0,-3.96875 3.227917,-7.19667 7.223125,-7.19667 1.905,0 3.730625,0.74083 5.08,2.11667 1.375834,1.34937 2.116669,3.175 2.116669,5.08 0,3.9952 -3.227919,7.22312 -7.196669,7.22312 -3.995208,0 -7.223125,-3.22792 -7.223125,-7.22312 z"
       class="g2_63"
       id="path69"
       style="display:block;fill:none;stroke:#000000;stroke-width:0.302948;stroke-linejoin:round" />
    <path
       fill-rule="evenodd"
       d="m 86.476048,152.20247 v 0 c 0,-3.83645 3.095625,-6.93208 6.932083,-6.93208 1.825625,0 3.571875,0.71438 4.894792,2.01083 1.296458,1.32292 2.010837,3.06917 2.010837,4.92125 0,3.81 -3.095629,6.90563 -6.905629,6.90563 -3.836458,0 -6.932083,-3.09563 -6.932083,-6.90563 z"
       class="gd_63"
       id="path70"
       style="display:block;fill:#ff0000;stroke-width:0.264583" />
    <path
       fill-rule="evenodd"
       d="m 88.433965,152.07018 v 0 c 0,-2.75166 2.2225,-4.97416 4.974166,-4.97416 1.322917,0 2.566459,0.52916 3.518959,1.4552 0.926041,0.9525 1.455208,2.19605 1.455208,3.51896 0,2.75167 -2.2225,4.97417 -4.974167,4.97417 -2.751666,0 -4.974166,-2.2225 -4.974166,-4.97417 z"
       class="ge_63"
       id="path71"
       style="display:block;fill:#4a86e8;stroke-width:0.264583" />
    <path
       fill-rule="evenodd"
       d="m 87.798965,148.33956 11.456458,6.95854 -0.370417,0.635 -11.482916,-6.95854 z"
       class="gd_63"
       id="path72"
       style="display:block;fill:#ff0000;stroke-width:0.264583" />
    <path
       fill-rule="evenodd"
       d="m 98.885006,148.33956 -11.482916,6.95854 0.396875,0.635 11.456458,-6.95854 z"
       class="gd_63"
       id="path73"
       style="display:block;fill:#ff0000;stroke-width:0.264583" />
    <path
       fill-rule="evenodd"
       d="m 112.08771,131.82956 h 12.88521 v 46.85771 h -12.88521 z"
       class="g5_63"
       id="path74"
       style="display:block;fill:#666666;stroke-width:0.264583" />
    <path
       fill-rule="evenodd"
       d="m 102.37751,173.3956 h 22.59541 v 5.31812 h -22.59541 z"
       class="g5_63"
       id="path75"
       style="display:block;fill:#666666;stroke-width:0.264583" />
    <path
       fill-rule="evenodd"
       d="m 102.37751,131.82956 h 10.74208 v 41.14271 h -10.74208 z"
       class="gf_63"
       id="path76"
       style="display:block;fill:#efefef;stroke-width:0.264583" />
    <path
       fill-rule="evenodd"
       d="m 112.08771,131.93539 h 2.06375 v 39.60813 h -2.06375 z"
       class="gg_63"
       id="path77"
       style="display:block;fill:#999999;stroke-width:0.264583" />
    <path
       d="m 112.08771,131.93539 h 2.06375 v 39.60813 h -2.06375 z"
       class="gh_63"
       id="path78"
       style="display:block;fill:none;stroke:#999999;stroke-width:0.302948;stroke-linejoin:round" />
    <path
       fill-rule="evenodd"
       d="m 110.73834,172.99872 v 2.2225 h -8.36083 v -2.2225 z"
       class="gg_63"
       id="path79"
       style="display:block;fill:#999999;stroke-width:0.264583" />
    <path
       d="m 110.73834,172.99872 v 2.2225 h -8.36083 v -2.2225 z"
       class="gh_63"
       id="path80"
       style="display:block;fill:none;stroke:#999999;stroke-width:0.302948;stroke-linejoin:round" />
    <path
       fill-rule="evenodd"
       d="m 110.34146,175.22122 v 0 c 2.06375,0.0265 3.75709,-1.5875 3.81,-3.62479 l -2.0902,-0.0794 c -0.0265,0.89958 -0.7673,1.61396 -1.66688,1.61396 z"
       class="gg_63"
       id="path81"
       style="display:block;fill:#999999;stroke-width:0.264583" />
    <path
       d="m 110.34146,175.22122 v 0 c 2.06375,0.0265 3.75709,-1.5875 3.81,-3.62479 l -2.0902,-0.0794 c -0.0265,0.89958 -0.7673,1.61396 -1.66688,1.61396 z"
       class="gh_63"
       id="path82"
       style="display:block;fill:none;stroke:#999999;stroke-width:0.302948;stroke-linejoin:round" />
    <path
       fill-rule="evenodd"
       d="m 112.0348,133.62872 h 2.11666 v 33.655 h -2.11666 z"
       class="gi_63"
       id="path83"
       style="display:block;fill:#ff9900;stroke-width:0.264583" />
  </g>
</svg>
