<?xml version="1.0" encoding="UTF-8" standalone="no"?>
<!-- Created with Inkscape (http://www.inkscape.org/) -->

<svg
   width="65.516998mm"
   height="70.807999mm"
   viewBox="0 0 65.516998 70.807999"
   version="1.1"
   id="svg1"
   inkscape:version="1.3.2 (1:1.3.2+202311252150+091e20ef0f)"
   sodipodi:docname="vm-03-03_1.svg"
   xmlns:inkscape="http://www.inkscape.org/namespaces/inkscape"
   xmlns:sodipodi="http://sodipodi.sourceforge.net/DTD/sodipodi-0.dtd"
   xmlns="http://www.w3.org/2000/svg"
   xmlns:svg="http://www.w3.org/2000/svg">
  <sodipodi:namedview
     id="namedview1"
     pagecolor="#ffffff"
     bordercolor="#000000"
     borderopacity="0.25"
     inkscape:showpageshadow="2"
     inkscape:pageopacity="0.0"
     inkscape:pagecheckerboard="0"
     inkscape:deskcolor="#d1d1d1"
     inkscape:document-units="mm"
     inkscape:zoom="1.7131103"
     inkscape:cx="262.38825"
     inkscape:cy="-130.46446"
     inkscape:window-width="3840"
     inkscape:window-height="2123"
     inkscape:window-x="0"
     inkscape:window-y="0"
     inkscape:window-maximized="1"
     inkscape:current-layer="layer1" />
  <defs
     id="defs1" />
  <g
     inkscape:label="Layer 1"
     inkscape:groupmode="layer"
     id="layer1"
     transform="translate(-35.454166,-183.09167)">
    <path
       fill-rule="evenodd"
       d="m 38.933774,208.83315 h 20.028958 v -22.64833 h 19.155833 v 22.64833 h 20.028958 v 19.15584 H 78.118565 v 22.64833 H 58.962732 V 227.98899 H 38.933774 Z"
       class="g3_36"
       id="path239"
       style="display:block;fill:#666666;stroke-width:0.264583" />
    <path
       d="m 38.933774,208.83315 h 20.028958 v -22.64833 h 19.155833 v 22.64833 h 20.028958 v 19.15584 H 78.118565 v 22.64833 H 58.962732 V 227.98899 H 38.933774 Z"
       class="g4_36"
       id="path240"
       style="display:block;fill:none;stroke:#666666;stroke-width:0.302948;stroke-linejoin:round" />
    <path
       fill-rule="evenodd"
       d="m 58.936274,186.18482 h 1.084792 v 21.77521 h -1.084792 z"
       class="g5_36"
       id="path241"
       style="display:block;fill:#999999;stroke-width:0.264583" />
    <path
       d="m 58.936274,186.18482 h 1.084792 v 21.77521 h -1.084792 z"
       class="g6_36"
       id="path242"
       style="display:block;fill:none;stroke:#999999;stroke-width:0.302948;stroke-linejoin:round" />
    <path
       fill-rule="evenodd"
       d="m 76.980857,186.18482 h 1.084792 v 21.77521 h -1.084792 z"
       class="g5_36"
       id="path243"
       style="display:block;fill:#999999;stroke-width:0.264583" />
    <path
       d="m 76.980857,186.18482 h 1.084792 v 21.77521 h -1.084792 z"
       class="g6_36"
       id="path244"
       style="display:block;fill:none;stroke:#999999;stroke-width:0.302948;stroke-linejoin:round" />
    <path
       fill-rule="evenodd"
       d="m 58.962732,228.91503 h 1.084792 v 21.77521 h -1.084792 z"
       class="g5_36"
       id="path245"
       style="display:block;fill:#999999;stroke-width:0.264583" />
    <path
       d="m 58.962732,228.91503 h 1.084792 v 21.77521 h -1.084792 z"
       class="g6_36"
       id="path246"
       style="display:block;fill:none;stroke:#999999;stroke-width:0.302948;stroke-linejoin:round" />
    <path
       fill-rule="evenodd"
       d="m 77.033774,228.91503 h 1.084791 v 21.77521 h -1.084791 z"
       class="g5_36"
       id="path247"
       style="display:block;fill:#999999;stroke-width:0.264583" />
    <path
       d="m 77.033774,228.91503 h 1.084791 v 21.77521 h -1.084791 z"
       class="g6_36"
       id="path248"
       style="display:block;fill:none;stroke:#999999;stroke-width:0.302948;stroke-linejoin:round" />
    <path
       fill-rule="evenodd"
       d="m 60.021066,207.98649 v 1.19062 H 38.960233 v -1.19062 z"
       class="g5_36"
       id="path249"
       style="display:block;fill:#999999;stroke-width:0.264583" />
    <path
       d="m 60.021066,207.98649 v 1.19062 H 38.960233 v -1.19062 z"
       class="g6_36"
       id="path250"
       style="display:block;fill:none;stroke:#999999;stroke-width:0.302948;stroke-linejoin:round" />
    <path
       fill-rule="evenodd"
       d="m 60.021066,227.64503 v 1.19062 H 38.960233 v -1.19062 z"
       class="g5_36"
       id="path251"
       style="display:block;fill:#999999;stroke-width:0.264583" />
    <path
       d="m 60.021066,227.64503 v 1.19062 H 38.960233 v -1.19062 z"
       class="g6_36"
       id="path252"
       style="display:block;fill:none;stroke:#999999;stroke-width:0.302948;stroke-linejoin:round" />
    <path
       fill-rule="evenodd"
       d="m 98.094607,208.01295 v 1.19062 H 77.033774 v -1.19062 z"
       class="g5_36"
       id="path253"
       style="display:block;fill:#999999;stroke-width:0.264583" />
    <path
       d="m 98.094607,208.01295 v 1.19062 H 77.033774 v -1.19062 z"
       class="g6_36"
       id="path254"
       style="display:block;fill:none;stroke:#999999;stroke-width:0.302948;stroke-linejoin:round" />
    <path
       fill-rule="evenodd"
       d="m 98.094607,227.67149 v 1.19062 H 77.033774 v -1.19062 z"
       class="g5_36"
       id="path255"
       style="display:block;fill:#999999;stroke-width:0.264583" />
    <path
       d="m 98.094607,227.67149 v 1.19062 H 77.033774 v -1.19062 z"
       class="g6_36"
       id="path256"
       style="display:block;fill:none;stroke:#999999;stroke-width:0.302948;stroke-linejoin:round" />
    <path
       fill-rule="evenodd"
       d="m 48.458774,218.46399 -9.525,-0.0529 z"
       class="g1_36"
       id="path257"
       style="display:block;fill:#000000;fill-opacity:0;stroke-width:0.264583" />
    <path
       d="m 48.458774,218.46399 -9.525,-0.0529"
       class="g7_36"
       id="path258"
       style="display:block;fill:none;stroke:#f3f3f3;stroke-width:0.60616;stroke-linejoin:round;stroke-dasharray:2.64583, 1.85208" />
    <path
       fill-rule="evenodd"
       d="m 98.094607,218.46399 -9.525,-0.0529 z"
       class="g1_36"
       id="path259"
       style="display:block;fill:#000000;fill-opacity:0;stroke-width:0.264583" />
    <path
       d="m 98.094607,218.46399 -9.525,-0.0529"
       class="g7_36"
       id="path260"
       style="display:block;fill:none;stroke:#f3f3f3;stroke-width:0.60616;stroke-linejoin:round;stroke-dasharray:2.64583, 1.85208" />
    <path
       fill-rule="evenodd"
       d="m 68.461274,196.55649 0.07937,-10.37167 z"
       class="g1_36"
       id="path261"
       style="display:block;fill:#000000;fill-opacity:0;stroke-width:0.264583" />
    <path
       d="m 68.461274,196.55649 0.07937,-10.37167"
       class="g7_36"
       id="path262"
       style="display:block;fill:none;stroke:#f3f3f3;stroke-width:0.60616;stroke-linejoin:round;stroke-dasharray:2.64583, 1.85208" />
    <path
       fill-rule="evenodd"
       d="m 68.514191,250.69024 0.05292,-10.37167 z"
       class="g1_36"
       id="path263"
       style="display:block;fill:#000000;fill-opacity:0;stroke-width:0.264583" />
    <path
       d="m 68.514191,250.69024 0.05292,-10.37167"
       class="g7_36"
       id="path264"
       style="display:block;fill:none;stroke:#f3f3f3;stroke-width:0.60616;stroke-linejoin:round;stroke-dasharray:2.64583, 1.85208" />
    <path
       fill-rule="evenodd"
       d="m 48.564607,218.56982 0.02646,-9.39271 z"
       class="g1_36"
       id="path265"
       style="display:block;fill:#000000;fill-opacity:0;stroke-width:0.264583" />
    <path
       d="m 48.564607,218.56982 0.02646,-9.39271"
       class="g8_36"
       id="path266"
       style="display:block;fill:none;stroke:#f3f3f3;stroke-width:0.909373;stroke-linejoin:round" />
    <path
       fill-rule="evenodd"
       d="m 88.648982,227.80378 0.02646,-9.39271 z"
       class="g1_36"
       id="path267"
       style="display:block;fill:#000000;fill-opacity:0;stroke-width:0.264583" />
    <path
       d="m 88.648982,227.80378 0.02646,-9.39271"
       class="g8_36"
       id="path268"
       style="display:block;fill:none;stroke:#f3f3f3;stroke-width:0.909373;stroke-linejoin:round" />
    <path
       fill-rule="evenodd"
       d="m 68.381899,196.7417 8.651875,0.0265 z"
       class="g1_36"
       id="path269"
       style="display:block;fill:#000000;fill-opacity:0;stroke-width:0.264583" />
    <path
       d="m 68.381899,196.7417 8.651875,0.0265"
       class="g8_36"
       id="path270"
       style="display:block;fill:none;stroke:#f3f3f3;stroke-width:0.909373;stroke-linejoin:round" />
    <path
       fill-rule="evenodd"
       d="m 60.047524,240.31857 8.651875,0.0265 z"
       class="g1_36"
       id="path271"
       style="display:block;fill:#000000;fill-opacity:0;stroke-width:0.264583" />
    <path
       d="m 60.047524,240.31857 8.651875,0.0265"
       class="g8_36"
       id="path272"
       style="display:block;fill:none;stroke:#f3f3f3;stroke-width:0.909373;stroke-linejoin:round" />
    <path
       fill-rule="evenodd"
       d="m 60.523774,233.78336 h 0.899583 v 4.25979 h -0.899583 z"
       class="g9_36"
       id="path273"
       style="display:block;fill:#eeeeee;stroke-width:0.264583" />
    <path
       fill-rule="evenodd"
       d="m 62.455232,233.78336 h 0.926042 v 4.25979 h -0.926042 z"
       class="g9_36"
       id="path274"
       style="display:block;fill:#eeeeee;stroke-width:0.264583" />
    <path
       fill-rule="evenodd"
       d="m 64.386691,233.78336 h 0.926041 v 4.25979 h -0.926041 z"
       class="g9_36"
       id="path275"
       style="display:block;fill:#eeeeee;stroke-width:0.264583" />
    <path
       fill-rule="evenodd"
       d="m 66.318149,233.78336 h 0.926042 v 4.25979 h -0.926042 z"
       class="g9_36"
       id="path276"
       style="display:block;fill:#eeeeee;stroke-width:0.264583" />
    <path
       fill-rule="evenodd"
       d="m 68.276066,233.78336 h 0.899583 v 4.25979 h -0.899583 z"
       class="g9_36"
       id="path277"
       style="display:block;fill:#eeeeee;stroke-width:0.264583" />
    <path
       fill-rule="evenodd"
       d="m 70.207524,233.78336 h 0.926041 v 4.25979 h -0.926041 z"
       class="g9_36"
       id="path278"
       style="display:block;fill:#eeeeee;stroke-width:0.264583" />
    <path
       fill-rule="evenodd"
       d="m 72.138982,233.78336 h 0.926042 v 4.25979 h -0.926042 z"
       class="g9_36"
       id="path279"
       style="display:block;fill:#eeeeee;stroke-width:0.264583" />
    <path
       fill-rule="evenodd"
       d="m 74.07044,233.78336 h 0.926042 v 4.25979 H 74.07044 Z"
       class="g9_36"
       id="path280"
       style="display:block;fill:#eeeeee;stroke-width:0.264583" />
    <path
       fill-rule="evenodd"
       d="m 76.028357,233.78336 h 0.899583 v 4.25979 h -0.899583 z"
       class="g9_36"
       id="path281"
       style="display:block;fill:#eeeeee;stroke-width:0.264583" />
    <path
       fill-rule="evenodd"
       d="m 60.285649,199.22878 h 0.926042 v 4.25979 h -0.926042 z"
       class="g9_36"
       id="path282"
       style="display:block;fill:#eeeeee;stroke-width:0.264583" />
    <path
       fill-rule="evenodd"
       d="m 62.243566,199.22878 h 0.899583 v 4.25979 h -0.899583 z"
       class="g9_36"
       id="path283"
       style="display:block;fill:#eeeeee;stroke-width:0.264583" />
    <path
       fill-rule="evenodd"
       d="m 64.175024,199.22878 h 0.899583 v 4.25979 h -0.899583 z"
       class="g9_36"
       id="path284"
       style="display:block;fill:#eeeeee;stroke-width:0.264583" />
    <path
       fill-rule="evenodd"
       d="m 66.106482,199.22878 h 0.926042 v 4.25979 h -0.926042 z"
       class="g9_36"
       id="path285"
       style="display:block;fill:#eeeeee;stroke-width:0.264583" />
    <path
       fill-rule="evenodd"
       d="m 68.037941,199.22878 h 0.926041 v 4.25979 h -0.926041 z"
       class="g9_36"
       id="path286"
       style="display:block;fill:#eeeeee;stroke-width:0.264583" />
    <path
       fill-rule="evenodd"
       d="m 69.995857,199.22878 h 0.899583 v 4.25979 h -0.899583 z"
       class="g9_36"
       id="path287"
       style="display:block;fill:#eeeeee;stroke-width:0.264583" />
    <path
       fill-rule="evenodd"
       d="m 71.927315,199.22878 h 0.899584 v 4.25979 h -0.899584 z"
       class="g9_36"
       id="path288"
       style="display:block;fill:#eeeeee;stroke-width:0.264583" />
    <path
       fill-rule="evenodd"
       d="m 73.858774,199.22878 h 0.926041 v 4.25979 h -0.926041 z"
       class="g9_36"
       id="path289"
       style="display:block;fill:#eeeeee;stroke-width:0.264583" />
    <path
       fill-rule="evenodd"
       d="m 75.790232,199.22878 h 0.926042 v 4.25979 h -0.926042 z"
       class="g9_36"
       id="path290"
       style="display:block;fill:#eeeeee;stroke-width:0.264583" />
    <path
       fill-rule="evenodd"
       d="m 54.914607,209.49461 v 1.00542 h -3.915833 v -1.00542 z"
       class="g9_36"
       id="path291"
       style="display:block;fill:#eeeeee;stroke-width:0.264583" />
    <path
       fill-rule="evenodd"
       d="m 54.914607,211.61128 v 1.00542 h -3.915833 v -1.00542 z"
       class="g9_36"
       id="path292"
       style="display:block;fill:#eeeeee;stroke-width:0.264583" />
    <path
       fill-rule="evenodd"
       d="m 54.914607,213.72795 v 0.97895 h -3.915833 v -0.97895 z"
       class="g9_36"
       id="path293"
       style="display:block;fill:#eeeeee;stroke-width:0.264583" />
    <path
       fill-rule="evenodd"
       d="m 54.914607,215.84461 v 0.97896 h -3.915833 v -0.97896 z"
       class="g9_36"
       id="path294"
       style="display:block;fill:#eeeeee;stroke-width:0.264583" />
    <path
       fill-rule="evenodd"
       d="m 54.914607,217.93482 v 1.00542 h -3.915833 v -1.00542 z"
       class="g9_36"
       id="path295"
       style="display:block;fill:#eeeeee;stroke-width:0.264583" />
    <path
       fill-rule="evenodd"
       d="m 54.914607,220.05149 v 1.00541 h -3.915833 v -1.00541 z"
       class="g9_36"
       id="path296"
       style="display:block;fill:#eeeeee;stroke-width:0.264583" />
    <path
       fill-rule="evenodd"
       d="m 54.914607,222.16815 v 0.97896 h -3.915833 v -0.97896 z"
       class="g9_36"
       id="path297"
       style="display:block;fill:#eeeeee;stroke-width:0.264583" />
    <path
       fill-rule="evenodd"
       d="m 54.914607,224.25836 v 1.00542 h -3.915833 v -1.00542 z"
       class="g9_36"
       id="path298"
       style="display:block;fill:#eeeeee;stroke-width:0.264583" />
    <path
       fill-rule="evenodd"
       d="m 54.914607,226.37503 v 1.00541 h -3.915833 v -1.00541 z"
       class="g9_36"
       id="path299"
       style="display:block;fill:#eeeeee;stroke-width:0.264583" />
    <path
       fill-rule="evenodd"
       d="m 86.161899,209.49461 v 1.00542 h -3.915834 v -1.00542 z"
       class="g9_36"
       id="path300"
       style="display:block;fill:#eeeeee;stroke-width:0.264583" />
    <path
       fill-rule="evenodd"
       d="m 86.161899,211.61128 v 1.00542 h -3.915834 v -1.00542 z"
       class="g9_36"
       id="path301"
       style="display:block;fill:#eeeeee;stroke-width:0.264583" />
    <path
       fill-rule="evenodd"
       d="m 86.161899,213.72795 v 0.97895 h -3.915834 v -0.97895 z"
       class="g9_36"
       id="path302"
       style="display:block;fill:#eeeeee;stroke-width:0.264583" />
    <path
       fill-rule="evenodd"
       d="m 86.161899,215.84461 v 0.97896 h -3.915834 v -0.97896 z"
       class="g9_36"
       id="path303"
       style="display:block;fill:#eeeeee;stroke-width:0.264583" />
    <path
       fill-rule="evenodd"
       d="m 86.161899,217.93482 v 1.00542 h -3.915834 v -1.00542 z"
       class="g9_36"
       id="path304"
       style="display:block;fill:#eeeeee;stroke-width:0.264583" />
    <path
       fill-rule="evenodd"
       d="m 86.161899,220.05149 v 1.00541 h -3.915834 v -1.00541 z"
       class="g9_36"
       id="path305"
       style="display:block;fill:#eeeeee;stroke-width:0.264583" />
    <path
       fill-rule="evenodd"
       d="m 86.161899,222.16815 v 0.97896 h -3.915834 v -0.97896 z"
       class="g9_36"
       id="path306"
       style="display:block;fill:#eeeeee;stroke-width:0.264583" />
    <path
       fill-rule="evenodd"
       d="m 86.161899,224.25836 v 1.00542 h -3.915834 v -1.00542 z"
       class="g9_36"
       id="path307"
       style="display:block;fill:#eeeeee;stroke-width:0.264583" />
    <path
       fill-rule="evenodd"
       d="m 86.161899,226.37503 v 1.00541 h -3.915834 v -1.00541 z"
       class="g9_36"
       id="path308"
       style="display:block;fill:#eeeeee;stroke-width:0.264583" />
    <path
       fill-rule="evenodd"
       d="m 67.667524,218.64919 0.899583,-1.00541 0.926042,1.00541 -0.926042,1.00542 z"
       class="g1_36"
       id="path309"
       style="display:block;fill:#000000;fill-opacity:0;stroke-width:0.264583" />
    <path
       d="m 67.667524,218.64919 0.899583,-1.00541 0.926042,1.00541 -0.926042,1.00542 z"
       class="ga_36"
       id="path310"
       style="display:block;fill:none;stroke:#f3f3f3;stroke-width:0.302948;stroke-linejoin:round" />
    <path
       fill-rule="evenodd"
       d="m 78.99169,221.58607 h -0.502708 v 10.37167 h 0.502708 z"
       class="g5_36"
       id="path311"
       style="display:block;fill:#999999;stroke-width:0.264583" />
    <path
       d="m 78.99169,221.58607 h -0.502708 v 10.37167 h 0.502708 z"
       class="g6_36"
       id="path312"
       style="display:block;fill:none;stroke:#999999;stroke-width:0.302948;stroke-linejoin:round" />
    <path
       fill-rule="evenodd"
       d="m 78.806482,222.0094 v 0 c 0,-0.23812 -0.185208,-0.42333 -0.423333,-0.42333 h -5.212292 c -0.105833,0 -0.211667,0.0529 -0.291042,0.13229 -0.07937,0.0794 -0.132291,0.18521 -0.132291,0.29104 v 1.74625 c 0,0.23813 0.185208,0.42334 0.423333,0.42334 h 5.212292 c 0.238125,0 0.423333,-0.18521 0.423333,-0.42334 z"
       class="g5_36"
       id="path313"
       style="display:block;fill:#999999;stroke-width:0.264583" />
    <path
       d="m 78.806482,222.0094 v 0 c 0,-0.23812 -0.185208,-0.42333 -0.423333,-0.42333 h -5.212292 c -0.105833,0 -0.211667,0.0529 -0.291042,0.13229 -0.07937,0.0794 -0.132291,0.18521 -0.132291,0.29104 v 1.74625 c 0,0.23813 0.185208,0.42334 0.423333,0.42334 h 5.212292 c 0.238125,0 0.423333,-0.18521 0.423333,-0.42334 z"
       class="g6_36"
       id="path314"
       style="display:block;fill:none;stroke:#999999;stroke-width:0.302948;stroke-linejoin:round" />
    <path
       fill-rule="evenodd"
       d="m 53.829816,230.37024 v -0.52917 h 4.497916 v 0.52917 z"
       class="g5_36"
       id="path315"
       style="display:block;fill:#999999;stroke-width:0.264583" />
    <path
       d="m 53.829816,230.37024 v -0.52917 h 4.497916 v 0.52917 z"
       class="g6_36"
       id="path316"
       style="display:block;fill:none;stroke:#999999;stroke-width:0.302948;stroke-linejoin:round" />
    <path
       fill-rule="evenodd"
       d="m 54.226691,230.29086 v 0 c -0.211667,0 -0.396875,-0.18521 -0.396875,-0.39687 v -5.82084 c 0,-0.10583 0.05292,-0.21166 0.132291,-0.26458 0.07938,-0.0794 0.15875,-0.13229 0.264584,-0.13229 h 1.613958 c 0.211667,0 0.396875,0.18521 0.396875,0.39687 v 5.82084 c 0,0.21166 -0.185208,0.39687 -0.396875,0.39687 z"
       class="g5_36"
       id="path317"
       style="display:block;fill:#999999;stroke-width:0.264583" />
    <path
       d="m 54.226691,230.29086 v 0 c -0.211667,0 -0.396875,-0.18521 -0.396875,-0.39687 v -5.82084 c 0,-0.10583 0.05292,-0.21166 0.132291,-0.26458 0.07938,-0.0794 0.15875,-0.13229 0.264584,-0.13229 h 1.613958 c 0.211667,0 0.396875,0.18521 0.396875,0.39687 v 5.82084 c 0,0.21166 -0.185208,0.39687 -0.396875,0.39687 z"
       class="g6_36"
       id="path318"
       style="display:block;fill:none;stroke:#999999;stroke-width:0.302948;stroke-linejoin:round" />
    <path
       fill-rule="evenodd"
       d="m 54.993982,225.76649 v 0 c -0.370416,0 -0.687916,-0.3175 -0.687916,-0.74084 0,-0.42333 0.3175,-0.74083 0.687916,-0.74083 0.396875,0 0.687917,0.3175 0.687917,0.74083 0,0.42334 -0.291042,0.74084 -0.687917,0.74084 z"
       class="gb_36"
       id="path319"
       style="display:block;fill:#ff0000;stroke-width:0.264583" />
    <path
       fill-rule="evenodd"
       d="m 54.993982,227.88315 v 0 c -0.370416,0 -0.687916,-0.34396 -0.687916,-0.76729 0,-0.39687 0.3175,-0.74083 0.687916,-0.74083 0.396875,0 0.687917,0.34396 0.687917,0.74083 0,0.42333 -0.291042,0.76729 -0.687917,0.76729 z"
       class="gc_36"
       id="path320"
       style="display:block;fill:#f1c232;stroke-width:0.264583" />
    <path
       fill-rule="evenodd"
       d="m 54.993982,229.97336 v 0 c -0.370416,0 -0.687916,-0.34396 -0.687916,-0.74083 0,-0.42334 0.3175,-0.76729 0.687916,-0.76729 0.396875,0 0.687917,0.34395 0.687917,0.76729 0,0.39687 -0.291042,0.74083 -0.687917,0.74083 z"
       class="gd_36"
       id="path321"
       style="display:block;fill:#38761d;stroke-width:0.264583" />
    <path
       fill-rule="evenodd"
       d="m 83.198565,207.0869 v -0.52916 h -4.497916 v 0.52916 z"
       class="g5_36"
       id="path322"
       style="display:block;fill:#999999;stroke-width:0.264583" />
    <path
       d="m 83.198565,207.0869 v -0.52916 h -4.497916 v 0.52916 z"
       class="g6_36"
       id="path323"
       style="display:block;fill:none;stroke:#999999;stroke-width:0.302948;stroke-linejoin:round" />
    <path
       fill-rule="evenodd"
       d="m 82.80169,207.00753 v 0 c 0.211667,0 0.396875,-0.15875 0.396875,-0.39688 v -5.79437 c 0,-0.10583 -0.05292,-0.21167 -0.132291,-0.29104 -0.07937,-0.0794 -0.15875,-0.10584 -0.264584,-0.10584 h -1.613958 c -0.211667,0 -0.396875,0.15875 -0.396875,0.39688 v 5.79437 c 0,0.23813 0.185208,0.39688 0.396875,0.39688 z"
       class="g5_36"
       id="path324"
       style="display:block;fill:#999999;stroke-width:0.264583" />
    <path
       d="m 82.80169,207.00753 v 0 c 0.211667,0 0.396875,-0.15875 0.396875,-0.39688 v -5.79437 c 0,-0.10583 -0.05292,-0.21167 -0.132291,-0.29104 -0.07937,-0.0794 -0.15875,-0.10584 -0.264584,-0.10584 h -1.613958 c -0.211667,0 -0.396875,0.15875 -0.396875,0.39688 v 5.79437 c 0,0.23813 0.185208,0.39688 0.396875,0.39688 z"
       class="g6_36"
       id="path325"
       style="display:block;fill:none;stroke:#999999;stroke-width:0.302948;stroke-linejoin:round" />
    <path
       fill-rule="evenodd"
       d="m 82.034399,202.50961 v 0 c 0.370416,0 0.687916,-0.34396 0.687916,-0.74083 0,-0.42333 -0.3175,-0.76729 -0.687916,-0.76729 -0.396875,0 -0.687917,0.34396 -0.687917,0.76729 0,0.39687 0.291042,0.74083 0.687917,0.74083 z"
       class="gb_36"
       id="path326"
       style="display:block;fill:#ff0000;stroke-width:0.264583" />
    <path
       fill-rule="evenodd"
       d="m 82.034399,204.59982 v 0 c 0.370416,0 0.687916,-0.34396 0.687916,-0.74083 0,-0.42334 -0.3175,-0.74084 -0.687916,-0.74084 -0.396875,0 -0.687917,0.3175 -0.687917,0.74084 0,0.39687 0.291042,0.74083 0.687917,0.74083 z"
       class="gc_36"
       id="path327"
       style="display:block;fill:#f1c232;stroke-width:0.264583" />
    <path
       fill-rule="evenodd"
       d="m 82.034399,206.69003 v 0 c 0.370416,0 0.687916,-0.3175 0.687916,-0.74083 0,-0.39688 -0.3175,-0.74084 -0.687916,-0.74084 -0.396875,0 -0.687917,0.34396 -0.687917,0.74084 0,0.42333 0.291042,0.74083 0.687917,0.74083 z"
       class="gd_36"
       id="path328"
       style="display:block;fill:#38761d;stroke-width:0.264583" />
    <path
       fill-rule="evenodd"
       d="m 58.089607,195.18065 h 0.47625 v 10.37167 h -0.47625 z"
       class="g5_36"
       id="path329"
       style="display:block;fill:#999999;stroke-width:0.264583" />
    <path
       d="m 58.089607,195.18065 h 0.47625 v 10.37167 h -0.47625 z"
       class="g6_36"
       id="path330"
       style="display:block;fill:none;stroke:#999999;stroke-width:0.302948;stroke-linejoin:round" />
    <path
       fill-rule="evenodd"
       d="m 58.248357,195.60399 v 0 c 0,-0.23813 0.211667,-0.42334 0.449792,-0.42334 h 5.212292 c 0.105833,0 0.211666,0.0529 0.291041,0.1323 0.07937,0.0794 0.132292,0.1852 0.132292,0.29104 v 1.74625 c 0,0.23812 -0.185208,0.42333 -0.423333,0.42333 h -5.212292 c -0.238125,0 -0.449792,-0.18521 -0.449792,-0.42333 z"
       class="g5_36"
       id="path331"
       style="display:block;fill:#999999;stroke-width:0.264583" />
    <path
       d="m 58.248357,195.60399 v 0 c 0,-0.23813 0.211667,-0.42334 0.449792,-0.42334 h 5.212292 c 0.105833,0 0.211666,0.0529 0.291041,0.1323 0.07937,0.0794 0.132292,0.1852 0.132292,0.29104 v 1.74625 c 0,0.23812 -0.185208,0.42333 -0.423333,0.42333 h -5.212292 c -0.238125,0 -0.449792,-0.18521 -0.449792,-0.42333 z"
       class="g6_36"
       id="path332"
       style="display:block;fill:none;stroke:#999999;stroke-width:0.302948;stroke-linejoin:round" />
    <path
       fill-rule="evenodd"
       d="m 62.402316,196.45065 v 0 c 0,-0.42333 0.3175,-0.74083 0.687916,-0.74083 0.185209,0 0.370417,0.0794 0.502709,0.21167 0.105833,0.13229 0.185208,0.3175 0.185208,0.52916 0,0.42334 -0.291042,0.74084 -0.687917,0.74084 -0.370416,0 -0.687916,-0.3175 -0.687916,-0.74084 z"
       class="gb_36"
       id="path333"
       style="display:block;fill:#ff0000;stroke-width:0.264583" />
    <path
       fill-rule="evenodd"
       d="m 60.470857,196.45065 v 0 c 0,-0.42333 0.3175,-0.74083 0.687917,-0.74083 0.185208,0 0.370417,0.0794 0.502708,0.21167 0.105834,0.13229 0.185209,0.3175 0.185209,0.52916 0,0.42334 -0.291042,0.74084 -0.687917,0.74084 -0.370417,0 -0.687917,-0.3175 -0.687917,-0.74084 z"
       class="gc_36"
       id="path334"
       style="display:block;fill:#f1c232;stroke-width:0.264583" />
    <path
       fill-rule="evenodd"
       d="m 58.539399,196.45065 v 0 c 0,-0.42333 0.3175,-0.74083 0.687917,-0.74083 0.185208,0 0.370416,0.0794 0.502708,0.21167 0.132292,0.13229 0.185208,0.3175 0.185208,0.52916 0,0.42334 -0.291041,0.74084 -0.687916,0.74084 -0.370417,0 -0.687917,-0.3175 -0.687917,-0.74084 z"
       class="gd_36"
       id="path335"
       style="display:block;fill:#38761d;stroke-width:0.264583" />
    <path
       fill-rule="evenodd"
       d="m 64.280857,238.88982 c 0,-1.71979 -0.211666,-7.48771 0,-10.21292 0.211667,-2.72521 0.529167,-4.47146 1.296459,-6.16479 0.740833,-1.71979 2.116666,-3.01625 3.175,-4.10104 1.084791,-1.05833 2.037291,-1.56104 3.307291,-2.35479 1.27,-0.76729 3.598333,-1.95792 4.339167,-2.35479 z"
       class="g1_36"
       id="path336"
       style="display:block;fill:#000000;fill-opacity:0;stroke-width:0.264583" />
    <path
       d="m 64.280857,238.88982 c 0,-1.71979 -0.211666,-7.48771 0,-10.21292 0.211667,-2.72521 0.529167,-4.47146 1.296459,-6.16479 0.740833,-1.71979 2.116666,-3.01625 3.175,-4.10104 0.291041,-0.26458 0.555625,-0.50271 0.79375,-0.71438 0.132291,-0.10583 0.264583,-0.1852 0.396875,-0.29104 0.02646,-0.0265 0.07937,-0.0529 0.105833,-0.0794 h 0.02646"
       class="gh_36"
       id="path337"
       style="display:block;fill:none;stroke:#f7981d;stroke-width:1.21259;stroke-linejoin:round" />
    <path
       fill-rule="evenodd"
       d="m 71.05419,219.04607 3.783542,-4.445 -5.767916,0.97896 z"
       class="gi_36"
       id="path338"
       style="display:block;fill:#f7981d;stroke:#f7981d;stroke-width:1.21259;stroke-miterlimit:10" />
    <path
       fill-rule="evenodd"
       d="m 51.554399,240.90065 0.02646,0.23813 0.3175,-0.0794 0.05292,-0.0265 0.05292,-0.0265 v -0.0529 l -0.02646,-0.0529 -0.02646,-0.0529 h -0.185208 z"
       class="g0_36"
       id="path339"
       style="display:block;fill:#ffffff;stroke-width:0.264583" />
    <path
       fill-rule="evenodd"
       d="m 54.358982,240.90065 -0.02646,0.23813 -0.291042,-0.0794 -0.07938,-0.0265 -0.02646,-0.0265 -0.02646,-0.0529 0.02646,-0.0529 0.02646,-0.0529 h 0.211667 z"
       class="g0_36"
       id="path340"
       style="display:block;fill:#ffffff;stroke-width:0.264583" />
    <path
       fill-rule="evenodd"
       d="m 62.111274,240.13336 v 0 c 0,-0.0265 0.02646,-0.0794 0.07937,-0.0794 h 0.291042 c 0.02646,0 0.05292,0.0264 0.05292,0.0264 0.02646,0.0265 0.02646,0.0529 0.02646,0.0529 v 1.24354 c 0,0.0265 -0.02646,0.0794 -0.07937,0.0794 h -0.291042 c -0.05292,0 -0.07937,-0.0529 -0.07937,-0.0794 z"
       class="gj_36"
       id="path341"
       style="display:block;fill:#000000;stroke-width:0.264583" />
    <path
       fill-rule="evenodd"
       d="m 66.159399,240.13336 v 0 c 0,-0.0265 0.02646,-0.0794 0.07937,-0.0794 h 0.291042 c 0.02646,0 0.05292,0.0264 0.05292,0.0264 0.02646,0.0265 0.02646,0.0529 0.02646,0.0529 v 1.24354 c 0,0.0265 -0.02646,0.0794 -0.07937,0.0794 h -0.291047 c -0.05292,0 -0.07937,-0.0529 -0.07937,-0.0794 z"
       class="gj_36"
       id="path342"
       style="display:block;fill:#000000;stroke-width:0.264583" />
    <path
       fill-rule="evenodd"
       d="m 62.111274,245.1869 v 0 c 0,-0.0529 0.02646,-0.0794 0.07937,-0.0794 h 0.291042 c 0.02646,0 0.05292,0 0.05292,0.0265 0.02646,0 0.02646,0.0265 0.02646,0.0529 v 1.21709 c 0,0.0529 -0.02646,0.0794 -0.07937,0.0794 h -0.291042 c -0.05292,0 -0.07937,-0.0265 -0.07937,-0.0794 z"
       class="gj_36"
       id="path343"
       style="display:block;fill:#000000;stroke-width:0.264583" />
    <path
       fill-rule="evenodd"
       d="m 66.159399,245.1869 v 0 c 0,-0.0529 0.02646,-0.0794 0.07937,-0.0794 h 0.291042 c 0.02646,0 0.05292,0 0.05292,0.0265 0.02646,0 0.02646,0.0265 0.02646,0.0529 v 1.21709 c 0,0.0529 -0.02646,0.0794 -0.07937,0.0794 h -0.291047 c -0.05292,0 -0.07937,-0.0265 -0.07937,-0.0794 z"
       class="gj_36"
       id="path344"
       style="display:block;fill:#000000;stroke-width:0.264583" />
    <path
       fill-rule="evenodd"
       d="m 62.270024,239.97461 v 0 c 0,-0.66146 0.529167,-1.16417 1.164167,-1.16417 h 1.905 c 0.3175,0 0.608541,0.10584 0.820208,0.3175 0.211667,0.23813 0.343958,0.52917 0.343958,0.84667 v 6.58813 c 0,0.635 -0.529166,1.16416 -1.164166,1.16416 h -1.905 c -0.635,0 -1.164167,-0.52916 -1.164167,-1.16416 z"
       class="gk_36"
       id="path345"
       style="display:block;fill:#3d85c6;stroke-width:0.264583" />
    <path
       fill-rule="evenodd"
       d="m 63.963357,238.73107 v 0 c 0,0 0.02646,-0.0265 0.05292,-0.0265 h 0.714375 q 0.02646,0 0.02646,0 0.02646,0.0265 0.02646,0.0265 v 0.13229 c 0,0.0265 -0.02646,0.0265 -0.05292,0.0265 h -0.714378 c -0.02646,0 -0.05292,0 -0.05292,-0.0265 z"
       class="gl_36"
       id="path346"
       style="display:block;fill:#efefef;stroke-width:0.264583" />
    <path
       fill-rule="evenodd"
       d="m 62.878566,239.1544 0.02646,0.26459 0.343958,-0.0794 0.05292,-0.0265 0.05292,-0.0529 v -0.0265 l -0.02646,-0.0794 -0.02646,-0.0265 -0.07937,-0.0265 h -0.132292 z"
       class="g0_36"
       id="path347"
       style="display:block;fill:#ffffff;stroke-width:0.264583" />
    <path
       fill-rule="evenodd"
       d="m 65.868357,239.1544 -0.02646,0.26459 -0.343958,-0.0794 -0.05292,-0.0265 -0.05292,-0.0529 v -0.0265 l 0.02646,-0.0794 0.02646,-0.0265 0.07937,-0.0265 h 0.132292 z"
       class="g0_36"
       id="path348"
       style="display:block;fill:#ffffff;stroke-width:0.264583" />
    <path
       fill-rule="evenodd"
       d="m 62.772732,241.61503 0.264584,0.89958 0.05292,0.0529 0.07937,0.0529 h 2.354792 l 0.07938,-0.0265 0.07937,-0.0794 0.264583,-0.76729 v -0.10583 l -0.05292,-0.0794 -0.3175,-0.10583 -0.47625,-0.10584 -0.396875,-0.0529 h -0.449792 l -0.264583,0.0265 h -0.211667 l -0.291042,0.0529 -0.238125,0.0529 -0.185208,0.0794 -0.211667,0.0529 z"
       class="gm_36"
       id="path349"
       style="display:block;fill:#9fc5e8;stroke-width:0.264583" />
    <path
       d="m 62.772732,241.61503 0.264584,0.89958 0.05292,0.0529 0.07937,0.0529 h 2.354792 l 0.07938,-0.0265 0.07937,-0.0794 0.264583,-0.76729 v -0.10583 l -0.05292,-0.0794 -0.3175,-0.10583 -0.47625,-0.10584 -0.396875,-0.0529 h -0.449792 l -0.264583,0.0265 h -0.211667 l -0.291042,0.0529 -0.238125,0.0529 -0.185208,0.0794 -0.211667,0.0529 z"
       class="gn_36"
       id="path350"
       style="display:block;fill:none;stroke:#073763;stroke-width:0.302948;stroke-linejoin:round" />
    <path
       fill-rule="evenodd"
       d="m 62.508149,241.93253 v 4.445 l 0.02646,0.0794 0.07937,0.0265 0.343959,-0.29104 0.105833,-0.18521 0.05292,-0.15875 -0.05292,-2.59292 -0.02646,-0.1852 -0.132292,-0.34396 -0.132292,-0.34396 z"
       class="gm_36"
       id="path351"
       style="display:block;fill:#9fc5e8;stroke-width:0.264583" />
    <path
       d="m 62.508149,241.93253 v 4.445 l 0.02646,0.0794 0.07937,0.0265 0.343959,-0.29104 0.105833,-0.18521 0.05292,-0.15875 -0.05292,-2.59292 -0.02646,-0.1852 -0.132292,-0.34396 -0.132292,-0.34396 z"
       class="gn_36"
       id="path352"
       style="display:block;fill:none;stroke:#073763;stroke-width:0.302948;stroke-linejoin:round" />
    <path
       fill-rule="evenodd"
       d="m 66.291691,241.98544 v 4.41855 l -0.02646,0.10583 -0.07937,0.0265 -0.343958,-0.3175 -0.105833,-0.15875 -0.05292,-0.15875 0.05292,-2.59292 0.02646,-0.18521 0.132292,-0.34396 0.132291,-0.34395 z"
       class="gm_36"
       id="path353"
       style="display:block;fill:#9fc5e8;stroke-width:0.264583" />
    <path
       d="m 66.291691,241.98544 v 4.41855 l -0.02646,0.10583 -0.07937,0.0265 -0.343958,-0.3175 -0.105833,-0.15875 -0.05292,-0.15875 0.05292,-2.59292 0.02646,-0.18521 0.132292,-0.34396 0.132291,-0.34395 z"
       class="gn_36"
       id="path354"
       style="display:block;fill:none;stroke:#073763;stroke-width:0.302948;stroke-linejoin:round" />
    <path
       fill-rule="evenodd"
       d="m 62.508149,241.87961 -0.07937,-0.0265 h -0.105833 l -0.105834,0.0265 -0.105833,0.0529 -0.105833,0.0529 v 0.1323 l 0.05292,0.0529 0.105834,0.0529 0.132291,0.0265 h 0.132292 l 0.07937,-0.0529 0.07938,-0.0794 0.02646,-0.0529 v -0.0794 l -0.05292,-0.0529 z"
       class="go_36"
       id="path355"
       style="display:block;fill:#0b5394;stroke-width:0.264583" />
    <path
       fill-rule="evenodd"
       d="m 66.238774,241.87961 0.07937,-0.0265 h 0.132292 l 0.07937,0.0265 0.132291,0.0529 0.07937,0.0529 0.02646,0.0794 v 0.0529 l -0.07937,0.0529 -0.07938,0.0529 -0.15875,0.0265 h -0.105834 l -0.105833,-0.0529 -0.05292,-0.0794 -0.02646,-0.0529 v -0.0794 l 0.02646,-0.0529 z"
       class="go_36"
       id="path356"
       style="display:block;fill:#0b5394;stroke-width:0.264583" />
    <path
       fill-rule="evenodd"
       d="m 63.963357,247.62107 v 0 c 0,-0.0265 0.02646,-0.0265 0.05292,-0.0265 h 0.714375 q 0.02646,0 0.02646,0 c 0.02646,0 0.02646,0.0265 0.02646,0.0265 v 0.13229 c 0,0 -0.02646,0.0265 -0.05292,0.0265 h -0.714378 c -0.02646,0 -0.05292,-0.0265 -0.05292,-0.0265 z"
       class="gl_36"
       id="path357"
       style="display:block;fill:#efefef;stroke-width:0.264583" />
    <path
       fill-rule="evenodd"
       d="m 62.878566,247.75336 0.02646,-0.26458 0.343958,0.0794 0.05292,0.0529 0.05292,0.0265 v 0.0529 l -0.02646,0.0529 -0.02646,0.0529 h -0.211667 z"
       class="go_36"
       id="path358"
       style="display:block;fill:#0b5394;stroke-width:0.264583" />
    <path
       fill-rule="evenodd"
       d="m 65.868357,247.75336 -0.02646,-0.26458 -0.343958,0.0794 -0.05292,0.0529 -0.05292,0.0265 v 0.0529 l 0.02646,0.0529 0.02646,0.0529 h 0.211667 z"
       class="go_36"
       id="path359"
       style="display:block;fill:#0b5394;stroke-width:0.264583" />
    <path
       fill-rule="evenodd"
       d="m 63.328357,246.29815 -0.07937,0.0265 -0.555625,0.47625 -0.05292,0.10583 v 0.0794 l 0.185208,0.13229 0.211667,0.0794 0.3175,0.0794 0.343958,0.0529 0.343958,0.0265 h 0.370417 l 0.396875,-0.0265 0.370417,-0.0265 0.423333,-0.0794 0.264583,-0.0794 0.211667,-0.15875 0.02646,-0.10583 -0.05292,-0.0794 -0.502709,-0.44979 -0.05292,-0.0265 -0.582084,-0.0265 h -1.11125 z"
       class="gm_36"
       id="path360"
       style="display:block;fill:#9fc5e8;stroke-width:0.264583" />
    <path
       d="m 63.328357,246.29815 -0.07937,0.0265 -0.555625,0.47625 -0.05292,0.10583 v 0.0794 l 0.185208,0.13229 0.211667,0.0794 0.3175,0.0794 0.343958,0.0529 0.343958,0.0265 h 0.370417 l 0.396875,-0.0265 0.370417,-0.0265 0.423333,-0.0794 0.264583,-0.0794 0.211667,-0.15875 0.02646,-0.10583 -0.05292,-0.0794 -0.502709,-0.44979 -0.05292,-0.0265 -0.582084,-0.0265 h -1.11125 z"
       class="gn_36"
       id="path361"
       style="display:block;fill:none;stroke:#073763;stroke-width:0.302948;stroke-linejoin:round" />
    <path
       fill-rule="evenodd"
       d="m 63.354816,239.18086 c 0.07937,0 0.343958,-0.0265 0.555625,-0.0529 0.185208,0 0.502708,0 0.687916,0 0.15875,0 0.264584,0.0265 0.396875,0.0265 0.132292,0.0265 0.3175,0.0265 0.370417,0.0529 z"
       class="g1_36"
       id="path362"
       style="display:block;fill:#000000;fill-opacity:0;stroke-width:0.264583" />
    <path
       d="m 63.354816,239.18086 c 0.07937,0 0.343958,-0.0265 0.555625,-0.0529 0.185208,0 0.502708,0 0.687916,0 0.15875,0 0.264584,0.0265 0.396875,0.0265 0.132292,0.0265 0.3175,0.0265 0.370417,0.0529"
       class="gn_36"
       id="path363"
       style="display:block;fill:none;stroke:#073763;stroke-width:0.302948;stroke-linejoin:round" />
    <path
       fill-rule="evenodd"
       d="m 62.719816,239.41899 c 0,0.0265 -0.05292,0.0265 -0.05292,0.0794 -0.02646,0.0794 -0.02646,0.15875 -0.05292,0.26458 -0.02646,0.1323 -0.07937,0.37042 -0.07937,0.52917 -0.02646,0.15875 -0.02646,0.29104 0,0.44979 0,0.13229 0,0.23813 0.05292,0.39688 0.02646,0.13229 0.105833,0.39687 0.132292,0.47625 z"
       class="g1_36"
       id="path364"
       style="display:block;fill:#000000;fill-opacity:0;stroke-width:0.264583" />
    <path
       d="m 62.719816,239.41899 c 0,0.0265 -0.05292,0.0265 -0.05292,0.0794 -0.02646,0.0794 -0.02646,0.15875 -0.05292,0.26458 -0.02646,0.1323 -0.07937,0.37042 -0.07937,0.52917 -0.02646,0.15875 -0.02646,0.29104 0,0.44979 0,0.13229 0,0.23813 0.05292,0.39688 0.02646,0.13229 0.105833,0.39687 0.132292,0.47625"
       class="gn_36"
       id="path365"
       style="display:block;fill:none;stroke:#073763;stroke-width:0.302948;stroke-linejoin:round" />
    <path
       fill-rule="evenodd"
       d="m 66.000649,239.39253 c 0,0.0265 0.05292,0.0794 0.05292,0.13229 0.02646,0.0529 0.02646,0.10583 0.05292,0.18521 0.02646,0.10583 0.05292,0.23812 0.07937,0.34396 0,0.13229 0.02646,0.26458 0.02646,0.39687 0,0.15875 -0.02646,0.34396 -0.02646,0.44979 0,0.10584 0.02646,0.0529 0,0.18521 -0.02646,0.10583 -0.132291,0.42333 -0.15875,0.50271 z"
       class="g1_36"
       id="path366"
       style="display:block;fill:#000000;fill-opacity:0;stroke-width:0.264583" />
    <path
       d="m 66.000649,239.39253 c 0,0.0265 0.05292,0.0794 0.05292,0.13229 0.02646,0.0529 0.02646,0.10583 0.05292,0.18521 0.02646,0.10583 0.05292,0.23812 0.07937,0.34396 0,0.13229 0.02646,0.26458 0.02646,0.39687 0,0.15875 -0.02646,0.34396 -0.02646,0.44979 0,0.10584 0.02646,0.0529 0,0.18521 -0.02646,0.10583 -0.132291,0.42333 -0.15875,0.50271"
       class="gn_36"
       id="path367"
       style="display:block;fill:none;stroke:#073763;stroke-width:0.302948;stroke-linejoin:round" />
    <path
       fill-rule="evenodd"
       d="m 64.783566,241.53565 -1.27,0.89959 h -0.15875 l -0.132292,-0.0265 -0.07937,-0.0265 -0.05292,-0.0794 -0.211666,-0.52916 0.02646,-0.0529 0.02646,-0.0265 0.3175,-0.10583 0.370417,-0.0529 0.370417,-0.0265 h 0.582083 z"
       class="gp_36"
       id="path368"
       style="display:block;fill:#cfe2f3;stroke-width:0.264583" />
  </g>
</svg>
