<?xml version="1.0" encoding="UTF-8" standalone="no"?>
<!-- Created with Inkscape (http://www.inkscape.org/) -->

<svg
   width="141.901mm"
   height="67.069mm"
   viewBox="0 0 141.901 67.069"
   version="1.1"
   id="svg1"
   inkscape:version="1.3.2 (1:1.3.2+202311252150+091e20ef0f)"
   sodipodi:docname="vm-01-15_2.svg"
   xmlns:inkscape="http://www.inkscape.org/namespaces/inkscape"
   xmlns:sodipodi="http://sodipodi.sourceforge.net/DTD/sodipodi-0.dtd"
   xmlns="http://www.w3.org/2000/svg"
   xmlns:svg="http://www.w3.org/2000/svg">
  <sodipodi:namedview
     id="namedview1"
     pagecolor="#ffffff"
     bordercolor="#000000"
     borderopacity="0.25"
     inkscape:showpageshadow="2"
     inkscape:pageopacity="0.0"
     inkscape:pagecheckerboard="0"
     inkscape:deskcolor="#d1d1d1"
     inkscape:document-units="mm"
     inkscape:zoom="1.7131103"
     inkscape:cx="598.61879"
     inkscape:cy="217.44076"
     inkscape:window-width="3840"
     inkscape:window-height="2123"
     inkscape:window-x="0"
     inkscape:window-y="0"
     inkscape:window-maximized="1"
     inkscape:current-layer="layer1" />
  <defs
     id="defs1">
    <clipPath
       id="c0_23">
      <path
         d="M 0,825 V 0 h 1100 v 825 z"
         id="path2" />
    </clipPath>
    <clipPath
       id="clipPath1">
      <path
         d="M 0,825 V 0 h 1100 v 825 z"
         id="path1" />
    </clipPath>
  </defs>
  <g
     inkscape:label="Layer 1"
     inkscape:groupmode="layer"
     id="layer1"
     transform="translate(53.445822,-91.016666)">
    <path
       fill-rule="evenodd"
       d="m -29.227958,98.052364 14.869583,14.525626 -11.43,12.35604 -1.799167,2.14313 -0.15875,2.11667 0.132292,24.97666 -21.669375,-0.0794 -0.07937,-28.36334 2.248958,-6.08541 2.037292,-5.90021 4.1275,-4.07458 z"
       class="g3_23"
       id="path91"
       style="display:block;fill:#38761d;stroke-width:0.264583" />
    <path
       fill-rule="evenodd"
       d="m -26.449833,100.53945 10.186458,10.10708 -11.641667,11.5623 -1.058333,1.11125 -0.846667,1.03187 -0.449791,0.82021 -0.502709,1.11125 -0.264583,1.24354 -0.238125,1.32292 v 1.16416 l 0.05292,1.42875 -0.07938,22.72771 h -14.313959 v -23.99771 l 0.07937,-2.06375 0.264584,-2.88395 0.529166,-2.30188 0.767292,-2.40771 1.11125,-2.16958 1.27,-2.19604 1.42875,-1.74625 1.164167,-1.34938 1.031875,-1.08479 0.9525,-0.97896 z"
       class="g4_23"
       id="path92"
       style="display:block;fill:#666666;stroke-width:0.264583" />
    <path
       d="m -26.449833,100.53945 10.186458,10.10708 -11.641667,11.5623 -1.058333,1.11125 -0.846667,1.03187 -0.449791,0.82021 -0.502709,1.11125 -0.264583,1.24354 -0.238125,1.32292 v 1.16416 l 0.05292,1.42875 -0.07938,22.72771 h -14.313959 v -23.99771 l 0.07937,-2.06375 0.264584,-2.88395 0.529166,-2.30188 0.767292,-2.40771 1.11125,-2.16958 1.27,-2.19604 1.42875,-1.74625 1.164167,-1.34938 1.031875,-1.08479 0.9525,-0.97896 z"
       class="g5_23"
       id="path93"
       style="display:block;fill:none;stroke:#666666;stroke-width:0.302948;stroke-linejoin:round" />
    <path
       fill-rule="evenodd"
       d="m -38.700042,129.22028 v 24.97667 z"
       class="g1_23"
       id="path94"
       style="display:block;fill:#000000;fill-opacity:0;stroke-width:0.264583" />
    <path
       d="m -38.700042,129.22028 v 24.97667"
       class="g6_23"
       id="path95"
       style="display:block;fill:none;stroke:#595959;stroke-width:0.302948;stroke-linejoin:round" />
    <path
       fill-rule="evenodd"
       d="m -16.263375,110.75237 0.926041,0.92604 -10.451041,10.45104 -0.978958,0.9525 -1.031875,1.00542 -0.47625,0.58208 -0.449792,0.71438 -0.502708,1.03187 -0.423334,1.11125 -0.185208,1.13771 -0.05292,0.9525 0.02646,1.11125 v 23.52146 h -1.375834 v -22.225 l 0.02646,-2.88396 0.238125,-1.98438 0.529166,-1.37583 0.291042,-0.66146 0.740833,-1.16416 0.899584,-0.9525 0.820208,-0.89959 1.084792,-1.00541 z"
       class="g7_23"
       id="path96"
       style="display:block;fill:#cdb164;stroke-width:0.264583" />
    <path
       fill-rule="evenodd"
       d="m -26.50275,100.59237 -1.084792,-1.084798 -9.763125,9.763128 -1.561041,1.64042 -0.978959,0.87312 -0.79375,0.79375 -0.846666,0.97896 -0.687917,0.89958 -1.164167,1.5875 -0.582083,0.9525 -0.502708,0.89959 -0.529167,1.29646 -0.555625,1.32291 -0.529167,1.56104 -0.423333,1.29646 -0.291042,1.64042 -0.211666,1.56104 -0.15875,1.56104 -0.05292,1.77271 v 24.39458 h 1.613958 v -21.08729 l 0.02646,-3.91583 0.05292,-2.11667 0.238125,-2.2225 0.502709,-1.95791 0.661458,-1.98438 1.190625,-2.59292 1.296458,-2.11666 1.217084,-1.61396 1.5875,-1.79917 1.322916,-1.40229 z"
       class="g7_23"
       id="path97"
       style="display:block;fill:#cdb164;stroke-width:0.264583" />
    <path
       fill-rule="evenodd"
       d="m -38.303167,113.53049 12.408959,-12.40896 z"
       class="g1_23"
       id="path98"
       style="display:block;fill:#000000;fill-opacity:0;stroke-width:0.264583" />
    <path
       d="m -38.303167,113.53049 12.408959,-12.40896"
       class="g6_23"
       id="path99"
       style="display:block;fill:none;stroke:#595959;stroke-width:0.302948;stroke-linejoin:round" />
    <path
       fill-rule="evenodd"
       d="m -38.88525,129.22028 h 0.343958 v 25.05605 h -0.343958 z"
       class="g0_23"
       id="path100"
       style="display:block;fill:#ffffff;stroke-width:0.264583" />
    <path
       fill-rule="evenodd"
       d="m -21.687334,105.32841 0.264584,0.23812 -12.3825,12.3825 -0.264583,-0.26458 z"
       class="g0_23"
       id="path101"
       style="display:block;fill:#ffffff;stroke-width:0.264583" />
    <path
       fill-rule="evenodd"
       d="m -34.069833,117.65799 0.264583,0.26459 -0.555625,0.60854 -0.661458,0.76729 -0.555625,0.71437 -0.423334,0.635 -0.423333,0.66146 -0.502708,0.9525 -0.47625,1.05834 -0.3175,0.92604 -0.238125,0.74083 -0.15875,0.635 -0.211667,1.05833 -0.07937,0.58209 -0.05292,0.635 -0.07937,0.82021 v 0.5027 h -0.343958 l 0.02646,-0.87312 0.105834,-1.03188 0.132291,-1.00541 0.238125,-1.13771 0.343959,-1.08479 0.449791,-1.21709 0.370417,-0.84666 0.582083,-1.11125 0.555625,-0.87313 0.846667,-1.11125 0.582083,-0.68791 z"
       class="g0_23"
       id="path102"
       style="display:block;fill:#ffffff;stroke-width:0.264583" />
    <path
       fill-rule="evenodd"
       d="M -32.429417,129.22028 H -32.059 v 25.05605 h -0.370417 z"
       class="g0_23"
       id="path103"
       style="display:block;fill:#ffffff;stroke-width:0.264583" />
    <path
       fill-rule="evenodd"
       d="m -44.970667,129.22028 h 0.370417 v 25.05605 h -0.370417 z"
       class="g0_23"
       id="path104"
       style="display:block;fill:#ffffff;stroke-width:0.264583" />
    <path
       fill-rule="evenodd"
       d="m -17.110042,109.82633 0.264583,0.26458 -12.382499,12.3825 -0.264584,-0.26458 z"
       class="g0_23"
       id="path105"
       style="display:block;fill:#ffffff;stroke-width:0.264583" />
    <path
       fill-rule="evenodd"
       d="m -26.0265,101.0157 0.264583,0.23813 -12.3825,12.3825 -0.264583,-0.26459 z"
       class="g0_23"
       id="path106"
       style="display:block;fill:#ffffff;stroke-width:0.264583" />
    <path
       fill-rule="evenodd"
       d="m -29.466083,122.20883 0.238125,0.23812 -0.3175,0.3175 -0.343959,0.37042 -0.3175,0.39687 -0.3175,0.47625 -0.343958,0.66146 -0.3175,0.60854 -0.211667,0.55563 -0.264583,0.74083 -0.132292,0.58208 -0.132291,0.60855 -0.105834,0.5027 v 0.58209 l -0.02646,0.37041 h -0.370417 l 0.02646,-0.8202 0.07937,-0.68792 0.15875,-0.68792 0.15875,-0.66146 0.264583,-0.79375 0.3175,-0.71437 0.449792,-0.84667 0.423333,-0.68791 0.502708,-0.635 z"
       class="g0_23"
       id="path107"
       style="display:block;fill:#ffffff;stroke-width:0.264583" />
    <path
       fill-rule="evenodd"
       d="m -38.356083,113.34528 0.264583,0.26459 -0.343958,0.34396 -0.635,0.60854 -0.555625,0.66146 -0.687917,0.87312 -0.740833,1.03188 -0.635,1.1377 -0.635,1.21709 -0.582084,1.27 -0.529166,1.48166 -0.370417,1.16417 -0.3175,1.16417 -0.3175,1.56104 -0.07937,1.21708 -0.07937,0.87313 -0.02646,0.74083 0.02646,0.50271 h -0.396875 l 0.02646,-1.37583 0.105834,-1.45521 0.185208,-1.34938 0.423333,-1.85208 0.396875,-1.27 0.47625,-1.48167 0.635,-1.40229 0.767292,-1.42875 0.740833,-1.24354 0.899584,-1.24354 0.740833,-0.82021 0.820208,-0.82021 z"
       class="g0_23"
       id="path108"
       style="display:block;fill:#ffffff;stroke-width:0.264583" />
    <path
       fill-rule="evenodd"
       d="m -26.529208,100.40716 0.635,0.635 -13.308542,13.41437 -1.508125,1.66688 -1.693333,3.14854 -0.767292,1.79917 -0.714375,1.87854 -0.661458,2.69875 -0.02646,0.97896 -0.238125,1.77271 v 25.92916 l -0.79375,-0.0265 0.05292,-24.42104 0.132292,-3.94229 0.9525,-4.04812 1.084791,-2.40771 1.243542,-2.27542 0.926042,-1.48167 1.825625,-2.14312 z"
       class="g9_23"
       id="path109"
       style="display:block;fill:#f4cccc;fill-opacity:0.43;stroke-width:0.264583" />
    <path
       d="m -26.529208,100.40716 0.635,0.635 -13.308542,13.41437 -1.508125,1.66688 -1.693333,3.14854 -0.767292,1.79917 -0.714375,1.87854 -0.661458,2.69875 -0.02646,0.97896 -0.238125,1.77271 v 25.92916 l -0.79375,-0.0265 0.05292,-24.42104 0.132292,-3.94229 0.9525,-4.04812 1.084791,-2.40771 1.243542,-2.27542 0.926042,-1.48167 1.825625,-2.14312 z"
       class="ga_23"
       id="path110"
       style="display:block;fill:none;stroke:#ff0000;stroke-width:0.302948;stroke-linejoin:round" />
    <path
       fill-rule="evenodd"
       d="m -16.924834,109.87924 0.79375,0.79375 -12.461874,12.25021 -1.534584,2.16958 -0.687916,1.56105 -0.3175,1.48166 -0.264584,1.77271 0.185209,24.42104 h -1.084792 v -25.61166 l 0.396875,-1.87855 0.635,-1.93145 0.79375,-1.34938 1.084792,-1.27 z"
       class="g9_23"
       id="path111"
       style="display:block;fill:#f4cccc;fill-opacity:0.43;stroke-width:0.264583" />
    <path
       d="m -16.924834,109.87924 0.79375,0.79375 -12.461874,12.25021 -1.534584,2.16958 -0.687916,1.56105 -0.3175,1.48166 -0.264584,1.77271 0.185209,24.42104 h -1.084792 v -25.61166 l 0.396875,-1.87855 0.635,-1.93145 0.79375,-1.34938 1.084792,-1.27 z"
       class="ga_23"
       id="path112"
       style="display:block;fill:none;stroke:#ff0000;stroke-width:0.302948;stroke-linejoin:round" />
    <path
       fill-rule="evenodd"
       d="M -9.7281674,91.411322 H 49.988291 V 114.43008 H -9.7281674 Z"
       class="g1_23"
       id="path113"
       style="display:block;fill:#000000;fill-opacity:0;stroke-width:0.264583" />
    <g
       clip-path="url(#c0_23)"
       id="g115"
       style="display:block"
       transform="matrix(0.26458333,0,0,0.26458333,-195.49212,25.926948)">
      <text
         x="712.5"
         y="275.39999"
         class="s9_23"
         id="text113"
         style="font-size:18.33px;font-family:ArialMT_bl;white-space:pre;fill:#000000">lanelet </text>
      <text
         x="722.59998"
         y="297.39999"
         class="s9_23"
         id="text114"
         style="font-size:18.33px;font-family:ArialMT_bl;white-space:pre;fill:#000000">subtype: road_shoulder </text>
      <text
         x="721.79999"
         y="317.89999"
         class="sa_23"
         id="text115"
         style="font-size:16.81px;font-family:ArialMT_bl;white-space:pre;fill:#000000">tag: oneway = yes </text>
    </g>
    <path
       fill-rule="evenodd"
       d="m -8.0348344,99.85153 -19.5527076,3.25438 z"
       class="g1_23"
       id="path115"
       style="display:block;fill:#000000;fill-opacity:0;stroke-width:0.264583" />
    <path
       d="m -8.0348344,99.85153 -17.7535406,2.93688"
       class="g2_23"
       id="path116"
       style="display:block;fill:none;stroke:#000000;stroke-width:0.302948;stroke-linejoin:round" />
    <path
       fill-rule="evenodd"
       d="m -25.86775,102.31216 -1.296458,0.71437 1.455208,0.26459 z"
       class="g8_23"
       id="path117"
       style="display:block;fill:#000000;stroke:#000000;stroke-width:0.302948;stroke-miterlimit:10" />
    <path
       fill-rule="evenodd"
       d="m -6.7912924,102.02112 -11.1124996,9.68375 z"
       class="g1_23"
       id="path118"
       style="display:block;fill:#000000;fill-opacity:0;stroke-width:0.264583" />
    <path
       d="m -6.7912924,102.02112 -9.7366666,8.49312"
       class="g2_23"
       id="path119"
       style="display:block;fill:none;stroke:#000000;stroke-width:0.302948;stroke-linejoin:round" />
    <path
       fill-rule="evenodd"
       d="m -16.845459,110.14383 -0.714375,1.27 1.349375,-0.52917 z"
       class="g8_23"
       id="path120"
       style="display:block;fill:#000000;stroke:#000000;stroke-width:0.302948;stroke-miterlimit:10" />
    <path
       fill-rule="evenodd"
       d="m 11.306207,123.84924 h 37.359167 v 28.78667 H 11.306207 Z"
       class="g1_23"
       id="path149"
       style="display:block;fill:#000000;fill-opacity:0;stroke-width:0.264583" />
    <path
       d="m 11.306207,123.84924 h 37.359167 v 28.78667 H 11.306207 Z"
       class="g2_23"
       id="path150"
       style="display:block;fill:none;stroke:#000000;stroke-width:0.302948;stroke-linejoin:round" />
    <path
       fill-rule="evenodd"
       d="M 12.364541,125.06633 H 28.689333 V 151.4982 H 12.364541 Z"
       class="g4_23"
       id="path151"
       style="display:block;fill:#666666;stroke-width:0.264583" />
    <path
       fill-rule="evenodd"
       d="m 28.689333,125.06633 h 9.048749 v 26.43187 h -9.048749 z"
       class="g7_23"
       id="path152"
       style="display:block;fill:#cdb164;stroke-width:0.264583" />
    <path
       fill-rule="evenodd"
       d="m 37.738082,125.06633 h 9.577917 v 26.43187 h -9.577917 z"
       class="g3_23"
       id="path153"
       style="display:block;fill:#38761d;stroke-width:0.264583" />
    <path
       fill-rule="evenodd"
       d="m 20.487249,125.01341 h 2.38125 v 26.45833 h -2.38125 z"
       class="g0_23"
       id="path154"
       style="display:block;fill:#ffffff;stroke-width:0.264583" />
    <path
       fill-rule="evenodd"
       d="m -35.048792,143.98403 h 7.46125 v 5.55625 h -7.46125 z"
       class="g1_23"
       id="path155"
       style="display:block;fill:#000000;fill-opacity:0;stroke-width:0.264583" />
    <path
       d="m -35.048792,143.98403 h 7.46125 v 5.55625 h -7.46125 z"
       class="g2_23"
       id="path156"
       style="display:block;fill:none;stroke:#000000;stroke-width:0.302948;stroke-linejoin:round" />
    <path
       fill-rule="evenodd"
       d="M 11.306207,123.8757 -34.9165,143.98403 Z"
       class="g1_23"
       id="path157"
       style="display:block;fill:#000000;fill-opacity:0;stroke-width:0.264583" />
    <path
       d="M 11.306207,123.8757 -34.9165,143.98403"
       class="g2_23"
       id="path158"
       style="display:block;fill:none;stroke:#000000;stroke-width:0.302948;stroke-linejoin:round" />
    <path
       fill-rule="evenodd"
       d="m 11.332666,152.63591 -46.381458,-3.09563 z"
       class="g1_23"
       id="path159"
       style="display:block;fill:#000000;fill-opacity:0;stroke-width:0.264583" />
    <path
       d="m 11.332666,152.63591 -46.381458,-3.09563"
       class="g2_23"
       id="path160"
       style="display:block;fill:none;stroke:#000000;stroke-width:0.302948;stroke-linejoin:round" />
    <path
       fill-rule="evenodd"
       d="m 11.359124,134.14153 -38.999582,9.86896 z"
       class="g1_23"
       id="path161"
       style="display:block;fill:#000000;fill-opacity:0;stroke-width:0.264583" />
    <path
       d="m 11.359124,134.14153 -38.999582,9.86896"
       class="g2_23"
       id="path162"
       style="display:block;fill:none;stroke:#000000;stroke-width:0.302948;stroke-linejoin:round" />
    <path
       fill-rule="evenodd"
       d="M 11.412041,151.07487 -27.614,149.43445 Z"
       class="g1_23"
       id="path163"
       style="display:block;fill:#000000;fill-opacity:0;stroke-width:0.264583" />
    <path
       d="M 11.412041,151.07487 -27.614,149.43445"
       class="g2_23"
       id="path164"
       style="display:block;fill:none;stroke:#000000;stroke-width:0.302948;stroke-linejoin:round" />
    <path
       fill-rule="evenodd"
       d="m 21.624958,125.09278 h 7.011458 v 26.4848 h -7.011458 z"
       class="g9_23"
       id="path165"
       style="display:block;fill:#f4cccc;fill-opacity:0.43;stroke-width:0.264583" />
    <path
       d="m 21.624958,125.09278 h 7.011458 v 26.4848 h -7.011458 z"
       class="ga_23"
       id="path166"
       style="display:block;fill:none;stroke:#ff0000;stroke-width:0.302948;stroke-linejoin:round" />
    <path
       fill-rule="evenodd"
       d="m 21.280999,111.75778 2.963334,15.84855 z"
       class="g1_23"
       id="path167"
       style="display:block;fill:#000000;fill-opacity:0;stroke-width:0.264583" />
    <path
       d="m 21.280999,111.75778 2.645834,14.04938"
       class="g2_23"
       id="path168"
       style="display:block;fill:none;stroke:#000000;stroke-width:0.302948;stroke-linejoin:round" />
    <path
       fill-rule="evenodd"
       d="m 23.424124,125.91299 0.740834,1.24354 0.238125,-1.42875 z"
       class="g8_23"
       id="path169"
       style="display:block;fill:#000000;stroke:#000000;stroke-width:0.302948;stroke-miterlimit:10" />
    <path
       fill-rule="evenodd"
       d="m 28.583499,124.85466 v 26.90812 z"
       class="g1_23"
       id="path170"
       style="display:block;fill:#000000;fill-opacity:0;stroke-width:0.264583" />
    <path
       d="m 28.583499,124.85466 v 26.90812"
       class="gb_23"
       id="path171"
       style="display:block;fill:none;stroke:#0000ff;stroke-width:0.909373;stroke-linejoin:round" />
    <path
       fill-rule="evenodd"
       d="m 43.135582,117.47278 -13.864166,9.55146 z"
       class="g1_23"
       id="path172"
       style="display:block;fill:#000000;fill-opacity:0;stroke-width:0.264583" />
    <path
       d="m 43.135582,117.47278 -12.3825,8.51959"
       class="g2_23"
       id="path173"
       style="display:block;fill:none;stroke:#000000;stroke-width:0.302948;stroke-linejoin:round" />
    <path
       fill-rule="evenodd"
       d="m 30.488499,125.59549 -0.846667,1.19063 1.402292,-0.37042 z"
       class="g8_23"
       id="path174"
       style="display:block;fill:#000000;stroke:#000000;stroke-width:0.302948;stroke-miterlimit:10" />
    <path
       fill-rule="evenodd"
       d="m 41.627457,109.40299 h 46.910625 v 13.73188 H 41.627457 Z"
       class="g1_23"
       id="path175"
       style="display:block;fill:#000000;fill-opacity:0;stroke-width:0.264583" />
    <g
       clip-path="url(#c0_23)"
       id="g177"
       transform="matrix(0.26458333,0,0,0.26458333,-196.0762,26.123974)"
       style="display:block">
      <text
         x="906.5"
         y="337.60001"
         class="sc_23"
         id="text175"
         style="font-size:12.22px;font-family:MS-PGothic_bp;white-space:pre;fill:#000000"> </text>
      <text
         x="900.8269"
         y="321.42804"
         class="sd_23"
         id="text176"
         style="font-size:12.22px;font-family:ArialMT_bl;white-space:pre;fill:#000000"><tspan
           sodipodi:role="line"
           id="tspan178"
           x="900.8269"
           y="321.42804">Linestring between road</tspan><tspan
           sodipodi:role="line"
           id="tspan179"
           x="900.8269"
           y="336.70303">shoulder and sidewalk</tspan></text>
      <text
         x="913.20001"
         y="352.20001"
         class="sd_23"
         id="text177"
         style="font-size:12.22px;font-family:ArialMT_bl;white-space:pre;fill:#000000">subtype: road_border </text>
    </g>
  </g>
</svg>
