<?xml version="1.0" encoding="UTF-8" standalone="no"?>
<!-- Created with Inkscape (http://www.inkscape.org/) -->

<svg
   width="80.995003mm"
   height="69.307999mm"
   viewBox="0 0 80.995002 69.307998"
   version="1.1"
   id="svg1"
   inkscape:version="1.3.2 (1:1.3.2+202311252150+091e20ef0f)"
   sodipodi:docname="vm-07-01_2.svg"
   xmlns:inkscape="http://www.inkscape.org/namespaces/inkscape"
   xmlns:sodipodi="http://sodipodi.sourceforge.net/DTD/sodipodi-0.dtd"
   xmlns="http://www.w3.org/2000/svg"
   xmlns:svg="http://www.w3.org/2000/svg">
  <sodipodi:namedview
     id="namedview1"
     pagecolor="#ffffff"
     bordercolor="#000000"
     borderopacity="0.25"
     inkscape:showpageshadow="2"
     inkscape:pageopacity="0.0"
     inkscape:pagecheckerboard="0"
     inkscape:deskcolor="#d1d1d1"
     inkscape:document-units="mm"
     inkscape:zoom="1.7131103"
     inkscape:cx="246.91931"
     inkscape:cy="68.004963"
     inkscape:window-width="3840"
     inkscape:window-height="2123"
     inkscape:window-x="0"
     inkscape:window-y="0"
     inkscape:window-maximized="1"
     inkscape:current-layer="layer1" />
  <defs
     id="defs1" />
  <g
     inkscape:label="Layer 1"
     inkscape:groupmode="layer"
     id="layer1"
     transform="translate(-39.687497,-130.43958)">
    <path
       fill-rule="evenodd"
       d="m 78.075276,153.31868 v -19.18229 h 5.87375 v 19.18229 z"
       class="g5_67"
       id="path44"
       style="display:block;fill:#666666;stroke-width:0.264583" />
    <path
       d="m 78.075276,153.31868 v -19.18229 h 5.87375 v 19.18229 z"
       class="g6_67"
       id="path45"
       style="display:block;fill:none;stroke:#666666;stroke-width:0.302948;stroke-linejoin:round" />
    <path
       fill-rule="evenodd"
       d="m 99.189026,158.95431 h 19.182294 v 5.87375 H 99.189026 Z"
       class="g5_67"
       id="path46"
       style="display:block;fill:#666666;stroke-width:0.264583" />
    <path
       d="m 99.189026,158.95431 h 19.182294 v 5.87375 H 99.189026 Z"
       class="g6_67"
       id="path47"
       style="display:block;fill:none;stroke:#666666;stroke-width:0.302948;stroke-linejoin:round" />
    <path
       fill-rule="evenodd"
       d="m 43.679443,158.95431 h 19.182291 v 5.87375 H 43.679443 Z"
       class="g5_67"
       id="path48"
       style="display:block;fill:#666666;stroke-width:0.264583" />
    <path
       d="m 43.679443,158.95431 h 19.182291 v 5.87375 H 43.679443 Z"
       class="g6_67"
       id="path49"
       style="display:block;fill:none;stroke:#666666;stroke-width:0.302948;stroke-linejoin:round" />
    <path
       fill-rule="evenodd"
       d="m 60.348193,158.95431 h 17.727083 v -17.72708 h 5.900208 v 17.72708 h 17.700626 v 5.90021 H 83.975484 v 17.70062 H 78.075276 V 164.85452 H 60.348193 Z"
       class="g5_67"
       id="path50"
       style="display:block;fill:#666666;stroke-width:0.264583" />
    <path
       d="m 60.348193,158.95431 h 17.727083 v -17.72708 h 5.900208 v 17.72708 h 17.700626 v 5.90021 H 83.975484 v 17.70062 H 78.075276 V 164.85452 H 60.348193 Z"
       class="g6_67"
       id="path51"
       style="display:block;fill:none;stroke:#666666;stroke-width:0.302948;stroke-linejoin:round" />
    <path
       fill-rule="evenodd"
       d="m 76.302568,159.00723 h 1.825625 v -1.79917 h 5.767916 v 1.79917 h 1.799167 v 5.76791 h -1.799167 v 1.82563 h -5.767916 v -1.82563 h -1.825625 z"
       class="g5_67"
       id="path52"
       style="display:block;fill:#666666;stroke-width:0.264583" />
    <path
       d="m 76.302568,159.00723 h 1.825625 v -1.79917 h 5.767916 v 1.79917 h 1.799167 v 5.76791 h -1.799167 v 1.82563 h -5.767916 v -1.82563 h -1.825625 z"
       class="g6_67"
       id="path53"
       style="display:block;fill:none;stroke:#666666;stroke-width:0.302948;stroke-linejoin:round" />
    <path
       fill-rule="evenodd"
       d="M 43.679443,161.89118 H 118.37132 Z"
       class="g1_67"
       id="path54"
       style="display:block;fill:#000000;fill-opacity:0;stroke-width:0.264583" />
    <path
       d="M 43.679443,161.89118 H 118.37132"
       class="g7_67"
       id="path55"
       style="display:block;fill:none;stroke:#ffffff;stroke-width:0.60616;stroke-linejoin:round;stroke-dasharray:2.64583, 1.85208" />
    <path
       fill-rule="evenodd"
       d="m 81.012151,156.83764 3.201458,0.0265 z"
       class="g1_67"
       id="path56"
       style="display:block;fill:#000000;fill-opacity:0;stroke-width:0.264583" />
    <path
       d="m 81.012151,156.83764 3.201458,0.0265"
       class="g8_67"
       id="path57"
       style="display:block;fill:none;stroke:#f3f3f3;stroke-width:0.60616;stroke-linejoin:round" />
    <path
       fill-rule="evenodd"
       d="m 77.810693,166.94473 h 3.201458 z"
       class="g1_67"
       id="path58"
       style="display:block;fill:#000000;fill-opacity:0;stroke-width:0.264583" />
    <path
       d="m 77.810693,166.94473 h 3.201458"
       class="g8_67"
       id="path59"
       style="display:block;fill:none;stroke:#f3f3f3;stroke-width:0.60616;stroke-linejoin:round" />
    <path
       fill-rule="evenodd"
       d="m 78.207568,182.63452 v -14.86959 c 0,-4.78895 3.889375,-8.67833 8.678333,-8.67833 h 31.485419 v 2.51354 H 86.885901 c -3.386667,0 -6.164792,2.75167 -6.164792,6.16479 v 14.86959 z"
       class="g9_67"
       id="path60"
       style="display:block;fill:#ea9999;fill-opacity:0.37;stroke-width:0.264583" />
    <path
       fill-rule="evenodd"
       d="m 80.191943,164.61639 c 0.15875,-0.3175 0.555625,-1.27 1.005416,-1.79916 0.47625,-0.50271 1.11125,-0.89959 1.772709,-1.27 0.687916,-0.37042 1.561041,-0.7673 2.301875,-0.9525 0.714375,-0.18521 0.714375,-0.15875 2.090208,-0.18521 1.375833,-0.0265 5.185833,0 6.217708,0 z"
       class="g1_67"
       id="path61"
       style="display:block;fill:#000000;fill-opacity:0;stroke-width:0.264583" />
    <path
       d="m 80.191943,164.61639 c 0.15875,-0.3175 0.555625,-1.27 1.005416,-1.79916 0.47625,-0.50271 1.11125,-0.89959 1.772709,-1.27 0.687916,-0.37042 1.561041,-0.7673 2.301875,-0.9525 0.714375,-0.18521 0.714375,-0.15875 2.090208,-0.18521 0.343958,0 0.846666,0 1.402291,0 0.291042,0 0.608542,0 0.899584,0 h 0.291041"
       class="ga_67"
       id="path62"
       style="display:block;fill:none;stroke:#ff9900;stroke-width:0.60616;stroke-linejoin:round" />
    <path
       fill-rule="evenodd"
       d="m 89.955067,161.38848 2.751667,-0.97896 -2.751667,-1.00542 z"
       class="gb_67"
       id="path63"
       style="display:block;fill:#ff9900;stroke:#ff9900;stroke-width:0.60616;stroke-miterlimit:10" />
    <path
       fill-rule="evenodd"
       d="m 50.664443,168.53223 v 0 c 0,-15.875 12.85875,-28.76021 28.760208,-28.76021 7.62,0 14.9225,3.04271 20.32,8.41375 5.397499,5.3975 8.440209,12.72646 8.440209,20.34646 0,15.875 -12.885209,28.7602 -28.760209,28.7602 -15.901458,0 -28.760208,-12.8852 -28.760208,-28.7602 z"
       class="gc_67"
       id="path64"
       style="display:block;fill:#a4c2f4;fill-opacity:0.36;stroke-width:0.264583" />
    <path
       fill-rule="evenodd"
       d="m 78.498609,166.68014 v 0 c 0,-0.0265 0.02646,-0.0265 0.05292,-0.0265 h 0.15875 c 0.02646,0 0.02646,0.0265 0.02646,0.0265 0.02646,0 0.02646,0.0265 0.02646,0.0265 l -0.07937,0.68792 c 0,0.0265 -0.02646,0.0265 -0.02646,0.0265 h -0.185208 c -0.02646,0 -0.02646,-0.0265 -0.02646,-0.0529 z"
       class="gf_67"
       id="path125"
       style="display:block;fill:#000000;stroke-width:0.264583" />
    <path
       fill-rule="evenodd"
       d="m 80.747568,166.89181 v 0 c 0,-0.0265 0.02646,-0.0529 0.05292,-0.0529 l 0.15875,0.0265 q 0.02646,0 0.02646,0.0265 c 0,0 0.02646,0 0.02646,0.0265 l -0.07937,0.68791 c 0,0 -0.02646,0.0265 -0.02646,0.0265 l -0.185209,-0.0265 q -0.02646,0 -0.02646,-0.0265 z"
       class="gf_67"
       id="path126"
       style="display:block;fill:#000000;stroke-width:0.264583" />
    <path
       fill-rule="evenodd"
       d="m 78.260484,169.48473 v 0 c 0,-0.0265 0.02646,-0.0265 0.02646,-0.0265 h 0.185208 c 0,0 0.02646,0.0265 0.02646,0.0265 0,0 0,0.0264 0,0.0264 l -0.05292,0.68792 c 0,0.0265 -0.02646,0.0265 -0.05292,0.0265 h -0.15875 c -0.02646,0 -0.05292,-0.0265 -0.05292,-0.0529 z"
       class="gf_67"
       id="path127"
       style="display:block;fill:#000000;stroke-width:0.264583" />
    <path
       fill-rule="evenodd"
       d="m 80.509443,169.69639 v 0 c 0,-0.0265 0,-0.0529 0.02646,-0.0529 l 0.185208,0.0265 c 0,0 0.02646,0 0.02646,0 q 0,0.0265 0,0.0529 l -0.05292,0.66146 c 0,0.0265 -0.02646,0.0529 -0.05292,0.0529 l -0.15875,-0.0265 c -0.02646,0 -0.05292,-0.0265 -0.05292,-0.0265 z"
       class="gf_67"
       id="path128"
       style="display:block;fill:#000000;stroke-width:0.264583" />
    <path
       fill-rule="evenodd"
       d="m 78.604443,166.60077 v 0 c 0.02646,-0.37042 0.343958,-0.635 0.687916,-0.58209 l 1.058334,0.0794 c 0.185208,0.0265 0.343958,0.10583 0.449791,0.23812 0.105834,0.1323 0.15875,0.29105 0.15875,0.47625 l -0.343958,3.65125 c -0.02646,0.37042 -0.343958,0.635 -0.687917,0.60855 l -1.058333,-0.10584 c -0.370417,-0.0265 -0.635,-0.34396 -0.608542,-0.71437 z"
       class="gg_67"
       id="path129"
       style="display:block;fill:#3d85c6;stroke-width:0.264583" />
    <path
       fill-rule="evenodd"
       d="m 79.609859,165.99223 v 0 h 0.02646 l 0.396875,0.0265 h 0.02646 c 0,0 0,0.0265 0,0.0265 l -0.02646,0.0529 q 0,0.0265 0,0.0265 l -0.423334,-0.0265 c 0,0 0,-0.0265 0,-0.0265 z"
       class="gh_67"
       id="path130"
       style="display:block;fill:#efefef;stroke-width:0.264583" />
    <path
       fill-rule="evenodd"
       d="m 78.974859,166.17743 v 0.15875 l 0.185209,-0.0265 0.05292,-0.0265 0.02646,-0.0265 v -0.0529 l -0.02646,-0.0265 h -0.105833 z"
       class="g0_67"
       id="path131"
       style="display:block;fill:#ffffff;stroke-width:0.264583" />
    <path
       fill-rule="evenodd"
       d="m 80.641734,166.33618 -0.02646,0.1323 -0.185208,-0.0529 -0.05292,-0.0265 v -0.0794 l 0.02646,-0.0265 h 0.105834 z"
       class="g0_67"
       id="path132"
       style="display:block;fill:#ffffff;stroke-width:0.264583" />
    <path
       fill-rule="evenodd"
       d="m 78.789651,167.55327 0.105833,0.50271 0.02646,0.0265 0.05292,0.0265 1.296459,0.13229 0.05292,-0.0265 0.02646,-0.0265 0.211666,-0.42334 v -0.0529 l -0.02646,-0.0529 -0.185208,-0.0794 -0.238125,-0.0794 -0.238125,-0.0265 -0.238125,-0.0265 h -0.423334 l -0.132291,0.0265 -0.132292,0.0265 -0.105833,0.0265 z"
       class="gi_67"
       id="path133"
       style="display:block;fill:#9fc5e8;stroke-width:0.264583" />
    <path
       d="m 78.789651,167.55327 0.105833,0.50271 0.02646,0.0265 0.05292,0.0265 1.296459,0.13229 0.05292,-0.0265 0.02646,-0.0265 0.211666,-0.42334 v -0.0529 l -0.02646,-0.0529 -0.185208,-0.0794 -0.238125,-0.0794 -0.238125,-0.0265 -0.238125,-0.0265 h -0.423334 l -0.132291,0.0265 -0.132292,0.0265 -0.105833,0.0265 z"
       class="gj_67"
       id="path134"
       style="display:block;fill:none;stroke:#073763;stroke-width:0.302948;stroke-linejoin:round" />
    <path
       fill-rule="evenodd"
       d="m 78.630901,167.71202 -0.211667,2.46062 v 0.0529 l 0.05292,0.0265 0.185208,-0.15875 0.07937,-0.10584 0.02646,-0.0794 0.105833,-1.42875 v -0.13229 l -0.05292,-0.18521 -0.05292,-0.18521 z"
       class="gi_67"
       id="path135"
       style="display:block;fill:#9fc5e8;stroke-width:0.264583" />
    <path
       d="m 78.630901,167.71202 -0.211667,2.46062 v 0.0529 l 0.05292,0.0265 0.185208,-0.15875 0.07937,-0.10584 0.02646,-0.0794 0.105833,-1.42875 v -0.13229 l -0.05292,-0.18521 -0.05292,-0.18521 z"
       class="gj_67"
       id="path136"
       style="display:block;fill:none;stroke:#073763;stroke-width:0.302948;stroke-linejoin:round" />
    <path
       fill-rule="evenodd"
       d="m 80.721109,167.92368 -0.211666,2.46063 -0.02646,0.0529 h -0.02646 l -0.185208,-0.18521 -0.05292,-0.10584 v -0.0794 l 0.132292,-1.42875 0.05292,-0.10583 0.07937,-0.18521 0.07937,-0.18521 z"
       class="gi_67"
       id="path137"
       style="display:block;fill:#9fc5e8;stroke-width:0.264583" />
    <path
       d="m 80.721109,167.92368 -0.211666,2.46063 -0.02646,0.0529 h -0.02646 l -0.185208,-0.18521 -0.05292,-0.10584 v -0.0794 l 0.132292,-1.42875 0.05292,-0.10583 0.07937,-0.18521 0.07937,-0.18521 z"
       class="gj_67"
       id="path138"
       style="display:block;fill:none;stroke:#073763;stroke-width:0.302948;stroke-linejoin:round" />
    <path
       fill-rule="evenodd"
       d="m 78.630901,167.68556 -0.05292,-0.0265 h -0.105833 l -0.07937,0.0265 -0.02646,0.0265 -0.02646,0.0265 v 0.0529 l 0.02646,0.0265 0.05292,0.0265 0.07937,0.0265 h 0.07937 l 0.05292,-0.0265 0.02646,-0.0265 0.02646,-0.0265 v -0.0529 l -0.02646,-0.0265 z"
       class="gk_67"
       id="path139"
       style="display:block;fill:#0b5394;stroke-width:0.264583" />
    <path
       fill-rule="evenodd"
       d="m 80.721109,167.87077 0.02646,-0.0265 0.07937,0.0265 h 0.05292 l 0.05292,0.0265 0.05292,0.0529 v 0.0794 l -0.02646,0.0265 -0.05292,0.0265 h -0.15875 l -0.05292,-0.0529 -0.02646,-0.0265 -0.02646,-0.0529 0.02646,-0.0265 v -0.0265 z"
       class="gk_67"
       id="path140"
       style="display:block;fill:#0b5394;stroke-width:0.264583" />
    <path
       fill-rule="evenodd"
       d="m 79.160068,170.93993 v 0 c 0,0 0.02646,-0.0264 0.02646,-0.0264 l 0.396875,0.0529 q 0.02646,0 0.02646,0 v 0.0794 c 0,0.0265 -0.02646,0.0265 -0.02646,0.0265 l -0.396875,-0.0529 q -0.02646,0 -0.02646,0 z"
       class="gh_67"
       id="path141"
       style="display:block;fill:#efefef;stroke-width:0.264583" />
    <path
       fill-rule="evenodd"
       d="m 78.551526,170.96639 0.02646,-0.13229 0.185209,0.0529 0.02646,0.0265 h 0.02646 v 0.0794 l -0.02646,0.0265 h -0.05292 l -0.07937,-0.0265 z"
       class="gk_67"
       id="path142"
       style="display:block;fill:#0b5394;stroke-width:0.264583" />
    <path
       fill-rule="evenodd"
       d="m 80.218401,171.12514 -0.02646,-0.15875 -0.15875,0.0265 -0.05292,0.0265 h -0.02646 v 0.0794 l 0.02646,0.0265 h 0.105833 z"
       class="gk_67"
       id="path143"
       style="display:block;fill:#0b5394;stroke-width:0.264583" />
    <path
       fill-rule="evenodd"
       d="m 78.869026,170.17264 h -0.05292 l -0.3175,0.23813 -0.05292,0.0529 0.02646,0.0529 0.07937,0.0794 0.105833,0.0529 0.185209,0.0794 0.185208,0.0265 0.185208,0.0529 h 0.211667 l 0.211667,0.0265 h 0.211666 l 0.238125,-0.0265 0.15875,-0.0529 0.105834,-0.0529 0.05292,-0.0529 -0.05292,-0.0794 -0.238125,-0.26459 h -0.02646 l -0.343958,-0.0529 -0.343958,-0.0265 -0.264584,-0.0265 z"
       class="gi_67"
       id="path144"
       style="display:block;fill:#9fc5e8;stroke-width:0.264583" />
    <path
       d="m 78.869026,170.17264 h -0.05292 l -0.3175,0.23813 -0.05292,0.0529 0.02646,0.0529 0.07937,0.0794 0.105833,0.0529 0.185209,0.0794 0.185208,0.0265 0.185208,0.0529 h 0.211667 l 0.211667,0.0265 h 0.211666 l 0.238125,-0.0265 0.15875,-0.0529 0.105834,-0.0529 0.05292,-0.0529 -0.05292,-0.0794 -0.238125,-0.26459 h -0.02646 l -0.343958,-0.0529 -0.343958,-0.0265 -0.264584,-0.0265 z"
       class="gj_67"
       id="path145"
       style="display:block;fill:none;stroke:#073763;stroke-width:0.302948;stroke-linejoin:round" />
    <path
       fill-rule="evenodd"
       d="m 79.239443,166.23035 c 0.05292,0 0.185208,-0.0265 0.3175,0 0.105833,0 0.264583,0 0.370416,0.0265 0.105834,0 0.15875,0.0265 0.211667,0.0265 0.07937,0.0265 0.185208,0.0265 0.211667,0.0529 z"
       class="g1_67"
       id="path146"
       style="display:block;fill:#000000;fill-opacity:0;stroke-width:0.264583" />
    <path
       d="m 79.239443,166.23035 c 0.05292,0 0.185208,-0.0265 0.3175,0 0.105833,0 0.264583,0 0.370416,0.0265 0.105834,0 0.15875,0.0265 0.211667,0.0265 0.07937,0.0265 0.185208,0.0265 0.211667,0.0529"
       class="gj_67"
       id="path147"
       style="display:block;fill:none;stroke:#073763;stroke-width:0.302948;stroke-linejoin:round" />
    <path
       fill-rule="evenodd"
       d="m 78.869026,166.30973 c 0,0.0265 -0.02646,0.0265 -0.02646,0.0529 -0.02646,0.0265 -0.02646,0.0794 -0.05292,0.15875 0,0.0529 -0.05292,0.18521 -0.05292,0.26459 -0.02646,0.10583 -0.02646,0.1852 -0.02646,0.26458 0,0.0794 0,0.13229 0,0.21167 0,0.0794 0.05292,0.23812 0.05292,0.26458 z"
       class="g1_67"
       id="path148"
       style="display:block;fill:#000000;fill-opacity:0;stroke-width:0.264583" />
    <path
       d="m 78.869026,166.30973 c 0,0.0265 -0.02646,0.0265 -0.02646,0.0529 -0.02646,0.0265 -0.02646,0.0794 -0.05292,0.15875 0,0.0529 -0.05292,0.18521 -0.05292,0.26459 -0.02646,0.10583 -0.02646,0.1852 -0.02646,0.26458 0,0.0794 0,0.13229 0,0.21167 0,0.0794 0.05292,0.23812 0.05292,0.26458"
       class="gj_67"
       id="path149"
       style="display:block;fill:none;stroke:#073763;stroke-width:0.302948;stroke-linejoin:round" />
    <path
       fill-rule="evenodd"
       d="m 80.694651,166.46848 c 0,0 0.02646,0.0265 0.02646,0.0529 0.02646,0.0529 0.02646,0.0794 0.02646,0.13229 0,0.0529 0.02646,0.1323 0.02646,0.18521 0,0.0794 0,0.15875 0,0.23813 -0.02646,0.0794 -0.02646,0.18521 -0.05292,0.23812 0,0.0529 0.02646,0.0265 0,0.10584 -0.02646,0.0529 -0.105833,0.21166 -0.105833,0.26458 z"
       class="g1_67"
       id="path150"
       style="display:block;fill:#000000;fill-opacity:0;stroke-width:0.264583" />
    <path
       d="m 80.694651,166.46848 c 0,0 0.02646,0.0265 0.02646,0.0529 0.02646,0.0529 0.02646,0.0794 0.02646,0.13229 0,0.0529 0.02646,0.1323 0.02646,0.18521 0,0.0794 0,0.15875 0,0.23813 -0.02646,0.0794 -0.02646,0.18521 -0.05292,0.23812 0,0.0529 0.02646,0.0265 0,0.10584 -0.02646,0.0529 -0.105833,0.21166 -0.105833,0.26458"
       class="gj_67"
       id="path151"
       style="display:block;fill:none;stroke:#073763;stroke-width:0.302948;stroke-linejoin:round" />
    <path
       fill-rule="evenodd"
       d="m 79.927359,167.57973 -0.767291,0.44979 h -0.07937 l -0.07937,-0.0265 -0.02646,-0.0265 -0.02646,-0.0265 -0.105833,-0.3175 v -0.0265 l 0.05292,-0.0265 0.15875,-0.0265 h 0.582084 l 0.15875,0.0265 z"
       class="gl_67"
       id="path152"
       style="display:block;fill:#cfe2f3;stroke-width:0.264583" />
  </g>
</svg>
