<?xml version="1.0" encoding="UTF-8" standalone="no"?>
<!-- Created with Inkscape (http://www.inkscape.org/) -->

<svg
   width="138.586mm"
   height="67.254997mm"
   viewBox="0 0 138.586 67.254997"
   version="1.1"
   id="svg1"
   inkscape:version="1.3.2 (1:1.3.2+202311252150+091e20ef0f)"
   sodipodi:docname="vm-03-10_2.svg"
   xmlns:inkscape="http://www.inkscape.org/namespaces/inkscape"
   xmlns:sodipodi="http://sodipodi.sourceforge.net/DTD/sodipodi-0.dtd"
   xmlns="http://www.w3.org/2000/svg"
   xmlns:svg="http://www.w3.org/2000/svg">
  <sodipodi:namedview
     id="namedview1"
     pagecolor="#ffffff"
     bordercolor="#000000"
     borderopacity="0.25"
     inkscape:showpageshadow="2"
     inkscape:pageopacity="0.0"
     inkscape:pagecheckerboard="0"
     inkscape:deskcolor="#d1d1d1"
     inkscape:document-units="mm"
     inkscape:zoom="1.7131103"
     inkscape:cx="681.50896"
     inkscape:cy="-299.7472"
     inkscape:window-width="3840"
     inkscape:window-height="2123"
     inkscape:window-x="0"
     inkscape:window-y="0"
     inkscape:window-maximized="1"
     inkscape:current-layer="layer1" />
  <defs
     id="defs1">
    <clipPath
       id="c0_43">
      <path
         d="M 0,825 V 0 h 1100 v 825 z"
         id="path2" />
    </clipPath>
    <clipPath
       id="clipPath1">
      <path
         d="M 0,825 V 0 h 1100 v 825 z"
         id="path1" />
    </clipPath>
    <clipPath
       id="clipPath3">
      <path
         d="M 0,825 V 0 h 1100 v 825 z"
         id="path3" />
    </clipPath>
  </defs>
  <g
     inkscape:label="Layer 1"
     inkscape:groupmode="layer"
     id="layer1"
     transform="translate(75.406255,-227.80624)">
    <path
       fill-rule="evenodd"
       d="m -73.884587,228.68757 h 44.000208 v 12.25021 h -44.000208 z"
       class="g1_43"
       id="path14"
       style="display:block;fill:#000000;fill-opacity:0;stroke-width:0.264583" />
    <path
       fill-rule="evenodd"
       d="m 23.005828,230.06341 h 18.362084 v 61.85958 H 23.005828 Z"
       class="g3_43"
       id="path15"
       style="display:block;fill:#666666;stroke-width:0.264583" />
    <path
       fill-rule="evenodd"
       d="M 3.8764538,251.75924 H 60.576661 V 270.2007 H 3.8764538 Z"
       class="g3_43"
       id="path16"
       style="display:block;fill:#666666;stroke-width:0.264583" />
    <path
       fill-rule="evenodd"
       d="m 23.032287,230.1957 h 1.058333 v 20.79625 h -1.058333 z"
       class="g4_43"
       id="path17"
       style="display:block;fill:#999999;stroke-width:0.264583" />
    <path
       d="m 23.032287,230.1957 h 1.058333 v 20.79625 h -1.058333 z"
       class="g5_43"
       id="path18"
       style="display:block;fill:none;stroke:#999999;stroke-width:0.302948;stroke-linejoin:round" />
    <path
       fill-rule="evenodd"
       d="m 40.28312,230.1957 h 1.058333 v 20.79625 H 40.28312 Z"
       class="g4_43"
       id="path19"
       style="display:block;fill:#999999;stroke-width:0.264583" />
    <path
       d="m 40.28312,230.1957 h 1.058333 v 20.79625 H 40.28312 Z"
       class="g5_43"
       id="path20"
       style="display:block;fill:none;stroke:#999999;stroke-width:0.302948;stroke-linejoin:round" />
    <path
       fill-rule="evenodd"
       d="m 23.085203,270.99445 h 1.031875 v 20.79625 h -1.031875 z"
       class="g4_43"
       id="path21"
       style="display:block;fill:#999999;stroke-width:0.264583" />
    <path
       d="m 23.085203,270.99445 h 1.031875 v 20.79625 h -1.031875 z"
       class="g5_43"
       id="path22"
       style="display:block;fill:none;stroke:#999999;stroke-width:0.302948;stroke-linejoin:round" />
    <path
       fill-rule="evenodd"
       d="m 40.336037,270.99445 h 1.031875 v 20.79625 h -1.031875 z"
       class="g4_43"
       id="path23"
       style="display:block;fill:#999999;stroke-width:0.264583" />
    <path
       d="m 40.336037,270.99445 h 1.031875 v 20.79625 h -1.031875 z"
       class="g5_43"
       id="path24"
       style="display:block;fill:none;stroke:#999999;stroke-width:0.302948;stroke-linejoin:round" />
    <path
       fill-rule="evenodd"
       d="m 24.09062,250.99195 v 1.13771 H 3.9822871 v -1.13771 z"
       class="g4_43"
       id="path25"
       style="display:block;fill:#999999;stroke-width:0.264583" />
    <path
       d="m 24.09062,250.99195 v 1.13771 H 3.9822871 v -1.13771 z"
       class="g5_43"
       id="path26"
       style="display:block;fill:none;stroke:#999999;stroke-width:0.302948;stroke-linejoin:round" />
    <path
       fill-rule="evenodd"
       d="m 24.09062,269.77737 v 1.1377 H 3.9822871 v -1.1377 z"
       class="g4_43"
       id="path27"
       style="display:block;fill:#999999;stroke-width:0.264583" />
    <path
       d="m 24.09062,269.77737 v 1.1377 H 3.9822871 v -1.1377 z"
       class="g5_43"
       id="path28"
       style="display:block;fill:none;stroke:#999999;stroke-width:0.302948;stroke-linejoin:round" />
    <path
       fill-rule="evenodd"
       d="m 60.44437,251.04487 v 1.11125 H 40.336037 v -1.11125 z"
       class="g4_43"
       id="path29"
       style="display:block;fill:#999999;stroke-width:0.264583" />
    <path
       d="m 60.44437,251.04487 v 1.11125 H 40.336037 v -1.11125 z"
       class="g5_43"
       id="path30"
       style="display:block;fill:none;stroke:#999999;stroke-width:0.302948;stroke-linejoin:round" />
    <path
       fill-rule="evenodd"
       d="m 60.44437,269.80382 v 1.13771 H 40.336037 v -1.13771 z"
       class="g4_43"
       id="path31"
       style="display:block;fill:#999999;stroke-width:0.264583" />
    <path
       d="m 60.44437,269.80382 v 1.13771 H 40.336037 v -1.13771 z"
       class="g5_43"
       id="path32"
       style="display:block;fill:none;stroke:#999999;stroke-width:0.302948;stroke-linejoin:round" />
    <path
       fill-rule="evenodd"
       d="m 13.057495,261.01966 -9.1016662,-0.0529 z"
       class="g1_43"
       id="path33"
       style="display:block;fill:#000000;fill-opacity:0;stroke-width:0.264583" />
    <path
       d="m 13.057495,261.01966 -9.1016662,-0.0529"
       class="g6_43"
       id="path34"
       style="display:block;fill:none;stroke:#f3f3f3;stroke-width:0.60616;stroke-linejoin:round;stroke-dasharray:2.64583, 1.85208" />
    <path
       fill-rule="evenodd"
       d="m 60.44437,261.01966 -9.101667,-0.0529 z"
       class="g1_43"
       id="path35"
       style="display:block;fill:#000000;fill-opacity:0;stroke-width:0.264583" />
    <path
       d="m 60.44437,261.01966 -9.101667,-0.0529"
       class="g6_43"
       id="path36"
       style="display:block;fill:none;stroke:#f3f3f3;stroke-width:0.60616;stroke-linejoin:round;stroke-dasharray:2.64583, 1.85208" />
    <path
       fill-rule="evenodd"
       d="m 32.160412,240.09112 0.05292,-9.89542 z"
       class="g1_43"
       id="path37"
       style="display:block;fill:#000000;fill-opacity:0;stroke-width:0.264583" />
    <path
       d="m 32.160412,240.09112 0.05292,-9.89542"
       class="g6_43"
       id="path38"
       style="display:block;fill:none;stroke:#f3f3f3;stroke-width:0.60616;stroke-linejoin:round;stroke-dasharray:2.64583, 1.85208" />
    <path
       fill-rule="evenodd"
       d="m 32.18687,291.7907 0.05292,-9.89542 z"
       class="g1_43"
       id="path39"
       style="display:block;fill:#000000;fill-opacity:0;stroke-width:0.264583" />
    <path
       d="m 32.18687,291.7907 0.05292,-9.89542"
       class="g6_43"
       id="path40"
       style="display:block;fill:none;stroke:#f3f3f3;stroke-width:0.60616;stroke-linejoin:round;stroke-dasharray:2.64583, 1.85208" />
    <path
       fill-rule="evenodd"
       d="m 13.163329,261.12549 v -8.99583 z"
       class="g1_43"
       id="path41"
       style="display:block;fill:#000000;fill-opacity:0;stroke-width:0.264583" />
    <path
       d="m 13.163329,261.12549 v -8.99583"
       class="g7_43"
       id="path42"
       style="display:block;fill:none;stroke:#f3f3f3;stroke-width:0.909373;stroke-linejoin:round" />
    <path
       fill-rule="evenodd"
       d="m 51.448536,269.93612 v -8.96938 z"
       class="g1_43"
       id="path43"
       style="display:block;fill:#000000;fill-opacity:0;stroke-width:0.264583" />
    <path
       d="m 51.448536,269.93612 v -8.96938"
       class="g7_43"
       id="path44"
       style="display:block;fill:none;stroke:#f3f3f3;stroke-width:0.909373;stroke-linejoin:round" />
    <path
       fill-rule="evenodd"
       d="m 32.081037,240.27632 h 8.255 z"
       class="g1_43"
       id="path45"
       style="display:block;fill:#000000;fill-opacity:0;stroke-width:0.264583" />
    <path
       d="m 32.081037,240.27632 h 8.255"
       class="g7_43"
       id="path46"
       style="display:block;fill:none;stroke:#f3f3f3;stroke-width:0.909373;stroke-linejoin:round" />
    <path
       fill-rule="evenodd"
       d="m 24.117078,281.89528 h 8.255 z"
       class="g1_43"
       id="path47"
       style="display:block;fill:#000000;fill-opacity:0;stroke-width:0.264583" />
    <path
       d="m 24.117078,281.89528 h 8.255"
       class="g7_43"
       id="path48"
       style="display:block;fill:none;stroke:#f3f3f3;stroke-width:0.909373;stroke-linejoin:round" />
    <path
       fill-rule="evenodd"
       d="m 24.56687,275.65112 h 0.873125 v 4.07458 H 24.56687 Z"
       class="g8_43"
       id="path49"
       style="display:block;fill:#eeeeee;stroke-width:0.264583" />
    <path
       fill-rule="evenodd"
       d="m 26.418953,275.65112 h 0.873125 v 4.07458 h -0.873125 z"
       class="g8_43"
       id="path50"
       style="display:block;fill:#eeeeee;stroke-width:0.264583" />
    <path
       fill-rule="evenodd"
       d="m 28.271037,275.65112 h 0.873125 v 4.07458 h -0.873125 z"
       class="g8_43"
       id="path51"
       style="display:block;fill:#eeeeee;stroke-width:0.264583" />
    <path
       fill-rule="evenodd"
       d="m 30.12312,275.65112 h 0.873125 v 4.07458 H 30.12312 Z"
       class="g8_43"
       id="path52"
       style="display:block;fill:#eeeeee;stroke-width:0.264583" />
    <path
       fill-rule="evenodd"
       d="m 31.975203,275.65112 h 0.873125 v 4.07458 h -0.873125 z"
       class="g8_43"
       id="path53"
       style="display:block;fill:#eeeeee;stroke-width:0.264583" />
    <path
       fill-rule="evenodd"
       d="m 33.827287,275.65112 h 0.873125 v 4.07458 h -0.873125 z"
       class="g8_43"
       id="path54"
       style="display:block;fill:#eeeeee;stroke-width:0.264583" />
    <path
       fill-rule="evenodd"
       d="m 35.652912,275.65112 h 0.899583 v 4.07458 h -0.899583 z"
       class="g8_43"
       id="path55"
       style="display:block;fill:#eeeeee;stroke-width:0.264583" />
    <path
       fill-rule="evenodd"
       d="m 37.504995,275.65112 h 0.899583 v 4.07458 h -0.899583 z"
       class="g8_43"
       id="path56"
       style="display:block;fill:#eeeeee;stroke-width:0.264583" />
    <path
       fill-rule="evenodd"
       d="m 39.357078,275.65112 h 0.873125 v 4.07458 h -0.873125 z"
       class="g8_43"
       id="path57"
       style="display:block;fill:#eeeeee;stroke-width:0.264583" />
    <path
       fill-rule="evenodd"
       d="m 24.355203,242.65757 h 0.873125 v 4.04813 h -0.873125 z"
       class="g8_43"
       id="path58"
       style="display:block;fill:#eeeeee;stroke-width:0.264583" />
    <path
       fill-rule="evenodd"
       d="m 26.207287,242.65757 h 0.873125 v 4.04813 h -0.873125 z"
       class="g8_43"
       id="path59"
       style="display:block;fill:#eeeeee;stroke-width:0.264583" />
    <path
       fill-rule="evenodd"
       d="m 28.05937,242.65757 h 0.873125 v 4.04813 H 28.05937 Z"
       class="g8_43"
       id="path60"
       style="display:block;fill:#eeeeee;stroke-width:0.264583" />
    <path
       fill-rule="evenodd"
       d="m 29.911453,242.65757 h 0.873125 v 4.04813 h -0.873125 z"
       class="g8_43"
       id="path61"
       style="display:block;fill:#eeeeee;stroke-width:0.264583" />
    <path
       fill-rule="evenodd"
       d="m 31.763537,242.65757 h 0.873125 v 4.04813 h -0.873125 z"
       class="g8_43"
       id="path62"
       style="display:block;fill:#eeeeee;stroke-width:0.264583" />
    <path
       fill-rule="evenodd"
       d="m 33.61562,242.65757 h 0.873125 v 4.04813 H 33.61562 Z"
       class="g8_43"
       id="path63"
       style="display:block;fill:#eeeeee;stroke-width:0.264583" />
    <path
       fill-rule="evenodd"
       d="m 35.441245,242.65757 h 0.899583 v 4.04813 h -0.899583 z"
       class="g8_43"
       id="path64"
       style="display:block;fill:#eeeeee;stroke-width:0.264583" />
    <path
       fill-rule="evenodd"
       d="m 37.293328,242.65757 h 0.873125 v 4.04813 h -0.873125 z"
       class="g8_43"
       id="path65"
       style="display:block;fill:#eeeeee;stroke-width:0.264583" />
    <path
       fill-rule="evenodd"
       d="m 39.145412,242.65757 h 0.873125 v 4.04813 h -0.873125 z"
       class="g8_43"
       id="path66"
       style="display:block;fill:#eeeeee;stroke-width:0.264583" />
    <path
       fill-rule="evenodd"
       d="m 19.195828,252.44716 v 0.9525 h -3.730624 v -0.9525 z"
       class="g8_43"
       id="path67"
       style="display:block;fill:#eeeeee;stroke-width:0.264583" />
    <path
       fill-rule="evenodd"
       d="m 19.195828,254.48445 v 0.9525 h -3.730624 v -0.9525 z"
       class="g8_43"
       id="path68"
       style="display:block;fill:#eeeeee;stroke-width:0.264583" />
    <path
       fill-rule="evenodd"
       d="m 19.195828,256.49528 v 0.9525 h -3.730624 v -0.9525 z"
       class="g8_43"
       id="path69"
       style="display:block;fill:#eeeeee;stroke-width:0.264583" />
    <path
       fill-rule="evenodd"
       d="m 19.195828,258.50612 v 0.9525 h -3.730624 v -0.9525 z"
       class="g8_43"
       id="path70"
       style="display:block;fill:#eeeeee;stroke-width:0.264583" />
    <path
       fill-rule="evenodd"
       d="m 19.195828,260.51695 v 0.9525 h -3.730624 v -0.9525 z"
       class="g8_43"
       id="path71"
       style="display:block;fill:#eeeeee;stroke-width:0.264583" />
    <path
       fill-rule="evenodd"
       d="m 19.195828,262.52778 v 0.9525 h -3.730624 v -0.9525 z"
       class="g8_43"
       id="path72"
       style="display:block;fill:#eeeeee;stroke-width:0.264583" />
    <path
       fill-rule="evenodd"
       d="m 19.195828,264.53862 v 0.9525 h -3.730624 v -0.9525 z"
       class="g8_43"
       id="path73"
       style="display:block;fill:#eeeeee;stroke-width:0.264583" />
    <path
       fill-rule="evenodd"
       d="m 19.195828,266.54945 v 0.9525 h -3.730624 v -0.9525 z"
       class="g8_43"
       id="path74"
       style="display:block;fill:#eeeeee;stroke-width:0.264583" />
    <path
       fill-rule="evenodd"
       d="m 19.195828,268.56028 v 0.9525 h -3.730624 v -0.9525 z"
       class="g8_43"
       id="path75"
       style="display:block;fill:#eeeeee;stroke-width:0.264583" />
    <path
       fill-rule="evenodd"
       d="m 49.040828,252.44716 v 0.9525 h -3.730625 v -0.9525 z"
       class="g8_43"
       id="path76"
       style="display:block;fill:#eeeeee;stroke-width:0.264583" />
    <path
       fill-rule="evenodd"
       d="m 49.040828,254.48445 v 0.9525 h -3.730625 v -0.9525 z"
       class="g8_43"
       id="path77"
       style="display:block;fill:#eeeeee;stroke-width:0.264583" />
    <path
       fill-rule="evenodd"
       d="m 49.040828,256.49528 v 0.9525 h -3.730625 v -0.9525 z"
       class="g8_43"
       id="path78"
       style="display:block;fill:#eeeeee;stroke-width:0.264583" />
    <path
       fill-rule="evenodd"
       d="m 49.040828,258.50612 v 0.9525 h -3.730625 v -0.9525 z"
       class="g8_43"
       id="path79"
       style="display:block;fill:#eeeeee;stroke-width:0.264583" />
    <path
       fill-rule="evenodd"
       d="m 49.040828,260.51695 v 0.9525 h -3.730625 v -0.9525 z"
       class="g8_43"
       id="path80"
       style="display:block;fill:#eeeeee;stroke-width:0.264583" />
    <path
       fill-rule="evenodd"
       d="m 49.040828,262.52778 v 0.9525 h -3.730625 v -0.9525 z"
       class="g8_43"
       id="path81"
       style="display:block;fill:#eeeeee;stroke-width:0.264583" />
    <path
       fill-rule="evenodd"
       d="m 49.040828,264.53862 v 0.9525 h -3.730625 v -0.9525 z"
       class="g8_43"
       id="path82"
       style="display:block;fill:#eeeeee;stroke-width:0.264583" />
    <path
       fill-rule="evenodd"
       d="m 49.040828,266.54945 v 0.9525 h -3.730625 v -0.9525 z"
       class="g8_43"
       id="path83"
       style="display:block;fill:#eeeeee;stroke-width:0.264583" />
    <path
       fill-rule="evenodd"
       d="m 49.040828,268.56028 v 0.9525 h -3.730625 v -0.9525 z"
       class="g8_43"
       id="path84"
       style="display:block;fill:#eeeeee;stroke-width:0.264583" />
    <path
       fill-rule="evenodd"
       d="m 31.39312,261.17841 0.873125,-0.9525 0.873125,0.9525 -0.873125,0.9525 z"
       class="g1_43"
       id="path85"
       style="display:block;fill:#000000;fill-opacity:0;stroke-width:0.264583" />
    <path
       d="m 31.39312,261.17841 0.873125,-0.9525 0.873125,0.9525 -0.873125,0.9525 z"
       class="g9_43"
       id="path86"
       style="display:block;fill:none;stroke:#f3f3f3;stroke-width:0.302948;stroke-linejoin:round" />
    <path
       fill-rule="evenodd"
       d="m 46.209786,250.14528 v -0.50271 h -4.286249 v 0.50271 z"
       class="g4_43"
       id="path87"
       style="display:block;fill:#999999;stroke-width:0.264583" />
    <path
       d="m 46.209786,250.14528 v -0.50271 h -4.286249 v 0.50271 z"
       class="g5_43"
       id="path88"
       style="display:block;fill:none;stroke:#999999;stroke-width:0.302948;stroke-linejoin:round" />
    <path
       fill-rule="evenodd"
       d="m 45.83937,250.09237 v 0 c 0.211666,0 0.370416,-0.18521 0.370416,-0.39688 v -5.55625 c 0,-0.0794 -0.02646,-0.18521 -0.105833,-0.26458 -0.07937,-0.0529 -0.15875,-0.10584 -0.264583,-0.10584 h -1.534583 c -0.211667,0 -0.370417,0.18521 -0.370417,0.37042 v 5.55625 c 0,0.21167 0.15875,0.39688 0.370417,0.39688 z"
       class="g4_43"
       id="path89"
       style="display:block;fill:#999999;stroke-width:0.264583" />
    <path
       d="m 45.83937,250.09237 v 0 c 0.211666,0 0.370416,-0.18521 0.370416,-0.39688 v -5.55625 c 0,-0.0794 -0.02646,-0.18521 -0.105833,-0.26458 -0.07937,-0.0529 -0.15875,-0.10584 -0.264583,-0.10584 h -1.534583 c -0.211667,0 -0.370417,0.18521 -0.370417,0.37042 v 5.55625 c 0,0.21167 0.15875,0.39688 0.370417,0.39688 z"
       class="g5_43"
       id="path90"
       style="display:block;fill:none;stroke:#999999;stroke-width:0.302948;stroke-linejoin:round" />
    <path
       fill-rule="evenodd"
       d="m 45.098536,245.77966 v 0 c 0.370417,0 0.661459,-0.3175 0.661459,-0.71438 0,-0.39687 -0.291042,-0.71437 -0.661459,-0.71437 -0.343958,0 -0.661458,0.3175 -0.661458,0.71437 0,0.39688 0.3175,0.71438 0.661458,0.71438 z"
       class="ga_43"
       id="path91"
       style="display:block;fill:#ff0000;stroke-width:0.264583" />
    <path
       fill-rule="evenodd"
       d="m 45.098536,247.76403 v 0 c 0.370417,0 0.661459,-0.3175 0.661459,-0.71437 0,-0.37042 -0.291042,-0.71438 -0.661459,-0.71438 -0.343958,0 -0.661458,0.34396 -0.661458,0.71438 0,0.39687 0.3175,0.71437 0.661458,0.71437 z"
       class="gb_43"
       id="path92"
       style="display:block;fill:#f1c232;stroke-width:0.264583" />
    <path
       fill-rule="evenodd"
       d="m 45.098536,249.77487 v 0 c 0.370417,0 0.661459,-0.3175 0.661459,-0.71438 0,-0.39687 -0.291042,-0.71437 -0.661459,-0.71437 -0.343958,0 -0.661458,0.3175 -0.661458,0.71437 0,0.39688 0.3175,0.71438 0.661458,0.71438 z"
       class="gc_43"
       id="path93"
       style="display:block;fill:#38761d;stroke-width:0.264583" />
    <path
       fill-rule="evenodd"
       d="m 60.550203,252.26195 v 8.70479 h -8.942917 v -8.70479 z"
       class="g1_43"
       id="path94"
       style="display:block;fill:#000000;fill-opacity:0;stroke-width:0.264583" />
    <path
       d="m 60.550203,252.26195 v 8.70479 h -8.942917 v -8.70479 z"
       class="g2_43"
       id="path95"
       style="display:block;fill:none;stroke:#000000;stroke-width:0.302948;stroke-linejoin:round" />
    <path
       fill-rule="evenodd"
       d="m 24.143537,282.05403 h 8.09625 v 9.73667 h -8.09625 z"
       class="g1_43"
       id="path96"
       style="display:block;fill:#000000;fill-opacity:0;stroke-width:0.264583" />
    <path
       d="m 24.143537,282.05403 h 8.09625 v 9.73667 h -8.09625 z"
       class="g2_43"
       id="path97"
       style="display:block;fill:none;stroke:#000000;stroke-width:0.302948;stroke-linejoin:round" />
    <path
       fill-rule="evenodd"
       d="m 60.470828,260.9932 v 8.78417 h -8.837083 v -8.78417 z"
       class="g1_43"
       id="path98"
       style="display:block;fill:#000000;fill-opacity:0;stroke-width:0.264583" />
    <path
       d="m 60.470828,260.9932 v 8.78417 h -8.837083 v -8.78417 z"
       class="g2_43"
       id="path99"
       style="display:block;fill:none;stroke:#000000;stroke-width:0.302948;stroke-linejoin:round" />
    <path
       fill-rule="evenodd"
       d="m 13.031037,252.23549 v 8.75771 H 3.9029121 v -8.75771 z"
       class="g1_43"
       id="path100"
       style="display:block;fill:#000000;fill-opacity:0;stroke-width:0.264583" />
    <path
       d="m 13.031037,252.23549 v 8.75771 H 3.9029121 v -8.75771 z"
       class="g2_43"
       id="path101"
       style="display:block;fill:none;stroke:#000000;stroke-width:0.302948;stroke-linejoin:round" />
    <path
       fill-rule="evenodd"
       d="m 13.031037,260.9932 v 8.75771 H 3.9029121 v -8.75771 z"
       class="g1_43"
       id="path102"
       style="display:block;fill:#000000;fill-opacity:0;stroke-width:0.264583" />
    <path
       d="m 13.031037,260.9932 v 8.75771 H 3.9029121 v -8.75771 z"
       class="g2_43"
       id="path103"
       style="display:block;fill:none;stroke:#000000;stroke-width:0.302948;stroke-linejoin:round" />
    <path
       fill-rule="evenodd"
       d="m 40.28312,291.7907 h -8.016875 v -9.71021 h 8.016875 z"
       class="g1_43"
       id="path104"
       style="display:block;fill:#000000;fill-opacity:0;stroke-width:0.264583" />
    <path
       d="m 40.28312,291.7907 h -8.016875 v -9.71021 h 8.016875 z"
       class="g2_43"
       id="path105"
       style="display:block;fill:none;stroke:#000000;stroke-width:0.302948;stroke-linejoin:round" />
    <path
       fill-rule="evenodd"
       d="m 40.230203,240.09112 h -8.016875 v -9.94834 h 8.016875 z"
       class="g1_43"
       id="path106"
       style="display:block;fill:#000000;fill-opacity:0;stroke-width:0.264583" />
    <path
       d="m 40.230203,240.09112 h -8.016875 v -9.94834 h 8.016875 z"
       class="g2_43"
       id="path107"
       style="display:block;fill:none;stroke:#000000;stroke-width:0.302948;stroke-linejoin:round" />
    <path
       fill-rule="evenodd"
       d="m 32.18687,240.06466 h -8.016875 v -9.92188 h 8.016875 z"
       class="g1_43"
       id="path108"
       style="display:block;fill:#000000;fill-opacity:0;stroke-width:0.264583" />
    <path
       d="m 32.18687,240.06466 h -8.016875 v -9.92188 h 8.016875 z"
       class="g2_43"
       id="path109"
       style="display:block;fill:none;stroke:#000000;stroke-width:0.302948;stroke-linejoin:round" />
    <path
       fill-rule="evenodd"
       d="M 40.28312,282.05403 H 32.266245 V 240.11757 H 40.28312 Z"
       class="g1_43"
       id="path110"
       style="display:block;fill:#000000;fill-opacity:0;stroke-width:0.264583" />
    <path
       d="M 40.28312,282.05403 H 32.266245 V 240.11757 H 40.28312 Z"
       class="g2_43"
       id="path111"
       style="display:block;fill:none;stroke:#000000;stroke-width:0.302948;stroke-linejoin:round" />
    <path
       fill-rule="evenodd"
       d="M 32.18687,282.05403 H 24.196453 V 240.11757 H 32.18687 Z"
       class="g1_43"
       id="path112"
       style="display:block;fill:#000000;fill-opacity:0;stroke-width:0.264583" />
    <path
       d="M 32.18687,282.05403 H 24.196453 V 240.11757 H 32.18687 Z"
       class="g2_43"
       id="path113"
       style="display:block;fill:none;stroke:#000000;stroke-width:0.302948;stroke-linejoin:round" />
    <path
       fill-rule="evenodd"
       d="m 13.031037,269.72445 v -8.73125 h 38.549791 v 8.73125 z"
       class="gd_43"
       id="path114"
       style="display:block;fill:#9fc5e8;fill-opacity:0.41;stroke-width:0.264583" />
    <path
       d="m 13.031037,269.72445 v -8.73125 h 38.549791 v 8.73125 z"
       class="ge_43"
       id="path115"
       style="display:block;fill:none;stroke:#0000ff;stroke-width:0.302948;stroke-linejoin:round" />
    <path
       fill-rule="evenodd"
       d="m 13.031037,260.94028 v -8.75771 h 38.549791 v 8.75771 z"
       class="g1_43"
       id="path116"
       style="display:block;fill:#000000;fill-opacity:0;stroke-width:0.264583" />
    <path
       d="m 13.031037,260.94028 v -8.75771 h 38.549791 v 8.75771 z"
       class="g2_43"
       id="path117"
       style="display:block;fill:none;stroke:#000000;stroke-width:0.302948;stroke-linejoin:round" />
    <path
       fill-rule="evenodd"
       d="m 13.057495,261.09903 v 8.59896 l 11.1125,-0.0265 0.132292,12.25021 7.9375,0.0265 0.05292,-11.61521 v -1.50812 l -0.07938,-1.11125 -0.238125,-1.13771 -0.343958,-0.87313 -0.370417,-0.71437 -0.502708,-0.79375 -0.529167,-0.55563 -0.502708,-0.52916 -0.635,-0.58209 -0.502708,-0.29104 -0.846667,-0.47625 -0.79375,-0.34396 -0.714375,-0.21166 -0.661458,-0.10584 -1.190625,-0.0794 h -4.656667 z"
       class="gf_43"
       id="path118"
       style="display:block;fill:#f4cccc;fill-opacity:0.43;stroke-width:0.264583" />
    <path
       d="m 13.057495,261.09903 v 8.59896 l 11.1125,-0.0265 0.132292,12.25021 7.9375,0.0265 0.05292,-11.61521 v -1.50812 l -0.07938,-1.11125 -0.238125,-1.13771 -0.343958,-0.87313 -0.370417,-0.71437 -0.502708,-0.79375 -0.529167,-0.55563 -0.502708,-0.52916 -0.635,-0.58209 -0.502708,-0.29104 -0.846667,-0.47625 -0.79375,-0.34396 -0.714375,-0.21166 -0.661458,-0.10584 -1.190625,-0.0794 h -4.656667 z"
       class="gg_43"
       id="path119"
       style="display:block;fill:none;stroke:#ff0000;stroke-width:0.302948;stroke-linejoin:round" />
    <path
       fill-rule="evenodd"
       d="m 22.238537,238.7682 h 0.47625 v 9.92187 h -0.47625 z"
       class="g4_43"
       id="path120"
       style="display:block;fill:#999999;stroke-width:0.264583" />
    <path
       d="m 22.238537,238.7682 h 0.47625 v 9.92187 h -0.47625 z"
       class="g5_43"
       id="path121"
       style="display:block;fill:none;stroke:#999999;stroke-width:0.302948;stroke-linejoin:round" />
    <path
       fill-rule="evenodd"
       d="m 22.397287,239.19153 v 0 c 0,-0.23812 0.185208,-0.42333 0.423333,-0.42333 h 4.974167 c 0.105833,0 0.211666,0.0529 0.291041,0.13229 0.07937,0.0794 0.105834,0.18521 0.105834,0.29104 v 1.66688 c 0,0.21166 -0.185209,0.39687 -0.396875,0.39687 H 22.82062 c -0.238125,0 -0.423333,-0.18521 -0.423333,-0.39687 z"
       class="g4_43"
       id="path122"
       style="display:block;fill:#999999;stroke-width:0.264583" />
    <path
       d="m 22.397287,239.19153 v 0 c 0,-0.23812 0.185208,-0.42333 0.423333,-0.42333 h 4.974167 c 0.105833,0 0.211666,0.0529 0.291041,0.13229 0.07937,0.0794 0.105834,0.18521 0.105834,0.29104 v 1.66688 c 0,0.21166 -0.185209,0.39687 -0.396875,0.39687 H 22.82062 c -0.238125,0 -0.423333,-0.18521 -0.423333,-0.39687 z"
       class="g5_43"
       id="path123"
       style="display:block;fill:none;stroke:#999999;stroke-width:0.302948;stroke-linejoin:round" />
    <path
       fill-rule="evenodd"
       d="m 26.366037,239.98528 v 0 c 0,-0.39687 0.291041,-0.71437 0.661458,-0.71437 0.15875,0 0.343958,0.0794 0.449792,0.21166 0.132291,0.1323 0.211666,0.3175 0.211666,0.50271 0,0.39688 -0.291041,0.71438 -0.661458,0.71438 -0.370417,0 -0.661458,-0.3175 -0.661458,-0.71438 z"
       class="ga_43"
       id="path124"
       style="display:block;fill:#ff0000;stroke-width:0.264583" />
    <path
       fill-rule="evenodd"
       d="m 24.513953,239.98528 v 0 c 0,-0.39687 0.3175,-0.71437 0.661459,-0.71437 0.185208,0 0.343958,0.0794 0.47625,0.21166 0.105833,0.1323 0.185208,0.3175 0.185208,0.50271 0,0.39688 -0.291042,0.71438 -0.661458,0.71438 -0.343959,0 -0.661459,-0.3175 -0.661459,-0.71438 z"
       class="gb_43"
       id="path125"
       style="display:block;fill:#f1c232;stroke-width:0.264583" />
    <path
       fill-rule="evenodd"
       d="m 22.688328,239.98528 v 0 c 0,-0.39687 0.291042,-0.71437 0.661459,-0.71437 0.15875,0 0.3175,0.0794 0.449791,0.21166 0.132292,0.1323 0.185209,0.3175 0.185209,0.50271 0,0.39688 -0.291042,0.71438 -0.635,0.71438 -0.370417,0 -0.661459,-0.3175 -0.661459,-0.71438 z"
       class="gc_43"
       id="path126"
       style="display:block;fill:#38761d;stroke-width:0.264583" />
    <path
       fill-rule="evenodd"
       d="m 42.214578,263.98299 h -0.47625 v 9.92188 h 0.47625 z"
       class="g4_43"
       id="path127"
       style="display:block;fill:#999999;stroke-width:0.264583" />
    <path
       d="m 42.214578,263.98299 h -0.47625 v 9.92188 h 0.47625 z"
       class="g5_43"
       id="path128"
       style="display:block;fill:none;stroke:#999999;stroke-width:0.302948;stroke-linejoin:round" />
    <path
       fill-rule="evenodd"
       d="m 42.055828,264.40632 v 0 c 0,-0.23812 -0.185208,-0.42333 -0.423333,-0.42333 h -4.974167 c -0.105833,0 -0.211666,0.0529 -0.291041,0.13229 -0.07937,0.0794 -0.132292,0.18521 -0.132292,0.29104 v 1.66688 c 0,0.21167 0.185208,0.39687 0.423333,0.39687 h 4.974167 c 0.238125,0 0.423333,-0.1852 0.423333,-0.39687 z"
       class="g4_43"
       id="path129"
       style="display:block;fill:#999999;stroke-width:0.264583" />
    <path
       d="m 42.055828,264.40632 v 0 c 0,-0.23812 -0.185208,-0.42333 -0.423333,-0.42333 h -4.974167 c -0.105833,0 -0.211666,0.0529 -0.291041,0.13229 -0.07937,0.0794 -0.132292,0.18521 -0.132292,0.29104 v 1.66688 c 0,0.21167 0.185208,0.39687 0.423333,0.39687 h 4.974167 c 0.238125,0 0.423333,-0.1852 0.423333,-0.39687 z"
       class="g5_43"
       id="path130"
       style="display:block;fill:none;stroke:#999999;stroke-width:0.302948;stroke-linejoin:round" />
    <path
       fill-rule="evenodd"
       d="m 18.190412,272.37028 v -0.50271 h 4.28625 v 0.50271 z"
       class="g4_43"
       id="path131"
       style="display:block;fill:#999999;stroke-width:0.264583" />
    <path
       d="m 18.190412,272.37028 v -0.50271 h 4.28625 v 0.50271 z"
       class="g5_43"
       id="path132"
       style="display:block;fill:none;stroke:#999999;stroke-width:0.302948;stroke-linejoin:round" />
    <path
       fill-rule="evenodd"
       d="m 18.560828,272.31737 v 0 c -0.211666,0 -0.370416,-0.18521 -0.370416,-0.39688 v -5.55625 c 0,-0.0794 0.02646,-0.18521 0.105833,-0.26458 0.07937,-0.0529 0.15875,-0.10584 0.264583,-0.10584 h 1.534584 c 0.211666,0 0.370416,0.18521 0.370416,0.37042 v 5.55625 c 0,0.21167 -0.15875,0.39688 -0.370416,0.39688 z"
       class="g4_43"
       id="path133"
       style="display:block;fill:#999999;stroke-width:0.264583" />
    <path
       d="m 18.560828,272.31737 v 0 c -0.211666,0 -0.370416,-0.18521 -0.370416,-0.39688 v -5.55625 c 0,-0.0794 0.02646,-0.18521 0.105833,-0.26458 0.07937,-0.0529 0.15875,-0.10584 0.264583,-0.10584 h 1.534584 c 0.211666,0 0.370416,0.18521 0.370416,0.37042 v 5.55625 c 0,0.21167 -0.15875,0.39688 -0.370416,0.39688 z"
       class="g5_43"
       id="path134"
       style="display:block;fill:none;stroke:#999999;stroke-width:0.302948;stroke-linejoin:round" />
    <path
       fill-rule="evenodd"
       d="m 19.301662,268.00466 v 0 c -0.370417,0 -0.661459,-0.3175 -0.661459,-0.71438 0,-0.39687 0.291042,-0.71437 0.661459,-0.71437 0.370416,0 0.661458,0.3175 0.661458,0.71437 0,0.39688 -0.291042,0.71438 -0.661458,0.71438 z"
       class="ga_43"
       id="path135"
       style="display:block;fill:#ff0000;stroke-width:0.264583" />
    <path
       fill-rule="evenodd"
       d="m 19.301662,269.98903 v 0 c -0.370417,0 -0.661459,-0.3175 -0.661459,-0.71437 0,-0.37042 0.291042,-0.71438 0.661459,-0.71438 0.370416,0 0.661458,0.34396 0.661458,0.71438 0,0.39687 -0.291042,0.71437 -0.661458,0.71437 z"
       class="gb_43"
       id="path136"
       style="display:block;fill:#f1c232;stroke-width:0.264583" />
    <path
       fill-rule="evenodd"
       d="m 19.301662,271.99987 v 0 c -0.370417,0 -0.661459,-0.3175 -0.661459,-0.71438 0,-0.39687 0.291042,-0.71437 0.661459,-0.71437 0.370416,0 0.661458,0.3175 0.661458,0.71437 0,0.39688 -0.291042,0.71438 -0.661458,0.71438 z"
       class="gc_43"
       id="path137"
       style="display:block;fill:#38761d;stroke-width:0.264583" />
    <path
       fill-rule="evenodd"
       d="m 25.942703,275.20132 -51.302707,-3.46604 z"
       class="g1_43"
       id="path138"
       style="display:block;fill:#000000;fill-opacity:0;stroke-width:0.264583" />
    <path
       d="m 25.942703,275.20132 -49.477082,-3.3602"
       class="gg_43"
       id="path139"
       style="display:block;fill:none;stroke:#ff0000;stroke-width:0.302948;stroke-linejoin:round" />
    <path
       fill-rule="evenodd"
       d="m -23.507921,271.36487 -1.402292,0.39687 1.322917,0.58208 z"
       class="gh_43"
       id="path140"
       style="display:block;fill:#ff0000;stroke:#ff0000;stroke-width:0.302948;stroke-miterlimit:10" />
    <path
       fill-rule="evenodd"
       d="m -71.13292,260.41112 h 45.561249 v 14.71083 H -71.13292 Z"
       class="gi_43"
       id="path141"
       style="display:block;fill:#0000ff;stroke-width:0.264583" />
    <g
       clip-path="url(#c0_43)"
       id="g142"
       style="display:block"
       transform="matrix(0.26458333,0,0,0.26458333,-206.6525,156.8532)">
      <text
         x="522.59998"
         y="414.89999"
         class="s4_43"
         id="text141"
         style="font-size:13.75px;font-family:ArialMT_bj;white-space:pre;fill:#ffffff">regulatory_element </text>
      <text
         x="530.20001"
         y="431.39999"
         class="s4_43"
         id="text142"
         style="font-size:13.75px;font-family:ArialMT_bj;white-space:pre;fill:#ffffff">subtype:right_of_way </text>
    </g>
    <path
       fill-rule="evenodd"
       d="m -25.598129,263.79778 60.298541,-0.79375 z"
       class="g1_43"
       id="path142"
       style="display:block;fill:#000000;fill-opacity:0;stroke-width:0.264583" />
    <path
       d="m -25.598129,263.79778 58.499374,-0.76729"
       class="ge_43"
       id="path143"
       style="display:block;fill:none;stroke:#0000ff;stroke-width:0.302948;stroke-linejoin:round" />
    <path
       fill-rule="evenodd"
       d="m 32.901245,263.5332 1.375833,-0.52917 -1.375833,-0.47625 z"
       class="gj_43"
       id="path144"
       style="display:block;fill:#0000ff;stroke:#0000ff;stroke-width:0.302948;stroke-miterlimit:10" />
    <path
       fill-rule="evenodd"
       d="m -24.010629,255.86028 h 23.04520785 v 10.29229 H -24.010629 Z"
       class="g1_43"
       id="path145"
       style="display:block;fill:#000000;fill-opacity:0;stroke-width:0.264583" />
    <text
       clip-path="url(#c0_43)"
       x="700.59998"
       y="397.70001"
       class="s5_43"
       id="text145"
       style="font-size:13.75px;font-family:ArialMT_bj;white-space:pre;display:block;fill:#000000"
       transform="matrix(0.26458333,0,0,0.26458333,-206.6525,156.8532)">yield lane </text>
    <path
       fill-rule="evenodd"
       d="m -19.142296,270.41237 h 36.142083 v 14.68437 h -36.142083 z"
       class="g1_43"
       id="path146"
       style="display:block;fill:#000000;fill-opacity:0;stroke-width:0.264583" />
    <g
       clip-path="url(#c0_43)"
       id="g147"
       style="display:block"
       transform="matrix(0.26458333,0,0,0.26458333,-206.6525,156.8532)">
      <text
         x="719"
         y="452.70001"
         class="s5_43"
         id="text146"
         style="font-size:13.75px;font-family:ArialMT_bj;white-space:pre;fill:#000000">right_of_way </text>
      <text
         x="719"
         y="469.20001"
         class="s5_43"
         id="text147"
         style="font-size:13.75px;font-family:ArialMT_bj;white-space:pre;fill:#000000">(priority lane) </text>
    </g>
  </g>
</svg>
