<?xml version="1.0" encoding="UTF-8" standalone="no"?>
<!-- Created with Inkscape (http://www.inkscape.org/) -->

<svg
   width="53.159mm"
   height="82.059998mm"
   viewBox="0 0 53.159 82.059998"
   version="1.1"
   id="svg1"
   inkscape:version="1.3.2 (1:1.3.2+202311252150+091e20ef0f)"
   sodipodi:docname="vm-01-13_1.svg"
   xmlns:inkscape="http://www.inkscape.org/namespaces/inkscape"
   xmlns:sodipodi="http://sodipodi.sourceforge.net/DTD/sodipodi-0.dtd"
   xmlns="http://www.w3.org/2000/svg"
   xmlns:svg="http://www.w3.org/2000/svg">
  <sodipodi:namedview
     id="namedview1"
     pagecolor="#ffffff"
     bordercolor="#000000"
     borderopacity="0.25"
     inkscape:showpageshadow="2"
     inkscape:pageopacity="0.0"
     inkscape:pagecheckerboard="0"
     inkscape:deskcolor="#d1d1d1"
     inkscape:document-units="mm"
     inkscape:zoom="1.7131103"
     inkscape:cx="-123.45965"
     inkscape:cy="310.2544"
     inkscape:window-width="3840"
     inkscape:window-height="2123"
     inkscape:window-x="0"
     inkscape:window-y="0"
     inkscape:window-maximized="1"
     inkscape:current-layer="layer1" />
  <defs
     id="defs1">
    <clipPath
       id="c0_21">
      <path
         d="M 0,825 V 0 h 1100 v 825 z"
         id="path2" />
    </clipPath>
  </defs>
  <g
     inkscape:label="Layer 1"
     inkscape:groupmode="layer"
     id="layer1"
     transform="translate(-137.58333,-66.410414)">
    <g
       clip-path="url(#c0_21)"
       id="g31"
       transform="matrix(0.26458333,0,0,0.26458333,115.00135,-50.427017)"
       style="display:block">
      <text
         x="95.900002"
         y="740.79999"
         class="s5_21"
         id="text29"
         style="font-size:22.92px;font-family:MS-PGothic_bp;white-space:pre;fill:#000000">Single lane road</text>
      <text
         x="222"
         y="740.79999"
         class="s6_21"
         id="text30"
         style="font-size:22.92px;font-family:ArialMT_bl;white-space:pre;fill:#000000" />
    </g>
    <path
       fill-rule="evenodd"
       d="m 142.33683,68.909962 h 41.69833 V 137.2783 h -41.69833 z"
       class="g3_21"
       id="path61"
       style="display:block;fill:#666666;stroke-width:0.264583" />
    <path
       fill-rule="evenodd"
       d="M 146.25266,68.777671 V 137.56934 Z"
       class="g1_21"
       id="path62"
       style="display:block;fill:#000000;fill-opacity:0;stroke-width:0.264583" />
    <path
       d="M 146.25266,68.777671 V 137.56934"
       class="g4_21"
       id="path63"
       style="display:block;fill:none;stroke:#ffffff;stroke-width:1.21259;stroke-linejoin:round" />
    <path
       fill-rule="evenodd"
       d="M 180.46329,68.777671 V 137.56934 Z"
       class="g1_21"
       id="path64"
       style="display:block;fill:#000000;fill-opacity:0;stroke-width:0.264583" />
    <path
       d="M 180.46329,68.777671 V 137.56934"
       class="g4_21"
       id="path65"
       style="display:block;fill:none;stroke:#ffffff;stroke-width:1.21259;stroke-linejoin:round" />
    <path
       fill-rule="evenodd"
       d="M 154.32246,121.11226 V 105.5283 Z"
       class="g1_21"
       id="path66"
       style="display:block;fill:#000000;fill-opacity:0;stroke-width:0.264583" />
    <path
       d="m 154.32246,121.11226 v -8.30792"
       class="ga_21"
       id="path67"
       style="display:block;fill:none;stroke:#ff9900;stroke-width:1.21259;stroke-linejoin:round" />
    <path
       fill-rule="evenodd"
       d="m 156.33329,112.80434 -2.01083,-5.50333 -1.98438,5.50333 z"
       class="gb_21"
       id="path68"
       style="display:block;fill:#ff9900;stroke:#ff9900;stroke-width:1.21259;stroke-miterlimit:10" />
    <path
       fill-rule="evenodd"
       d="M 173.10787,86.478296 V 102.06225 Z"
       class="g1_21"
       id="path69"
       style="display:block;fill:#000000;fill-opacity:0;stroke-width:0.264583" />
    <path
       d="m 173.10787,86.478296 v 8.307916"
       class="ga_21"
       id="path70"
       style="display:block;fill:none;stroke:#ff9900;stroke-width:1.21259;stroke-linejoin:round" />
    <path
       fill-rule="evenodd"
       d="m 171.09704,94.786212 2.01083,5.503338 2.01084,-5.503338 z"
       class="gb_21"
       id="path71"
       style="display:block;fill:#ff9900;stroke:#ff9900;stroke-width:1.21259;stroke-miterlimit:10" />
    <path
       fill-rule="evenodd"
       d="m 150.82996,124.36663 v 0 c 0,-0.0794 0.0529,-0.13229 0.10583,-0.13229 h 0.47625 c 0.0265,0 0.0529,0.0265 0.0794,0.0529 0.0265,0 0.0265,0.0529 0.0265,0.0794 v 1.905 c 0,0.0529 -0.0529,0.10583 -0.10583,0.10583 h -0.47625 c -0.0529,0 -0.10583,-0.0529 -0.10583,-0.10583 z"
       class="gc_21"
       id="path72"
       style="display:block;fill:#000000;stroke-width:0.264583" />
    <path
       fill-rule="evenodd"
       d="m 157.07412,124.36663 v 0 c 0,-0.0794 0.0529,-0.13229 0.13229,-0.13229 h 0.4498 c 0.0529,0 0.0794,0.0265 0.0794,0.0529 0.0265,0 0.0529,0.0529 0.0529,0.0794 v 1.905 c 0,0.0529 -0.0529,0.10583 -0.13229,0.10583 h -0.4498 c -0.0794,0 -0.13229,-0.0529 -0.13229,-0.10583 z"
       class="gc_21"
       id="path73"
       style="display:block;fill:#000000;stroke-width:0.264583" />
    <path
       fill-rule="evenodd"
       d="m 150.82996,132.17184 v 0 c 0,-0.0794 0.0529,-0.13229 0.10583,-0.13229 h 0.47625 c 0.0265,0 0.0529,0.0265 0.0794,0.0265 0.0265,0.0265 0.0265,0.0529 0.0265,0.10583 v 1.87854 c 0,0.0794 -0.0529,0.13229 -0.10583,0.13229 h -0.47625 c -0.0529,0 -0.10583,-0.0529 -0.10583,-0.13229 z"
       class="gc_21"
       id="path74"
       style="display:block;fill:#000000;stroke-width:0.264583" />
    <path
       fill-rule="evenodd"
       d="m 157.07412,132.17184 v 0 c 0,-0.0794 0.0529,-0.13229 0.13229,-0.13229 h 0.4498 c 0.0529,0 0.0794,0.0265 0.0794,0.0265 0.0265,0.0265 0.0529,0.0529 0.0529,0.10583 v 1.87854 c 0,0.0794 -0.0529,0.13229 -0.13229,0.13229 h -0.4498 c -0.0794,0 -0.13229,-0.0529 -0.13229,-0.13229 z"
       class="gc_21"
       id="path75"
       style="display:block;fill:#000000;stroke-width:0.264583" />
    <path
       fill-rule="evenodd"
       d="m 151.06808,124.07559 v 0 c 0,-0.97896 0.79375,-1.79917 1.79917,-1.79917 h 2.93687 c 0.47625,0 0.9525,0.18521 1.29646,0.52917 0.3175,0.34396 0.52917,0.79375 0.52917,1.27 v 10.21292 c 0,1.00541 -0.82021,1.79916 -1.82563,1.79916 h -2.93687 c -1.00542,0 -1.79917,-0.79375 -1.79917,-1.79916 z"
       class="gd_21"
       id="path76"
       style="display:block;fill:#3d85c6;stroke-width:0.264583" />
    <path
       fill-rule="evenodd"
       d="m 153.71391,122.19705 v 0 c 0,-0.0265 0.0265,-0.0529 0.0529,-0.0529 h 1.13771 c 0,0 0.0265,0 0.0265,0 0,0.0265 0.0265,0.0265 0.0265,0.0529 v 0.18521 c 0,0.0264 -0.0265,0.0529 -0.0529,0.0529 h -1.13771 c -0.0265,0 -0.0529,-0.0265 -0.0529,-0.0529 z"
       class="ge_21"
       id="path77"
       style="display:block;fill:#efefef;stroke-width:0.264583" />
    <path
       fill-rule="evenodd"
       d="m 151.99412,122.83205 0.0794,0.42333 0.50271,-0.13229 0.10583,-0.0529 0.0529,-0.0529 v -0.0794 l -0.0265,-0.10583 -0.0265,-0.0529 -0.13229,-0.0265 -0.21167,0.0265 z"
       class="g0_21"
       id="path78"
       style="display:block;fill:#ffffff;stroke-width:0.264583" />
    <path
       fill-rule="evenodd"
       d="m 156.65079,122.83205 -0.0794,0.42333 -0.5027,-0.13229 -0.10584,-0.0529 -0.0529,-0.0529 v -0.0794 l 0.0265,-0.10583 0.0265,-0.0529 0.13229,-0.0265 0.21167,0.0265 z"
       class="g0_21"
       id="path79"
       style="display:block;fill:#ffffff;stroke-width:0.264583" />
    <path
       fill-rule="evenodd"
       d="m 151.83537,126.64205 0.42334,1.37583 0.0794,0.10583 0.13229,0.0794 3.62479,-0.0265 0.1323,-0.0265 0.10583,-0.10583 0.42333,-1.19063 v -0.15875 l -0.0794,-0.13229 -0.50271,-0.18521 -0.74083,-0.13229 -0.58209,-0.0794 h -0.68791 l -0.4498,0.0265 -0.3175,0.0264 -0.42333,0.0529 -0.39687,0.10583 -0.29105,0.0794 -0.29104,0.10583 z"
       class="gf_21"
       id="path80"
       style="display:block;fill:#9fc5e8;stroke-width:0.264583" />
    <path
       d="m 151.83537,126.64205 0.42334,1.37583 0.0794,0.10583 0.13229,0.0794 3.62479,-0.0265 0.1323,-0.0265 0.10583,-0.10583 0.42333,-1.19063 v -0.15875 l -0.0794,-0.13229 -0.50271,-0.18521 -0.74083,-0.13229 -0.58209,-0.0794 h -0.68791 l -0.4498,0.0265 -0.3175,0.0264 -0.42333,0.0529 -0.39687,0.10583 -0.29105,0.0794 -0.29104,0.10583 z"
       class="gg_21"
       id="path81"
       style="display:block;fill:none;stroke:#073763;stroke-width:0.302948;stroke-linejoin:round" />
    <path
       fill-rule="evenodd"
       d="m 151.4385,127.1183 v 6.87916 l 0.0529,0.1323 0.1323,0.0529 0.5027,-0.47625 0.15875,-0.26458 0.0794,-0.23813 -0.0794,-4.02166 -0.0529,-0.29104 -0.18521,-0.52917 -0.21167,-0.52917 z"
       class="gf_21"
       id="path82"
       style="display:block;fill:#9fc5e8;stroke-width:0.264583" />
    <path
       d="m 151.4385,127.1183 v 6.87916 l 0.0529,0.1323 0.1323,0.0529 0.5027,-0.47625 0.15875,-0.26458 0.0794,-0.23813 -0.0794,-4.02166 -0.0529,-0.29104 -0.18521,-0.52917 -0.21167,-0.52917 z"
       class="gg_21"
       id="path83"
       style="display:block;fill:none;stroke:#073763;stroke-width:0.302948;stroke-linejoin:round" />
    <path
       fill-rule="evenodd"
       d="m 157.28579,127.19767 v 6.87917 l -0.0529,0.13229 -0.13229,0.0529 -0.50271,-0.47625 -0.15875,-0.26459 -0.0794,-0.23812 0.0794,-4.02167 0.0529,-0.29104 0.18521,-0.52917 0.21166,-0.52916 z"
       class="gf_21"
       id="path84"
       style="display:block;fill:#9fc5e8;stroke-width:0.264583" />
    <path
       d="m 157.28579,127.19767 v 6.87917 l -0.0529,0.13229 -0.13229,0.0529 -0.50271,-0.47625 -0.15875,-0.26459 -0.0794,-0.23812 0.0794,-4.02167 0.0529,-0.29104 0.18521,-0.52917 0.21166,-0.52916 z"
       class="gg_21"
       id="path85"
       style="display:block;fill:none;stroke:#073763;stroke-width:0.302948;stroke-linejoin:round" />
    <path
       fill-rule="evenodd"
       d="m 151.4385,127.06538 -0.13229,-0.0529 -0.18521,0.0265 -0.13229,0.0265 -0.18521,0.0529 -0.13229,0.10583 -0.0265,0.10583 v 0.10584 l 0.10583,0.0794 0.13229,0.0794 0.23813,0.0265 h 0.18521 l 0.13229,-0.0529 0.10583,-0.13229 0.0265,-0.10584 v -0.10583 l -0.0529,-0.0794 z"
       class="gh_21"
       id="path86"
       style="display:block;fill:#0b5394;stroke-width:0.264583" />
    <path
       fill-rule="evenodd"
       d="m 157.20641,127.06538 0.1323,-0.0529 0.1852,0.0265 0.15875,0.0265 0.18521,0.0529 0.10584,0.10583 0.0529,0.10583 v 0.10584 l -0.10583,0.0794 -0.15875,0.0794 -0.23813,0.0265 h -0.15875 l -0.15875,-0.0529 -0.0794,-0.13229 -0.0529,-0.10584 v -0.10583 l 0.0529,-0.0794 z"
       class="gh_21"
       id="path87"
       style="display:block;fill:#0b5394;stroke-width:0.264583" />
    <path
       fill-rule="evenodd"
       d="m 153.71391,135.92892 v 0 c 0,-0.0265 0.0265,-0.0529 0.0529,-0.0529 h 1.13771 c 0,0 0.0265,0.0265 0.0265,0.0265 0,0 0.0265,0.0265 0.0265,0.0265 v 0.21167 c 0,0.0265 -0.0265,0.0529 -0.0529,0.0529 h -1.13771 c -0.0265,0 -0.0529,-0.0265 -0.0529,-0.0529 z"
       class="ge_21"
       id="path88"
       style="display:block;fill:#efefef;stroke-width:0.264583" />
    <path
       fill-rule="evenodd"
       d="m 151.99412,136.16705 0.0794,-0.42334 0.50271,0.1323 0.10583,0.0529 0.0529,0.0529 v 0.0794 l -0.0265,0.0794 -0.0265,0.0794 -0.13229,0.0265 -0.21167,-0.0265 z"
       class="gh_21"
       id="path89"
       style="display:block;fill:#0b5394;stroke-width:0.264583" />
    <path
       fill-rule="evenodd"
       d="m 156.65079,136.16705 -0.0794,-0.42334 -0.5027,0.1323 -0.10584,0.0529 -0.0529,0.0529 v 0.0794 l 0.0265,0.0794 0.0265,0.0794 0.13229,0.0265 0.21167,-0.0265 z"
       class="gh_21"
       id="path90"
       style="display:block;fill:#0b5394;stroke-width:0.264583" />
    <path
       fill-rule="evenodd"
       d="m 152.68204,133.91809 h -0.10583 l -0.87313,0.74083 -0.0794,0.15875 0.0264,0.15875 0.26459,0.18521 0.34396,0.13229 0.5027,0.10584 0.50271,0.0794 0.55563,0.0529 h 0.58208 l 0.58208,-0.0265 0.58209,-0.0265 0.635,-0.13229 0.44979,-0.15875 0.29104,-0.21167 0.0794,-0.15875 -0.10584,-0.15875 -0.79375,-0.66146 -0.0794,-0.0794 -0.87313,-0.0265 h -1.71979 z"
       class="gf_21"
       id="path91"
       style="display:block;fill:#9fc5e8;stroke-width:0.264583" />
    <path
       d="m 152.68204,133.91809 h -0.10583 l -0.87313,0.74083 -0.0794,0.15875 0.0264,0.15875 0.26459,0.18521 0.34396,0.13229 0.5027,0.10584 0.50271,0.0794 0.55563,0.0529 h 0.58208 l 0.58208,-0.0265 0.58209,-0.0265 0.635,-0.13229 0.44979,-0.15875 0.29104,-0.21167 0.0794,-0.15875 -0.10584,-0.15875 -0.79375,-0.66146 -0.0794,-0.0794 -0.87313,-0.0265 h -1.71979 z"
       class="gg_21"
       id="path92"
       style="display:block;fill:none;stroke:#073763;stroke-width:0.302948;stroke-linejoin:round" />
    <path
       fill-rule="evenodd"
       d="m 152.73496,122.88496 c 0.13229,-0.0265 0.52916,-0.0794 0.84666,-0.0794 0.3175,-0.0265 0.79375,-0.0265 1.08479,0 0.26459,0 0.42334,0.0265 0.60855,0.0265 0.21166,0.0265 0.47625,0.0529 0.58208,0.0529 z"
       class="g1_21"
       id="path93"
       style="display:block;fill:#000000;fill-opacity:0;stroke-width:0.264583" />
    <path
       d="m 152.73496,122.88496 c 0.13229,-0.0265 0.52916,-0.0794 0.84666,-0.0794 0.3175,-0.0265 0.79375,-0.0265 1.08479,0 0.26459,0 0.42334,0.0265 0.60855,0.0265 0.21166,0.0265 0.47625,0.0529 0.58208,0.0529"
       class="gg_21"
       id="path94"
       style="display:block;fill:none;stroke:#073763;stroke-width:0.302948;stroke-linejoin:round" />
    <path
       fill-rule="evenodd"
       d="m 151.78246,123.25538 c -0.0265,0 -0.0794,0.0265 -0.10584,0.13229 -0.0265,0.0794 -0.0529,0.21167 -0.0794,0.39688 -0.0265,0.21166 -0.10584,0.55562 -0.13229,0.79375 -0.0265,0.26458 -0.0265,0.47625 0,0.71437 0,0.21167 0.0264,0.37042 0.0794,0.60854 0.0529,0.21167 0.18521,0.60855 0.21167,0.74084 z"
       class="g1_21"
       id="path95"
       style="display:block;fill:#000000;fill-opacity:0;stroke-width:0.264583" />
    <path
       d="m 151.78246,123.25538 c -0.0265,0 -0.0794,0.0265 -0.10584,0.13229 -0.0265,0.0794 -0.0529,0.21167 -0.0794,0.39688 -0.0265,0.21166 -0.10584,0.55562 -0.13229,0.79375 -0.0265,0.26458 -0.0265,0.47625 0,0.71437 0,0.21167 0.0264,0.37042 0.0794,0.60854 0.0529,0.21167 0.18521,0.60855 0.21167,0.74084"
       class="gg_21"
       id="path96"
       style="display:block;fill:none;stroke:#073763;stroke-width:0.302948;stroke-linejoin:round" />
    <path
       fill-rule="evenodd"
       d="m 156.836,123.20246 c 0.0265,0.0265 0.0794,0.10584 0.10583,0.18521 0.0265,0.0794 0.0265,0.15875 0.0794,0.3175 0.0264,0.13229 0.0794,0.34396 0.10583,0.52917 0.0265,0.21167 0.0265,0.39687 0.0265,0.635 0,0.21167 -0.0265,0.50271 -0.0265,0.66146 0,0.15875 0.0265,0.10583 0,0.29104 -0.0529,0.15875 -0.21167,0.66146 -0.23813,0.79375 z"
       class="g1_21"
       id="path97"
       style="display:block;fill:#000000;fill-opacity:0;stroke-width:0.264583" />
    <path
       d="m 156.836,123.20246 c 0.0265,0.0265 0.0794,0.10584 0.10583,0.18521 0.0265,0.0794 0.0265,0.15875 0.0794,0.3175 0.0264,0.13229 0.0794,0.34396 0.10583,0.52917 0.0265,0.21167 0.0265,0.39687 0.0265,0.635 0,0.21167 -0.0265,0.50271 -0.0265,0.66146 0,0.15875 0.0265,0.10583 0,0.29104 -0.0529,0.15875 -0.21167,0.66146 -0.23813,0.79375"
       class="gg_21"
       id="path98"
       style="display:block;fill:none;stroke:#073763;stroke-width:0.302948;stroke-linejoin:round" />
    <path
       fill-rule="evenodd"
       d="m 154.95746,126.50976 -1.95792,1.40229 h -0.26458 l -0.18521,-0.0265 -0.13229,-0.0794 -0.0794,-0.0794 -0.34396,-0.82021 0.0265,-0.10583 0.0794,-0.0529 0.5027,-0.13229 0.55563,-0.0794 0.58208,-0.0529 0.42334,-0.0265 0.44979,0.0265 z"
       class="gi_21"
       id="path99"
       style="display:block;fill:#cfe2f3;stroke-width:0.264583" />
    <path
       fill-rule="evenodd"
       d="m 176.62683,82.456629 v 0 c 0,0.05292 -0.0529,0.105833 -0.13229,0.105833 h -0.47625 c -0.0265,0 -0.0529,0 -0.0794,-0.02646 -0.0265,-0.02646 -0.0265,-0.05292 -0.0265,-0.07937 v -1.905 c 0,-0.07937 0.0529,-0.132292 0.10583,-0.132292 h 0.47625 c 0.0794,0 0.13229,0.05292 0.13229,0.132292 z"
       class="gc_21"
       id="path100"
       style="display:block;fill:#000000;stroke-width:0.264583" />
    <path
       fill-rule="evenodd"
       d="m 170.35621,82.456629 v 0 c 0,0.05292 -0.0529,0.105833 -0.10584,0.105833 h -0.47625 c -0.0265,0 -0.0529,0 -0.0794,-0.02646 -0.0265,-0.02646 -0.0265,-0.05292 -0.0265,-0.07937 v -1.905 c 0,-0.07937 0.0529,-0.132292 0.10583,-0.132292 h 0.47625 c 0.0529,0 0.10584,0.05292 0.10584,0.132292 z"
       class="gc_21"
       id="path101"
       style="display:block;fill:#000000;stroke-width:0.264583" />
    <path
       fill-rule="evenodd"
       d="m 176.62683,74.651421 v 0 c 0,0.05292 -0.0529,0.105833 -0.13229,0.105833 h -0.47625 c -0.0265,0 -0.0529,0 -0.0794,-0.02646 -0.0265,-0.02646 -0.0265,-0.05292 -0.0265,-0.07937 v -1.905 c 0,-0.05292 0.0529,-0.105834 0.10583,-0.105834 h 0.47625 c 0.0794,0 0.13229,0.05292 0.13229,0.105834 z"
       class="gc_21"
       id="path102"
       style="display:block;fill:#000000;stroke-width:0.264583" />
    <path
       fill-rule="evenodd"
       d="m 170.35621,74.651421 v 0 c 0,0.05292 -0.0529,0.105833 -0.10584,0.105833 h -0.47625 c -0.0265,0 -0.0529,0 -0.0794,-0.02646 -0.0265,-0.02646 -0.0265,-0.05292 -0.0265,-0.07937 v -1.905 c 0,-0.05292 0.0529,-0.105834 0.10583,-0.105834 h 0.47625 c 0.0529,0 0.10584,0.05292 0.10584,0.105834 z"
       class="gc_21"
       id="path103"
       style="display:block;fill:#000000;stroke-width:0.264583" />
    <path
       fill-rule="evenodd"
       d="m 176.36225,82.721212 v 0 c 0,1.005417 -0.79375,1.799167 -1.79917,1.799167 h -2.93687 c -0.47625,0 -0.92605,-0.185208 -1.27,-0.529167 -0.34396,-0.343958 -0.52917,-0.79375 -0.52917,-1.27 V 72.508296 c 0,-0.978959 0.79375,-1.799167 1.79917,-1.799167 h 2.93687 c 1.00542,0 1.79917,0.820208 1.79917,1.799167 z"
       class="gd_21"
       id="path104"
       style="display:block;fill:#3d85c6;stroke-width:0.264583" />
    <path
       fill-rule="evenodd"
       d="m 173.74287,84.626212 v 0 c 0,0.02646 -0.0265,0.05292 -0.0529,0.05292 h -1.13771 q -0.0265,0 -0.0529,-0.02646 c 0,0 0,-0.02646 0,-0.02646 v -0.211666 c 0,-0.02646 0.0265,-0.05292 0.0529,-0.05292 h 1.13771 c 0.0265,0 0.0529,0.02646 0.0529,0.05292 z"
       class="ge_21"
       id="path105"
       style="display:block;fill:#efefef;stroke-width:0.264583" />
    <path
       fill-rule="evenodd"
       d="m 175.43621,83.964754 -0.0529,-0.396875 -0.50271,0.132292 -0.10583,0.02646 -0.0794,0.07938 v 0.05292 l 0.0265,0.105833 0.0265,0.07937 h 0.34396 z"
       class="g0_21"
       id="path106"
       style="display:block;fill:#ffffff;stroke-width:0.264583" />
    <path
       fill-rule="evenodd"
       d="m 170.806,83.964754 0.0529,-0.396875 0.50271,0.132292 0.10584,0.02646 0.0529,0.07938 0.0265,0.05292 -0.0265,0.105833 -0.0529,0.07937 h -0.34396 z"
       class="g0_21"
       id="path107"
       style="display:block;fill:#ffffff;stroke-width:0.264583" />
    <path
       fill-rule="evenodd"
       d="m 175.59496,80.154754 -0.42334,-1.375833 -0.0794,-0.07937 -0.13229,-0.07937 h -3.6248 l -0.10583,0.05292 -0.13229,0.105834 -0.42333,1.190625 v 0.15875 l 0.10583,0.132291 0.47625,0.15875 0.74083,0.15875 0.60854,0.07937 0.68792,-0.02646 h 0.42333 l 0.3175,-0.02646 0.4498,-0.05292 0.37041,-0.105833 0.3175,-0.105834 0.29104,-0.105833 z"
       class="gf_21"
       id="path108"
       style="display:block;fill:#9fc5e8;stroke-width:0.264583" />
    <path
       d="m 175.59496,80.154754 -0.42334,-1.375833 -0.0794,-0.07937 -0.13229,-0.07937 h -3.6248 l -0.10583,0.05292 -0.13229,0.105834 -0.42333,1.190625 v 0.15875 l 0.10583,0.132291 0.47625,0.15875 0.74083,0.15875 0.60854,0.07937 0.68792,-0.02646 h 0.42333 l 0.3175,-0.02646 0.4498,-0.05292 0.37041,-0.105833 0.3175,-0.105834 0.29104,-0.105833 z"
       class="gg_21"
       id="path109"
       style="display:block;fill:none;stroke:#073763;stroke-width:0.302948;stroke-linejoin:round" />
    <path
       fill-rule="evenodd"
       d="m 175.99183,79.678504 v -6.879167 l -0.0265,-0.105833 -0.13229,-0.05292 -0.52917,0.449792 -0.13229,0.264583 -0.10583,0.264584 0.0794,4.021666 0.0529,0.291042 0.18521,0.529167 0.21167,0.529166 z"
       class="gf_21"
       id="path110"
       style="display:block;fill:#9fc5e8;stroke-width:0.264583" />
    <path
       d="m 175.99183,79.678504 v -6.879167 l -0.0265,-0.105833 -0.13229,-0.05292 -0.52917,0.449792 -0.13229,0.264583 -0.10583,0.264584 0.0794,4.021666 0.0529,0.291042 0.18521,0.529167 0.21167,0.529166 z"
       class="gg_21"
       id="path111"
       style="display:block;fill:none;stroke:#073763;stroke-width:0.302948;stroke-linejoin:round" />
    <path
       fill-rule="evenodd"
       d="m 170.171,79.599129 v -6.852708 l 0.0265,-0.132292 0.13229,-0.05292 0.50271,0.449792 0.15875,0.291042 0.0794,0.238125 -0.0794,4.021666 -0.0529,0.291042 -0.15875,0.529167 -0.23813,0.529166 z"
       class="gf_21"
       id="path112"
       style="display:block;fill:#9fc5e8;stroke-width:0.264583" />
    <path
       d="m 170.171,79.599129 v -6.852708 l 0.0265,-0.132292 0.13229,-0.05292 0.50271,0.449792 0.15875,0.291042 0.0794,0.238125 -0.0794,4.021666 -0.0529,0.291042 -0.15875,0.529167 -0.23813,0.529166 z"
       class="gg_21"
       id="path113"
       style="display:block;fill:none;stroke:#073763;stroke-width:0.302948;stroke-linejoin:round" />
    <path
       fill-rule="evenodd"
       d="m 175.99183,79.757879 0.13229,0.02646 h 0.18521 l 0.13229,-0.02646 0.18521,-0.07937 0.13229,-0.105833 0.0265,-0.105834 v -0.07937 l -0.0794,-0.105833 -0.15875,-0.05292 -0.23813,-0.05292 h -0.15875 l -0.15875,0.07937 -0.10583,0.132291 -0.0265,0.07937 v 0.105834 l 0.0529,0.105833 z"
       class="gh_21"
       id="path114"
       style="display:block;fill:#0b5394;stroke-width:0.264583" />
    <path
       fill-rule="evenodd"
       d="m 170.22391,79.757879 -0.13229,0.02646 h -0.18521 l -0.13229,-0.02646 -0.18521,-0.07937 -0.13229,-0.105833 -0.0265,-0.105834 v -0.07937 l 0.0794,-0.105833 0.15875,-0.05292 0.23812,-0.05292 h 0.18521 l 0.13229,0.07937 0.10584,0.132291 0.0265,0.07937 v 0.105834 l -0.0529,0.105833 z"
       class="gh_21"
       id="path115"
       style="display:block;fill:#0b5394;stroke-width:0.264583" />
    <path
       fill-rule="evenodd"
       d="m 173.74287,70.867879 v 0 c 0,0.02646 -0.0265,0.05292 -0.0529,0.05292 h -1.13771 q -0.0265,0 -0.0529,-0.02646 v -0.211666 c 0,-0.02646 0.0265,-0.05292 0.0529,-0.05292 h 1.13771 c 0.0265,0 0.0529,0.02646 0.0529,0.05292 z"
       class="ge_21"
       id="path116"
       style="display:block;fill:#efefef;stroke-width:0.264583" />
    <path
       fill-rule="evenodd"
       d="m 175.43621,70.656212 -0.0529,0.396875 -0.50271,-0.132291 -0.10583,-0.05292 -0.0794,-0.05292 v -0.05292 l 0.0265,-0.105834 0.0265,-0.07937 h 0.34396 z"
       class="gh_21"
       id="path117"
       style="display:block;fill:#0b5394;stroke-width:0.264583" />
    <path
       fill-rule="evenodd"
       d="m 170.806,70.656212 0.0529,0.396875 0.50271,-0.132291 0.10584,-0.05292 0.0529,-0.05292 0.0265,-0.05292 -0.0265,-0.105834 -0.0529,-0.07937 h -0.34396 z"
       class="gh_21"
       id="path118"
       style="display:block;fill:#0b5394;stroke-width:0.264583" />
    <path
       fill-rule="evenodd"
       d="m 174.74829,72.905171 0.13229,-0.02646 0.84667,-0.740833 0.10583,-0.15875 -0.0529,-0.132292 -0.26458,-0.185208 -0.34396,-0.132292 -0.47625,-0.132291 -0.52916,-0.05292 -0.55563,-0.07937 -0.55562,0.02646 -0.60855,0.02646 -0.58208,0.02646 -0.635,0.132292 -0.42333,0.132291 -0.3175,0.211667 -0.0529,0.185208 0.0794,0.15875 0.79375,0.661459 0.0794,0.05292 0.89958,0.05292 h 1.00542 l 0.68792,-0.02646 z"
       class="gf_21"
       id="path119"
       style="display:block;fill:#9fc5e8;stroke-width:0.264583" />
    <path
       d="m 174.74829,72.905171 0.13229,-0.02646 0.84667,-0.740833 0.10583,-0.15875 -0.0529,-0.132292 -0.26458,-0.185208 -0.34396,-0.132292 -0.47625,-0.132291 -0.52916,-0.05292 -0.55563,-0.07937 -0.55562,0.02646 -0.60855,0.02646 -0.58208,0.02646 -0.635,0.132292 -0.42333,0.132291 -0.3175,0.211667 -0.0529,0.185208 0.0794,0.15875 0.79375,0.661459 0.0794,0.05292 0.89958,0.05292 h 1.00542 l 0.68792,-0.02646 z"
       class="gg_21"
       id="path120"
       style="display:block;fill:none;stroke:#073763;stroke-width:0.302948;stroke-linejoin:round" />
    <path
       fill-rule="evenodd"
       d="m 174.69537,83.938296 c -0.13229,0 -0.52916,0.05292 -0.84666,0.05292 -0.3175,0.02646 -0.7673,0.02646 -1.05834,0.02646 -0.29104,0 -0.42333,-0.02646 -0.635,-0.05292 -0.21166,0 -0.47625,-0.05292 -0.58208,-0.05292 z"
       class="g1_21"
       id="path121"
       style="display:block;fill:#000000;fill-opacity:0;stroke-width:0.264583" />
    <path
       d="m 174.69537,83.938296 c -0.13229,0 -0.52916,0.05292 -0.84666,0.05292 -0.3175,0.02646 -0.7673,0.02646 -1.05834,0.02646 -0.29104,0 -0.42333,-0.02646 -0.635,-0.05292 -0.21166,0 -0.47625,-0.05292 -0.58208,-0.05292"
       class="gg_21"
       id="path122"
       style="display:block;fill:none;stroke:#073763;stroke-width:0.302948;stroke-linejoin:round" />
    <path
       fill-rule="evenodd"
       d="m 175.67433,83.567879 c 0,-0.02646 0.0794,-0.05292 0.10583,-0.132292 0.0265,-0.105833 0.0265,-0.211666 0.0529,-0.423333 0.0529,-0.211667 0.10583,-0.555625 0.13229,-0.79375 0.0265,-0.238125 0.0265,-0.47625 0.0265,-0.687917 -0.0265,-0.211666 -0.0529,-0.396875 -0.10583,-0.608541 -0.0529,-0.238125 -0.15875,-0.635 -0.21167,-0.740834 z"
       class="g1_21"
       id="path123"
       style="display:block;fill:#000000;fill-opacity:0;stroke-width:0.264583" />
    <path
       d="m 175.67433,83.567879 c 0,-0.02646 0.0794,-0.05292 0.10583,-0.132292 0.0265,-0.105833 0.0265,-0.211666 0.0529,-0.423333 0.0529,-0.211667 0.10583,-0.555625 0.13229,-0.79375 0.0265,-0.238125 0.0265,-0.47625 0.0265,-0.687917 -0.0265,-0.211666 -0.0529,-0.396875 -0.10583,-0.608541 -0.0529,-0.238125 -0.15875,-0.635 -0.21167,-0.740834"
       class="gg_21"
       id="path124"
       style="display:block;fill:none;stroke:#073763;stroke-width:0.302948;stroke-linejoin:round" />
    <path
       fill-rule="evenodd"
       d="m 170.59433,83.594337 c -0.0265,-0.02646 -0.0794,-0.07937 -0.10583,-0.185208 -0.0265,-0.07937 -0.0265,-0.15875 -0.0529,-0.291042 -0.0265,-0.15875 -0.0794,-0.370416 -0.10583,-0.555625 -0.0265,-0.185208 -0.0529,-0.396875 -0.0529,-0.608541 0,-0.211667 0.0265,-0.502709 0.0265,-0.661459 0.0265,-0.15875 -0.0265,-0.105833 0.0265,-0.291041 0.0265,-0.185209 0.18521,-0.661459 0.23812,-0.79375 z"
       class="g1_21"
       id="path125"
       style="display:block;fill:#000000;fill-opacity:0;stroke-width:0.264583" />
    <path
       d="m 170.59433,83.594337 c -0.0265,-0.02646 -0.0794,-0.07937 -0.10583,-0.185208 -0.0265,-0.07937 -0.0265,-0.15875 -0.0529,-0.291042 -0.0265,-0.15875 -0.0794,-0.370416 -0.10583,-0.555625 -0.0265,-0.185208 -0.0529,-0.396875 -0.0529,-0.608541 0,-0.211667 0.0265,-0.502709 0.0265,-0.661459 0.0265,-0.15875 -0.0265,-0.105833 0.0265,-0.291041 0.0265,-0.185209 0.18521,-0.661459 0.23812,-0.79375"
       class="gg_21"
       id="path126"
       style="display:block;fill:none;stroke:#073763;stroke-width:0.302948;stroke-linejoin:round" />
    <path
       fill-rule="evenodd"
       d="m 172.47287,80.313504 1.95792,-1.402292 0.29104,-0.02646 0.15875,0.05292 0.13229,0.05292 0.0794,0.105834 0.34396,0.820208 -0.0265,0.07937 -0.0794,0.05292 -0.47625,0.132291 -0.55562,0.07937 -0.60854,0.07937 h -0.87313 z"
       class="gi_21"
       id="path127"
       style="display:block;fill:#cfe2f3;stroke-width:0.264583" />
  </g>
</svg>
