<?xml version="1.0" encoding="UTF-8" standalone="no"?>
<!-- Created with Inkscape (http://www.inkscape.org/) -->

<svg
   width="138.586mm"
   height="67.862999mm"
   viewBox="0 0 138.586 67.862998"
   version="1.1"
   id="svg1"
   inkscape:version="1.3.2 (1:1.3.2+202311252150+091e20ef0f)"
   sodipodi:docname="vm-03-11_2.svg"
   xmlns:inkscape="http://www.inkscape.org/namespaces/inkscape"
   xmlns:sodipodi="http://sodipodi.sourceforge.net/DTD/sodipodi-0.dtd"
   xmlns="http://www.w3.org/2000/svg"
   xmlns:svg="http://www.w3.org/2000/svg">
  <sodipodi:namedview
     id="namedview1"
     pagecolor="#ffffff"
     bordercolor="#000000"
     borderopacity="0.25"
     inkscape:showpageshadow="2"
     inkscape:pageopacity="0.0"
     inkscape:pagecheckerboard="0"
     inkscape:deskcolor="#d1d1d1"
     inkscape:document-units="mm"
     inkscape:zoom="1.7131103"
     inkscape:cx="254.79971"
     inkscape:cy="120.54099"
     inkscape:window-width="3840"
     inkscape:window-height="2123"
     inkscape:window-x="0"
     inkscape:window-y="0"
     inkscape:window-maximized="1"
     inkscape:current-layer="layer1" />
  <defs
     id="defs1">
    <clipPath
       id="c0_44">
      <path
         d="M 0,825 V 0 h 1100 v 825 z"
         id="path2" />
    </clipPath>
    <clipPath
       id="clipPath1">
      <path
         d="M 0,825 V 0 h 1100 v 825 z"
         id="path1" />
    </clipPath>
    <clipPath
       id="clipPath3">
      <path
         d="M 0,825 V 0 h 1100 v 825 z"
         id="path3" />
    </clipPath>
  </defs>
  <g
     inkscape:label="Layer 1"
     inkscape:groupmode="layer"
     id="layer1"
     transform="translate(-37.570828,-116.68125)">
    <path
       fill-rule="evenodd"
       d="m 37.570828,116.68125 h 44.000208 v 18.62667 H 37.570828 Z"
       class="g1_44"
       id="path36"
       style="display:block;fill:#000000;fill-opacity:0;stroke-width:0.264583" />
    <path
       fill-rule="evenodd"
       d="m 40.322495,148.40479 h 45.561249 v 14.71083 H 40.322495 Z"
       class="ga_44"
       id="path136"
       style="display:block;fill:#0000ff;stroke-width:0.264583" />
    <g
       clip-path="url(#c0_44)"
       id="g137"
       style="display:block"
       transform="matrix(0.26458333,0,0,0.26458333,-95.197087,44.846875)">
      <text
         x="522.59998"
         y="414.89999"
         class="s6_44"
         id="text136"
         style="font-size:13.75px;font-family:ArialMT_bj;white-space:pre;fill:#ffffff">regulatory_element </text>
      <text
         x="530.20001"
         y="431.39999"
         class="s6_44"
         id="text137"
         style="font-size:13.75px;font-family:ArialMT_bj;white-space:pre;fill:#ffffff">subtype:right_of_way </text>
    </g>
    <path
       fill-rule="evenodd"
       d="m 87.444786,141.41979 h 23.045204 v 10.29229 H 87.444786 Z"
       class="g1_44"
       id="path137"
       style="display:block;fill:#000000;fill-opacity:0;stroke-width:0.264583" />
    <text
       clip-path="url(#c0_44)"
       x="700.59998"
       y="388.5"
       class="s7_44"
       id="text138"
       style="font-size:13.75px;font-family:ArialMT_bj;white-space:pre;display:block;fill:#000000"
       transform="matrix(0.26458333,0,0,0.26458333,-95.197087,44.846875)">yield lane </text>
    <path
       fill-rule="evenodd"
       d="M 92.313119,158.40604 H 128.4552 v 14.68438 H 92.313119 Z"
       class="g1_44"
       id="path138"
       style="display:block;fill:#000000;fill-opacity:0;stroke-width:0.264583" />
    <g
       clip-path="url(#c0_44)"
       id="g140"
       style="display:block"
       transform="matrix(0.26458333,0,0,0.26458333,-95.197087,44.846875)">
      <text
         x="719"
         y="452.70001"
         class="s7_44"
         id="text139"
         style="font-size:13.75px;font-family:ArialMT_bj;white-space:pre;fill:#000000">right_of_way </text>
      <text
         x="719"
         y="469.20001"
         class="s7_44"
         id="text140"
         style="font-size:13.75px;font-family:ArialMT_bj;white-space:pre;fill:#000000">(priority lane) </text>
    </g>
    <path
       fill-rule="evenodd"
       d="m 134.46124,118.66562 h 18.36209 v 61.85959 h -18.36209 z"
       class="g3_44"
       id="path147"
       style="display:block;fill:#666666;stroke-width:0.264583" />
    <path
       fill-rule="evenodd"
       d="m 115.33187,140.36146 h 56.70021 v 18.44146 h -56.70021 z"
       class="g3_44"
       id="path148"
       style="display:block;fill:#666666;stroke-width:0.264583" />
    <path
       fill-rule="evenodd"
       d="m 134.4877,118.79792 h 1.05834 v 20.79625 h -1.05834 z"
       class="g4_44"
       id="path149"
       style="display:block;fill:#999999;stroke-width:0.264583" />
    <path
       d="m 134.4877,118.79792 h 1.05834 v 20.79625 h -1.05834 z"
       class="g5_44"
       id="path150"
       style="display:block;fill:none;stroke:#999999;stroke-width:0.302948;stroke-linejoin:round" />
    <path
       fill-rule="evenodd"
       d="m 151.73853,118.79792 h 1.05834 v 20.79625 h -1.05834 z"
       class="g4_44"
       id="path151"
       style="display:block;fill:#999999;stroke-width:0.264583" />
    <path
       d="m 151.73853,118.79792 h 1.05834 v 20.79625 h -1.05834 z"
       class="g5_44"
       id="path152"
       style="display:block;fill:none;stroke:#999999;stroke-width:0.302948;stroke-linejoin:round" />
    <path
       fill-rule="evenodd"
       d="m 134.54062,159.59667 h 1.03187 v 20.79624 h -1.03187 z"
       class="g4_44"
       id="path153"
       style="display:block;fill:#999999;stroke-width:0.264583" />
    <path
       d="m 134.54062,159.59667 h 1.03187 v 20.79624 h -1.03187 z"
       class="g5_44"
       id="path154"
       style="display:block;fill:none;stroke:#999999;stroke-width:0.302948;stroke-linejoin:round" />
    <path
       fill-rule="evenodd"
       d="m 151.79145,159.59667 h 1.03188 v 20.79624 h -1.03188 z"
       class="g4_44"
       id="path155"
       style="display:block;fill:#999999;stroke-width:0.264583" />
    <path
       d="m 151.79145,159.59667 h 1.03188 v 20.79624 h -1.03188 z"
       class="g5_44"
       id="path156"
       style="display:block;fill:none;stroke:#999999;stroke-width:0.302948;stroke-linejoin:round" />
    <path
       fill-rule="evenodd"
       d="m 135.54604,139.59417 v 1.1377 H 115.4377 v -1.1377 z"
       class="g4_44"
       id="path157"
       style="display:block;fill:#999999;stroke-width:0.264583" />
    <path
       d="m 135.54604,139.59417 v 1.1377 H 115.4377 v -1.1377 z"
       class="g5_44"
       id="path158"
       style="display:block;fill:none;stroke:#999999;stroke-width:0.302948;stroke-linejoin:round" />
    <path
       fill-rule="evenodd"
       d="m 135.54604,158.37958 v 1.13771 H 115.4377 v -1.13771 z"
       class="g4_44"
       id="path159"
       style="display:block;fill:#999999;stroke-width:0.264583" />
    <path
       d="m 135.54604,158.37958 v 1.13771 H 115.4377 v -1.13771 z"
       class="g5_44"
       id="path160"
       style="display:block;fill:none;stroke:#999999;stroke-width:0.302948;stroke-linejoin:round" />
    <path
       fill-rule="evenodd"
       d="m 171.89978,139.64708 v 1.11125 h -20.10833 v -1.11125 z"
       class="g4_44"
       id="path161"
       style="display:block;fill:#999999;stroke-width:0.264583" />
    <path
       d="m 171.89978,139.64708 v 1.11125 h -20.10833 v -1.11125 z"
       class="g5_44"
       id="path162"
       style="display:block;fill:none;stroke:#999999;stroke-width:0.302948;stroke-linejoin:round" />
    <path
       fill-rule="evenodd"
       d="m 171.89978,158.40604 v 1.13771 h -20.10833 v -1.13771 z"
       class="g4_44"
       id="path163"
       style="display:block;fill:#999999;stroke-width:0.264583" />
    <path
       d="m 171.89978,158.40604 v 1.13771 h -20.10833 v -1.13771 z"
       class="g5_44"
       id="path164"
       style="display:block;fill:none;stroke:#999999;stroke-width:0.302948;stroke-linejoin:round" />
    <path
       fill-rule="evenodd"
       d="m 124.51291,149.62187 -9.10167,-0.0529 z"
       class="g1_44"
       id="path165"
       style="display:block;fill:#000000;fill-opacity:0;stroke-width:0.264583" />
    <path
       d="m 124.51291,149.62187 -9.10167,-0.0529"
       class="g6_44"
       id="path166"
       style="display:block;fill:none;stroke:#f3f3f3;stroke-width:0.60616;stroke-linejoin:round;stroke-dasharray:2.64583, 1.85208" />
    <path
       fill-rule="evenodd"
       d="m 171.89978,149.62187 -9.10166,-0.0529 z"
       class="g1_44"
       id="path167"
       style="display:block;fill:#000000;fill-opacity:0;stroke-width:0.264583" />
    <path
       d="m 171.89978,149.62187 -9.10166,-0.0529"
       class="g6_44"
       id="path168"
       style="display:block;fill:none;stroke:#f3f3f3;stroke-width:0.60616;stroke-linejoin:round;stroke-dasharray:2.64583, 1.85208" />
    <path
       fill-rule="evenodd"
       d="m 143.61583,128.69333 0.0529,-9.89541 z"
       class="g1_44"
       id="path169"
       style="display:block;fill:#000000;fill-opacity:0;stroke-width:0.264583" />
    <path
       d="m 143.61583,128.69333 0.0529,-9.89541"
       class="g6_44"
       id="path170"
       style="display:block;fill:none;stroke:#f3f3f3;stroke-width:0.60616;stroke-linejoin:round;stroke-dasharray:2.64583, 1.85208" />
    <path
       fill-rule="evenodd"
       d="m 143.64228,180.39291 0.0529,-9.89541 z"
       class="g1_44"
       id="path171"
       style="display:block;fill:#000000;fill-opacity:0;stroke-width:0.264583" />
    <path
       d="m 143.64228,180.39291 0.0529,-9.89541"
       class="g6_44"
       id="path172"
       style="display:block;fill:none;stroke:#f3f3f3;stroke-width:0.60616;stroke-linejoin:round;stroke-dasharray:2.64583, 1.85208" />
    <path
       fill-rule="evenodd"
       d="m 124.61874,149.72771 v -8.99584 z"
       class="g1_44"
       id="path173"
       style="display:block;fill:#000000;fill-opacity:0;stroke-width:0.264583" />
    <path
       d="m 124.61874,149.72771 v -8.99584"
       class="g7_44"
       id="path174"
       style="display:block;fill:none;stroke:#f3f3f3;stroke-width:0.909373;stroke-linejoin:round" />
    <path
       fill-rule="evenodd"
       d="m 162.90395,158.53833 v -8.96937 z"
       class="g1_44"
       id="path175"
       style="display:block;fill:#000000;fill-opacity:0;stroke-width:0.264583" />
    <path
       d="m 162.90395,158.53833 v -8.96937"
       class="g7_44"
       id="path176"
       style="display:block;fill:none;stroke:#f3f3f3;stroke-width:0.909373;stroke-linejoin:round" />
    <path
       fill-rule="evenodd"
       d="m 143.53645,128.87854 h 8.255 z"
       class="g1_44"
       id="path177"
       style="display:block;fill:#000000;fill-opacity:0;stroke-width:0.264583" />
    <path
       d="m 143.53645,128.87854 h 8.255"
       class="g7_44"
       id="path178"
       style="display:block;fill:none;stroke:#f3f3f3;stroke-width:0.909373;stroke-linejoin:round" />
    <path
       fill-rule="evenodd"
       d="m 135.57249,170.4975 h 8.255 z"
       class="g1_44"
       id="path179"
       style="display:block;fill:#000000;fill-opacity:0;stroke-width:0.264583" />
    <path
       d="m 135.57249,170.4975 h 8.255"
       class="g7_44"
       id="path180"
       style="display:block;fill:none;stroke:#f3f3f3;stroke-width:0.909373;stroke-linejoin:round" />
    <path
       fill-rule="evenodd"
       d="m 136.02229,164.25333 h 0.87312 v 4.07459 h -0.87312 z"
       class="g8_44"
       id="path181"
       style="display:block;fill:#eeeeee;stroke-width:0.264583" />
    <path
       fill-rule="evenodd"
       d="m 137.87437,164.25333 h 0.87312 v 4.07459 h -0.87312 z"
       class="g8_44"
       id="path182"
       style="display:block;fill:#eeeeee;stroke-width:0.264583" />
    <path
       fill-rule="evenodd"
       d="m 139.72645,164.25333 h 0.87313 v 4.07459 h -0.87313 z"
       class="g8_44"
       id="path183"
       style="display:block;fill:#eeeeee;stroke-width:0.264583" />
    <path
       fill-rule="evenodd"
       d="m 141.57854,164.25333 h 0.87312 v 4.07459 h -0.87312 z"
       class="g8_44"
       id="path184"
       style="display:block;fill:#eeeeee;stroke-width:0.264583" />
    <path
       fill-rule="evenodd"
       d="m 143.43062,164.25333 h 0.87312 v 4.07459 h -0.87312 z"
       class="g8_44"
       id="path185"
       style="display:block;fill:#eeeeee;stroke-width:0.264583" />
    <path
       fill-rule="evenodd"
       d="m 145.2827,164.25333 h 0.87313 v 4.07459 h -0.87313 z"
       class="g8_44"
       id="path186"
       style="display:block;fill:#eeeeee;stroke-width:0.264583" />
    <path
       fill-rule="evenodd"
       d="m 147.10833,164.25333 h 0.89958 v 4.07459 h -0.89958 z"
       class="g8_44"
       id="path187"
       style="display:block;fill:#eeeeee;stroke-width:0.264583" />
    <path
       fill-rule="evenodd"
       d="m 148.96041,164.25333 h 0.89958 v 4.07459 h -0.89958 z"
       class="g8_44"
       id="path188"
       style="display:block;fill:#eeeeee;stroke-width:0.264583" />
    <path
       fill-rule="evenodd"
       d="m 150.81249,164.25333 h 0.87313 v 4.07459 h -0.87313 z"
       class="g8_44"
       id="path189"
       style="display:block;fill:#eeeeee;stroke-width:0.264583" />
    <path
       fill-rule="evenodd"
       d="m 135.81062,131.25979 h 0.87312 v 4.04813 h -0.87312 z"
       class="g8_44"
       id="path190"
       style="display:block;fill:#eeeeee;stroke-width:0.264583" />
    <path
       fill-rule="evenodd"
       d="m 137.6627,131.25979 h 0.87313 v 4.04813 h -0.87313 z"
       class="g8_44"
       id="path191"
       style="display:block;fill:#eeeeee;stroke-width:0.264583" />
    <path
       fill-rule="evenodd"
       d="m 139.51479,131.25979 h 0.87312 v 4.04813 h -0.87312 z"
       class="g8_44"
       id="path192"
       style="display:block;fill:#eeeeee;stroke-width:0.264583" />
    <path
       fill-rule="evenodd"
       d="m 141.36687,131.25979 h 0.87312 v 4.04813 h -0.87312 z"
       class="g8_44"
       id="path193"
       style="display:block;fill:#eeeeee;stroke-width:0.264583" />
    <path
       fill-rule="evenodd"
       d="m 143.21895,131.25979 h 0.87313 v 4.04813 h -0.87313 z"
       class="g8_44"
       id="path194"
       style="display:block;fill:#eeeeee;stroke-width:0.264583" />
    <path
       fill-rule="evenodd"
       d="m 145.07103,131.25979 h 0.87313 v 4.04813 h -0.87313 z"
       class="g8_44"
       id="path195"
       style="display:block;fill:#eeeeee;stroke-width:0.264583" />
    <path
       fill-rule="evenodd"
       d="m 146.89666,131.25979 h 0.89958 v 4.04813 h -0.89958 z"
       class="g8_44"
       id="path196"
       style="display:block;fill:#eeeeee;stroke-width:0.264583" />
    <path
       fill-rule="evenodd"
       d="m 148.74874,131.25979 h 0.87313 v 4.04813 h -0.87313 z"
       class="g8_44"
       id="path197"
       style="display:block;fill:#eeeeee;stroke-width:0.264583" />
    <path
       fill-rule="evenodd"
       d="m 150.60083,131.25979 h 0.87312 v 4.04813 h -0.87312 z"
       class="g8_44"
       id="path198"
       style="display:block;fill:#eeeeee;stroke-width:0.264583" />
    <path
       fill-rule="evenodd"
       d="m 130.65124,141.04937 v 0.9525 h -3.73062 v -0.9525 z"
       class="g8_44"
       id="path199"
       style="display:block;fill:#eeeeee;stroke-width:0.264583" />
    <path
       fill-rule="evenodd"
       d="m 130.65124,143.08667 v 0.9525 h -3.73062 v -0.9525 z"
       class="g8_44"
       id="path200"
       style="display:block;fill:#eeeeee;stroke-width:0.264583" />
    <path
       fill-rule="evenodd"
       d="m 130.65124,145.0975 v 0.9525 h -3.73062 v -0.9525 z"
       class="g8_44"
       id="path201"
       style="display:block;fill:#eeeeee;stroke-width:0.264583" />
    <path
       fill-rule="evenodd"
       d="m 130.65124,147.10833 v 0.9525 h -3.73062 v -0.9525 z"
       class="g8_44"
       id="path202"
       style="display:block;fill:#eeeeee;stroke-width:0.264583" />
    <path
       fill-rule="evenodd"
       d="m 130.65124,149.11917 v 0.9525 h -3.73062 v -0.9525 z"
       class="g8_44"
       id="path203"
       style="display:block;fill:#eeeeee;stroke-width:0.264583" />
    <path
       fill-rule="evenodd"
       d="m 130.65124,151.13 v 0.9525 h -3.73062 V 151.13 Z"
       class="g8_44"
       id="path204"
       style="display:block;fill:#eeeeee;stroke-width:0.264583" />
    <path
       fill-rule="evenodd"
       d="m 130.65124,153.14083 v 0.9525 h -3.73062 v -0.9525 z"
       class="g8_44"
       id="path205"
       style="display:block;fill:#eeeeee;stroke-width:0.264583" />
    <path
       fill-rule="evenodd"
       d="m 130.65124,155.15167 v 0.9525 h -3.73062 v -0.9525 z"
       class="g8_44"
       id="path206"
       style="display:block;fill:#eeeeee;stroke-width:0.264583" />
    <path
       fill-rule="evenodd"
       d="m 130.65124,157.1625 v 0.9525 h -3.73062 v -0.9525 z"
       class="g8_44"
       id="path207"
       style="display:block;fill:#eeeeee;stroke-width:0.264583" />
    <path
       fill-rule="evenodd"
       d="m 160.49624,141.04937 v 0.9525 h -3.73062 v -0.9525 z"
       class="g8_44"
       id="path208"
       style="display:block;fill:#eeeeee;stroke-width:0.264583" />
    <path
       fill-rule="evenodd"
       d="m 160.49624,143.08667 v 0.9525 h -3.73062 v -0.9525 z"
       class="g8_44"
       id="path209"
       style="display:block;fill:#eeeeee;stroke-width:0.264583" />
    <path
       fill-rule="evenodd"
       d="m 160.49624,145.0975 v 0.9525 h -3.73062 v -0.9525 z"
       class="g8_44"
       id="path210"
       style="display:block;fill:#eeeeee;stroke-width:0.264583" />
    <path
       fill-rule="evenodd"
       d="m 160.49624,147.10833 v 0.9525 h -3.73062 v -0.9525 z"
       class="g8_44"
       id="path211"
       style="display:block;fill:#eeeeee;stroke-width:0.264583" />
    <path
       fill-rule="evenodd"
       d="m 160.49624,149.11917 v 0.9525 h -3.73062 v -0.9525 z"
       class="g8_44"
       id="path212"
       style="display:block;fill:#eeeeee;stroke-width:0.264583" />
    <path
       fill-rule="evenodd"
       d="m 160.49624,151.13 v 0.9525 h -3.73062 V 151.13 Z"
       class="g8_44"
       id="path213"
       style="display:block;fill:#eeeeee;stroke-width:0.264583" />
    <path
       fill-rule="evenodd"
       d="m 160.49624,153.14083 v 0.9525 h -3.73062 v -0.9525 z"
       class="g8_44"
       id="path214"
       style="display:block;fill:#eeeeee;stroke-width:0.264583" />
    <path
       fill-rule="evenodd"
       d="m 160.49624,155.15167 v 0.9525 h -3.73062 v -0.9525 z"
       class="g8_44"
       id="path215"
       style="display:block;fill:#eeeeee;stroke-width:0.264583" />
    <path
       fill-rule="evenodd"
       d="m 160.49624,157.1625 v 0.9525 h -3.73062 v -0.9525 z"
       class="g8_44"
       id="path216"
       style="display:block;fill:#eeeeee;stroke-width:0.264583" />
    <path
       fill-rule="evenodd"
       d="m 142.84854,149.78062 0.87312,-0.9525 0.87312,0.9525 -0.87312,0.9525 z"
       class="g1_44"
       id="path217"
       style="display:block;fill:#000000;fill-opacity:0;stroke-width:0.264583" />
    <path
       d="m 142.84854,149.78062 0.87312,-0.9525 0.87312,0.9525 -0.87312,0.9525 z"
       class="g9_44"
       id="path218"
       style="display:block;fill:none;stroke:#f3f3f3;stroke-width:0.302948;stroke-linejoin:round" />
    <path
       fill-rule="evenodd"
       d="m 172.00562,140.86417 v 8.70479 h -8.94292 v -8.70479 z"
       class="g1_44"
       id="path219"
       style="display:block;fill:#000000;fill-opacity:0;stroke-width:0.264583" />
    <path
       d="m 172.00562,140.86417 v 8.70479 h -8.94292 v -8.70479 z"
       class="g2_44"
       id="path220"
       style="display:block;fill:none;stroke:#000000;stroke-width:0.302948;stroke-linejoin:round" />
    <path
       fill-rule="evenodd"
       d="m 135.59895,170.65625 h 8.09625 v 9.73666 h -8.09625 z"
       class="g1_44"
       id="path221"
       style="display:block;fill:#000000;fill-opacity:0;stroke-width:0.264583" />
    <path
       d="m 135.59895,170.65625 h 8.09625 v 9.73666 h -8.09625 z"
       class="g2_44"
       id="path222"
       style="display:block;fill:none;stroke:#000000;stroke-width:0.302948;stroke-linejoin:round" />
    <path
       fill-rule="evenodd"
       d="m 171.92624,149.59542 v 8.78416 h -8.83708 v -8.78416 z"
       class="g1_44"
       id="path223"
       style="display:block;fill:#000000;fill-opacity:0;stroke-width:0.264583" />
    <path
       d="m 171.92624,149.59542 v 8.78416 h -8.83708 v -8.78416 z"
       class="g2_44"
       id="path224"
       style="display:block;fill:none;stroke:#000000;stroke-width:0.302948;stroke-linejoin:round" />
    <path
       fill-rule="evenodd"
       d="m 124.48645,140.83771 v 8.75771 h -9.12812 v -8.75771 z"
       class="g1_44"
       id="path225"
       style="display:block;fill:#000000;fill-opacity:0;stroke-width:0.264583" />
    <path
       d="m 124.48645,140.83771 v 8.75771 h -9.12812 v -8.75771 z"
       class="g2_44"
       id="path226"
       style="display:block;fill:none;stroke:#000000;stroke-width:0.302948;stroke-linejoin:round" />
    <path
       fill-rule="evenodd"
       d="m 124.48645,149.59542 v 8.7577 h -9.12812 v -8.7577 z"
       class="g1_44"
       id="path227"
       style="display:block;fill:#000000;fill-opacity:0;stroke-width:0.264583" />
    <path
       d="m 124.48645,149.59542 v 8.7577 h -9.12812 v -8.7577 z"
       class="g2_44"
       id="path228"
       style="display:block;fill:none;stroke:#000000;stroke-width:0.302948;stroke-linejoin:round" />
    <path
       fill-rule="evenodd"
       d="m 151.73853,180.39291 h -8.01687 v -9.7102 h 8.01687 z"
       class="g1_44"
       id="path229"
       style="display:block;fill:#000000;fill-opacity:0;stroke-width:0.264583" />
    <path
       d="m 151.73853,180.39291 h -8.01687 v -9.7102 h 8.01687 z"
       class="g2_44"
       id="path230"
       style="display:block;fill:none;stroke:#000000;stroke-width:0.302948;stroke-linejoin:round" />
    <path
       fill-rule="evenodd"
       d="m 151.68562,128.69333 h -8.01688 V 118.745 h 8.01688 z"
       class="g1_44"
       id="path231"
       style="display:block;fill:#000000;fill-opacity:0;stroke-width:0.264583" />
    <path
       d="m 151.68562,128.69333 h -8.01688 V 118.745 h 8.01688 z"
       class="g2_44"
       id="path232"
       style="display:block;fill:none;stroke:#000000;stroke-width:0.302948;stroke-linejoin:round" />
    <path
       fill-rule="evenodd"
       d="m 143.64228,128.66687 h -8.01687 V 118.745 h 8.01687 z"
       class="g1_44"
       id="path233"
       style="display:block;fill:#000000;fill-opacity:0;stroke-width:0.264583" />
    <path
       d="m 143.64228,128.66687 h -8.01687 V 118.745 h 8.01687 z"
       class="g2_44"
       id="path234"
       style="display:block;fill:none;stroke:#000000;stroke-width:0.302948;stroke-linejoin:round" />
    <path
       fill-rule="evenodd"
       d="m 151.73853,170.65625 h -8.01687 v -41.93646 h 8.01687 z"
       class="g1_44"
       id="path235"
       style="display:block;fill:#000000;fill-opacity:0;stroke-width:0.264583" />
    <path
       d="m 151.73853,170.65625 h -8.01687 v -41.93646 h 8.01687 z"
       class="g2_44"
       id="path236"
       style="display:block;fill:none;stroke:#000000;stroke-width:0.302948;stroke-linejoin:round" />
    <path
       fill-rule="evenodd"
       d="m 143.64228,170.65625 h -7.99041 v -41.93646 h 7.99041 z"
       class="gb_44"
       id="path237"
       style="display:block;fill:#f4cccc;fill-opacity:0.43;stroke-width:0.264583" />
    <path
       d="m 143.64228,170.65625 h -7.99041 v -41.93646 h 7.99041 z"
       class="gc_44"
       id="path238"
       style="display:block;fill:none;stroke:#ff0000;stroke-width:0.302948;stroke-linejoin:round" />
    <path
       fill-rule="evenodd"
       d="m 124.48645,158.30021 v -8.70479 h 38.54979 v 8.70479 z"
       class="gd_44"
       id="path239"
       style="display:block;fill:#9fc5e8;fill-opacity:0.41;stroke-width:0.264583" />
    <path
       d="m 124.48645,158.30021 v -8.70479 h 38.54979 v 8.70479 z"
       class="ge_44"
       id="path240"
       style="display:block;fill:none;stroke:#4a86e8;stroke-width:0.302948;stroke-linejoin:round" />
    <path
       fill-rule="evenodd"
       d="m 124.48645,149.5425 v -8.75771 h 38.54979 v 8.75771 z"
       class="gd_44"
       id="path241"
       style="display:block;fill:#9fc5e8;fill-opacity:0.41;stroke-width:0.264583" />
    <path
       d="m 124.48645,149.5425 v -8.75771 h 38.54979 v 8.75771 z"
       class="ge_44"
       id="path242"
       style="display:block;fill:none;stroke:#4a86e8;stroke-width:0.302948;stroke-linejoin:round" />
    <path
       fill-rule="evenodd"
       d="m 124.53937,158.30021 0.0265,-8.59896 2.69875,-0.39688 2.93687,-0.8202 2.32834,-1.0848 1.87854,-1.08479 1.66687,-1.16416 1.24354,-1.21709 1.32292,-1.37583 1.05833,-1.21708 0.7673,-1.0848 0.74083,-1.42875 0.87312,-1.71979 0.9525,-2.69875 0.58209,-3.12208 0.13229,-2.56646 8.01687,0.0529 -0.21166,4.73604 -0.55563,3.46604 -1.00542,3.22792 -1.16416,2.56646 -0.87313,1.56104 -0.97896,1.45521 -0.8202,1.08479 -0.68792,0.84666 -0.79375,0.84667 -0.97896,1.00542 -1.13771,1.08479 -1.03187,0.92604 -0.97896,0.76729 -1.50812,1.11125 -1.98438,1.21709 -2.61937,1.21708 -2.72521,1.00542 -3.67771,0.9525 z"
       class="gf_44"
       id="path243"
       style="display:block;fill:#a4c2f4;fill-opacity:0.36;stroke-width:0.264583" />
    <path
       d="m 124.53937,158.30021 0.0265,-8.59896 2.69875,-0.39688 2.93687,-0.8202 2.32834,-1.0848 1.87854,-1.08479 1.66687,-1.16416 1.24354,-1.21709 1.32292,-1.37583 1.05833,-1.21708 0.7673,-1.0848 0.74083,-1.42875 0.87312,-1.71979 0.9525,-2.69875 0.58209,-3.12208 0.13229,-2.56646 8.01687,0.0529 -0.21166,4.73604 -0.55563,3.46604 -1.00542,3.22792 -1.16416,2.56646 -0.87313,1.56104 -0.97896,1.45521 -0.8202,1.08479 -0.68792,0.84666 -0.79375,0.84667 -0.97896,1.00542 -1.13771,1.08479 -1.03187,0.92604 -0.97896,0.76729 -1.50812,1.11125 -1.98438,1.21709 -2.61937,1.21708 -2.72521,1.00542 -3.67771,0.9525 z"
       class="gg_44"
       id="path244"
       style="display:block;fill:none;stroke:#0000ff;stroke-width:0.302948;stroke-linejoin:round" />
    <path
       fill-rule="evenodd"
       d="M 137.39812,163.195 86.016036,159.67604 Z"
       class="g1_44"
       id="path245"
       style="display:block;fill:#000000;fill-opacity:0;stroke-width:0.264583" />
    <path
       d="M 137.39812,163.195 87.841661,159.80833"
       class="gc_44"
       id="path246"
       style="display:block;fill:none;stroke:#ff0000;stroke-width:0.302948;stroke-linejoin:round" />
    <path
       fill-rule="evenodd"
       d="m 87.868119,159.30562 -1.402292,0.42334 1.322917,0.58208 z"
       class="gh_44"
       id="path247"
       style="display:block;fill:#ff0000;stroke:#ff0000;stroke-width:0.302948;stroke-miterlimit:10" />
    <path
       fill-rule="evenodd"
       d="M 86.174786,151.55333 130.88937,145.0975 Z"
       class="g1_44"
       id="path248"
       style="display:block;fill:#000000;fill-opacity:0;stroke-width:0.264583" />
    <path
       d="M 86.174786,151.55333 129.0902,145.36208"
       class="gg_44"
       id="path249"
       style="display:block;fill:none;stroke:#0000ff;stroke-width:0.302948;stroke-linejoin:round" />
    <path
       fill-rule="evenodd"
       d="m 129.16958,145.83833 1.27,-0.68791 -1.42875,-0.29105 z"
       class="gi_44"
       id="path250"
       style="display:block;fill:#0000ff;stroke:#0000ff;stroke-width:0.302948;stroke-miterlimit:10" />
  </g>
</svg>
