<?xml version="1.0" encoding="UTF-8" standalone="no"?>
<!-- Created with Inkscape (http://www.inkscape.org/) -->

<svg
   width="72.058998mm"
   height="62.296001mm"
   viewBox="0 0 72.058998 62.296002"
   version="1.1"
   id="svg1"
   inkscape:version="1.3.2 (1:1.3.2+202311252150+091e20ef0f)"
   sodipodi:docname="vm-01-17_1.svg"
   xmlns:inkscape="http://www.inkscape.org/namespaces/inkscape"
   xmlns:sodipodi="http://sodipodi.sourceforge.net/DTD/sodipodi-0.dtd"
   xmlns="http://www.w3.org/2000/svg"
   xmlns:svg="http://www.w3.org/2000/svg">
  <sodipodi:namedview
     id="namedview1"
     pagecolor="#ffffff"
     bordercolor="#000000"
     borderopacity="0.25"
     inkscape:showpageshadow="2"
     inkscape:pageopacity="0.0"
     inkscape:pagecheckerboard="0"
     inkscape:deskcolor="#d1d1d1"
     inkscape:document-units="mm"
     inkscape:zoom="1.7131103"
     inkscape:cx="67.421229"
     inkscape:cy="116.45485"
     inkscape:window-width="3840"
     inkscape:window-height="2123"
     inkscape:window-x="0"
     inkscape:window-y="0"
     inkscape:window-maximized="1"
     inkscape:current-layer="layer1" />
  <defs
     id="defs1">
    <clipPath
       id="c0_25">
      <path
         d="M 0,825 V 0 h 1100 v 825 z"
         id="path2" />
    </clipPath>
    <clipPath
       id="clipPath1">
      <path
         d="M 0,825 V 0 h 1100 v 825 z"
         id="path1" />
    </clipPath>
  </defs>
  <g
     inkscape:label="Layer 1"
     inkscape:groupmode="layer"
     id="layer1"
     transform="translate(-87.047921,-117.73958)">
    <path
       fill-rule="evenodd"
       d="m 109.9915,120.74689 14.86958,14.52562 -11.45646,12.35604 -1.77271,2.14313 -0.15875,2.11667 0.10584,24.97666 -21.669378,-0.0794 -0.07937,-28.36334 2.248959,-6.08541 2.063749,-5.90021 4.101042,-4.07458 z"
       class="g3_25"
       id="path21"
       style="display:block;fill:#38761d;stroke-width:0.264583" />
    <path
       fill-rule="evenodd"
       d="m 112.74316,123.23397 10.21292,10.10709 -11.66813,11.56229 -1.03187,1.11125 -0.87313,1.03187 -0.44979,0.82021 -0.47625,1.11125 -0.26458,1.24354 -0.23813,1.32292 v 1.16416 l 0.0265,1.42875 -0.0529,22.75417 H 93.613789 v -23.99771 l 0.05292,-2.09021 0.264583,-2.88395 0.529166,-2.30188 0.79375,-2.40771 1.11125,-2.16958 1.243542,-2.19604 1.455208,-1.74625 1.137712,-1.34938 1.05833,-1.08479 0.9525,-0.97896 z"
       class="g4_25"
       id="path22"
       style="display:block;fill:#666666;stroke-width:0.264583" />
    <path
       d="m 112.74316,123.23397 10.21292,10.10709 -11.66813,11.56229 -1.03187,1.11125 -0.87313,1.03187 -0.44979,0.82021 -0.47625,1.11125 -0.26458,1.24354 -0.23813,1.32292 v 1.16416 l 0.0265,1.42875 -0.0529,22.75417 H 93.613789 v -23.99771 l 0.05292,-2.09021 0.264583,-2.88395 0.529166,-2.30188 0.79375,-2.40771 1.11125,-2.16958 1.243542,-2.19604 1.455208,-1.74625 1.137712,-1.34938 1.05833,-1.08479 0.9525,-0.97896 z"
       class="g5_25"
       id="path23"
       style="display:block;fill:none;stroke:#666666;stroke-width:0.302948;stroke-linejoin:round" />
    <path
       fill-rule="evenodd"
       d="m 100.51941,151.9148 v 24.97667 z"
       class="g1_25"
       id="path24"
       style="display:block;fill:#000000;fill-opacity:0;stroke-width:0.264583" />
    <path
       d="m 100.51941,151.9148 v 24.97667"
       class="g6_25"
       id="path25"
       style="display:block;fill:none;stroke:#595959;stroke-width:0.302948;stroke-linejoin:round" />
    <path
       fill-rule="evenodd"
       d="m 122.92962,133.44689 0.92604,0.92604 -10.42458,10.45104 -1.00542,0.97896 -1.00541,0.97896 -0.47625,0.58208 -0.4498,0.71438 -0.52916,1.03187 -0.39688,1.11125 -0.21166,1.13771 -0.0265,0.97896 0.0265,1.11125 v 23.495 h -1.4023 v -22.225 l 0.0529,-2.88396 0.21167,-1.98438 0.52916,-1.37583 0.29105,-0.66146 0.76729,-1.16416 0.87312,-0.9525 0.82021,-0.89959 1.08479,-1.00541 z"
       class="g3_25"
       id="path26"
       style="display:block;fill:#38761d;stroke-width:0.264583" />
    <path
       fill-rule="evenodd"
       d="m 112.69025,123.28689 -1.0848,-1.08479 -9.73666,9.76312 -1.5875,1.66688 -0.952501,0.84666 -0.820209,0.79375 -0.820208,0.97896 -0.687917,0.89958 -1.190625,1.5875 -0.555625,0.97896 -0.502708,0.89959 -0.555625,1.27 -0.529166,1.32291 -0.555625,1.56104 -0.423334,1.29646 -0.264583,1.64042 -0.238125,1.56104 -0.132292,1.56104 -0.07937,1.77271 v 24.39458 h 1.640417 v -21.06083 l 0.02646,-3.94229 0.05292,-2.09021 0.238125,-2.24896 0.47625,-1.95791 0.661458,-1.98438 1.190625,-2.59292 1.322917,-2.11666 1.217083,-1.61396 1.587498,-1.79917 1.29646,-1.40229 z"
       class="g3_25"
       id="path27"
       style="display:block;fill:#38761d;stroke-width:0.264583" />
    <path
       fill-rule="evenodd"
       d="m 100.91629,136.22501 12.40896,-12.40895 z"
       class="g1_25"
       id="path28"
       style="display:block;fill:#000000;fill-opacity:0;stroke-width:0.264583" />
    <path
       d="m 100.91629,136.22501 12.40896,-12.40895"
       class="g6_25"
       id="path29"
       style="display:block;fill:none;stroke:#595959;stroke-width:0.302948;stroke-linejoin:round" />
    <path
       fill-rule="evenodd"
       d="m 100.30775,151.9148 h 0.37041 v 25.05605 h -0.37041 z"
       class="g0_25"
       id="path30"
       style="display:block;fill:#ffffff;stroke-width:0.264583" />
    <path
       fill-rule="evenodd"
       d="m 117.50566,128.02293 0.26459,0.23813 -12.3825,12.38249 -0.23813,-0.26458 z"
       class="g0_25"
       id="path31"
       style="display:block;fill:#ffffff;stroke-width:0.264583" />
    <path
       fill-rule="evenodd"
       d="m 105.14962,140.35251 0.23813,0.26459 -0.55563,0.60854 -0.635,0.76729 -0.58208,0.74083 -0.42334,0.60854 -0.39687,0.66146 -0.52917,0.9525 -0.44979,1.05834 -0.34396,0.92604 -0.21166,0.74083 -0.15875,0.635 -0.21167,1.05833 -0.10583,0.58209 -0.0529,0.635 -0.0529,0.82021 v 0.52916 h -0.37042 l 0.0529,-0.89958 0.0794,-1.03188 0.15875,-1.00541 0.21167,-1.11125 0.34396,-1.08479 0.44979,-1.24355 0.39687,-0.8202 0.55563,-1.13771 0.58208,-0.87313 0.82021,-1.08479 0.58208,-0.71437 z"
       class="g0_25"
       id="path32"
       style="display:block;fill:#ffffff;stroke-width:0.264583" />
    <path
       fill-rule="evenodd"
       d="m 106.79004,151.9148 h 0.34396 v 25.05605 h -0.34396 z"
       class="g0_25"
       id="path33"
       style="display:block;fill:#ffffff;stroke-width:0.264583" />
    <path
       fill-rule="evenodd"
       d="m 94.22233,151.9148 h 0.370417 v 25.05605 H 94.22233 Z"
       class="g0_25"
       id="path34"
       style="display:block;fill:#ffffff;stroke-width:0.264583" />
    <path
       fill-rule="evenodd"
       d="m 122.08295,132.52085 0.26459,0.26458 -12.3825,12.3825 -0.23813,-0.26458 z"
       class="g0_25"
       id="path35"
       style="display:block;fill:#ffffff;stroke-width:0.264583" />
    <path
       fill-rule="evenodd"
       d="m 113.1665,123.71022 0.26458,0.26459 -12.3825,12.35604 -0.23812,-0.23813 z"
       class="g0_25"
       id="path36"
       style="display:block;fill:#ffffff;stroke-width:0.264583" />
    <path
       fill-rule="evenodd"
       d="m 109.72691,144.90335 0.23813,0.23812 -0.29104,0.3175 -0.37042,0.39688 -0.3175,0.37041 -0.3175,0.50271 -0.34396,0.635 -0.29104,0.60854 -0.23813,0.58209 -0.23812,0.71437 -0.15875,0.58208 -0.13229,0.60855 -0.0794,0.5027 -0.0265,0.58209 -0.0264,0.37041 h -0.37042 l 0.0265,-0.8202 0.10583,-0.68792 0.13229,-0.68792 0.18521,-0.66146 0.26458,-0.79375 0.29105,-0.71437 0.44979,-0.82021 0.44979,-0.71437 0.50271,-0.60855 z"
       class="g0_25"
       id="path37"
       style="display:block;fill:#ffffff;stroke-width:0.264583" />
    <path
       fill-rule="evenodd"
       d="m 100.86337,136.0398 0.23813,0.26459 -0.34396,0.34396 -0.60854,0.60854 -0.582086,0.66146 -0.687917,0.87312 -0.714375,1.03188 -0.635,1.1377 -0.661458,1.21709 -0.582084,1.27 -0.502708,1.48166 -0.370417,1.19063 -0.343958,1.13771 -0.291042,1.56104 -0.105833,1.21708 -0.05292,0.87313 -0.02646,0.74083 v 0.50271 h -0.370417 l 0.02646,-1.34938 0.105833,-1.48166 0.15875,-1.34938 0.423333,-1.85208 0.396875,-1.27 0.502709,-1.45521 0.608541,-1.42875 0.767292,-1.42875 0.767292,-1.24354 0.873125,-1.21708 0.767291,-0.84667 0.820214,-0.82021 z"
       class="g0_25"
       id="path38"
       style="display:block;fill:#ffffff;stroke-width:0.264583" />
    <path
       fill-rule="evenodd"
       d="m 135.31212,127.99647 -12.96458,5.55625 z"
       class="g1_25"
       id="path39"
       style="display:block;fill:#000000;fill-opacity:0;stroke-width:0.264583" />
    <path
       d="m 135.31212,127.99647 -11.29771,4.84188"
       class="g2_25"
       id="path40"
       style="display:block;fill:none;stroke:#000000;stroke-width:0.302948;stroke-linejoin:round" />
    <path
       fill-rule="evenodd"
       d="m 123.8292,132.3621 -1.08479,1.00541 1.48167,-0.0794 z"
       class="g7_25"
       id="path41"
       style="display:block;fill:#000000;stroke:#000000;stroke-width:0.302948;stroke-miterlimit:10" />
    <text
       clip-path="url(#c0_25)"
       x="305.20001"
       y="467.29999"
       class="s5_25"
       id="text42"
       style="font-size:18.33px;font-family:MS-PGothic_bp;white-space:pre;display:block;fill:#000000"
       transform="matrix(0.26458333,0,0,0.26458333,54.296706,2.107721)">side strip </text>
    <path
       fill-rule="evenodd"
       d="m 121.71254,151.7296 h 22.96583 v 7.54062 h -22.96583 z"
       class="g1_25"
       id="path43"
       style="display:block;fill:#000000;fill-opacity:0;stroke-width:0.264583" />
    <text
       clip-path="url(#c0_25)"
       x="275.79999"
       y="585.29999"
       class="s6_25"
       id="text43"
       style="font-size:15.28px;font-family:MS-PGothic_bp;white-space:pre;display:block;fill:#000000"
       transform="matrix(0.26458333,0,0,0.26458333,54.296706,2.107721)">off road </text>
    <path
       fill-rule="evenodd"
       d="m 127.0042,157.47105 -16.85395,0.66146 z"
       class="g1_25"
       id="path44"
       style="display:block;fill:#000000;fill-opacity:0;stroke-width:0.264583" />
    <path
       d="m 127.0042,157.47105 -15.02833,0.60855"
       class="g2_25"
       id="path45"
       style="display:block;fill:none;stroke:#000000;stroke-width:0.302948;stroke-linejoin:round" />
    <path
       fill-rule="evenodd"
       d="m 111.94941,157.57689 -1.34937,0.55562 1.40229,0.44979 z"
       class="g7_25"
       id="path46"
       style="display:block;fill:#000000;stroke:#000000;stroke-width:0.302948;stroke-miterlimit:10" />
  </g>
</svg>
