<?xml version="1.0" encoding="UTF-8" standalone="no"?>
<!-- Page 17 -->

<svg
   x="0"
   y="0"
   width="460.42499"
   height="274.172"
   viewBox="0 0 460.42499 274.172"
   version="1.1"
   style="display:block"
   id="svg158"
   sodipodi:docname="vm-03-09_1.svg"
   inkscape:version="1.3.2 (1:1.3.2+202311252150+091e20ef0f)"
   xmlns:inkscape="http://www.inkscape.org/namespaces/inkscape"
   xmlns:sodipodi="http://sodipodi.sourceforge.net/DTD/sodipodi-0.dtd"
   xmlns="http://www.w3.org/2000/svg"
   xmlns:svg="http://www.w3.org/2000/svg">
  <sodipodi:namedview
     id="namedview158"
     pagecolor="#ffffff"
     bordercolor="#000000"
     borderopacity="0.25"
     inkscape:showpageshadow="2"
     inkscape:pageopacity="0.0"
     inkscape:pagecheckerboard="0"
     inkscape:deskcolor="#d1d1d1"
     inkscape:zoom="1.3987858"
     inkscape:cx="409.99845"
     inkscape:cy="21.08972"
     inkscape:window-width="1920"
     inkscape:window-height="2123"
     inkscape:window-x="1920"
     inkscape:window-y="0"
     inkscape:window-maximized="0"
     inkscape:current-layer="g158" />
  <defs
     id="defs2">
    <clipPath
       id="c_17">
      <path
         d="M 0,0 H 1100 V 825 H 0 Z"
         id="path1" />
    </clipPath>
    <clipPath
       id="c0_17">
      <path
         d="M 0,825 V 0 h 1100 v 825 z"
         id="path2" />
    </clipPath>
    <style
       type="text/css"
       id="style2"><![CDATA[
text { white-space: pre; }
path, image { pointer-events: none; }

.s0_17{
font-size: 21.39px;
font-family: ArialMT_3h;
fill: #595959;
}
.s1_17{
font-size: 21.39px;
font-family: MS-PGothic_3l;
fill: #595959;
}
.s2_17{
font-size: 42.78px;
font-family: MS-PGothic_3l;
fill: #000;
}
.s3_17{
font-size: 16.58px;
font-family: MS-PGothic_3l;
fill: #595959;
}
.s4_17{
font-size: 16.58px;
font-family: ArialMT_3h;
fill: #595959;
}
.s5_17{
font-size: 14.21px;
font-family: ArialMT_3h;
fill: #595959;
}
.s6_17{
font-size: 14.21px;
font-family: MS-PGothic_3l;
fill: #595959;
}
.s7_17{
font-size: 18.33px;
font-family: MS-PGothic_3l;
fill: #595959;
}

.g0_17{
fill: #FFF;
}
.g1_17{
fill: #000;
fill-opacity: 0;
}
.g2_17{
fill: #666;
}
.g3_17{
fill: #999;
}
.g4_17{
fill: none;
stroke: #999;
stroke-width: 1.145;
stroke-linejoin: round;
}
.g5_17{
fill: none;
stroke: #F3F3F3;
stroke-width: 2.291;
stroke-linejoin: round;
stroke-dasharray: 10,7;
}
.g6_17{
fill: none;
stroke: #F3F3F3;
stroke-width: 3.437;
stroke-linejoin: round;
}
.g7_17{
fill: #EEE;
}
.g8_17{
fill: none;
stroke: #F3F3F3;
stroke-width: 1.145;
stroke-linejoin: round;
}
.g9_17{
fill: #F00;
}
.ga_17{
fill: #F1C232;
}
.gb_17{
fill: #38761D;
}
.gc_17{
fill: #EA9999;
fill-opacity: 0.37;
}
.gd_17{
fill: #99EAD8;
fill-opacity: 0.37;
}
.ge_17{
fill: none;
stroke: #595959;
stroke-width: 1.145;
stroke-linejoin: round;
}
.gf_17{
fill: #595959;
stroke: #595959;
stroke-width: 1.145;
stroke-miterlimit: 10;
}
.gg_17{
fill: none;
stroke: #FFAB40;
stroke-width: 1.145;
stroke-linejoin: round;
}
.gh_17{
fill: #FFAB40;
stroke: #FFAB40;
stroke-width: 1.145;
stroke-miterlimit: 10;
}

]]></style>
  </defs>
  <g
     clip-path="url(#c_17)"
     id="g158"
     transform="translate(-526.50444,-470.3318)">
    <path
       fill-rule="evenodd"
       d="m 694.69999,478.97103 h 69.5 v 233.8 h -69.5 z"
       class="g2_17"
       id="path47" />
    <path
       fill-rule="evenodd"
       d="m 622.49999,560.87103 h 214.3 v 69.7 h -214.3 z"
       class="g2_17"
       id="path48" />
    <path
       fill-rule="evenodd"
       d="m 694.89999,479.37103 h 3.9 v 78.6 h -3.9 z"
       class="g3_17"
       id="path49" />
    <path
       d="m 694.89999,479.37103 h 3.9 v 78.6 h -3.9 z"
       class="g4_17"
       id="path50" />
    <path
       fill-rule="evenodd"
       d="m 760.09999,479.37103 h 3.9 v 78.6 h -3.9 z"
       class="g3_17"
       id="path51" />
    <path
       d="m 760.09999,479.37103 h 3.9 v 78.6 h -3.9 z"
       class="g4_17"
       id="path52" />
    <path
       fill-rule="evenodd"
       d="m 694.99999,633.57103 h 4 v 78.6 h -4 z"
       class="g3_17"
       id="path53" />
    <path
       d="m 694.99999,633.57103 h 4 v 78.6 h -4 z"
       class="g4_17"
       id="path54" />
    <path
       fill-rule="evenodd"
       d="m 760.19999,633.57103 h 4 v 78.6 h -4 z"
       class="g3_17"
       id="path55" />
    <path
       d="m 760.19999,633.57103 h 4 v 78.6 h -4 z"
       class="g4_17"
       id="path56" />
    <path
       fill-rule="evenodd"
       d="m 698.79999,558.07103 v 4.2 h -76 v -4.2 z"
       class="g3_17"
       id="path57" />
    <path
       d="m 698.79999,558.07103 v 4.2 h -76 v -4.2 z"
       class="g4_17"
       id="path58" />
    <path
       fill-rule="evenodd"
       d="m 698.79999,628.97103 v 4.3 h -76 v -4.3 z"
       class="g3_17"
       id="path59" />
    <path
       d="m 698.79999,628.97103 v 4.3 h -76 v -4.3 z"
       class="g4_17"
       id="path60" />
    <path
       fill-rule="evenodd"
       d="m 836.29999,558.17103 v 4.2 h -76.1 v -4.2 z"
       class="g3_17"
       id="path61" />
    <path
       d="m 836.29999,558.17103 v 4.2 h -76.1 v -4.2 z"
       class="g4_17"
       id="path62" />
    <path
       fill-rule="evenodd"
       d="m 836.29999,629.07103 v 4.3 h -76.1 v -4.3 z"
       class="g3_17"
       id="path63" />
    <path
       d="m 836.29999,629.07103 v 4.3 h -76.1 v -4.3 z"
       class="g4_17"
       id="path64" />
    <path
       fill-rule="evenodd"
       d="m 657.19999,595.87103 -34.4,-0.2 z"
       class="g1_17"
       id="path65" />
    <path
       d="m 657.19999,595.87103 -34.4,-0.2"
       class="g5_17"
       id="path66" />
    <path
       fill-rule="evenodd"
       d="m 836.29999,595.87103 -34.4,-0.1 z"
       class="g1_17"
       id="path67" />
    <path
       d="m 836.29999,595.87103 -34.4,-0.1"
       class="g5_17"
       id="path68" />
    <path
       fill-rule="evenodd"
       d="m 729.39999,516.77103 0.1,-37.4 z"
       class="g1_17"
       id="path69" />
    <path
       d="m 729.39999,516.77103 0.1,-37.4"
       class="g5_17"
       id="path70" />
    <path
       fill-rule="evenodd"
       d="m 729.49999,712.17103 0.2,-37.4 z"
       class="g1_17"
       id="path71" />
    <path
       d="m 729.49999,712.17103 0.2,-37.4"
       class="g5_17"
       id="path72" />
    <path
       fill-rule="evenodd"
       d="m 657.49999,596.27103 0.1,-33.9 z"
       class="g1_17"
       id="path73" />
    <path
       d="m 657.49999,596.27103 0.1,-33.9"
       class="g6_17"
       id="path74" />
    <path
       fill-rule="evenodd"
       d="m 802.19999,629.57103 0.1,-33.9 z"
       class="g1_17"
       id="path75" />
    <path
       d="m 802.19999,629.57103 0.1,-33.9"
       class="g6_17"
       id="path76" />
    <path
       fill-rule="evenodd"
       d="m 728.99999,517.47103 31.2,0.1 z"
       class="g1_17"
       id="path77" />
    <path
       d="m 728.99999,517.47103 31.2,0.1"
       class="g6_17"
       id="path78" />
    <path
       fill-rule="evenodd"
       d="m 698.99999,674.77103 31.2,0.1 z"
       class="g1_17"
       id="path79" />
    <path
       d="m 698.99999,674.77103 31.2,0.1"
       class="g6_17"
       id="path80" />
    <path
       fill-rule="evenodd"
       d="m 700.59999,651.17103 h 3.4 v 15.4 h -3.4 z"
       class="g7_17"
       id="path81" />
    <path
       fill-rule="evenodd"
       d="m 707.59999,651.17103 h 3.4 v 15.4 h -3.4 z"
       class="g7_17"
       id="path82" />
    <path
       fill-rule="evenodd"
       d="m 714.59999,651.17103 h 3.3 v 15.4 h -3.3 z"
       class="g7_17"
       id="path83" />
    <path
       fill-rule="evenodd"
       d="m 721.59999,651.17103 h 3.3 v 15.4 h -3.3 z"
       class="g7_17"
       id="path84" />
    <path
       fill-rule="evenodd"
       d="m 728.59999,651.17103 h 3.3 v 15.4 h -3.3 z"
       class="g7_17"
       id="path85" />
    <path
       fill-rule="evenodd"
       d="m 735.59999,651.17103 h 3.3 v 15.4 h -3.3 z"
       class="g7_17"
       id="path86" />
    <path
       fill-rule="evenodd"
       d="m 742.59999,651.17103 h 3.3 v 15.4 h -3.3 z"
       class="g7_17"
       id="path87" />
    <path
       fill-rule="evenodd"
       d="m 749.59999,651.17103 h 3.3 v 15.4 h -3.3 z"
       class="g7_17"
       id="path88" />
    <path
       fill-rule="evenodd"
       d="m 756.59999,651.17103 h 3.3 v 15.4 h -3.3 z"
       class="g7_17"
       id="path89" />
    <path
       fill-rule="evenodd"
       d="m 699.79999,526.47103 h 3.4 v 15.3 h -3.4 z"
       class="g7_17"
       id="path90" />
    <path
       fill-rule="evenodd"
       d="m 706.79999,526.47103 h 3.4 v 15.3 h -3.4 z"
       class="g7_17"
       id="path91" />
    <path
       fill-rule="evenodd"
       d="m 713.79999,526.47103 h 3.3 v 15.3 h -3.3 z"
       class="g7_17"
       id="path92" />
    <path
       fill-rule="evenodd"
       d="m 720.79999,526.47103 h 3.3 v 15.3 h -3.3 z"
       class="g7_17"
       id="path93" />
    <path
       fill-rule="evenodd"
       d="m 727.79999,526.47103 h 3.3 v 15.3 h -3.3 z"
       class="g7_17"
       id="path94" />
    <path
       fill-rule="evenodd"
       d="m 734.79999,526.47103 h 3.3 v 15.3 h -3.3 z"
       class="g7_17"
       id="path95" />
    <path
       fill-rule="evenodd"
       d="m 741.79999,526.47103 h 3.3 v 15.3 h -3.3 z"
       class="g7_17"
       id="path96" />
    <path
       fill-rule="evenodd"
       d="m 748.79999,526.47103 h 3.3 v 15.3 h -3.3 z"
       class="g7_17"
       id="path97" />
    <path
       fill-rule="evenodd"
       d="m 755.79999,526.47103 h 3.3 v 15.3 h -3.3 z"
       class="g7_17"
       id="path98" />
    <path
       fill-rule="evenodd"
       d="m 680.39999,563.57103 v 3.6 h -14.1 v -3.6 z"
       class="g7_17"
       id="path99" />
    <path
       fill-rule="evenodd"
       d="m 680.39999,571.17103 v 3.6 h -14.1 v -3.6 z"
       class="g7_17"
       id="path100" />
    <path
       fill-rule="evenodd"
       d="m 680.39999,578.77103 v 3.6 h -14.1 v -3.6 z"
       class="g7_17"
       id="path101" />
    <path
       fill-rule="evenodd"
       d="m 680.39999,586.37103 v 3.6 h -14.1 v -3.6 z"
       class="g7_17"
       id="path102" />
    <path
       fill-rule="evenodd"
       d="m 680.39999,593.97103 v 3.6 h -14.1 v -3.6 z"
       class="g7_17"
       id="path103" />
    <path
       fill-rule="evenodd"
       d="m 680.39999,601.57103 v 3.6 h -14.1 v -3.6 z"
       class="g7_17"
       id="path104" />
    <path
       fill-rule="evenodd"
       d="m 680.39999,609.17103 v 3.6 h -14.1 v -3.6 z"
       class="g7_17"
       id="path105" />
    <path
       fill-rule="evenodd"
       d="m 680.39999,616.77103 v 3.7 h -14.1 v -3.7 z"
       class="g7_17"
       id="path106" />
    <path
       fill-rule="evenodd"
       d="m 680.39999,624.47103 v 3.6 h -14.1 v -3.6 z"
       class="g7_17"
       id="path107" />
    <path
       fill-rule="evenodd"
       d="m 793.19999,563.57103 v 3.6 h -14.1 v -3.6 z"
       class="g7_17"
       id="path108" />
    <path
       fill-rule="evenodd"
       d="m 793.19999,571.17103 v 3.6 h -14.1 v -3.6 z"
       class="g7_17"
       id="path109" />
    <path
       fill-rule="evenodd"
       d="m 793.19999,578.77103 v 3.6 h -14.1 v -3.6 z"
       class="g7_17"
       id="path110" />
    <path
       fill-rule="evenodd"
       d="m 793.19999,586.37103 v 3.6 h -14.1 v -3.6 z"
       class="g7_17"
       id="path111" />
    <path
       fill-rule="evenodd"
       d="m 793.19999,593.97103 v 3.6 h -14.1 v -3.6 z"
       class="g7_17"
       id="path112" />
    <path
       fill-rule="evenodd"
       d="m 793.19999,601.57103 v 3.6 h -14.1 v -3.6 z"
       class="g7_17"
       id="path113" />
    <path
       fill-rule="evenodd"
       d="m 793.19999,609.17103 v 3.6 h -14.1 v -3.6 z"
       class="g7_17"
       id="path114" />
    <path
       fill-rule="evenodd"
       d="m 793.19999,616.77103 v 3.7 h -14.1 v -3.7 z"
       class="g7_17"
       id="path115" />
    <path
       fill-rule="evenodd"
       d="m 793.19999,624.47103 v 3.6 h -14.1 v -3.6 z"
       class="g7_17"
       id="path116" />
    <path
       fill-rule="evenodd"
       d="m 726.39999,596.47103 3.3,-3.5 3.3,3.5 -3.3,3.6 z"
       class="g1_17"
       id="path117" />
    <path
       d="m 726.39999,596.47103 3.3,-3.5 3.3,3.5 -3.3,3.6 z"
       class="g8_17"
       id="path118" />
    <path
       fill-rule="evenodd"
       d="m 782.49999,554.87103 v -2 h -16.2 v 2 z"
       class="g3_17"
       id="path119" />
    <path
       d="m 782.49999,554.87103 v -2 h -16.2 v 2 z"
       class="g4_17"
       id="path120" />
    <path
       fill-rule="evenodd"
       d="m 780.99999,554.57103 v 0 c 0.8,0 1.5,-0.7 1.5,-1.4 v -21 c 0,-0.4 -0.2,-0.8 -0.4,-1 -0.3,-0.3 -0.7,-0.5 -1.1,-0.5 h -5.7 c -0.8,0 -1.4,0.7 -1.4,1.5 v 21 c 0,0.7 0.6,1.4 1.4,1.4 z"
       class="g3_17"
       id="path121" />
    <path
       d="m 780.99999,554.57103 v 0 c 0.8,0 1.5,-0.7 1.5,-1.4 v -21 c 0,-0.4 -0.2,-0.8 -0.4,-1 -0.3,-0.3 -0.7,-0.5 -1.1,-0.5 h -5.7 c -0.8,0 -1.4,0.7 -1.4,1.5 v 21 c 0,0.7 0.6,1.4 1.4,1.4 z"
       class="g4_17"
       id="path122" />
    <path
       fill-rule="evenodd"
       d="m 778.29999,538.27103 v 0 c 1.4,0 2.5,-1.2 2.5,-2.7 0,-1.5 -1.1,-2.7 -2.5,-2.7 -1.4,0 -2.5,1.2 -2.5,2.7 0,1.5 1.1,2.7 2.5,2.7 z"
       class="g9_17"
       id="path123" />
    <path
       fill-rule="evenodd"
       d="m 778.29999,545.87103 v 0 c 1.4,0 2.5,-1.2 2.5,-2.7 0,-1.5 -1.1,-2.7 -2.5,-2.7 -1.4,0 -2.5,1.2 -2.5,2.7 0,1.5 1.1,2.7 2.5,2.7 z"
       class="ga_17"
       id="path124" />
    <path
       fill-rule="evenodd"
       d="m 778.29999,553.37103 v 0 c 1.4,0 2.5,-1.2 2.5,-2.7 0,-1.5 -1.1,-2.7 -2.5,-2.7 -1.4,0 -2.5,1.2 -2.5,2.7 0,1.5 1.1,2.7 2.5,2.7 z"
       class="gb_17"
       id="path125" />
    <path
       fill-rule="evenodd"
       d="m 699.09999,515.17103 h 30.6 v 162.1 h -30.6 z"
       class="gc_17"
       id="path126" />
    <path
       fill-rule="evenodd"
       d="m 691.89999,511.87103 h 1.7 v 37.4 h -1.7 z"
       class="g3_17"
       id="path127" />
    <path
       d="m 691.89999,511.87103 h 1.7 v 37.4 h -1.7 z"
       class="g4_17"
       id="path128" />
    <path
       fill-rule="evenodd"
       d="m 692.49999,513.37103 v 0 c 0,-0.8 0.7,-1.5 1.5,-1.5 h 18.8 c 0.4,0 0.8,0.1 1.1,0.4 0.3,0.3 0.5,0.7 0.5,1.1 v 6.3 c 0,0.8 -0.7,1.5 -1.6,1.5 h -18.8 c -0.8,0 -1.5,-0.7 -1.5,-1.5 z"
       class="g3_17"
       id="path129" />
    <path
       d="m 692.49999,513.37103 v 0 c 0,-0.8 0.7,-1.5 1.5,-1.5 h 18.8 c 0.4,0 0.8,0.1 1.1,0.4 0.3,0.3 0.5,0.7 0.5,1.1 v 6.3 c 0,0.8 -0.7,1.5 -1.6,1.5 h -18.8 c -0.8,0 -1.5,-0.7 -1.5,-1.5 z"
       class="g4_17"
       id="path130" />
    <path
       fill-rule="evenodd"
       d="m 707.49999,516.37103 v 0 c 0,-1.5 1.1,-2.7 2.4,-2.7 0.7,0 1.3,0.3 1.8,0.8 0.4,0.5 0.7,1.2 0.7,1.9 0,1.5 -1.1,2.8 -2.5,2.8 -1.3,0 -2.4,-1.3 -2.4,-2.8 z"
       class="g9_17"
       id="path131" />
    <path
       fill-rule="evenodd"
       d="m 700.49999,516.37103 v 0 c 0,-1.5 1.1,-2.7 2.5,-2.7 0.6,0 1.3,0.3 1.7,0.8 0.5,0.5 0.7,1.2 0.7,1.9 0,1.5 -1.1,2.8 -2.4,2.8 -1.4,0 -2.5,-1.3 -2.5,-2.8 z"
       class="ga_17"
       id="path132" />
    <path
       fill-rule="evenodd"
       d="m 693.49999,516.37103 v 0 c 0,-1.5 1.1,-2.7 2.5,-2.7 0.7,0 1.3,0.3 1.8,0.8 0.4,0.5 0.7,1.2 0.7,1.9 0,1.5 -1.1,2.8 -2.5,2.8 -1.4,0 -2.5,-1.3 -2.5,-2.8 z"
       class="gb_17"
       id="path133" />
    <path
       fill-rule="evenodd"
       d="m 766.69999,608.67103 v 0 c 0,-0.8 -0.7,-1.5 -1.5,-1.5 h -18.8 c -0.4,0 -0.8,0.1 -1.1,0.4 -0.3,0.3 -0.5,0.7 -0.5,1.1 v 6.3 c 0,0.9 0.7,1.6 1.6,1.6 h 18.8 c 0.8,0 1.5,-0.7 1.5,-1.6 z"
       class="g3_17"
       id="path134" />
    <path
       d="m 766.69999,608.67103 v 0 c 0,-0.8 -0.7,-1.5 -1.5,-1.5 h -18.8 c -0.4,0 -0.8,0.1 -1.1,0.4 -0.3,0.3 -0.5,0.7 -0.5,1.1 v 6.3 c 0,0.9 0.7,1.6 1.6,1.6 h 18.8 c 0.8,0 1.5,-0.7 1.5,-1.6 z"
       class="g4_17"
       id="path135" />
    <path
       fill-rule="evenodd"
       d="m 676.49999,638.87103 v -2 h 16.2 v 2 z"
       class="g3_17"
       id="path136" />
    <path
       d="m 676.49999,638.87103 v -2 h 16.2 v 2 z"
       class="g4_17"
       id="path137" />
    <path
       fill-rule="evenodd"
       d="m 677.99999,638.57103 v 0 c -0.8,0 -1.5,-0.7 -1.5,-1.5 v -20.9 c 0,-0.4 0.2,-0.8 0.5,-1 0.2,-0.3 0.6,-0.5 1,-0.5 h 5.7 c 0.8,0 1.5,0.7 1.5,1.5 v 20.9 c 0,0.8 -0.7,1.5 -1.5,1.5 z"
       class="g3_17"
       id="path138" />
    <path
       d="m 677.99999,638.57103 v 0 c -0.8,0 -1.5,-0.7 -1.5,-1.5 v -20.9 c 0,-0.4 0.2,-0.8 0.5,-1 0.2,-0.3 0.6,-0.5 1,-0.5 h 5.7 c 0.8,0 1.5,0.7 1.5,1.5 v 20.9 c 0,0.8 -0.7,1.5 -1.5,1.5 z"
       class="g4_17"
       id="path139" />
    <path
       fill-rule="evenodd"
       d="m 680.69999,622.27103 v 0 c -1.3,0 -2.4,-1.2 -2.4,-2.7 0,-1.5 1.1,-2.7 2.4,-2.7 1.4,0 2.5,1.2 2.5,2.7 0,1.5 -1.1,2.7 -2.5,2.7 z"
       class="g9_17"
       id="path140" />
    <path
       fill-rule="evenodd"
       d="m 680.69999,629.87103 v 0 c -1.3,0 -2.4,-1.2 -2.4,-2.7 0,-1.5 1.1,-2.7 2.4,-2.7 1.4,0 2.5,1.2 2.5,2.7 0,1.5 -1.1,2.7 -2.5,2.7 z"
       class="ga_17"
       id="path141" />
    <path
       fill-rule="evenodd"
       d="m 680.69999,637.37103 v 0 c -1.3,0 -2.4,-1.2 -2.4,-2.7 0,-1.5 1.1,-2.7 2.4,-2.7 1.4,0 2.5,1.2 2.5,2.7 0,1.5 -1.1,2.7 -2.5,2.7 z"
       class="gb_17"
       id="path142" />
    <path
       fill-rule="evenodd"
       d="m 729.69999,515.07103 h 30.2 v 162.2 h -30.2 z"
       class="gd_17"
       id="path143" />
    <path
       fill-rule="evenodd"
       d="m 649.99999,674.27103 h 51.1 z"
       class="g1_17"
       id="path144" />
    <path
       d="m 649.99999,674.27103 h 44.2"
       class="ge_17"
       id="path145" />
    <path
       fill-rule="evenodd"
       d="m 694.19999,676.17103 5.2,-1.9 -5.2,-1.9 z"
       class="gf_17"
       id="path146" />
    <path
       fill-rule="evenodd"
       d="m 527.39999,652.07103 h 134.6 v 44.4 h -134.6 z"
       class="g1_17"
       id="path147" />
    <text
       clip-path="url(#c0_17)"
       x="621.5"
       y="734.90002"
       class="s7_17"
       id="text147"
       transform="translate(-52.874691,-55.702947)">stop line </text>
    <path
       fill-rule="evenodd"
       d="m 760.19999,674.77103 h 35.7 z"
       class="g1_17"
       id="path148" />
    <path
       d="m 766.99999,674.77103 h 28.9"
       class="ge_17"
       id="path149" />
    <path
       fill-rule="evenodd"
       d="m 766.99999,672.87103 -5.2,1.9 5.2,1.9 z"
       class="gf_17"
       id="path150" />
    <path
       fill-rule="evenodd"
       d="m 785.49999,652.07103 h 134.6 v 88.9 h -134.6 z"
       class="g1_17"
       id="path151" />
    <path
       fill-rule="evenodd"
       d="m 711.29999,625.47103 v -57.8 z"
       class="g1_17"
       id="path153" />
    <path
       d="m 711.29999,625.47103 v -50.9"
       class="gg_17"
       id="path154" />
    <path
       fill-rule="evenodd"
       d="m 713.09999,574.57103 -1.8,-5.2 -1.9,5.2 z"
       class="gh_17"
       id="path155" />
    <path
       fill-rule="evenodd"
       d="m 745.29999,625.47103 v -57.8 z"
       class="g1_17"
       id="path156" />
    <path
       d="m 745.29999,618.67103 v -51"
       class="gg_17"
       id="path157" />
    <path
       fill-rule="evenodd"
       d="m 743.39999,618.67103 1.9,5.2 1.9,-5.2 z"
       class="gh_17"
       id="path158" />
    <text
       xml:space="preserve"
       style="font-size:13.3333px;font-family:Sans;-inkscape-font-specification:'Sans, Normal';white-space:pre;opacity:0.686727;fill:#000000;stroke:#ff0000;stroke-width:3;stroke-opacity:0"
       x="801.44983"
       y="658.85712"
       id="text163"><tspan
         sodipodi:role="line"
         id="tspan163"
         x="801.44983"
         y="658.85712"
         style="font-style:normal;font-variant:normal;font-weight:normal;font-stretch:normal;font-size:16px;font-family:Sans;-inkscape-font-specification:'Sans, Normal';font-variant-ligatures:normal;font-variant-caps:normal;font-variant-numeric:normal;font-variant-east-asian:normal">Use the extended line</tspan><tspan
         sodipodi:role="line"
         x="801.44983"
         y="678.85712"
         id="tspan164"
         style="font-style:normal;font-variant:normal;font-weight:normal;font-stretch:normal;font-size:16px;font-family:Sans;-inkscape-font-specification:'Sans, Normal';font-variant-ligatures:normal;font-variant-caps:normal;font-variant-numeric:normal;font-variant-east-asian:normal">from one end of the</tspan><tspan
         sodipodi:role="line"
         x="801.44983"
         y="698.85712"
         id="tspan165"
         style="font-style:normal;font-variant:normal;font-weight:normal;font-stretch:normal;font-size:16px;font-family:Sans;-inkscape-font-specification:'Sans, Normal';font-variant-ligatures:normal;font-variant-caps:normal;font-variant-numeric:normal;font-variant-east-asian:normal">stop line as a lanelet</tspan><tspan
         sodipodi:role="line"
         x="801.44983"
         y="718.85712"
         id="tspan166"
         style="font-style:normal;font-variant:normal;font-weight:normal;font-stretch:normal;font-size:16px;font-family:Sans;-inkscape-font-specification:'Sans, Normal';font-variant-ligatures:normal;font-variant-caps:normal;font-variant-numeric:normal;font-variant-east-asian:normal">connection boundary</tspan><tspan
         sodipodi:role="line"
         x="801.44983"
         y="738.85712"
         id="tspan167"
         style="font-style:normal;font-variant:normal;font-weight:normal;font-stretch:normal;font-size:16px;font-family:Sans;-inkscape-font-specification:'Sans, Normal';font-variant-ligatures:normal;font-variant-caps:normal;font-variant-numeric:normal;font-variant-east-asian:normal">in the intersection </tspan></text>
  </g>
  <!-- Any embedded fonts defined here -->
  <style
     type="text/css"
     id="style158"><![CDATA[

@font-face {
	font-family: ArialMT_3h;
	src: url("fonts/ArialMT_3h.woff") format("woff");
}

@font-face {
	font-family: MS-PGothic_3l;
	src: url("fonts/MS-PGothic_3l.woff") format("woff");
}

]]></style>
</svg>
