<?xml version="1.0" encoding="UTF-8" standalone="no"?>
<!-- Created with Inkscape (http://www.inkscape.org/) -->

<svg
   width="100.925mm"
   height="69.307999mm"
   viewBox="0 0 100.925 69.307998"
   version="1.1"
   id="svg1"
   inkscape:version="1.3.2 (1:1.3.2+202311252150+091e20ef0f)"
   sodipodi:docname="vm-07-01_1.svg"
   xmlns:inkscape="http://www.inkscape.org/namespaces/inkscape"
   xmlns:sodipodi="http://sodipodi.sourceforge.net/DTD/sodipodi-0.dtd"
   xmlns="http://www.w3.org/2000/svg"
   xmlns:svg="http://www.w3.org/2000/svg">
  <sodipodi:namedview
     id="namedview1"
     pagecolor="#ffffff"
     bordercolor="#000000"
     borderopacity="0.25"
     inkscape:showpageshadow="2"
     inkscape:pageopacity="0.0"
     inkscape:pagecheckerboard="0"
     inkscape:deskcolor="#d1d1d1"
     inkscape:document-units="mm"
     inkscape:zoom="1.7131103"
     inkscape:cx="-413.28338"
     inkscape:cy="4.3780019"
     inkscape:window-width="3840"
     inkscape:window-height="2123"
     inkscape:window-x="0"
     inkscape:window-y="0"
     inkscape:window-maximized="1"
     inkscape:current-layer="layer1" />
  <defs
     id="defs1">
    <clipPath
       id="c0_67">
      <path
         d="M 0,825 V 0 h 1100 v 825 z"
         id="path2" />
    </clipPath>
  </defs>
  <g
     inkscape:label="Layer 1"
     inkscape:groupmode="layer"
     id="layer1"
     transform="translate(-214.3125,-147.37292)">
    <path
       fill-rule="evenodd"
       d="m 252.98912,170.19094 v -19.18229 h 5.87375 v 19.18229 z"
       class="g5_67"
       id="path65"
       style="display:block;fill:#666666;stroke-width:0.264583" />
    <path
       d="m 252.98912,170.19094 v -19.18229 h 5.87375 v 19.18229 z"
       class="g6_67"
       id="path66"
       style="display:block;fill:none;stroke:#666666;stroke-width:0.302948;stroke-linejoin:round" />
    <path
       fill-rule="evenodd"
       d="m 274.10287,175.82657 h 19.1823 v 5.87375 h -19.1823 z"
       class="g5_67"
       id="path67"
       style="display:block;fill:#666666;stroke-width:0.264583" />
    <path
       d="m 274.10287,175.82657 h 19.1823 v 5.87375 h -19.1823 z"
       class="g6_67"
       id="path68"
       style="display:block;fill:none;stroke:#666666;stroke-width:0.302948;stroke-linejoin:round" />
    <path
       fill-rule="evenodd"
       d="m 218.59329,175.82657 h 19.18229 v 5.87375 h -19.18229 z"
       class="g5_67"
       id="path69"
       style="display:block;fill:#666666;stroke-width:0.264583" />
    <path
       d="m 218.59329,175.82657 h 19.18229 v 5.87375 h -19.18229 z"
       class="g6_67"
       id="path70"
       style="display:block;fill:none;stroke:#666666;stroke-width:0.302948;stroke-linejoin:round" />
    <path
       fill-rule="evenodd"
       d="m 235.26204,175.82657 h 17.72708 v -17.72709 h 5.90021 v 17.72709 h 17.70063 v 5.9002 h -17.70063 v 17.70063 h -5.90021 v -17.70063 h -17.72708 z"
       class="g5_67"
       id="path71"
       style="display:block;fill:#666666;stroke-width:0.264583" />
    <path
       d="m 235.26204,175.82657 h 17.72708 v -17.72709 h 5.90021 v 17.72709 h 17.70063 v 5.9002 h -17.70063 v 17.70063 h -5.90021 v -17.70063 h -17.72708 z"
       class="g6_67"
       id="path72"
       style="display:block;fill:none;stroke:#666666;stroke-width:0.302948;stroke-linejoin:round" />
    <path
       fill-rule="evenodd"
       d="m 251.21642,175.87948 h 1.82562 v -1.79916 h 5.76792 v 1.79916 h 1.79916 v 5.76792 h -1.79916 v 1.82562 h -5.76792 v -1.82562 h -1.82562 z"
       class="g5_67"
       id="path73"
       style="display:block;fill:#666666;stroke-width:0.264583" />
    <path
       d="m 251.21642,175.87948 h 1.82562 v -1.79916 h 5.76792 v 1.79916 h 1.79916 v 5.76792 h -1.79916 v 1.82562 h -5.76792 v -1.82562 h -1.82562 z"
       class="g6_67"
       id="path74"
       style="display:block;fill:none;stroke:#666666;stroke-width:0.302948;stroke-linejoin:round" />
    <path
       fill-rule="evenodd"
       d="m 218.59329,178.76344 h 74.69188 z"
       class="g1_67"
       id="path75"
       style="display:block;fill:#000000;fill-opacity:0;stroke-width:0.264583" />
    <path
       d="m 218.59329,178.76344 h 74.69188"
       class="g7_67"
       id="path76"
       style="display:block;fill:none;stroke:#ffffff;stroke-width:0.60616;stroke-linejoin:round;stroke-dasharray:2.64583, 1.85208" />
    <path
       fill-rule="evenodd"
       d="m 255.926,173.7099 3.20146,0.0265 z"
       class="g1_67"
       id="path77"
       style="display:block;fill:#000000;fill-opacity:0;stroke-width:0.264583" />
    <path
       d="m 255.926,173.7099 3.20146,0.0265"
       class="g8_67"
       id="path78"
       style="display:block;fill:none;stroke:#f3f3f3;stroke-width:0.60616;stroke-linejoin:round" />
    <path
       fill-rule="evenodd"
       d="m 252.72454,183.81698 3.20146,0.0265 z"
       class="g1_67"
       id="path79"
       style="display:block;fill:#000000;fill-opacity:0;stroke-width:0.264583" />
    <path
       d="m 252.72454,183.81698 3.20146,0.0265"
       class="g8_67"
       id="path80"
       style="display:block;fill:none;stroke:#f3f3f3;stroke-width:0.60616;stroke-linejoin:round" />
    <path
       fill-rule="evenodd"
       d="m 253.12142,199.50677 v -14.94895 c 0,-4.84188 3.91583,-8.73125 8.73125,-8.73125 h 31.4325 v 2.88395 h -31.4325 c -3.22792,0 -5.82084,2.61938 -5.82084,5.8473 v 14.94895 z"
       class="g9_67"
       id="path81"
       style="display:block;fill:#ea9999;fill-opacity:0.37;stroke-width:0.264583" />
    <path
       fill-rule="evenodd"
       d="m 255.10579,181.48865 c 0.15875,-0.3175 0.55563,-1.27 1.00542,-1.79917 0.47625,-0.50271 1.11125,-0.89958 1.77271,-1.27 0.68791,-0.37041 1.56104,-0.76729 2.30187,-0.9525 0.71438,-0.18521 0.71438,-0.15875 2.09021,-0.18521 1.37583,-0.0264 5.18583,0 6.21771,0 z"
       class="g1_67"
       id="path82"
       style="display:block;fill:#000000;fill-opacity:0;stroke-width:0.264583" />
    <path
       d="m 255.10579,181.48865 c 0.15875,-0.3175 0.55563,-1.27 1.00542,-1.79917 0.47625,-0.50271 1.11125,-0.89958 1.77271,-1.27 0.68791,-0.37041 1.56104,-0.76729 2.30187,-0.9525 0.71438,-0.18521 0.71438,-0.15875 2.09021,-0.18521 0.34396,0 0.84667,0 1.40229,0 0.29104,0 0.60854,0 0.89958,0 h 0.29105"
       class="ga_67"
       id="path83"
       style="display:block;fill:none;stroke:#ff9900;stroke-width:0.60616;stroke-linejoin:round" />
    <path
       fill-rule="evenodd"
       d="m 264.86892,178.26073 2.75166,-0.97896 -2.75166,-1.00541 z"
       class="gb_67"
       id="path84"
       style="display:block;fill:#ff9900;stroke:#ff9900;stroke-width:0.60616;stroke-miterlimit:10" />
    <path
       fill-rule="evenodd"
       d="m 280.63808,160.24261 h 32.72896 v 5.87375 h -32.72896 z"
       class="g1_67"
       id="path85"
       style="display:block;fill:#000000;fill-opacity:0;stroke-width:0.264583" />
    <text
       clip-path="url(#c0_67)"
       x="946.5"
       y="279.39999"
       class="s7_67"
       id="text85"
       transform="matrix(0.26458333,0,0,0.26458333,37.975615,89.468687)"
       style="font-size:9.17px;font-family:MS-PGothic_bf;white-space:pre;display:block;fill:#000000"><tspan
         sodipodi:role="line"
         id="tspan152"
         x="946.5"
         y="279.39999"> </tspan><tspan
         sodipodi:role="line"
         id="tspan153"
         x="946.5"
         y="290.86249">Range of sensor </tspan></text>
    <path
       fill-rule="evenodd"
       d="M 287.80829,164.68761 276.881,170.24386 Z"
       class="g1_67"
       id="path86"
       style="display:block;fill:#000000;fill-opacity:0;stroke-width:0.264583" />
    <path
       d="m 287.80829,164.68761 -9.28687,4.73604"
       class="gd_67"
       id="path87"
       style="display:block;fill:none;stroke:#595959;stroke-width:0.302948;stroke-linejoin:round" />
    <path
       fill-rule="evenodd"
       d="m 278.28329,168.97386 -1.00542,1.05833 1.45521,-0.15875 z"
       class="ge_67"
       id="path88"
       style="display:block;fill:#595959;stroke:#595959;stroke-width:0.302948;stroke-miterlimit:10" />
    <path
       fill-rule="evenodd"
       d="m 225.34017,175.82657 h 35.48062 v 2.88395 h -35.48062 z"
       class="g9_67"
       id="path89"
       style="display:block;fill:#ea9999;fill-opacity:0.37;stroke-width:0.264583" />
    <path
       fill-rule="evenodd"
       d="m 223.40871,178.81636 h 69.90291 v 2.88396 h -69.90291 z"
       class="g9_67"
       id="path90"
       style="display:block;fill:#ea9999;fill-opacity:0.37;stroke-width:0.264583" />
    <path
       fill-rule="evenodd"
       d="m 256.21704,153.73386 h 2.64583 v 45.77291 h -2.64583 z"
       class="g9_67"
       id="path91"
       style="display:block;fill:#ea9999;fill-opacity:0.37;stroke-width:0.264583" />
    <path
       fill-rule="evenodd"
       d="m 258.86287,175.64136 v 0.71437 c 0,3.04271 -2.46062,5.50334 -5.47687,5.50334 h -0.79375 v 0.0529 -2.83104 0.0265 h 0.79375 c 1.50812,0 2.75167,-1.21708 2.75167,-2.75167 v -0.71437 z"
       class="g9_67"
       id="path92"
       style="display:block;fill:#ea9999;fill-opacity:0.37;stroke-width:0.264583" />
    <path
       fill-rule="evenodd"
       d="m 253.20079,153.73386 h 2.64583 v 30.24187 h -2.64583 z"
       class="g9_67"
       id="path93"
       style="display:block;fill:#ea9999;fill-opacity:0.37;stroke-width:0.264583" />
    <path
       fill-rule="evenodd"
       d="m 259.20683,181.70032 h -0.71437 c -3.04271,0 -5.50334,-2.46063 -5.50334,-5.50334 v -0.76729 h -0.0265 2.83104 -0.0529 v 0.76729 c 0,1.53459 1.24354,2.77813 2.75167,2.77813 h 0.71437 z"
       class="g9_67"
       id="path94"
       style="display:block;fill:#ea9999;fill-opacity:0.37;stroke-width:0.264583" />
    <path
       fill-rule="evenodd"
       d="m 252.59225,175.82657 h 0.74083 c 3.01625,0 5.47688,2.46062 5.47688,5.50333 v 0.76729 h 0.0529 -2.83104 0.0529 v -0.76729 c 0,-1.53458 -1.24354,-2.75167 -2.75167,-2.75167 h -0.74083 z"
       class="g9_67"
       id="path95"
       style="display:block;fill:#ea9999;fill-opacity:0.37;stroke-width:0.264583" />
    <path
       fill-rule="evenodd"
       d="m 225.7635,185.40448 v 0 c 0,-15.875 12.88521,-28.7602 28.76021,-28.7602 7.62,0 14.94896,3.0427 20.34646,8.41375 5.37104,5.39749 8.41375,12.72645 8.41375,20.34645 0,15.875 -12.88521,28.76021 -28.76021,28.76021 -15.875,0 -28.76021,-12.88521 -28.76021,-28.76021 z"
       class="gc_67"
       id="path96"
       style="display:block;fill:#a4c2f4;fill-opacity:0.36;stroke-width:0.264583" />
    <path
       fill-rule="evenodd"
       d="m 253.41246,183.5524 v 0 c 0,-0.0265 0.0265,-0.0265 0.0529,-0.0265 h 0.15875 c 0.0265,0 0.0265,0.0265 0.0265,0.0265 0.0265,0 0.0265,0.0265 0.0265,0.0265 l -0.0794,0.68791 c 0,0.0265 0,0.0529 -0.0265,0.0265 H 253.386 c -0.0265,0 -0.0265,-0.0265 -0.0265,-0.0529 z"
       class="gf_67"
       id="path97"
       style="display:block;fill:#000000;stroke-width:0.264583" />
    <path
       fill-rule="evenodd"
       d="m 255.66142,183.76407 v 0 c 0,-0.0265 0.0264,-0.0529 0.0529,-0.0529 l 0.15875,0.0265 q 0.0265,0 0.0265,0.0265 0.0265,0 0.0265,0.0265 l -0.0794,0.68792 c 0,0 -0.0264,0.0265 -0.0264,0.0265 l -0.18521,-0.0265 q -0.0265,0 -0.0265,-0.0265 z"
       class="gf_67"
       id="path98"
       style="display:block;fill:#000000;stroke-width:0.264583" />
    <path
       fill-rule="evenodd"
       d="m 253.17433,186.35698 v 0 c 0,-0.0265 0.0265,-0.0265 0.0265,-0.0265 h 0.18521 c 0,0 0.0265,0.0265 0.0265,0.0265 0,0 0,0.0265 0,0.0265 l -0.0529,0.68792 c 0,0.0265 -0.0265,0.0265 -0.0529,0.0265 h -0.15875 c -0.0265,0 -0.0529,-0.0265 -0.0529,-0.0529 z"
       class="gf_67"
       id="path99"
       style="display:block;fill:#000000;stroke-width:0.264583" />
    <path
       fill-rule="evenodd"
       d="m 255.42329,186.56865 v 0 c 0,-0.0265 0,-0.0529 0.0265,-0.0529 l 0.18521,0.0265 c 0,0 0.0265,0 0.0265,0.0265 v 0.0265 l -0.0529,0.66146 c 0,0.0264 -0.0265,0.0529 -0.0529,0.0529 l -0.15875,-0.0265 c -0.0265,0 -0.0529,0 -0.0529,-0.0264 z"
       class="gf_67"
       id="path100"
       style="display:block;fill:#000000;stroke-width:0.264583" />
    <path
       fill-rule="evenodd"
       d="m 253.51829,183.47302 v 0 c 0.0265,-0.37041 0.34396,-0.635 0.68792,-0.58208 l 1.05833,0.0794 c 0.18521,0.0264 0.34396,0.10583 0.44979,0.23812 0.10584,0.13229 0.15875,0.29104 0.15875,0.47625 l -0.34396,3.65125 c -0.0265,0.37042 -0.34395,0.635 -0.68791,0.60854 l -1.05834,-0.10583 c -0.37041,-0.0265 -0.635,-0.34396 -0.60854,-0.71438 z"
       class="gg_67"
       id="path101"
       style="display:block;fill:#3d85c6;stroke-width:0.264583" />
    <path
       fill-rule="evenodd"
       d="m 254.52371,182.86448 v 0 h 0.0265 l 0.39687,0.0265 h 0.0265 c 0,0 0,0.0265 0,0.0265 l -0.0265,0.0529 q 0,0.0264 0,0.0264 l -0.42333,-0.0264 c 0,0 0,-0.0265 0,-0.0265 z"
       class="gh_67"
       id="path102"
       style="display:block;fill:#efefef;stroke-width:0.264583" />
    <path
       fill-rule="evenodd"
       d="m 253.88871,183.04969 v 0.15875 l 0.18521,-0.0265 0.0529,-0.0265 0.0265,-0.0264 v -0.0529 l -0.0265,-0.0265 h -0.10583 z"
       class="g0_67"
       id="path103"
       style="display:block;fill:#ffffff;stroke-width:0.264583" />
    <path
       fill-rule="evenodd"
       d="m 255.55558,183.20844 -0.0265,0.13229 -0.1852,-0.0529 -0.0529,-0.0265 v -0.0794 l 0.0265,-0.0265 h 0.10583 z"
       class="g0_67"
       id="path104"
       style="display:block;fill:#ffffff;stroke-width:0.264583" />
    <path
       fill-rule="evenodd"
       d="m 253.7035,184.42552 0.10583,0.50271 0.0265,0.0265 0.0529,0.0265 1.29646,0.13229 0.0529,-0.0265 0.0529,-0.0265 0.18521,-0.42333 v -0.0529 l -0.0265,-0.0529 -0.18521,-0.0794 -0.23812,-0.0794 -0.23813,-0.0265 -0.23812,-0.0265 h -0.42334 l -0.13229,0.0265 -0.13229,0.0265 -0.10583,0.0265 z"
       class="gi_67"
       id="path105"
       style="display:block;fill:#9fc5e8;stroke-width:0.264583" />
    <path
       d="m 253.7035,184.42552 0.10583,0.50271 0.0265,0.0265 0.0529,0.0265 1.29646,0.13229 0.0529,-0.0265 0.0529,-0.0265 0.18521,-0.42333 v -0.0529 l -0.0265,-0.0529 -0.18521,-0.0794 -0.23812,-0.0794 -0.23813,-0.0265 -0.23812,-0.0265 h -0.42334 l -0.13229,0.0265 -0.13229,0.0265 -0.10583,0.0265 z"
       class="gj_67"
       id="path106"
       style="display:block;fill:none;stroke:#073763;stroke-width:0.302948;stroke-linejoin:round" />
    <path
       fill-rule="evenodd"
       d="m 253.54475,184.58427 -0.21167,2.46063 v 0.0529 l 0.0529,0.0264 0.18521,-0.15875 0.0794,-0.10583 0.0265,-0.0794 0.10583,-1.42875 v -0.1323 l -0.0529,-0.1852 -0.0529,-0.18521 z"
       class="gi_67"
       id="path107"
       style="display:block;fill:#9fc5e8;stroke-width:0.264583" />
    <path
       d="m 253.54475,184.58427 -0.21167,2.46063 v 0.0529 l 0.0529,0.0264 0.18521,-0.15875 0.0794,-0.10583 0.0265,-0.0794 0.10583,-1.42875 v -0.1323 l -0.0529,-0.1852 -0.0529,-0.18521 z"
       class="gj_67"
       id="path108"
       style="display:block;fill:none;stroke:#073763;stroke-width:0.302948;stroke-linejoin:round" />
    <path
       fill-rule="evenodd"
       d="m 255.63496,184.79594 -0.21167,2.46063 -0.0265,0.0529 h -0.0265 l -0.1852,-0.18521 -0.0529,-0.10583 v -0.0794 l 0.13229,-1.42875 0.0529,-0.10584 0.0794,-0.18521 0.0794,-0.1852 z"
       class="gi_67"
       id="path109"
       style="display:block;fill:#9fc5e8;stroke-width:0.264583" />
    <path
       d="m 255.63496,184.79594 -0.21167,2.46063 -0.0265,0.0529 h -0.0265 l -0.1852,-0.18521 -0.0529,-0.10583 v -0.0794 l 0.13229,-1.42875 0.0529,-0.10584 0.0794,-0.18521 0.0794,-0.1852 z"
       class="gj_67"
       id="path110"
       style="display:block;fill:none;stroke:#073763;stroke-width:0.302948;stroke-linejoin:round" />
    <path
       fill-rule="evenodd"
       d="m 253.54475,184.55782 -0.0265,-0.0265 h -0.13229 l -0.0794,0.0265 -0.0265,0.0265 -0.0265,0.0265 v 0.0529 l 0.0265,0.0265 0.0529,0.0265 0.0794,0.0264 h 0.0794 l 0.0529,-0.0264 0.0265,-0.0265 0.0265,-0.0265 v -0.0529 l -0.0265,-0.0265 z"
       class="gk_67"
       id="path111"
       style="display:block;fill:#0b5394;stroke-width:0.264583" />
    <path
       fill-rule="evenodd"
       d="m 255.63496,184.74302 0.0529,-0.0264 0.0529,0.0264 h 0.0529 l 0.0529,0.0265 0.0529,0.0529 v 0.0794 l -0.0265,0.0265 -0.0529,0.0265 h -0.15875 l -0.0529,-0.0529 -0.0265,-0.0264 -0.0265,-0.0529 0.0265,-0.0265 v -0.0265 z"
       class="gk_67"
       id="path112"
       style="display:block;fill:#0b5394;stroke-width:0.264583" />
    <path
       fill-rule="evenodd"
       d="m 254.07392,187.81219 v 0 c 0,0 0.0264,-0.0265 0.0264,-0.0265 l 0.39688,0.0529 q 0.0265,0 0.0265,0 v 0.0794 q 0,0.0265 -0.0265,0.0265 l -0.39688,-0.0529 q -0.0264,0 -0.0264,0 z"
       class="gh_67"
       id="path113"
       style="display:block;fill:#efefef;stroke-width:0.264583" />
    <path
       fill-rule="evenodd"
       d="m 253.46537,187.83865 0.0265,-0.13229 0.18521,0.0529 0.0265,0.0265 h 0.0265 v 0.0794 l -0.0265,0.0265 h -0.0529 l -0.0794,-0.0265 z"
       class="gk_67"
       id="path114"
       style="display:block;fill:#0b5394;stroke-width:0.264583" />
    <path
       fill-rule="evenodd"
       d="m 255.13225,187.9974 -0.0265,-0.15875 -0.15875,0.0265 -0.0529,0.0265 h -0.0265 v 0.0794 l 0.0265,0.0265 h 0.10584 z"
       class="gk_67"
       id="path115"
       style="display:block;fill:#0b5394;stroke-width:0.264583" />
    <path
       fill-rule="evenodd"
       d="m 253.78287,187.0449 h -0.0529 l -0.3175,0.23812 -0.0529,0.0529 0.0265,0.0529 0.0794,0.0794 0.10584,0.0529 0.18521,0.0794 0.1852,0.0265 0.18521,0.0529 h 0.21167 l 0.21167,0.0265 h 0.21166 l 0.23813,-0.0265 0.15875,-0.0529 0.13229,-0.0529 0.0265,-0.0529 -0.0529,-0.0794 -0.23812,-0.26458 h -0.0265 l -0.34396,-0.0529 -0.34396,-0.0264 -0.26458,-0.0265 z"
       class="gi_67"
       id="path116"
       style="display:block;fill:#9fc5e8;stroke-width:0.264583" />
    <path
       d="m 253.78287,187.0449 h -0.0529 l -0.3175,0.23812 -0.0529,0.0529 0.0265,0.0529 0.0794,0.0794 0.10584,0.0529 0.18521,0.0794 0.1852,0.0265 0.18521,0.0529 h 0.21167 l 0.21167,0.0265 h 0.21166 l 0.23813,-0.0265 0.15875,-0.0529 0.13229,-0.0529 0.0265,-0.0529 -0.0529,-0.0794 -0.23812,-0.26458 h -0.0265 l -0.34396,-0.0529 -0.34396,-0.0264 -0.26458,-0.0265 z"
       class="gj_67"
       id="path117"
       style="display:block;fill:none;stroke:#073763;stroke-width:0.302948;stroke-linejoin:round" />
    <path
       fill-rule="evenodd"
       d="m 254.15329,183.10261 c 0.0529,0 0.18521,-0.0265 0.3175,0 0.10583,0 0.26458,0 0.37042,0.0265 0.10583,0 0.15875,0.0264 0.23812,0.0264 0.0529,0.0265 0.15875,0.0265 0.18521,0.0529 z"
       class="g1_67"
       id="path118"
       style="display:block;fill:#000000;fill-opacity:0;stroke-width:0.264583" />
    <path
       d="m 254.15329,183.10261 c 0.0529,0 0.18521,-0.0265 0.3175,0 0.10583,0 0.26458,0 0.37042,0.0265 0.10583,0 0.15875,0.0264 0.23812,0.0264 0.0529,0.0265 0.15875,0.0265 0.18521,0.0529"
       class="gj_67"
       id="path119"
       style="display:block;fill:none;stroke:#073763;stroke-width:0.302948;stroke-linejoin:round" />
    <path
       fill-rule="evenodd"
       d="m 253.78287,183.18198 c 0,0.0265 -0.0264,0.0265 -0.0264,0.0529 -0.0265,0.0265 -0.0265,0.0794 -0.0529,0.15875 0,0.0529 -0.0529,0.18521 -0.0529,0.26458 -0.0265,0.10584 -0.0265,0.18521 -0.0265,0.26459 0,0.0794 0,0.13229 0,0.21166 0,0.0794 0.0529,0.23813 0.0529,0.26459 z"
       class="g1_67"
       id="path120"
       style="display:block;fill:#000000;fill-opacity:0;stroke-width:0.264583" />
    <path
       d="m 253.78287,183.18198 c 0,0.0265 -0.0264,0.0265 -0.0264,0.0529 -0.0265,0.0265 -0.0265,0.0794 -0.0529,0.15875 0,0.0529 -0.0529,0.18521 -0.0529,0.26458 -0.0265,0.10584 -0.0265,0.18521 -0.0265,0.26459 0,0.0794 0,0.13229 0,0.21166 0,0.0794 0.0529,0.23813 0.0529,0.26459"
       class="gj_67"
       id="path121"
       style="display:block;fill:none;stroke:#073763;stroke-width:0.302948;stroke-linejoin:round" />
    <path
       fill-rule="evenodd"
       d="m 255.6085,183.34073 c 0,0 0.0265,0.0265 0.0265,0.0794 0.0265,0.0265 0.0265,0.0529 0.0265,0.10583 0,0.0529 0.0264,0.13229 0.0264,0.18521 0,0.0794 0,0.15875 0,0.23812 -0.0264,0.0794 -0.0264,0.18521 -0.0529,0.23813 0,0.0529 0.0265,0.0265 0,0.10583 -0.0265,0.0529 -0.10584,0.21167 -0.10584,0.26459 z"
       class="g1_67"
       id="path122"
       style="display:block;fill:#000000;fill-opacity:0;stroke-width:0.264583" />
    <path
       d="m 255.6085,183.34073 c 0,0 0.0265,0.0265 0.0265,0.0794 0.0265,0.0265 0.0265,0.0529 0.0265,0.10583 0,0.0529 0.0264,0.13229 0.0264,0.18521 0,0.0794 0,0.15875 0,0.23812 -0.0264,0.0794 -0.0264,0.18521 -0.0529,0.23813 0,0.0529 0.0265,0.0265 0,0.10583 -0.0265,0.0529 -0.10584,0.21167 -0.10584,0.26459"
       class="gj_67"
       id="path123"
       style="display:block;fill:none;stroke:#073763;stroke-width:0.302948;stroke-linejoin:round" />
    <path
       fill-rule="evenodd"
       d="m 254.84121,184.45198 -0.76729,0.44979 h -0.0794 l -0.0794,-0.0264 -0.0265,-0.0265 -0.0265,-0.0265 -0.10583,-0.3175 v -0.0265 l 0.0529,-0.0265 0.15875,-0.0265 h 0.58209 l 0.15875,0.0265 z"
       class="gl_67"
       id="path124"
       style="display:block;fill:#cfe2f3;stroke-width:0.264583" />
  </g>
</svg>
