<?xml version="1.0" encoding="UTF-8" standalone="no"?>
<!-- Created with Inkscape (http://www.inkscape.org/) -->

<svg
   width="73.418999mm"
   height="65.806999mm"
   viewBox="0 0 73.418999 65.807"
   version="1.1"
   id="svg1"
   inkscape:version="1.3.2 (1:1.3.2+202311252150+091e20ef0f)"
   sodipodi:docname="vm-02-01_1.svg"
   xmlns:inkscape="http://www.inkscape.org/namespaces/inkscape"
   xmlns:sodipodi="http://sodipodi.sourceforge.net/DTD/sodipodi-0.dtd"
   xmlns="http://www.w3.org/2000/svg"
   xmlns:svg="http://www.w3.org/2000/svg">
  <sodipodi:namedview
     id="namedview1"
     pagecolor="#ffffff"
     bordercolor="#000000"
     borderopacity="0.25"
     inkscape:showpageshadow="2"
     inkscape:pageopacity="0.0"
     inkscape:pagecheckerboard="0"
     inkscape:deskcolor="#d1d1d1"
     inkscape:document-units="mm"
     inkscape:zoom="1.7131103"
     inkscape:cx="275.81412"
     inkscape:cy="296.24479"
     inkscape:window-width="3840"
     inkscape:window-height="2123"
     inkscape:window-x="0"
     inkscape:window-y="0"
     inkscape:window-maximized="1"
     inkscape:current-layer="layer1" />
  <defs
     id="defs1">
    <clipPath
       id="c0_29">
      <path
         d="M 0,825 V 0 h 1100 v 825 z"
         id="path2" />
    </clipPath>
  </defs>
  <g
     inkscape:label="Layer 1"
     inkscape:groupmode="layer"
     id="layer1"
     transform="translate(-32.014583,-70.114586)">
    <path
       fill-rule="evenodd"
       d="M 34.180336,72.610282 H 71.645335 V 134.04653 H 34.180336 Z"
       class="g5_29"
       id="path60"
       style="display:block;fill:#666666;stroke-width:0.264583" />
    <path
       fill-rule="evenodd"
       d="M 37.699294,72.504448 V 134.31111 Z"
       class="g1_29"
       id="path61"
       style="display:block;fill:#000000;fill-opacity:0;stroke-width:0.264583" />
    <path
       d="M 37.699294,72.504448 V 134.31111"
       class="g6_29"
       id="path62"
       style="display:block;fill:none;stroke:#ffffff;stroke-width:1.21259;stroke-linejoin:round" />
    <path
       fill-rule="evenodd"
       d="M 68.417418,72.504448 V 134.31111 Z"
       class="g1_29"
       id="path63"
       style="display:block;fill:#000000;fill-opacity:0;stroke-width:0.264583" />
    <path
       d="M 68.417418,72.504448 V 134.31111"
       class="g6_29"
       id="path64"
       style="display:block;fill:none;stroke:#ffffff;stroke-width:1.21259;stroke-linejoin:round" />
    <path
       fill-rule="evenodd"
       d="M 37.831585,78.166532 H 68.54971 Z"
       class="g1_29"
       id="path65"
       style="display:block;fill:#000000;fill-opacity:0;stroke-width:0.264583" />
    <path
       d="M 37.831585,78.166532 H 68.54971"
       class="g7_29"
       id="path66"
       style="display:block;fill:none;stroke:#ffffff;stroke-width:2.42517;stroke-linejoin:round" />
    <path
       fill-rule="evenodd"
       d="M 80.561793,80.521323 H 99.66471 V 91.289865 H 80.561793 Z"
       class="g1_29"
       id="path67"
       style="display:block;fill:#000000;fill-opacity:0;stroke-width:0.264583" />
    <text
       clip-path="url(#c0_29)"
       x="324.10001"
       y="528.40002"
       class="sa_29"
       id="text67"
       style="font-size:15.28px;font-family:MS-PGothic_bp;white-space:pre;display:block;fill:#000000"
       transform="matrix(0.26458333,0,0,0.26458333,-2.4644555,-52.669925)">stop line </text>
    <path
       fill-rule="evenodd"
       d="M 80.561793,85.918823 64.58096,78.880907 Z"
       class="g1_29"
       id="path68"
       style="display:block;fill:#000000;fill-opacity:0;stroke-width:0.264583" />
    <path
       d="M 80.561793,85.918823 66.247835,79.62174"
       class="g2_29"
       id="path69"
       style="display:block;fill:none;stroke:#000000;stroke-width:0.302948;stroke-linejoin:round" />
    <path
       fill-rule="evenodd"
       d="m 66.433043,79.171948 -1.455208,-0.105833 1.058333,1.005417 z"
       class="g9_29"
       id="path70"
       style="display:block;fill:#000000;stroke:#000000;stroke-width:0.302948;stroke-miterlimit:10" />
    <path
       fill-rule="evenodd"
       d="m 45.319294,84.06674 v 0 c 0,-0.15875 0.105833,-0.264583 0.238125,-0.264583 h 1.031875 c 0.05292,0 0.132291,0.02646 0.185208,0.07937 0.02646,0.05292 0.05292,0.105833 0.05292,0.185208 v 4.101042 c 0,0.15875 -0.105834,0.264583 -0.238125,0.264583 h -1.031875 c -0.132292,0 -0.238125,-0.105833 -0.238125,-0.264583 z"
       class="ga_29"
       id="path71"
       style="display:block;fill:#000000;stroke-width:0.264583" />
    <path
       fill-rule="evenodd"
       d="m 58.86596,84.06674 v 0 c 0,-0.15875 0.105834,-0.264583 0.264584,-0.264583 h 1.005416 c 0.07937,0 0.132292,0.02646 0.185209,0.07937 0.05292,0.05292 0.07937,0.105833 0.07937,0.185208 v 4.101042 c 0,0.15875 -0.132292,0.264583 -0.264584,0.264583 h -1.005416 c -0.15875,0 -0.264584,-0.105833 -0.264584,-0.264583 z"
       class="ga_29"
       id="path72"
       style="display:block;fill:#000000;stroke-width:0.264583" />
    <path
       fill-rule="evenodd"
       d="m 45.319294,100.97362 v 0 c 0,-0.15875 0.105833,-0.26459 0.238125,-0.26459 h 1.031875 c 0.05292,0 0.132291,0.0265 0.185208,0.0794 0.02646,0.0529 0.05292,0.10584 0.05292,0.18521 v 4.10104 c 0,0.1323 -0.105834,0.26459 -0.238125,0.26459 h -1.031875 c -0.132292,0 -0.238125,-0.13229 -0.238125,-0.26459 z"
       class="ga_29"
       id="path73"
       style="display:block;fill:#000000;stroke-width:0.264583" />
    <path
       fill-rule="evenodd"
       d="m 58.86596,100.97362 v 0 c 0,-0.15875 0.105834,-0.26459 0.264584,-0.26459 h 1.005416 c 0.07937,0 0.132292,0.0265 0.185209,0.0794 0.05292,0.0529 0.07937,0.10584 0.07937,0.18521 v 4.10104 c 0,0.1323 -0.132292,0.26459 -0.264584,0.26459 h -1.005416 c -0.15875,0 -0.264584,-0.13229 -0.264584,-0.26459 z"
       class="ga_29"
       id="path74"
       style="display:block;fill:#000000;stroke-width:0.264583" />
    <path
       fill-rule="evenodd"
       d="m 45.822002,83.484657 v 0 c 0,-2.169584 1.772708,-3.942292 3.942292,-3.942292 h 6.35 c 1.058333,0 2.037291,0.423333 2.778125,1.164167 0.740833,0.740833 1.164166,1.719791 1.164166,2.778125 v 22.092703 c 0,2.16959 -1.772708,3.91584 -3.942291,3.91584 h -6.35 c -2.169584,0 -3.942292,-1.74625 -3.942292,-3.91584 z"
       class="gb_29"
       id="path75"
       style="display:block;fill:#3d85c6;stroke-width:0.264583" />
    <path
       fill-rule="evenodd"
       d="m 51.56346,79.357157 v 0 c 0,-0.07937 0.05292,-0.105834 0.105834,-0.105834 h 2.460625 c 0.02646,0 0.05292,0 0.07937,0.02646 0.02646,0.02646 0.02646,0.05292 0.02646,0.07937 v 0.423333 c 0,0.05292 -0.02646,0.105833 -0.105833,0.105833 h -2.460625 c -0.05292,0 -0.105834,-0.05292 -0.105834,-0.105833 z"
       class="gc_29"
       id="path76"
       style="display:block;fill:#efefef;stroke-width:0.264583" />
    <path
       fill-rule="evenodd"
       d="m 47.859294,80.759448 0.15875,0.873125 1.058333,-0.264583 0.264583,-0.105833 0.105834,-0.132292 0.02646,-0.15875 -0.05292,-0.185208 -0.07937,-0.15875 -0.264583,-0.02646 h -0.47625 z"
       class="g0_29"
       id="path77"
       style="display:block;fill:#ffffff;stroke-width:0.264583" />
    <path
       fill-rule="evenodd"
       d="m 57.91346,80.759448 -0.132291,0.873125 -1.084792,-0.264583 -0.238125,-0.105833 -0.132292,-0.132292 -0.02646,-0.15875 0.07937,-0.185208 0.07937,-0.15875 0.264583,-0.02646 h 0.47625 z"
       class="g0_29"
       id="path78"
       style="display:block;fill:#ffffff;stroke-width:0.264583" />
    <path
       fill-rule="evenodd"
       d="m 47.515335,89.014448 0.926042,2.963334 0.132292,0.238125 0.3175,0.15875 7.858125,-0.02646 0.264583,-0.105833 0.238125,-0.211667 0.9525,-2.566458 v -0.370417 l -0.211667,-0.264583 -1.084791,-0.370417 -1.5875,-0.343958 -1.296459,-0.15875 -1.508125,0.02646 -0.926041,0.02646 -0.661459,0.05292 -0.978958,0.132292 -0.820208,0.211667 -0.661459,0.211666 -0.635,0.238125 z"
       class="gd_29"
       id="path79"
       style="display:block;fill:#9fc5e8;stroke-width:0.264583" />
    <path
       d="m 47.515335,89.014448 0.926042,2.963334 0.132292,0.238125 0.3175,0.15875 7.858125,-0.02646 0.264583,-0.105833 0.238125,-0.211667 0.9525,-2.566458 v -0.370417 l -0.211667,-0.264583 -1.084791,-0.370417 -1.5875,-0.343958 -1.296459,-0.15875 -1.508125,0.02646 -0.926041,0.02646 -0.661459,0.05292 -0.978958,0.132292 -0.820208,0.211667 -0.661459,0.211666 -0.635,0.238125 z"
       class="ge_29"
       id="path80"
       style="display:block;fill:none;stroke:#073763;stroke-width:0.302948;stroke-linejoin:round" />
    <path
       fill-rule="evenodd"
       d="m 46.668669,90.046323 v 14.896037 l 0.07937,0.29104 0.264583,0.10584 1.11125,-1.00542 0.343958,-0.60854 0.185209,-0.52917 -0.15875,-8.704787 -0.132292,-0.635 -0.396875,-1.137708 -0.47625,-1.164167 z"
       class="gd_29"
       id="path81"
       style="display:block;fill:#9fc5e8;stroke-width:0.264583" />
    <path
       d="m 46.668669,90.046323 v 14.896037 l 0.07937,0.29104 0.264583,0.10584 1.11125,-1.00542 0.343958,-0.60854 0.185209,-0.52917 -0.15875,-8.704787 -0.132292,-0.635 -0.396875,-1.137708 -0.47625,-1.164167 z"
       class="ge_29"
       id="path82"
       style="display:block;fill:none;stroke:#073763;stroke-width:0.302948;stroke-linejoin:round" />
    <path
       fill-rule="evenodd"
       d="m 59.289294,90.231532 v 14.869578 l -0.05292,0.29104 -0.291042,0.10584 -1.11125,-1.00542 -0.343958,-0.58208 -0.185208,-0.55563 0.185208,-8.678329 0.105833,-0.661458 0.396875,-1.137708 0.47625,-1.137708 z"
       class="gd_29"
       id="path83"
       style="display:block;fill:#9fc5e8;stroke-width:0.264583" />
    <path
       d="m 59.289294,90.231532 v 14.869578 l -0.05292,0.29104 -0.291042,0.10584 -1.11125,-1.00542 -0.343958,-0.58208 -0.185208,-0.55563 0.185208,-8.678329 0.105833,-0.661458 0.396875,-1.137708 0.47625,-1.137708 z"
       class="ge_29"
       id="path84"
       style="display:block;fill:none;stroke:#073763;stroke-width:0.302948;stroke-linejoin:round" />
    <path
       fill-rule="evenodd"
       d="m 46.668669,89.914032 -0.291042,-0.105834 -0.396875,0.02646 -0.3175,0.07937 -0.396875,0.132291 -0.291042,0.211667 -0.05292,0.238125 v 0.211667 l 0.211666,0.185208 0.3175,0.15875 0.502709,0.07937 h 0.396875 l 0.291041,-0.15875 0.238125,-0.264583 0.07937,-0.185209 v -0.238116 l -0.105824,-0.211666 z"
       class="gf_29"
       id="path85"
       style="display:block;fill:#0b5394;stroke-width:0.264583" />
    <path
       fill-rule="evenodd"
       d="m 59.157002,89.914032 0.291042,-0.105834 0.396875,0.02646 0.3175,0.07937 0.396875,0.132291 0.264583,0.211667 0.07937,0.238125 v 0.211667 l -0.211667,0.185208 -0.3175,0.15875 -0.529166,0.07937 h -0.370417 l -0.291042,-0.15875 -0.238125,-0.264583 -0.07937,-0.185209 v -0.238125 l 0.105834,-0.211666 z"
       class="gf_29"
       id="path86"
       style="display:block;fill:#0b5394;stroke-width:0.264583" />
    <path
       fill-rule="evenodd"
       d="m 51.56346,109.14924 v 0 c 0,-0.0794 0.05292,-0.10584 0.105834,-0.10584 h 2.460625 c 0.02646,0 0.05292,0 0.07937,0.0265 0.02646,0.0265 0.02646,0.0529 0.02646,0.0794 v 0.42333 c 0,0.0529 -0.02646,0.10583 -0.105833,0.10583 h -2.460625 c -0.05292,0 -0.105834,-0.0529 -0.105834,-0.10583 z"
       class="gc_29"
       id="path87"
       style="display:block;fill:#efefef;stroke-width:0.264583" />
    <path
       fill-rule="evenodd"
       d="m 47.859294,109.62549 0.15875,-0.87313 1.058333,0.26459 0.264583,0.10583 0.105834,0.10583 0.02646,0.18521 -0.05292,0.18521 -0.07937,0.15875 -0.264583,0.0265 h -0.47625 z"
       class="gf_29"
       id="path88"
       style="display:block;fill:#0b5394;stroke-width:0.264583" />
    <path
       fill-rule="evenodd"
       d="m 57.91346,109.62549 -0.132291,-0.87313 -1.084792,0.26459 -0.238125,0.10583 -0.132292,0.10583 -0.02646,0.18521 0.07937,0.18521 0.07937,0.15875 0.264583,0.0265 h 0.47625 z"
       class="gf_29"
       id="path89"
       style="display:block;fill:#0b5394;stroke-width:0.264583" />
    <path
       fill-rule="evenodd"
       d="m 49.34096,104.7307 -0.264583,0.0529 -1.852083,1.5875 -0.185209,0.37042 0.07937,0.29104 0.555625,0.39688 0.740834,0.29104 1.084791,0.26458 1.137709,0.15875 1.190625,0.13229 1.217083,-0.0265 1.296458,-0.0529 1.243542,-0.0794 1.402292,-0.29104 0.926041,-0.29104 0.687917,-0.47625 0.132292,-0.37042 -0.211667,-0.3175 -1.719792,-1.45521 -0.15875,-0.13229 -1.931458,-0.0794 h -2.196042 l -1.508125,0.0265 z"
       class="gd_29"
       id="path90"
       style="display:block;fill:#9fc5e8;stroke-width:0.264583" />
    <path
       d="m 49.34096,104.7307 -0.264583,0.0529 -1.852083,1.5875 -0.185209,0.37042 0.07937,0.29104 0.555625,0.39688 0.740834,0.29104 1.084791,0.26458 1.137709,0.15875 1.190625,0.13229 1.217083,-0.0265 1.296458,-0.0529 1.243542,-0.0794 1.402292,-0.29104 0.926041,-0.29104 0.687917,-0.47625 0.132292,-0.37042 -0.211667,-0.3175 -1.719792,-1.45521 -0.15875,-0.13229 -1.931458,-0.0794 h -2.196042 l -1.508125,0.0265 z"
       class="ge_29"
       id="path91"
       style="display:block;fill:none;stroke:#073763;stroke-width:0.302948;stroke-linejoin:round" />
    <path
       fill-rule="evenodd"
       d="m 49.473252,80.838823 c 0.291042,-0.02646 1.137708,-0.132291 1.825625,-0.15875 0.714375,-0.02646 1.693333,-0.02646 2.301875,0 0.635,0 0.9525,0.05292 1.375833,0.07937 0.449792,0.02646 1.031875,0.105834 1.243542,0.132292 z"
       class="g1_29"
       id="path92"
       style="display:block;fill:#000000;fill-opacity:0;stroke-width:0.264583" />
    <path
       d="m 49.473252,80.838823 c 0.291042,-0.02646 1.137708,-0.132291 1.825625,-0.15875 0.714375,-0.02646 1.693333,-0.02646 2.301875,0 0.635,0 0.9525,0.05292 1.375833,0.07937 0.449792,0.02646 1.031875,0.105834 1.243542,0.132292"
       class="ge_29"
       id="path93"
       style="display:block;fill:none;stroke:#073763;stroke-width:0.302948;stroke-linejoin:round" />
    <path
       fill-rule="evenodd"
       d="m 47.383044,81.632573 c -0.05292,0.05292 -0.185209,0.105834 -0.238125,0.291042 -0.07937,0.211667 -0.105834,0.47625 -0.15875,0.899583 -0.07937,0.449792 -0.238125,1.190625 -0.264584,1.74625 -0.05292,0.529167 -0.05292,1.005417 -0.02646,1.481667 0.02646,0.47625 0.07938,0.846667 0.185208,1.322917 0.105834,0.502708 0.370417,1.349375 0.449792,1.613958 z"
       class="g1_29"
       id="path94"
       style="display:block;fill:#000000;fill-opacity:0;stroke-width:0.264583" />
    <path
       d="m 47.383044,81.632573 c -0.05292,0.05292 -0.185209,0.105834 -0.238125,0.291042 -0.07937,0.211667 -0.105834,0.47625 -0.15875,0.899583 -0.07937,0.449792 -0.238125,1.190625 -0.264584,1.74625 -0.05292,0.529167 -0.05292,1.005417 -0.02646,1.481667 0.02646,0.47625 0.07938,0.846667 0.185208,1.322917 0.105834,0.502708 0.370417,1.349375 0.449792,1.613958"
       class="ge_29"
       id="path95"
       style="display:block;fill:none;stroke:#073763;stroke-width:0.302948;stroke-linejoin:round" />
    <path
       fill-rule="evenodd"
       d="m 58.363252,81.553198 c 0.02646,0.05292 0.15875,0.211667 0.211667,0.396875 0.05292,0.185209 0.07937,0.343959 0.132291,0.661459 0.07937,0.3175 0.185209,0.767291 0.238125,1.190625 0.05292,0.423333 0.105834,0.873125 0.105834,1.322916 0,0.47625 -0.07937,1.11125 -0.07937,1.455209 -0.02646,0.343958 0.07937,0.238125 -0.02646,0.635 -0.07937,0.370416 -0.423333,1.42875 -0.502708,1.719791 z"
       class="g1_29"
       id="path96"
       style="display:block;fill:#000000;fill-opacity:0;stroke-width:0.264583" />
    <path
       d="m 58.363252,81.553198 c 0.02646,0.05292 0.15875,0.211667 0.211667,0.396875 0.05292,0.185209 0.07937,0.343959 0.132291,0.661459 0.07937,0.3175 0.185209,0.767291 0.238125,1.190625 0.05292,0.423333 0.105834,0.873125 0.105834,1.322916 0,0.47625 -0.07937,1.11125 -0.07937,1.455209 -0.02646,0.343958 0.07937,0.238125 -0.02646,0.635 -0.07937,0.370416 -0.423333,1.42875 -0.502708,1.719791"
       class="ge_29"
       id="path97"
       style="display:block;fill:none;stroke:#073763;stroke-width:0.302948;stroke-linejoin:round" />
    <path
       fill-rule="evenodd"
       d="m 54.26221,88.696948 -4.233333,3.042709 -0.582083,0.02646 -0.396875,-0.07937 -0.264584,-0.15875 -0.185208,-0.185208 -0.740833,-1.799167 0.05292,-0.185208 0.15875,-0.105834 1.084792,-0.291041 1.190625,-0.185209 1.296458,-0.132291 0.926042,-0.02646 0.978958,0.02646 z"
       class="gg_29"
       id="path98"
       style="display:block;fill:#cfe2f3;stroke-width:0.264583" />
  </g>
</svg>
