<?xml version="1.0" encoding="UTF-8" standalone="no"?>
<!-- Created with Inkscape (http://www.inkscape.org/) -->

<svg
   width="62.791mm"
   height="78.012001mm"
   viewBox="0 0 62.791001 78.012001"
   version="1.1"
   id="svg1"
   inkscape:version="1.3.2 (1:1.3.2+202311252150+091e20ef0f)"
   sodipodi:docname="vm-03-04_1.svg"
   xmlns:inkscape="http://www.inkscape.org/namespaces/inkscape"
   xmlns:sodipodi="http://sodipodi.sourceforge.net/DTD/sodipodi-0.dtd"
   xmlns="http://www.w3.org/2000/svg"
   xmlns:svg="http://www.w3.org/2000/svg">
  <sodipodi:namedview
     id="namedview1"
     pagecolor="#ffffff"
     bordercolor="#000000"
     borderopacity="0.25"
     inkscape:showpageshadow="2"
     inkscape:pageopacity="0.0"
     inkscape:pagecheckerboard="0"
     inkscape:deskcolor="#d1d1d1"
     inkscape:document-units="mm"
     inkscape:zoom="1.7131103"
     inkscape:cx="434.58965"
     inkscape:cy="401.31684"
     inkscape:window-width="3840"
     inkscape:window-height="2123"
     inkscape:window-x="0"
     inkscape:window-y="0"
     inkscape:window-maximized="1"
     inkscape:current-layer="layer1" />
  <defs
     id="defs1" />
  <g
     inkscape:label="Layer 1"
     inkscape:groupmode="layer"
     id="layer1"
     transform="translate(10.054168,-42.333333)">
    <path
       fill-rule="evenodd"
       d="M 12.672054,52.105379 H 31.060595 V 113.93851 H 12.672054 Z"
       class="g5_37"
       id="path274"
       style="display:block;fill:#666666;stroke-width:0.264583" />
    <path
       fill-rule="evenodd"
       d="M -6.4308625,73.774754 H 50.269345 V 92.216212 H -6.4308625 Z"
       class="g5_37"
       id="path275"
       style="display:block;fill:#666666;stroke-width:0.264583" />
    <path
       fill-rule="evenodd"
       d="m 12.724971,52.211212 h 1.031874 v 20.79625 h -1.031874 z"
       class="g6_37"
       id="path276"
       style="display:block;fill:#999999;stroke-width:0.264583" />
    <path
       d="m 12.724971,52.211212 h 1.031874 v 20.79625 h -1.031874 z"
       class="g7_37"
       id="path277"
       style="display:block;fill:none;stroke:#999999;stroke-width:0.302948;stroke-linejoin:round" />
    <path
       fill-rule="evenodd"
       d="m 29.975803,52.211212 h 1.031875 v 20.79625 h -1.031875 z"
       class="g6_37"
       id="path278"
       style="display:block;fill:#999999;stroke-width:0.264583" />
    <path
       d="m 29.975803,52.211212 h 1.031875 v 20.79625 h -1.031875 z"
       class="g7_37"
       id="path279"
       style="display:block;fill:none;stroke:#999999;stroke-width:0.302948;stroke-linejoin:round" />
    <path
       fill-rule="evenodd"
       d="m 12.751429,93.009962 h 1.058333 v 20.796258 h -1.058333 z"
       class="g6_37"
       id="path280"
       style="display:block;fill:#999999;stroke-width:0.264583" />
    <path
       d="m 12.751429,93.009962 h 1.058333 v 20.796258 h -1.058333 z"
       class="g7_37"
       id="path281"
       style="display:block;fill:none;stroke:#999999;stroke-width:0.302948;stroke-linejoin:round" />
    <path
       fill-rule="evenodd"
       d="m 30.002262,93.009962 h 1.058333 v 20.796258 h -1.058333 z"
       class="g6_37"
       id="path282"
       style="display:block;fill:#999999;stroke-width:0.264583" />
    <path
       d="m 30.002262,93.009962 h 1.058333 v 20.796258 h -1.058333 z"
       class="g7_37"
       id="path283"
       style="display:block;fill:none;stroke:#999999;stroke-width:0.302948;stroke-linejoin:round" />
    <path
       fill-rule="evenodd"
       d="m 13.756845,73.03392 v 1.11125 H -6.3514875 v -1.11125 z"
       class="g6_37"
       id="path284"
       style="display:block;fill:#999999;stroke-width:0.264583" />
    <path
       d="m 13.756845,73.03392 v 1.11125 H -6.3514875 v -1.11125 z"
       class="g7_37"
       id="path285"
       style="display:block;fill:none;stroke:#999999;stroke-width:0.302948;stroke-linejoin:round" />
    <path
       fill-rule="evenodd"
       d="m 13.756845,91.792878 v 1.137709 H -6.3514875 v -1.137709 z"
       class="g6_37"
       id="path286"
       style="display:block;fill:#999999;stroke-width:0.264583" />
    <path
       d="m 13.756845,91.792878 v 1.137709 H -6.3514875 v -1.137709 z"
       class="g7_37"
       id="path287"
       style="display:block;fill:none;stroke:#999999;stroke-width:0.302948;stroke-linejoin:round" />
    <path
       fill-rule="evenodd"
       d="m 50.137053,73.060379 v 1.11125 H 30.002262 v -1.11125 z"
       class="g6_37"
       id="path288"
       style="display:block;fill:#999999;stroke-width:0.264583" />
    <path
       d="m 50.137053,73.060379 v 1.11125 H 30.002262 v -1.11125 z"
       class="g7_37"
       id="path289"
       style="display:block;fill:none;stroke:#999999;stroke-width:0.302948;stroke-linejoin:round" />
    <path
       fill-rule="evenodd"
       d="m 50.137053,91.819337 v 1.137708 H 30.002262 v -1.137708 z"
       class="g6_37"
       id="path290"
       style="display:block;fill:#999999;stroke-width:0.264583" />
    <path
       d="m 50.137053,91.819337 v 1.137708 H 30.002262 v -1.137708 z"
       class="g7_37"
       id="path291"
       style="display:block;fill:none;stroke:#999999;stroke-width:0.302948;stroke-linejoin:round" />
    <path
       fill-rule="evenodd"
       d="m 2.7501791,83.03517 -9.1016666,-0.05292 z"
       class="g1_37"
       id="path292"
       style="display:block;fill:#000000;fill-opacity:0;stroke-width:0.264583" />
    <path
       d="m 2.7501791,83.03517 -9.1016666,-0.05292"
       class="g8_37"
       id="path293"
       style="display:block;fill:none;stroke:#f3f3f3;stroke-width:0.60616;stroke-linejoin:round;stroke-dasharray:2.64583, 1.85208" />
    <path
       fill-rule="evenodd"
       d="M 50.137053,83.03517 41.035387,82.98225 Z"
       class="g1_37"
       id="path294"
       style="display:block;fill:#000000;fill-opacity:0;stroke-width:0.264583" />
    <path
       d="M 50.137053,83.03517 41.035387,82.98225"
       class="g8_37"
       id="path295"
       style="display:block;fill:none;stroke:#f3f3f3;stroke-width:0.60616;stroke-linejoin:round;stroke-dasharray:2.64583, 1.85208" />
    <path
       fill-rule="evenodd"
       d="m 21.853095,62.106629 0.05292,-9.895417 z"
       class="g1_37"
       id="path296"
       style="display:block;fill:#000000;fill-opacity:0;stroke-width:0.264583" />
    <path
       d="m 21.853095,62.106629 0.05292,-9.895417"
       class="g8_37"
       id="path297"
       style="display:block;fill:none;stroke:#f3f3f3;stroke-width:0.60616;stroke-linejoin:round;stroke-dasharray:2.64583, 1.85208" />
    <path
       fill-rule="evenodd"
       d="m 21.879554,113.80622 0.05292,-9.89542 z"
       class="g1_37"
       id="path298"
       style="display:block;fill:#000000;fill-opacity:0;stroke-width:0.264583" />
    <path
       d="m 21.879554,113.80622 0.05292,-9.89542"
       class="g8_37"
       id="path299"
       style="display:block;fill:none;stroke:#f3f3f3;stroke-width:0.60616;stroke-linejoin:round;stroke-dasharray:2.64583, 1.85208" />
    <path
       fill-rule="evenodd"
       d="m 2.8295541,83.141004 0.026458,-8.969375 z"
       class="g1_37"
       id="path300"
       style="display:block;fill:#000000;fill-opacity:0;stroke-width:0.264583" />
    <path
       d="m 2.8295541,83.141004 0.026458,-8.969375"
       class="g9_37"
       id="path301"
       style="display:block;fill:none;stroke:#f3f3f3;stroke-width:0.909373;stroke-linejoin:round" />
    <path
       fill-rule="evenodd"
       d="m 41.114762,91.951628 0.02646,-8.969374 z"
       class="g1_37"
       id="path302"
       style="display:block;fill:#000000;fill-opacity:0;stroke-width:0.264583" />
    <path
       d="m 41.114762,91.951628 0.02646,-8.969374"
       class="g9_37"
       id="path303"
       style="display:block;fill:none;stroke:#f3f3f3;stroke-width:0.909373;stroke-linejoin:round" />
    <path
       fill-rule="evenodd"
       d="m 21.747262,62.291837 8.255,0.02646 z"
       class="g1_37"
       id="path304"
       style="display:block;fill:#000000;fill-opacity:0;stroke-width:0.264583" />
    <path
       d="m 21.747262,62.291837 8.255,0.02646"
       class="g9_37"
       id="path305"
       style="display:block;fill:none;stroke:#f3f3f3;stroke-width:0.909373;stroke-linejoin:round" />
    <path
       fill-rule="evenodd"
       d="m 13.809762,103.9108 8.255,0.0265 z"
       class="g1_37"
       id="path306"
       style="display:block;fill:#000000;fill-opacity:0;stroke-width:0.264583" />
    <path
       d="m 13.809762,103.9108 8.255,0.0265"
       class="g9_37"
       id="path307"
       style="display:block;fill:none;stroke:#f3f3f3;stroke-width:0.909373;stroke-linejoin:round" />
    <path
       fill-rule="evenodd"
       d="m 14.233095,97.666628 h 0.899584 v 4.074592 h -0.899584 z"
       class="ga_37"
       id="path308"
       style="display:block;fill:#eeeeee;stroke-width:0.264583" />
    <path
       fill-rule="evenodd"
       d="m 16.085179,97.666628 h 0.899583 v 4.074592 h -0.899583 z"
       class="ga_37"
       id="path309"
       style="display:block;fill:#eeeeee;stroke-width:0.264583" />
    <path
       fill-rule="evenodd"
       d="m 17.937262,97.666628 h 0.899583 v 4.074592 h -0.899583 z"
       class="ga_37"
       id="path310"
       style="display:block;fill:#eeeeee;stroke-width:0.264583" />
    <path
       fill-rule="evenodd"
       d="m 19.789345,97.666628 h 0.873125 v 4.074592 h -0.873125 z"
       class="ga_37"
       id="path311"
       style="display:block;fill:#eeeeee;stroke-width:0.264583" />
    <path
       fill-rule="evenodd"
       d="m 21.641429,97.666628 h 0.873125 v 4.074592 h -0.873125 z"
       class="ga_37"
       id="path312"
       style="display:block;fill:#eeeeee;stroke-width:0.264583" />
    <path
       fill-rule="evenodd"
       d="m 23.493512,97.666628 h 0.873125 v 4.074592 h -0.873125 z"
       class="ga_37"
       id="path313"
       style="display:block;fill:#eeeeee;stroke-width:0.264583" />
    <path
       fill-rule="evenodd"
       d="m 25.345595,97.666628 h 0.873125 v 4.074592 h -0.873125 z"
       class="ga_37"
       id="path314"
       style="display:block;fill:#eeeeee;stroke-width:0.264583" />
    <path
       fill-rule="evenodd"
       d="m 27.197678,97.666628 h 0.873125 v 4.074592 h -0.873125 z"
       class="ga_37"
       id="path315"
       style="display:block;fill:#eeeeee;stroke-width:0.264583" />
    <path
       fill-rule="evenodd"
       d="m 29.049762,97.666628 h 0.873125 v 4.074592 h -0.873125 z"
       class="ga_37"
       id="path316"
       style="display:block;fill:#eeeeee;stroke-width:0.264583" />
    <path
       fill-rule="evenodd"
       d="m 14.021429,64.673087 h 0.899583 v 4.048125 h -0.899583 z"
       class="ga_37"
       id="path317"
       style="display:block;fill:#eeeeee;stroke-width:0.264583" />
    <path
       fill-rule="evenodd"
       d="m 15.873512,64.673087 h 0.899583 v 4.048125 h -0.899583 z"
       class="ga_37"
       id="path318"
       style="display:block;fill:#eeeeee;stroke-width:0.264583" />
    <path
       fill-rule="evenodd"
       d="m 17.725595,64.673087 h 0.873125 v 4.048125 h -0.873125 z"
       class="ga_37"
       id="path319"
       style="display:block;fill:#eeeeee;stroke-width:0.264583" />
    <path
       fill-rule="evenodd"
       d="m 19.577679,64.673087 h 0.873125 v 4.048125 h -0.873125 z"
       class="ga_37"
       id="path320"
       style="display:block;fill:#eeeeee;stroke-width:0.264583" />
    <path
       fill-rule="evenodd"
       d="m 21.429762,64.673087 h 0.873125 v 4.048125 h -0.873125 z"
       class="ga_37"
       id="path321"
       style="display:block;fill:#eeeeee;stroke-width:0.264583" />
    <path
       fill-rule="evenodd"
       d="m 23.281845,64.673087 h 0.873125 v 4.048125 h -0.873125 z"
       class="ga_37"
       id="path322"
       style="display:block;fill:#eeeeee;stroke-width:0.264583" />
    <path
       fill-rule="evenodd"
       d="m 25.133928,64.673087 h 0.873125 v 4.048125 h -0.873125 z"
       class="ga_37"
       id="path323"
       style="display:block;fill:#eeeeee;stroke-width:0.264583" />
    <path
       fill-rule="evenodd"
       d="m 26.986012,64.673087 h 0.873125 v 4.048125 h -0.873125 z"
       class="ga_37"
       id="path324"
       style="display:block;fill:#eeeeee;stroke-width:0.264583" />
    <path
       fill-rule="evenodd"
       d="m 28.838095,64.673087 h 0.873125 v 4.048125 h -0.873125 z"
       class="ga_37"
       id="path325"
       style="display:block;fill:#eeeeee;stroke-width:0.264583" />
    <path
       fill-rule="evenodd"
       d="m 8.8885123,74.489129 v 0.9525 H 5.1578874 v -0.9525 z"
       class="ga_37"
       id="path326"
       style="display:block;fill:#eeeeee;stroke-width:0.264583" />
    <path
       fill-rule="evenodd"
       d="m 8.8885123,76.499962 v 0.9525 H 5.1578874 v -0.9525 z"
       class="ga_37"
       id="path327"
       style="display:block;fill:#eeeeee;stroke-width:0.264583" />
    <path
       fill-rule="evenodd"
       d="m 8.8885123,78.510795 v 0.9525 H 5.1578874 v -0.9525 z"
       class="ga_37"
       id="path328"
       style="display:block;fill:#eeeeee;stroke-width:0.264583" />
    <path
       fill-rule="evenodd"
       d="m 8.8885123,80.521629 v 0.9525 H 5.1578874 v -0.9525 z"
       class="ga_37"
       id="path329"
       style="display:block;fill:#eeeeee;stroke-width:0.264583" />
    <path
       fill-rule="evenodd"
       d="m 8.8885123,82.532462 v 0.9525 H 5.1578874 v -0.9525 z"
       class="ga_37"
       id="path330"
       style="display:block;fill:#eeeeee;stroke-width:0.264583" />
    <path
       fill-rule="evenodd"
       d="m 8.8885123,84.543295 v 0.9525 H 5.1578874 v -0.9525 z"
       class="ga_37"
       id="path331"
       style="display:block;fill:#eeeeee;stroke-width:0.264583" />
    <path
       fill-rule="evenodd"
       d="m 8.8885123,86.554129 v 0.9525 H 5.1578874 v -0.9525 z"
       class="ga_37"
       id="path332"
       style="display:block;fill:#eeeeee;stroke-width:0.264583" />
    <path
       fill-rule="evenodd"
       d="M 8.8885123,88.564962 V 89.54392 H 5.1578874 v -0.978958 z"
       class="ga_37"
       id="path333"
       style="display:block;fill:#eeeeee;stroke-width:0.264583" />
    <path
       fill-rule="evenodd"
       d="m 8.8885123,90.602253 v 0.9525 H 5.1578874 v -0.9525 z"
       class="ga_37"
       id="path334"
       style="display:block;fill:#eeeeee;stroke-width:0.264583" />
    <path
       fill-rule="evenodd"
       d="m 38.733512,74.489129 v 0.9525 h -3.730625 v -0.9525 z"
       class="ga_37"
       id="path335"
       style="display:block;fill:#eeeeee;stroke-width:0.264583" />
    <path
       fill-rule="evenodd"
       d="m 38.733512,76.499962 v 0.9525 h -3.730625 v -0.9525 z"
       class="ga_37"
       id="path336"
       style="display:block;fill:#eeeeee;stroke-width:0.264583" />
    <path
       fill-rule="evenodd"
       d="m 38.733512,78.510795 v 0.9525 h -3.730625 v -0.9525 z"
       class="ga_37"
       id="path337"
       style="display:block;fill:#eeeeee;stroke-width:0.264583" />
    <path
       fill-rule="evenodd"
       d="m 38.733512,80.521629 v 0.9525 h -3.730625 v -0.9525 z"
       class="ga_37"
       id="path338"
       style="display:block;fill:#eeeeee;stroke-width:0.264583" />
    <path
       fill-rule="evenodd"
       d="m 38.733512,82.532462 v 0.9525 h -3.730625 v -0.9525 z"
       class="ga_37"
       id="path339"
       style="display:block;fill:#eeeeee;stroke-width:0.264583" />
    <path
       fill-rule="evenodd"
       d="m 38.733512,84.543295 v 0.9525 h -3.730625 v -0.9525 z"
       class="ga_37"
       id="path340"
       style="display:block;fill:#eeeeee;stroke-width:0.264583" />
    <path
       fill-rule="evenodd"
       d="m 38.733512,86.554129 v 0.9525 h -3.730625 v -0.9525 z"
       class="ga_37"
       id="path341"
       style="display:block;fill:#eeeeee;stroke-width:0.264583" />
    <path
       fill-rule="evenodd"
       d="M 38.733512,88.564962 V 89.54392 H 35.002887 V 88.564962 Z"
       class="ga_37"
       id="path342"
       style="display:block;fill:#eeeeee;stroke-width:0.264583" />
    <path
       fill-rule="evenodd"
       d="m 38.733512,90.602253 v 0.9525 h -3.730625 v -0.9525 z"
       class="ga_37"
       id="path343"
       style="display:block;fill:#eeeeee;stroke-width:0.264583" />
    <path
       fill-rule="evenodd"
       d="m 21.059345,83.19392 0.873125,-0.9525 0.873125,0.9525 -0.873125,0.9525 z"
       class="g1_37"
       id="path344"
       style="display:block;fill:#000000;fill-opacity:0;stroke-width:0.264583" />
    <path
       d="m 21.059345,83.19392 0.873125,-0.9525 0.873125,0.9525 -0.873125,0.9525 z"
       class="gb_37"
       id="path345"
       style="display:block;fill:none;stroke:#f3f3f3;stroke-width:0.302948;stroke-linejoin:round" />
    <path
       fill-rule="evenodd"
       d="m 35.90247,72.187254 v -0.529167 h -4.28625 v 0.529167 z"
       class="g6_37"
       id="path346"
       style="display:block;fill:#999999;stroke-width:0.264583" />
    <path
       d="m 35.90247,72.187254 v -0.529167 h -4.28625 v 0.529167 z"
       class="g7_37"
       id="path347"
       style="display:block;fill:none;stroke:#999999;stroke-width:0.302948;stroke-linejoin:round" />
    <path
       fill-rule="evenodd"
       d="m 35.505595,72.107879 v 0 c 0.211667,0 0.396875,-0.185209 0.396875,-0.396875 v -5.529792 c 0,-0.105833 -0.05292,-0.211667 -0.105833,-0.264583 -0.07938,-0.07937 -0.185209,-0.132292 -0.291042,-0.132292 H 33.99747 c -0.211667,0 -0.370417,0.185208 -0.370417,0.396875 v 5.529792 c 0,0.211666 0.15875,0.396875 0.370417,0.396875 z"
       class="g6_37"
       id="path348"
       style="display:block;fill:#999999;stroke-width:0.264583" />
    <path
       d="m 35.505595,72.107879 v 0 c 0.211667,0 0.396875,-0.185209 0.396875,-0.396875 v -5.529792 c 0,-0.105833 -0.05292,-0.211667 -0.105833,-0.264583 -0.07938,-0.07937 -0.185209,-0.132292 -0.291042,-0.132292 H 33.99747 c -0.211667,0 -0.370417,0.185208 -0.370417,0.396875 v 5.529792 c 0,0.211666 0.15875,0.396875 0.370417,0.396875 z"
       class="g7_37"
       id="path349"
       style="display:block;fill:none;stroke:#999999;stroke-width:0.302948;stroke-linejoin:round" />
    <path
       fill-rule="evenodd"
       d="m 34.79122,67.79517 v 0 c 0.370417,0 0.661458,-0.3175 0.661458,-0.714375 0,-0.396875 -0.291041,-0.714375 -0.661458,-0.714375 -0.370417,0 -0.661458,0.3175 -0.661458,0.714375 0,0.396875 0.291041,0.714375 0.661458,0.714375 z"
       class="gc_37"
       id="path350"
       style="display:block;fill:#ff0000;stroke-width:0.264583" />
    <path
       fill-rule="evenodd"
       d="m 34.79122,69.806004 v 0 c 0.370417,0 0.661458,-0.3175 0.661458,-0.714375 0,-0.396875 -0.291041,-0.714375 -0.661458,-0.714375 -0.370417,0 -0.661458,0.3175 -0.661458,0.714375 0,0.396875 0.291041,0.714375 0.661458,0.714375 z"
       class="gd_37"
       id="path351"
       style="display:block;fill:#f1c232;stroke-width:0.264583" />
    <path
       fill-rule="evenodd"
       d="m 34.79122,71.790379 v 0 c 0.370417,0 0.661458,-0.3175 0.661458,-0.714375 0,-0.396875 -0.291041,-0.714375 -0.661458,-0.714375 -0.370417,0 -0.661458,0.3175 -0.661458,0.714375 0,0.396875 0.291041,0.714375 0.661458,0.714375 z"
       class="ge_37"
       id="path352"
       style="display:block;fill:#38761d;stroke-width:0.264583" />
    <path
       fill-rule="evenodd"
       d="m 50.242886,74.277462 v 8.704792 h -8.969374 v -8.704792 z"
       class="gf_37"
       id="path353"
       style="display:block;fill:#ea9999;fill-opacity:0.37;stroke-width:0.264583" />
    <path
       fill-rule="evenodd"
       d="m 13.83622,104.06955 h 8.09625 v 9.76312 h -8.09625 z"
       class="gf_37"
       id="path354"
       style="display:block;fill:#ea9999;fill-opacity:0.37;stroke-width:0.264583" />
    <path
       fill-rule="evenodd"
       d="m 50.163511,83.03517 v 8.784167 H 41.29997 V 83.03517 Z"
       class="gf_37"
       id="path355"
       style="display:block;fill:#ea9999;fill-opacity:0.37;stroke-width:0.264583" />
    <path
       fill-rule="evenodd"
       d="m 2.6972624,74.251004 v 8.757708 h -9.1281249 v -8.757708 z"
       class="gf_37"
       id="path356"
       style="display:block;fill:#ea9999;fill-opacity:0.37;stroke-width:0.264583" />
    <path
       fill-rule="evenodd"
       d="m 2.6972624,83.03517 v 8.73125 h -9.1281249 v -8.73125 z"
       class="gf_37"
       id="path357"
       style="display:block;fill:#ea9999;fill-opacity:0.37;stroke-width:0.264583" />
    <path
       fill-rule="evenodd"
       d="m 29.949345,113.80622 h -7.990416 v -9.71021 h 7.990416 z"
       class="gf_37"
       id="path358"
       style="display:block;fill:#ea9999;fill-opacity:0.37;stroke-width:0.264583" />
    <path
       fill-rule="evenodd"
       d="m 29.922887,62.106629 h -8.016875 v -9.921875 h 8.016875 z"
       class="gf_37"
       id="path359"
       style="display:block;fill:#ea9999;fill-opacity:0.37;stroke-width:0.264583" />
    <path
       fill-rule="evenodd"
       d="M 21.879554,62.08017 H 13.83622 v -9.921874 h 8.043334 z"
       class="gf_37"
       id="path360"
       style="display:block;fill:#ea9999;fill-opacity:0.37;stroke-width:0.264583" />
    <path
       fill-rule="evenodd"
       d="M 29.949345,104.06955 H 21.958929 V 62.133087 h 7.990416 z"
       class="gg_37"
       id="path361"
       style="display:block;fill:#9fc5e8;fill-opacity:0.41;stroke-width:0.264583" />
    <path
       fill-rule="evenodd"
       d="M 21.879554,104.06955 H 13.862679 V 62.133087 h 8.016875 z"
       class="gg_37"
       id="path362"
       style="display:block;fill:#9fc5e8;fill-opacity:0.41;stroke-width:0.264583" />
    <path
       fill-rule="evenodd"
       d="M 2.7237207,91.739962 V 83.03517 H 41.273512 v 8.704792 z"
       class="gg_37"
       id="path363"
       style="display:block;fill:#9fc5e8;fill-opacity:0.41;stroke-width:0.264583" />
    <path
       fill-rule="evenodd"
       d="m 2.6972624,82.955795 v -8.73125 H 41.247053 v 8.73125 z"
       class="gg_37"
       id="path364"
       style="display:block;fill:#9fc5e8;fill-opacity:0.41;stroke-width:0.264583" />
    <path
       fill-rule="evenodd"
       d="m 41.061845,74.224545 -0.02646,8.678334 -2.69875,0.396875 -2.910417,0.820208 -2.354792,1.11125 -1.852083,1.084792 -1.693333,1.164166 -1.243542,1.243542 -1.322917,1.375833 -1.031875,1.217083 -0.767291,1.11125 -0.767292,1.42875 -0.873125,1.74625 -0.9525,2.725209 -0.555625,3.148543 -0.15875,2.56646 -7.990416,-0.0265 0.185208,-4.78896 0.555625,-3.4925 1.005417,-3.254375 1.164166,-2.592917 0.899584,-1.5875 0.9525,-1.455208 0.820208,-1.084791 0.714375,-0.873125 0.767292,-0.846667 0.978958,-1.005417 1.164167,-1.11125 1.005416,-0.926041 0.978958,-0.767292 1.508125,-1.11125 1.984375,-1.243542 2.619375,-1.243541 2.751667,-1.005417 3.677708,-0.9525 z"
       class="gh_37"
       id="path365"
       style="display:block;fill:#ffff00;fill-opacity:0.59;stroke-width:0.264583" />
    <path
       fill-rule="evenodd"
       d="m 2.7766374,91.713503 0.026458,-8.598958 2.69875,-0.396875 2.9104166,-0.820208 2.3547917,-1.084792 1.852083,-1.084791 1.693333,-1.164167 1.243542,-1.217083 1.322917,-1.349375 1.031875,-1.243542 0.767291,-1.084792 0.767292,-1.402291 0.873125,-1.74625 0.9525,-2.672292 0.555625,-3.122083 0.15875,-2.566459 7.990416,0.02646 -0.185208,4.736041 -0.555625,3.4925 -1.005417,3.227917 -1.164166,2.54 -0.899584,1.5875 -0.9525,1.455208 -0.820208,1.058334 -0.714375,0.846666 -0.767291,0.846667 -0.978959,1.005417 -1.164166,1.084791 -1.005417,0.926042 -0.978958,0.767292 -1.508125,1.11125 -1.984375,1.217083 -2.619375,1.243541 -2.7252084,0.978959 -3.7041666,0.9525 z"
       class="gh_37"
       id="path366"
       style="display:block;fill:#ffff00;fill-opacity:0.59;stroke-width:0.264583" />
    <path
       fill-rule="evenodd"
       d="m 29.86997,104.06955 h -7.858125 l -0.343958,-2.96333 -0.767292,-3.227925 -0.978958,-2.566458 -1.005417,-2.037292 -1.058333,-1.825625 -1.11125,-1.375833 -1.27,-1.455209 -1.11125,-1.137708 -1.005416,-0.846666 -1.296459,-0.820209 -1.5875,-0.9525 -2.4341663,-1.058333 -2.8575,-0.608542 -2.3547916,-0.15875 0.026458,-8.784166 4.3391666,0.211666 3.175,0.608542 2.963333,1.11125 2.328333,1.27 1.455209,0.978958 1.322916,1.058334 0.978959,0.899583 0.79375,0.767292 0.767291,0.846666 0.899584,1.084792 1.005416,1.27 0.846667,1.11125 0.714375,1.084792 1.005416,1.640416 1.11125,2.169583 1.137709,2.883959 0.899583,2.989791 0.873125,4.021672 z"
       class="gh_37"
       id="path367"
       style="display:block;fill:#ffff00;fill-opacity:0.59;stroke-width:0.264583" />
    <path
       fill-rule="evenodd"
       d="m 13.915595,62.106629 h 7.911042 l 0.343958,2.963333 0.767292,3.201458 1.005416,2.566459 1.005417,2.037291 1.058333,1.825625 1.11125,1.375834 1.27,1.455208 1.11125,1.137708 1.031875,0.846667 1.296459,0.820208 1.5875,0.9525 2.460625,1.031875 2.883958,0.635 2.354792,0.15875 -0.02646,8.757708 -4.365625,-0.211666 -3.201458,-0.635 -2.963333,-1.084792 -2.354792,-1.27 -1.455208,-0.978958 -1.322917,-1.058333 -1.005417,-0.899584 -0.767291,-0.767291 -0.79375,-0.846667 -0.899583,-1.084792 -1.031875,-1.243541 -0.820209,-1.11125 -0.714375,-1.084792 -1.031875,-1.640417 -1.11125,-2.169583 -1.137708,-2.8575 -0.926042,-2.989792 -0.873125,-4.048125 z"
       class="gh_37"
       id="path368"
       style="display:block;fill:#ffff00;fill-opacity:0.59;stroke-width:0.264583" />
    <path
       fill-rule="evenodd"
       d="m 2.7237207,83.141004 v 8.572499 l 11.1389583,-0.02646 0.105833,12.250217 7.963958,0.0265 0.02646,-11.615219 v -1.508125 l -0.07938,-1.11125 -0.211667,-1.137708 -0.343958,-0.846667 -0.396875,-0.740833 -0.502709,-0.767291 -0.502708,-0.582084 -0.502708,-0.529166 -0.661459,-0.555625 -0.502708,-0.3175 -0.820208,-0.47625 -0.79375,-0.343959 -0.714375,-0.211666 -0.687917,-0.07937 -1.164167,-0.105834 H 9.417679 Z"
       class="gi_37"
       id="path369"
       style="display:block;fill:#f4cccc;fill-opacity:0.43;stroke-width:0.264583" />
    <path
       fill-rule="evenodd"
       d="m 21.826637,62.106629 h -7.884583 l -0.05292,12.170833 -11.1654163,0.05292 -0.052917,8.651875 10.689167,0.02646 h 1.375833 l 1.031875,-0.07937 1.031875,-0.238125 0.79375,-0.370417 0.661458,-0.423333 0.714375,-0.529167 0.529167,-0.582083 0.502708,-0.555625 0.502708,-0.687917 0.291042,-0.555625 0.423333,-0.873125 0.3175,-0.873125 0.185209,-0.767291 0.105833,-0.767292 0.07937,-1.243542 v -5.08 z"
       class="gi_37"
       id="path370"
       style="display:block;fill:#f4cccc;fill-opacity:0.43;stroke-width:0.264583" />
    <path
       fill-rule="evenodd"
       d="m 41.008928,82.797045 v -8.546041 l -11.191875,-0.02646 -0.05292,-12.091458 -7.911042,-0.02646 -0.05292,11.535833 v 1.508125 l 0.07937,1.084792 0.211666,1.11125 0.343959,0.873125 0.396875,0.714375 0.502708,0.767291 0.502708,0.582084 0.502708,0.529166 0.661459,0.555625 0.502708,0.291042 0.820208,0.47625 0.79375,0.343958 0.714375,0.211667 0.661459,0.105833 1.190625,0.07937 h 4.656666 z"
       class="gi_37"
       id="path371"
       style="display:block;fill:#f4cccc;fill-opacity:0.43;stroke-width:0.264583" />
    <path
       fill-rule="evenodd"
       d="m 21.985387,104.04309 h 7.831666 l 0.05292,-12.27667 11.1125,-0.05292 0.02646,-8.731249 -10.609791,-0.02646 h -1.375834 l -1.005416,0.07937 -1.031875,0.238125 -0.79375,0.370417 -0.661459,0.423333 -0.714375,0.555625 -0.529166,0.582084 -0.502709,0.555625 -0.502708,0.687916 -0.291041,0.555625 -0.423334,0.899583 -0.3175,0.873125 -0.185208,0.79375 -0.07938,0.740834 -0.105833,1.296458 0.02646,5.106458 z"
       class="gi_37"
       id="path372"
       style="display:block;fill:#f4cccc;fill-opacity:0.43;stroke-width:0.264583" />
    <path
       fill-rule="evenodd"
       d="m 17.619762,99.254128 c 0,-1.11125 0.47625,-4.894791 0,-6.720416 -0.47625,-1.799167 -1.693333,-3.413125 -2.804583,-4.180417 -1.11125,-0.79375 -3.227917,-0.423333 -3.862917,-0.502708 z"
       class="g1_37"
       id="path373"
       style="display:block;fill:#000000;fill-opacity:0;stroke-width:0.264583" />
    <path
       d="m 17.619762,99.254128 c 0,-1.11125 0.47625,-4.894791 0,-6.720416 -0.238125,-0.899584 -0.661458,-1.74625 -1.164167,-2.487084 -0.05292,-0.07938 -0.132291,-0.15875 -0.185208,-0.264583 -0.02646,-0.02646 -0.07938,-0.07937 -0.105833,-0.105833 l -0.05292,-0.07937"
       class="gj_37"
       id="path374"
       style="display:block;fill:none;stroke:#ff9900;stroke-width:0.909373;stroke-linejoin:round" />
    <path
       fill-rule="evenodd"
       d="m 16.614345,88.194545 -4.392083,0.07937 3.413125,2.751667 z"
       class="gk_37"
       id="path375"
       style="display:block;fill:#ff9900;stroke:#ff9900;stroke-width:0.909373;stroke-miterlimit:10" />
    <path
       fill-rule="evenodd"
       d="m 11.931221,60.810171 h 0.449791 v 9.895416 h -0.449791 z"
       class="g6_37"
       id="path376"
       style="display:block;fill:#999999;stroke-width:0.264583" />
    <path
       d="m 11.931221,60.810171 h 0.449791 v 9.895416 h -0.449791 z"
       class="g7_37"
       id="path377"
       style="display:block;fill:none;stroke:#999999;stroke-width:0.302948;stroke-linejoin:round" />
    <path
       fill-rule="evenodd"
       d="m 12.089971,61.207045 v 0 c 0,-0.211666 0.185208,-0.396874 0.423333,-0.396874 h 4.947708 c 0.105833,0 0.211667,0.02646 0.291042,0.105833 0.07937,0.07937 0.132291,0.185208 0.132291,0.291041 v 1.666875 c 0,0.211667 -0.185208,0.396875 -0.423333,0.396875 h -4.947708 c -0.238125,0 -0.423333,-0.185208 -0.423333,-0.396875 z"
       class="g6_37"
       id="path378"
       style="display:block;fill:#999999;stroke-width:0.264583" />
    <path
       d="m 12.089971,61.207045 v 0 c 0,-0.211666 0.185208,-0.396874 0.423333,-0.396874 h 4.947708 c 0.105833,0 0.211667,0.02646 0.291042,0.105833 0.07937,0.07937 0.132291,0.185208 0.132291,0.291041 v 1.666875 c 0,0.211667 -0.185208,0.396875 -0.423333,0.396875 h -4.947708 c -0.238125,0 -0.423333,-0.185208 -0.423333,-0.396875 z"
       class="g7_37"
       id="path379"
       style="display:block;fill:none;stroke:#999999;stroke-width:0.302948;stroke-linejoin:round" />
    <path
       fill-rule="evenodd"
       d="m 16.05872,62.000795 v 0 c 0,-0.396875 0.291042,-0.714375 0.635,-0.714375 0.185209,0 0.343959,0.07937 0.47625,0.211667 0.105834,0.132292 0.185209,0.3175 0.185209,0.502708 0,0.396875 -0.291042,0.714375 -0.661459,0.714375 -0.343958,0 -0.635,-0.3175 -0.635,-0.714375 z"
       class="gc_37"
       id="path380"
       style="display:block;fill:#ff0000;stroke-width:0.264583" />
    <path
       fill-rule="evenodd"
       d="m 14.206637,62.000795 v 0 c 0,-0.396875 0.291042,-0.714375 0.661458,-0.714375 0.15875,0 0.343959,0.07937 0.449792,0.211667 0.132292,0.132292 0.185208,0.3175 0.185208,0.502708 0,0.396875 -0.291041,0.714375 -0.635,0.714375 -0.370416,0 -0.661458,-0.3175 -0.661458,-0.714375 z"
       class="gd_37"
       id="path381"
       style="display:block;fill:#f1c232;stroke-width:0.264583" />
    <path
       fill-rule="evenodd"
       d="m 12.354554,62.000795 v 0 c 0,-0.396875 0.291042,-0.714375 0.661458,-0.714375 0.185209,0 0.343959,0.07937 0.47625,0.211667 0.105833,0.132292 0.185208,0.3175 0.185208,0.502708 0,0.396875 -0.291041,0.714375 -0.661458,0.714375 -0.370416,0 -0.661458,-0.3175 -0.661458,-0.714375 z"
       class="ge_37"
       id="path382"
       style="display:block;fill:#38761d;stroke-width:0.264583" />
    <path
       fill-rule="evenodd"
       d="m 31.880803,86.024962 h -0.449791 v 9.895416 h 0.449791 z"
       class="g6_37"
       id="path383"
       style="display:block;fill:#999999;stroke-width:0.264583" />
    <path
       d="m 31.880803,86.024962 h -0.449791 v 9.895416 h 0.449791 z"
       class="g7_37"
       id="path384"
       style="display:block;fill:none;stroke:#999999;stroke-width:0.302948;stroke-linejoin:round" />
    <path
       fill-rule="evenodd"
       d="m 31.722053,86.421837 v 0 c 0,-0.211667 -0.185208,-0.396875 -0.396875,-0.396875 h -4.974166 c -0.105834,0 -0.211667,0.02646 -0.291042,0.105833 -0.07937,0.07937 -0.132292,0.185209 -0.132292,0.291042 v 1.666875 c 0,0.211666 0.185209,0.396875 0.423334,0.396875 h 4.974166 c 0.211667,0 0.396875,-0.185209 0.396875,-0.396875 z"
       class="g6_37"
       id="path385"
       style="display:block;fill:#999999;stroke-width:0.264583" />
    <path
       d="m 31.722053,86.421837 v 0 c 0,-0.211667 -0.185208,-0.396875 -0.396875,-0.396875 h -4.974166 c -0.105834,0 -0.211667,0.02646 -0.291042,0.105833 -0.07937,0.07937 -0.132292,0.185209 -0.132292,0.291042 v 1.666875 c 0,0.211666 0.185209,0.396875 0.423334,0.396875 h 4.974166 c 0.211667,0 0.396875,-0.185209 0.396875,-0.396875 z"
       class="g7_37"
       id="path386"
       style="display:block;fill:none;stroke:#999999;stroke-width:0.302948;stroke-linejoin:round" />
    <path
       fill-rule="evenodd"
       d="m 7.8566373,94.412253 v -0.529166 h 4.3127087 v 0.529166 z"
       class="g6_37"
       id="path387"
       style="display:block;fill:#999999;stroke-width:0.264583" />
    <path
       d="m 7.8566373,94.412253 v -0.529166 h 4.3127087 v 0.529166 z"
       class="g7_37"
       id="path388"
       style="display:block;fill:none;stroke:#999999;stroke-width:0.302948;stroke-linejoin:round" />
    <path
       fill-rule="evenodd"
       d="m 8.2535123,94.332878 v 0 c -0.2116666,0 -0.396875,-0.185208 -0.396875,-0.396875 v -5.529791 c 0,-0.105834 0.052917,-0.211667 0.1322917,-0.264584 0.052917,-0.07937 0.15875,-0.132291 0.2645833,-0.132291 h 1.508125 c 0.2116667,0 0.3968747,0.185208 0.3968747,0.396875 v 5.529791 c 0,0.211667 -0.185208,0.396875 -0.3968747,0.396875 z"
       class="g6_37"
       id="path389"
       style="display:block;fill:#999999;stroke-width:0.264583" />
    <path
       d="m 8.2535123,94.332878 v 0 c -0.2116666,0 -0.396875,-0.185208 -0.396875,-0.396875 v -5.529791 c 0,-0.105834 0.052917,-0.211667 0.1322917,-0.264584 0.052917,-0.07937 0.15875,-0.132291 0.2645833,-0.132291 h 1.508125 c 0.2116667,0 0.3968747,0.185208 0.3968747,0.396875 v 5.529791 c 0,0.211667 -0.185208,0.396875 -0.3968747,0.396875 z"
       class="g7_37"
       id="path390"
       style="display:block;fill:none;stroke:#999999;stroke-width:0.302948;stroke-linejoin:round" />
    <path
       fill-rule="evenodd"
       d="m 8.9678873,90.02017 v 0 c -0.3439583,0 -0.635,-0.3175 -0.635,-0.714375 0,-0.396875 0.2910417,-0.714375 0.635,-0.714375 0.3704167,0 0.6614583,0.3175 0.6614583,0.714375 0,0.396875 -0.2910416,0.714375 -0.6614583,0.714375 z"
       class="gc_37"
       id="path391"
       style="display:block;fill:#ff0000;stroke-width:0.264583" />
    <path
       fill-rule="evenodd"
       d="m 8.9678873,92.031003 v 0 c -0.3439583,0 -0.635,-0.3175 -0.635,-0.714375 0,-0.396875 0.2910417,-0.740833 0.635,-0.740833 0.3704167,0 0.6614583,0.343958 0.6614583,0.740833 0,0.396875 -0.2910416,0.714375 -0.6614583,0.714375 z"
       class="gd_37"
       id="path392"
       style="display:block;fill:#f1c232;stroke-width:0.264583" />
    <path
       fill-rule="evenodd"
       d="m 8.9678873,94.015378 v 0 c -0.3439583,0 -0.635,-0.3175 -0.635,-0.714375 0,-0.396875 0.2910417,-0.714375 0.635,-0.714375 0.3704167,0 0.6614583,0.3175 0.6614583,0.714375 0,0.396875 -0.2910416,0.714375 -0.6614583,0.714375 z"
       class="ge_37"
       id="path393"
       style="display:block;fill:#38761d;stroke-width:0.264583" />
    <path
       fill-rule="evenodd"
       d="m 15.688304,105.55122 v 0 c 0,-0.0529 0.05292,-0.0794 0.07938,-0.0794 h 0.3175 c 0,0 0.02646,0 0.05292,0.0265 0,0 0,0.0265 0,0.0529 v 1.19062 c 0,0.0529 -0.02646,0.0794 -0.05292,0.0794 h -0.3175 c -0.02646,0 -0.07938,-0.0265 -0.07938,-0.0794 z"
       class="gl_37"
       id="path394"
       style="display:block;fill:#000000;stroke-width:0.264583" />
    <path
       fill-rule="evenodd"
       d="m 19.683512,105.55122 v 0 c 0,-0.0529 0.02646,-0.0794 0.07937,-0.0794 h 0.291042 c 0.02646,0 0.05292,0 0.05292,0.0265 0.02646,0 0.02646,0.0265 0.02646,0.0529 v 1.19062 c 0,0.0529 -0.02646,0.0794 -0.07937,0.0794 h -0.291042 c -0.05292,0 -0.07937,-0.0265 -0.07937,-0.0794 z"
       class="gl_37"
       id="path395"
       style="display:block;fill:#000000;stroke-width:0.264583" />
    <path
       fill-rule="evenodd"
       d="m 15.688304,110.49892 v 0 c 0,-0.0264 0.05292,-0.0529 0.07938,-0.0529 h 0.3175 c 0,0 0.02646,0 0.05292,0 0,0.0265 0,0.0529 0,0.0529 v 1.21709 c 0,0.0529 -0.02646,0.0794 -0.05292,0.0794 h -0.3175 c -0.02646,0 -0.07938,-0.0265 -0.07938,-0.0794 z"
       class="gl_37"
       id="path396"
       style="display:block;fill:#000000;stroke-width:0.264583" />
    <path
       fill-rule="evenodd"
       d="m 19.683512,110.49892 v 0 c 0,-0.0264 0.02646,-0.0529 0.07937,-0.0529 h 0.291042 c 0.02646,0 0.05292,0 0.05292,0 0.02646,0.0265 0.02646,0.0529 0.02646,0.0529 v 1.21709 c 0,0.0529 -0.02646,0.0794 -0.07937,0.0794 h -0.291042 c -0.05292,0 -0.07937,-0.0265 -0.07937,-0.0794 z"
       class="gl_37"
       id="path397"
       style="display:block;fill:#000000;stroke-width:0.264583" />
    <path
       fill-rule="evenodd"
       d="m 15.847054,105.36601 v 0 c 0,-0.635 0.529166,-1.13771 1.164166,-1.13771 h 1.878542 c 0.291042,0 0.582083,0.10583 0.79375,0.3175 0.238125,0.23812 0.343958,0.52917 0.343958,0.82021 v 6.50875 c 0,0.635 -0.502708,1.13771 -1.137708,1.13771 H 17.01122 c -0.635,0 -1.164166,-0.50271 -1.164166,-1.13771 z"
       class="gm_37"
       id="path398"
       style="display:block;fill:#3d85c6;stroke-width:0.264583" />
    <path
       fill-rule="evenodd"
       d="m 17.540387,104.14892 v 0 c 0,0 0,-0.0264 0.02646,-0.0264 h 0.714375 q 0.02646,0 0.02646,0 0.02646,0.0264 0.02646,0.0264 v 0.1323 c 0,0.0265 -0.02646,0.0265 -0.05292,0.0265 h -0.714375 q -0.02646,0 -0.02646,-0.0265 z"
       class="gn_37"
       id="path399"
       style="display:block;fill:#efefef;stroke-width:0.264583" />
    <path
       fill-rule="evenodd"
       d="m 16.455595,104.57226 0.02646,0.26458 0.3175,-0.0794 0.07938,-0.0265 0.02646,-0.0529 0.02646,-0.0529 -0.02646,-0.0529 -0.02646,-0.0529 h -0.211667 z"
       class="g0_37"
       id="path400"
       style="display:block;fill:#ffffff;stroke-width:0.264583" />
    <path
       fill-rule="evenodd"
       d="m 19.418929,104.57226 -0.05292,0.26458 -0.3175,-0.0794 -0.07938,-0.0265 -0.02646,-0.0529 v -0.10583 l 0.02646,-0.0529 h 0.211667 z"
       class="g0_37"
       id="path401"
       style="display:block;fill:#ffffff;stroke-width:0.264583" />
    <path
       fill-rule="evenodd"
       d="m 16.349762,107.00642 0.264583,0.87313 0.05292,0.0529 0.07937,0.0529 h 2.301875 l 0.07938,-0.0265 0.07937,-0.0794 0.291042,-0.74083 v -0.10584 l -0.07938,-0.0794 -0.3175,-0.10584 -0.449792,-0.10583 -0.396875,-0.0529 h -0.423333 l -0.291042,0.0265 h -0.185208 l -0.291042,0.0529 -0.238125,0.0529 -0.211667,0.0529 -0.185208,0.0794 z"
       class="go_37"
       id="path402"
       style="display:block;fill:#9fc5e8;stroke-width:0.264583" />
    <path
       d="m 16.349762,107.00642 0.264583,0.87313 0.05292,0.0529 0.07937,0.0529 h 2.301875 l 0.07938,-0.0265 0.07937,-0.0794 0.291042,-0.74083 v -0.10584 l -0.07938,-0.0794 -0.3175,-0.10584 -0.449792,-0.10583 -0.396875,-0.0529 h -0.423333 l -0.291042,0.0265 h -0.185208 l -0.291042,0.0529 -0.238125,0.0529 -0.211667,0.0529 -0.185208,0.0794 z"
       class="gp_37"
       id="path403"
       style="display:block;fill:none;stroke:#073763;stroke-width:0.302948;stroke-linejoin:round" />
    <path
       fill-rule="evenodd"
       d="m 16.111637,107.29747 v 4.47145 l 0.07938,0.0265 0.343958,-0.29104 0.07937,-0.18521 0.07938,-0.15875 -0.05292,-2.54 -0.05292,-0.21166 -0.105833,-0.3175 -0.132292,-0.34396 z"
       class="go_37"
       id="path404"
       style="display:block;fill:#9fc5e8;stroke-width:0.264583" />
    <path
       d="m 16.111637,107.29747 v 4.47145 l 0.07938,0.0265 0.343958,-0.29104 0.07937,-0.18521 0.07938,-0.15875 -0.05292,-2.54 -0.05292,-0.21166 -0.105833,-0.3175 -0.132292,-0.34396 z"
       class="gp_37"
       id="path405"
       style="display:block;fill:none;stroke:#073763;stroke-width:0.302948;stroke-linejoin:round" />
    <path
       fill-rule="evenodd"
       d="m 19.815804,107.35038 v 4.39209 l -0.02646,0.0794 -0.07937,0.0265 -0.3175,-0.29104 -0.105833,-0.18521 -0.05292,-0.15875 0.05292,-2.54 0.02646,-0.21167 0.105834,-0.3175 0.15875,-0.34396 z"
       class="go_37"
       id="path406"
       style="display:block;fill:#9fc5e8;stroke-width:0.264583" />
    <path
       d="m 19.815804,107.35038 v 4.39209 l -0.02646,0.0794 -0.07937,0.0265 -0.3175,-0.29104 -0.105833,-0.18521 -0.05292,-0.15875 0.05292,-2.54 0.02646,-0.21167 0.105834,-0.3175 0.15875,-0.34396 z"
       class="gp_37"
       id="path407"
       style="display:block;fill:none;stroke:#073763;stroke-width:0.302948;stroke-linejoin:round" />
    <path
       fill-rule="evenodd"
       d="m 16.085179,107.27101 -0.07937,-0.0265 h -0.105834 l -0.105833,0.0265 -0.105833,0.0265 -0.07938,0.0794 -0.02646,0.0529 v 0.0794 l 0.05292,0.0529 0.105833,0.0265 0.15875,0.0265 h 0.105834 l 0.07937,-0.0265 0.07938,-0.0794 0.02646,-0.0794 v -0.0529 l -0.05292,-0.0794 z"
       class="gq_37"
       id="path408"
       style="display:block;fill:#0b5394;stroke-width:0.264583" />
    <path
       fill-rule="evenodd"
       d="m 19.762887,107.27101 0.105833,-0.0265 h 0.105834 l 0.07937,0.0265 0.132291,0.0265 0.07937,0.0794 0.02646,0.0529 v 0.0794 l -0.07937,0.0529 -0.07938,0.0265 -0.15875,0.0265 h -0.105834 l -0.105833,-0.0265 -0.05292,-0.0794 -0.02646,-0.0794 v -0.0529 l 0.02646,-0.0794 z"
       class="gq_37"
       id="path409"
       style="display:block;fill:#0b5394;stroke-width:0.264583" />
    <path
       fill-rule="evenodd"
       d="m 17.540387,112.90663 v 0 c 0,0 0,-0.0265 0.02646,-0.0265 h 0.714375 q 0.02646,0 0.02646,0.0265 0.02646,0 0.02646,0 v 0.13229 c 0,0.0265 -0.02646,0.0265 -0.05292,0.0265 h -0.714375 q -0.02646,0 -0.02646,-0.0265 z"
       class="gn_37"
       id="path410"
       style="display:block;fill:#efefef;stroke-width:0.264583" />
    <path
       fill-rule="evenodd"
       d="m 16.455595,113.06538 0.02646,-0.26458 0.3175,0.0794 0.07938,0.0265 0.02646,0.0265 0.02646,0.0529 -0.02646,0.0794 -0.02646,0.0265 -0.07938,0.0265 -0.132292,-0.0265 z"
       class="gq_37"
       id="path411"
       style="display:block;fill:#0b5394;stroke-width:0.264583" />
    <path
       fill-rule="evenodd"
       d="m 19.418929,113.06538 -0.05292,-0.26458 -0.3175,0.0794 -0.07938,0.0265 -0.02646,0.0265 v 0.13229 l 0.02646,0.0265 0.07938,0.0265 0.132292,-0.0265 z"
       class="gq_37"
       id="path412"
       style="display:block;fill:#0b5394;stroke-width:0.264583" />
    <path
       fill-rule="evenodd"
       d="m 16.878929,111.61017 -0.07938,0.0265 -0.529167,0.47625 -0.05292,0.10584 v 0.0794 l 0.185209,0.10583 0.211666,0.10584 0.3175,0.0794 0.343959,0.0265 0.343958,0.0529 0.343958,-0.0265 h 0.396875 l 0.370417,-0.0265 0.396875,-0.0794 0.291042,-0.10584 0.185208,-0.13229 0.05292,-0.10583 -0.07938,-0.10584 -0.502709,-0.42333 -0.05292,-0.0265 -0.555625,-0.0265 h -1.084792 z"
       class="go_37"
       id="path413"
       style="display:block;fill:#9fc5e8;stroke-width:0.264583" />
    <path
       d="m 16.878929,111.61017 -0.07938,0.0265 -0.529167,0.47625 -0.05292,0.10584 v 0.0794 l 0.185209,0.10583 0.211666,0.10584 0.3175,0.0794 0.343959,0.0265 0.343958,0.0529 0.343958,-0.0265 h 0.396875 l 0.370417,-0.0265 0.396875,-0.0794 0.291042,-0.10584 0.185208,-0.13229 0.05292,-0.10583 -0.07938,-0.10584 -0.502709,-0.42333 -0.05292,-0.0265 -0.555625,-0.0265 h -1.084792 z"
       class="gp_37"
       id="path414"
       style="display:block;fill:none;stroke:#073763;stroke-width:0.302948;stroke-linejoin:round" />
    <path
       fill-rule="evenodd"
       d="m 16.931845,104.59872 c 0.07937,0 0.3175,-0.0265 0.529167,-0.0529 0.211667,0 0.502708,0 0.687917,0 0.15875,0 0.264583,0.0265 0.396875,0.0265 0.132291,0 0.291041,0.0265 0.370416,0.0265 z"
       class="g1_37"
       id="path415"
       style="display:block;fill:#000000;fill-opacity:0;stroke-width:0.264583" />
    <path
       d="m 16.931845,104.59872 c 0.07937,0 0.3175,-0.0265 0.529167,-0.0529 0.211667,0 0.502708,0 0.687917,0 0.15875,0 0.264583,0.0265 0.396875,0.0265 0.132291,0 0.291041,0.0265 0.370416,0.0265"
       class="gp_37"
       id="path416"
       style="display:block;fill:none;stroke:#073763;stroke-width:0.302948;stroke-linejoin:round" />
    <path
       fill-rule="evenodd"
       d="m 16.296845,104.83684 c 0,0 -0.05292,0.0265 -0.05292,0.0794 -0.02646,0.0529 -0.02646,0.13229 -0.05292,0.26458 -0.02646,0.13229 -0.07938,0.34396 -0.07938,0.50271 -0.02646,0.15875 -0.02646,0.3175 0,0.44979 0,0.13229 0.02646,0.23812 0.05292,0.39687 0.02646,0.1323 0.105833,0.37042 0.132291,0.4498 z"
       class="g1_37"
       id="path417"
       style="display:block;fill:#000000;fill-opacity:0;stroke-width:0.264583" />
    <path
       d="m 16.296845,104.83684 c 0,0 -0.05292,0.0265 -0.05292,0.0794 -0.02646,0.0529 -0.02646,0.13229 -0.05292,0.26458 -0.02646,0.13229 -0.07938,0.34396 -0.07938,0.50271 -0.02646,0.15875 -0.02646,0.3175 0,0.44979 0,0.13229 0.02646,0.23812 0.05292,0.39687 0.02646,0.1323 0.105833,0.37042 0.132291,0.4498"
       class="gp_37"
       id="path418"
       style="display:block;fill:none;stroke:#073763;stroke-width:0.302948;stroke-linejoin:round" />
    <path
       fill-rule="evenodd"
       d="m 19.524762,104.81038 c 0.02646,0.0265 0.05292,0.0529 0.07938,0.10584 0,0.0529 0.02646,0.10583 0.02646,0.21166 0.02646,0.0794 0.05292,0.21167 0.07938,0.34396 0.02646,0.10583 0.02646,0.23813 0.02646,0.39688 0,0.13229 -0.02646,0.3175 -0.02646,0.42333 0,0.0794 0.02646,0.0529 0,0.18521 -0.02646,0.10583 -0.132291,0.42333 -0.15875,0.50271 z"
       class="g1_37"
       id="path419"
       style="display:block;fill:#000000;fill-opacity:0;stroke-width:0.264583" />
    <path
       d="m 19.524762,104.81038 c 0.02646,0.0265 0.05292,0.0529 0.07938,0.10584 0,0.0529 0.02646,0.10583 0.02646,0.21166 0.02646,0.0794 0.05292,0.21167 0.07938,0.34396 0.02646,0.10583 0.02646,0.23813 0.02646,0.39688 0,0.13229 -0.02646,0.3175 -0.02646,0.42333 0,0.0794 0.02646,0.0529 0,0.18521 -0.02646,0.10583 -0.132291,0.42333 -0.15875,0.50271"
       class="gp_37"
       id="path420"
       style="display:block;fill:none;stroke:#073763;stroke-width:0.302948;stroke-linejoin:round" />
    <path
       fill-rule="evenodd"
       d="m 18.334137,106.90059 -1.243542,0.89958 h -0.185208 l -0.105833,-0.0264 -0.07938,-0.0265 -0.05292,-0.0794 -0.211667,-0.50271 v -0.0529 l 0.05292,-0.0529 0.3175,-0.0794 0.343958,-0.0529 0.396875,-0.0265 0.264584,-0.0265 0.291041,0.0265 z"
       class="gr_37"
       id="path421"
       style="display:block;fill:#cfe2f3;stroke-width:0.264583" />
  </g>
</svg>
