<?xml version="1.0" encoding="UTF-8" standalone="no"?>
<!-- Created with Inkscape (http://www.inkscape.org/) -->

<svg
   width="224.16299pt"
   height="180.425pt"
   viewBox="0 0 79.079725 63.649933"
   version="1.1"
   id="svg1"
   inkscape:version="1.3.2 (1:1.3.2+202311252150+091e20ef0f)"
   sodipodi:docname="vm-01-06_1.svg"
   xmlns:inkscape="http://www.inkscape.org/namespaces/inkscape"
   xmlns:sodipodi="http://sodipodi.sourceforge.net/DTD/sodipodi-0.dtd"
   xmlns="http://www.w3.org/2000/svg"
   xmlns:svg="http://www.w3.org/2000/svg">
  <sodipodi:namedview
     id="namedview1"
     pagecolor="#ffffff"
     bordercolor="#000000"
     borderopacity="0.25"
     inkscape:showpageshadow="2"
     inkscape:pageopacity="0.0"
     inkscape:pagecheckerboard="0"
     inkscape:deskcolor="#d1d1d1"
     inkscape:document-units="mm"
     inkscape:zoom="1.4928528"
     inkscape:cx="391.53224"
     inkscape:cy="556.98727"
     inkscape:window-width="1798"
     inkscape:window-height="2123"
     inkscape:window-x="0"
     inkscape:window-y="0"
     inkscape:window-maximized="0"
     inkscape:current-layer="layer1" />
  <defs
     id="defs1">
    <clipPath
       id="c0_14">
      <path
         d="M 0,825 V 0 h 1100 v 825 z"
         id="path2" />
    </clipPath>
  </defs>
  <g
     inkscape:label="Layer 1"
     inkscape:groupmode="layer"
     id="layer1"
     transform="translate(-1.5544457,-1.3240409)">
    <path
       fill-rule="evenodd"
       d="M 3.6711125,3.4407077 H 51.904655 V 56.357379 H 3.6711125 Z"
       class="g3_14"
       id="path35"
       style="display:block;fill:#666666;stroke-width:0.264583" />
    <path
       fill-rule="evenodd"
       d="M 27.774656,3.4407077 V 56.357379 Z"
       class="g1_14"
       id="path36"
       style="display:block;fill:#000000;fill-opacity:0;stroke-width:0.264583" />
    <path
       d="M 27.774656,3.4407077 V 56.357379"
       class="g4_14"
       id="path37"
       style="display:block;fill:none;stroke:#ffffff;stroke-width:2.42517;stroke-linejoin:round;stroke-dasharray:9.78958, 7.40833" />
    <path
       fill-rule="evenodd"
       d="M 16.106531,35.719879 V 18.416129 Z"
       class="g1_14"
       id="path38"
       style="display:block;fill:#000000;fill-opacity:0;stroke-width:0.264583" />
    <path
       d="M 16.106531,35.719879 V 25.692169"
       class="g7_14"
       id="path39"
       style="display:block;fill:none;stroke:#ff9900;stroke-width:1.21259;stroke-linejoin:round" />
    <path
       fill-rule="evenodd"
       d="m 18.117364,25.692169 -2.010833,-5.50333 -2.010833,5.50333 z"
       class="g8_14"
       id="path40"
       style="display:block;fill:#ff9900;stroke:#ff9900;stroke-width:1.21259;stroke-miterlimit:10" />
    <path
       fill-rule="evenodd"
       d="m 40.527575,21.538209 v 17.27729 z"
       class="g1_14"
       id="path41"
       style="display:block;fill:#000000;fill-opacity:0;stroke-width:0.264583" />
    <path
       d="m 40.527575,21.538209 v 10.00125"
       class="g7_14"
       id="path42"
       style="display:block;fill:none;stroke:#ff9900;stroke-width:1.21259;stroke-linejoin:round" />
    <path
       fill-rule="evenodd"
       d="m 38.516735,31.539459 2.01084,5.50333 1.98437,-5.50333 z"
       class="g8_14"
       id="path43"
       style="display:block;fill:#ff9900;stroke:#ff9900;stroke-width:1.21259;stroke-miterlimit:10" />
    <path
       fill-rule="evenodd"
       d="m 44.760905,55.590089 h 22.59542 v 10.795 h -22.59542 z"
       class="g1_14"
       id="path44"
       style="display:block;fill:#000000;fill-opacity:0;stroke-width:0.264583" />
    <text
       clip-path="url(#c0_14)"
       x="324.60001"
       y="677.5"
       class="s6_14"
       id="text44"
       style="font-size:15.28px;font-family:MS-PGothic_bp;white-space:pre;display:block;fill:#000000"
       transform="matrix(0.26458333,0,0,0.26458333,-38.397635,-117.05053)">road centerline </text>
    <path
       fill-rule="evenodd"
       d="M 46.612985,61.384459 27.827572,43.657379 Z"
       class="g1_14"
       id="path45"
       style="display:block;fill:#000000;fill-opacity:0;stroke-width:0.264583" />
    <path
       d="M 46.612985,61.384459 29.150489,44.927379"
       class="g2_14"
       id="path46"
       style="display:block;fill:none;stroke:#000000;stroke-width:0.302948;stroke-linejoin:round" />
    <path
       fill-rule="evenodd"
       d="m 29.494447,44.556959 -1.349375,-0.58208 0.661459,1.29646 z"
       class="g6_14"
       id="path47"
       style="display:block;fill:#000000;stroke:#000000;stroke-width:0.302948;stroke-miterlimit:10" />
    <path
       fill-rule="evenodd"
       d="m 11.97903,41.434879 v 0 c 0,-0.0794 0.05292,-0.13229 0.132292,-0.13229 h 0.555626 c 0.05292,0 0.07937,0 0.105833,0.0265 0.02646,0.0265 0.02646,0.0794 0.02646,0.10584 v 2.2225 c 0,0.0794 -0.05292,0.15875 -0.132291,0.15875 h -0.555626 c -0.07937,0 -0.132292,-0.0794 -0.132292,-0.15875 z"
       class="g9_14"
       id="path48"
       style="display:block;fill:#000000;stroke-width:0.264583" />
    <path
       fill-rule="evenodd"
       d="m 19.334448,41.434879 v 0 c 0,-0.0794 0.07937,-0.13229 0.132291,-0.13229 h 0.555625 c 0.05292,0 0.07937,0 0.105834,0.0265 0.02646,0.0265 0.05292,0.0794 0.05292,0.10584 v 2.2225 c 0,0.0794 -0.07937,0.15875 -0.15875,0.15875 h -0.555625 c -0.05292,0 -0.132291,-0.0794 -0.132291,-0.15875 z"
       class="g9_14"
       id="path49"
       style="display:block;fill:#000000;stroke-width:0.264583" />
    <path
       fill-rule="evenodd"
       d="m 11.97903,50.615919 v 0 c 0,-0.0794 0.05292,-0.13229 0.132292,-0.13229 h 0.555626 c 0.05292,0 0.07937,0 0.105833,0.0265 0.02646,0.0265 0.02646,0.0529 0.02646,0.10583 v 2.2225 c 0,0.0794 -0.05292,0.15875 -0.132291,0.15875 h -0.555626 c -0.07937,0 -0.132292,-0.0794 -0.132292,-0.15875 z"
       class="g9_14"
       id="path50"
       style="display:block;fill:#000000;stroke-width:0.264583" />
    <path
       fill-rule="evenodd"
       d="m 19.334448,50.615919 v 0 c 0,-0.0794 0.07937,-0.13229 0.132291,-0.13229 h 0.555625 c 0.05292,0 0.07937,0 0.105834,0.0265 0.02646,0.0265 0.05292,0.0529 0.05292,0.10583 v 2.2225 c 0,0.0794 -0.07937,0.15875 -0.15875,0.15875 h -0.555625 c -0.05292,0 -0.132291,-0.0794 -0.132291,-0.15875 z"
       class="g9_14"
       id="path51"
       style="display:block;fill:#000000;stroke-width:0.264583" />
    <path
       fill-rule="evenodd"
       d="m 12.270073,41.117379 v 0 c 0,-1.16417 0.9525,-2.11667 2.116666,-2.11667 h 3.466042 c 0.555625,0 1.11125,0.21167 1.508125,0.60854 0.396875,0.39688 0.608542,0.9525 0.608542,1.50813 v 11.98562 c 0,1.19063 -0.9525,2.14313 -2.116667,2.14313 h -3.466042 c -1.164166,0 -2.116666,-0.9525 -2.116666,-2.14313 z"
       class="ga_14"
       id="path52"
       style="display:block;fill:#3d85c6;stroke-width:0.264583" />
    <path
       fill-rule="evenodd"
       d="m 15.365698,38.868419 v 0 c 0,-0.0265 0.02646,-0.0529 0.07937,-0.0529 h 1.322916 q 0.02646,0 0.05292,0.0265 c 0,0 0,0.0265 0,0.0265 v 0.23812 c 0,0.0265 -0.02646,0.0529 -0.05292,0.0529 h -1.322916 c -0.05292,0 -0.07937,-0.0265 -0.07937,-0.0529 z"
       class="gb_14"
       id="path53"
       style="display:block;fill:#efefef;stroke-width:0.264583" />
    <path
       fill-rule="evenodd"
       d="m 13.381323,39.635709 0.05292,0.47625 0.608542,-0.13229 0.132292,-0.0529 0.05292,-0.0794 0.02646,-0.0794 -0.05292,-0.10583 -0.02646,-0.10583 h -0.396875 z"
       class="g0_14"
       id="path54"
       style="display:block;fill:#ffffff;stroke-width:0.264583" />
    <path
       fill-rule="evenodd"
       d="m 18.831739,39.635709 -0.07937,0.47625 -0.582083,-0.13229 -0.132292,-0.0529 -0.07937,-0.0794 v -0.0794 l 0.02646,-0.10583 0.05292,-0.10583 h 0.396875 z"
       class="g0_14"
       id="path55"
       style="display:block;fill:#ffffff;stroke-width:0.264583" />
    <path
       fill-rule="evenodd"
       d="m 13.169656,44.107169 0.502708,1.64042 0.07937,0.10583 0.15875,0.0794 h 4.28625 l 0.132292,-0.0529 0.132292,-0.13229 0.502708,-1.37584 v -0.21166 l -0.105833,-0.1323 -0.582084,-0.21166 -0.873125,-0.18521 -0.687916,-0.0794 h -0.820209 l -0.502708,0.0265 -0.370417,0.0265 -0.529166,0.0794 -0.449792,0.10583 -0.343958,0.10583 -0.343959,0.13229 z"
       class="gc_14"
       id="path56"
       style="display:block;fill:#9fc5e8;stroke-width:0.264583" />
    <path
       d="m 13.169656,44.107169 0.502708,1.64042 0.07937,0.10583 0.15875,0.0794 h 4.28625 l 0.132292,-0.0529 0.132292,-0.13229 0.502708,-1.37584 v -0.21166 l -0.105833,-0.1323 -0.582084,-0.21166 -0.873125,-0.18521 -0.687916,-0.0794 h -0.820209 l -0.502708,0.0265 -0.370417,0.0265 -0.529166,0.0794 -0.449792,0.10583 -0.343958,0.10583 -0.343959,0.13229 z"
       class="gd_14"
       id="path57"
       style="display:block;fill:none;stroke:#073763;stroke-width:0.302948;stroke-linejoin:round" />
    <path
       fill-rule="evenodd"
       d="m 12.719864,44.689249 v 8.06979 l 0.02646,0.15875 0.15875,0.0794 0.608541,-0.55563 0.185209,-0.3175 0.105833,-0.29104 -0.105833,-4.73604 -0.05292,-0.34396 -0.211667,-0.60854 -0.264583,-0.635 z"
       class="gc_14"
       id="path58"
       style="display:block;fill:#9fc5e8;stroke-width:0.264583" />
    <path
       d="m 12.719864,44.689249 v 8.06979 l 0.02646,0.15875 0.15875,0.0794 0.608541,-0.55563 0.185209,-0.3175 0.105833,-0.29104 -0.105833,-4.73604 -0.05292,-0.34396 -0.211667,-0.60854 -0.264583,-0.635 z"
       class="gd_14"
       id="path59"
       style="display:block;fill:none;stroke:#073763;stroke-width:0.302948;stroke-linejoin:round" />
    <path
       fill-rule="evenodd"
       d="m 19.572573,44.795089 v 8.06979 l -0.02646,0.15875 -0.15875,0.0529 -0.608541,-0.55562 -0.185209,-0.3175 -0.105833,-0.29104 0.105833,-4.70959 0.05292,-0.37041 0.211667,-0.60854 0.264583,-0.635 z"
       class="gc_14"
       id="path60"
       style="display:block;fill:#9fc5e8;stroke-width:0.264583" />
    <path
       d="m 19.572573,44.795089 v 8.06979 l -0.02646,0.15875 -0.15875,0.0529 -0.608541,-0.55562 -0.185209,-0.3175 -0.105833,-0.29104 0.105833,-4.70959 0.05292,-0.37041 0.211667,-0.60854 0.264583,-0.635 z"
       class="gd_14"
       id="path61"
       style="display:block;fill:none;stroke:#073763;stroke-width:0.302948;stroke-linejoin:round" />
    <path
       fill-rule="evenodd"
       d="m 12.719864,44.609879 -0.15875,-0.0529 -0.211666,0.0265 -0.185209,0.0265 -0.211667,0.0794 -0.15875,0.10584 -0.02646,0.13229 v 0.13229 l 0.105834,0.0794 0.185208,0.0794 0.291043,0.0529 h 0.185208 l 0.185208,-0.0794 0.105834,-0.13229 0.05292,-0.10583 v -0.1323 l -0.07937,-0.13229 z"
       class="ge_14"
       id="path62"
       style="display:block;fill:#0b5394;stroke-width:0.264583" />
    <path
       fill-rule="evenodd"
       d="m 19.493198,44.609879 0.15875,-0.0529 0.211666,0.0265 0.185209,0.0265 0.211666,0.0794 0.15875,0.10584 0.02646,0.13229 v 0.13229 l -0.105834,0.0794 -0.185208,0.0794 -0.291042,0.0529 h -0.185208 l -0.185208,-0.0794 -0.105834,-0.13229 -0.05292,-0.10583 v -0.1323 l 0.07937,-0.13229 z"
       class="ge_14"
       id="path63"
       style="display:block;fill:#0b5394;stroke-width:0.264583" />
    <path
       fill-rule="evenodd"
       d="m 15.365698,55.060919 v 0 c 0,-0.0529 0.02646,-0.0794 0.07937,-0.0794 h 1.322916 c 0.02646,0 0.02646,0.0265 0.05292,0.0265 q 0,0.0265 0,0.0529 v 0.21167 c 0,0.0529 -0.02646,0.0794 -0.05292,0.0794 h -1.322916 c -0.05292,0 -0.07937,-0.0265 -0.07937,-0.0794 z"
       class="gb_14"
       id="path64"
       style="display:block;fill:#efefef;stroke-width:0.264583" />
    <path
       fill-rule="evenodd"
       d="m 13.381323,55.325499 0.05292,-0.50271 0.608542,0.15875 0.132292,0.0529 0.05292,0.0794 0.02646,0.0794 -0.05292,0.10583 -0.02646,0.0794 -0.15875,0.0265 h -0.238125 z"
       class="ge_14"
       id="path65"
       style="display:block;fill:#0b5394;stroke-width:0.264583" />
    <path
       fill-rule="evenodd"
       d="m 18.831739,55.325499 -0.07937,-0.50271 -0.582083,0.15875 -0.132292,0.0529 -0.07937,0.0794 v 0.0794 l 0.02646,0.10583 0.05292,0.0794 0.132292,0.0265 h 0.264583 z"
       class="ge_14"
       id="path66"
       style="display:block;fill:#0b5394;stroke-width:0.264583" />
    <path
       fill-rule="evenodd"
       d="m 14.175073,52.653209 -0.15875,0.0265 -1.005417,0.87312 -0.105833,0.18521 0.05292,0.18521 0.3175,0.21167 0.396875,0.15875 0.582084,0.13229 0.608541,0.0794 0.661459,0.0794 0.661458,-0.0265 0.714375,-0.0265 0.661458,-0.0265 0.767292,-0.15875 0.502708,-0.15875 0.370417,-0.26458 0.05292,-0.18521 -0.105834,-0.18521 -0.926041,-0.79375 -0.07937,-0.0794 -1.058334,-0.0265 h -2.010833 z"
       class="gc_14"
       id="path67"
       style="display:block;fill:#9fc5e8;stroke-width:0.264583" />
    <path
       d="m 14.175073,52.653209 -0.15875,0.0265 -1.005417,0.87312 -0.105833,0.18521 0.05292,0.18521 0.3175,0.21167 0.396875,0.15875 0.582084,0.13229 0.608541,0.0794 0.661459,0.0794 0.661458,-0.0265 0.714375,-0.0265 0.661458,-0.0265 0.767292,-0.15875 0.502708,-0.15875 0.370417,-0.26458 0.05292,-0.18521 -0.105834,-0.18521 -0.926041,-0.79375 -0.07937,-0.0794 -1.058334,-0.0265 h -2.010833 z"
       class="gd_14"
       id="path68"
       style="display:block;fill:none;stroke:#073763;stroke-width:0.302948;stroke-linejoin:round" />
    <path
       fill-rule="evenodd"
       d="m 14.227989,39.688629 c 0.185209,0 0.635,-0.0794 1.005417,-0.0794 0.370417,-0.0265 0.926042,-0.0265 1.243542,0 0.343958,0 0.529166,0.0265 0.740833,0.0265 0.238125,0.0265 0.582083,0.0794 0.687917,0.0794 z"
       class="g1_14"
       id="path69"
       style="display:block;fill:#000000;fill-opacity:0;stroke-width:0.264583" />
    <path
       d="m 14.227989,39.688629 c 0.185209,0 0.635,-0.0794 1.005417,-0.0794 0.370417,-0.0265 0.926042,-0.0265 1.243542,0 0.343958,0 0.529166,0.0265 0.740833,0.0265 0.238125,0.0265 0.582083,0.0794 0.687917,0.0794"
       class="gd_14"
       id="path70"
       style="display:block;fill:none;stroke:#073763;stroke-width:0.302948;stroke-linejoin:round" />
    <path
       fill-rule="evenodd"
       d="m 13.090281,40.111959 c 0,0.0265 -0.07937,0.0529 -0.105833,0.15875 -0.05292,0.10583 -0.05292,0.26458 -0.105834,0.50271 -0.02646,0.23812 -0.105833,0.635 -0.132291,0.92604 -0.02646,0.29104 -0.02646,0.55563 -0.02646,0.82021 0.02646,0.26458 0.05292,0.44979 0.105834,0.71437 0.05292,0.26459 0.211666,0.74084 0.264583,0.87313 z"
       class="g1_14"
       id="path71"
       style="display:block;fill:#000000;fill-opacity:0;stroke-width:0.264583" />
    <path
       d="m 13.090281,40.111959 c 0,0.0265 -0.07937,0.0529 -0.105833,0.15875 -0.05292,0.10583 -0.05292,0.26458 -0.105834,0.50271 -0.02646,0.23812 -0.105833,0.635 -0.132291,0.92604 -0.02646,0.29104 -0.02646,0.55563 -0.02646,0.82021 0.02646,0.26458 0.05292,0.44979 0.105834,0.71437 0.05292,0.26459 0.211666,0.74084 0.264583,0.87313"
       class="gd_14"
       id="path72"
       style="display:block;fill:none;stroke:#073763;stroke-width:0.302948;stroke-linejoin:round" />
    <path
       fill-rule="evenodd"
       d="m 19.069864,40.085499 c 0,0.0265 0.07937,0.10584 0.105834,0.21167 0.02646,0.0794 0.05292,0.18521 0.07937,0.34396 0.02646,0.18521 0.105833,0.42333 0.132291,0.66146 0.02646,0.21166 0.05292,0.47625 0.05292,0.71437 0,0.26458 -0.02646,0.60854 -0.05292,0.79375 0,0.18521 0.05292,0.13229 0,0.34396 -0.05292,0.21167 -0.238125,0.76729 -0.291041,0.92604 z"
       class="g1_14"
       id="path73"
       style="display:block;fill:#000000;fill-opacity:0;stroke-width:0.264583" />
    <path
       d="m 19.069864,40.085499 c 0,0.0265 0.07937,0.10584 0.105834,0.21167 0.02646,0.0794 0.05292,0.18521 0.07937,0.34396 0.02646,0.18521 0.105833,0.42333 0.132291,0.66146 0.02646,0.21166 0.05292,0.47625 0.05292,0.71437 0,0.26458 -0.02646,0.60854 -0.05292,0.79375 0,0.18521 0.05292,0.13229 0,0.34396 -0.05292,0.21167 -0.238125,0.76729 -0.291041,0.92604"
       class="gd_14"
       id="path74"
       style="display:block;fill:none;stroke:#073763;stroke-width:0.302948;stroke-linejoin:round" />
    <path
       fill-rule="evenodd"
       d="m 16.847364,43.948419 -2.301875,1.66687 h -0.3175 l -0.211666,-0.0529 -0.15875,-0.0529 -0.105834,-0.13229 -0.370416,-0.9525 0.02646,-0.10583 0.07937,-0.0529 0.582083,-0.18521 0.661459,-0.0794 0.687916,-0.0794 h 1.031875 z"
       class="gf_14"
       id="path75"
       style="display:block;fill:#cfe2f3;stroke-width:0.264583" />
    <path
       fill-rule="evenodd"
       d="m 44.655075,17.595919 v 0 c 0,0.0794 -0.0794,0.15875 -0.15875,0.15875 h -0.52917 c -0.0529,0 -0.0794,-0.0265 -0.10583,-0.0529 -0.0265,-0.0265 -0.0529,-0.0529 -0.0529,-0.10583 v -2.2225 c 0,-0.0794 0.0794,-0.13229 0.15875,-0.13229 h 0.52917 c 0.0794,0 0.15875,0.0529 0.15875,0.13229 z"
       class="g9_14"
       id="path76"
       style="display:block;fill:#000000;stroke-width:0.264583" />
    <path
       fill-rule="evenodd"
       d="m 37.299655,17.595919 v 0 c 0,0.0794 -0.0794,0.15875 -0.15875,0.15875 h -0.55562 c -0.0265,0 -0.0529,-0.0265 -0.0794,-0.0529 -0.0265,-0.0265 -0.0529,-0.0529 -0.0529,-0.10583 v -2.2225 c 0,-0.0794 0.0794,-0.13229 0.1323,-0.13229 h 0.55562 c 0.0794,0 0.15875,0.0529 0.15875,0.13229 z"
       class="g9_14"
       id="path77"
       style="display:block;fill:#000000;stroke-width:0.264583" />
    <path
       fill-rule="evenodd"
       d="m 44.655075,8.4148777 v 0 c 0,0.0794 -0.0794,0.15875 -0.15875,0.15875 h -0.52917 c -0.0529,0 -0.0794,-0.0265 -0.10583,-0.0529 -0.0265,-0.0265 -0.0529,-0.0529 -0.0529,-0.10583 v -2.2225 c 0,-0.0794 0.0794,-0.13229 0.15875,-0.13229 h 0.52917 c 0.0794,0 0.15875,0.0529 0.15875,0.13229 z"
       class="g9_14"
       id="path78"
       style="display:block;fill:#000000;stroke-width:0.264583" />
    <path
       fill-rule="evenodd"
       d="m 37.299655,8.4148777 v 0 c 0,0.0794 -0.0794,0.15875 -0.15875,0.15875 h -0.55562 c -0.0265,0 -0.0529,-0.0265 -0.0794,-0.0529 -0.0265,-0.0265 -0.0529,-0.0529 -0.0529,-0.10583 v -2.2225 c 0,-0.0794 0.0794,-0.13229 0.1323,-0.13229 h 0.55562 c 0.0794,0 0.15875,0.0529 0.15875,0.13229 z"
       class="g9_14"
       id="path79"
       style="display:block;fill:#000000;stroke-width:0.264583" />
    <path
       fill-rule="evenodd"
       d="m 44.364035,17.913419 v 0 c 0,1.19062 -0.9525,2.14312 -2.14313,2.14312 h -3.43958 c -0.58209,0 -1.11125,-0.23812 -1.50813,-0.635 -0.39687,-0.39687 -0.635,-0.92604 -0.635,-1.50812 V 5.9277977 c 0,-1.16417 0.9525,-2.11667 2.14313,-2.11667 h 3.43958 c 1.19063,0 2.14313,0.9525 2.14313,2.11667 z"
       class="ga_14"
       id="path80"
       style="display:block;fill:#3d85c6;stroke-width:0.264583" />
    <path
       fill-rule="evenodd"
       d="m 41.241945,20.162379 v 0 c 0,0.0265 -0.0265,0.0529 -0.0529,0.0529 h -1.32293 c -0.0265,0 -0.0529,0 -0.0529,-0.0264 0,0 -0.0265,-0.0265 -0.0265,-0.0265 v -0.23813 c 0,-0.0265 0.0265,-0.0529 0.0794,-0.0529 h 1.32292 c 0.0265,0 0.0529,0.0264 0.0529,0.0529 z"
       class="gb_14"
       id="path81"
       style="display:block;fill:#efefef;stroke-width:0.264583" />
    <path
       fill-rule="evenodd"
       d="m 43.252785,19.395089 -0.0794,-0.47625 -0.58208,0.13229 -0.13229,0.0794 -0.0529,0.0529 -0.0265,0.0794 0.0265,0.1323 0.0529,0.0794 h 0.39687 z"
       class="g0_14"
       id="path82"
       style="display:block;fill:#ffffff;stroke-width:0.264583" />
    <path
       fill-rule="evenodd"
       d="m 37.802365,19.395089 0.0794,-0.47625 0.58209,0.13229 0.13229,0.0794 0.0794,0.0529 v 0.0794 l -0.0264,0.1323 -0.0529,0.0794 h -0.39688 z"
       class="g0_14"
       id="path83"
       style="display:block;fill:#ffffff;stroke-width:0.264583" />
    <path
       fill-rule="evenodd"
       d="m 43.464445,14.923629 -0.50271,-1.61396 -0.10583,-0.13229 -0.15875,-0.0794 h -4.25979 l -0.13229,0.0529 -0.13229,0.13229 -0.52917,1.40229 v 0.18521 l 0.13229,0.15875 0.55563,0.18521 0.87312,0.18521 0.71438,0.0794 h 0.8202 l 0.50271,-0.0265 0.37042,-0.0265 0.50271,-0.0529 0.47625,-0.13229 0.34396,-0.10584 0.34395,-0.13229 z"
       class="gc_14"
       id="path84"
       style="display:block;fill:#9fc5e8;stroke-width:0.264583" />
    <path
       d="m 43.464445,14.923629 -0.50271,-1.61396 -0.10583,-0.13229 -0.15875,-0.0794 h -4.25979 l -0.13229,0.0529 -0.13229,0.13229 -0.52917,1.40229 v 0.18521 l 0.13229,0.15875 0.55563,0.18521 0.87312,0.18521 0.71438,0.0794 h 0.8202 l 0.50271,-0.0265 0.37042,-0.0265 0.50271,-0.0529 0.47625,-0.13229 0.34396,-0.10584 0.34395,-0.13229 z"
       class="gd_14"
       id="path85"
       style="display:block;fill:none;stroke:#073763;stroke-width:0.302948;stroke-linejoin:round" />
    <path
       fill-rule="evenodd"
       d="M 43.914235,14.341539 V 6.2717477 l -0.0529,-0.15875 -0.13229,-0.0529 -0.60855,0.55562 -0.1852,0.3175 -0.10584,0.29104 0.10584,4.7095913 0.0529,0.34396 0.21167,0.63499 0.26458,0.60855 z"
       class="gc_14"
       id="path86"
       style="display:block;fill:#9fc5e8;stroke-width:0.264583" />
    <path
       d="M 43.914235,14.341539 V 6.2717477 l -0.0529,-0.15875 -0.13229,-0.0529 -0.60855,0.55562 -0.1852,0.3175 -0.10584,0.29104 0.10584,4.7095913 0.0529,0.34396 0.21167,0.63499 0.26458,0.60855 z"
       class="gd_14"
       id="path87"
       style="display:block;fill:none;stroke:#073763;stroke-width:0.302948;stroke-linejoin:round" />
    <path
       fill-rule="evenodd"
       d="M 37.061535,14.262169 V 6.1659177 l 0.0264,-0.13229 0.15875,-0.0794 0.60855,0.55563 0.1852,0.3175 0.0794,0.29104 -0.0794,4.7360413 -0.0529,0.34396 -0.21167,0.60854 -0.26458,0.635 z"
       class="gc_14"
       id="path88"
       style="display:block;fill:#9fc5e8;stroke-width:0.264583" />
    <path
       d="M 37.061535,14.262169 V 6.1659177 l 0.0264,-0.13229 0.15875,-0.0794 0.60855,0.55563 0.1852,0.3175 0.0794,0.29104 -0.0794,4.7360413 -0.0529,0.34396 -0.21167,0.60854 -0.26458,0.635 z"
       class="gd_14"
       id="path89"
       style="display:block;fill:none;stroke:#073763;stroke-width:0.302948;stroke-linejoin:round" />
    <path
       fill-rule="evenodd"
       d="m 43.914235,14.420919 0.15875,0.0529 h 0.21167 l 0.15875,-0.0529 0.23813,-0.0794 0.13229,-0.10583 0.0529,-0.13229 v -0.10583 l -0.13229,-0.10584 -0.15875,-0.0794 -0.29104,-0.0529 h -0.21167 l -0.15875,0.0794 -0.10583,0.15875 -0.0529,0.10583 v 0.13229 l 0.0529,0.10583 z"
       class="ge_14"
       id="path90"
       style="display:block;fill:#0b5394;stroke-width:0.264583" />
    <path
       fill-rule="evenodd"
       d="m 37.140905,14.420919 -0.18521,0.0529 h -0.18521 l -0.1852,-0.0529 -0.21167,-0.0794 -0.15875,-0.10583 -0.0265,-0.13229 v -0.10583 l 0.10583,-0.10584 0.18521,-0.0794 0.26459,-0.0529 h 0.21166 l 0.15875,0.0794 0.13229,0.15875 0.0529,0.10583 v 0.13229 l -0.0794,0.10583 z"
       class="ge_14"
       id="path91"
       style="display:block;fill:#0b5394;stroke-width:0.264583" />
    <path
       fill-rule="evenodd"
       d="m 41.241945,3.9963377 v 0 c 0,0.0265 -0.0265,0.0529 -0.0529,0.0529 h -1.32293 c -0.0265,0 -0.0529,0 -0.0529,-0.0265 0,0 -0.0265,-0.0265 -0.0265,-0.0265 v -0.23813 c 0,-0.0265 0.0265,-0.0529 0.0794,-0.0529 h 1.32292 c 0.0265,0 0.0529,0.0264 0.0529,0.0529 z"
       class="gb_14"
       id="path92"
       style="display:block;fill:#efefef;stroke-width:0.264583" />
    <path
       fill-rule="evenodd"
       d="m 43.252785,3.7317477 -0.0794,0.47625 -0.58208,-0.15875 -0.13229,-0.0529 -0.0529,-0.0529 -0.0265,-0.10583 0.0265,-0.10584 0.0529,-0.0794 0.15875,-0.0265 0.23812,0.0265 z"
       class="ge_14"
       id="path93"
       style="display:block;fill:#0b5394;stroke-width:0.264583" />
    <path
       fill-rule="evenodd"
       d="m 37.802365,3.7317477 0.0794,0.47625 0.58209,-0.15875 0.13229,-0.0529 0.0794,-0.0529 v -0.10583 l -0.0264,-0.10584 -0.0529,-0.0794 -0.15875,-0.0265 -0.23813,0.0265 z"
       class="ge_14"
       id="path94"
       style="display:block;fill:#0b5394;stroke-width:0.264583" />
    <path
       fill-rule="evenodd"
       d="m 42.459035,6.3775877 0.13229,-0.0265 1.03187,-0.87313 0.0794,-0.1852 -0.0265,-0.15875 -0.3175,-0.21167 -0.39688,-0.15875 -0.58208,-0.15875 -0.60854,-0.0794 -0.66146,-0.0529 h -0.66146 l -0.71437,0.0265 -0.66146,0.0529 -0.76729,0.13229 -0.50271,0.18521 -0.37042,0.23813 -0.0794,0.21166 0.13229,0.18521 0.92604,0.76729 0.0794,0.0794 1.05833,0.0529 h 1.19062 l 0.82021,-0.0265 z"
       class="gc_14"
       id="path95"
       style="display:block;fill:#9fc5e8;stroke-width:0.264583" />
    <path
       d="m 42.459035,6.3775877 0.13229,-0.0265 1.03187,-0.87313 0.0794,-0.1852 -0.0265,-0.15875 -0.3175,-0.21167 -0.39688,-0.15875 -0.58208,-0.15875 -0.60854,-0.0794 -0.66146,-0.0529 h -0.66146 l -0.71437,0.0265 -0.66146,0.0529 -0.76729,0.13229 -0.50271,0.18521 -0.37042,0.23813 -0.0794,0.21166 0.13229,0.18521 0.92604,0.76729 0.0794,0.0794 1.05833,0.0529 h 1.19062 l 0.82021,-0.0265 z"
       class="gd_14"
       id="path96"
       style="display:block;fill:none;stroke:#073763;stroke-width:0.302948;stroke-linejoin:round" />
    <path
       fill-rule="evenodd"
       d="m 42.406115,19.342169 c -0.18521,0.0265 -0.635,0.0794 -1.00542,0.0794 -0.39687,0.0265 -0.92604,0.0265 -1.27,0.0265 -0.3175,0 -0.50271,-0.0265 -0.74083,-0.0529 -0.23813,-0.0265 -0.55563,-0.0529 -0.66146,-0.0794 z"
       class="g1_14"
       id="path97"
       style="display:block;fill:#000000;fill-opacity:0;stroke-width:0.264583" />
    <path
       d="m 42.406115,19.342169 c -0.18521,0.0265 -0.635,0.0794 -1.00542,0.0794 -0.39687,0.0265 -0.92604,0.0265 -1.27,0.0265 -0.3175,0 -0.50271,-0.0265 -0.74083,-0.0529 -0.23813,-0.0265 -0.55563,-0.0529 -0.66146,-0.0794"
       class="gd_14"
       id="path98"
       style="display:block;fill:none;stroke:#073763;stroke-width:0.302948;stroke-linejoin:round" />
    <path
       fill-rule="evenodd"
       d="m 43.517365,18.918839 c 0.0265,-0.0265 0.10583,-0.0529 0.13229,-0.15875 0.0265,-0.10584 0.0529,-0.26459 0.0794,-0.50271 0.0529,-0.23813 0.13229,-0.635 0.15875,-0.92604 0.0264,-0.29105 0.0264,-0.55563 0,-0.82021 0,-0.23813 -0.0265,-0.44979 -0.0794,-0.71438 -0.0794,-0.26458 -0.21167,-0.71437 -0.26458,-0.87312 z"
       class="g1_14"
       id="path99"
       style="display:block;fill:#000000;fill-opacity:0;stroke-width:0.264583" />
    <path
       d="m 43.517365,18.918839 c 0.0265,-0.0265 0.10583,-0.0529 0.13229,-0.15875 0.0265,-0.10584 0.0529,-0.26459 0.0794,-0.50271 0.0529,-0.23813 0.13229,-0.635 0.15875,-0.92604 0.0264,-0.29105 0.0264,-0.55563 0,-0.82021 0,-0.23813 -0.0265,-0.44979 -0.0794,-0.71438 -0.0794,-0.26458 -0.21167,-0.71437 -0.26458,-0.87312"
       class="gd_14"
       id="path100"
       style="display:block;fill:none;stroke:#073763;stroke-width:0.302948;stroke-linejoin:round" />
    <path
       fill-rule="evenodd"
       d="m 37.564235,18.971749 c -0.0264,-0.0529 -0.0794,-0.13229 -0.10583,-0.21166 -0.0529,-0.10584 -0.0529,-0.21167 -0.0794,-0.37042 -0.0529,-0.15875 -0.10584,-0.42333 -0.1323,-0.635 -0.0265,-0.23813 -0.0529,-0.47625 -0.0529,-0.74083 0,-0.23813 0.0265,-0.58209 0.0265,-0.7673 0.0265,-0.1852 -0.0265,-0.13229 0.0265,-0.34395 0.0529,-0.21167 0.23813,-0.79375 0.29105,-0.9525 z"
       class="g1_14"
       id="path101"
       style="display:block;fill:#000000;fill-opacity:0;stroke-width:0.264583" />
    <path
       d="m 37.564235,18.971749 c -0.0264,-0.0529 -0.0794,-0.13229 -0.10583,-0.21166 -0.0529,-0.10584 -0.0529,-0.21167 -0.0794,-0.37042 -0.0529,-0.15875 -0.10584,-0.42333 -0.1323,-0.635 -0.0265,-0.23813 -0.0529,-0.47625 -0.0529,-0.74083 0,-0.23813 0.0265,-0.58209 0.0265,-0.7673 0.0265,-0.1852 -0.0265,-0.13229 0.0265,-0.34395 0.0529,-0.21167 0.23813,-0.79375 0.29105,-0.9525"
       class="gd_14"
       id="path102"
       style="display:block;fill:none;stroke:#073763;stroke-width:0.302948;stroke-linejoin:round" />
    <path
       fill-rule="evenodd"
       d="m 39.786735,15.082379 2.30188,-1.64042 0.3175,-0.0265 0.21167,0.0529 0.13229,0.0794 0.10583,0.10584 0.39688,0.9525 -0.0265,0.10583 -0.0794,0.0794 -0.58208,0.15875 -0.66146,0.10583 -0.68792,0.0529 -0.5027,0.0265 -0.52917,-0.0265 z"
       class="gf_14"
       id="path103"
       style="display:block;fill:#cfe2f3;stroke-width:0.264583" />
  </g>
</svg>
