<?xml version="1.0" encoding="UTF-8" standalone="no"?>
<!-- Created with Inkscape (http://www.inkscape.org/) -->

<svg
   width="65.108002mm"
   height="52.143002mm"
   viewBox="0 0 65.108002 52.143001"
   version="1.1"
   id="svg1"
   inkscape:version="1.3.2 (1:1.3.2+202311252150+091e20ef0f)"
   sodipodi:docname="vm-03-02_1.svg"
   xmlns:inkscape="http://www.inkscape.org/namespaces/inkscape"
   xmlns:sodipodi="http://sodipodi.sourceforge.net/DTD/sodipodi-0.dtd"
   xmlns="http://www.w3.org/2000/svg"
   xmlns:svg="http://www.w3.org/2000/svg">
  <sodipodi:namedview
     id="namedview1"
     pagecolor="#ffffff"
     bordercolor="#000000"
     borderopacity="0.25"
     inkscape:showpageshadow="2"
     inkscape:pageopacity="0.0"
     inkscape:pagecheckerboard="0"
     inkscape:deskcolor="#d1d1d1"
     inkscape:document-units="mm"
     inkscape:zoom="1.7131103"
     inkscape:cx="445.68059"
     inkscape:cy="219.19196"
     inkscape:window-width="3840"
     inkscape:window-height="2123"
     inkscape:window-x="0"
     inkscape:window-y="0"
     inkscape:window-maximized="1"
     inkscape:current-layer="layer1" />
  <defs
     id="defs1" />
  <g
     inkscape:label="Layer 1"
     inkscape:groupmode="layer"
     id="layer1"
     transform="translate(12.964584,-90.487498)">
    <path
       fill-rule="evenodd"
       d="M -9.7081866,93.272261 49.399729,93.378094 V 117.0583 H 35.720771 v 22.35729 H 4.5528551 V 116.95247 H -9.5494366 Z"
       class="g3_35"
       id="path141"
       style="display:block;fill:#666666;stroke-width:0.264583" />
    <path
       fill-rule="evenodd"
       d="M -9.5494366,96.050386 H 49.399729 v 0.635 H -9.5494366 Z"
       class="g0_35"
       id="path142"
       style="display:block;fill:#ffffff;stroke-width:0.264583" />
    <path
       fill-rule="evenodd"
       d="m 31.619729,119.67767 v 19.73792 h -0.687916 v -19.73792 z"
       class="g0_35"
       id="path143"
       style="display:block;fill:#ffffff;stroke-width:0.264583" />
    <path
       fill-rule="evenodd"
       d="m -9.5494366,104.78163 h 2.196042 v 0.66146 h -2.196042 z"
       class="g0_35"
       id="path144"
       style="display:block;fill:#ffffff;stroke-width:0.264583" />
    <path
       fill-rule="evenodd"
       d="m -5.5806865,104.78163 h 2.1960417 v 0.66146 h -2.1960417 z"
       class="g0_35"
       id="path145"
       style="display:block;fill:#ffffff;stroke-width:0.264583" />
    <path
       fill-rule="evenodd"
       d="m -1.5854782,104.78163 h 2.19604166 v 0.66146 H -1.5854782 Z"
       class="g0_35"
       id="path146"
       style="display:block;fill:#ffffff;stroke-width:0.264583" />
    <path
       fill-rule="evenodd"
       d="m 2.3832717,104.78163 h 2.2225 v 0.66146 h -2.2225 z"
       class="g0_35"
       id="path147"
       style="display:block;fill:#ffffff;stroke-width:0.264583" />
    <path
       fill-rule="evenodd"
       d="m 6.37848,104.78163 h 2.1960417 v 0.66146 H 6.37848 Z"
       class="g0_35"
       id="path148"
       style="display:block;fill:#ffffff;stroke-width:0.264583" />
    <path
       fill-rule="evenodd"
       d="m 10.373688,104.78163 h 2.196042 v 0.66146 h -2.196042 z"
       class="g0_35"
       id="path149"
       style="display:block;fill:#ffffff;stroke-width:0.264583" />
    <path
       fill-rule="evenodd"
       d="m 14.342438,104.78163 h 2.2225 v 0.66146 h -2.2225 z"
       class="g0_35"
       id="path150"
       style="display:block;fill:#ffffff;stroke-width:0.264583" />
    <path
       fill-rule="evenodd"
       d="m 18.337646,104.78163 h 2.196042 v 0.66146 h -2.196042 z"
       class="g0_35"
       id="path151"
       style="display:block;fill:#ffffff;stroke-width:0.264583" />
    <path
       fill-rule="evenodd"
       d="m 22.332854,104.78163 h 2.196042 v 0.66146 h -2.196042 z"
       class="g0_35"
       id="path152"
       style="display:block;fill:#ffffff;stroke-width:0.264583" />
    <path
       fill-rule="evenodd"
       d="m 26.301604,104.78163 h 2.196042 v 0.66146 h -2.196042 z"
       class="g0_35"
       id="path153"
       style="display:block;fill:#ffffff;stroke-width:0.264583" />
    <path
       fill-rule="evenodd"
       d="m 30.296813,104.78163 h 2.196041 v 0.66146 h -2.196041 z"
       class="g0_35"
       id="path154"
       style="display:block;fill:#ffffff;stroke-width:0.264583" />
    <path
       fill-rule="evenodd"
       d="m 34.265563,104.78163 h 2.2225 v 0.66146 h -2.2225 z"
       class="g0_35"
       id="path155"
       style="display:block;fill:#ffffff;stroke-width:0.264583" />
    <path
       fill-rule="evenodd"
       d="m 38.260771,104.78163 h 2.196042 v 0.66146 h -2.196042 z"
       class="g0_35"
       id="path156"
       style="display:block;fill:#ffffff;stroke-width:0.264583" />
    <path
       fill-rule="evenodd"
       d="m 42.255979,104.78163 h 2.196042 v 0.66146 h -2.196042 z"
       class="g0_35"
       id="path157"
       style="display:block;fill:#ffffff;stroke-width:0.264583" />
    <path
       fill-rule="evenodd"
       d="m 46.224729,104.78163 h 2.196042 v 0.66146 h -2.196042 z"
       class="g0_35"
       id="path158"
       style="display:block;fill:#ffffff;stroke-width:0.264583" />
    <path
       fill-rule="evenodd"
       d="m 34.265563,113.98913 h 15.134166 v 0.66146 H 34.265563 Z"
       class="g0_35"
       id="path159"
       style="display:block;fill:#ffffff;stroke-width:0.264583" />
    <path
       fill-rule="evenodd"
       d="m -9.5494366,113.98913 h 16.113125 v 0.66146 h -16.113125 z"
       class="g0_35"
       id="path160"
       style="display:block;fill:#ffffff;stroke-width:0.264583" />
    <path
       fill-rule="evenodd"
       d="m 34.292021,113.98913 v 0.68792 h -0.555625 l -0.449792,0.18521 -0.423333,0.18521 -0.555625,0.47625 -0.291042,0.47625 -0.211666,0.42333 -0.05292,0.39687 -0.05292,2.88396 h -0.767291 v -2.75166 l 0.105833,-0.79375 0.343958,-0.635 0.370417,-0.52917 0.529167,-0.44979 0.687916,-0.42334 0.47625,-0.10583 z"
       class="g0_35"
       id="path161"
       style="display:block;fill:#ffffff;stroke-width:0.264583" />
    <path
       fill-rule="evenodd"
       d="m 9.8445217,119.67767 v 19.73792 H 9.1830633 v -19.73792 z"
       class="g0_35"
       id="path162"
       style="display:block;fill:#ffffff;stroke-width:0.264583" />
    <path
       fill-rule="evenodd"
       d="m 20.533688,122.11184 v 2.11667 h -0.687917 v -2.11667 z"
       class="g0_35"
       id="path163"
       style="display:block;fill:#ffffff;stroke-width:0.264583" />
    <path
       fill-rule="evenodd"
       d="m 20.533688,125.92184 v 2.09021 h -0.687917 v -2.09021 z"
       class="g0_35"
       id="path164"
       style="display:block;fill:#ffffff;stroke-width:0.264583" />
    <path
       fill-rule="evenodd"
       d="m 20.533688,129.73184 v 2.09021 h -0.687917 v -2.09021 z"
       class="g0_35"
       id="path165"
       style="display:block;fill:#ffffff;stroke-width:0.264583" />
    <path
       fill-rule="evenodd"
       d="m 20.533688,133.51538 v 2.09021 h -0.687917 v -2.09021 z"
       class="g0_35"
       id="path166"
       style="display:block;fill:#ffffff;stroke-width:0.264583" />
    <path
       fill-rule="evenodd"
       d="m 20.533688,137.32538 v 2.09021 h -0.687917 v -2.09021 z"
       class="g0_35"
       id="path167"
       style="display:block;fill:#ffffff;stroke-width:0.264583" />
    <path
       fill-rule="evenodd"
       d="m 6.5636884,113.98913 v 0.68792 h 0.555625 l 0.4497916,0.18521 0.4233334,0.18521 0.555625,0.47625 0.2910416,0.47625 0.1852083,0.42333 0.079375,0.39687 0.052917,2.88396 h 0.7408333 v -2.75166 l -0.079375,-0.79375 -0.3439583,-0.635 -0.3704167,-0.52917 -0.5291666,-0.44979 -0.714375,-0.42334 -0.4497917,-0.10583 z"
       class="g0_35"
       id="path168"
       style="display:block;fill:#ffffff;stroke-width:0.264583" />
    <path
       fill-rule="evenodd"
       d="M 9.2095217,122.16476 H 20.560146 Z"
       class="g1_35"
       id="path169"
       style="display:block;fill:#000000;fill-opacity:0;stroke-width:0.264583" />
    <path
       d="M 9.2095217,122.16476 H 20.560146"
       class="gb_35"
       id="path170"
       style="display:block;fill:none;stroke:#ffffff;stroke-width:0.60616;stroke-linejoin:round" />
  </g>
</svg>
