<?xml version="1.0" encoding="UTF-8" standalone="no"?>
<!-- Page 14 -->

<svg
   x="0"
   y="0"
   width="426.91199"
   height="239.58099"
   viewBox="0 0 426.91198 239.581"
   version="1.1"
   style="display:block"
   id="svg225"
   sodipodi:docname="vm-03-08_1.svg"
   inkscape:version="1.3.2 (1:1.3.2+202311252150+091e20ef0f)"
   xmlns:inkscape="http://www.inkscape.org/namespaces/inkscape"
   xmlns:sodipodi="http://sodipodi.sourceforge.net/DTD/sodipodi-0.dtd"
   xmlns="http://www.w3.org/2000/svg"
   xmlns:svg="http://www.w3.org/2000/svg">
  <sodipodi:namedview
     id="namedview225"
     pagecolor="#ffffff"
     bordercolor="#000000"
     borderopacity="0.25"
     inkscape:showpageshadow="2"
     inkscape:pageopacity="0.0"
     inkscape:pagecheckerboard="0"
     inkscape:deskcolor="#d1d1d1"
     inkscape:zoom="2.7975716"
     inkscape:cx="347.08674"
     inkscape:cy="67.379867"
     inkscape:window-width="3840"
     inkscape:window-height="2123"
     inkscape:window-x="0"
     inkscape:window-y="0"
     inkscape:window-maximized="1"
     inkscape:current-layer="g222" />
  <defs
     id="defs2">
    <clipPath
       id="c_14">
      <path
         d="M 0,0 H 1100 V 825 H 0 Z"
         id="path1" />
    </clipPath>
    <clipPath
       id="c0_14">
      <path
         d="M 0,825 V 0 h 1100 v 825 z"
         id="path2" />
    </clipPath>
    <style
       type="text/css"
       id="style2"><![CDATA[
text { white-space: pre; }
path, image { pointer-events: none; }

.s0_14{
font-size: 21.39px;
font-family: ArialMT_3h;
fill: #595959;
}
.s1_14{
font-size: 21.39px;
font-family: MS-PGothic_3l;
fill: #595959;
}
.s2_14{
font-size: 42.78px;
font-family: MS-PGothic_3l;
fill: #000;
}
.s3_14{
font-size: 18.33px;
font-family: ArialMT_3h;
fill: #595959;
}
.s4_14{
font-size: 18.33px;
font-family: MS-PGothic_3l;
fill: #595959;
}

.g0_14{
fill: #FFF;
}
.g1_14{
fill: #000;
fill-opacity: 0;
}
.g2_14{
fill: #666;
}
.g3_14{
fill: none;
stroke: #595959;
stroke-width: 1.145;
stroke-linejoin: round;
}
.g4_14{
fill: #999;
}
.g5_14{
fill: none;
stroke: #F90;
stroke-width: 1.145;
stroke-linejoin: round;
}
.g6_14{
fill: none;
stroke: #F7981D;
stroke-width: 1.145;
stroke-linejoin: round;
}
.g7_14{
fill: none;
stroke: #FFAB40;
stroke-width: 1.145;
stroke-linejoin: round;
}
.g8_14{
fill: #EEE;
}
.g9_14{
fill: #FF0;
fill-opacity: 0.59;
}
.ga_14{
fill: none;
stroke: #F00;
stroke-width: 1.145;
stroke-linejoin: round;
}
.gb_14{
fill: none;
stroke: #0FF;
stroke-width: 1.145;
stroke-linejoin: round;
}
.gc_14{
fill: #F00;
stroke: #F00;
stroke-width: 1.145;
stroke-miterlimit: 10;
}
.gd_14{
fill: #0FF;
stroke: #0FF;
stroke-width: 1.145;
stroke-miterlimit: 10;
}

]]></style>
  </defs>
  <g
     clip-path="url(#c_14)"
     id="g225"
     transform="translate(-628.4275,-509)">
    <path
       fill-rule="evenodd"
       d="M 37.5,184.9 H 518.7 V 732.8 H 37.5 Z"
       class="g1_14"
       id="path5" />
    <path
       fill-rule="evenodd"
       d="m 37.5,71.4 h 481.2 v 91.8 H 37.5 Z"
       class="g1_14"
       id="path25" />
    <path
       fill-rule="evenodd"
       d="m 581.3,184.9 h 481.2 V 499.8 H 581.3 Z"
       class="g1_14"
       id="path26" />
    <path
       fill-rule="evenodd"
       d="m 581.3,71.4 h 481.2 v 91.8 H 581.3 Z"
       class="g1_14"
       id="path42" />
    <path
       fill-rule="evenodd"
       d="m 709.27093,531.67993 h 74.2 l 3,23.6 1.9,9.1 4.4,8.5 5.3,6.1 4.2,3.6 7.8,5.5 6.6,2.3 6.7,1.9 44.8,4.2 v 36.2 l -50.7,-4.7 -7.8,-0.4 -4.4,-0.4 -4.5,3.3 -0.2,4.1 0.2,3.4 1.9,1.9 4,1.4 7,3.8 10.4,3.8 12.4,2.4 32.1,3.5 -0.6,44.4 -23.2,-1.9 -6.4,1.1 -10.7,3.2 -7.6,4.8 -5.5,5.3 -4.5,5.3 -3.8,7.8 -1.7,5.3 -1.3,5.3 0.3,4.2 -62.4,0.2 -2.7,-19.9 -3,-11.8 -6.5,-8.9 -6.4,-5.7 -7.2,-4.8 -9.7,-4.1 -5.1,-1 -63.8,-6.3 0.2,-37.2 67.2,6.7 h 5.7 l 3.2,-1.7 3.2,-4.4 -0.6,-4.9 -2.6,-3.8 -9.5,-3.8 -14.2,-3.6 -52.2,-5.3 v -44.1 l 26.2,2.1 6.8,-0.6 7.4,-1.7 9.5,-4.2 6.2,-4.7 5.4,-5.1 5.3,-7 3,-6.3 2.3,-7.8 z"
       class="g2_14"
       id="path43" />
    <path
       d="m 709.27093,531.67993 h 74.2 l 3,23.6 1.9,9.1 4.4,8.5 5.3,6.1 4.2,3.6 7.8,5.5 6.6,2.3 6.7,1.9 44.8,4.2 v 36.2 l -50.7,-4.7 -7.8,-0.4 -4.4,-0.4 -4.5,3.3 -0.2,4.1 0.2,3.4 1.9,1.9 4,1.4 7,3.8 10.4,3.8 12.4,2.4 32.1,3.5 -0.6,44.4 -23.2,-1.9 -6.4,1.1 -10.7,3.2 -7.6,4.8 -5.5,5.3 -4.5,5.3 -3.8,7.8 -1.7,5.3 -1.3,5.3 0.3,4.2 -62.4,0.2 -2.7,-19.9 -3,-11.8 -6.5,-8.9 -6.4,-5.7 -7.2,-4.8 -9.7,-4.1 -5.1,-1 -63.8,-6.3 0.2,-37.2 67.2,6.7 h 5.7 l 3.2,-1.7 3.2,-4.4 -0.6,-4.9 -2.6,-3.8 -9.5,-3.8 -14.2,-3.6 -52.2,-5.3 v -44.1 l 26.2,2.1 6.8,-0.6 7.4,-1.7 9.5,-4.2 6.2,-4.7 5.4,-5.1 5.3,-7 3,-6.3 2.3,-7.8 z"
       class="g3_14"
       id="path44" />
    <path
       fill-rule="evenodd"
       d="m 783.37093,531.87993 4.5,31 4.7,9.8 7.5,8.1 6.8,5.4 7.7,3.5 8.5,2.3 45.1,4.3 v -2.6 l -44.8,-4.4 -10.3,-3.1 -8.9,-5.8 -6.9,-6.8 -5.9,-10.4 -4.9,-31.4 z"
       class="g4_14"
       id="path45" />
    <path
       fill-rule="evenodd"
       d="m 709.07093,531.67993 0.1,8.2 -1,4.1 -3.6,8.5 -3.2,4.7 -5,5.9 -7.1,5.8 -5.8,3.6 -8.7,3.1 -8.7,1.5 -5.6,-0.1 -23.7,-2 0.2,-3 25.9,2.7 4.4,-0.4 7.6,-1.6 5.9,-1.9 6.9,-4.2 5.2,-4.8 6.5,-8 3.8,-7.1 2.1,-6.8 0.2,-8.1 z"
       class="g4_14"
       id="path46" />
    <path
       fill-rule="evenodd"
       d="m 637.07093,619.27993 51.2,5.1 3.5,0.7 14.5,4.2 7,3 2.3,3.2 0.5,3.3 -0.2,2.2 -1.7,2.3 -1.5,2 -2.2,1.1 -2.2,0.3 h -5.5 l -66,-6.7 v -3 l 63.9,6.8 3.8,0.4 5.1,-0.2 2.2,-1.8 1.3,-2.8 -0.2,-2.9 -1.4,-2 -5.5,-2.7 -17.3,-4.7 -51.8,-5.1 z"
       class="g4_14"
       id="path47" />
    <path
       fill-rule="evenodd"
       d="m 868.17093,632.97993 -62.7,-5.9 -2,1.3 -2.5,2.1 -0.4,3.8 0.4,3.4 2,2.4 9.9,4.5 11.9,4.2 12.6,2.4 30.9,3.3 0.1,-2.7 -32.2,-3.3 -8.6,-1.6 -4.8,-1.6 -8.3,-3.4 -8,-3.1 -2.2,-2 -0.8,-2.1 0.3,-2.2 0.4,-1.1 1.8,-1.3 2.2,-0.1 60.1,6 z"
       class="g4_14"
       id="path48" />
    <path
       fill-rule="evenodd"
       d="m 868.17093,699.17993 -23.6,-2 -6.8,1.4 -5.1,1.3 -5.4,2 -5.6,3.4 -3.7,3 -3.7,3.8 -3.7,4.2 -3.2,5.7 -1.7,4.5 -1.1,3.3 -0.8,3.1 -0.8,3.2 0.6,3.5 3.6,-0.1 -0.4,-3.7 1.1,-5.2 1.3,-4.2 2.3,-5.1 3.1,-4.8 3.9,-4.5 4.5,-3.9 4.9,-3 6.2,-2.5 4.5,-1.3 3.9,-0.7 2.5,-0.2 23.2,2 z"
       class="g4_14"
       id="path49" />
    <path
       fill-rule="evenodd"
       d="m 636.87093,677.27993 62.2,6.2 2.7,0.5 3.7,0.7 6.3,2.6 4.4,2.1 4.5,3 5.3,4.2 2.7,2.4 3.1,3.4 2.5,4.2 2.2,4.9 1.7,7.3 0.9,5 0.5,4.8 0.7,5.3 0.6,5.7 -3.9,-0.2 -0.9,-10.9 -1,-9.2 -2.2,-8.7 -2.7,-5.1 -3.1,-4.2 -5,-4.3 -7,-4.6 -4.7,-2.4 -5.4,-2.4 -68.1,-7.8 z"
       class="g4_14"
       id="path50" />
    <path
       fill-rule="evenodd"
       d="m 714.17093,531.67993 29.4,208.5 z"
       class="g1_14"
       id="path51" />
    <path
       d="m 714.17093,531.67993 29.4,208.5"
       class="g5_14"
       id="path52" />
    <path
       fill-rule="evenodd"
       d="m 724.87093,531.57993 27.7,208 z"
       class="g1_14"
       id="path53" />
    <path
       d="m 724.87093,531.57993 27.7,208"
       class="g5_14"
       id="path54" />
    <path
       fill-rule="evenodd"
       d="m 760.37093,531.47993 30,208.5 z"
       class="g1_14"
       id="path55" />
    <path
       d="m 760.37093,531.47993 30,208.5"
       class="g5_14"
       id="path56" />
    <path
       fill-rule="evenodd"
       d="m 636.57093,651.67993 232,21.8 z"
       class="g1_14"
       id="path57" />
    <path
       d="m 636.57093,651.67993 232,21.8"
       class="g5_14"
       id="path58" />
    <path
       fill-rule="evenodd"
       d="m 636.97093,661.37993 231.3,22.3 z"
       class="g1_14"
       id="path59" />
    <path
       d="m 636.97093,661.37993 231.3,22.3"
       class="g5_14"
       id="path60" />
    <path
       fill-rule="evenodd"
       d="m 636.87093,671.87993 231.2,24.8 z"
       class="g1_14"
       id="path61" />
    <path
       d="m 636.87093,671.87993 231.2,24.8"
       class="g5_14"
       id="path62" />
    <path
       fill-rule="evenodd"
       d="m 636.87093,618.57993 c 8.6,1 41.1,4.5 51.6,5.8 10.5,1.3 5.5,0.4 11.3,1.8 5.7,1.4 15.8,4.5 23.3,6.8 7.5,2.3 16.3,4.6 21.8,7 5.5,2.4 8,4.9 11.1,7.2 3.2,2.2 5.4,4.1 7.8,6.4 2.3,2.3 4.3,5.1 6.2,7.4 1.9,2.4 3.5,4 5,6.7 1.6,2.6 3.3,6.5 4.4,9.2 1,2.6 1.5,4.3 2.1,6.8 0.7,2.4 1.5,6.4 1.8,7.7 z"
       class="g1_14"
       id="path63" />
    <path
       d="m 636.87093,618.57993 c 8.6,1 41.1,4.5 51.6,5.8 10.5,1.3 5.5,0.4 11.3,1.8 5.7,1.4 15.8,4.5 23.3,6.8 7.5,2.3 16.3,4.6 21.8,7 5.5,2.4 8,4.9 11.1,7.2 3.2,2.2 5.4,4.1 7.8,6.4 2.3,2.3 4.3,5.1 6.2,7.4 1.9,2.4 3.5,4 5,6.7 1.6,2.6 3.3,6.5 4.4,9.2 1,2.6 1.5,4.3 2.1,6.8 0.7,2.4 1.5,6.4 1.8,7.7"
       class="g5_14"
       id="path64" />
    <path
       fill-rule="evenodd"
       d="m 721.97093,586.57993 c 0.4,1.7 1.2,7.2 2,10.4 0.9,3.2 0.8,4.5 3.3,8.7 2.5,4.2 7.7,12 11.9,16.3 4.2,4.3 8.2,6.2 13.3,9.6 5.1,3.4 11.6,7.2 17.4,10.8 5.8,3.7 12.3,7.9 17.5,11 5.1,3.1 9,5.6 13.4,7.8 4.4,2.1 9.5,4.1 12.9,5.4 3.3,1.3 4.6,1.9 7.3,2.4 2.6,0.6 7.2,0.7 8.7,0.8 z"
       class="g1_14"
       id="path65" />
    <path
       d="m 721.97093,586.57993 c 0.4,1.7 1.2,7.2 2,10.4 0.9,3.2 0.8,4.5 3.3,8.7 2.5,4.2 7.7,12 11.9,16.3 4.2,4.3 8.2,6.2 13.3,9.6 5.1,3.4 11.6,7.2 17.4,10.8 5.8,3.7 12.3,7.9 17.5,11 5.1,3.1 9,5.6 13.4,7.8 4.4,2.1 9.5,4.1 12.9,5.4 3.3,1.3 4.6,1.9 7.3,2.4 2.6,0.6 7.2,0.7 8.7,0.8"
       class="g5_14"
       id="path66" />
    <path
       fill-rule="evenodd"
       d="m 742.17093,732.17993 c -0.6,-3.1 -2.7,-14.2 -3.6,-18.6 -1,-4.4 -1.1,-5.2 -2.2,-8 -1.1,-2.8 -2,-6 -4.4,-8.9 -2.3,-3 -6.3,-6.3 -9.6,-8.7 -3.3,-2.4 -7.2,-4.3 -10.1,-5.7 -3,-1.4 -3.6,-1.6 -7.8,-2.4 -4.2,-0.8 -14.7,-2 -17.6,-2.3 z"
       class="g1_14"
       id="path67" />
    <path
       d="m 742.17093,732.17993 c -0.6,-3.1 -2.7,-14.2 -3.6,-18.6 -1,-4.4 -1.1,-5.2 -2.2,-8 -1.1,-2.8 -2,-6 -4.4,-8.9 -2.3,-3 -6.3,-6.3 -9.6,-8.7 -3.3,-2.4 -7.2,-4.3 -10.1,-5.7 -3,-1.4 -3.6,-1.6 -7.8,-2.4 -4.2,-0.8 -14.7,-2 -17.6,-2.3"
       class="g6_14"
       id="path68" />
    <path
       fill-rule="evenodd"
       d="m 764.67093,675.87993 c -0.2,-2.2 -1.2,-8.8 -1.5,-13.5 -0.2,-4.8 -0.8,-10.4 -0.1,-15.1 0.7,-4.7 2.8,-9.7 4.3,-13 1.5,-3.3 3,-4.8 4.8,-6.9 1.7,-2.1 4.2,-4 5.8,-5.4 1.6,-1.5 2.3,-2.4 3.5,-3.4 1.2,-1 2.1,-1.8 3.7,-2.7 1.6,-0.9 4.2,-1.9 6,-2.7 1.7,-0.9 1.9,-1.6 4.3,-2.3 2.4,-0.8 7.7,-2 10,-2.5 2.4,-0.5 2.9,-0.4 4.1,-0.7 1.1,-0.2 0.8,-0.6 2.8,-0.6 2.1,-0.1 8.1,0.3 9.7,0.4 z"
       class="g1_14"
       id="path69" />
    <path
       d="m 764.67093,675.87993 c -0.2,-2.2 -1.2,-8.8 -1.5,-13.5 -0.2,-4.8 -0.8,-10.4 -0.1,-15.1 0.7,-4.7 2.8,-9.7 4.3,-13 1.5,-3.3 3,-4.8 4.8,-6.9 1.7,-2.1 4.2,-4 5.8,-5.4 1.6,-1.5 2.3,-2.4 3.5,-3.4 1.2,-1 2.1,-1.8 3.7,-2.7 1.6,-0.9 4.2,-1.9 6,-2.7 1.7,-0.9 1.9,-1.6 4.3,-2.3 2.4,-0.8 7.7,-2 10,-2.5 2.4,-0.5 2.9,-0.4 4.1,-0.7 1.1,-0.2 0.8,-0.6 2.8,-0.6 2.1,-0.1 8.1,0.3 9.7,0.4"
       class="g7_14"
       id="path70" />
    <path
       fill-rule="evenodd"
       d="m 753.47093,670.17993 c 0,-1.1 -0.1,-3.9 0.2,-6.9 0.4,-3 0.9,-7.5 1.7,-11 0.8,-3.4 1.7,-6.9 3.1,-9.9 1.3,-3 3.7,-6 5,-8.1 1.3,-2.1 1.6,-2.7 2.8,-4.3 1.3,-1.6 3,-3.7 4.9,-5.3 1.9,-1.7 4.8,-3.5 6.4,-4.6 1.6,-1.2 1.5,-1.6 3.2,-2.3 1.8,-0.8 4.7,-1.8 7.2,-2.2 2.6,-0.4 6.7,-0.3 8,-0.4 z"
       class="g1_14"
       id="path71" />
    <path
       d="m 753.47093,670.17993 c 0,-1.1 -0.1,-3.9 0.2,-6.9 0.4,-3 0.9,-7.5 1.7,-11 0.8,-3.4 1.7,-6.9 3.1,-9.9 1.3,-3 3.7,-6 5,-8.1 1.3,-2.1 1.6,-2.7 2.8,-4.3 1.3,-1.6 3,-3.7 4.9,-5.3 1.9,-1.7 4.8,-3.5 6.4,-4.6 1.6,-1.2 1.5,-1.6 3.2,-2.3 1.8,-0.8 4.7,-1.8 7.2,-2.2 2.6,-0.4 6.7,-0.3 8,-0.4"
       class="g6_14"
       id="path72" />
    <path
       fill-rule="evenodd"
       d="m 754.07093,675.07993 c -0.1,-1.9 -0.8,-7.2 -0.8,-11.2 0.1,-4.1 0.6,-9.3 1.2,-13.1 0.7,-3.7 1.2,-6 2.6,-9.2 1.5,-3.2 4.3,-7 6.1,-9.9 1.9,-2.8 3,-4.8 4.9,-7.1 1.9,-2.4 4.9,-5 6.8,-6.7 1.9,-1.7 2.9,-2.3 4.6,-3.4 1.6,-1.1 3.8,-2.3 5.3,-3.2 1.5,-1 2,-1.8 3.8,-2.5 1.7,-0.7 4.5,-1.2 6.6,-1.6 2.1,-0.4 3,-0.4 6.1,-0.5 3.1,-0.2 8.8,-0.4 12.4,-0.2 3.5,0.2 7.5,1 9,1.2 z"
       class="g1_14"
       id="path73" />
    <path
       d="m 754.07093,675.07993 c -0.1,-1.9 -0.8,-7.2 -0.8,-11.2 0.1,-4.1 0.6,-9.3 1.2,-13.1 0.7,-3.7 1.2,-6 2.6,-9.2 1.5,-3.2 4.3,-7 6.1,-9.9 1.9,-2.8 3,-4.8 4.9,-7.1 1.9,-2.4 4.9,-5 6.8,-6.7 1.9,-1.7 2.9,-2.3 4.6,-3.4 1.6,-1.1 3.8,-2.3 5.3,-3.2 1.5,-1 2,-1.8 3.8,-2.5 1.7,-0.7 4.5,-1.2 6.6,-1.6 2.1,-0.4 3,-0.4 6.1,-0.5 3.1,-0.2 8.8,-0.4 12.4,-0.2 3.5,0.2 7.5,1 9,1.2"
       class="g6_14"
       id="path74" />
    <path
       fill-rule="evenodd"
       d="m 751.67093,658.97993 c -0.1,-1 -0.5,-4.2 -0.4,-6.1 0.1,-2 0.4,-3.4 0.8,-5.6 0.4,-2.2 0.6,-4.8 1.6,-7.6 1.1,-2.7 3.3,-6.5 4.6,-8.9 1.4,-2.5 2.4,-3.9 3.7,-5.8 1.3,-2 2.4,-4 3.9,-5.7 1.5,-1.8 3.2,-3.2 5.1,-4.8 1.8,-1.6 4.2,-3.7 5.8,-4.9 1.6,-1.1 2.3,-1.3 3.8,-2.1 1.5,-0.9 3.4,-2.1 5.3,-3 1.8,-0.9 3.5,-1.7 5.9,-2.6 2.4,-0.9 5.6,-1.9 8.4,-2.7 2.9,-0.8 5.2,-1.8 8.8,-2.2 3.7,-0.4 10.9,-0.2 13.1,-0.2 z"
       class="g1_14"
       id="path75" />
    <path
       d="m 751.67093,658.97993 c -0.1,-1 -0.5,-4.2 -0.4,-6.1 0.1,-2 0.4,-3.4 0.8,-5.6 0.4,-2.2 0.6,-4.8 1.6,-7.6 1.1,-2.7 3.3,-6.5 4.6,-8.9 1.4,-2.5 2.4,-3.9 3.7,-5.8 1.3,-2 2.4,-4 3.9,-5.7 1.5,-1.8 3.2,-3.2 5.1,-4.8 1.8,-1.6 4.2,-3.7 5.8,-4.9 1.6,-1.1 2.3,-1.3 3.8,-2.1 1.5,-0.9 3.4,-2.1 5.3,-3 1.8,-0.9 3.5,-1.7 5.9,-2.6 2.4,-0.9 5.6,-1.9 8.4,-2.7 2.9,-0.8 5.2,-1.8 8.8,-2.2 3.7,-0.4 10.9,-0.2 13.1,-0.2"
       class="g6_14"
       id="path76" />
    <path
       fill-rule="evenodd"
       d="m 730.67093,576.27993 c 0.2,1.9 0.3,7.5 1.2,11.6 1,4.2 2.6,9.6 4.5,13.5 1.8,3.8 3.2,6 6.6,9.6 3.5,3.6 9.4,8.7 14.1,12.1 4.7,3.3 8.5,4.5 14,7.8 5.5,3.4 15.7,10.3 18.8,12.4 z"
       class="g1_14"
       id="path77" />
    <path
       d="m 730.67093,576.27993 c 0.2,1.9 0.3,7.5 1.2,11.6 1,4.2 2.6,9.6 4.5,13.5 1.8,3.8 3.2,6 6.6,9.6 3.5,3.6 9.4,8.7 14.1,12.1 4.7,3.3 8.5,4.5 14,7.8 5.5,3.4 15.7,10.3 18.8,12.4"
       class="g6_14"
       id="path78" />
    <path
       fill-rule="evenodd"
       d="m 783.77093,550.27993 3.9,17.6 -3.9,-0.4 -2.7,-17.6 z"
       class="g8_14"
       id="path79" />
    <path
       fill-rule="evenodd"
       d="m 777.97093,549.77993 2.7,17.4 -2.9,-0.3 -2.1,-17.5 z"
       class="g8_14"
       id="path80" />
    <path
       fill-rule="evenodd"
       d="m 772.87093,549.17993 2.4,17.3 -3,-0.3 -2.4,-17.5 z"
       class="g8_14"
       id="path81" />
    <path
       fill-rule="evenodd"
       d="m 767.17093,548.57993 2.4,17.5 -3,-0.4 -2.3,-17.5 z"
       class="g8_14"
       id="path82" />
    <path
       fill-rule="evenodd"
       d="m 763.97093,565.37993 -3,-0.2 -2.4,-17.6 2.9,0.3 z"
       class="g8_14"
       id="path83" />
    <path
       fill-rule="evenodd"
       d="m 758.17093,564.67993 -2.5,-17.4 -2.4,-0.1 2.3,17 z"
       class="g8_14"
       id="path84" />
    <path
       fill-rule="evenodd"
       d="m 752.47093,564.07993 -2.2,-17.2 -2.9,-0.3 2.3,17.4 z"
       class="g8_14"
       id="path85" />
    <path
       fill-rule="evenodd"
       d="m 746.87093,563.17993 -2.3,-17 -0.6,-0.1 2.3,17.2 z"
       class="g8_14"
       id="path86" />
    <path
       fill-rule="evenodd"
       d="m 736.07093,545.37993 2.4,17.5 -2.8,-0.4 -2.4,-17.5 z"
       class="g8_14"
       id="path87" />
    <path
       fill-rule="evenodd"
       d="m 730.47093,544.87993 2.3,17.3 -3,-0.4 -2.1,-17.4 z"
       class="g8_14"
       id="path88" />
    <path
       fill-rule="evenodd"
       d="m 724.87093,544.27993 2.3,17.4 -2.9,-0.5 -2.3,-17.3 z"
       class="g8_14"
       id="path89" />
    <path
       fill-rule="evenodd"
       d="m 719.17093,543.67993 2.5,17.3 -2.9,-0.3 -2.4,-17.3 z"
       class="g8_14"
       id="path90" />
    <path
       fill-rule="evenodd"
       d="m 713.67093,543.17993 2.2,17.2 -2.8,-0.2 -2.2,-17.5 z"
       class="g8_14"
       id="path91" />
    <path
       fill-rule="evenodd"
       d="m 708.77093,547.57993 1.4,12.4 -2.9,-0.3 -0.7,-7.4 z"
       class="g8_14"
       id="path92" />
    <path
       fill-rule="evenodd"
       d="m 812.67093,593.77993 18,1.5 0.4,2.8 -18,-1.8 z"
       class="g8_14"
       id="path93" />
    <path
       fill-rule="evenodd"
       d="m 831.37093,600.77993 -18,-1.8 0.3,2.7 18,1.7 z"
       class="g8_14"
       id="path94" />
    <path
       fill-rule="evenodd"
       d="m 832.07093,605.87993 -18,-1.7 0.4,2.7 17.8,1.5 z"
       class="g8_14"
       id="path95" />
    <path
       fill-rule="evenodd"
       d="m 832.77093,610.97993 -17.9,-1.6 0.4,2.7 17.9,1.4 z"
       class="g8_14"
       id="path96" />
    <path
       fill-rule="evenodd"
       d="m 833.47093,616.17993 -18,-1.4 0.4,2.6 18.1,1.5 z"
       class="g8_14"
       id="path97" />
    <path
       fill-rule="evenodd"
       d="m 816.27093,619.97993 0.3,2.5 18,1.5 -0.4,-2.6 z"
       class="g8_14"
       id="path98" />
    <path
       fill-rule="evenodd"
       d="m 834.87093,626.57993 -18,-1.6 0.3,1.9 18,1.7 z"
       class="g8_14"
       id="path99" />
    <path
       fill-rule="evenodd"
       d="m 838.57093,653.07993 -18,-1.7 0.3,2.6 18.2,1.5 z"
       class="g8_14"
       id="path100" />
    <path
       fill-rule="evenodd"
       d="m 839.27093,658.27993 -18,-1.7 0.3,2.7 18.1,1.7 z"
       class="g8_14"
       id="path101" />
    <path
       fill-rule="evenodd"
       d="m 840.07093,663.47993 -18.1,-1.7 0.3,2.6 18.1,1.4 z"
       class="g8_14"
       id="path102" />
    <path
       fill-rule="evenodd"
       d="m 840.77093,668.47993 -18.2,-1.6 0.4,2.4 18.1,1.5 z"
       class="g8_14"
       id="path103" />
    <path
       fill-rule="evenodd"
       d="m 841.57093,673.67993 -18.4,-1.6 0.5,2.5 18.1,1.7 z"
       class="g8_14"
       id="path104" />
    <path
       fill-rule="evenodd"
       d="m 842.17093,678.77993 -18.1,-1.6 0.4,2.7 18,1.5 z"
       class="g8_14"
       id="path105" />
    <path
       fill-rule="evenodd"
       d="m 842.87093,684.07993 -18.1,-1.7 0.3,2.5 18.1,1.7 z"
       class="g8_14"
       id="path106" />
    <path
       fill-rule="evenodd"
       d="m 843.67093,689.37993 -18.1,-1.7 0.2,2.6 18.2,1.7 z"
       class="g8_14"
       id="path107" />
    <path
       fill-rule="evenodd"
       d="m 844.17093,694.47993 -18,-1.7 0.3,2.7 5.5,0.5 12.2,-0.7 z"
       class="g8_14"
       id="path108" />
    <path
       fill-rule="evenodd"
       d="m 692.87093,572.37993 -4.9,-0.4 -5,1.9 10,1.1 z"
       class="g8_14"
       id="path109" />
    <path
       fill-rule="evenodd"
       d="m 693.47093,577.47993 -16.2,-1.5 -2.6,0.9 0.7,1.7 18.5,1.6 z"
       class="g8_14"
       id="path110" />
    <path
       fill-rule="evenodd"
       d="m 694.27093,582.77993 -18.9,-1.8 0.3,2.8 19.1,1.5 z"
       class="g8_14"
       id="path111" />
    <path
       fill-rule="evenodd"
       d="m 694.97093,587.87993 -18.9,-1.6 0.4,2.5 18.9,1.8 z"
       class="g8_14"
       id="path112" />
    <path
       fill-rule="evenodd"
       d="m 695.77093,593.37993 -19,-2 0.4,2.6 19,1.7 z"
       class="g8_14"
       id="path113" />
    <path
       fill-rule="evenodd"
       d="m 696.47093,598.67993 -19,-2.1 0.5,2.9 19,1.6 z"
       class="g8_14"
       id="path114" />
    <path
       fill-rule="evenodd"
       d="m 697.27093,603.67993 -19,-1.8 0.5,2.5 18.9,1.8 z"
       class="g8_14"
       id="path115" />
    <path
       fill-rule="evenodd"
       d="m 697.97093,608.87993 -19,-1.8 0.4,2.6 19.2,1.7 z"
       class="g8_14"
       id="path116" />
    <path
       fill-rule="evenodd"
       d="m 698.67093,614.07993 -18.9,-2 0.3,2.8 19.2,1.7 z"
       class="g8_14"
       id="path117" />
    <path
       fill-rule="evenodd"
       d="m 699.57093,619.37993 -19.2,-2.1 0.4,3 19.1,1.6 z"
       class="g8_14"
       id="path118" />
    <path
       fill-rule="evenodd"
       d="m 703.67093,648.67993 -19.1,-2.2 0.6,3 18.7,1.8 z"
       class="g8_14"
       id="path119" />
    <path
       fill-rule="evenodd"
       d="m 704.57093,653.77993 -19.1,-1.9 0.4,2.9 19,1.7 z"
       class="g8_14"
       id="path120" />
    <path
       fill-rule="evenodd"
       d="m 705.27093,658.97993 -19,-1.7 0.5,2.6 18.9,1.9 z"
       class="g8_14"
       id="path121" />
    <path
       fill-rule="evenodd"
       d="m 706.07093,664.27993 -19,-2 0.3,2.8 19.1,1.9 z"
       class="g8_14"
       id="path122" />
    <path
       fill-rule="evenodd"
       d="m 706.77093,669.47993 -19.2,-1.9 0.5,2.7 19,1.9 z"
       class="g8_14"
       id="path123" />
    <path
       fill-rule="evenodd"
       d="m 707.57093,674.67993 -19.2,-1.8 0.3,2.6 19.2,1.9 z"
       class="g8_14"
       id="path124" />
    <path
       fill-rule="evenodd"
       d="m 738.27093,704.37993 3.1,18.2 2.9,0.2 -2.5,-18.1 z"
       class="g8_14"
       id="path125" />
    <path
       fill-rule="evenodd"
       d="m 744.57093,705.07993 2.5,18 3,0.3 -2.6,-17.9 z"
       class="g8_14"
       id="path126" />
    <path
       fill-rule="evenodd"
       d="m 752.97093,723.77993 -2.8,-18.1 3.2,0.4 2.3,17.9 z"
       class="g8_14"
       id="path127" />
    <path
       fill-rule="evenodd"
       d="m 755.97093,706.37993 2.5,18 2.8,0.2 -2.5,-17.8 z"
       class="g8_14"
       id="path128" />
    <path
       fill-rule="evenodd"
       d="m 761.47093,707.07993 2.6,17.9 2.8,0.3 -2.5,-17.9 z"
       class="g8_14"
       id="path129" />
    <path
       fill-rule="evenodd"
       d="m 767.17093,707.77993 2.7,17.8 1.6,0.1 -2.6,-17.6 z"
       class="g8_14"
       id="path130" />
    <path
       fill-rule="evenodd"
       d="m 775.37093,708.67993 2.6,17.6 2.7,0.3 -2.5,-17.5 z"
       class="g8_14"
       id="path131" />
    <path
       fill-rule="evenodd"
       d="m 781.07093,709.37993 2.4,17.6 2.8,0.3 -2.4,-17.5 z"
       class="g8_14"
       id="path132" />
    <path
       fill-rule="evenodd"
       d="m 786.97093,710.17993 2.1,17.3 3,0.4 -2.5,-17.6 z"
       class="g8_14"
       id="path133" />
    <path
       fill-rule="evenodd"
       d="m 792.37093,710.67993 2.6,17.5 2.7,0.3 -2.4,-17.4 z"
       class="g8_14"
       id="path134" />
    <path
       fill-rule="evenodd"
       d="m 797.97093,711.37993 1.6,11.7 0.8,5.7 2.7,-2.3 -2.2,-14.9 z"
       class="g8_14"
       id="path135" />
    <path
       fill-rule="evenodd"
       d="m 803.77093,711.97993 0.9,8.2 h 1.7 l -0.8,-7.8 z"
       class="g8_14"
       id="path136" />
    <path
       fill-rule="evenodd"
       d="m 636.97093,610.47993 231.6,21.4 z"
       class="g1_14"
       id="path137" />
    <path
       d="m 636.97093,610.47993 231.6,21.4"
       class="g5_14"
       id="path138" />
    <path
       fill-rule="evenodd"
       d="m 675.07093,613.77993 c 3.7,0.4 16.5,1.6 22,2.3 5.5,0.8 7.4,1.3 10.9,2.1 3.6,0.7 6.3,1.5 10.2,2.6 4,1 9.7,2.8 13.6,3.9 3.8,1 5.9,1 9.5,2.4 3.5,1.4 7.4,3.4 11.9,6.1 4.5,2.8 11.4,7.6 15,10.5 3.7,2.8 4.9,4.3 6.8,6.6 2,2.3 3,4.3 4.9,7.2 1.9,2.9 5,6.8 6.8,10.4 1.7,3.6 2.4,6.9 3.6,11.1 1.2,4.3 3,11.9 3.6,14.3 z"
       class="g1_14"
       id="path139" />
    <path
       d="m 675.07093,613.77993 c 3.7,0.4 16.5,1.6 22,2.3 5.5,0.8 7.4,1.3 10.9,2.1 3.6,0.7 6.3,1.5 10.2,2.6 4,1 9.7,2.8 13.6,3.9 3.8,1 5.9,1 9.5,2.4 3.5,1.4 7.4,3.4 11.9,6.1 4.5,2.8 11.4,7.6 15,10.5 3.7,2.8 4.9,4.3 6.8,6.6 2,2.3 3,4.3 4.9,7.2 1.9,2.9 5,6.8 6.8,10.4 1.7,3.6 2.4,6.9 3.6,11.1 1.2,4.3 3,11.9 3.6,14.3"
       class="g6_14"
       id="path140" />
    <path
       fill-rule="evenodd"
       d="m 636.97093,599.97993 231.4,22 z"
       class="g1_14"
       id="path141" />
    <path
       d="m 636.97093,599.97993 231.4,22"
       class="g5_14"
       id="path142" />
    <path
       fill-rule="evenodd"
       d="m 636.97093,589.37993 231,22.3 z"
       class="g1_14"
       id="path143" />
    <path
       d="m 636.97093,589.37993 231,22.3"
       class="g5_14"
       id="path144" />
    <path
       fill-rule="evenodd"
       d="m 726.47093,543.27993 c 0.1,0.9 0.6,3.4 0.4,5.2 -0.2,1.8 -1.1,3.8 -1.8,5.7 -0.6,1.9 -1.3,4 -2.1,5.8 -0.8,1.8 -1.7,3.5 -2.6,5 -0.9,1.5 -1.3,2.3 -2.9,4 -1.6,1.6 -4.6,4.2 -6.7,6.1 -2.2,1.8 -4.1,3.5 -6.3,5 -2.2,1.5 -4.3,2.6 -6.9,3.9 -2.6,1.3 -5.8,2.9 -8.8,4.1 -3.1,1.2 -6.8,2.4 -9.5,3.1 -2.7,0.7 -3.4,0.7 -6.5,0.8 -3.1,0.1 -10.1,-0.1 -12.1,-0.1 z"
       class="g1_14"
       id="path145" />
    <path
       d="m 726.47093,543.27993 c 0.1,0.9 0.6,3.4 0.4,5.2 -0.2,1.8 -1.1,3.8 -1.8,5.7 -0.6,1.9 -1.3,4 -2.1,5.8 -0.8,1.8 -1.7,3.5 -2.6,5 -0.9,1.5 -1.3,2.3 -2.9,4 -1.6,1.6 -4.6,4.2 -6.7,6.1 -2.2,1.8 -4.1,3.5 -6.3,5 -2.2,1.5 -4.3,2.6 -6.9,3.9 -2.6,1.3 -5.8,2.9 -8.8,4.1 -3.1,1.2 -6.8,2.4 -9.5,3.1 -2.7,0.7 -3.4,0.7 -6.5,0.8 -3.1,0.1 -10.1,-0.1 -12.1,-0.1"
       class="g6_14"
       id="path146" />
    <path
       fill-rule="evenodd"
       d="m 715.77093,540.77993 c 0,0.5 0.8,1.2 0.2,3.2 -0.5,2.1 -1.7,6.3 -3.3,9.1 -1.7,2.8 -4.4,5.4 -6.5,7.7 -2.2,2.4 -3.8,4.4 -6.6,6.4 -2.7,2 -6.6,4.1 -9.9,5.7 -3.2,1.6 -6.6,2.8 -9.6,3.7 -3,0.8 -5.7,1.2 -8.2,1.6 -2.6,0.3 -4.9,0.4 -7.2,0.4 -2.3,0 -5.6,-0.2 -6.7,-0.3 z"
       class="g1_14"
       id="path147" />
    <path
       d="m 715.77093,540.77993 c 0,0.5 0.8,1.2 0.2,3.2 -0.5,2.1 -1.7,6.3 -3.3,9.1 -1.7,2.8 -4.4,5.4 -6.5,7.7 -2.2,2.4 -3.8,4.4 -6.6,6.4 -2.7,2 -6.6,4.1 -9.9,5.7 -3.2,1.6 -6.6,2.8 -9.6,3.7 -3,0.8 -5.7,1.2 -8.2,1.6 -2.6,0.3 -4.9,0.4 -7.2,0.4 -2.3,0 -5.6,-0.2 -6.7,-0.3"
       class="g6_14"
       id="path148" />
    <path
       fill-rule="evenodd"
       d="m 636.57093,641.47993 c 5.8,0.6 24.6,2.5 35,3.5 10.3,1.1 21.2,2.1 27.1,2.7 5.9,0.7 -4.2,-0.9 8.1,1.3 12.3,2.1 48.7,8.4 65.6,11.5 17,3.1 30.2,6 36.2,7.2 z"
       class="g1_14"
       id="path149" />
    <path
       d="m 636.57093,641.47993 c 5.8,0.6 24.6,2.5 35,3.5 10.3,1.1 21.2,2.1 27.1,2.7 5.9,0.7 -4.2,-0.9 8.1,1.3 12.3,2.1 48.7,8.4 65.6,11.5 17,3.1 30.2,6 36.2,7.2"
       class="g5_14"
       id="path150" />
    <path
       fill-rule="evenodd"
       d="m 654.07093,653.17993 c 2.6,0.2 6.3,0.4 15.4,1.6 9.2,1.2 30.5,4.3 39.6,5.7 9.1,1.4 10,1.6 15.1,2.6 5.1,0.9 9.9,1.9 15.7,2.9 5.9,1.1 11.8,2.1 19.4,3.4 7.6,1.3 19.8,3.4 26.4,4.4 6.6,0.9 1.6,0.1 13.2,1.5 11.5,1.4 46.7,5.7 56.1,6.9 z"
       class="g1_14"
       id="path151" />
    <path
       d="m 654.07093,653.17993 c 2.6,0.2 6.3,0.4 15.4,1.6 9.2,1.2 30.5,4.3 39.6,5.7 9.1,1.4 10,1.6 15.1,2.6 5.1,0.9 9.9,1.9 15.7,2.9 5.9,1.1 11.8,2.1 19.4,3.4 7.6,1.3 19.8,3.4 26.4,4.4 6.6,0.9 1.6,0.1 13.2,1.5 11.5,1.4 46.7,5.7 56.1,6.9"
       class="g6_14"
       id="path152" />
    <path
       fill-rule="evenodd"
       d="m 741.77093,531.57993 c 1,7.1 4.8,33.8 6.1,42.7 1.3,8.9 1,6.4 1.5,10.7 0.5,4.3 1.6,10.2 1.8,15 0.1,4.8 -0.1,9.3 -1.1,13.7 -1,4.4 -3.3,9 -4.9,12.6 -1.6,3.7 -3.1,6.7 -4.8,9.4 -1.6,2.6 -3.1,4.1 -5,6.5 -1.8,2.3 -4.2,5.5 -6.2,7.7 -2,2.2 -2.6,3.3 -5.6,5.4 -2.9,2.2 -8.6,5.6 -12.2,7.5 -3.5,1.9 -4.9,3.2 -9,3.8 -4.2,0.5 -13,-0.4 -15.6,-0.4 z"
       class="g1_14"
       id="path153" />
    <path
       d="m 741.77093,531.57993 c 1,7.1 4.8,33.8 6.1,42.7 1.3,8.9 1,6.4 1.5,10.7 0.5,4.3 1.6,10.2 1.8,15 0.1,4.8 -0.1,9.3 -1.1,13.7 -1,4.4 -3.3,9 -4.9,12.6 -1.6,3.7 -3.1,6.7 -4.8,9.4 -1.6,2.6 -3.1,4.1 -5,6.5 -1.8,2.3 -4.2,5.5 -6.2,7.7 -2,2.2 -2.6,3.3 -5.6,5.4 -2.9,2.2 -8.6,5.6 -12.2,7.5 -3.5,1.9 -4.9,3.2 -9,3.8 -4.2,0.5 -13,-0.4 -15.6,-0.4"
       class="g5_14"
       id="path154" />
    <path
       fill-rule="evenodd"
       d="m 678.97093,676.27993 c 1.9,0.2 6.6,1.2 11.4,1.1 4.8,-0.1 12.9,-0.5 17.5,-1.6 4.6,-1.2 6.9,-3.6 9.9,-5.3 3.1,-1.7 6.4,-3.3 8.4,-4.7 2,-1.5 2.2,-2.4 3.8,-4 1.7,-1.6 3.7,-2.9 6.1,-5.5 2.4,-2.7 5.2,-5.6 8.3,-10.3 3,-4.7 7.7,-12.9 10,-17.9 2.3,-5.1 3.1,-9.3 3.9,-12.5 0.9,-3.2 0.9,-4 1.3,-6.5 0.3,-2.5 0.5,-7.2 0.6,-8.7 z"
       class="g1_14"
       id="path155" />
    <path
       d="m 678.97093,676.27993 c 1.9,0.2 6.6,1.2 11.4,1.1 4.8,-0.1 12.9,-0.5 17.5,-1.6 4.6,-1.2 6.9,-3.6 9.9,-5.3 3.1,-1.7 6.4,-3.3 8.4,-4.7 2,-1.5 2.2,-2.4 3.8,-4 1.7,-1.6 3.7,-2.9 6.1,-5.5 2.4,-2.7 5.2,-5.6 8.3,-10.3 3,-4.7 7.7,-12.9 10,-17.9 2.3,-5.1 3.1,-9.3 3.9,-12.5 0.9,-3.2 0.9,-4 1.3,-6.5 0.3,-2.5 0.5,-7.2 0.6,-8.7"
       class="g6_14"
       id="path156" />
    <path
       fill-rule="evenodd"
       d="m 680.77093,665.57993 c 2.5,0.3 10.6,1 14.9,1.7 4.4,0.6 7.5,1.2 11.3,2.4 3.7,1.2 8,3.2 11.2,4.6 3.3,1.4 6,2.8 8.3,4.1 2.2,1.2 3.4,2 5.1,3.5 1.8,1.5 3.9,3.5 5.6,5.6 1.7,2 3.4,4.2 4.9,6.7 1.4,2.6 2.7,4.6 3.9,8.4 1.3,3.8 2.9,12 3.5,14.4 z"
       class="g1_14"
       id="path157" />
    <path
       d="m 680.77093,665.57993 c 2.5,0.3 10.6,1 14.9,1.7 4.4,0.6 7.5,1.2 11.3,2.4 3.7,1.2 8,3.2 11.2,4.6 3.3,1.4 6,2.8 8.3,4.1 2.2,1.2 3.4,2 5.1,3.5 1.8,1.5 3.9,3.5 5.6,5.6 1.7,2 3.4,4.2 4.9,6.7 1.4,2.6 2.7,4.6 3.9,8.4 1.3,3.8 2.9,12 3.5,14.4"
       class="g5_14"
       id="path158" />
    <path
       fill-rule="evenodd"
       d="m 736.07093,531.57993 26.3,208.2 z"
       class="g1_14"
       id="path159" />
    <path
       d="m 736.07093,531.57993 26.3,208.2"
       class="g5_14"
       id="path160" />
    <path
       fill-rule="evenodd"
       d="m 773.37093,739.77993 c -1.4,-10.1 -6.9,-48.8 -8.4,-60.8 -1.5,-11.9 -1.6,-6.4 -0.8,-11.1 0.7,-4.6 3.7,-12.6 5.3,-16.8 1.6,-4.1 2.8,-5.9 4.3,-8.1 1.5,-2.3 3.4,-3.7 4.9,-5.3 1.5,-1.6 2.1,-2.8 4.2,-4.5 2.1,-1.7 5.9,-4.4 8.4,-5.7 2.5,-1.3 3.7,-1.8 6.6,-2 3,-0.2 9.3,0.9 11.1,1.1 z"
       class="g1_14"
       id="path161" />
    <path
       d="m 773.37093,739.77993 c -1.4,-10.1 -6.9,-48.8 -8.4,-60.8 -1.5,-11.9 -1.6,-6.4 -0.8,-11.1 0.7,-4.6 3.7,-12.6 5.3,-16.8 1.6,-4.1 2.8,-5.9 4.3,-8.1 1.5,-2.3 3.4,-3.7 4.9,-5.3 1.5,-1.6 2.1,-2.8 4.2,-4.5 2.1,-1.7 5.9,-4.4 8.4,-5.7 2.5,-1.3 3.7,-1.8 6.6,-2 3,-0.2 9.3,0.9 11.1,1.1"
       class="g7_14"
       id="path162" />
    <path
       fill-rule="evenodd"
       d="m 750.37093,531.77993 29.9,208.5 z"
       class="g1_14"
       id="path163" />
    <path
       d="m 750.37093,531.77993 29.9,208.5"
       class="g5_14"
       id="path164" />
    <path
       fill-rule="evenodd"
       d="m 779.87093,737.07993 c -0.1,-0.6 -0.9,-1.2 -0.7,-3.6 0.2,-2.3 0.7,-6.9 2.1,-10.8 1.3,-3.9 3.9,-9.2 5.9,-12.6 2,-3.4 4,-5.7 6,-8 1.9,-2.3 3.4,-4 5.7,-6 2.3,-2 5.1,-4.2 8.2,-5.9 3.2,-1.8 7.8,-3.4 10.9,-4.5 3.1,-1.1 4.1,-1.5 8,-2 3.9,-0.6 10.6,-1.2 15.2,-1.4 4.6,-0.2 10.4,0 12.4,0 z"
       class="g1_14"
       id="path165" />
    <path
       d="m 779.87093,737.07993 c -0.1,-0.6 -0.9,-1.2 -0.7,-3.6 0.2,-2.3 0.7,-6.9 2.1,-10.8 1.3,-3.9 3.9,-9.2 5.9,-12.6 2,-3.4 4,-5.7 6,-8 1.9,-2.3 3.4,-4 5.7,-6 2.3,-2 5.1,-4.2 8.2,-5.9 3.2,-1.8 7.8,-3.4 10.9,-4.5 3.1,-1.1 4.1,-1.5 8,-2 3.9,-0.6 10.6,-1.2 15.2,-1.4 4.6,-0.2 10.4,0 12.4,0"
       class="g5_14"
       id="path166" />
    <path
       fill-rule="evenodd"
       d="m 788.57093,727.67993 c 0,-0.8 -0.4,-1.6 0.4,-4.7 0.8,-3.2 2.4,-10.2 4.5,-14.1 2,-4 5.1,-6.9 7.7,-9.8 2.6,-2.9 5.5,-5.8 8,-7.6 2.5,-1.8 4.3,-2.1 7.2,-3.4 2.9,-1.2 6.8,-3 10.3,-3.9 3.4,-1 6.9,-1.5 10.3,-1.8 3.4,-0.3 6.3,0 10,0 3.7,0.1 9.9,0.3 11.9,0.3 z"
       class="g1_14"
       id="path167" />
    <path
       d="m 788.57093,727.67993 c 0,-0.8 -0.4,-1.6 0.4,-4.7 0.8,-3.2 2.4,-10.2 4.5,-14.1 2,-4 5.1,-6.9 7.7,-9.8 2.6,-2.9 5.5,-5.8 8,-7.6 2.5,-1.8 4.3,-2.1 7.2,-3.4 2.9,-1.2 6.8,-3 10.3,-3.9 3.4,-1 6.9,-1.5 10.3,-1.8 3.4,-0.3 6.3,0 10,0 3.7,0.1 9.9,0.3 11.9,0.3"
       class="g7_14"
       id="path168" />
    <path
       fill-rule="evenodd"
       d="m 790.17093,737.87993 c -0.2,-0.7 -1.2,-2.1 -1.1,-3.9 0.1,-1.9 0.2,-3.7 1.6,-7 1.5,-3.2 4.4,-9.1 7,-12.6 2.5,-3.4 4.9,-5.5 8.4,-8.1 3.4,-2.6 8.6,-5.7 12.3,-7.3 3.7,-1.6 6.4,-1.9 9.6,-2.3 3.3,-0.5 8.2,-0.5 9.8,-0.6 z"
       class="g1_14"
       id="path169" />
    <path
       d="m 790.17093,737.87993 c -0.2,-0.7 -1.2,-2.1 -1.1,-3.9 0.1,-1.9 0.2,-3.7 1.6,-7 1.5,-3.2 4.4,-9.1 7,-12.6 2.5,-3.4 4.9,-5.5 8.4,-8.1 3.4,-2.6 8.6,-5.7 12.3,-7.3 3.7,-1.6 6.4,-1.9 9.6,-2.3 3.3,-0.5 8.2,-0.5 9.8,-0.6"
       class="g7_14"
       id="path170" />
    <path
       fill-rule="evenodd"
       d="m 862.17093,696.07993 c -1.4,-0.2 -4.1,-1.2 -8.3,-1.2 -4.2,0 -12.4,0.8 -16.8,1.1 -4.4,0.3 -6.7,0.1 -9.6,0.8 -2.9,0.7 -4.9,2.1 -7.6,3.5 -2.7,1.5 -6.2,2.9 -8.7,5 -2.5,2.2 -4.9,5.5 -6.5,7.9 -1.6,2.4 -2.3,4.8 -3.2,6.7 -0.9,1.8 -1.8,2.9 -2.2,4.6 -0.4,1.7 -0.2,4.6 -0.3,5.5 z"
       class="g1_14"
       id="path171" />
    <path
       d="m 862.17093,696.07993 c -1.4,-0.2 -4.1,-1.2 -8.3,-1.2 -4.2,0 -12.4,0.8 -16.8,1.1 -4.4,0.3 -6.7,0.1 -9.6,0.8 -2.9,0.7 -4.9,2.1 -7.6,3.5 -2.7,1.5 -6.2,2.9 -8.7,5 -2.5,2.2 -4.9,5.5 -6.5,7.9 -1.6,2.4 -2.3,4.8 -3.2,6.7 -0.9,1.8 -1.8,2.9 -2.2,4.6 -0.4,1.7 -0.2,4.6 -0.3,5.5"
       class="g5_14"
       id="path172" />
    <path
       fill-rule="evenodd"
       d="m 770.97093,531.47993 29.4,207.9 z"
       class="g1_14"
       id="path173" />
    <path
       d="m 770.97093,531.47993 29.4,207.9"
       class="g5_14"
       id="path174" />
    <path
       fill-rule="evenodd"
       d="m 729.57093,568.77993 c 0.1,1.3 0.2,5.2 0.8,7.9 0.6,2.7 1.3,4.7 2.9,8.1 1.5,3.5 3.9,8.7 6.5,12.6 2.6,4 5.2,6.7 9.1,11 3.8,4.4 7.5,9.5 14.1,15.2 6.6,5.7 19.6,14.8 25.4,18.8 5.9,4.1 6,3.6 9.7,5.6 3.6,2 9,4.5 12.4,6.2 3.5,1.8 6.5,3.3 8.2,4.1 1.7,0.8 1.3,0.4 2,0.5 0.7,0.2 0.8,0.4 2.2,0.6 1.4,0.2 -1.5,0 6.1,0.7 7.6,0.6 33,2.7 39.6,3.2 z"
       class="g1_14"
       id="path175" />
    <path
       d="m 729.57093,568.77993 c 0.1,1.3 0.2,5.2 0.8,7.9 0.6,2.7 1.3,4.7 2.9,8.1 1.5,3.5 3.9,8.7 6.5,12.6 2.6,4 5.2,6.7 9.1,11 3.8,4.4 7.5,9.5 14.1,15.2 6.6,5.7 19.6,14.8 25.4,18.8 5.9,4.1 6,3.6 9.7,5.6 3.6,2 9,4.5 12.4,6.2 3.5,1.8 6.5,3.3 8.2,4.1 1.7,0.8 1.3,0.4 2,0.5 0.7,0.2 0.8,0.4 2.2,0.6 1.4,0.2 -1.5,0 6.1,0.7 7.6,0.6 33,2.7 39.6,3.2"
       class="g6_14"
       id="path176" />
    <path
       fill-rule="evenodd"
       d="m 741.77093,576.17993 c 0.3,1.3 1.1,5.5 2,8.1 1,2.5 2.1,4.7 3.7,7.2 1.6,2.5 4.2,5.6 6,7.7 1.7,2.1 2.9,3.3 4.6,5.2 1.6,1.8 3.1,3.6 5.3,5.9 2.2,2.3 5,5.2 7.8,7.7 2.8,2.6 6.1,5.4 9.1,7.8 3,2.4 5.4,4.4 8.7,6.6 3.3,2.2 6,4 11.1,6.7 5.1,2.6 14.9,7.2 19.7,9.2 4.7,2 6.6,2.3 8.9,2.8 2.3,0.5 -2,-0.5 4.6,0.2 6.7,0.6 29.4,3.1 35.3,3.8 z"
       class="g1_14"
       id="path177" />
    <path
       d="m 741.77093,576.17993 c 0.3,1.3 1.1,5.5 2,8.1 1,2.5 2.1,4.7 3.7,7.2 1.6,2.5 4.2,5.6 6,7.7 1.7,2.1 2.9,3.3 4.6,5.2 1.6,1.8 3.1,3.6 5.3,5.9 2.2,2.3 5,5.2 7.8,7.7 2.8,2.6 6.1,5.4 9.1,7.8 3,2.4 5.4,4.4 8.7,6.6 3.3,2.2 6,4 11.1,6.7 5.1,2.6 14.9,7.2 19.7,9.2 4.7,2 6.6,2.3 8.9,2.8 2.3,0.5 -2,-0.5 4.6,0.2 6.7,0.6 29.4,3.1 35.3,3.8"
       class="g6_14"
       id="path178" />
    <path
       fill-rule="evenodd"
       d="m 781.37093,531.67993 c 0.2,2.2 0.4,7.4 1.3,13.1 1,5.8 2.7,15.2 4.4,21.6 1.7,6.3 4.2,13 5.7,16.5 1.5,3.6 1.4,3.4 3.2,4.9 1.9,1.6 5,3.2 8,4.5 3.1,1.2 7.5,2.2 10.3,3 2.9,0.7 5.8,1.2 6.9,1.5 z"
       class="g1_14"
       id="path179" />
    <path
       d="m 781.37093,531.67993 c 0.2,2.2 0.4,7.4 1.3,13.1 1,5.8 2.7,15.2 4.4,21.6 1.7,6.3 4.2,13 5.7,16.5 1.5,3.6 1.4,3.4 3.2,4.9 1.9,1.6 5,3.2 8,4.5 3.1,1.2 7.5,2.2 10.3,3 2.9,0.7 5.8,1.2 6.9,1.5"
       class="g6_14"
       id="path180" />
    <path
       fill-rule="evenodd"
       d="m 636.97093,576.17993 231.2,25.7 z"
       class="g1_14"
       id="path181" />
    <path
       d="m 636.97093,576.17993 231.2,25.7"
       class="g5_14"
       id="path182" />
    <path
       fill-rule="evenodd"
       d="m 764.37093,675.77993 c -0.1,-1.4 -0.8,-5.7 -0.8,-8.3 0.1,-2.6 0.3,-3.9 1.1,-7.4 0.9,-3.6 2.6,-10.6 3.9,-13.9 1.4,-3.2 2.3,-3.1 4.2,-5.7 2,-2.6 4.7,-7 7.4,-9.9 2.7,-2.8 5.8,-5.5 8.8,-7.3 2.9,-1.8 6.1,-2.5 8.9,-3.4 2.8,-0.8 4.5,-1.4 7.9,-1.9 3.4,-0.4 10.4,-0.6 12.5,-0.8 z"
       class="g1_14"
       id="path183" />
    <path
       d="m 764.37093,675.77993 c -0.1,-1.4 -0.8,-5.7 -0.8,-8.3 0.1,-2.6 0.3,-3.9 1.1,-7.4 0.9,-3.6 2.6,-10.6 3.9,-13.9 1.4,-3.2 2.3,-3.1 4.2,-5.7 2,-2.6 4.7,-7 7.4,-9.9 2.7,-2.8 5.8,-5.5 8.8,-7.3 2.9,-1.8 6.1,-2.5 8.9,-3.4 2.8,-0.8 4.5,-1.4 7.9,-1.9 3.4,-0.4 10.4,-0.6 12.5,-0.8"
       class="g7_14"
       id="path184" />
    <path
       fill-rule="evenodd"
       d="m 743.27093,541.27993 41.8,4.3 2.9,18.2 5.4,9.8 6.5,7.6 3.6,3.1 4.1,2.6 6.4,2.7 7.6,2.3 15.1,1.5 3.5,36.3 -22.9,-2.6 h -11.9 l -3.1,2 -1.6,3.3 -0.2,3.8 0.6,2 3,2.6 7.5,4.1 10.2,3.4 7.7,2.1 13.8,1.9 5.3,44.7 -4.1,-0.3 -11.4,2.7 -9.3,4.5 -7.2,5 -5.2,6.2 -3.4,5.1 -2.6,5 -0.7,4 -0.7,3.4 0.5,-0.5 -25.9,-2.2 -6.2,-36.2 -1,-1.7 -1.8,-0.2 -1.2,0.7 -0.8,1.5 4.3,36 -31.5,-2.7 -1.4,-9.3 -1.5,-7.1 -3.7,-7.2 -5.6,-6.2 -8.5,-6 -6.5,-4.1 -7.6,-3 -14.9,-1.9 -9.2,-1.2 -4.8,-35.9 27.3,2.3 5.7,-0.3 4,-2.2 2.2,-3.2 0.8,-2.9 -0.5,-3.4 -2.7,-3.4 -12.1,-4.9 -11.6,-2.9 -16.9,-2.9 -6.2,-43.5 5.2,-0.8 8.6,-2.5 6.9,-3.9 6.7,-4.8 6.2,-5.7 4.1,-6.4 3.6,-6.3 1.4,-4.9 0.5,-5.5 27.2,3.1 5.7,37.1 1.8,1.4 h 2.3 l 0.9,-1.4 0.3,-1.5 z"
       class="g9_14"
       id="path185" />
    <path
       fill-rule="evenodd"
       d="m 709.87093,536.77993 27.4,3.3 z"
       class="g1_14"
       id="path186" />
    <path
       d="m 709.87093,536.77993 27.4,3.3"
       class="ga_14"
       id="path187" />
    <path
       fill-rule="evenodd"
       d="m 743.77093,540.97993 41.2,5 z"
       class="g1_14"
       id="path188" />
    <path
       d="m 743.77093,540.97993 41.2,5"
       class="ga_14"
       id="path189" />
    <path
       fill-rule="evenodd"
       d="m 740.97093,727.57993 31.2,2.8 z"
       class="g1_14"
       id="path190" />
    <path
       d="m 740.97093,727.57993 31.2,2.8"
       class="ga_14"
       id="path191" />
    <path
       fill-rule="evenodd"
       d="m 779.37093,729.97993 24.8,2.3 z"
       class="g1_14"
       id="path192" />
    <path
       d="m 779.37093,729.97993 24.8,2.3"
       class="ga_14"
       id="path193" />
    <path
       fill-rule="evenodd"
       d="m 843.17093,652.17993 5.6,45.2 z"
       class="g1_14"
       id="path194" />
    <path
       d="m 843.17093,652.17993 5.6,45.2"
       class="ga_14"
       id="path195" />
    <path
       fill-rule="evenodd"
       d="m 836.17093,593.27993 4.6,36.3 z"
       class="g1_14"
       id="path196" />
    <path
       d="m 836.17093,593.27993 4.6,36.3"
       class="ga_14"
       id="path197" />
    <path
       fill-rule="evenodd"
       d="m 666.57093,577.27993 6.3,45.4 z"
       class="g1_14"
       id="path198" />
    <path
       d="m 666.57093,577.27993 6.3,45.4"
       class="ga_14"
       id="path199" />
    <path
       fill-rule="evenodd"
       d="m 676.77093,644.87993 4.9,36.6 z"
       class="g1_14"
       id="path200" />
    <path
       d="m 676.77093,644.87993 4.9,36.6"
       class="ga_14"
       id="path201" />
    <path
       fill-rule="evenodd"
       d="m 710.07093,536.47993 c -0.2,1.2 -0.7,5.2 -1.4,7.5 -0.7,2.4 -1.6,4.3 -2.7,6.6 -1.1,2.3 -2.1,4.8 -3.8,7 -1.7,2.3 -4,4.5 -6.4,6.6 -2.3,2.1 -5,4.4 -7.7,6.2 -2.8,1.8 -6.3,3.4 -8.8,4.4 -2.5,1.1 -4.3,1.4 -6.4,1.9 -2.1,0.5 -5.1,0.9 -6.2,1.1 z"
       class="g1_14"
       id="path202" />
    <path
       d="m 710.07093,536.47993 c -0.2,1.2 -0.7,5.2 -1.4,7.5 -0.7,2.4 -1.6,4.3 -2.7,6.6 -1.1,2.3 -2.1,4.8 -3.8,7 -1.7,2.3 -4,4.5 -6.4,6.6 -2.3,2.1 -5,4.4 -7.7,6.2 -2.8,1.8 -6.3,3.4 -8.8,4.4 -2.5,1.1 -4.3,1.4 -6.4,1.9 -2.1,0.5 -5.1,0.9 -6.2,1.1"
       class="gb_14"
       id="path203" />
    <path
       fill-rule="evenodd"
       d="m 784.87093,545.77993 c 0.5,3 1.5,13.2 2.8,17.9 1.3,4.6 2.7,6.6 5,9.8 2.3,3.1 6.5,7 8.8,9.1 2.2,2.1 2,2 4.6,3.4 2.6,1.5 8.1,4.2 10.8,5.2 2.8,1 2.3,0.5 5.5,0.9 3.3,0.3 11.5,0.8 13.8,1 z"
       class="g1_14"
       id="path204" />
    <path
       d="m 784.87093,545.77993 c 0.5,3 1.5,13.2 2.8,17.9 1.3,4.6 2.7,6.6 5,9.8 2.3,3.1 6.5,7 8.8,9.1 2.2,2.1 2,2 4.6,3.4 2.6,1.5 8.1,4.2 10.8,5.2 2.8,1 2.3,0.5 5.5,0.9 3.3,0.3 11.5,0.8 13.8,1"
       class="gb_14"
       id="path205" />
    <path
       fill-rule="evenodd"
       d="m 673.07093,622.67993 c 3.1,0.4 13.2,1.4 18.8,2.4 5.5,1 10.6,2.3 14.4,3.6 3.8,1.3 6.6,2.7 8.3,4.1 1.7,1.4 1.9,2.3 1.9,4.2 0,1.8 -0.9,5.5 -1.9,7.2 -1.1,1.7 -2.7,2.4 -4.3,2.9 -1.7,0.5 0,0.5 -5.5,0 -5.6,-0.5 -23.3,-2.6 -27.9,-3.1 z"
       class="g1_14"
       id="path206" />
    <path
       d="m 673.07093,622.67993 c 3.1,0.4 13.2,1.4 18.8,2.4 5.5,1 10.6,2.3 14.4,3.6 3.8,1.3 6.6,2.7 8.3,4.1 1.7,1.4 1.9,2.3 1.9,4.2 0,1.8 -0.9,5.5 -1.9,7.2 -1.1,1.7 -2.7,2.4 -4.3,2.9 -1.7,0.5 0,0.5 -5.5,0 -5.6,-0.5 -23.3,-2.6 -27.9,-3.1"
       class="gb_14"
       id="path207" />
    <path
       fill-rule="evenodd"
       d="m 737.47093,540.07993 c 0.8,5.6 3.8,27.8 4.6,33.6 0.9,5.9 0.3,0.9 0.4,1.6 0.1,0.7 -0.1,1.8 0.2,2.4 0.4,0.6 1.2,1 1.9,1.2 0.6,0.2 1.4,0.2 2,0 0.6,-0.2 1.3,-0.6 1.6,-1.1 0.3,-0.5 0.2,-1.2 0.1,-2 -0.1,-0.8 0.4,3.1 -0.4,-2.7 -0.9,-5.8 -4,-26.9 -4.8,-32.2 z"
       class="g1_14"
       id="path208" />
    <path
       d="m 737.47093,540.07993 c 0.8,5.6 3.8,27.8 4.6,33.6 0.9,5.9 0.3,0.9 0.4,1.6 0.1,0.7 -0.1,1.8 0.2,2.4 0.4,0.6 1.2,1 1.9,1.2 0.6,0.2 1.4,0.2 2,0 0.6,-0.2 1.3,-0.6 1.6,-1.1 0.3,-0.5 0.2,-1.2 0.1,-2 -0.1,-0.8 0.4,3.1 -0.4,-2.7 -0.9,-5.8 -4,-26.9 -4.8,-32.2"
       class="gb_14"
       id="path209" />
    <path
       fill-rule="evenodd"
       d="m 772.07093,729.77993 c -0.8,-5.7 -5,-28.2 -4.9,-34 0.1,-5.8 3.8,-6.5 5.7,-0.8 2,5.7 4.9,29.2 5.9,35 z"
       class="g1_14"
       id="path210" />
    <path
       d="m 772.07093,729.77993 c -0.8,-5.7 -5,-28.2 -4.9,-34 0.1,-5.8 3.8,-6.5 5.7,-0.8 2,5.7 4.9,29.2 5.9,35"
       class="gb_14"
       id="path211" />
    <path
       fill-rule="evenodd"
       d="m 804.17093,731.77993 c 0,-0.1 -0.3,0.6 0.2,-0.7 0.4,-1.3 1.2,-4.3 2.3,-7.1 1.2,-2.7 2.9,-6.5 4.7,-9.2 1.7,-2.7 3.3,-4.7 5.8,-6.7 2.4,-2.1 5.9,-4.2 8.9,-5.8 3,-1.5 6.1,-2.4 9.1,-3.3 2.9,-0.9 6.5,-1.6 8.8,-2 2.2,-0.3 3.8,0 4.6,0 z"
       class="g1_14"
       id="path212" />
    <path
       d="m 804.17093,731.77993 c 0,-0.1 -0.3,0.6 0.2,-0.7 0.4,-1.3 1.2,-4.3 2.3,-7.1 1.2,-2.7 2.9,-6.5 4.7,-9.2 1.7,-2.7 3.3,-4.7 5.8,-6.7 2.4,-2.1 5.9,-4.2 8.9,-5.8 3,-1.5 6.1,-2.4 9.1,-3.3 2.9,-0.9 6.5,-1.6 8.8,-2 2.2,-0.3 3.8,0 4.6,0"
       class="gb_14"
       id="path213" />
    <path
       fill-rule="evenodd"
       d="m 843.47093,652.07993 c -2.1,-0.3 -8.4,-0.8 -12.7,-1.7 -4.3,-0.9 -9.2,-2.4 -12.9,-3.8 -3.7,-1.3 -6.6,-3 -9.4,-4.3 -2.7,-1.2 -5.7,-2 -7,-3.3 -1.3,-1.3 -0.8,-3 -0.9,-4.5 0,-1.5 -0.3,-3.2 0.5,-4.5 0.9,-1.2 2.5,-2.5 4.9,-2.9 2.5,-0.4 4.1,0.1 9.8,0.6 5.8,0.5 20.6,1.9 24.7,2.2 z"
       class="g1_14"
       id="path214" />
    <path
       d="m 843.47093,652.07993 c -2.1,-0.3 -8.4,-0.8 -12.7,-1.7 -4.3,-0.9 -9.2,-2.4 -12.9,-3.8 -3.7,-1.3 -6.6,-3 -9.4,-4.3 -2.7,-1.2 -5.7,-2 -7,-3.3 -1.3,-1.3 -0.8,-3 -0.9,-4.5 0,-1.5 -0.3,-3.2 0.5,-4.5 0.9,-1.2 2.5,-2.5 4.9,-2.9 2.5,-0.4 4.1,0.1 9.8,0.6 5.8,0.5 20.6,1.9 24.7,2.2"
       class="gb_14"
       id="path215" />
    <path
       fill-rule="evenodd"
       d="m 681.47093,681.57993 c 4,0.5 18.2,1.7 24,3 5.9,1.3 8.2,3.1 11.3,4.7 3.1,1.7 5.1,3.5 7.4,5.2 2.3,1.8 4.1,2.9 6.2,5.5 2.2,2.6 5.4,7.3 6.7,10.1 1.3,2.8 0.6,3.7 1.2,6.5 0.6,2.9 2,8.7 2.4,10.5 z"
       class="g1_14"
       id="path216" />
    <path
       d="m 681.47093,681.57993 c 4,0.5 18.2,1.7 24,3 5.9,1.3 8.2,3.1 11.3,4.7 3.1,1.7 5.1,3.5 7.4,5.2 2.3,1.8 4.1,2.9 6.2,5.5 2.2,2.6 5.4,7.3 6.7,10.1 1.3,2.8 0.6,3.7 1.2,6.5 0.6,2.9 2,8.7 2.4,10.5"
       class="gb_14"
       id="path217" />
    <path
       fill-rule="evenodd"
       d="m 871.87093,579.47993 -32.8,23.5 z"
       class="g1_14"
       id="path218" />
    <path
       d="m 871.87093,579.47993 -27.2,19.5"
       class="ga_14"
       id="path219" />
    <path
       fill-rule="evenodd"
       d="m 843.57093,597.37993 -3.2,4.6 5.4,-1.5 z"
       class="gc_14"
       id="path220" />
    <path
       fill-rule="evenodd"
       d="m 865.77093,557.17993 h 158.59997 v 44.4 H 865.77093 Z"
       class="g1_14"
       id="path221" />
    <g
       clip-path="url(#c0_14)"
       id="g222">
      <text
         x="876.07092"
         y="585.0799"
         class="s3_14"
         id="text221"><tspan
           sodipodi:role="line"
           id="tspan225"
           x="876.07092"
           y="585.0799">lanelet connection</tspan><tspan
           sodipodi:role="line"
           id="tspan226"
           x="876.07092"
           y="607.99237">boundary</tspan></text>
    </g>
    <path
       fill-rule="evenodd"
       d="m 806.87093,536.77993 -18.2,22.9 z"
       class="g1_14"
       id="path222" />
    <path
       d="m 806.87093,536.77993 -14,17.5"
       class="gb_14"
       id="path223" />
    <path
       fill-rule="evenodd"
       d="m 791.47093,553.17993 -1.8,5.2 4.7,-2.9 z"
       class="gd_14"
       id="path224" />
    <path
       fill-rule="evenodd"
       d="m 795.97093,506.77993 h 158.7 v 44.5 h -158.7 z"
       class="g1_14"
       id="path225" />
    <text
       clip-path="url(#c0_14)"
       x="798.5"
       y="536.90002"
       class="s3_14"
       id="text225"
       transform="translate(7.7709348,-2.2200738)">road_border </text>
  </g>
  <!-- Any embedded fonts defined here -->
  <style
     type="text/css"
     id="style225"><![CDATA[

@font-face {
	font-family: ArialMT_3h;
	src: url("fonts/ArialMT_3h.woff") format("woff");
}

@font-face {
	font-family: MS-PGothic_3l;
	src: url("fonts/MS-PGothic_3l.woff") format("woff");
}

]]></style>
</svg>
