<?xml version="1.0" encoding="UTF-8" standalone="no"?>
<!-- Created with Inkscape (http://www.inkscape.org/) -->

<svg
   width="102.171mm"
   height="72.058998mm"
   viewBox="0 0 102.171 72.058998"
   version="1.1"
   id="svg1"
   inkscape:version="1.3.2 (1:1.3.2+202311252150+091e20ef0f)"
   sodipodi:docname="vm-01-05_2.svg"
   xmlns:inkscape="http://www.inkscape.org/namespaces/inkscape"
   xmlns:sodipodi="http://sodipodi.sourceforge.net/DTD/sodipodi-0.dtd"
   xmlns="http://www.w3.org/2000/svg"
   xmlns:svg="http://www.w3.org/2000/svg">
  <sodipodi:namedview
     id="namedview1"
     pagecolor="#ffffff"
     bordercolor="#000000"
     borderopacity="0.25"
     inkscape:showpageshadow="2"
     inkscape:pageopacity="0.0"
     inkscape:pagecheckerboard="0"
     inkscape:deskcolor="#d1d1d1"
     inkscape:document-units="mm"
     inkscape:zoom="1.7131103"
     inkscape:cx="182.12488"
     inkscape:cy="125.21085"
     inkscape:window-width="3840"
     inkscape:window-height="2123"
     inkscape:window-x="0"
     inkscape:window-y="0"
     inkscape:window-maximized="1"
     inkscape:current-layer="layer1" />
  <defs
     id="defs1">
    <clipPath
       id="c0_13">
      <path
         d="M 0,825 V 0 h 1100 v 825 z"
         id="path2" />
    </clipPath>
  </defs>
  <g
     inkscape:label="Layer 1"
     inkscape:groupmode="layer"
     id="layer1"
     transform="translate(-56.885415,-115.35833)">
    <path
       fill-rule="evenodd"
       d="m 63.166114,134.04189 h 49.450616 v 22.03979 H 63.166114 Z"
       class="g1_13"
       id="path45"
       style="display:block;fill:#000000;fill-opacity:0;stroke-width:0.264583" />
    <g
       clip-path="url(#c0_13)"
       id="g48"
       transform="matrix(0.26458333,0,0,0.26458333,-79.514415,58.146547)"
       style="display:block">
      <text
         x="529.59998"
         y="313.10001"
         class="s2_13"
         id="text46"
         style="font-size:16.81px;font-family:ArialMT_bb;white-space:pre;fill:#000000">lanelet </text>
      <text
         x="538.90002"
         y="333.20001"
         class="s2_13"
         id="text47"
         style="font-size:16.81px;font-family:ArialMT_bb;white-space:pre;fill:#000000">subtype: road </text>
      <text
         x="538.90002"
         y="353.39999"
         class="s2_13"
         id="text48"
         style="font-size:16.81px;font-family:ArialMT_bb;white-space:pre;fill:#000000">tag: oneway = yes </text>
    </g>
    <path
       fill-rule="evenodd"
       d="m 143.83757,120.07189 12.25021,12.14437 -13.99646,13.86417 -1.24354,1.34937 -1.03188,1.21709 -0.55562,0.97896 -0.58209,1.34937 -0.3175,1.48167 -0.29104,1.5875 v 1.42875 l 0.0529,1.69333 -0.0794,27.305 h -17.17142 v -28.81312 l 0.0794,-2.48709 0.3175,-3.46604 0.60854,-2.75167 0.9525,-2.91041 1.34938,-2.61938 1.48166,-2.61937 1.74625,-2.09021 1.37584,-1.61396 1.27,-1.32292 1.1377,-1.16416 z"
       class="g3_13"
       id="path48"
       style="display:block;fill:#666666;stroke-width:0.264583" />
    <path
       fill-rule="evenodd"
       d="m 149.55257,125.70751 0.3175,0.34396 -4.65667,4.65667 -0.42333,-0.39688 z"
       class="g0_13"
       id="path49"
       style="display:block;fill:#ffffff;stroke-width:0.264583" />
    <path
       fill-rule="evenodd"
       d="m 140.31861,134.8621 0.34396,0.34395 -4.68313,4.68313 -0.39687,-0.42333 z"
       class="g0_13"
       id="path50"
       style="display:block;fill:#ffffff;stroke-width:0.264583" />
    <path
       fill-rule="evenodd"
       d="m 128.96798,177.80397 h 0.52917 v 6.61458 h -0.52917 z"
       class="g0_13"
       id="path51"
       style="display:block;fill:#ffffff;stroke-width:0.264583" />
    <path
       fill-rule="evenodd"
       d="m 128.96798,165.79189 h 0.52917 v 6.61458 h -0.52917 z"
       class="g0_13"
       id="path52"
       style="display:block;fill:#ffffff;stroke-width:0.264583" />
    <path
       fill-rule="evenodd"
       d="m 128.96798,154.38835 h 0.52917 v 6.61458 h -0.52917 z"
       class="g0_13"
       id="path53"
       style="display:block;fill:#ffffff;stroke-width:0.264583" />
    <path
       fill-rule="evenodd"
       d="m 132.43403,143.4346 0.26458,0.15875 -0.3175,0.55562 -0.39688,0.68792 -0.42333,0.87312 -0.34396,0.76729 -0.21166,0.47625 -0.21167,0.52917 -0.15875,0.39688 -0.15875,0.37041 -0.13229,0.39688 -0.55563,-0.18521 0.26459,-0.635 0.3175,-0.76729 0.37041,-0.84667 0.39688,-0.89958 0.47625,-0.82021 0.37041,-0.635 0.3175,-0.52917 z"
       class="g0_13"
       id="path54"
       style="display:block;fill:#ffffff;stroke-width:0.264583" />
    <path
       fill-rule="evenodd"
       d="m 156.08778,132.21626 1.11125,1.11125 -12.5148,12.54125 -1.21708,1.16417 -1.21708,1.19062 -0.55563,0.71438 -0.52916,0.84667 -0.635,1.21708 -0.47625,1.34937 -0.26459,1.37584 -0.0265,1.16416 v 29.5275 h -1.64041 v -26.67 l 0.0265,-3.46604 0.29104,-2.35479 0.635,-1.66687 0.34396,-0.79375 0.89958,-1.4023 1.05833,-1.16416 1.00542,-1.05834 1.29646,-1.21708 z"
       class="g3_13"
       id="path55"
       style="display:block;fill:#666666;stroke-width:0.264583" />
    <path
       fill-rule="evenodd"
       d="m 143.81111,120.01897 -1.29646,-1.29646 -11.72104,11.69459 -1.87854,2.01083 -1.16417,1.03187 -0.97896,0.9525 -1.00541,1.19063 -0.82021,1.05833 -1.40229,1.905 -0.68792,1.16417 -0.60854,1.08479 -0.66146,1.53458 -0.635,1.5875 -0.66146,1.87855 -0.50271,1.53458 -0.34396,1.98437 -0.26458,1.87855 -0.15875,1.87854 -0.0794,2.11666 v 29.28938 h 1.93145 v -25.29417 l 0.0529,-4.70958 0.0529,-2.54 0.29104,-2.67229 0.58208,-2.35479 0.79375,-2.38125 1.42875,-3.12209 1.5875,-2.54 1.45521,-1.93146 1.905,-2.14312 1.56104,-1.69333 z"
       class="g3_13"
       id="path56"
       style="display:block;fill:#666666;stroke-width:0.264583" />
    <path
       fill-rule="evenodd"
       d="m 143.81111,120.17772 c -1.53458,1.50813 -6.87917,6.82625 -9.07521,8.96938 -2.2225,2.16958 -2.96333,2.7252 -4.20687,3.94229 -1.21709,1.24354 -2.3548,2.56646 -3.14855,3.51896 -0.79375,0.9525 -1.00541,1.37583 -1.5875,2.2225 -0.55562,0.84666 -1.29645,1.98437 -1.7727,2.8575 -0.4498,0.84666 -0.635,1.4552 -0.97896,2.30187 -0.34396,0.87313 -0.74084,1.93146 -1.03188,2.80458 -0.29104,0.89959 -0.55562,1.61396 -0.74083,2.56646 -0.15875,0.97896 -0.23813,0.87313 -0.29104,3.25438 -0.0529,2.38125 0.0265,6.56166 0,11.05958 -0.0265,4.47146 -0.18521,12.40896 -0.21167,15.90146 0,3.51896 0.0529,4.23333 0.0529,5.08 z"
       class="g1_13"
       id="path57"
       style="display:block;fill:#000000;fill-opacity:0;stroke-width:0.264583" />
    <path
       d="m 143.81111,120.17772 c -1.53458,1.50813 -6.87917,6.82625 -9.07521,8.96938 -2.2225,2.16958 -2.96333,2.7252 -4.20687,3.94229 -1.21709,1.24354 -2.3548,2.56646 -3.14855,3.51896 -0.79375,0.9525 -1.00541,1.37583 -1.5875,2.2225 -0.55562,0.84666 -1.29645,1.98437 -1.7727,2.8575 -0.4498,0.84666 -0.635,1.4552 -0.97896,2.30187 -0.34396,0.87313 -0.74084,1.93146 -1.03188,2.80458 -0.29104,0.89959 -0.55562,1.61396 -0.74083,2.56646 -0.15875,0.97896 -0.23813,0.87313 -0.29104,3.25438 -0.0529,2.38125 0.0265,6.56166 0,11.05958 -0.0265,4.47146 -0.18521,12.40896 -0.21167,15.90146 0,3.51896 0.0529,4.23333 0.0529,5.08"
       class="g4_13"
       id="path58"
       style="display:block;fill:none;stroke:#ffffff;stroke-width:0.302948;stroke-linejoin:round" />
    <path
       fill-rule="evenodd"
       d="m 156.06132,132.21626 c -1.53459,1.53459 -6.85271,6.82625 -9.31334,9.26042 -2.46062,2.46062 -4.36562,4.25979 -5.45041,5.42396 -1.11125,1.16416 -0.82021,1.08479 -1.19063,1.5875 -0.37041,0.50271 -0.76729,0.89958 -1.03187,1.48166 -0.29104,0.55563 -0.44979,1.24355 -0.60854,1.905 -0.1323,0.66146 -0.21167,1.37584 -0.29105,2.09021 -0.0529,0.68792 -0.0794,0.47625 -0.10583,2.11667 0,1.61396 0.0265,4.81542 0,7.64646 0,2.80458 -0.0265,5.82083 -0.0265,9.26041 -0.0265,3.43959 0,9.47209 0,11.37709 z"
       class="g1_13"
       id="path59"
       style="display:block;fill:#000000;fill-opacity:0;stroke-width:0.264583" />
    <path
       d="m 156.06132,132.21626 c -1.53459,1.53459 -6.85271,6.82625 -9.31334,9.26042 -2.46062,2.46062 -4.36562,4.25979 -5.45041,5.42396 -1.11125,1.16416 -0.82021,1.08479 -1.19063,1.5875 -0.37041,0.50271 -0.76729,0.89958 -1.03187,1.48166 -0.29104,0.55563 -0.44979,1.24355 -0.60854,1.905 -0.1323,0.66146 -0.21167,1.37584 -0.29105,2.09021 -0.0529,0.68792 -0.0794,0.47625 -0.10583,2.11667 0,1.61396 0.0265,4.81542 0,7.64646 0,2.80458 -0.0265,5.82083 -0.0265,9.26041 -0.0265,3.43959 0,9.47209 0,11.37709"
       class="g4_13"
       id="path60"
       style="display:block;fill:none;stroke:#ffffff;stroke-width:0.302948;stroke-linejoin:round" />
    <path
       fill-rule="evenodd"
       d="m 143.59944,120.07189 5.82084,5.82083 -13.59959,13.59958 -1.74625,1.64042 -1.08479,1.32292 -1.19062,1.71979 -1.00542,2.09021 -0.66146,1.64041 -0.76729,2.27542 -0.23813,1.32292 -0.13229,2.54 v 30.58583 h -8.255 v -32.41146 l 0.34396,-3.175 1.03188,-3.62479 1.64041,-3.75708 1.50813,-2.24896 1.48166,-2.03729 2.51355,-2.96334 z"
       class="g5_13"
       id="path61"
       style="display:block;fill:#f4cccc;fill-opacity:0.43;stroke-width:0.264583" />
    <path
       d="m 143.59944,120.07189 5.82084,5.82083 -13.59959,13.59958 -1.74625,1.64042 -1.08479,1.32292 -1.19062,1.71979 -1.00542,2.09021 -0.66146,1.64041 -0.76729,2.27542 -0.23813,1.32292 -0.13229,2.54 v 30.58583 h -8.255 v -32.41146 l 0.34396,-3.175 1.03188,-3.62479 1.64041,-3.75708 1.50813,-2.24896 1.48166,-2.03729 2.51355,-2.96334 z"
       class="g6_13"
       id="path62"
       style="display:block;fill:none;stroke:#ff0000;stroke-width:0.302948;stroke-linejoin:round" />
    <path
       fill-rule="evenodd"
       d="m 98.540905,146.08043 24.976665,7.17021 z"
       class="g1_13"
       id="path63"
       style="display:block;fill:#000000;fill-opacity:0;stroke-width:0.264583" />
    <path
       d="m 98.540905,146.08043 24.976665,7.17021"
       class="g2_13"
       id="path64"
       style="display:block;fill:none;stroke:#000000;stroke-width:0.302948;stroke-linejoin:round" />
  </g>
</svg>
