<?xml version="1.0" encoding="UTF-8" standalone="no"?>
<!-- Created with Inkscape (http://www.inkscape.org/) -->

<svg
   width="60.935001mm"
   height="62.980999mm"
   viewBox="0 0 60.935001 62.980999"
   version="1.1"
   id="svg1"
   inkscape:version="1.3.2 (1:1.3.2+202311252150+091e20ef0f)"
   sodipodi:docname="vm-03-07_1.svg"
   xmlns:inkscape="http://www.inkscape.org/namespaces/inkscape"
   xmlns:sodipodi="http://sodipodi.sourceforge.net/DTD/sodipodi-0.dtd"
   xmlns="http://www.w3.org/2000/svg"
   xmlns:svg="http://www.w3.org/2000/svg">
  <sodipodi:namedview
     id="namedview1"
     pagecolor="#ffffff"
     bordercolor="#000000"
     borderopacity="0.25"
     inkscape:showpageshadow="2"
     inkscape:pageopacity="0.0"
     inkscape:pagecheckerboard="0"
     inkscape:deskcolor="#d1d1d1"
     inkscape:document-units="mm"
     inkscape:zoom="1.7131103"
     inkscape:cx="736.37992"
     inkscape:cy="-39.985751"
     inkscape:window-width="3840"
     inkscape:window-height="2123"
     inkscape:window-x="0"
     inkscape:window-y="0"
     inkscape:window-maximized="1"
     inkscape:current-layer="layer1" />
  <defs
     id="defs1" />
  <g
     inkscape:label="Layer 1"
     inkscape:groupmode="layer"
     id="layer1"
     transform="translate(89.958331,-159.01459)">
    <path
       fill-rule="evenodd"
       d="m -83.033524,173.38345 h 8.625417 v -8.65187 h 32.676041 v 8.65187 h 8.651875 v 32.67604 h -8.651875 v 8.62542 h -32.676041 v -8.62542 h -8.625417 z"
       class="g4_40"
       id="path478"
       style="display:block;fill:#666666;stroke-width:0.264583" />
    <path
       d="m -83.033524,173.38345 h 8.625417 v -8.65187 h 32.676041 v 8.65187 h 8.651875 v 32.67604 h -8.651875 v 8.62542 h -32.676041 v -8.62542 h -8.625417 z"
       class="g5_40"
       id="path479"
       style="display:block;fill:none;stroke:#666666;stroke-width:0.302948;stroke-linejoin:round" />
    <path
       fill-rule="evenodd"
       d="m -41.943733,164.73158 h 0.899584 v 9.33979 h -0.899584 z"
       class="g6_40"
       id="path480"
       style="display:block;fill:#999999;stroke-width:0.264583" />
    <path
       d="m -41.943733,164.73158 h 0.899584 v 9.33979 h -0.899584 z"
       class="g7_40"
       id="path481"
       style="display:block;fill:none;stroke:#999999;stroke-width:0.302948;stroke-linejoin:round" />
    <path
       fill-rule="evenodd"
       d="m -74.487482,173.17179 v 0.92604 h -8.519584 v -0.92604 z"
       class="g6_40"
       id="path482"
       style="display:block;fill:#999999;stroke-width:0.264583" />
    <path
       d="m -74.487482,173.17179 v 0.92604 h -8.519584 v -0.92604 z"
       class="g7_40"
       id="path483"
       style="display:block;fill:none;stroke:#999999;stroke-width:0.302948;stroke-linejoin:round" />
    <path
       fill-rule="evenodd"
       d="m -74.487482,205.63616 v 0.89958 h -8.519584 v -0.89958 z"
       class="g6_40"
       id="path484"
       style="display:block;fill:#999999;stroke-width:0.264583" />
    <path
       d="m -74.487482,205.63616 v 0.89958 h -8.519584 v -0.89958 z"
       class="g7_40"
       id="path485"
       style="display:block;fill:none;stroke:#999999;stroke-width:0.302948;stroke-linejoin:round" />
    <path
       fill-rule="evenodd"
       d="m -33.133108,173.19824 v 0.92605 h -8.784166 v -0.92605 z"
       class="g6_40"
       id="path486"
       style="display:block;fill:#999999;stroke-width:0.264583" />
    <path
       d="m -33.133108,173.19824 v 0.92605 h -8.784166 v -0.92605 z"
       class="g7_40"
       id="path487"
       style="display:block;fill:none;stroke:#999999;stroke-width:0.302948;stroke-linejoin:round" />
    <path
       fill-rule="evenodd"
       d="m -33.133108,205.13345 v 0.92604 h -9.04875 v -0.92604 z"
       class="g6_40"
       id="path488"
       style="display:block;fill:#999999;stroke-width:0.264583" />
    <path
       d="m -33.133108,205.13345 v 0.92604 h -9.04875 v -0.92604 z"
       class="g7_40"
       id="path489"
       style="display:block;fill:none;stroke:#999999;stroke-width:0.302948;stroke-linejoin:round" />
    <path
       fill-rule="evenodd"
       d="m -58.109774,167.05991 0.05292,-8.04333 z"
       class="g1_40"
       id="path490"
       style="display:block;fill:#000000;fill-opacity:0;stroke-width:0.264583" />
    <path
       d="m -58.109774,167.05991 0.05292,-8.04333"
       class="g8_40"
       id="path491"
       style="display:block;fill:none;stroke:#f3f3f3;stroke-width:0.60616;stroke-linejoin:round" />
    <path
       fill-rule="evenodd"
       d="m -58.083316,219.63262 0.05292,-8.04333 z"
       class="g1_40"
       id="path492"
       style="display:block;fill:#000000;fill-opacity:0;stroke-width:0.264583" />
    <path
       d="m -58.083316,219.63262 0.05292,-8.04333"
       class="g8_40"
       id="path493"
       style="display:block;fill:none;stroke:#f3f3f3;stroke-width:0.60616;stroke-linejoin:round" />
    <path
       fill-rule="evenodd"
       d="m -74.011232,211.58929 16.086666,-0.0529 z"
       class="g1_40"
       id="path494"
       style="display:block;fill:#000000;fill-opacity:0;stroke-width:0.264583" />
    <path
       d="m -74.011232,211.58929 16.086666,-0.0529"
       class="g9_40"
       id="path495"
       style="display:block;fill:none;stroke:#f3f3f3;stroke-width:0.909373;stroke-linejoin:round" />
    <path
       fill-rule="evenodd"
       d="m -74.884357,164.73158 h 0.899583 v 9.33979 h -0.899583 z"
       class="g6_40"
       id="path496"
       style="display:block;fill:#999999;stroke-width:0.264583" />
    <path
       d="m -74.884357,164.73158 h 0.899583 v 9.33979 h -0.899583 z"
       class="g7_40"
       id="path497"
       style="display:block;fill:none;stroke:#999999;stroke-width:0.302948;stroke-linejoin:round" />
    <path
       fill-rule="evenodd"
       d="m -42.181858,205.63616 h 0.926042 v 9.07521 h -0.926042 z"
       class="g6_40"
       id="path498"
       style="display:block;fill:#999999;stroke-width:0.264583" />
    <path
       d="m -42.181858,205.63616 h 0.926042 v 9.07521 h -0.926042 z"
       class="g7_40"
       id="path499"
       style="display:block;fill:none;stroke:#999999;stroke-width:0.302948;stroke-linejoin:round" />
    <path
       fill-rule="evenodd"
       d="m -75.016649,205.63616 h 0.899583 v 9.07521 h -0.899583 z"
       class="g6_40"
       id="path500"
       style="display:block;fill:#999999;stroke-width:0.264583" />
    <path
       d="m -75.016649,205.63616 h 0.899583 v 9.07521 h -0.899583 z"
       class="g7_40"
       id="path501"
       style="display:block;fill:none;stroke:#999999;stroke-width:0.302948;stroke-linejoin:round" />
    <path
       fill-rule="evenodd"
       d="m -58.215607,167.03345 16.192499,0.0529 z"
       class="g1_40"
       id="path502"
       style="display:block;fill:#000000;fill-opacity:0;stroke-width:0.264583" />
    <path
       d="m -58.215607,167.03345 16.192499,0.0529"
       class="g9_40"
       id="path503"
       style="display:block;fill:none;stroke:#f3f3f3;stroke-width:0.909373;stroke-linejoin:round" />
    <path
       fill-rule="evenodd"
       d="m -52.685816,167.05991 0.05292,-8.04333 z"
       class="g1_40"
       id="path504"
       style="display:block;fill:#000000;fill-opacity:0;stroke-width:0.264583" />
    <path
       d="m -52.685816,167.05991 0.05292,-8.04333"
       class="ga_40"
       id="path505"
       style="display:block;fill:none;stroke:#f3f3f3;stroke-width:0.60616;stroke-linejoin:round;stroke-dasharray:2.64583, 1.85208" />
    <path
       fill-rule="evenodd"
       d="m -63.692482,219.63262 0.05292,-8.04333 z"
       class="g1_40"
       id="path506"
       style="display:block;fill:#000000;fill-opacity:0;stroke-width:0.264583" />
    <path
       d="m -63.692482,219.63262 0.05292,-8.04333"
       class="ga_40"
       id="path507"
       style="display:block;fill:none;stroke:#f3f3f3;stroke-width:0.60616;stroke-linejoin:round;stroke-dasharray:2.64583, 1.85208" />
    <path
       fill-rule="evenodd"
       d="m -52.738733,219.63262 0.05292,-8.04333 z"
       class="g1_40"
       id="path508"
       style="display:block;fill:#000000;fill-opacity:0;stroke-width:0.264583" />
    <path
       d="m -52.738733,219.63262 0.05292,-8.04333"
       class="ga_40"
       id="path509"
       style="display:block;fill:none;stroke:#f3f3f3;stroke-width:0.60616;stroke-linejoin:round;stroke-dasharray:2.64583, 1.85208" />
    <path
       fill-rule="evenodd"
       d="m -63.480816,167.05991 0.07937,-8.04333 z"
       class="g1_40"
       id="path510"
       style="display:block;fill:#000000;fill-opacity:0;stroke-width:0.264583" />
    <path
       d="m -63.480816,167.05991 0.07937,-8.04333"
       class="ga_40"
       id="path511"
       style="display:block;fill:none;stroke:#f3f3f3;stroke-width:0.60616;stroke-linejoin:round;stroke-dasharray:2.64583, 1.85208" />
    <path
       fill-rule="evenodd"
       d="m -69.857274,206.98554 h 0.767292 v 3.30729 h -0.767292 z"
       class="gb_40"
       id="path512"
       style="display:block;fill:#eeeeee;stroke-width:0.264583" />
    <path
       fill-rule="evenodd"
       d="m -68.216857,206.98554 h 0.767291 v 3.30729 h -0.767291 z"
       class="gb_40"
       id="path513"
       style="display:block;fill:#eeeeee;stroke-width:0.264583" />
    <path
       fill-rule="evenodd"
       d="m -66.576441,206.98554 h 0.767292 v 3.30729 h -0.767292 z"
       class="gb_40"
       id="path514"
       style="display:block;fill:#eeeeee;stroke-width:0.264583" />
    <path
       fill-rule="evenodd"
       d="m -64.962482,206.98554 h 0.79375 v 3.30729 h -0.79375 z"
       class="gb_40"
       id="path515"
       style="display:block;fill:#eeeeee;stroke-width:0.264583" />
    <path
       fill-rule="evenodd"
       d="m -63.322066,206.98554 h 0.767292 v 3.30729 h -0.767292 z"
       class="gb_40"
       id="path516"
       style="display:block;fill:#eeeeee;stroke-width:0.264583" />
    <path
       fill-rule="evenodd"
       d="m -61.681649,206.98554 h 0.767292 v 3.30729 h -0.767292 z"
       class="gb_40"
       id="path517"
       style="display:block;fill:#eeeeee;stroke-width:0.264583" />
    <path
       fill-rule="evenodd"
       d="m -60.041232,206.98554 h 0.767291 v 3.30729 h -0.767291 z"
       class="gb_40"
       id="path518"
       style="display:block;fill:#eeeeee;stroke-width:0.264583" />
    <path
       fill-rule="evenodd"
       d="m -58.427274,206.98554 h 0.79375 v 3.30729 h -0.79375 z"
       class="gb_40"
       id="path519"
       style="display:block;fill:#eeeeee;stroke-width:0.264583" />
    <path
       fill-rule="evenodd"
       d="m -56.786858,206.98554 h 0.767292 v 3.30729 h -0.767292 z"
       class="gb_40"
       id="path520"
       style="display:block;fill:#eeeeee;stroke-width:0.264583" />
    <path
       fill-rule="evenodd"
       d="m -71.497691,206.98554 h 0.767292 v 3.30729 h -0.767292 z"
       class="gb_40"
       id="path521"
       style="display:block;fill:#eeeeee;stroke-width:0.264583" />
    <path
       fill-rule="evenodd"
       d="m -73.111649,206.98554 h 0.767292 v 3.30729 h -0.767292 z"
       class="gb_40"
       id="path522"
       style="display:block;fill:#eeeeee;stroke-width:0.264583" />
    <path
       fill-rule="evenodd"
       d="m -55.146441,206.98554 h 0.767292 v 3.30729 h -0.767292 z"
       class="gb_40"
       id="path523"
       style="display:block;fill:#eeeeee;stroke-width:0.264583" />
    <path
       fill-rule="evenodd"
       d="m -36.202274,172.2722 v -0.42333 h -3.783542 v 0.42333 z"
       class="g6_40"
       id="path524"
       style="display:block;fill:#999999;stroke-width:0.264583" />
    <path
       d="m -36.202274,172.2722 v -0.42333 h -3.783542 v 0.42333 z"
       class="g7_40"
       id="path525"
       style="display:block;fill:none;stroke:#999999;stroke-width:0.302948;stroke-linejoin:round" />
    <path
       fill-rule="evenodd"
       d="m -36.519774,172.21929 v 0 c 0.185208,0 0.3175,-0.15875 0.3175,-0.34396 v -4.445 c 0,-0.10584 -0.02646,-0.18521 -0.07937,-0.23813 -0.07937,-0.0794 -0.15875,-0.10583 -0.238125,-0.10583 h -1.349375 c -0.185209,0 -0.343959,0.15875 -0.343959,0.34396 v 4.445 c 0,0.18521 0.15875,0.34396 0.343959,0.34396 z"
       class="g6_40"
       id="path526"
       style="display:block;fill:#999999;stroke-width:0.264583" />
    <path
       d="m -36.519774,172.21929 v 0 c 0.185208,0 0.3175,-0.15875 0.3175,-0.34396 v -4.445 c 0,-0.10584 -0.02646,-0.18521 -0.07937,-0.23813 -0.07937,-0.0794 -0.15875,-0.10583 -0.238125,-0.10583 h -1.349375 c -0.185209,0 -0.343959,0.15875 -0.343959,0.34396 v 4.445 c 0,0.18521 0.15875,0.34396 0.343959,0.34396 z"
       class="g7_40"
       id="path527"
       style="display:block;fill:none;stroke:#999999;stroke-width:0.302948;stroke-linejoin:round" />
    <path
       fill-rule="evenodd"
       d="m -37.181233,168.70033 v 0 c 0.3175,0 0.582084,-0.26459 0.582084,-0.58209 0,-0.13229 -0.05292,-0.29104 -0.15875,-0.39687 -0.105834,-0.10583 -0.264584,-0.18521 -0.423334,-0.18521 -0.3175,0 -0.582083,0.26458 -0.582083,0.58208 0,0.3175 0.264583,0.58209 0.582083,0.58209 z"
       class="gc_40"
       id="path528"
       style="display:block;fill:#ff0000;stroke-width:0.264583" />
    <path
       fill-rule="evenodd"
       d="m -37.181233,170.34074 v 0 c 0.3175,0 0.582084,-0.26458 0.582084,-0.58208 0,-0.15875 -0.05292,-0.3175 -0.15875,-0.42333 -0.105834,-0.10584 -0.264584,-0.15875 -0.423334,-0.15875 -0.3175,0 -0.582083,0.26458 -0.582083,0.58208 0,0.3175 0.264583,0.58208 0.582083,0.58208 z"
       class="gd_40"
       id="path529"
       style="display:block;fill:#f1c232;stroke-width:0.264583" />
    <path
       fill-rule="evenodd"
       d="m -37.181233,171.9547 v 0 c 0.3175,0 0.582084,-0.26458 0.582084,-0.58208 0,-0.13229 -0.05292,-0.29104 -0.15875,-0.39688 -0.105834,-0.10583 -0.264584,-0.1852 -0.423334,-0.1852 -0.3175,0 -0.582083,0.26458 -0.582083,0.58208 0,0.3175 0.264583,0.58208 0.582083,0.58208 z"
       class="ge_40"
       id="path530"
       style="display:block;fill:#38761d;stroke-width:0.264583" />
    <path
       fill-rule="evenodd"
       d="m -40.514983,201.32345 h -0.396875 v 8.01688 h 0.396875 z"
       class="g6_40"
       id="path531"
       style="display:block;fill:#999999;stroke-width:0.264583" />
    <path
       d="m -40.514983,201.32345 h -0.396875 v 8.01688 h 0.396875 z"
       class="g7_40"
       id="path532"
       style="display:block;fill:none;stroke:#999999;stroke-width:0.302948;stroke-linejoin:round" />
    <path
       fill-rule="evenodd"
       d="m -40.647274,201.64095 v 0 c 0,-0.18521 -0.15875,-0.3175 -0.343959,-0.3175 h -4.445 c -0.07937,0 -0.15875,0.0265 -0.238125,0.0794 -0.05292,0.0794 -0.07937,0.15875 -0.07937,0.23812 v 1.34938 c 0,0.18521 0.132292,0.34396 0.3175,0.34396 h 4.445 c 0.185209,0 0.343959,-0.15875 0.343959,-0.34396 z"
       class="g6_40"
       id="path533"
       style="display:block;fill:#999999;stroke-width:0.264583" />
    <path
       d="m -40.647274,201.64095 v 0 c 0,-0.18521 -0.15875,-0.3175 -0.343959,-0.3175 h -4.445 c -0.07937,0 -0.15875,0.0265 -0.238125,0.0794 -0.05292,0.0794 -0.07937,0.15875 -0.07937,0.23812 v 1.34938 c 0,0.18521 0.132292,0.34396 0.3175,0.34396 h 4.445 c 0.185209,0 0.343959,-0.15875 0.343959,-0.34396 z"
       class="g7_40"
       id="path534"
       style="display:block;fill:none;stroke:#999999;stroke-width:0.302948;stroke-linejoin:round" />
    <path
       fill-rule="evenodd"
       d="m -61.708107,215.98137 v -2.06375 c 0,-0.52917 0.449791,-0.97896 0.978958,-0.97896 h 0.714375 v -0.42333 l 0.555625,0.71437 -0.555625,0.68792 v -0.42333 h -0.714375 c -0.238125,0 -0.423333,0.1852 -0.423333,0.42333 v 2.06375 z"
       class="gf_40"
       id="path535"
       style="display:block;fill:#f3f3f3;stroke-width:0.264583" />
    <path
       d="m -61.708107,215.98137 v -2.06375 c 0,-0.52917 0.449791,-0.97896 0.978958,-0.97896 h 0.714375 v -0.42333 l 0.555625,0.71437 -0.555625,0.68792 v -0.42333 h -0.714375 c -0.238125,0 -0.423333,0.1852 -0.423333,0.42333 v 2.06375 z"
       class="gg_40"
       id="path536"
       style="display:block;fill:none;stroke:#f3f3f3;stroke-width:0.302948;stroke-linejoin:round" />
    <path
       fill-rule="evenodd"
       d="m -80.678732,185.9247 h 2.06375 c 0.555625,0 0.978958,0.44979 0.978958,1.00542 v 0.68792 h 0.423333 l -0.687916,0.58208 -0.714375,-0.58208 h 0.423333 v -0.68792 c 0,-0.23813 -0.185208,-0.42333 -0.423333,-0.42333 h -2.06375 z"
       class="gf_40"
       id="path537"
       style="display:block;fill:#f3f3f3;stroke-width:0.264583" />
    <path
       d="m -80.678732,185.9247 h 2.06375 c 0.555625,0 0.978958,0.44979 0.978958,1.00542 v 0.68792 h 0.423333 l -0.687916,0.58208 -0.714375,-0.58208 h 0.423333 v -0.68792 c 0,-0.23813 -0.185208,-0.42333 -0.423333,-0.42333 h -2.06375 z"
       class="gg_40"
       id="path538"
       style="display:block;fill:none;stroke:#f3f3f3;stroke-width:0.302948;stroke-linejoin:round" />
    <path
       fill-rule="evenodd"
       d="m -54.299774,162.93241 v 2.06375 c 0,0.52917 -0.449792,0.97896 -0.978959,0.97896 h -0.714375 v 0.42333 l -0.582083,-0.71437 0.582083,-0.68792 v 0.42333 h 0.714375 c 0.211667,0 0.423334,-0.1852 0.423334,-0.42333 v -2.06375 z"
       class="gf_40"
       id="path539"
       style="display:block;fill:#f3f3f3;stroke-width:0.264583" />
    <path
       d="m -54.299774,162.93241 v 2.06375 c 0,0.52917 -0.449792,0.97896 -0.978959,0.97896 h -0.714375 v 0.42333 l -0.582083,-0.71437 0.582083,-0.68792 v 0.42333 h 0.714375 c 0.211667,0 0.423334,-0.1852 0.423334,-0.42333 v -2.06375 z"
       class="gg_40"
       id="path540"
       style="display:block;fill:none;stroke:#f3f3f3;stroke-width:0.302948;stroke-linejoin:round" />
    <path
       fill-rule="evenodd"
       d="m -40.462066,201.32345 h -0.396875 v 3.78354 h 0.396875 z"
       class="g6_40"
       id="path541"
       style="display:block;fill:#999999;stroke-width:0.264583" />
    <path
       d="m -40.462066,201.32345 h -0.396875 v 3.78354 h 0.396875 z"
       class="g7_40"
       id="path542"
       style="display:block;fill:none;stroke:#999999;stroke-width:0.302948;stroke-linejoin:round" />
    <path
       fill-rule="evenodd"
       d="m -40.514983,201.64095 v 0 c 0,-0.18521 -0.15875,-0.3175 -0.343958,-0.3175 h -4.445 c -0.07937,0 -0.15875,0.0265 -0.238125,0.0794 -0.05292,0.0794 -0.07937,0.15875 -0.07937,0.23812 v 1.34938 c 0,0.18521 0.132292,0.34396 0.3175,0.34396 h 4.445 c 0.185208,0 0.343958,-0.15875 0.343958,-0.34396 z"
       class="g6_40"
       id="path543"
       style="display:block;fill:#999999;stroke-width:0.264583" />
    <path
       d="m -40.514983,201.64095 v 0 c 0,-0.18521 -0.15875,-0.3175 -0.343958,-0.3175 h -4.445 c -0.07937,0 -0.15875,0.0265 -0.238125,0.0794 -0.05292,0.0794 -0.07937,0.15875 -0.07937,0.23812 v 1.34938 c 0,0.18521 0.132292,0.34396 0.3175,0.34396 h 4.445 c 0.185208,0 0.343958,-0.15875 0.343958,-0.34396 z"
       class="g7_40"
       id="path544"
       style="display:block;fill:none;stroke:#999999;stroke-width:0.302948;stroke-linejoin:round" />
    <path
       fill-rule="evenodd"
       d="m -44.007483,202.30241 v 0 c 0,-0.3175 -0.264583,-0.58208 -0.582083,-0.58208 -0.15875,0 -0.291042,0.0529 -0.423333,0.15875 -0.105834,0.10583 -0.15875,0.26458 -0.15875,0.42333 0,0.3175 0.264583,0.58208 0.582083,0.58208 0.3175,0 0.582083,-0.26458 0.582083,-0.58208 z"
       class="gc_40"
       id="path545"
       style="display:block;fill:#ff0000;stroke-width:0.264583" />
    <path
       fill-rule="evenodd"
       d="m -42.393524,202.30241 v 0 c 0,-0.3175 -0.264584,-0.58208 -0.582084,-0.58208 -0.132291,0 -0.291041,0.0529 -0.396875,0.15875 -0.105833,0.10583 -0.15875,0.26458 -0.15875,0.42333 0,0.3175 0.238125,0.58208 0.555625,0.58208 0.3175,0 0.582084,-0.26458 0.582084,-0.58208 z"
       class="gd_40"
       id="path546"
       style="display:block;fill:#f1c232;stroke-width:0.264583" />
    <path
       fill-rule="evenodd"
       d="m -40.753108,202.30241 v 0 c 0,-0.3175 -0.264583,-0.58208 -0.582083,-0.58208 -0.15875,0 -0.291042,0.0529 -0.423333,0.15875 -0.105834,0.10583 -0.15875,0.26458 -0.15875,0.42333 0,0.3175 0.264583,0.58208 0.582083,0.58208 0.3175,0 0.582083,-0.26458 0.582083,-0.58208 z"
       class="ge_40"
       id="path547"
       style="display:block;fill:#38761d;stroke-width:0.264583" />
    <path
       fill-rule="evenodd"
       d="m -82.398524,189.15262 v -4.18042 h 5.159375 v 4.18042 z"
       class="g4_40"
       id="path548"
       style="display:block;fill:#666666;stroke-width:0.264583" />
    <path
       fill-rule="evenodd"
       d="m -69.195816,167.05991 0.05292,-8.04333 z"
       class="g1_40"
       id="path549"
       style="display:block;fill:#000000;fill-opacity:0;stroke-width:0.264583" />
    <path
       d="m -69.195816,167.05991 0.05292,-8.04333"
       class="ga_40"
       id="path550"
       style="display:block;fill:none;stroke:#f3f3f3;stroke-width:0.60616;stroke-linejoin:round;stroke-dasharray:2.64583, 1.85208" />
    <path
       fill-rule="evenodd"
       d="m -47.791024,167.05991 0.05292,-8.04333 z"
       class="g1_40"
       id="path551"
       style="display:block;fill:#000000;fill-opacity:0;stroke-width:0.264583" />
    <path
       d="m -47.791024,167.05991 0.05292,-8.04333"
       class="ga_40"
       id="path552"
       style="display:block;fill:none;stroke:#f3f3f3;stroke-width:0.60616;stroke-linejoin:round;stroke-dasharray:2.64583, 1.85208" />
    <path
       fill-rule="evenodd"
       d="m -69.433941,219.63262 0.07937,-8.04333 z"
       class="g1_40"
       id="path553"
       style="display:block;fill:#000000;fill-opacity:0;stroke-width:0.264583" />
    <path
       d="m -69.433941,219.63262 0.07937,-8.04333"
       class="ga_40"
       id="path554"
       style="display:block;fill:none;stroke:#f3f3f3;stroke-width:0.60616;stroke-linejoin:round;stroke-dasharray:2.64583, 1.85208" />
    <path
       fill-rule="evenodd"
       d="m -46.997274,219.63262 0.05292,-8.04333 z"
       class="g1_40"
       id="path555"
       style="display:block;fill:#000000;fill-opacity:0;stroke-width:0.264583" />
    <path
       d="m -46.997274,219.63262 0.05292,-8.04333"
       class="ga_40"
       id="path556"
       style="display:block;fill:none;stroke:#f3f3f3;stroke-width:0.60616;stroke-linejoin:round;stroke-dasharray:2.64583, 1.85208" />
    <path
       fill-rule="evenodd"
       d="m -67.423107,215.98137 v -2.06375 c 0,-0.52917 0.423333,-0.97896 0.978958,-0.97896 h 0.714375 v -0.42333 l 0.555625,0.71437 -0.555625,0.68792 v -0.42333 h -0.714375 c -0.238125,0 -0.423333,0.1852 -0.423333,0.42333 v 2.06375 z"
       class="gf_40"
       id="path557"
       style="display:block;fill:#f3f3f3;stroke-width:0.264583" />
    <path
       d="m -67.423107,215.98137 v -2.06375 c 0,-0.52917 0.423333,-0.97896 0.978958,-0.97896 h 0.714375 v -0.42333 l 0.555625,0.71437 -0.555625,0.68792 v -0.42333 h -0.714375 c -0.238125,0 -0.423333,0.1852 -0.423333,0.42333 v 2.06375 z"
       class="gg_40"
       id="path558"
       style="display:block;fill:none;stroke:#f3f3f3;stroke-width:0.302948;stroke-linejoin:round" />
    <path
       fill-rule="evenodd"
       d="m -58.400816,206.98554 h 0.767292 v 3.30729 h -0.767292 z"
       class="gb_40"
       id="path559"
       style="display:block;fill:#eeeeee;stroke-width:0.264583" />
    <path
       fill-rule="evenodd"
       d="m -56.786858,206.98554 h 0.767292 v 3.30729 h -0.767292 z"
       class="gb_40"
       id="path560"
       style="display:block;fill:#eeeeee;stroke-width:0.264583" />
    <path
       fill-rule="evenodd"
       d="m -55.146441,206.98554 h 0.767292 v 3.30729 h -0.767292 z"
       class="gb_40"
       id="path561"
       style="display:block;fill:#eeeeee;stroke-width:0.264583" />
    <path
       fill-rule="evenodd"
       d="m -53.506024,206.98554 h 0.767291 v 3.30729 h -0.767291 z"
       class="gb_40"
       id="path562"
       style="display:block;fill:#eeeeee;stroke-width:0.264583" />
    <path
       fill-rule="evenodd"
       d="m -51.865608,206.98554 h 0.767292 v 3.30729 h -0.767292 z"
       class="gb_40"
       id="path563"
       style="display:block;fill:#eeeeee;stroke-width:0.264583" />
    <path
       fill-rule="evenodd"
       d="m -50.251649,206.98554 h 0.767291 v 3.30729 h -0.767291 z"
       class="gb_40"
       id="path564"
       style="display:block;fill:#eeeeee;stroke-width:0.264583" />
    <path
       fill-rule="evenodd"
       d="m -48.611233,206.98554 h 0.767292 v 3.30729 h -0.767292 z"
       class="gb_40"
       id="path565"
       style="display:block;fill:#eeeeee;stroke-width:0.264583" />
    <path
       fill-rule="evenodd"
       d="m -46.970816,206.98554 h 0.767292 v 3.30729 h -0.767292 z"
       class="gb_40"
       id="path566"
       style="display:block;fill:#eeeeee;stroke-width:0.264583" />
    <path
       fill-rule="evenodd"
       d="m -45.330399,206.98554 h 0.767291 v 3.30729 h -0.767291 z"
       class="gb_40"
       id="path567"
       style="display:block;fill:#eeeeee;stroke-width:0.264583" />
    <path
       fill-rule="evenodd"
       d="m -60.041232,206.98554 h 0.767291 v 3.30729 h -0.767291 z"
       class="gb_40"
       id="path568"
       style="display:block;fill:#eeeeee;stroke-width:0.264583" />
    <path
       fill-rule="evenodd"
       d="m -61.681649,206.98554 h 0.767292 v 3.30729 h -0.767292 z"
       class="gb_40"
       id="path569"
       style="display:block;fill:#eeeeee;stroke-width:0.264583" />
    <path
       fill-rule="evenodd"
       d="m -43.716441,206.98554 h 0.79375 v 3.30729 h -0.79375 z"
       class="gb_40"
       id="path570"
       style="display:block;fill:#eeeeee;stroke-width:0.264583" />
    <path
       fill-rule="evenodd"
       d="m -69.857274,168.56804 h 0.767292 v 3.30729 h -0.767292 z"
       class="gb_40"
       id="path571"
       style="display:block;fill:#eeeeee;stroke-width:0.264583" />
    <path
       fill-rule="evenodd"
       d="m -68.216857,168.56804 h 0.767291 v 3.30729 h -0.767291 z"
       class="gb_40"
       id="path572"
       style="display:block;fill:#eeeeee;stroke-width:0.264583" />
    <path
       fill-rule="evenodd"
       d="m -66.576441,168.56804 h 0.767292 v 3.30729 h -0.767292 z"
       class="gb_40"
       id="path573"
       style="display:block;fill:#eeeeee;stroke-width:0.264583" />
    <path
       fill-rule="evenodd"
       d="m -64.962482,168.56804 h 0.79375 v 3.30729 h -0.79375 z"
       class="gb_40"
       id="path574"
       style="display:block;fill:#eeeeee;stroke-width:0.264583" />
    <path
       fill-rule="evenodd"
       d="m -63.322066,168.56804 h 0.767292 v 3.30729 h -0.767292 z"
       class="gb_40"
       id="path575"
       style="display:block;fill:#eeeeee;stroke-width:0.264583" />
    <path
       fill-rule="evenodd"
       d="m -61.681649,168.56804 h 0.767292 v 3.30729 h -0.767292 z"
       class="gb_40"
       id="path576"
       style="display:block;fill:#eeeeee;stroke-width:0.264583" />
    <path
       fill-rule="evenodd"
       d="m -60.041232,168.56804 h 0.767291 v 3.30729 h -0.767291 z"
       class="gb_40"
       id="path577"
       style="display:block;fill:#eeeeee;stroke-width:0.264583" />
    <path
       fill-rule="evenodd"
       d="m -58.427274,168.56804 h 0.79375 v 3.30729 h -0.79375 z"
       class="gb_40"
       id="path578"
       style="display:block;fill:#eeeeee;stroke-width:0.264583" />
    <path
       fill-rule="evenodd"
       d="m -56.786858,168.56804 h 0.767292 v 3.30729 h -0.767292 z"
       class="gb_40"
       id="path579"
       style="display:block;fill:#eeeeee;stroke-width:0.264583" />
    <path
       fill-rule="evenodd"
       d="m -71.497691,168.56804 h 0.767292 v 3.30729 h -0.767292 z"
       class="gb_40"
       id="path580"
       style="display:block;fill:#eeeeee;stroke-width:0.264583" />
    <path
       fill-rule="evenodd"
       d="m -73.111649,168.56804 h 0.767292 v 3.30729 h -0.767292 z"
       class="gb_40"
       id="path581"
       style="display:block;fill:#eeeeee;stroke-width:0.264583" />
    <path
       fill-rule="evenodd"
       d="m -55.146441,168.56804 h 0.767292 v 3.30729 h -0.767292 z"
       class="gb_40"
       id="path582"
       style="display:block;fill:#eeeeee;stroke-width:0.264583" />
    <path
       fill-rule="evenodd"
       d="m -58.400816,168.56804 h 0.767292 v 3.30729 h -0.767292 z"
       class="gb_40"
       id="path583"
       style="display:block;fill:#eeeeee;stroke-width:0.264583" />
    <path
       fill-rule="evenodd"
       d="m -56.786858,168.56804 h 0.767292 v 3.30729 h -0.767292 z"
       class="gb_40"
       id="path584"
       style="display:block;fill:#eeeeee;stroke-width:0.264583" />
    <path
       fill-rule="evenodd"
       d="m -55.146441,168.56804 h 0.767292 v 3.30729 h -0.767292 z"
       class="gb_40"
       id="path585"
       style="display:block;fill:#eeeeee;stroke-width:0.264583" />
    <path
       fill-rule="evenodd"
       d="m -53.506024,168.56804 h 0.767291 v 3.30729 h -0.767291 z"
       class="gb_40"
       id="path586"
       style="display:block;fill:#eeeeee;stroke-width:0.264583" />
    <path
       fill-rule="evenodd"
       d="m -51.865608,168.56804 h 0.767292 v 3.30729 h -0.767292 z"
       class="gb_40"
       id="path587"
       style="display:block;fill:#eeeeee;stroke-width:0.264583" />
    <path
       fill-rule="evenodd"
       d="m -50.251649,168.56804 h 0.767291 v 3.30729 h -0.767291 z"
       class="gb_40"
       id="path588"
       style="display:block;fill:#eeeeee;stroke-width:0.264583" />
    <path
       fill-rule="evenodd"
       d="m -48.611233,168.56804 h 0.767292 v 3.30729 h -0.767292 z"
       class="gb_40"
       id="path589"
       style="display:block;fill:#eeeeee;stroke-width:0.264583" />
    <path
       fill-rule="evenodd"
       d="m -46.970816,168.56804 h 0.767292 v 3.30729 h -0.767292 z"
       class="gb_40"
       id="path590"
       style="display:block;fill:#eeeeee;stroke-width:0.264583" />
    <path
       fill-rule="evenodd"
       d="m -45.330399,168.56804 h 0.767291 v 3.30729 h -0.767291 z"
       class="gb_40"
       id="path591"
       style="display:block;fill:#eeeeee;stroke-width:0.264583" />
    <path
       fill-rule="evenodd"
       d="m -60.041232,168.56804 h 0.767291 v 3.30729 h -0.767291 z"
       class="gb_40"
       id="path592"
       style="display:block;fill:#eeeeee;stroke-width:0.264583" />
    <path
       fill-rule="evenodd"
       d="m -61.681649,168.56804 h 0.767292 v 3.30729 h -0.767292 z"
       class="gb_40"
       id="path593"
       style="display:block;fill:#eeeeee;stroke-width:0.264583" />
    <path
       fill-rule="evenodd"
       d="m -43.716441,168.56804 h 0.79375 v 3.30729 h -0.79375 z"
       class="gb_40"
       id="path594"
       style="display:block;fill:#eeeeee;stroke-width:0.264583" />
    <path
       fill-rule="evenodd"
       d="m -49.087483,162.93241 v 2.06375 c 0,0.52917 -0.449791,0.97896 -1.005416,0.97896 h -0.714375 v 0.42333 l -0.555625,-0.71437 0.555625,-0.68792 v 0.42333 h 0.714375 c 0.238125,0 0.423333,-0.1852 0.423333,-0.42333 v -2.06375 z"
       class="gf_40"
       id="path595"
       style="display:block;fill:#f3f3f3;stroke-width:0.264583" />
    <path
       d="m -49.087483,162.93241 v 2.06375 c 0,0.52917 -0.449791,0.97896 -1.005416,0.97896 h -0.714375 v 0.42333 l -0.555625,-0.71437 0.555625,-0.68792 v 0.42333 h 0.714375 c 0.238125,0 0.423333,-0.1852 0.423333,-0.42333 v -2.06375 z"
       class="gg_40"
       id="path596"
       style="display:block;fill:none;stroke:#f3f3f3;stroke-width:0.302948;stroke-linejoin:round" />
    <path
       fill-rule="evenodd"
       d="m -89.039565,189.94637 8.043333,0.0794 z"
       class="g1_40"
       id="path597"
       style="display:block;fill:#000000;fill-opacity:0;stroke-width:0.264583" />
    <path
       d="m -89.039565,189.94637 8.043333,0.0794"
       class="g8_40"
       id="path598"
       style="display:block;fill:none;stroke:#f3f3f3;stroke-width:0.60616;stroke-linejoin:round" />
    <path
       fill-rule="evenodd"
       d="m -80.996232,174.04491 0.05292,16.06021 z"
       class="g1_40"
       id="path599"
       style="display:block;fill:#000000;fill-opacity:0;stroke-width:0.264583" />
    <path
       d="m -80.996232,174.04491 0.05292,16.06021"
       class="g9_40"
       id="path600"
       style="display:block;fill:none;stroke:#f3f3f3;stroke-width:0.909373;stroke-linejoin:round" />
    <path
       fill-rule="evenodd"
       d="m -89.039565,184.3372 8.043333,0.0529 z"
       class="g1_40"
       id="path601"
       style="display:block;fill:#000000;fill-opacity:0;stroke-width:0.264583" />
    <path
       d="m -89.039565,184.3372 8.043333,0.0529"
       class="ga_40"
       id="path602"
       style="display:block;fill:none;stroke:#f3f3f3;stroke-width:0.60616;stroke-linejoin:round;stroke-dasharray:2.64583, 1.85208" />
    <path
       fill-rule="evenodd"
       d="m -89.039565,195.31741 8.043333,0.0529 z"
       class="g1_40"
       id="path603"
       style="display:block;fill:#000000;fill-opacity:0;stroke-width:0.264583" />
    <path
       d="m -89.039565,195.31741 8.043333,0.0529"
       class="ga_40"
       id="path604"
       style="display:block;fill:none;stroke:#f3f3f3;stroke-width:0.60616;stroke-linejoin:round;stroke-dasharray:2.64583, 1.85208" />
    <path
       fill-rule="evenodd"
       d="m -76.392482,178.17241 v 0.79375 h -3.307292 v -0.79375 z"
       class="gb_40"
       id="path605"
       style="display:block;fill:#eeeeee;stroke-width:0.264583" />
    <path
       fill-rule="evenodd"
       d="m -76.392482,179.81283 v 0.76729 h -3.307292 v -0.76729 z"
       class="gb_40"
       id="path606"
       style="display:block;fill:#eeeeee;stroke-width:0.264583" />
    <path
       fill-rule="evenodd"
       d="m -76.392482,181.45324 v 0.7673 h -3.307292 v -0.7673 z"
       class="gb_40"
       id="path607"
       style="display:block;fill:#eeeeee;stroke-width:0.264583" />
    <path
       fill-rule="evenodd"
       d="m -76.392482,183.09366 v 0.76729 h -3.307292 v -0.76729 z"
       class="gb_40"
       id="path608"
       style="display:block;fill:#eeeeee;stroke-width:0.264583" />
    <path
       fill-rule="evenodd"
       d="m -76.392482,184.70762 v 0.79375 h -3.307292 v -0.79375 z"
       class="gb_40"
       id="path609"
       style="display:block;fill:#eeeeee;stroke-width:0.264583" />
    <path
       fill-rule="evenodd"
       d="m -76.392482,186.34804 v 0.76729 h -3.307292 v -0.76729 z"
       class="gb_40"
       id="path610"
       style="display:block;fill:#eeeeee;stroke-width:0.264583" />
    <path
       fill-rule="evenodd"
       d="m -76.392482,187.98845 v 0.76729 h -3.307292 v -0.76729 z"
       class="gb_40"
       id="path611"
       style="display:block;fill:#eeeeee;stroke-width:0.264583" />
    <path
       fill-rule="evenodd"
       d="m -76.392482,189.62887 v 0.76729 h -3.307292 v -0.76729 z"
       class="gb_40"
       id="path612"
       style="display:block;fill:#eeeeee;stroke-width:0.264583" />
    <path
       fill-rule="evenodd"
       d="m -76.392482,191.24283 v 0.79375 h -3.307292 v -0.79375 z"
       class="gb_40"
       id="path613"
       style="display:block;fill:#eeeeee;stroke-width:0.264583" />
    <path
       fill-rule="evenodd"
       d="m -76.392482,176.55845 v 0.76729 h -3.307292 v -0.76729 z"
       class="gb_40"
       id="path614"
       style="display:block;fill:#eeeeee;stroke-width:0.264583" />
    <path
       fill-rule="evenodd"
       d="m -76.392482,174.91804 v 0.76729 h -3.307292 v -0.76729 z"
       class="gb_40"
       id="path615"
       style="display:block;fill:#eeeeee;stroke-width:0.264583" />
    <path
       fill-rule="evenodd"
       d="m -76.392482,192.88324 v 0.7673 h -3.307292 v -0.7673 z"
       class="gb_40"
       id="path616"
       style="display:block;fill:#eeeeee;stroke-width:0.264583" />
    <path
       fill-rule="evenodd"
       d="m -85.070815,186.32158 h 2.037291 c 0.555625,0 1.005417,0.44979 1.005417,1.00541 v 0.68792 h 0.396875 l -0.687917,0.58208 -0.687917,-0.58208 h 0.396875 v -0.68792 c 0,-0.23812 -0.185208,-0.42333 -0.423333,-0.42333 h -2.037291 z"
       class="gf_40"
       id="path617"
       style="display:block;fill:#f3f3f3;stroke-width:0.264583" />
    <path
       d="m -85.070815,186.32158 h 2.037291 c 0.555625,0 1.005417,0.44979 1.005417,1.00541 v 0.68792 h 0.396875 l -0.687917,0.58208 -0.687917,-0.58208 h 0.396875 v -0.68792 c 0,-0.23812 -0.185208,-0.42333 -0.423333,-0.42333 h -2.037291 z"
       class="gg_40"
       id="path618"
       style="display:block;fill:none;stroke:#f3f3f3;stroke-width:0.302948;stroke-linejoin:round" />
    <path
       fill-rule="evenodd"
       d="m -89.039565,178.6222 8.043333,0.0529 z"
       class="g1_40"
       id="path619"
       style="display:block;fill:#000000;fill-opacity:0;stroke-width:0.264583" />
    <path
       d="m -89.039565,178.6222 8.043333,0.0529"
       class="ga_40"
       id="path620"
       style="display:block;fill:none;stroke:#f3f3f3;stroke-width:0.60616;stroke-linejoin:round;stroke-dasharray:2.64583, 1.85208" />
    <path
       fill-rule="evenodd"
       d="m -89.039565,201.03241 8.043333,0.0529 z"
       class="g1_40"
       id="path621"
       style="display:block;fill:#000000;fill-opacity:0;stroke-width:0.264583" />
    <path
       d="m -89.039565,201.03241 8.043333,0.0529"
       class="ga_40"
       id="path622"
       style="display:block;fill:none;stroke:#f3f3f3;stroke-width:0.60616;stroke-linejoin:round;stroke-dasharray:2.64583, 1.85208" />
    <path
       fill-rule="evenodd"
       d="m -85.070815,180.60658 h 2.037291 c 0.555625,0 1.005417,0.44979 1.005417,0.97896 v 0.71437 h 0.396875 l -0.687917,0.58208 -0.687917,-0.58208 h 0.396875 v -0.71437 c 0,-0.21167 -0.185208,-0.42334 -0.423333,-0.42334 h -2.037291 z"
       class="gf_40"
       id="path623"
       style="display:block;fill:#f3f3f3;stroke-width:0.264583" />
    <path
       d="m -85.070815,180.60658 h 2.037291 c 0.555625,0 1.005417,0.44979 1.005417,0.97896 v 0.71437 h 0.396875 l -0.687917,0.58208 -0.687917,-0.58208 h 0.396875 v -0.71437 c 0,-0.21167 -0.185208,-0.42334 -0.423333,-0.42334 h -2.037291 z"
       class="gg_40"
       id="path624"
       style="display:block;fill:none;stroke:#f3f3f3;stroke-width:0.302948;stroke-linejoin:round" />
    <path
       fill-rule="evenodd"
       d="m -76.392482,189.62887 v 0.76729 h -3.307292 v -0.76729 z"
       class="gb_40"
       id="path625"
       style="display:block;fill:#eeeeee;stroke-width:0.264583" />
    <path
       fill-rule="evenodd"
       d="m -76.392482,191.26929 v 0.76729 h -3.307292 v -0.76729 z"
       class="gb_40"
       id="path626"
       style="display:block;fill:#eeeeee;stroke-width:0.264583" />
    <path
       fill-rule="evenodd"
       d="m -76.392482,192.88324 v 0.79375 h -3.307292 v -0.79375 z"
       class="gb_40"
       id="path627"
       style="display:block;fill:#eeeeee;stroke-width:0.264583" />
    <path
       fill-rule="evenodd"
       d="m -76.392482,194.52366 v 0.76729 h -3.307292 v -0.76729 z"
       class="gb_40"
       id="path628"
       style="display:block;fill:#eeeeee;stroke-width:0.264583" />
    <path
       fill-rule="evenodd"
       d="m -76.392482,196.16408 v 0.76729 h -3.307292 v -0.76729 z"
       class="gb_40"
       id="path629"
       style="display:block;fill:#eeeeee;stroke-width:0.264583" />
    <path
       fill-rule="evenodd"
       d="m -76.392482,197.80449 v 0.7673 h -3.307292 v -0.7673 z"
       class="gb_40"
       id="path630"
       style="display:block;fill:#eeeeee;stroke-width:0.264583" />
    <path
       fill-rule="evenodd"
       d="m -76.392482,199.41845 v 0.79375 h -3.307292 v -0.79375 z"
       class="gb_40"
       id="path631"
       style="display:block;fill:#eeeeee;stroke-width:0.264583" />
    <path
       fill-rule="evenodd"
       d="m -76.392482,201.05887 v 0.76729 h -3.307292 v -0.76729 z"
       class="gb_40"
       id="path632"
       style="display:block;fill:#eeeeee;stroke-width:0.264583" />
    <path
       fill-rule="evenodd"
       d="m -76.392482,202.69929 v 0.76729 h -3.307292 v -0.76729 z"
       class="gb_40"
       id="path633"
       style="display:block;fill:#eeeeee;stroke-width:0.264583" />
    <path
       fill-rule="evenodd"
       d="m -76.392482,187.98845 v 0.76729 h -3.307292 v -0.76729 z"
       class="gb_40"
       id="path634"
       style="display:block;fill:#eeeeee;stroke-width:0.264583" />
    <path
       fill-rule="evenodd"
       d="m -76.392482,186.34804 v 0.79375 h -3.307292 v -0.79375 z"
       class="gb_40"
       id="path635"
       style="display:block;fill:#eeeeee;stroke-width:0.264583" />
    <path
       fill-rule="evenodd"
       d="m -76.392482,204.3397 v 0.76729 h -3.307292 v -0.76729 z"
       class="gb_40"
       id="path636"
       style="display:block;fill:#eeeeee;stroke-width:0.264583" />
    <path
       fill-rule="evenodd"
       d="m -79.673316,207.75283 v -0.42334 h 3.783542 v 0.42334 z"
       class="g6_40"
       id="path637"
       style="display:block;fill:#999999;stroke-width:0.264583" />
    <path
       d="m -79.673316,207.75283 v -0.42334 h 3.783542 v 0.42334 z"
       class="g7_40"
       id="path638"
       style="display:block;fill:none;stroke:#999999;stroke-width:0.302948;stroke-linejoin:round" />
    <path
       fill-rule="evenodd"
       d="m -79.329357,207.69991 v 0 c -0.185209,0 -0.343959,-0.15875 -0.343959,-0.34396 v -4.445 c 0,-0.0794 0.05292,-0.18521 0.105834,-0.23812 0.07937,-0.0529 0.15875,-0.10584 0.238125,-0.10584 h 1.349375 c 0.185208,0 0.343958,0.15875 0.343958,0.34396 v 4.445 c 0,0.18521 -0.15875,0.34396 -0.343958,0.34396 z"
       class="g6_40"
       id="path639"
       style="display:block;fill:#999999;stroke-width:0.264583" />
    <path
       d="m -79.329357,207.69991 v 0 c -0.185209,0 -0.343959,-0.15875 -0.343959,-0.34396 v -4.445 c 0,-0.0794 0.05292,-0.18521 0.105834,-0.23812 0.07937,-0.0529 0.15875,-0.10584 0.238125,-0.10584 h 1.349375 c 0.185208,0 0.343958,0.15875 0.343958,0.34396 v 4.445 c 0,0.18521 -0.15875,0.34396 -0.343958,0.34396 z"
       class="g7_40"
       id="path640"
       style="display:block;fill:none;stroke:#999999;stroke-width:0.302948;stroke-linejoin:round" />
    <path
       fill-rule="evenodd"
       d="m -78.667899,204.20741 v 0 c -0.3175,0 -0.582083,-0.26458 -0.582083,-0.58208 0,-0.15875 0.05292,-0.3175 0.15875,-0.42334 0.105833,-0.10583 0.264583,-0.15875 0.423333,-0.15875 0.3175,0 0.555625,0.26459 0.555625,0.58209 0,0.3175 -0.238125,0.58208 -0.555625,0.58208 z"
       class="gc_40"
       id="path641"
       style="display:block;fill:#ff0000;stroke-width:0.264583" />
    <path
       fill-rule="evenodd"
       d="m -78.667899,205.82137 v 0 c -0.3175,0 -0.582083,-0.26458 -0.582083,-0.58208 0,-0.15875 0.05292,-0.29105 0.15875,-0.39688 0.105833,-0.10583 0.264583,-0.18521 0.423333,-0.18521 0.3175,0 0.555625,0.26459 0.555625,0.58209 0,0.3175 -0.238125,0.58208 -0.555625,0.58208 z"
       class="gd_40"
       id="path642"
       style="display:block;fill:#f1c232;stroke-width:0.264583" />
    <path
       fill-rule="evenodd"
       d="m -78.667899,207.43533 v 0 c -0.3175,0 -0.582083,-0.23813 -0.582083,-0.55563 0,-0.15875 0.05292,-0.3175 0.15875,-0.42333 0.105833,-0.10583 0.264583,-0.15875 0.423333,-0.15875 0.3175,0 0.555625,0.26458 0.555625,0.58208 0,0.3175 -0.238125,0.55563 -0.555625,0.55563 z"
       class="ge_40"
       id="path643"
       style="display:block;fill:#38761d;stroke-width:0.264583" />
    <path
       fill-rule="evenodd"
       d="m -32.947899,189.60241 -2.275417,-0.0529 z"
       class="g1_40"
       id="path644"
       style="display:block;fill:#000000;fill-opacity:0;stroke-width:0.264583" />
    <path
       d="m -32.947899,189.60241 -2.275417,-0.0529"
       class="g8_40"
       id="path645"
       style="display:block;fill:none;stroke:#f3f3f3;stroke-width:0.60616;stroke-linejoin:round" />
    <path
       fill-rule="evenodd"
       d="m -35.223316,205.31866 -0.05292,-15.84854 z"
       class="g1_40"
       id="path646"
       style="display:block;fill:#000000;fill-opacity:0;stroke-width:0.264583" />
    <path
       d="m -35.223316,205.31866 -0.05292,-15.84854"
       class="g9_40"
       id="path647"
       style="display:block;fill:none;stroke:#f3f3f3;stroke-width:0.909373;stroke-linejoin:round" />
    <path
       fill-rule="evenodd"
       d="m -32.947899,195.21158 -2.275417,-0.0529 z"
       class="g1_40"
       id="path648"
       style="display:block;fill:#000000;fill-opacity:0;stroke-width:0.264583" />
    <path
       d="m -32.947899,195.21158 -2.275417,-0.0529"
       class="ga_40"
       id="path649"
       style="display:block;fill:none;stroke:#f3f3f3;stroke-width:0.60616;stroke-linejoin:round;stroke-dasharray:2.64583, 1.85208" />
    <path
       fill-rule="evenodd"
       d="m -32.947899,184.44304 -2.275417,-0.0529 z"
       class="g1_40"
       id="path650"
       style="display:block;fill:#000000;fill-opacity:0;stroke-width:0.264583" />
    <path
       d="m -32.947899,184.44304 -2.275417,-0.0529"
       class="ga_40"
       id="path651"
       style="display:block;fill:none;stroke:#f3f3f3;stroke-width:0.60616;stroke-linejoin:round;stroke-dasharray:2.64583, 1.85208" />
    <path
       fill-rule="evenodd"
       d="m -39.827066,201.37637 v -0.76729 h 3.307292 v 0.76729 z"
       class="gb_40"
       id="path652"
       style="display:block;fill:#eeeeee;stroke-width:0.264583" />
    <path
       fill-rule="evenodd"
       d="m -39.827066,199.73595 v -0.76729 h 3.307292 v 0.76729 z"
       class="gb_40"
       id="path653"
       style="display:block;fill:#eeeeee;stroke-width:0.264583" />
    <path
       fill-rule="evenodd"
       d="m -39.827066,198.09554 v -0.7673 h 3.307292 v 0.7673 z"
       class="gb_40"
       id="path654"
       style="display:block;fill:#eeeeee;stroke-width:0.264583" />
    <path
       fill-rule="evenodd"
       d="m -39.827066,196.48158 v -0.79375 h 3.307292 v 0.79375 z"
       class="gb_40"
       id="path655"
       style="display:block;fill:#eeeeee;stroke-width:0.264583" />
    <path
       fill-rule="evenodd"
       d="m -39.827066,194.84116 v -0.76729 h 3.307292 v 0.76729 z"
       class="gb_40"
       id="path656"
       style="display:block;fill:#eeeeee;stroke-width:0.264583" />
    <path
       fill-rule="evenodd"
       d="m -39.827066,193.20074 v -0.76729 h 3.307292 v 0.76729 z"
       class="gb_40"
       id="path657"
       style="display:block;fill:#eeeeee;stroke-width:0.264583" />
    <path
       fill-rule="evenodd"
       d="m -39.827066,191.56033 v -0.76729 h 3.307292 v 0.76729 z"
       class="gb_40"
       id="path658"
       style="display:block;fill:#eeeeee;stroke-width:0.264583" />
    <path
       fill-rule="evenodd"
       d="m -39.827066,189.91991 v -0.76729 h 3.307292 v 0.76729 z"
       class="gb_40"
       id="path659"
       style="display:block;fill:#eeeeee;stroke-width:0.264583" />
    <path
       fill-rule="evenodd"
       d="m -39.827066,188.30595 v -0.76729 h 3.307292 v 0.76729 z"
       class="gb_40"
       id="path660"
       style="display:block;fill:#eeeeee;stroke-width:0.264583" />
    <path
       fill-rule="evenodd"
       d="m -39.827066,203.01679 v -0.79375 h 3.307292 v 0.79375 z"
       class="gb_40"
       id="path661"
       style="display:block;fill:#eeeeee;stroke-width:0.264583" />
    <path
       fill-rule="evenodd"
       d="m -39.827066,204.63074 v -0.76729 h 3.307292 v 0.76729 z"
       class="gb_40"
       id="path662"
       style="display:block;fill:#eeeeee;stroke-width:0.264583" />
    <path
       fill-rule="evenodd"
       d="m -39.827066,186.66554 v -0.7673 h 3.307292 v 0.7673 z"
       class="gb_40"
       id="path663"
       style="display:block;fill:#eeeeee;stroke-width:0.264583" />
    <path
       fill-rule="evenodd"
       d="m -32.947899,200.92658 -2.275417,-0.0529 z"
       class="g1_40"
       id="path664"
       style="display:block;fill:#000000;fill-opacity:0;stroke-width:0.264583" />
    <path
       d="m -32.947899,200.92658 -2.275417,-0.0529"
       class="ga_40"
       id="path665"
       style="display:block;fill:none;stroke:#f3f3f3;stroke-width:0.60616;stroke-linejoin:round;stroke-dasharray:2.64583, 1.85208" />
    <path
       fill-rule="evenodd"
       d="m -32.947899,179.12491 -2.275417,-0.0529 z"
       class="g1_40"
       id="path666"
       style="display:block;fill:#000000;fill-opacity:0;stroke-width:0.264583" />
    <path
       d="m -32.947899,179.12491 -2.275417,-0.0529"
       class="ga_40"
       id="path667"
       style="display:block;fill:none;stroke:#f3f3f3;stroke-width:0.60616;stroke-linejoin:round;stroke-dasharray:2.64583, 1.85208" />
    <path
       fill-rule="evenodd"
       d="m -39.827066,189.91991 v -0.76729 h 3.307292 v 0.76729 z"
       class="gb_40"
       id="path668"
       style="display:block;fill:#eeeeee;stroke-width:0.264583" />
    <path
       fill-rule="evenodd"
       d="m -39.827066,188.30595 v -0.79375 h 3.307292 v 0.79375 z"
       class="gb_40"
       id="path669"
       style="display:block;fill:#eeeeee;stroke-width:0.264583" />
    <path
       fill-rule="evenodd"
       d="m -39.827066,186.66554 v -0.7673 h 3.307292 v 0.7673 z"
       class="gb_40"
       id="path670"
       style="display:block;fill:#eeeeee;stroke-width:0.264583" />
    <path
       fill-rule="evenodd"
       d="m -39.827066,185.02512 v -0.76729 h 3.307292 v 0.76729 z"
       class="gb_40"
       id="path671"
       style="display:block;fill:#eeeeee;stroke-width:0.264583" />
    <path
       fill-rule="evenodd"
       d="m -39.827066,183.3847 v -0.76729 h 3.307292 v 0.76729 z"
       class="gb_40"
       id="path672"
       style="display:block;fill:#eeeeee;stroke-width:0.264583" />
    <path
       fill-rule="evenodd"
       d="m -39.827066,181.77074 v -0.79375 h 3.307292 v 0.79375 z"
       class="gb_40"
       id="path673"
       style="display:block;fill:#eeeeee;stroke-width:0.264583" />
    <path
       fill-rule="evenodd"
       d="m -39.827066,180.13033 v -0.76729 h 3.307292 v 0.76729 z"
       class="gb_40"
       id="path674"
       style="display:block;fill:#eeeeee;stroke-width:0.264583" />
    <path
       fill-rule="evenodd"
       d="m -39.827066,178.48991 v -0.76729 h 3.307292 v 0.76729 z"
       class="gb_40"
       id="path675"
       style="display:block;fill:#eeeeee;stroke-width:0.264583" />
    <path
       fill-rule="evenodd"
       d="m -39.827066,176.84949 v -0.76729 h 3.307292 v 0.76729 z"
       class="gb_40"
       id="path676"
       style="display:block;fill:#eeeeee;stroke-width:0.264583" />
    <path
       fill-rule="evenodd"
       d="m -39.827066,191.56033 v -0.76729 h 3.307292 v 0.76729 z"
       class="gb_40"
       id="path677"
       style="display:block;fill:#eeeeee;stroke-width:0.264583" />
    <path
       fill-rule="evenodd"
       d="m -39.827066,193.20074 v -0.76729 h 3.307292 v 0.76729 z"
       class="gb_40"
       id="path678"
       style="display:block;fill:#eeeeee;stroke-width:0.264583" />
    <path
       fill-rule="evenodd"
       d="m -39.827066,175.20908 v -0.76729 h 3.307292 v 0.76729 z"
       class="gb_40"
       id="path679"
       style="display:block;fill:#eeeeee;stroke-width:0.264583" />
    <path
       fill-rule="evenodd"
       d="m -31.201649,193.51824 h -2.06375 c -0.555625,0 -0.978959,-0.42333 -0.978959,-0.97895 v -0.71438 h -0.423333 l 0.687917,-0.55562 0.687916,0.55562 h -0.396875 v 0.71438 c 0,0.23812 0.185209,0.42333 0.423334,0.42333 h 2.06375 z"
       class="gf_40"
       id="path680"
       style="display:block;fill:#f3f3f3;stroke-width:0.264583" />
    <path
       d="m -31.201649,193.51824 h -2.06375 c -0.555625,0 -0.978959,-0.42333 -0.978959,-0.97895 v -0.71438 h -0.423333 l 0.687917,-0.55562 0.687916,0.55562 h -0.396875 v 0.71438 c 0,0.23812 0.185209,0.42333 0.423334,0.42333 h 2.06375 z"
       class="gg_40"
       id="path681"
       style="display:block;fill:none;stroke:#f3f3f3;stroke-width:0.302948;stroke-linejoin:round" />
    <path
       fill-rule="evenodd"
       d="m -31.201649,199.2597 h -2.06375 c -0.555625,0 -0.978959,-0.44979 -0.978959,-1.00541 v -0.71438 h -0.423333 l 0.687917,-0.55562 0.687916,0.55562 h -0.396875 v 0.71438 c 0,0.23812 0.185209,0.42333 0.423334,0.42333 h 2.06375 z"
       class="gf_40"
       id="path682"
       style="display:block;fill:#f3f3f3;stroke-width:0.264583" />
    <path
       d="m -31.201649,199.2597 h -2.06375 c -0.555625,0 -0.978959,-0.44979 -0.978959,-1.00541 v -0.71438 h -0.423333 l 0.687917,-0.55562 0.687916,0.55562 h -0.396875 v 0.71438 c 0,0.23812 0.185209,0.42333 0.423334,0.42333 h 2.06375 z"
       class="gg_40"
       id="path683"
       style="display:block;fill:none;stroke:#f3f3f3;stroke-width:0.302948;stroke-linejoin:round" />
    <path
       fill-rule="evenodd"
       d="m -82.081024,162.13866 h 48.471666 v 2.61938 h -48.471666 z"
       class="g0_40"
       id="path684"
       style="display:block;fill:#ffffff;stroke-width:0.264583" />
    <path
       d="m -82.081024,162.13866 h 48.471666 v 2.61938 h -48.471666 z"
       class="g3_40"
       id="path685"
       style="display:block;fill:none;stroke:#ffffff;stroke-width:0.302948;stroke-linejoin:round" />
    <path
       fill-rule="evenodd"
       d="m -83.007066,164.75804 v 48.47166 h -6.799791 v -48.47166 z"
       class="g0_40"
       id="path686"
       style="display:block;fill:#ffffff;stroke-width:0.264583" />
    <path
       d="m -83.007066,164.75804 v 48.47166 h -6.799791 v -48.47166 z"
       class="g3_40"
       id="path687"
       style="display:block;fill:none;stroke:#ffffff;stroke-width:0.302948;stroke-linejoin:round" />
    <path
       fill-rule="evenodd"
       d="m -31.175191,164.75804 v 48.47166 h -1.957917 v -48.47166 z"
       class="g0_40"
       id="path688"
       style="display:block;fill:#ffffff;stroke-width:0.264583" />
    <path
       d="m -31.175191,164.75804 v 48.47166 h -1.957917 v -48.47166 z"
       class="g3_40"
       id="path689"
       style="display:block;fill:none;stroke:#ffffff;stroke-width:0.302948;stroke-linejoin:round" />
    <path
       fill-rule="evenodd"
       d="m -80.678732,214.68491 h 41.909999 v 5.15938 h -41.909999 z"
       class="g0_40"
       id="path690"
       style="display:block;fill:#ffffff;stroke-width:0.264583" />
    <path
       d="m -80.678732,214.68491 h 41.909999 v 5.15938 h -41.909999 z"
       class="g3_40"
       id="path691"
       style="display:block;fill:none;stroke:#ffffff;stroke-width:0.302948;stroke-linejoin:round" />
    <path
       fill-rule="evenodd"
       d="m -75.598732,163.93783 h 0.423333 v 8.01687 h -0.423333 z"
       class="g6_40"
       id="path692"
       style="display:block;fill:#999999;stroke-width:0.264583" />
    <path
       d="m -75.598732,163.93783 h 0.423333 v 8.01687 h -0.423333 z"
       class="g7_40"
       id="path693"
       style="display:block;fill:none;stroke:#999999;stroke-width:0.302948;stroke-linejoin:round" />
    <path
       fill-rule="evenodd"
       d="m -75.439982,164.25533 v 0 c 0,-0.18521 0.132291,-0.3175 0.3175,-0.3175 h 4.471458 c 0.07938,0 0.15875,0.0265 0.238125,0.0794 0.05292,0.0794 0.07937,0.15875 0.07937,0.23813 v 1.34937 c 0,0.18521 -0.132292,0.34396 -0.3175,0.34396 h -4.471458 c -0.185209,0 -0.3175,-0.15875 -0.3175,-0.34396 z"
       class="g6_40"
       id="path694"
       style="display:block;fill:#999999;stroke-width:0.264583" />
    <path
       d="m -75.439982,164.25533 v 0 c 0,-0.18521 0.132291,-0.3175 0.3175,-0.3175 h 4.471458 c 0.07938,0 0.15875,0.0265 0.238125,0.0794 0.05292,0.0794 0.07937,0.15875 0.07937,0.23813 v 1.34937 c 0,0.18521 -0.132292,0.34396 -0.3175,0.34396 h -4.471458 c -0.185209,0 -0.3175,-0.15875 -0.3175,-0.34396 z"
       class="g7_40"
       id="path695"
       style="display:block;fill:none;stroke:#999999;stroke-width:0.302948;stroke-linejoin:round" />
    <path
       fill-rule="evenodd"
       d="m -71.947482,164.91679 v 0 c 0,-0.3175 0.264583,-0.58209 0.582083,-0.58209 0.15875,0 0.291042,0.0529 0.396875,0.15875 0.105833,0.10584 0.185208,0.26459 0.185208,0.42334 0,0.3175 -0.264583,0.58208 -0.582083,0.58208 -0.3175,0 -0.582083,-0.26458 -0.582083,-0.58208 z"
       class="gc_40"
       id="path696"
       style="display:block;fill:#ff0000;stroke-width:0.264583" />
    <path
       fill-rule="evenodd"
       d="m -73.587899,164.91679 v 0 c 0,-0.3175 0.264583,-0.58209 0.582083,-0.58209 0.15875,0 0.3175,0.0529 0.423334,0.15875 0.105833,0.10584 0.15875,0.26459 0.15875,0.42334 0,0.3175 -0.264584,0.58208 -0.582084,0.58208 -0.3175,0 -0.582083,-0.26458 -0.582083,-0.58208 z"
       class="gd_40"
       id="path697"
       style="display:block;fill:#f1c232;stroke-width:0.264583" />
    <path
       fill-rule="evenodd"
       d="m -75.201857,164.91679 v 0 c 0,-0.3175 0.264583,-0.58209 0.582083,-0.58209 0.15875,0 0.291042,0.0529 0.396875,0.15875 0.105833,0.10584 0.185208,0.26459 0.185208,0.42334 0,0.3175 -0.264583,0.58208 -0.582083,0.58208 -0.3175,0 -0.582083,-0.26458 -0.582083,-0.58208 z"
       class="ge_40"
       id="path698"
       style="display:block;fill:#38761d;stroke-width:0.264583" />
    <path
       fill-rule="evenodd"
       d="m -32.974358,181.1622 v 0 c -8.810625,0 -17.30375,3.36021 -23.547916,9.31334 -6.244167,5.97958 -9.736667,14.04937 -9.736667,22.48958 h 33.284583 z"
       class="g1_40"
       id="path699"
       style="display:block;fill:#000000;fill-opacity:0;stroke-width:0.264583" />
    <path
       fill-rule="evenodd"
       d="m -32.974358,181.1622 v 0 c -8.810625,0 -17.30375,3.36021 -23.547916,9.31334 -6.244167,5.97958 -9.736667,14.04937 -9.736667,22.48958 z"
       class="g1_40"
       id="path700"
       style="display:block;fill:#000000;fill-opacity:0;stroke-width:0.264583" />
    <path
       d="m -37.048941,181.40033 h -0.02646 c -0.264584,0.0529 -0.529167,0.0794 -0.79375,0.10583 -0.555625,0.0794 -1.084792,0.18521 -1.613959,0.26458 -2.143125,0.42334 -4.233333,1.03188 -6.217708,1.82563 -4.021667,1.56104 -7.699375,3.88937 -10.821458,6.87917 -6.244167,5.97958 -9.736667,14.04937 -9.736667,22.48958"
       class="gi_40"
       id="path701"
       style="display:block;fill:none;stroke:#f7981d;stroke-width:0.909373;stroke-linejoin:round" />
    <path
       fill-rule="evenodd"
       d="m -36.996024,182.40574 2.69875,-1.16416 -2.804584,-0.84667 z"
       class="gj_40"
       id="path702"
       style="display:block;fill:#f7981d;stroke:#f7981d;stroke-width:0.909373;stroke-miterlimit:10" />
    <path
       fill-rule="evenodd"
       d="m -34.773524,187.27408 v 0 c -6.879167,-0.0265 -13.49375,2.48708 -18.362084,6.93208 -4.841874,4.445 -7.593541,10.4775 -7.593541,16.74813 h 25.955625 z"
       class="g1_40"
       id="path703"
       style="display:block;fill:#000000;fill-opacity:0;stroke-width:0.264583" />
    <path
       fill-rule="evenodd"
       d="m -34.773524,187.27408 v 0 c -6.879167,-0.0265 -13.49375,2.48708 -18.362084,6.93208 -4.841874,4.445 -7.593541,10.4775 -7.593541,16.74813 z"
       class="g1_40"
       id="path704"
       style="display:block;fill:#000000;fill-opacity:0;stroke-width:0.264583" />
    <path
       d="m -38.848108,187.56512 h -0.07937 c -0.105833,0.0265 -0.211666,0.0265 -0.3175,0.0529 -0.211666,0.0264 -0.423333,0.0529 -0.608541,0.10583 -1.666875,0.29104 -3.307292,0.74083 -4.841875,1.34937 -3.122084,1.16417 -6.006042,2.91042 -8.440209,5.13292 -4.841874,4.445 -7.593541,10.4775 -7.593541,16.74813"
       class="gi_40"
       id="path705"
       style="display:block;fill:none;stroke:#f7981d;stroke-width:0.909373;stroke-linejoin:round" />
    <path
       fill-rule="evenodd"
       d="m -38.795191,188.57054 2.69875,-1.21709 -2.831042,-0.79375 z"
       class="gj_40"
       id="path706"
       style="display:block;fill:#f7981d;stroke:#f7981d;stroke-width:0.909373;stroke-miterlimit:10" />
    <path
       fill-rule="evenodd"
       d="m -67.767066,213.25616 v 0 c 0,-0.0265 0.02646,-0.0265 0.05292,-0.0265 h 0.185208 q 0.02646,0 0.05292,0 c 0,0 0,0.0265 0,0.0265 v 0.79375 c 0,0.0265 -0.02646,0.0529 -0.05292,0.0529 h -0.185208 c -0.02646,0 -0.05292,-0.0265 -0.05292,-0.0529 z"
       class="gk_40"
       id="path707"
       style="display:block;fill:#000000;stroke-width:0.264583" />
    <path
       fill-rule="evenodd"
       d="m -65.200607,213.25616 v 0 c 0,-0.0265 0.02646,-0.0265 0.05292,-0.0265 h 0.238125 c 0,0 0,0.0265 0,0.0265 v 0.79375 c 0,0.0265 0,0.0529 -0.02646,0.0529 h -0.211667 c -0.02646,0 -0.05292,-0.0265 -0.05292,-0.0529 z"
       class="gk_40"
       id="path708"
       style="display:block;fill:#000000;stroke-width:0.264583" />
    <path
       fill-rule="evenodd"
       d="m -67.767066,216.48408 v 0 c 0,-0.0265 0.02646,-0.0529 0.05292,-0.0529 h 0.185208 q 0.02646,0 0.05292,0 0,0.0265 0,0.0529 v 0.76729 c 0,0.0265 -0.02646,0.0529 -0.05292,0.0529 h -0.185208 c -0.02646,0 -0.05292,-0.0265 -0.05292,-0.0529 z"
       class="gk_40"
       id="path709"
       style="display:block;fill:#000000;stroke-width:0.264583" />
    <path
       fill-rule="evenodd"
       d="m -65.200607,216.48408 v 0 c 0,-0.0265 0.02646,-0.0529 0.05292,-0.0529 h 0.238125 q 0,0.0265 0,0.0529 v 0.76729 c 0,0.0265 0,0.0529 -0.02646,0.0529 h -0.211667 c -0.02646,0 -0.05292,-0.0265 -0.05292,-0.0529 z"
       class="gk_40"
       id="path710"
       style="display:block;fill:#000000;stroke-width:0.264583" />
    <path
       fill-rule="evenodd"
       d="m -67.661232,213.15033 v 0 c 0,-0.39688 0.343958,-0.74084 0.740833,-0.74084 h 1.217083 c 0.185209,0 0.370417,0.0794 0.529167,0.21167 0.132292,0.15875 0.211667,0.34396 0.211667,0.52917 v 4.20687 c 0,0.39688 -0.343959,0.74084 -0.740834,0.74084 h -1.217083 c -0.396875,0 -0.740833,-0.34396 -0.740833,-0.74084 z"
       class="gl_40"
       id="path711"
       style="display:block;fill:#3d85c6;stroke-width:0.264583" />
    <path
       fill-rule="evenodd"
       d="m -66.576441,212.38304 v 0 q 0,-0.0265 0.02646,-0.0265 h 0.449791 q 0.02646,0 0.02646,0 v 0.10583 h -0.47625 q -0.02646,0 -0.02646,0 z"
       class="gm_40"
       id="path712"
       style="display:block;fill:#efefef;stroke-width:0.264583" />
    <path
       fill-rule="evenodd"
       d="m -67.264357,212.64762 0.02646,0.15875 0.185208,-0.0529 0.05292,-0.0265 0.02646,-0.0265 v -0.0529 l -0.02646,-0.0265 -0.05292,-0.0265 -0.07937,0.0265 z"
       class="g0_40"
       id="path713"
       style="display:block;fill:#ffffff;stroke-width:0.264583" />
    <path
       fill-rule="evenodd"
       d="m -65.359357,212.64762 -0.02646,0.15875 -0.211666,-0.0529 -0.05292,-0.0265 -0.02646,-0.0265 v -0.0529 l 0.02646,-0.0265 0.05292,-0.0265 0.07937,0.0265 z"
       class="g0_40"
       id="path714"
       style="display:block;fill:#ffffff;stroke-width:0.264583" />
    <path
       fill-rule="evenodd"
       d="m -67.343732,214.20866 0.185208,0.55563 0.02646,0.0529 0.05292,0.0265 h 1.481667 l 0.05292,-0.0265 0.05292,-0.0529 0.185208,-0.47625 v -0.0529 l -0.05292,-0.0529 -0.211667,-0.0794 -0.291042,-0.0794 -0.238125,-0.0265 h -0.291041 l -0.185209,0.0265 h -0.132291 l -0.15875,0.0265 -0.15875,0.0529 -0.132292,0.0265 -0.132292,0.0529 z"
       class="gn_40"
       id="path715"
       style="display:block;fill:#9fc5e8;stroke-width:0.264583" />
    <path
       d="m -67.343732,214.20866 0.185208,0.55563 0.02646,0.0529 0.05292,0.0265 h 1.481667 l 0.05292,-0.0265 0.05292,-0.0529 0.185208,-0.47625 v -0.0529 l -0.05292,-0.0529 -0.211667,-0.0794 -0.291042,-0.0794 -0.238125,-0.0265 h -0.291041 l -0.185209,0.0265 h -0.132291 l -0.15875,0.0265 -0.15875,0.0529 -0.132292,0.0265 -0.132292,0.0529 z"
       class="go_40"
       id="path716"
       style="display:block;fill:none;stroke:#073763;stroke-width:0.302948;stroke-linejoin:round" />
    <path
       fill-rule="evenodd"
       d="m -67.502482,214.39387 v 2.88396 l 0.05292,0.0265 0.211667,-0.18521 0.07937,-0.13229 0.02646,-0.0794 -0.02646,-1.66687 -0.02646,-0.10584 -0.07937,-0.23812 -0.07937,-0.21167 z"
       class="gn_40"
       id="path717"
       style="display:block;fill:#9fc5e8;stroke-width:0.264583" />
    <path
       d="m -67.502482,214.39387 v 2.88396 l 0.05292,0.0265 0.211667,-0.18521 0.07937,-0.13229 0.02646,-0.0794 -0.02646,-1.66687 -0.02646,-0.10584 -0.07937,-0.23812 -0.07937,-0.21167 z"
       class="go_40"
       id="path718"
       style="display:block;fill:none;stroke:#073763;stroke-width:0.302948;stroke-linejoin:round" />
    <path
       fill-rule="evenodd"
       d="m -65.121232,214.44679 v 2.8575 l -0.05292,0.0264 -0.211667,-0.1852 -0.05292,-0.10584 -0.05292,-0.10583 0.02646,-1.66688 0.02646,-0.10583 0.07937,-0.21167 0.105833,-0.23812 z"
       class="gn_40"
       id="path719"
       style="display:block;fill:#9fc5e8;stroke-width:0.264583" />
    <path
       d="m -65.121232,214.44679 v 2.8575 l -0.05292,0.0264 -0.211667,-0.1852 -0.05292,-0.10584 -0.05292,-0.10583 0.02646,-1.66688 0.02646,-0.10583 0.07937,-0.21167 0.105833,-0.23812 z"
       class="go_40"
       id="path720"
       style="display:block;fill:none;stroke:#073763;stroke-width:0.302948;stroke-linejoin:round" />
    <path
       fill-rule="evenodd"
       d="m -67.502482,214.36741 h -0.185209 l -0.07937,0.0265 -0.05292,0.0529 -0.02646,0.0265 v 0.0529 l 0.05292,0.0265 0.05292,0.0265 0.105833,0.0265 h 0.07937 l 0.05292,-0.0265 0.02646,-0.0529 0.02646,-0.0265 v -0.0529 l -0.02646,-0.0529 z"
       class="gp_40"
       id="path721"
       style="display:block;fill:#0b5394;stroke-width:0.264583" />
    <path
       fill-rule="evenodd"
       d="m -65.147691,214.36741 h 0.211667 l 0.05292,0.0265 0.05292,0.0529 0.02646,0.0265 v 0.0529 l -0.05292,0.0265 -0.05292,0.0265 -0.105833,0.0265 h -0.05292 l -0.05292,-0.0265 -0.05292,-0.0529 -0.02646,-0.0265 v -0.0529 l 0.02646,-0.0529 z"
       class="gp_40"
       id="path722"
       style="display:block;fill:#0b5394;stroke-width:0.264583" />
    <path
       fill-rule="evenodd"
       d="m -66.576441,218.01866 v 0 c 0,0 0,-0.0265 0.02646,-0.0265 h 0.449791 c 0.02646,0 0.02646,0.0265 0.02646,0.0265 v 0.0794 q 0,0.0265 -0.02646,0.0265 h -0.449791 q -0.02646,0 -0.02646,-0.0265 z"
       class="gm_40"
       id="path723"
       style="display:block;fill:#efefef;stroke-width:0.264583" />
    <path
       fill-rule="evenodd"
       d="m -67.264357,218.12449 0.02646,-0.1852 0.185208,0.0529 0.05292,0.0265 0.02646,0.0265 v 0.0794 l -0.02646,0.0265 h -0.132292 z"
       class="gp_40"
       id="path724"
       style="display:block;fill:#0b5394;stroke-width:0.264583" />
    <path
       fill-rule="evenodd"
       d="m -65.359357,218.12449 -0.02646,-0.1852 -0.211666,0.0529 -0.05292,0.0265 -0.02646,0.0265 v 0.0794 l 0.02646,0.0265 h 0.132292 z"
       class="gp_40"
       id="path725"
       style="display:block;fill:#0b5394;stroke-width:0.264583" />
    <path
       fill-rule="evenodd"
       d="m -66.999774,217.19845 h -0.05292 l -0.343958,0.29104 -0.02646,0.0794 v 0.0529 l 0.105833,0.0794 0.132292,0.0529 0.211666,0.0529 0.211667,0.0265 0.238125,0.0265 h 0.238125 l 0.238125,-0.0265 h 0.238125 l 0.264583,-0.0529 0.185209,-0.0529 0.105833,-0.10583 0.02646,-0.0529 -0.02646,-0.0794 -0.3175,-0.26458 -0.05292,-0.0265 -0.343958,-0.0265 h -0.423333 l -0.291042,0.0265 z"
       class="gn_40"
       id="path726"
       style="display:block;fill:#9fc5e8;stroke-width:0.264583" />
    <path
       d="m -66.999774,217.19845 h -0.05292 l -0.343958,0.29104 -0.02646,0.0794 v 0.0529 l 0.105833,0.0794 0.132292,0.0529 0.211666,0.0529 0.211667,0.0265 0.238125,0.0265 h 0.238125 l 0.238125,-0.0265 h 0.238125 l 0.264583,-0.0529 0.185209,-0.0529 0.105833,-0.10583 0.02646,-0.0529 -0.02646,-0.0794 -0.3175,-0.26458 -0.05292,-0.0265 -0.343958,-0.0265 h -0.423333 l -0.291042,0.0265 z"
       class="go_40"
       id="path727"
       style="display:block;fill:none;stroke:#073763;stroke-width:0.302948;stroke-linejoin:round" />
    <path
       fill-rule="evenodd"
       d="m -66.973316,212.64762 c 0.05292,0 0.211667,-0.0265 0.343959,-0.0265 0.132291,0 0.3175,0 0.449791,0 0.105834,0 0.15875,0 0.264584,0.0265 0.07937,0 0.185208,0 0.211666,0.0265 z"
       class="g1_40"
       id="path728"
       style="display:block;fill:#000000;fill-opacity:0;stroke-width:0.264583" />
    <path
       d="m -66.973316,212.64762 c 0.05292,0 0.211667,-0.0265 0.343959,-0.0265 0.132291,0 0.3175,0 0.449791,0 0.105834,0 0.15875,0 0.264584,0.0265 0.07937,0 0.185208,0 0.211666,0.0265"
       class="go_40"
       id="path729"
       style="display:block;fill:none;stroke:#073763;stroke-width:0.302948;stroke-linejoin:round" />
    <path
       fill-rule="evenodd"
       d="m -67.370191,212.80637 c 0,0 -0.02646,0.0265 -0.05292,0.0529 0,0.0529 0,0.0794 -0.02646,0.1852 0,0.0794 -0.02646,0.21167 -0.05292,0.3175 0,0.10584 0,0.18521 0,0.29105 0,0.0794 0.02646,0.15875 0.02646,0.23812 0.02646,0.10583 0.07937,0.26458 0.105833,0.3175 z"
       class="g1_40"
       id="path730"
       style="display:block;fill:#000000;fill-opacity:0;stroke-width:0.264583" />
    <path
       d="m -67.370191,212.80637 c 0,0 -0.02646,0.0265 -0.05292,0.0529 0,0.0529 0,0.0794 -0.02646,0.1852 0,0.0794 -0.02646,0.21167 -0.05292,0.3175 0,0.10584 0,0.18521 0,0.29105 0,0.0794 0.02646,0.15875 0.02646,0.23812 0.02646,0.10583 0.07937,0.26458 0.105833,0.3175"
       class="go_40"
       id="path731"
       style="display:block;fill:none;stroke:#073763;stroke-width:0.302948;stroke-linejoin:round" />
    <path
       fill-rule="evenodd"
       d="m -65.279982,212.77991 c 0,0.0265 0.02646,0.0529 0.02646,0.0794 0.02646,0.0529 0.02646,0.0794 0.02646,0.13229 0.02646,0.0529 0.05292,0.15875 0.05292,0.23812 0,0.0794 0.02646,0.15875 0.02646,0.23813 0,0.0794 -0.02646,0.21166 -0.02646,0.26458 0,0.0794 0.02646,0.0529 0,0.13229 -0.02646,0.0794 -0.07937,0.26459 -0.105833,0.3175 z"
       class="g1_40"
       id="path732"
       style="display:block;fill:#000000;fill-opacity:0;stroke-width:0.264583" />
    <path
       d="m -65.279982,212.77991 c 0,0.0265 0.02646,0.0529 0.02646,0.0794 0.02646,0.0529 0.02646,0.0794 0.02646,0.13229 0.02646,0.0529 0.05292,0.15875 0.05292,0.23812 0,0.0794 0.02646,0.15875 0.02646,0.23813 0,0.0794 -0.02646,0.21166 -0.02646,0.26458 0,0.0794 0.02646,0.0529 0,0.13229 -0.02646,0.0794 -0.07937,0.26459 -0.105833,0.3175"
       class="go_40"
       id="path733"
       style="display:block;fill:none;stroke:#073763;stroke-width:0.302948;stroke-linejoin:round" />
    <path
       fill-rule="evenodd"
       d="m -66.073732,214.15574 -0.79375,0.55563 -0.105834,0.0265 -0.07937,-0.0265 -0.05292,-0.0265 -0.02646,-0.0265 -0.132291,-0.34396 v -0.0529 h 0.02646 l 0.211667,-0.0794 0.211666,-0.0265 0.264584,-0.0265 h 0.343958 z"
       class="gq_40"
       id="path734"
       style="display:block;fill:#cfe2f3;stroke-width:0.264583" />
    <path
       fill-rule="evenodd"
       d="m -62.210816,212.96512 v 0 c 0,-0.0265 0.02646,-0.0529 0.05292,-0.0529 h 0.185208 q 0.02646,0 0.05292,0 0,0.0265 0,0.0529 v 0.76729 c 0,0.0265 0,0.0529 -0.05292,0.0529 h -0.185208 c -0.02646,0 -0.05292,-0.0265 -0.05292,-0.0529 z"
       class="gk_40"
       id="path735"
       style="display:block;fill:#000000;stroke-width:0.264583" />
    <path
       fill-rule="evenodd"
       d="m -59.617899,212.96512 v 0 c 0,-0.0265 0,-0.0529 0.02646,-0.0529 h 0.211667 c 0,0 0.02646,0 0.02646,0 0,0.0265 0.02646,0.0265 0.02646,0.0529 v 0.76729 c 0,0.0265 -0.02646,0.0529 -0.05292,0.0529 h -0.211667 c -0.02646,0 -0.02646,-0.0265 -0.02646,-0.0529 z"
       class="gk_40"
       id="path736"
       style="display:block;fill:#000000;stroke-width:0.264583" />
    <path
       fill-rule="evenodd"
       d="m -62.210816,216.16658 v 0 c 0,-0.0265 0.02646,-0.0529 0.05292,-0.0529 h 0.185208 q 0.02646,0 0.05292,0.0265 v 0.79375 c 0,0.0265 0,0.0529 -0.05292,0.0529 h -0.185208 c -0.02646,0 -0.05292,-0.0265 -0.05292,-0.0529 z"
       class="gk_40"
       id="path737"
       style="display:block;fill:#000000;stroke-width:0.264583" />
    <path
       fill-rule="evenodd"
       d="m -59.617899,216.16658 v 0 c 0,-0.0265 0,-0.0529 0.02646,-0.0529 h 0.211667 c 0,0 0.02646,0 0.02646,0.0265 0,0 0.02646,0 0.02646,0.0265 v 0.76729 c 0,0.0265 -0.02646,0.0529 -0.05292,0.0529 h -0.211667 c -0.02646,0 -0.02646,-0.0265 -0.02646,-0.0529 z"
       class="gk_40"
       id="path738"
       style="display:block;fill:#000000;stroke-width:0.264583" />
    <path
       fill-rule="evenodd"
       d="m -62.104982,212.85929 v 0 c 0,-0.42334 0.343958,-0.7673 0.740833,-0.7673 h 1.217083 c 0.185209,0 0.396875,0.0794 0.529167,0.23813 0.132292,0.13229 0.211667,0.3175 0.211667,0.52917 v 4.18041 c 0,0.39688 -0.343959,0.74084 -0.740834,0.74084 h -1.217083 c -0.396875,0 -0.740833,-0.34396 -0.740833,-0.74084 z"
       class="gl_40"
       id="path739"
       style="display:block;fill:#3d85c6;stroke-width:0.264583" />
    <path
       fill-rule="evenodd"
       d="m -61.020191,212.06554 v 0 c 0,0 0.02646,-0.0265 0.02646,-0.0265 h 0.47625 q 0,0.0265 0,0.0265 v 0.0794 c 0,0 0,0.0265 0,0.0265 h -0.47625 c 0,0 -0.02646,-0.0265 -0.02646,-0.0265 z"
       class="gm_40"
       id="path740"
       style="display:block;fill:#efefef;stroke-width:0.264583" />
    <path
       fill-rule="evenodd"
       d="m -61.708107,212.33012 0.02646,0.15875 0.185208,-0.0529 h 0.05292 l 0.02646,-0.0265 v -0.0794 l -0.02646,-0.0265 h -0.132292 z"
       class="g0_40"
       id="path741"
       style="display:block;fill:#ffffff;stroke-width:0.264583" />
    <path
       fill-rule="evenodd"
       d="m -59.803107,212.33012 -0.02646,0.15875 -0.211666,-0.0529 h -0.05292 l -0.02646,-0.0265 v -0.0265 l 0.02646,-0.0529 v -0.0265 h 0.15875 z"
       class="g0_40"
       id="path742"
       style="display:block;fill:#ffffff;stroke-width:0.264583" />
    <path
       fill-rule="evenodd"
       d="m -61.787482,213.89116 0.185208,0.58208 0.02646,0.0265 0.05292,0.0265 h 1.481667 l 0.05292,-0.0265 0.05292,-0.0265 0.185208,-0.5027 v -0.0529 l -0.05292,-0.0529 -0.185209,-0.0794 -0.3175,-0.0529 -0.238125,-0.0265 h -0.582083 l -0.185208,0.0265 -0.15875,0.0529 -0.132292,0.0265 -0.132292,0.0529 z"
       class="gn_40"
       id="path743"
       style="display:block;fill:#9fc5e8;stroke-width:0.264583" />
    <path
       d="m -61.787482,213.89116 0.185208,0.58208 0.02646,0.0265 0.05292,0.0265 h 1.481667 l 0.05292,-0.0265 0.05292,-0.0265 0.185208,-0.5027 v -0.0529 l -0.05292,-0.0529 -0.185209,-0.0794 -0.3175,-0.0529 -0.238125,-0.0265 h -0.582083 l -0.185208,0.0265 -0.15875,0.0529 -0.132292,0.0265 -0.132292,0.0529 z"
       class="go_40"
       id="path744"
       style="display:block;fill:none;stroke:#073763;stroke-width:0.302948;stroke-linejoin:round" />
    <path
       fill-rule="evenodd"
       d="m -61.946232,214.10283 v 2.80458 l 0.02646,0.0529 0.05292,0.0265 0.211666,-0.18521 0.05292,-0.10584 0.02646,-0.10583 -0.02646,-1.64042 -0.02646,-0.13229 -0.07937,-0.21166 -0.07937,-0.21167 z"
       class="gn_40"
       id="path745"
       style="display:block;fill:#9fc5e8;stroke-width:0.264583" />
    <path
       d="m -61.946232,214.10283 v 2.80458 l 0.02646,0.0529 0.05292,0.0265 0.211666,-0.18521 0.05292,-0.10584 0.02646,-0.10583 -0.02646,-1.64042 -0.02646,-0.13229 -0.07937,-0.21166 -0.07937,-0.21167 z"
       class="go_40"
       id="path746"
       style="display:block;fill:none;stroke:#073763;stroke-width:0.302948;stroke-linejoin:round" />
    <path
       fill-rule="evenodd"
       d="m -59.538524,214.12929 v 2.83104 l -0.02646,0.0529 h -0.05292 l -0.211667,-0.1852 -0.05292,-0.10584 -0.05292,-0.10583 0.05292,-1.64042 v -0.13229 l 0.07938,-0.21167 0.105833,-0.21166 z"
       class="gn_40"
       id="path747"
       style="display:block;fill:#9fc5e8;stroke-width:0.264583" />
    <path
       d="m -59.538524,214.12929 v 2.83104 l -0.02646,0.0529 h -0.05292 l -0.211667,-0.1852 -0.05292,-0.10584 -0.05292,-0.10583 0.05292,-1.64042 v -0.13229 l 0.07938,-0.21167 0.105833,-0.21166 z"
       class="go_40"
       id="path748"
       style="display:block;fill:none;stroke:#073763;stroke-width:0.302948;stroke-linejoin:round" />
    <path
       fill-rule="evenodd"
       d="m -61.946232,214.07637 -0.05292,-0.0265 h -0.07937 l -0.05292,0.0265 -0.07937,0.0265 -0.05292,0.0265 v 0.0794 l 0.02646,0.0529 0.05292,0.0265 h 0.185208 l 0.05292,-0.0265 0.05292,-0.0529 v -0.0794 l -0.02646,-0.0265 z"
       class="gp_40"
       id="path749"
       style="display:block;fill:#0b5394;stroke-width:0.264583" />
    <path
       fill-rule="evenodd"
       d="m -59.564982,214.07637 0.05292,-0.0265 h 0.07937 l 0.05292,0.0265 0.07937,0.0265 0.05292,0.0265 v 0.0794 l -0.02646,0.0529 -0.07937,0.0265 h -0.15875 l -0.05292,-0.0265 -0.05292,-0.0529 v -0.10583 z"
       class="gp_40"
       id="path750"
       style="display:block;fill:#0b5394;stroke-width:0.264583" />
    <path
       fill-rule="evenodd"
       d="m -61.020191,217.72762 v 0 c 0,-0.0265 0.02646,-0.0265 0.02646,-0.0265 h 0.47625 v 0.10583 h -0.47625 c 0,0 -0.02646,0 -0.02646,0 z"
       class="gm_40"
       id="path751"
       style="display:block;fill:#efefef;stroke-width:0.264583" />
    <path
       fill-rule="evenodd"
       d="m -61.708107,217.80699 0.02646,-0.15875 0.185208,0.0529 h 0.05292 l 0.02646,0.0265 v 0.0794 l -0.02646,0.0265 h -0.132292 z"
       class="gp_40"
       id="path752"
       style="display:block;fill:#0b5394;stroke-width:0.264583" />
    <path
       fill-rule="evenodd"
       d="m -59.803107,217.80699 -0.02646,-0.15875 -0.211666,0.0529 h -0.05292 l -0.02646,0.0265 v 0.0265 l 0.02646,0.0529 v 0.0265 h 0.15875 z"
       class="gp_40"
       id="path753"
       style="display:block;fill:#0b5394;stroke-width:0.264583" />
    <path
       fill-rule="evenodd"
       d="m -61.443524,216.88095 h -0.05292 l -0.343958,0.3175 -0.02646,0.0529 v 0.0794 l 0.105833,0.0529 0.15875,0.0529 0.185208,0.0529 0.238125,0.0265 0.211667,0.0265 h 0.47625 l 0.238125,-0.0265 0.264583,-0.0529 0.185209,-0.0529 0.132291,-0.0794 0.02646,-0.0794 -0.05292,-0.0529 -0.3175,-0.29104 -0.02646,-0.0265 h -1.084792 z"
       class="gn_40"
       id="path754"
       style="display:block;fill:#9fc5e8;stroke-width:0.264583" />
    <path
       d="m -61.443524,216.88095 h -0.05292 l -0.343958,0.3175 -0.02646,0.0529 v 0.0794 l 0.105833,0.0529 0.15875,0.0529 0.185208,0.0529 0.238125,0.0265 0.211667,0.0265 h 0.47625 l 0.238125,-0.0265 0.264583,-0.0529 0.185209,-0.0529 0.132291,-0.0794 0.02646,-0.0794 -0.05292,-0.0529 -0.3175,-0.29104 -0.02646,-0.0265 h -1.084792 z"
       class="go_40"
       id="path755"
       style="display:block;fill:none;stroke:#073763;stroke-width:0.302948;stroke-linejoin:round" />
    <path
       fill-rule="evenodd"
       d="m -61.417066,212.35658 c 0.05292,0 0.211667,-0.0265 0.343959,-0.0265 0.132291,-0.0265 0.343958,-0.0265 0.449791,-0.0265 0.105834,0.0265 0.185209,0.0265 0.264584,0.0265 0.07938,0 0.185208,0.0265 0.238125,0.0265 z"
       class="g1_40"
       id="path756"
       style="display:block;fill:#000000;fill-opacity:0;stroke-width:0.264583" />
    <path
       d="m -61.417066,212.35658 c 0.05292,0 0.211667,-0.0265 0.343959,-0.0265 0.132291,-0.0265 0.343958,-0.0265 0.449791,-0.0265 0.105834,0.0265 0.185209,0.0265 0.264584,0.0265 0.07938,0 0.185208,0.0265 0.238125,0.0265"
       class="go_40"
       id="path757"
       style="display:block;fill:none;stroke:#073763;stroke-width:0.302948;stroke-linejoin:round" />
    <path
       fill-rule="evenodd"
       d="m -61.813941,212.48887 c 0,0.0265 -0.02646,0.0265 -0.02646,0.0529 -0.02646,0.0529 -0.02646,0.10583 -0.05292,0.1852 0,0.0794 -0.02646,0.21167 -0.05292,0.3175 0,0.10584 0,0.21167 0,0.29105 0,0.0794 0.02646,0.15875 0.05292,0.26458 0,0.0794 0.05292,0.23812 0.07937,0.29104 z"
       class="g1_40"
       id="path758"
       style="display:block;fill:#000000;fill-opacity:0;stroke-width:0.264583" />
    <path
       d="m -61.813941,212.48887 c 0,0.0265 -0.02646,0.0265 -0.02646,0.0529 -0.02646,0.0529 -0.02646,0.10583 -0.05292,0.1852 0,0.0794 -0.02646,0.21167 -0.05292,0.3175 0,0.10584 0,0.21167 0,0.29105 0,0.0794 0.02646,0.15875 0.05292,0.26458 0,0.0794 0.05292,0.23812 0.07937,0.29104"
       class="go_40"
       id="path759"
       style="display:block;fill:none;stroke:#073763;stroke-width:0.302948;stroke-linejoin:round" />
    <path
       fill-rule="evenodd"
       d="m -59.723732,212.48887 c 0,0 0.02646,0.0265 0.02646,0.0794 0.02646,0.0265 0.02646,0.0529 0.05292,0.10584 0,0.0794 0.02646,0.15875 0.02646,0.23812 0.02646,0.0794 0.02646,0.15875 0.02646,0.23813 0,0.10583 -0.02646,0.21166 -0.02646,0.29104 0,0.0529 0.02646,0.0265 0,0.10583 0,0.0794 -0.07937,0.29104 -0.105833,0.34396 z"
       class="g1_40"
       id="path760"
       style="display:block;fill:#000000;fill-opacity:0;stroke-width:0.264583" />
    <path
       d="m -59.723732,212.48887 c 0,0 0.02646,0.0265 0.02646,0.0794 0.02646,0.0265 0.02646,0.0529 0.05292,0.10584 0,0.0794 0.02646,0.15875 0.02646,0.23812 0.02646,0.0794 0.02646,0.15875 0.02646,0.23813 0,0.10583 -0.02646,0.21166 -0.02646,0.29104 0,0.0529 0.02646,0.0265 0,0.10583 0,0.0794 -0.07937,0.29104 -0.105833,0.34396"
       class="go_40"
       id="path761"
       style="display:block;fill:none;stroke:#073763;stroke-width:0.302948;stroke-linejoin:round" />
    <path
       fill-rule="evenodd"
       d="m -60.491024,213.83824 -0.820208,0.58209 h -0.105834 l -0.07937,-0.0265 -0.05292,-0.0265 -0.02646,-0.0265 -0.132291,-0.34396 v -0.0265 l 0.02646,-0.0265 0.211667,-0.0529 0.238125,-0.0265 0.238125,-0.0265 0.15875,-0.0265 0.185208,0.0265 z"
       class="gq_40"
       id="path762"
       style="display:block;fill:#cfe2f3;stroke-width:0.264583" />
  </g>
</svg>
