<?xml version="1.0" encoding="UTF-8" standalone="no"?>
<!-- Created with Inkscape (http://www.inkscape.org/) -->

<svg
   width="100.873mm"
   height="63.210999mm"
   viewBox="0 0 100.873 63.210998"
   version="1.1"
   id="svg1"
   inkscape:version="1.3.2 (1:1.3.2+202311252150+091e20ef0f)"
   sodipodi:docname="vm-04-01_1.svg"
   xmlns:inkscape="http://www.inkscape.org/namespaces/inkscape"
   xmlns:sodipodi="http://sodipodi.sourceforge.net/DTD/sodipodi-0.dtd"
   xmlns="http://www.w3.org/2000/svg"
   xmlns:svg="http://www.w3.org/2000/svg">
  <sodipodi:namedview
     id="namedview1"
     pagecolor="#ffffff"
     bordercolor="#000000"
     borderopacity="0.25"
     inkscape:showpageshadow="2"
     inkscape:pageopacity="0.0"
     inkscape:pagecheckerboard="0"
     inkscape:deskcolor="#d1d1d1"
     inkscape:document-units="mm"
     inkscape:zoom="0.72693603"
     inkscape:cx="179.52061"
     inkscape:cy="108.67531"
     inkscape:window-width="1850"
     inkscape:window-height="1016"
     inkscape:window-x="369"
     inkscape:window-y="2187"
     inkscape:window-maximized="1"
     inkscape:current-layer="layer1" />
  <defs
     id="defs1">
    <clipPath
       id="c0_50">
      <path
         d="M 0,825 V 0 h 1100 v 825 z"
         id="path2" />
    </clipPath>
    <clipPath
       id="clipPath1">
      <path
         d="M 0,825 V 0 h 1100 v 825 z"
         id="path1" />
    </clipPath>
    <clipPath
       id="clipPath3">
      <path
         d="M 0,825 V 0 h 1100 v 825 z"
         id="path3" />
    </clipPath>
    <clipPath
       id="clipPath4">
      <path
         d="M 0,825 V 0 h 1100 v 825 z"
         id="path4" />
    </clipPath>
    <clipPath
       id="clipPath5">
      <path
         d="M 0,825 V 0 h 1100 v 825 z"
         id="path5" />
    </clipPath>
    <clipPath
       id="clipPath6">
      <path
         d="M 0,825 V 0 h 1100 v 825 z"
         id="path6" />
    </clipPath>
    <clipPath
       id="clipPath7">
      <path
         d="M 0,825 V 0 h 1100 v 825 z"
         id="path7" />
    </clipPath>
    <clipPath
       id="clipPath8">
      <path
         d="M 0,825 V 0 h 1100 v 825 z"
         id="path8" />
    </clipPath>
    <clipPath
       id="clipPath9">
      <path
         d="M 0,825 V 0 h 1100 v 825 z"
         id="path9" />
    </clipPath>
    <clipPath
       id="clipPath10">
      <path
         d="M 0,825 V 0 h 1100 v 825 z"
         id="path10" />
    </clipPath>
    <clipPath
       id="clipPath11">
      <path
         d="M 0,825 V 0 h 1100 v 825 z"
         id="path11" />
    </clipPath>
    <clipPath
       id="clipPath12">
      <path
         d="M 0,825 V 0 h 1100 v 825 z"
         id="path12" />
    </clipPath>
    <clipPath
       id="clipPath13">
      <path
         d="M 0,825 V 0 h 1100 v 825 z"
         id="path13" />
    </clipPath>
  </defs>
  <g
     inkscape:label="Layer 1"
     inkscape:groupmode="layer"
     id="layer1"
     transform="translate(-57.679164,-119.85625)">
    <path
       fill-rule="evenodd"
       d="m 62.034627,143.18748 h 62.150623 v 34.05187 H 62.034627 Z"
       class="g5_50"
       id="path65"
       style="display:block;fill:#666666;stroke-width:0.264583" />
    <path
       fill-rule="evenodd"
       d="M 62.034627,160.83519 H 99.12921 Z"
       class="g1_50"
       id="path66"
       style="display:block;fill:#000000;fill-opacity:0;stroke-width:0.264583" />
    <path
       d="M 62.034627,160.83519 H 99.12921"
       class="g6_50"
       id="path67"
       style="display:block;fill:none;stroke:#ffffff;stroke-width:0.909373;stroke-linejoin:round;stroke-dasharray:3.70417, 2.91042" />
    <path
       fill-rule="evenodd"
       d="m 98.388377,148.95539 0.05292,11.03313 z"
       class="g1_50"
       id="path68"
       style="display:block;fill:#000000;fill-opacity:0;stroke-width:0.264583" />
    <path
       d="m 98.388377,148.95539 0.05292,11.03313"
       class="g7_50"
       id="path69"
       style="display:block;fill:none;stroke:#ffffff;stroke-width:1.21259;stroke-linejoin:round" />
    <path
       fill-rule="evenodd"
       d="m 128.49796,127.65644 v 52.33458 h -27.19917 v -52.33458 z"
       class="g5_50"
       id="path70"
       style="display:block;fill:#666666;stroke-width:0.264583" />
    <path
       fill-rule="evenodd"
       d="m 114.89838,127.65644 v 52.33458 z"
       class="g1_50"
       id="path71"
       style="display:block;fill:#000000;fill-opacity:0;stroke-width:0.264583" />
    <path
       d="m 114.89838,127.65644 v 52.33458"
       class="g6_50"
       id="path72"
       style="display:block;fill:none;stroke:#ffffff;stroke-width:0.909373;stroke-linejoin:round;stroke-dasharray:3.70417, 2.91042" />
    <path
       fill-rule="evenodd"
       d="m 61.928794,148.58498 39.105416,-0.0265 z"
       class="g1_50"
       id="path73"
       style="display:block;fill:#000000;fill-opacity:0;stroke-width:0.264583" />
    <path
       d="m 61.928794,148.58498 39.105416,-0.0265"
       class="g7_50"
       id="path74"
       style="display:block;fill:none;stroke:#ffffff;stroke-width:1.21259;stroke-linejoin:round" />
    <path
       fill-rule="evenodd"
       d="m 104.39442,145.19831 -0.0265,-17.40958 z"
       class="g1_50"
       id="path75"
       style="display:block;fill:#000000;fill-opacity:0;stroke-width:0.264583" />
    <path
       d="m 104.39442,145.19831 -0.0265,-17.40958"
       class="g7_50"
       id="path76"
       style="display:block;fill:none;stroke:#ffffff;stroke-width:1.21259;stroke-linejoin:round" />
    <path
       fill-rule="evenodd"
       d="m 62.29921,172.37102 h 38.735 z"
       class="g1_50"
       id="path77"
       style="display:block;fill:#000000;fill-opacity:0;stroke-width:0.264583" />
    <path
       d="m 62.29921,172.37102 h 38.735"
       class="g7_50"
       id="path78"
       style="display:block;fill:none;stroke:#ffffff;stroke-width:1.21259;stroke-linejoin:round" />
    <path
       fill-rule="evenodd"
       d="m 104.50025,179.99102 -0.10583,-4.28625 z"
       class="g1_50"
       id="path79"
       style="display:block;fill:#000000;fill-opacity:0;stroke-width:0.264583" />
    <path
       d="m 104.50025,179.99102 -0.10583,-4.28625"
       class="g7_50"
       id="path80"
       style="display:block;fill:none;stroke:#ffffff;stroke-width:1.21259;stroke-linejoin:round" />
    <path
       fill-rule="evenodd"
       d="m 125.13775,179.85873 -0.23812,-52.20229 z"
       class="g1_50"
       id="path81"
       style="display:block;fill:#000000;fill-opacity:0;stroke-width:0.264583" />
    <path
       d="m 125.13775,179.85873 -0.23812,-52.20229"
       class="g7_50"
       id="path82"
       style="display:block;fill:none;stroke:#ffffff;stroke-width:1.21259;stroke-linejoin:round" />
    <path
       fill-rule="evenodd"
       d="m 101.03421,172.37102 v 0 c 0.89958,0 1.74625,0.34396 2.38125,0.97896 0.60854,0.635 0.97896,1.48166 0.97896,2.35479 h -3.36021 z"
       class="g1_50"
       id="path83"
       style="display:block;fill:#000000;fill-opacity:0;stroke-width:0.264583" />
    <path
       fill-rule="evenodd"
       d="m 101.03421,172.37102 v 0 c 0.89958,0 1.74625,0.34396 2.38125,0.97896 0.60854,0.635 0.97896,1.48166 0.97896,2.35479 z"
       class="g1_50"
       id="path84"
       style="display:block;fill:#000000;fill-opacity:0;stroke-width:0.264583" />
    <path
       d="m 101.03421,172.37102 v 0 c 0.89958,0 1.74625,0.34396 2.38125,0.97896 0.60854,0.635 0.97896,1.48166 0.97896,2.35479"
       class="g7_50"
       id="path85"
       style="display:block;fill:none;stroke:#ffffff;stroke-width:1.21259;stroke-linejoin:round" />
    <path
       fill-rule="evenodd"
       d="m 104.39442,145.19831 v 0 c 0,0.89958 -0.37042,1.74625 -0.97896,2.38125 -0.635,0.60854 -1.48167,0.97896 -2.38125,0.97896 v -3.36021 z"
       class="g1_50"
       id="path86"
       style="display:block;fill:#000000;fill-opacity:0;stroke-width:0.264583" />
    <path
       fill-rule="evenodd"
       d="m 104.39442,145.19831 v 0 c 0,0.89958 -0.37042,1.74625 -0.97896,2.38125 -0.635,0.60854 -1.48167,0.97896 -2.38125,0.97896 z"
       class="g1_50"
       id="path87"
       style="display:block;fill:#000000;fill-opacity:0;stroke-width:0.264583" />
    <path
       d="m 104.39442,145.19831 v 0 c 0,0.89958 -0.37042,1.74625 -0.97896,2.38125 -0.635,0.60854 -1.48167,0.97896 -2.38125,0.97896"
       class="g7_50"
       id="path88"
       style="display:block;fill:none;stroke:#ffffff;stroke-width:1.21259;stroke-linejoin:round" />
    <path
       fill-rule="evenodd"
       d="m 93.334835,122.94685 h 28.336875 v 8.46667 H 93.334835 Z"
       class="g8_50"
       id="path89"
       style="display:block;fill:#0000ff;stroke-width:0.264583" />
    <path
       d="m 93.334835,122.94685 h 28.336875 v 8.46667 H 93.334835 Z"
       class="g9_50"
       id="path90"
       style="display:block;fill:none;stroke:#335b74;stroke-width:0.302948;stroke-linejoin:round" />
    <g
       clip-path="url(#c0_50)"
       id="g91"
       style="display:block"
       transform="matrix(0.26458333,0,0,0.26458333,-99.731621,53.255608)">
      <text
         x="733.09998"
         y="275.60001"
         class="s9_50"
         id="text90"
         style="font-size:9.17px;font-family:ArialMT_bj;white-space:pre;fill:#ffffff">RegulatoryElement </text>
      <text
         x="733.09998"
         y="287.10001"
         dx="0 0 0 0 0 0 0 0 0 0 0 0 0 -0.2 0 0 0 0 0 0 0 0"
         class="s9_50"
         id="text91"
         style="font-size:9.17px;font-family:ArialMT_bj;white-space:pre;fill:#ffffff">subtype: traffic_light </text>
    </g>
    <path
       fill-rule="evenodd"
       d="m 118.76129,147.65894 h 6.69396 v 1.82562 h -6.69396 z"
       class="g1_50"
       id="path91"
       style="display:block;fill:#000000;fill-opacity:0;stroke-width:0.264583" />
    <text
       clip-path="url(#c0_50)"
       x="825.79999"
       y="365.60001"
       class="sa_50"
       id="text92"
       style="font-size:9.17px;font-family:ArialMT_bj;white-space:pre;display:block;fill:#000000"
       transform="matrix(0.26458333,0,0,0.26458333,-99.731621,53.255608)">refers </text>
    <path
       fill-rule="evenodd"
       d="m 93.916918,145.19831 h 6.693962 v 1.85208 h -6.693962 z"
       class="g1_50"
       id="path92"
       style="display:block;fill:#000000;fill-opacity:0;stroke-width:0.264583" />
    <text
       clip-path="url(#c0_50)"
       x="731.90002"
       y="354.89999"
       class="sb_50"
       id="text93"
       style="font-size:7.64px;font-family:ArialMT_bj;white-space:pre;display:block;fill:#000000"
       transform="matrix(0.26458333,0,0,0.26458333,-99.731621,53.255608)">ref_line </text>
    <path
       fill-rule="evenodd"
       d="m 107.49004,131.41352 -9.94833,23.36271 z"
       class="g1_50"
       id="path93"
       style="display:block;fill:#000000;fill-opacity:0;stroke-width:0.264583" />
    <path
       d="m 107.49004,131.41352 -9.233955,21.66937"
       class="g9_50"
       id="path94"
       style="display:block;fill:none;stroke:#335b74;stroke-width:0.302948;stroke-linejoin:round" />
    <path
       fill-rule="evenodd"
       d="m 97.806293,152.89769 -0.07937,1.4552 1.005417,-1.05833 z"
       class="ga_50"
       id="path95"
       style="display:block;fill:#335b74;stroke:#335b74;stroke-width:0.302948;stroke-miterlimit:10" />
    <path
       fill-rule="evenodd"
       d="m 74.655252,162.84602 h 10.424583 l 13.599583,-6.40292 -9.128125,6.40292 h 2.963334 v 7.17021 H 74.655252 v -5.97959 z"
       class="gb_50"
       id="path96"
       style="display:block;fill:#00ffff;stroke-width:0.264583" />
    <path
       d="m 74.655252,162.84602 h 10.424583 l 13.599583,-6.40292 -9.128125,6.40292 h 2.963334 v 7.17021 H 74.655252 v -5.97959 z"
       class="g9_50"
       id="path97"
       style="display:block;fill:none;stroke:#335b74;stroke-width:0.302948;stroke-linejoin:round" />
    <g
       clip-path="url(#c0_50)"
       id="g98"
       style="display:block"
       transform="matrix(0.26458333,0,0,0.26458333,-99.731621,53.255608)">
      <text
         x="660.29999"
         y="424"
         class="sa_50"
         id="text97"
         style="font-size:9.17px;font-family:ArialMT_bj;white-space:pre;fill:#000000">LineString </text>
      <text
         x="660.29999"
         y="435.39999"
         class="sa_50"
         id="text98"
         style="font-size:9.17px;font-family:ArialMT_bj;white-space:pre;fill:#000000">type: stop_line </text>
    </g>
    <path
       fill-rule="evenodd"
       d="m 130.90567,163.90435 h 3.91583 l 5.00063,-4.15396 0.87312,4.15396 h 13.73188 v 7.17021 h -23.52146 v -5.97958 z"
       class="gb_50"
       id="path98"
       style="display:block;fill:#00ffff;stroke-width:0.264583" />
    <path
       d="m 130.90567,163.90435 h 3.91583 l 5.00063,-4.15396 0.87312,4.15396 h 13.73188 v 7.17021 h -23.52146 v -5.97958 z"
       class="g9_50"
       id="path99"
       style="display:block;fill:none;stroke:#335b74;stroke-width:0.302948;stroke-linejoin:round" />
    <g
       clip-path="url(#c0_50)"
       id="g101"
       style="display:block"
       transform="matrix(0.26458333,0,0,0.26458333,-99.731621,53.255608)">
      <text
         x="872.79999"
         y="425.29999"
         class="sb_50"
         id="text99"
         style="font-size:7.64px;font-family:ArialMT_bj;white-space:pre;fill:#000000">LineString </text>
      <text
         x="872.79999"
         y="434.5"
         class="sb_50"
         id="text100"
         style="font-size:7.64px;font-family:ArialMT_bj;white-space:pre;fill:#000000">id: 10 </text>
      <text
         x="872.79999"
         y="443.60001"
         dx="0 0 0 0 0 0 0 0 0 0 -0.1 0 0 0 0 0 0 0 0"
         class="sb_50"
         id="text101"
         style="font-size:7.64px;font-family:ArialMT_bj;white-space:pre;fill:#000000">type: traffic_light </text>
    </g>
    <path
       fill-rule="evenodd"
       d="m 113.09921,158.08352 -5.60917,-26.67 z"
       class="g1_50"
       id="path101"
       style="display:block;fill:#000000;fill-opacity:0;stroke-width:0.264583" />
    <path
       d="m 113.09921,158.08352 -5.23875,-24.89729"
       class="g9_50"
       id="path102"
       style="display:block;fill:none;stroke:#335b74;stroke-width:0.302948;stroke-linejoin:round" />
    <path
       fill-rule="evenodd"
       d="m 108.36317,133.08039 -0.76729,-1.24354 -0.21167,1.45521 z"
       class="ga_50"
       id="path103"
       style="display:block;fill:#335b74;stroke:#335b74;stroke-width:0.302948;stroke-miterlimit:10" />
    <path
       fill-rule="evenodd"
       d="m 156.04109,149.90789 v 0 c 0,-1.00541 -0.82021,-1.82562 -1.82563,-1.82562 h -21.48417 c -0.47625,0 -0.9525,0.18521 -1.29645,0.52917 -0.34396,0.34395 -0.52917,0.8202 -0.52917,1.29645 v 7.38188 c 0,1.00542 0.82021,1.82562 1.82562,1.82562 h 21.48417 c 1.00542,0 1.82563,-0.8202 1.82563,-1.82562 z"
       class="gc_50"
       id="path104"
       style="display:block;fill:#dfe3e5;stroke-width:0.264583" />
    <path
       d="m 156.04109,149.90789 v 0 c 0,-1.00541 -0.82021,-1.82562 -1.82563,-1.82562 h -21.48417 c -0.47625,0 -0.9525,0.18521 -1.29645,0.52917 -0.34396,0.34395 -0.52917,0.8202 -0.52917,1.29645 v 7.38188 c 0,1.00542 0.82021,1.82562 1.82562,1.82562 h 21.48417 c 1.00542,0 1.82563,-0.8202 1.82563,-1.82562 z"
       class="g9_50"
       id="path105"
       style="display:block;fill:none;stroke:#335b74;stroke-width:0.302948;stroke-linejoin:round" />
    <path
       fill-rule="evenodd"
       d="m 153.81859,153.5856 v 0 c 0,-1.64041 -1.4023,-2.98979 -3.12209,-2.98979 -0.82021,0 -1.64041,0.3175 -2.2225,0.87313 -0.58208,0.58208 -0.89958,1.32291 -0.89958,2.11666 0,1.66688 1.40229,3.01625 3.12208,3.01625 1.71979,0 3.12209,-1.34937 3.12209,-3.01625 z"
       class="gd_50"
       id="path106"
       style="display:block;fill:#3e8853;stroke-width:0.264583" />
    <path
       d="m 153.81859,153.5856 v 0 c 0,-1.64041 -1.4023,-2.98979 -3.12209,-2.98979 -0.82021,0 -1.64041,0.3175 -2.2225,0.87313 -0.58208,0.58208 -0.89958,1.32291 -0.89958,2.11666 0,1.66688 1.40229,3.01625 3.12208,3.01625 1.71979,0 3.12209,-1.34937 3.12209,-3.01625 z"
       class="g9_50"
       id="path107"
       style="display:block;fill:none;stroke:#335b74;stroke-width:0.302948;stroke-linejoin:round" />
    <path
       fill-rule="evenodd"
       d="m 146.59546,153.5856 v 0 c 0,-1.64041 -1.40229,-2.98979 -3.12208,-2.98979 -0.82021,0 -1.64042,0.3175 -2.2225,0.87313 -0.58209,0.58208 -0.92604,1.32291 -0.92604,2.11666 0,1.66688 1.42875,3.01625 3.14854,3.01625 1.71979,0 3.12208,-1.34937 3.12208,-3.01625 z"
       class="ge_50"
       id="path108"
       style="display:block;fill:#ffff00;stroke-width:0.264583" />
    <path
       d="m 146.59546,153.5856 v 0 c 0,-1.64041 -1.40229,-2.98979 -3.12208,-2.98979 -0.82021,0 -1.64042,0.3175 -2.2225,0.87313 -0.58209,0.58208 -0.92604,1.32291 -0.92604,2.11666 0,1.66688 1.42875,3.01625 3.14854,3.01625 1.71979,0 3.12208,-1.34937 3.12208,-3.01625 z"
       class="g9_50"
       id="path109"
       style="display:block;fill:none;stroke:#335b74;stroke-width:0.302948;stroke-linejoin:round" />
    <path
       fill-rule="evenodd"
       d="m 139.37234,153.5856 v 0 c 0,-1.64041 -1.4023,-2.98979 -3.12209,-2.98979 -0.84666,0 -1.64041,0.3175 -2.2225,0.87313 -0.58208,0.58208 -0.92604,1.32291 -0.92604,2.11666 0,1.66688 1.42875,3.01625 3.14854,3.01625 1.71979,0 3.12209,-1.34937 3.12209,-3.01625 z"
       class="gf_50"
       id="path110"
       style="display:block;fill:#ff0000;stroke-width:0.264583" />
    <path
       d="m 139.37234,153.5856 v 0 c 0,-1.64041 -1.4023,-2.98979 -3.12209,-2.98979 -0.84666,0 -1.64041,0.3175 -2.2225,0.87313 -0.58208,0.58208 -0.92604,1.32291 -0.92604,2.11666 0,1.66688 1.42875,3.01625 3.14854,3.01625 1.71979,0 3.12209,-1.34937 3.12209,-3.01625 z"
       class="g9_50"
       id="path111"
       style="display:block;fill:none;stroke:#335b74;stroke-width:0.302948;stroke-linejoin:round" />
    <path
       fill-rule="evenodd"
       d="m 132.78421,159.64456 h 21.37833 z"
       class="g1_50"
       id="path112"
       style="display:block;fill:#000000;fill-opacity:0;stroke-width:0.264583" />
    <path
       d="m 132.78421,159.64456 h 21.37833"
       class="gg_50"
       id="path113"
       style="display:block;fill:none;stroke:#000000;stroke-width:1.21259;stroke-linejoin:round" />
    <path
       fill-rule="evenodd"
       d="m 130.35004,159.64456 v 0 c 0,-0.92604 0.74084,-1.66687 1.66688,-1.66687 0.44979,0 0.87312,0.1852 1.19062,0.5027 0.3175,0.29105 0.50271,0.74084 0.50271,1.16417 0,0.92604 -0.76729,1.66688 -1.69333,1.66688 -0.92604,0 -1.66688,-0.74084 -1.66688,-1.66688 z"
       class="gc_50"
       id="path114"
       style="display:block;fill:#dfe3e5;stroke-width:0.264583" />
    <path
       d="m 130.35004,159.64456 v 0 c 0,-0.92604 0.74084,-1.66687 1.66688,-1.66687 0.44979,0 0.87312,0.1852 1.19062,0.5027 0.3175,0.29105 0.50271,0.74084 0.50271,1.16417 0,0.92604 -0.76729,1.66688 -1.69333,1.66688 -0.92604,0 -1.66688,-0.74084 -1.66688,-1.66688 z"
       class="g9_50"
       id="path115"
       style="display:block;fill:none;stroke:#335b74;stroke-width:0.302948;stroke-linejoin:round" />
    <path
       fill-rule="evenodd"
       d="m 129.50338,158.00414 h 4.20687 v 3.3073 h -4.20687 z"
       class="g1_50"
       id="path116"
       style="display:block;fill:#000000;fill-opacity:0;stroke-width:0.264583" />
    <text
       clip-path="url(#c0_50)"
       x="872.59998"
       y="404.60001"
       class="sc_50"
       id="text116"
       style="font-size:6.11px;font-family:ArialMT_bj;white-space:pre;display:block;fill:#000000"
       transform="matrix(0.26458333,0,0,0.26458333,-99.731621,53.255608)">4 </text>
    <path
       fill-rule="evenodd"
       d="m 153.28942,159.64456 v 0 c 0,-0.92604 0.76729,-1.66687 1.66687,-1.66687 0.4498,0 0.87313,0.1852 1.19063,0.5027 0.3175,0.29105 0.50271,0.74084 0.50271,1.16417 0,0.92604 -0.76729,1.66688 -1.69334,1.66688 -0.89958,0 -1.66687,-0.74084 -1.66687,-1.66688 z"
       class="gc_50"
       id="path117"
       style="display:block;fill:#dfe3e5;stroke-width:0.264583" />
    <path
       d="m 153.28942,159.64456 v 0 c 0,-0.92604 0.76729,-1.66687 1.66687,-1.66687 0.4498,0 0.87313,0.1852 1.19063,0.5027 0.3175,0.29105 0.50271,0.74084 0.50271,1.16417 0,0.92604 -0.76729,1.66688 -1.69334,1.66688 -0.89958,0 -1.66687,-0.74084 -1.66687,-1.66688 z"
       class="g9_50"
       id="path118"
       style="display:block;fill:none;stroke:#335b74;stroke-width:0.302948;stroke-linejoin:round" />
    <path
       fill-rule="evenodd"
       d="m 152.44275,158.00414 h 4.20688 v 3.3073 h -4.20688 z"
       class="g1_50"
       id="path119"
       style="display:block;fill:#000000;fill-opacity:0;stroke-width:0.264583" />
    <text
       clip-path="url(#c0_50)"
       x="959.29999"
       y="404.60001"
       class="sc_50"
       id="text119"
       style="font-size:6.11px;font-family:ArialMT_bj;white-space:pre;display:block;fill:#000000"
       transform="matrix(0.26458333,0,0,0.26458333,-99.731621,53.255608)">5 </text>
    <path
       fill-rule="evenodd"
       d="m 137.89067,153.74435 h 4.20687 z"
       class="g1_50"
       id="path120"
       style="display:block;fill:#000000;fill-opacity:0;stroke-width:0.264583" />
    <path
       d="m 137.89067,153.74435 h 4.20687"
       class="gg_50"
       id="path121"
       style="display:block;fill:none;stroke:#000000;stroke-width:1.21259;stroke-linejoin:round" />
    <path
       fill-rule="evenodd"
       d="m 134.55692,153.74435 v 0 c 0,-0.92604 0.74083,-1.66687 1.66687,-1.66687 0.4498,0 0.87313,0.15875 1.19063,0.47625 0.3175,0.3175 0.47625,0.74083 0.47625,1.19062 0,0.92604 -0.74083,1.66688 -1.66688,1.66688 -0.92604,0 -1.66687,-0.74084 -1.66687,-1.66688 z"
       class="gc_50"
       id="path122"
       style="display:block;fill:#dfe3e5;stroke-width:0.264583" />
    <path
       d="m 134.55692,153.74435 v 0 c 0,-0.92604 0.74083,-1.66687 1.66687,-1.66687 0.4498,0 0.87313,0.15875 1.19063,0.47625 0.3175,0.3175 0.47625,0.74083 0.47625,1.19062 0,0.92604 -0.74083,1.66688 -1.66688,1.66688 -0.92604,0 -1.66687,-0.74084 -1.66687,-1.66688 z"
       class="g9_50"
       id="path123"
       style="display:block;fill:none;stroke:#335b74;stroke-width:0.302948;stroke-linejoin:round" />
    <path
       fill-rule="evenodd"
       d="m 133.71025,152.07748 h 4.18042 v 3.33375 h -4.18042 z"
       class="g1_50"
       id="path124"
       style="display:block;fill:#000000;fill-opacity:0;stroke-width:0.264583" />
    <text
       clip-path="url(#c0_50)"
       x="888.5"
       y="382.20001"
       class="sc_50"
       id="text124"
       style="font-size:6.11px;font-family:ArialMT_bj;white-space:pre;display:block;fill:#000000"
       transform="matrix(0.26458333,0,0,0.26458333,-99.731621,53.255608)">1 </text>
    <path
       fill-rule="evenodd"
       d="m 141.93879,153.74435 v 0 c 0,-0.92604 0.7673,-1.66687 1.66688,-1.66687 0.44979,0 0.87312,0.15875 1.19062,0.47625 0.3175,0.3175 0.50271,0.74083 0.50271,1.19062 0,0.92604 -0.76729,1.66688 -1.69333,1.66688 -0.89958,0 -1.66688,-0.74084 -1.66688,-1.66688 z"
       class="gc_50"
       id="path125"
       style="display:block;fill:#dfe3e5;stroke-width:0.264583" />
    <path
       d="m 141.93879,153.74435 v 0 c 0,-0.92604 0.7673,-1.66687 1.66688,-1.66687 0.44979,0 0.87312,0.15875 1.19062,0.47625 0.3175,0.3175 0.50271,0.74083 0.50271,1.19062 0,0.92604 -0.76729,1.66688 -1.69333,1.66688 -0.89958,0 -1.66688,-0.74084 -1.66688,-1.66688 z"
       class="g9_50"
       id="path126"
       style="display:block;fill:none;stroke:#335b74;stroke-width:0.302948;stroke-linejoin:round" />
    <path
       fill-rule="evenodd"
       d="m 142.09754,152.07748 h 3.20146 v 3.33375 h -3.20146 z"
       class="g1_50"
       id="path127"
       style="display:block;fill:#000000;fill-opacity:0;stroke-width:0.264583" />
    <text
       clip-path="url(#c0_50)"
       x="918.29999"
       y="382.20001"
       class="sc_50"
       id="text127"
       style="font-size:6.11px;font-family:ArialMT_bj;white-space:pre;display:block;fill:#000000"
       transform="matrix(0.26458333,0,0,0.26458333,-99.731621,53.255608)">2 </text>
    <path
       fill-rule="evenodd"
       d="m 148.57984,153.71789 v 0 c 0,-0.92604 0.74083,-1.66687 1.66687,-1.66687 0.44979,0 0.87313,0.15875 1.19063,0.47625 0.3175,0.3175 0.47625,0.74083 0.47625,1.19062 0,0.92605 -0.74084,1.66688 -1.66688,1.66688 -0.92604,0 -1.66687,-0.74083 -1.66687,-1.66688 z"
       class="gc_50"
       id="path128"
       style="display:block;fill:#dfe3e5;stroke-width:0.264583" />
    <path
       d="m 148.57984,153.71789 v 0 c 0,-0.92604 0.74083,-1.66687 1.66687,-1.66687 0.44979,0 0.87313,0.15875 1.19063,0.47625 0.3175,0.3175 0.47625,0.74083 0.47625,1.19062 0,0.92605 -0.74084,1.66688 -1.66688,1.66688 -0.92604,0 -1.66687,-0.74083 -1.66687,-1.66688 z"
       class="g9_50"
       id="path129"
       style="display:block;fill:none;stroke:#335b74;stroke-width:0.302948;stroke-linejoin:round" />
    <path
       fill-rule="evenodd"
       d="m 148.73859,152.05102 h 3.175 v 3.33375 h -3.175 z"
       class="g1_50"
       id="path130"
       style="display:block;fill:#000000;fill-opacity:0;stroke-width:0.264583" />
    <text
       clip-path="url(#c0_50)"
       x="943.40002"
       y="382.10001"
       class="sc_50"
       id="text130"
       style="font-size:6.11px;font-family:ArialMT_bj;white-space:pre;display:block;fill:#000000"
       transform="matrix(0.26458333,0,0,0.26458333,-99.731621,53.255608)">3 </text>
    <path
       fill-rule="evenodd"
       d="m 145.299,153.74435 3.43959,-0.0265 z"
       class="g1_50"
       id="path131"
       style="display:block;fill:#000000;fill-opacity:0;stroke-width:0.264583" />
    <path
       d="m 145.299,153.74435 3.43959,-0.0265"
       class="gg_50"
       id="path132"
       style="display:block;fill:none;stroke:#000000;stroke-width:1.21259;stroke-linejoin:round" />
    <path
       fill-rule="evenodd"
       d="m 107.49004,131.41352 32.86125,21.61646 z"
       class="g1_50"
       id="path133"
       style="display:block;fill:#000000;fill-opacity:0;stroke-width:0.264583" />
    <path
       d="m 107.49004,131.41352 31.32667,20.61104"
       class="g9_50"
       id="path134"
       style="display:block;fill:none;stroke:#335b74;stroke-width:0.302948;stroke-linejoin:round" />
    <path
       fill-rule="evenodd"
       d="m 138.55213,152.44789 1.42875,0.34396 -0.87313,-1.19062 z"
       class="ga_50"
       id="path135"
       style="display:block;fill:#335b74;stroke:#335b74;stroke-width:0.302948;stroke-miterlimit:10" />
    <path
       fill-rule="evenodd"
       d="m 127.38671,141.73227 h 13.41438 v 2.72521 h -13.41438 z"
       class="g1_50"
       id="path136"
       style="display:block;fill:#000000;fill-opacity:0;stroke-width:0.264583" />
    <text
       clip-path="url(#c0_50)"
       x="858.40002"
       y="343.20001"
       class="sa_50"
       id="text136"
       style="font-size:9.17px;font-family:ArialMT_bj;white-space:pre;display:block;fill:#000000"
       transform="matrix(0.26458333,0,0,0.26458333,-99.731621,53.255608)">light_bulbs </text>
    <path
       fill-rule="evenodd"
       d="M 107.49004,131.41352 136.409,159.22123 Z"
       class="g1_50"
       id="path137"
       style="display:block;fill:#000000;fill-opacity:0;stroke-width:0.264583" />
    <path
       d="m 107.49004,131.41352 27.6225,26.56417"
       class="g9_50"
       id="path138"
       style="display:block;fill:none;stroke:#335b74;stroke-width:0.302948;stroke-linejoin:round" />
    <path
       fill-rule="evenodd"
       d="m 134.76859,158.32164 1.32291,0.60855 -0.635,-1.32292 z"
       class="ga_50"
       id="path139"
       style="display:block;fill:#335b74;stroke:#335b74;stroke-width:0.302948;stroke-miterlimit:10" />
    <path
       fill-rule="evenodd"
       d="m 131.56713,124.45498 h 24.34166 v 9.92187 h -4.04812 l -4.49792,18.81188 -1.5875,-18.81188 h -14.20812 v -4.1275 z"
       class="gb_50"
       id="path140"
       style="display:block;fill:#00ffff;stroke-width:0.264583" />
    <path
       d="m 131.56713,124.45498 h 24.34166 v 9.92187 h -4.04812 l -4.49792,18.81188 -1.5875,-18.81188 h -14.20812 v -4.1275 z"
       class="g9_50"
       id="path141"
       style="display:block;fill:none;stroke:#335b74;stroke-width:0.302948;stroke-linejoin:round" />
    <g
       clip-path="url(#c0_50)"
       id="g144"
       style="display:block"
       transform="matrix(0.26458333,0,0,0.26458333,-99.731621,53.255608)">
      <text
         x="875.29999"
         y="276.89999"
         class="sb_50"
         id="text141"
         style="font-size:7.64px;font-family:ArialMT_bj;white-space:pre;fill:#000000">LineString </text>
      <text
         x="875.29999"
         y="286"
         dx="0 0 0 0 0 -0.60000002"
         class="sb_50"
         id="text142"
         style="font-size:7.64px;font-family:ArialMT_bj;white-space:pre;fill:#000000">Id: 11 </text>
      <text
         x="875.29999"
         y="295.20001"
         class="sb_50"
         id="text143"
         style="font-size:7.64px;font-family:ArialMT_bj;white-space:pre;fill:#000000">type: light_bulbs </text>
      <text
         x="875.29999"
         y="304.39999"
         dx="0 0 0 0 -0.1 0 0 0 0 0 0 0 0 0 0 0 0 0 0 0"
         class="sb_50"
         id="text144"
         style="font-size:7.64px;font-family:ArialMT_bj;white-space:pre;fill:#000000">traffic_light_id: 10 </text>
    </g>
    <path
       fill-rule="evenodd"
       d="m 99.340876,149.74914 v 0 c 6.879164,-0.0794 13.467294,2.30188 18.335624,6.61459 4.84188,4.31271 7.54063,10.18646 7.46125,16.27187 l -10.66271,-0.10583 c 0.0529,-3.22792 -1.50812,-6.32354 -4.33916,-8.59896 -2.80459,-2.27542 -6.64105,-3.54542 -10.636254,-3.4925 z"
       class="gh_50"
       id="path144"
       style="display:block;fill:#00ff00;fill-opacity:0.31;stroke-width:0.264583" />
    <path
       fill-rule="evenodd"
       d="m 108.33671,158.08352 h 9.49854 v 4.23333 h -9.49854 z"
       class="gi_50"
       id="path145"
       style="display:block;fill:#00ff00;stroke-width:0.264583" />
    <path
       d="m 108.33671,158.08352 h 9.49854 v 4.23333 h -9.49854 z"
       class="g9_50"
       id="path146"
       style="display:block;fill:none;stroke:#335b74;stroke-width:0.302948;stroke-linejoin:round" />
    <text
       clip-path="url(#c0_50)"
       x="789.90002"
       y="405.79999"
       class="sb_50"
       id="text146"
       style="font-size:7.64px;font-family:ArialMT_bj;white-space:pre;display:block;fill:#000000"
       transform="matrix(0.26458333,0,0,0.26458333,-99.731621,53.255608)">Lanelet </text>
  </g>
</svg>
