<?xml version="1.0" encoding="UTF-8" standalone="no"?>
<!-- Created with Inkscape (http://www.inkscape.org/) -->

<svg
   width="19.327mm"
   height="85.973122mm"
   viewBox="0 0 19.327 85.973123"
   version="1.1"
   id="svg1"
   inkscape:version="1.3.2 (1:1.3.2+202311252150+091e20ef0f)"
   sodipodi:docname="vm-01-11_1.svg"
   xmlns:inkscape="http://www.inkscape.org/namespaces/inkscape"
   xmlns:sodipodi="http://sodipodi.sourceforge.net/DTD/sodipodi-0.dtd"
   xmlns="http://www.w3.org/2000/svg"
   xmlns:svg="http://www.w3.org/2000/svg">
  <sodipodi:namedview
     id="namedview1"
     pagecolor="#ffffff"
     bordercolor="#000000"
     borderopacity="0.25"
     inkscape:showpageshadow="2"
     inkscape:pageopacity="0.0"
     inkscape:pagecheckerboard="0"
     inkscape:deskcolor="#d1d1d1"
     inkscape:document-units="mm"
     inkscape:zoom="1.7131103"
     inkscape:cx="-263.55571"
     inkscape:cy="244.29251"
     inkscape:window-width="3840"
     inkscape:window-height="2123"
     inkscape:window-x="0"
     inkscape:window-y="0"
     inkscape:window-maximized="1"
     inkscape:current-layer="layer1" />
  <defs
     id="defs1" />
  <g
     inkscape:label="Layer 1"
     inkscape:groupmode="layer"
     id="layer1"
     transform="translate(-174.625,-83.872917)">
    <path
       fill-rule="evenodd"
       d="m 177.26691,126.39432 h 14.2875 v 40.05792 h -14.2875 z"
       class="g3_19"
       id="path202"
       style="display:block;fill:#999999;stroke-width:0.264583" />
    <path
       fill-rule="evenodd"
       d="m 178.24587,126.39432 0.0265,39.71396 z"
       class="g1_19"
       id="path203"
       style="display:block;fill:#000000;fill-opacity:0;stroke-width:0.264583" />
    <path
       d="m 178.24587,126.39432 0.0265,39.71396"
       class="g7_19"
       id="path204"
       style="display:block;fill:none;stroke:#f3f3f3;stroke-width:0.909373;stroke-linejoin:round" />
    <path
       fill-rule="evenodd"
       d="m 190.52254,126.50015 -0.0529,39.84625 z"
       class="g1_19"
       id="path205"
       style="display:block;fill:#000000;fill-opacity:0;stroke-width:0.264583" />
    <path
       d="m 190.52254,126.50015 -0.0529,39.84625"
       class="g7_19"
       id="path206"
       style="display:block;fill:none;stroke:#f3f3f3;stroke-width:0.909373;stroke-linejoin:round" />
    <path
       fill-rule="evenodd"
       d="m 184.04025,161.21349 v -7.46125 l 3.83645,-3.46604 -0.10583,-8.78417 -3.30729,-4.78896 v -10.10708 z"
       class="g1_19"
       id="path207"
       style="display:block;fill:#000000;fill-opacity:0;stroke-width:0.264583" />
    <path
       d="m 184.04025,161.21349 v -7.46125 l 3.83645,-3.46604 -0.10583,-8.78417 -3.30729,-4.78896 v -4.65667"
       class="g8_19"
       id="path208"
       style="display:block;fill:none;stroke:#ff9900;stroke-width:0.909373;stroke-linejoin:round" />
    <path
       fill-rule="evenodd"
       d="m 185.9717,132.0564 -1.50812,-4.1275 -1.50813,4.1275 z"
       class="g9_19"
       id="path209"
       style="display:block;fill:#ff9900;stroke:#ff9900;stroke-width:0.909373;stroke-miterlimit:10" />
    <path
       fill-rule="evenodd"
       d="m 177.26691,86.30995 h 14.2875 v 40.08437 h -14.2875 z"
       class="g3_19"
       id="path210"
       style="display:block;fill:#999999;stroke-width:0.264583" />
    <path
       fill-rule="evenodd"
       d="m 178.24587,86.30995 v 40.1902 z"
       class="g1_19"
       id="path211"
       style="display:block;fill:#000000;fill-opacity:0;stroke-width:0.264583" />
    <path
       d="m 178.24587,86.30995 v 40.1902"
       class="g7_19"
       id="path212"
       style="display:block;fill:none;stroke:#f3f3f3;stroke-width:0.909373;stroke-linejoin:round" />
    <path
       fill-rule="evenodd"
       d="M 190.52254,86.442242 V 126.68536 Z"
       class="g1_19"
       id="path213"
       style="display:block;fill:#000000;fill-opacity:0;stroke-width:0.264583" />
    <path
       d="M 190.52254,86.442242 V 126.68536"
       class="g7_19"
       id="path214"
       style="display:block;fill:none;stroke:#f3f3f3;stroke-width:0.909373;stroke-linejoin:round" />
    <path
       fill-rule="evenodd"
       d="m 184.04025,125.78578 v -8.46667 l 3.83645,-3.91583 -0.10583,-9.94833 -3.30729,-5.450417 V 86.548075 Z"
       class="g1_19"
       id="path215"
       style="display:block;fill:#000000;fill-opacity:0;stroke-width:0.264583" />
    <path
       d="m 184.04025,125.78578 v -8.46667 l 3.83645,-3.91583 -0.10583,-9.94833 -3.30729,-5.450417 v -6.006041"
       class="g8_19"
       id="path216"
       style="display:block;fill:none;stroke:#ff9900;stroke-width:0.909373;stroke-linejoin:round" />
    <path
       fill-rule="evenodd"
       d="m 185.9717,91.998492 -1.50812,-4.1275 -1.50813,4.1275 z"
       class="g9_19"
       id="path217"
       style="display:block;fill:#ff9900;stroke:#ff9900;stroke-width:0.909373;stroke-miterlimit:10" />
    <path
       fill-rule="evenodd"
       d="m 182.08233,159.20265 v 0 c 0,-0.0265 0.0265,-0.0529 0.0529,-0.0529 h 0.26458 q 0.0265,0 0.0529,0.0265 c 0,0 0.0264,0.0265 0.0264,0.0265 v 1.0848 c 0,0.0264 -0.0264,0.0529 -0.0794,0.0529 h -0.26458 c -0.0265,0 -0.0529,-0.0265 -0.0529,-0.0529 z"
       class="ga_19"
       id="path218"
       style="display:block;fill:#000000;stroke-width:0.264583" />
    <path
       fill-rule="evenodd"
       d="m 185.57483,159.20265 v 0 c 0,-0.0265 0.0265,-0.0529 0.0794,-0.0529 h 0.23813 c 0.0265,0 0.0529,0 0.0529,0.0265 0.0265,0 0.0265,0.0265 0.0265,0.0265 v 1.0848 c 0,0.0264 -0.0265,0.0529 -0.0794,0.0529 h -0.23813 c -0.0529,0 -0.0794,-0.0265 -0.0794,-0.0529 z"
       class="ga_19"
       id="path219"
       style="display:block;fill:#000000;stroke-width:0.264583" />
    <path
       fill-rule="evenodd"
       d="m 182.08233,163.56828 v 0 c 0,-0.0265 0.0265,-0.0529 0.0529,-0.0529 h 0.26458 q 0.0265,0 0.0529,0.0265 c 0,0 0.0264,0.0265 0.0264,0.0265 v 1.05833 c 0,0.0529 -0.0264,0.0794 -0.0794,0.0794 h -0.26458 c -0.0265,0 -0.0529,-0.0265 -0.0529,-0.0794 z"
       class="ga_19"
       id="path220"
       style="display:block;fill:#000000;stroke-width:0.264583" />
    <path
       fill-rule="evenodd"
       d="m 185.57483,163.56828 v 0 c 0,-0.0265 0.0265,-0.0529 0.0794,-0.0529 h 0.23813 c 0.0265,0 0.0529,0 0.0529,0.0265 0.0265,0 0.0265,0.0265 0.0265,0.0265 v 1.05833 c 0,0.0529 -0.0265,0.0794 -0.0794,0.0794 h -0.23813 c -0.0529,0 -0.0794,-0.0265 -0.0794,-0.0794 z"
       class="ga_19"
       id="path221"
       style="display:block;fill:#000000;stroke-width:0.264583" />
    <path
       fill-rule="evenodd"
       d="m 182.21462,159.07036 v 0 c 0,-0.55562 0.44979,-1.00541 1.00542,-1.00541 h 1.64041 c 0.26459,0 0.52917,0.10583 0.71438,0.29104 0.21167,0.18521 0.3175,0.44979 0.3175,0.71437 v 5.68854 c 0,0.55563 -0.47625,1.00542 -1.03188,1.00542 h -1.64041 c -0.55563,0 -1.00542,-0.44979 -1.00542,-1.00542 z"
       class="gb_19"
       id="path222"
       style="display:block;fill:#3d85c6;stroke-width:0.264583" />
    <path
       fill-rule="evenodd"
       d="m 183.69629,158.01203 v 0 q 0,-0.0265 0.0265,-0.0265 h 0.66145 v 0.13229 c 0,0 -0.0265,0.0265 -0.0265,0.0265 h -0.635 c -0.0265,0 -0.0265,-0.0265 -0.0265,-0.0265 z"
       class="gc_19"
       id="path223"
       style="display:block;fill:#efefef;stroke-width:0.264583" />
    <path
       fill-rule="evenodd"
       d="m 182.74379,158.35599 0.0265,0.23812 0.29104,-0.0794 0.0529,-0.0265 0.0265,-0.0265 v -0.10583 l -0.0265,-0.0265 h -0.1852 z"
       class="g0_19"
       id="path224"
       style="display:block;fill:#ffffff;stroke-width:0.264583" />
    <path
       fill-rule="evenodd"
       d="m 185.3367,158.35599 -0.0529,0.23812 -0.26459,-0.0794 -0.0529,-0.0265 -0.0529,-0.0265 v -0.0529 l 0.0265,-0.0529 v -0.0265 h 0.21167 z"
       class="g0_19"
       id="path225"
       style="display:block;fill:#ffffff;stroke-width:0.264583" />
    <path
       fill-rule="evenodd"
       d="m 182.63795,160.49911 0.23813,0.76729 0.0529,0.0529 0.0794,0.0265 h 2.01083 l 0.0794,-0.0265 0.0529,-0.0529 0.26458,-0.66145 v -0.0794 l -0.0794,-0.0794 -0.26458,-0.10584 -0.42333,-0.0794 -0.3175,-0.0265 h -0.635 l -0.18521,0.0265 -0.23813,0.0265 -0.21166,0.0529 -0.15875,0.0529 -0.18521,0.0529 z"
       class="gd_19"
       id="path226"
       style="display:block;fill:#9fc5e8;stroke-width:0.264583" />
    <path
       d="m 182.63795,160.49911 0.23813,0.76729 0.0529,0.0529 0.0794,0.0265 h 2.01083 l 0.0794,-0.0265 0.0529,-0.0529 0.26458,-0.66145 v -0.0794 l -0.0794,-0.0794 -0.26458,-0.10584 -0.42333,-0.0794 -0.3175,-0.0265 h -0.635 l -0.18521,0.0265 -0.23813,0.0265 -0.21166,0.0529 -0.15875,0.0529 -0.18521,0.0529 z"
       class="ge_19"
       id="path227"
       style="display:block;fill:none;stroke:#073763;stroke-width:0.302948;stroke-linejoin:round" />
    <path
       fill-rule="evenodd"
       d="m 182.42629,160.7637 v 3.83645 l 0.0265,0.0794 0.0794,0.0265 0.26458,-0.26459 0.10584,-0.15875 0.0265,-0.13229 -0.0265,-2.24896 -0.0265,-0.15875 -0.10583,-0.29104 -0.1323,-0.29104 z"
       class="gd_19"
       id="path228"
       style="display:block;fill:#9fc5e8;stroke-width:0.264583" />
    <path
       d="m 182.42629,160.7637 v 3.83645 l 0.0265,0.0794 0.0794,0.0265 0.26458,-0.26459 0.10584,-0.15875 0.0265,-0.13229 -0.0265,-2.24896 -0.0265,-0.15875 -0.10583,-0.29104 -0.1323,-0.29104 z"
       class="ge_19"
       id="path229"
       style="display:block;fill:none;stroke:#073763;stroke-width:0.302948;stroke-linejoin:round" />
    <path
       fill-rule="evenodd"
       d="m 185.68066,160.81661 v 3.88938 l -0.0794,0.0529 -0.29104,-0.26458 -0.0794,-0.15875 -0.0529,-0.13229 0.0529,-2.24896 0.0265,-0.15875 0.10583,-0.29104 0.10584,-0.3175 z"
       class="gd_19"
       id="path230"
       style="display:block;fill:#9fc5e8;stroke-width:0.264583" />
    <path
       d="m 185.68066,160.81661 v 3.88938 l -0.0794,0.0529 -0.29104,-0.26458 -0.0794,-0.15875 -0.0529,-0.13229 0.0529,-2.24896 0.0265,-0.15875 0.10583,-0.29104 0.10584,-0.3175 z"
       class="ge_19"
       id="path231"
       style="display:block;fill:none;stroke:#073763;stroke-width:0.302948;stroke-linejoin:round" />
    <path
       fill-rule="evenodd"
       d="m 182.42629,160.71078 h -0.18521 l -0.0794,0.0265 -0.10583,0.0265 -0.0529,0.0529 -0.0265,0.0529 v 0.0529 l 0.0529,0.0529 0.0794,0.0529 h 0.23812 l 0.0794,-0.0265 0.0529,-0.0794 0.0265,-0.0265 v -0.0794 l -0.0265,-0.0529 z"
       class="gf_19"
       id="path232"
       style="display:block;fill:#0b5394;stroke-width:0.264583" />
    <path
       fill-rule="evenodd"
       d="m 185.6542,160.71078 h 0.18521 l 0.0794,0.0265 0.10583,0.0265 0.0529,0.0529 0.0265,0.0529 v 0.0529 l -0.0529,0.0529 -0.0794,0.0529 h -0.23812 l -0.0794,-0.0265 -0.0529,-0.0794 -0.0265,-0.0265 v -0.0794 l 0.0265,-0.0529 z"
       class="gf_19"
       id="path233"
       style="display:block;fill:#0b5394;stroke-width:0.264583" />
    <path
       fill-rule="evenodd"
       d="m 183.69629,165.68495 v 0 c 0,0 0,-0.0265 0.0265,-0.0265 h 0.66145 q 0,0.0265 0,0.0265 v 0.10583 c 0,0.0265 -0.0265,0.0265 -0.0265,0.0265 h -0.635 q -0.0265,0 -0.0265,-0.0265 z"
       class="gc_19"
       id="path234"
       style="display:block;fill:#efefef;stroke-width:0.264583" />
    <path
       fill-rule="evenodd"
       d="m 182.74379,165.81724 0.0265,-0.23813 0.29104,0.0794 0.0529,0.0265 0.0265,0.0265 v 0.10584 l -0.0265,0.0265 h -0.1852 z"
       class="gf_19"
       id="path235"
       style="display:block;fill:#0b5394;stroke-width:0.264583" />
    <path
       fill-rule="evenodd"
       d="m 185.3367,165.81724 -0.0529,-0.23813 -0.26459,0.0794 -0.0529,0.0265 -0.0529,0.0265 v 0.0529 l 0.0265,0.0529 v 0.0265 h 0.21167 z"
       class="gf_19"
       id="path236"
       style="display:block;fill:#0b5394;stroke-width:0.264583" />
    <path
       fill-rule="evenodd"
       d="m 183.1142,164.54724 -0.0529,0.0265 -0.50271,0.39687 -0.0265,0.10583 v 0.0794 l 0.15875,0.0794 0.18521,0.0794 0.29104,0.0794 0.29104,0.0265 0.29104,0.0529 0.3175,-0.0265 h 0.34396 l 0.3175,-0.0265 0.37042,-0.0794 0.23812,-0.0794 0.15875,-0.10583 0.0529,-0.10583 -0.0529,-0.0794 -0.44979,-0.37042 -0.0529,-0.0264 -0.50271,-0.0265 h -0.9525 z"
       class="gd_19"
       id="path237"
       style="display:block;fill:#9fc5e8;stroke-width:0.264583" />
    <path
       d="m 183.1142,164.54724 -0.0529,0.0265 -0.50271,0.39687 -0.0265,0.10583 v 0.0794 l 0.15875,0.0794 0.18521,0.0794 0.29104,0.0794 0.29104,0.0265 0.29104,0.0529 0.3175,-0.0265 h 0.34396 l 0.3175,-0.0265 0.37042,-0.0794 0.23812,-0.0794 0.15875,-0.10583 0.0529,-0.10583 -0.0529,-0.0794 -0.44979,-0.37042 -0.0529,-0.0264 -0.50271,-0.0265 h -0.9525 z"
       class="ge_19"
       id="path238"
       style="display:block;fill:none;stroke:#073763;stroke-width:0.302948;stroke-linejoin:round" />
    <path
       fill-rule="evenodd"
       d="m 183.14066,158.38245 c 0.0794,0 0.3175,-0.0265 0.47625,-0.0265 0.18521,-0.0265 0.44979,-0.0265 0.60854,-0.0265 0.15875,0.0265 0.23813,0.0265 0.34396,0.0265 0.10584,0.0265 0.26459,0.0265 0.3175,0.0529 z"
       class="g1_19"
       id="path239"
       style="display:block;fill:#000000;fill-opacity:0;stroke-width:0.264583" />
    <path
       d="m 183.14066,158.38245 c 0.0794,0 0.3175,-0.0265 0.47625,-0.0265 0.18521,-0.0265 0.44979,-0.0265 0.60854,-0.0265 0.15875,0.0265 0.23813,0.0265 0.34396,0.0265 0.10584,0.0265 0.26459,0.0265 0.3175,0.0529"
       class="ge_19"
       id="path240"
       style="display:block;fill:none;stroke:#073763;stroke-width:0.302948;stroke-linejoin:round" />
    <path
       fill-rule="evenodd"
       d="m 182.6115,158.59411 c 0,0 -0.0529,0.0265 -0.0529,0.0794 -0.0265,0.0529 -0.0265,0.10583 -0.0529,0.23812 -0.0265,0.10584 -0.0529,0.29104 -0.0794,0.42334 0,0.15875 0,0.26458 0,0.39687 0.0265,0.13229 0.0265,0.21167 0.0529,0.34396 0.0265,0.13229 0.10584,0.34396 0.1323,0.42333 z"
       class="g1_19"
       id="path241"
       style="display:block;fill:#000000;fill-opacity:0;stroke-width:0.264583" />
    <path
       d="m 182.6115,158.59411 c 0,0 -0.0529,0.0265 -0.0529,0.0794 -0.0265,0.0529 -0.0265,0.10583 -0.0529,0.23812 -0.0265,0.10584 -0.0529,0.29104 -0.0794,0.42334 0,0.15875 0,0.26458 0,0.39687 0.0265,0.13229 0.0265,0.21167 0.0529,0.34396 0.0265,0.13229 0.10584,0.34396 0.1323,0.42333"
       class="ge_19"
       id="path242"
       style="display:block;fill:none;stroke:#073763;stroke-width:0.302948;stroke-linejoin:round" />
    <path
       fill-rule="evenodd"
       d="m 185.44254,158.56765 c 0,0.0265 0.0529,0.0529 0.0529,0.10584 0.0265,0.0529 0.0265,0.0794 0.0529,0.15875 0,0.0794 0.0265,0.21166 0.0529,0.3175 0,0.10583 0.0265,0.21166 0.0265,0.34396 0,0.10583 -0.0265,0.29104 -0.0265,0.37041 0,0.0794 0.0265,0.0529 0,0.15875 -0.0265,0.10584 -0.10584,0.37042 -0.13229,0.44979 z"
       class="g1_19"
       id="path243"
       style="display:block;fill:#000000;fill-opacity:0;stroke-width:0.264583" />
    <path
       d="m 185.44254,158.56765 c 0,0.0265 0.0529,0.0529 0.0529,0.10584 0.0265,0.0529 0.0265,0.0794 0.0529,0.15875 0,0.0794 0.0265,0.21166 0.0529,0.3175 0,0.10583 0.0265,0.21166 0.0265,0.34396 0,0.10583 -0.0265,0.29104 -0.0265,0.37041 0,0.0794 0.0265,0.0529 0,0.15875 -0.0265,0.10584 -0.10584,0.37042 -0.13229,0.44979"
       class="ge_19"
       id="path244"
       style="display:block;fill:none;stroke:#073763;stroke-width:0.302948;stroke-linejoin:round" />
    <path
       fill-rule="evenodd"
       d="m 184.3842,160.41974 -1.08479,0.76729 -0.15875,0.0265 -0.10583,-0.0265 -0.0529,-0.0529 -0.0529,-0.0529 -0.18521,-0.4498 v -0.0529 l 0.0529,-0.0265 0.26459,-0.0794 0.3175,-0.0529 0.3175,-0.0265 h 0.50271 z"
       class="gg_19"
       id="path245"
       style="display:block;fill:#cfe2f3;stroke-width:0.264583" />
    <path
       fill-rule="evenodd"
       d="m 185.76004,143.38057 v 0 c 0,-0.0265 0.0529,-0.0794 0.0794,-0.0794 h 0.26459 c 0.0265,0 0.0265,0.0265 0.0529,0.0265 q 0,0.0265 0,0.0529 v 1.05833 c 0,0.0265 -0.0265,0.0794 -0.0529,0.0794 h -0.26459 c -0.0265,0 -0.0794,-0.0529 -0.0794,-0.0794 z"
       class="ga_19"
       id="path246"
       style="display:block;fill:#000000;stroke-width:0.264583" />
    <path
       fill-rule="evenodd"
       d="m 189.279,143.38057 v 0 c 0,-0.0265 0.0265,-0.0794 0.0529,-0.0794 h 0.26459 c 0.0265,0 0.0265,0.0265 0.0529,0.0265 0,0.0265 0.0265,0.0265 0.0265,0.0529 v 1.05833 c 0,0.0265 -0.0265,0.0794 -0.0794,0.0794 h -0.26458 c -0.0265,0 -0.0529,-0.0529 -0.0529,-0.0794 z"
       class="ga_19"
       id="path247"
       style="display:block;fill:#000000;stroke-width:0.264583" />
    <path
       fill-rule="evenodd"
       d="m 185.76004,147.7462 v 0 c 0,-0.0529 0.0529,-0.0794 0.0794,-0.0794 h 0.26459 c 0.0265,0 0.0265,0.0265 0.0529,0.0265 0,0 0,0.0265 0,0.0529 v 1.05833 c 0,0.0265 -0.0265,0.0529 -0.0529,0.0529 h -0.26459 c -0.0265,0 -0.0794,-0.0265 -0.0794,-0.0529 z"
       class="ga_19"
       id="path248"
       style="display:block;fill:#000000;stroke-width:0.264583" />
    <path
       fill-rule="evenodd"
       d="m 189.279,147.7462 v 0 c 0,-0.0529 0.0265,-0.0794 0.0529,-0.0794 h 0.26459 c 0.0265,0 0.0265,0.0265 0.0529,0.0265 0,0 0.0265,0.0265 0.0265,0.0529 v 1.05833 c 0,0.0265 -0.0265,0.0529 -0.0794,0.0529 h -0.26458 c -0.0265,0 -0.0529,-0.0265 -0.0529,-0.0529 z"
       class="ga_19"
       id="path249"
       style="display:block;fill:#000000;stroke-width:0.264583" />
    <path
       fill-rule="evenodd"
       d="m 185.91879,143.22182 v 0 c 0,-0.55562 0.44979,-1.00542 1.00541,-1.00542 h 1.64042 c 0.26458,0 0.52917,0.10584 0.71438,0.29105 0.1852,0.1852 0.29104,0.44979 0.29104,0.71437 v 5.715 c 0,0.55563 -0.44979,1.00542 -1.00542,1.00542 h -1.64042 c -0.55562,0 -1.00541,-0.44979 -1.00541,-1.00542 z"
       class="gb_19"
       id="path250"
       style="display:block;fill:#3d85c6;stroke-width:0.264583" />
    <path
       fill-rule="evenodd"
       d="m 187.374,142.16349 v 0 c 0,-0.0265 0.0265,-0.0265 0.0265,-0.0265 h 0.66141 c 0.0265,0 0.0265,0.0265 0.0265,0.0265 v 0.10583 c 0,0.0265 -0.0265,0.0265 -0.0265,0.0265 h -0.66146 c 0,0 -0.0265,0 -0.0265,-0.0265 z"
       class="gc_19"
       id="path251"
       style="display:block;fill:#efefef;stroke-width:0.264583" />
    <path
       fill-rule="evenodd"
       d="m 186.4215,142.5339 0.0529,0.21167 0.26459,-0.0529 0.0794,-0.0264 0.0265,-0.0529 v -0.0794 l -0.0265,-0.0529 h -0.18521 z"
       class="g0_19"
       id="path252"
       style="display:block;fill:#ffffff;stroke-width:0.264583" />
    <path
       fill-rule="evenodd"
       d="m 189.01441,142.5339 -0.0265,0.21167 -0.26458,-0.0529 -0.0794,-0.0264 -0.0265,-0.0529 v -0.0794 l 0.0265,-0.0529 h 0.1852 z"
       class="g0_19"
       id="path253"
       style="display:block;fill:#ffffff;stroke-width:0.264583" />
    <path
       fill-rule="evenodd"
       d="m 186.34212,144.65057 0.23813,0.76729 0.0264,0.0529 0.0794,0.0529 h 2.03729 l 0.0794,-0.0265 0.0529,-0.0529 0.23813,-0.66146 v -0.10577 l -0.0529,-0.0794 -0.26458,-0.0794 -0.42334,-0.0794 -0.34395,-0.0529 h -0.37042 l -0.23813,0.0265 h -0.1852 l -0.23813,0.0264 -0.21167,0.0529 -0.1852,0.0529 -0.15875,0.0794 z"
       class="gd_19"
       id="path254"
       style="display:block;fill:#9fc5e8;stroke-width:0.264583" />
    <path
       d="m 186.34212,144.65057 0.23813,0.76729 0.0264,0.0529 0.0794,0.0529 h 2.03729 l 0.0794,-0.0265 0.0529,-0.0529 0.23813,-0.66146 v -0.10577 l -0.0529,-0.0794 -0.26458,-0.0794 -0.42334,-0.0794 -0.34395,-0.0529 h -0.37042 l -0.23813,0.0265 h -0.1852 l -0.23813,0.0264 -0.21167,0.0529 -0.1852,0.0529 -0.15875,0.0794 z"
       class="ge_19"
       id="path255"
       style="display:block;fill:none;stroke:#073763;stroke-width:0.302948;stroke-linejoin:round" />
    <path
       fill-rule="evenodd"
       d="m 186.13045,144.91515 v 3.91584 l 0.0794,0.0265 0.29104,-0.23813 0.0794,-0.15875 0.0529,-0.13229 -0.0529,-2.24896 -0.0265,-0.18521 -0.10584,-0.29104 -0.10583,-0.29104 z"
       class="gd_19"
       id="path256"
       style="display:block;fill:#9fc5e8;stroke-width:0.264583" />
    <path
       d="m 186.13045,144.91515 v 3.91584 l 0.0794,0.0265 0.29104,-0.23813 0.0794,-0.15875 0.0529,-0.13229 -0.0529,-2.24896 -0.0265,-0.18521 -0.10584,-0.29104 -0.10583,-0.29104 z"
       class="ge_19"
       id="path257"
       style="display:block;fill:none;stroke:#073763;stroke-width:0.302948;stroke-linejoin:round" />
    <path
       fill-rule="evenodd"
       d="m 189.38483,144.96807 v 3.83646 l -0.0265,0.0794 -0.0794,0.0265 -0.26459,-0.26458 -0.10583,-0.15875 -0.0265,-0.13229 0.0265,-2.24896 0.0265,-0.15875 0.10583,-0.29104 0.13229,-0.29104 z"
       class="gd_19"
       id="path258"
       style="display:block;fill:#9fc5e8;stroke-width:0.264583" />
    <path
       d="m 189.38483,144.96807 v 3.83646 l -0.0265,0.0794 -0.0794,0.0265 -0.26459,-0.26458 -0.10583,-0.15875 -0.0265,-0.13229 0.0265,-2.24896 0.0265,-0.15875 0.10583,-0.29104 0.13229,-0.29104 z"
       class="ge_19"
       id="path259"
       style="display:block;fill:none;stroke:#073763;stroke-width:0.302948;stroke-linejoin:round" />
    <path
       fill-rule="evenodd"
       d="m 186.13045,144.8887 -0.0794,-0.0265 h -0.10583 l -0.0794,0.0265 -0.10583,0.0264 -0.0794,0.0529 v 0.13229 l 0.0529,0.0529 0.0794,0.0265 0.1323,0.0265 h 0.10583 l 0.0794,-0.0529 0.0529,-0.0529 0.0265,-0.0529 v -0.0529 l -0.0529,-0.0529 z"
       class="gf_19"
       id="path260"
       style="display:block;fill:#0b5394;stroke-width:0.264583" />
    <path
       fill-rule="evenodd"
       d="m 189.35837,144.8887 0.0529,-0.0265 h 0.10583 l 0.0794,0.0265 0.10583,0.0264 0.0794,0.0529 0.0265,0.0794 v 0.0529 l -0.0529,0.0529 -0.10584,0.0265 -0.13229,0.0265 h -0.0794 l -0.0794,-0.0529 -0.0529,-0.0529 -0.0265,-0.0529 v -0.0529 l 0.0265,-0.0529 z"
       class="gf_19"
       id="path261"
       style="display:block;fill:#0b5394;stroke-width:0.264583" />
    <path
       fill-rule="evenodd"
       d="m 187.374,149.86286 v 0 c 0,-0.0265 0.0265,-0.0265 0.0265,-0.0265 h 0.66141 q 0.0265,0 0.0265,0.0265 v 0.10584 c 0,0 -0.0265,0.0265 -0.0265,0.0265 h -0.66146 c 0,0 -0.0265,-0.0265 -0.0265,-0.0265 z"
       class="gc_19"
       id="path262"
       style="display:block;fill:#efefef;stroke-width:0.264583" />
    <path
       fill-rule="evenodd"
       d="m 186.4215,149.9687 0.0529,-0.21167 0.26459,0.0529 0.0794,0.0265 0.0265,0.0529 v 0.0794 l -0.0265,0.0529 h -0.18521 z"
       class="gf_19"
       id="path263"
       style="display:block;fill:#0b5394;stroke-width:0.264583" />
    <path
       fill-rule="evenodd"
       d="m 189.01441,149.9687 -0.0265,-0.21167 -0.26458,0.0529 -0.0794,0.0265 -0.0265,0.0529 v 0.0794 l 0.0265,0.0529 h 0.1852 z"
       class="gf_19"
       id="path264"
       style="display:block;fill:#0b5394;stroke-width:0.264583" />
    <path
       fill-rule="evenodd"
       d="m 186.81837,148.72515 h -0.0794 l -0.47625,0.42334 -0.0529,0.0794 0.0265,0.0794 0.15875,0.10583 0.18521,0.0794 0.26458,0.0529 0.29104,0.0529 0.3175,0.0265 h 0.3175 l 0.34396,-0.0265 h 0.3175 l 0.34396,-0.0794 0.26458,-0.0794 0.15875,-0.13229 0.0265,-0.0794 -0.0529,-0.10583 -0.42333,-0.37042 -0.0529,-0.0265 -0.50271,-0.0264 h -0.9525 z"
       class="gd_19"
       id="path265"
       style="display:block;fill:#9fc5e8;stroke-width:0.264583" />
    <path
       d="m 186.81837,148.72515 h -0.0794 l -0.47625,0.42334 -0.0529,0.0794 0.0265,0.0794 0.15875,0.10583 0.18521,0.0794 0.26458,0.0529 0.29104,0.0529 0.3175,0.0265 h 0.3175 l 0.34396,-0.0265 h 0.3175 l 0.34396,-0.0794 0.26458,-0.0794 0.15875,-0.13229 0.0265,-0.0794 -0.0529,-0.10583 -0.42333,-0.37042 -0.0529,-0.0265 -0.50271,-0.0264 h -0.9525 z"
       class="ge_19"
       id="path266"
       style="display:block;fill:none;stroke:#073763;stroke-width:0.302948;stroke-linejoin:round" />
    <path
       fill-rule="evenodd"
       d="m 186.84483,142.56036 c 0.0794,-0.0265 0.29104,-0.0529 0.47625,-0.0529 0.18521,0 0.44979,0 0.58208,0 0.15875,0 0.26459,0 0.37042,0.0264 0.10583,0 0.26458,0.0265 0.3175,0.0265 z"
       class="g1_19"
       id="path267"
       style="display:block;fill:#000000;fill-opacity:0;stroke-width:0.264583" />
    <path
       d="m 186.84483,142.56036 c 0.0794,-0.0265 0.29104,-0.0529 0.47625,-0.0529 0.18521,0 0.44979,0 0.58208,0 0.15875,0 0.26459,0 0.37042,0.0264 0.10583,0 0.26458,0.0265 0.3175,0.0265"
       class="ge_19"
       id="path268"
       style="display:block;fill:none;stroke:#073763;stroke-width:0.302948;stroke-linejoin:round" />
    <path
       fill-rule="evenodd"
       d="m 186.31566,142.74557 c -0.0265,0.0265 -0.0529,0.0265 -0.0794,0.0794 0,0.0529 -0.0265,0.13229 -0.0265,0.23812 -0.0265,0.10583 -0.0529,0.3175 -0.0794,0.44979 0,0.13229 0,0.26459 0,0.37042 0,0.13229 0.0265,0.23812 0.0529,0.34396 0.0265,0.13229 0.10583,0.34396 0.10583,0.42333 z"
       class="g1_19"
       id="path269"
       style="display:block;fill:#000000;fill-opacity:0;stroke-width:0.264583" />
    <path
       d="m 186.31566,142.74557 c -0.0265,0.0265 -0.0529,0.0265 -0.0794,0.0794 0,0.0529 -0.0265,0.13229 -0.0265,0.23812 -0.0265,0.10583 -0.0529,0.3175 -0.0794,0.44979 0,0.13229 0,0.26459 0,0.37042 0,0.13229 0.0265,0.23812 0.0529,0.34396 0.0265,0.13229 0.10583,0.34396 0.10583,0.42333"
       class="ge_19"
       id="path270"
       style="display:block;fill:none;stroke:#073763;stroke-width:0.302948;stroke-linejoin:round" />
    <path
       fill-rule="evenodd"
       d="m 189.1467,142.74557 c 0,0 0.0265,0.0529 0.0529,0.0794 0,0.0529 0.0265,0.10583 0.0265,0.1852 0.0265,0.0794 0.0529,0.18521 0.0794,0.29105 0,0.13229 0,0.23812 0,0.34395 0,0.1323 0,0.29105 0,0.37042 0,0.10583 0,0.0794 0,0.18521 -0.0265,0.0794 -0.13229,0.37042 -0.15875,0.42333 z"
       class="g1_19"
       id="path271"
       style="display:block;fill:#000000;fill-opacity:0;stroke-width:0.264583" />
    <path
       d="m 189.1467,142.74557 c 0,0 0.0265,0.0529 0.0529,0.0794 0,0.0529 0.0265,0.10583 0.0265,0.1852 0.0265,0.0794 0.0529,0.18521 0.0794,0.29105 0,0.13229 0,0.23812 0,0.34395 0,0.1323 0,0.29105 0,0.37042 0,0.10583 0,0.0794 0,0.18521 -0.0265,0.0794 -0.13229,0.37042 -0.15875,0.42333"
       class="ge_19"
       id="path272"
       style="display:block;fill:none;stroke:#073763;stroke-width:0.302948;stroke-linejoin:round" />
    <path
       fill-rule="evenodd"
       d="m 188.08837,144.5712 -1.11125,0.79375 h -0.13229 l -0.10583,-0.0265 -0.0794,-0.0265 -0.0529,-0.0529 -0.1852,-0.44979 0.0264,-0.0529 0.0265,-0.0264 0.29104,-0.0794 0.3175,-0.0529 0.3175,-0.0264 h 0.50271 z"
       class="gg_19"
       id="path273"
       style="display:block;fill:#cfe2f3;stroke-width:0.264583" />
  </g>
</svg>
