<?xml version="1.0" encoding="UTF-8" standalone="no"?>
<!-- Created with Inkscape (http://www.inkscape.org/) -->

<svg
   width="51.015999mm"
   height="44.97916mm"
   viewBox="0 0 51.015999 44.97916"
   version="1.1"
   id="svg1"
   inkscape:version="1.3.2 (1:1.3.2+202311252150+091e20ef0f)"
   sodipodi:docname="vm-01-14_1.svg"
   xmlns:inkscape="http://www.inkscape.org/namespaces/inkscape"
   xmlns:sodipodi="http://sodipodi.sourceforge.net/DTD/sodipodi-0.dtd"
   xmlns="http://www.w3.org/2000/svg"
   xmlns:svg="http://www.w3.org/2000/svg">
  <sodipodi:namedview
     id="namedview1"
     pagecolor="#ffffff"
     bordercolor="#000000"
     borderopacity="0.25"
     inkscape:showpageshadow="2"
     inkscape:pageopacity="0.0"
     inkscape:pagecheckerboard="0"
     inkscape:deskcolor="#d1d1d1"
     inkscape:document-units="mm"
     inkscape:zoom="1.7131103"
     inkscape:cx="88.435638"
     inkscape:cy="85.51697"
     inkscape:window-width="3840"
     inkscape:window-height="2123"
     inkscape:window-x="0"
     inkscape:window-y="0"
     inkscape:window-maximized="1"
     inkscape:current-layer="layer1" />
  <defs
     id="defs1">
    <clipPath
       id="c0_22">
      <path
         d="M 0,825 V 0 h 1100 v 825 z"
         id="path2" />
    </clipPath>
    <clipPath
       id="clipPath1">
      <path
         d="M 0,825 V 0 h 1100 v 825 z"
         id="path1" />
    </clipPath>
  </defs>
  <g
     inkscape:label="Layer 1"
     inkscape:groupmode="layer"
     id="layer1"
     transform="translate(-81.491666,-125.94167)">
    <path
       fill-rule="evenodd"
       d="m 84.904734,129.09021 h 23.997706 v 39.34354 H 84.904734 Z"
       class="g3_22"
       id="path96"
       style="display:block;fill:#666666;stroke-width:0.264583" />
    <path
       fill-rule="evenodd"
       d="m 87.153692,129.01083 v 39.60813 z"
       class="g1_22"
       id="path97"
       style="display:block;fill:#000000;fill-opacity:0;stroke-width:0.264583" />
    <path
       d="m 87.153692,129.01083 v 39.60813"
       class="g4_22"
       id="path98"
       style="display:block;fill:none;stroke:#ffffff;stroke-width:1.21259;stroke-linejoin:round" />
    <path
       fill-rule="evenodd"
       d="m 106.83869,129.01083 v 39.60813 z"
       class="g1_22"
       id="path99"
       style="display:block;fill:#000000;fill-opacity:0;stroke-width:0.264583" />
    <path
       d="m 106.83869,129.01083 v 39.60813"
       class="g4_22"
       id="path100"
       style="display:block;fill:none;stroke:#ffffff;stroke-width:1.21259;stroke-linejoin:round" />
    <path
       fill-rule="evenodd"
       d="M 96.837442,159.14687 V 150.1775 Z"
       class="g1_22"
       id="path101"
       style="display:block;fill:#000000;fill-opacity:0;stroke-width:0.264583" />
    <path
       d="m 96.837442,159.14687 v -5.34458"
       class="g9_22"
       id="path102"
       style="display:block;fill:none;stroke:#ff9900;stroke-width:0.60616;stroke-linejoin:round" />
    <path
       fill-rule="evenodd"
       d="m 97.8164,153.80229 -0.978958,-2.75167 -1.005416,2.75167 z"
       class="ga_22"
       id="path103"
       style="display:block;fill:#ff9900;stroke:#ff9900;stroke-width:0.60616;stroke-miterlimit:10" />
    <path
       fill-rule="evenodd"
       d="m 96.837442,138.82687 v 8.96938 z"
       class="g1_22"
       id="path104"
       style="display:block;fill:#000000;fill-opacity:0;stroke-width:0.264583" />
    <path
       d="M 96.837442,138.82687 V 144.145"
       class="g9_22"
       id="path105"
       style="display:block;fill:none;stroke:#ff9900;stroke-width:0.60616;stroke-linejoin:round" />
    <path
       fill-rule="evenodd"
       d="m 95.832026,144.145 1.005416,2.75166 0.978958,-2.75166 z"
       class="ga_22"
       id="path106"
       style="display:block;fill:#ff9900;stroke:#ff9900;stroke-width:0.60616;stroke-miterlimit:10" />
    <path
       fill-rule="evenodd"
       d="m 112.28911,160.62854 h 19.63208 v 10.29229 h -19.63208 z"
       class="g1_22"
       id="path107"
       style="display:block;fill:#000000;fill-opacity:0;stroke-width:0.264583" />
    <text
       clip-path="url(#c0_22)"
       x="319.89999"
       y="735.40002"
       class="s8_22"
       id="text107"
       style="font-size:13.75px;font-family:MS-PGothic_bp;white-space:pre;display:block;fill:#000000"
       transform="matrix(0.26458333,0,0,0.26458333,30.400568,-27.728333)">outward </text>
    <path
       fill-rule="evenodd"
       d="m 111.09849,125.94167 h 19.63208 v 10.29229 h -19.63208 z"
       class="g1_22"
       id="path108"
       style="display:block;fill:#000000;fill-opacity:0;stroke-width:0.264583" />
    <text
       clip-path="url(#c0_22)"
       x="315.29999"
       y="604.29999"
       class="s8_22"
       id="text108"
       style="font-size:13.75px;font-family:MS-PGothic_bp;white-space:pre;display:block;fill:#000000"
       transform="matrix(0.26458333,0,0,0.26458333,30.400568,-27.728333)">return </text>
    <path
       fill-rule="evenodd"
       d="m 94.720776,160.9725 v 0 c 0,-0.0265 0.05292,-0.0529 0.07937,-0.0529 h 0.291041 c 0.02646,0 0.05292,0 0.05292,0 0.02646,0.0265 0.02646,0.0529 0.02646,0.0529 v 1.19062 c 0,0.0265 -0.02646,0.0529 -0.07937,0.0529 h -0.291041 c -0.02646,0 -0.07937,-0.0265 -0.07937,-0.0529 z"
       class="gb_22"
       id="path109"
       style="display:block;fill:#000000;stroke-width:0.264583" />
    <path
       fill-rule="evenodd"
       d="m 98.583692,160.9725 v 0 c 0,-0.0265 0.05292,-0.0529 0.07937,-0.0529 h 0.291042 c 0.02646,0 0.05292,0 0.05292,0 0.02646,0.0265 0.02646,0.0529 0.02646,0.0529 v 1.19062 c 0,0.0265 -0.02646,0.0529 -0.07937,0.0529 h -0.291042 c -0.02646,0 -0.07937,-0.0265 -0.07937,-0.0529 z"
       class="gb_22"
       id="path110"
       style="display:block;fill:#000000;stroke-width:0.264583" />
    <path
       fill-rule="evenodd"
       d="m 94.720776,165.78791 v 0 c 0,-0.0265 0.05292,-0.0529 0.07937,-0.0529 h 0.291041 c 0.02646,0 0.05292,0 0.05292,0 0.02646,0.0265 0.02646,0.0529 0.02646,0.0529 v 1.19063 c 0,0.0265 -0.02646,0.0794 -0.07937,0.0794 h -0.291041 c -0.02646,0 -0.07937,-0.0529 -0.07937,-0.0794 z"
       class="gb_22"
       id="path111"
       style="display:block;fill:#000000;stroke-width:0.264583" />
    <path
       fill-rule="evenodd"
       d="m 98.583692,165.78791 v 0 c 0,-0.0265 0.05292,-0.0529 0.07937,-0.0529 h 0.291042 c 0.02646,0 0.05292,0 0.05292,0 0.02646,0.0265 0.02646,0.0529 0.02646,0.0529 v 1.19063 c 0,0.0265 -0.02646,0.0794 -0.07937,0.0794 h -0.291042 c -0.02646,0 -0.07937,-0.0529 -0.07937,-0.0794 z"
       class="gb_22"
       id="path112"
       style="display:block;fill:#000000;stroke-width:0.264583" />
    <path
       fill-rule="evenodd"
       d="m 94.879526,160.81375 v 0 c 0,-0.60854 0.502708,-1.11125 1.11125,-1.11125 H 97.8164 c 0.291042,0 0.582084,0.10583 0.79375,0.3175 0.211667,0.21166 0.3175,0.50271 0.3175,0.79375 v 6.29708 c 0,0.60854 -0.502708,1.11125 -1.11125,1.11125 h -1.825624 c -0.608542,0 -1.11125,-0.50271 -1.11125,-1.11125 z"
       class="gc_22"
       id="path113"
       style="display:block;fill:#3d85c6;stroke-width:0.264583" />
    <path
       fill-rule="evenodd"
       d="m 96.519942,159.64958 v 0 c 0,-0.0265 0,-0.0529 0.02646,-0.0529 h 0.687917 q 0.02646,0 0.02646,0.0265 0.02646,0 0.02646,0.0265 v 0.10583 c 0,0.0265 -0.02646,0.0265 -0.05292,0.0265 h -0.687917 q -0.02646,0 -0.02646,-0.0265 z"
       class="gd_22"
       id="path114"
       style="display:block;fill:#efefef;stroke-width:0.264583" />
    <path
       fill-rule="evenodd"
       d="m 95.461609,160.04646 0.02646,0.23812 0.3175,-0.0794 0.07937,-0.0265 0.02646,-0.0265 v -0.10583 l -0.02646,-0.0529 h -0.211666 z"
       class="g0_22"
       id="path115"
       style="display:block;fill:#ffffff;stroke-width:0.264583" />
    <path
       fill-rule="evenodd"
       d="m 98.319109,160.04646 -0.02646,0.23812 -0.3175,-0.0794 -0.07937,-0.0265 -0.02646,-0.0265 v -0.10583 l 0.02646,-0.0529 h 0.211667 z"
       class="g0_22"
       id="path116"
       style="display:block;fill:#ffffff;stroke-width:0.264583" />
    <path
       fill-rule="evenodd"
       d="m 95.355776,162.40125 0.264583,0.84666 0.05292,0.0529 0.07937,0.0529 h 2.222499 l 0.07937,-0.0265 0.07937,-0.0794 0.264584,-0.74083 v -0.0794 l -0.05292,-0.0794 -0.3175,-0.10583 -0.449792,-0.10584 -0.370416,-0.0529 -0.423334,0.0265 h -0.449791 l -0.264583,0.0529 -0.264584,0.0529 -0.185208,0.0529 -0.15875,0.0794 z"
       class="ge_22"
       id="path117"
       style="display:block;fill:#9fc5e8;stroke-width:0.264583" />
    <path
       d="m 95.355776,162.40125 0.264583,0.84666 0.05292,0.0529 0.07937,0.0529 h 2.222499 l 0.07937,-0.0265 0.07937,-0.0794 0.264584,-0.74083 v -0.0794 l -0.05292,-0.0794 -0.3175,-0.10583 -0.449792,-0.10584 -0.370416,-0.0529 -0.423334,0.0265 h -0.449791 l -0.264583,0.0529 -0.264584,0.0529 -0.185208,0.0529 -0.15875,0.0794 z"
       class="gf_22"
       id="path118"
       style="display:block;fill:none;stroke:#073763;stroke-width:0.302948;stroke-linejoin:round" />
    <path
       fill-rule="evenodd"
       d="m 95.117651,162.69229 v 4.23333 l 0.02646,0.0794 0.07937,0.0529 0.3175,-0.29104 0.07937,-0.18521 0.05292,-0.13229 -0.02646,-2.48708 -0.05292,-0.18521 -0.105834,-0.3175 -0.132291,-0.34396 z"
       class="ge_22"
       id="path119"
       style="display:block;fill:#9fc5e8;stroke-width:0.264583" />
    <path
       d="m 95.117651,162.69229 v 4.23333 l 0.02646,0.0794 0.07937,0.0529 0.3175,-0.29104 0.07937,-0.18521 0.05292,-0.13229 -0.02646,-2.48708 -0.05292,-0.18521 -0.105834,-0.3175 -0.132291,-0.34396 z"
       class="gf_22"
       id="path120"
       style="display:block;fill:none;stroke:#073763;stroke-width:0.302948;stroke-linejoin:round" />
    <path
       fill-rule="evenodd"
       d="m 98.715984,162.74521 v 4.23333 l -0.02646,0.0794 -0.07937,0.0265 -0.3175,-0.29104 -0.07937,-0.15875 -0.05292,-0.15875 0.05292,-2.46062 0.02646,-0.18521 0.105833,-0.34396 0.132292,-0.3175 z"
       class="ge_22"
       id="path121"
       style="display:block;fill:#9fc5e8;stroke-width:0.264583" />
    <path
       d="m 98.715984,162.74521 v 4.23333 l -0.02646,0.0794 -0.07937,0.0265 -0.3175,-0.29104 -0.07937,-0.15875 -0.05292,-0.15875 0.05292,-2.46062 0.02646,-0.18521 0.105833,-0.34396 0.132292,-0.3175 z"
       class="gf_22"
       id="path122"
       style="display:block;fill:none;stroke:#073763;stroke-width:0.302948;stroke-linejoin:round" />
    <path
       fill-rule="evenodd"
       d="m 95.117651,162.63937 -0.07937,-0.0265 -0.105834,0.0265 h -0.105833 l -0.105833,0.0529 -0.07937,0.0529 -0.02646,0.0794 v 0.0529 l 0.07937,0.0529 0.07937,0.0529 h 0.132292 l 0.132292,0.0265 0.07937,-0.0529 0.05292,-0.0794 0.02646,-0.0529 v -0.0794 l -0.02646,-0.0529 z"
       class="gg_22"
       id="path123"
       style="display:block;fill:#0b5394;stroke-width:0.264583" />
    <path
       fill-rule="evenodd"
       d="m 98.689525,162.63937 0.07938,-0.0265 0.105834,0.0265 h 0.07938 l 0.132291,0.0529 0.07937,0.0529 v 0.13229 l -0.05292,0.0529 -0.07937,0.0529 h -0.15875 l -0.105834,0.0265 -0.07938,-0.0529 -0.07937,-0.0794 -0.02646,-0.0529 v -0.0794 l 0.05292,-0.0529 z"
       class="gg_22"
       id="path124"
       style="display:block;fill:#0b5394;stroke-width:0.264583" />
    <path
       fill-rule="evenodd"
       d="m 96.519942,168.14271 v 0 c 0,-0.0265 0,-0.0529 0.02646,-0.0529 h 0.687917 c 0.02646,0 0.02646,0.0265 0.02646,0.0265 q 0.02646,0 0.02646,0.0265 v 0.10583 c 0,0.0265 -0.02646,0.0265 -0.05292,0.0265 h -0.687917 q -0.02646,0 -0.02646,-0.0265 z"
       class="gd_22"
       id="path125"
       style="display:block;fill:#efefef;stroke-width:0.264583" />
    <path
       fill-rule="evenodd"
       d="m 95.461609,168.275 0.02646,-0.26459 0.3175,0.0794 0.07937,0.0265 0.02646,0.0529 v 0.10584 l -0.02646,0.0265 -0.07937,0.0265 -0.132291,-0.0265 z"
       class="gg_22"
       id="path126"
       style="display:block;fill:#0b5394;stroke-width:0.264583" />
    <path
       fill-rule="evenodd"
       d="m 98.319109,168.275 -0.02646,-0.26459 -0.3175,0.0794 -0.07937,0.0265 -0.02646,0.0529 v 0.10584 l 0.02646,0.0265 0.07937,0.0265 0.132292,-0.0265 z"
       class="gg_22"
       id="path127"
       style="display:block;fill:#0b5394;stroke-width:0.264583" />
    <path
       fill-rule="evenodd"
       d="m 95.884942,166.87271 -0.07937,0.0264 -0.529166,0.4498 -0.05292,0.10583 0.02646,0.0794 0.15875,0.10584 0.211667,0.0794 0.291042,0.0794 0.343958,0.0529 0.3175,0.0265 h 0.370416 l 0.370417,-0.0265 h 0.343958 l 0.396875,-0.10583 0.264584,-0.0794 0.185208,-0.1323 0.05292,-0.10583 -0.05292,-0.0794 -0.502708,-0.42334 -0.02646,-0.0265 -0.555625,-0.0264 h -1.058333 z"
       class="ge_22"
       id="path128"
       style="display:block;fill:#9fc5e8;stroke-width:0.264583" />
    <path
       d="m 95.884942,166.87271 -0.07937,0.0264 -0.529166,0.4498 -0.05292,0.10583 0.02646,0.0794 0.15875,0.10584 0.211667,0.0794 0.291042,0.0794 0.343958,0.0529 0.3175,0.0265 h 0.370416 l 0.370417,-0.0265 h 0.343958 l 0.396875,-0.10583 0.264584,-0.0794 0.185208,-0.1323 0.05292,-0.10583 -0.05292,-0.0794 -0.502708,-0.42334 -0.02646,-0.0265 -0.555625,-0.0264 h -1.058333 z"
       class="gf_22"
       id="path129"
       style="display:block;fill:none;stroke:#073763;stroke-width:0.302948;stroke-linejoin:round" />
    <path
       fill-rule="evenodd"
       d="m 95.911401,160.07291 c 0.07937,-0.0265 0.343958,-0.0529 0.529166,-0.0529 0.211667,0 0.47625,0 0.661458,0 0.15875,0 0.264584,0 0.396875,0.0265 0.105834,0 0.291042,0.0265 0.343959,0.0265 z"
       class="g1_22"
       id="path130"
       style="display:block;fill:#000000;fill-opacity:0;stroke-width:0.264583" />
    <path
       d="m 95.911401,160.07291 c 0.07937,-0.0265 0.343958,-0.0529 0.529166,-0.0529 0.211667,0 0.47625,0 0.661458,0 0.15875,0 0.264584,0 0.396875,0.0265 0.105834,0 0.291042,0.0265 0.343959,0.0265"
       class="gf_22"
       id="path131"
       style="display:block;fill:none;stroke:#073763;stroke-width:0.302948;stroke-linejoin:round" />
    <path
       fill-rule="evenodd"
       d="m 95.329317,160.28458 c -0.02646,0.0265 -0.05292,0.0265 -0.07937,0.0794 -0.02646,0.0529 -0.02646,0.13229 -0.05292,0.26458 0,0.13229 -0.05292,0.34396 -0.07937,0.50271 0,0.13229 0,0.29104 0,0.42333 0.02646,0.13229 0.02646,0.23813 0.05292,0.37042 0.02646,0.13229 0.105834,0.39687 0.132292,0.44979 z"
       class="g1_22"
       id="path132"
       style="display:block;fill:#000000;fill-opacity:0;stroke-width:0.264583" />
    <path
       d="m 95.329317,160.28458 c -0.02646,0.0265 -0.05292,0.0265 -0.07937,0.0794 -0.02646,0.0529 -0.02646,0.13229 -0.05292,0.26458 0,0.13229 -0.05292,0.34396 -0.07937,0.50271 0,0.13229 0,0.29104 0,0.42333 0.02646,0.13229 0.02646,0.23813 0.05292,0.37042 0.02646,0.13229 0.105834,0.39687 0.132292,0.44979"
       class="gf_22"
       id="path133"
       style="display:block;fill:none;stroke:#073763;stroke-width:0.302948;stroke-linejoin:round" />
    <path
       fill-rule="evenodd"
       d="m 98.4514,160.25812 c 0,0.0265 0.05292,0.0794 0.05292,0.13229 0.02646,0.0265 0.02646,0.0794 0.05292,0.18521 0,0.0794 0.05292,0.21167 0.05292,0.34396 0.02646,0.10583 0.02646,0.23813 0.02646,0.37042 0,0.13229 0,0.3175 0,0.39687 -0.02646,0.10584 0,0.0794 -0.02646,0.18521 -0.02646,0.10583 -0.105833,0.42333 -0.132291,0.50271 z"
       class="g1_22"
       id="path134"
       style="display:block;fill:#000000;fill-opacity:0;stroke-width:0.264583" />
    <path
       d="m 98.4514,160.25812 c 0,0.0265 0.05292,0.0794 0.05292,0.13229 0.02646,0.0265 0.02646,0.0794 0.05292,0.18521 0,0.0794 0.05292,0.21167 0.05292,0.34396 0.02646,0.10583 0.02646,0.23813 0.02646,0.37042 0,0.13229 0,0.3175 0,0.39687 -0.02646,0.10584 0,0.0794 -0.02646,0.18521 -0.02646,0.10583 -0.105833,0.42333 -0.132291,0.50271"
       class="gf_22"
       id="path135"
       style="display:block;fill:none;stroke:#073763;stroke-width:0.302948;stroke-linejoin:round" />
    <path
       fill-rule="evenodd"
       d="m 97.287234,162.29541 -1.217083,0.87313 h -0.15875 l -0.105834,-0.0265 -0.07937,-0.0265 -0.05292,-0.0529 -0.211667,-0.50271 0.02646,-0.0529 0.02646,-0.0529 0.3175,-0.0794 0.343958,-0.0529 0.343958,-0.0265 h 0.555625 z"
       class="gh_22"
       id="path136"
       style="display:block;fill:#cfe2f3;stroke-width:0.264583" />
    <path
       fill-rule="evenodd"
       d="m 99.059942,136.65729 v 0 c 0,0.0265 -0.02646,0.0794 -0.07937,0.0794 H 98.68953 c 0,0 -0.02646,-0.0265 -0.02646,-0.0265 q -0.02646,-0.0265 -0.02646,-0.0529 v -1.16417 c 0,-0.0529 0.02646,-0.0794 0.05292,-0.0794 h 0.291042 c 0.05292,0 0.07937,0.0265 0.07937,0.0794 z"
       class="gb_22"
       id="path137"
       style="display:block;fill:#000000;stroke-width:0.264583" />
    <path
       fill-rule="evenodd"
       d="m 95.197026,136.65729 v 0 c 0,0.0265 -0.02646,0.0794 -0.07937,0.0794 h -0.291042 c 0,0 -0.02646,-0.0265 -0.05292,-0.0265 q 0,-0.0265 0,-0.0529 v -1.16417 c 0,-0.0529 0.02646,-0.0794 0.05292,-0.0794 h 0.291042 c 0.05292,0 0.07937,0.0265 0.07937,0.0794 z"
       class="gb_22"
       id="path138"
       style="display:block;fill:#000000;stroke-width:0.264583" />
    <path
       fill-rule="evenodd"
       d="m 99.059942,131.84187 v 0 c 0,0.0265 -0.02646,0.0794 -0.07937,0.0794 H 98.68953 c 0,0 -0.02646,-0.0265 -0.02646,-0.0265 q -0.02646,-0.0265 -0.02646,-0.0529 v -1.19062 c 0,-0.0265 0.02646,-0.0529 0.05292,-0.0529 h 0.291042 c 0.05292,0 0.07937,0.0265 0.07937,0.0529 z"
       class="gb_22"
       id="path139"
       style="display:block;fill:#000000;stroke-width:0.264583" />
    <path
       fill-rule="evenodd"
       d="m 95.197026,131.84187 v 0 c 0,0.0265 -0.02646,0.0794 -0.07937,0.0794 h -0.291042 c 0,0 -0.02646,-0.0265 -0.05292,-0.0265 q 0,-0.0265 0,-0.0529 v -1.19062 c 0,-0.0265 0.02646,-0.0529 0.05292,-0.0529 h 0.291042 c 0.05292,0 0.07937,0.0265 0.07937,0.0529 z"
       class="gb_22"
       id="path140"
       style="display:block;fill:#000000;stroke-width:0.264583" />
    <path
       fill-rule="evenodd"
       d="m 98.901192,136.81604 v 0 c 0,0.635 -0.47625,1.13771 -1.11125,1.13771 h -1.799166 c -0.3175,0 -0.582084,-0.13229 -0.79375,-0.34396 -0.211667,-0.21167 -0.343959,-0.47625 -0.343959,-0.79375 v -6.29708 c 0,-0.60854 0.502709,-1.11125 1.137709,-1.11125 h 1.799166 c 0.635,0 1.11125,0.50271 1.11125,1.11125 z"
       class="gc_22"
       id="path141"
       style="display:block;fill:#3d85c6;stroke-width:0.264583" />
    <path
       fill-rule="evenodd"
       d="m 97.287234,138.00666 v 0 c 0,0 -0.02646,0.0265 -0.02646,0.0265 h -0.714375 c 0,0 -0.02646,0 -0.02646,0 q 0,-0.0265 0,-0.0265 v -0.13229 q 0,-0.0265 0.02646,-0.0265 h 0.714375 c 0,0 0.02646,0 0.02646,0.0265 z"
       class="gd_22"
       id="path142"
       style="display:block;fill:#efefef;stroke-width:0.264583" />
    <path
       fill-rule="evenodd"
       d="m 98.345567,137.60979 -0.05292,-0.26458 -0.3175,0.0794 -0.05292,0.0265 -0.02646,0.0265 -0.02646,0.0529 0.02646,0.0529 0.02646,0.0529 h 0.211666 z"
       class="g0_22"
       id="path143"
       style="display:block;fill:#ffffff;stroke-width:0.264583" />
    <path
       fill-rule="evenodd"
       d="m 95.461609,137.60979 0.05292,-0.26458 0.291041,0.0794 0.07937,0.0265 0.02646,0.0265 0.02646,0.0529 -0.02646,0.0529 -0.02646,0.0529 h -0.211666 z"
       class="g0_22"
       id="path144"
       style="display:block;fill:#ffffff;stroke-width:0.264583" />
    <path
       fill-rule="evenodd"
       d="m 98.424942,135.255 -0.238125,-0.84667 -0.05292,-0.0794 -0.07937,-0.0529 -2.248958,0.0265 -0.07937,0.0265 -0.07937,0.0529 -0.264583,0.74084 v 0.10583 l 0.07937,0.0794 0.291042,0.10584 0.449791,0.0794 0.370417,0.0529 h 0.423333 l 0.291042,-0.0265 h 0.185208 l 0.264583,-0.0529 0.238125,-0.0529 0.185209,-0.0529 0.185208,-0.0794 z"
       class="ge_22"
       id="path145"
       style="display:block;fill:#9fc5e8;stroke-width:0.264583" />
    <path
       d="m 98.424942,135.255 -0.238125,-0.84667 -0.05292,-0.0794 -0.07937,-0.0529 -2.248958,0.0265 -0.07937,0.0265 -0.07937,0.0529 -0.264583,0.74084 v 0.10583 l 0.07937,0.0794 0.291042,0.10584 0.449791,0.0794 0.370417,0.0529 h 0.423333 l 0.291042,-0.0265 h 0.185208 l 0.264583,-0.0529 0.238125,-0.0529 0.185209,-0.0529 0.185208,-0.0794 z"
       class="gf_22"
       id="path146"
       style="display:block;fill:none;stroke:#073763;stroke-width:0.302948;stroke-linejoin:round" />
    <path
       fill-rule="evenodd"
       d="m 98.663067,134.9375 v -4.31271 l -0.07937,-0.0265 -0.3175,0.29104 -0.105833,0.15875 -0.05292,0.15875 0.05292,2.46063 0.02646,0.18521 0.105833,0.34395 0.15875,0.3175 z"
       class="ge_22"
       id="path147"
       style="display:block;fill:#9fc5e8;stroke-width:0.264583" />
    <path
       d="m 98.663067,134.9375 v -4.31271 l -0.07937,-0.0265 -0.3175,0.29104 -0.105833,0.15875 -0.05292,0.15875 0.05292,2.46063 0.02646,0.18521 0.105833,0.34395 0.15875,0.3175 z"
       class="gf_22"
       id="path148"
       style="display:block;fill:none;stroke:#073763;stroke-width:0.302948;stroke-linejoin:round" />
    <path
       fill-rule="evenodd"
       d="m 95.091192,134.88458 v -4.31271 l 0.07937,-0.0264 0.3175,0.29104 0.105834,0.15875 0.05292,0.15875 -0.05292,2.48708 -0.02646,0.18521 -0.105833,0.3175 -0.15875,0.3175 z"
       class="ge_22"
       id="path149"
       style="display:block;fill:#9fc5e8;stroke-width:0.264583" />
    <path
       d="m 95.091192,134.88458 v -4.31271 l 0.07937,-0.0264 0.3175,0.29104 0.105834,0.15875 0.05292,0.15875 -0.05292,2.48708 -0.02646,0.18521 -0.105833,0.3175 -0.15875,0.3175 z"
       class="gf_22"
       id="path150"
       style="display:block;fill:none;stroke:#073763;stroke-width:0.302948;stroke-linejoin:round" />
    <path
       fill-rule="evenodd"
       d="m 98.689525,134.99041 0.07938,0.0265 h 0.105834 l 0.07938,-0.0265 0.132291,-0.0529 0.07937,-0.0529 v -0.13229 l -0.05292,-0.0529 -0.07937,-0.0265 -0.15875,-0.0265 h -0.105834 l -0.07938,0.0265 -0.07937,0.0794 -0.02646,0.0529 v 0.0794 l 0.05292,0.0529 z"
       class="gg_22"
       id="path151"
       style="display:block;fill:#0b5394;stroke-width:0.264583" />
    <path
       fill-rule="evenodd"
       d="m 95.117651,134.99041 -0.07937,0.0265 h -0.105834 l -0.105833,-0.0265 -0.105833,-0.0529 -0.07937,-0.0529 -0.02646,-0.0529 v -0.0794 l 0.07937,-0.0529 0.07937,-0.0265 0.132292,-0.0265 h 0.132292 l 0.07937,0.0265 0.05292,0.0794 0.02646,0.0529 v 0.0794 l -0.02646,0.0529 z"
       class="gg_22"
       id="path152"
       style="display:block;fill:#0b5394;stroke-width:0.264583" />
    <path
       fill-rule="evenodd"
       d="m 97.287234,129.51354 v 0 c 0,0 -0.02646,0.0265 -0.02646,0.0265 h -0.714375 c 0,0 -0.02646,0 -0.02646,-0.0265 v -0.13229 q 0,-0.0265 0.02646,-0.0265 h 0.714375 c 0,0 0.02646,0 0.02646,0.0265 z"
       class="gd_22"
       id="path153"
       style="display:block;fill:#efefef;stroke-width:0.264583" />
    <path
       fill-rule="evenodd"
       d="m 98.345567,129.35479 -0.05292,0.26458 -0.3175,-0.0794 -0.05292,-0.0265 -0.02646,-0.0265 -0.02646,-0.0529 0.02646,-0.0529 0.02646,-0.0529 h 0.211666 z"
       class="gg_22"
       id="path154"
       style="display:block;fill:#0b5394;stroke-width:0.264583" />
    <path
       fill-rule="evenodd"
       d="m 95.461609,129.35479 0.05292,0.26458 0.291041,-0.0794 0.07937,-0.0265 0.02646,-0.0265 0.02646,-0.0529 -0.02646,-0.0529 -0.02646,-0.0529 h -0.211666 z"
       class="gg_22"
       id="path155"
       style="display:block;fill:#0b5394;stroke-width:0.264583" />
    <path
       fill-rule="evenodd"
       d="m 97.922234,130.75708 h 0.07938 l 0.529166,-0.47625 0.05292,-0.0794 -0.02646,-0.10584 -0.15875,-0.10583 -0.211667,-0.0794 -0.3175,-0.0794 -0.3175,-0.0529 -0.343958,-0.0265 h -0.343959 l -0.370416,0.0265 -0.370417,0.0265 -0.396875,0.0794 -0.264583,0.0794 -0.185208,0.13229 -0.02646,0.10584 0.05292,0.10583 0.47625,0.39688 0.05292,0.0529 h 1.613958 z"
       class="ge_22"
       id="path156"
       style="display:block;fill:#9fc5e8;stroke-width:0.264583" />
    <path
       d="m 97.922234,130.75708 h 0.07938 l 0.529166,-0.47625 0.05292,-0.0794 -0.02646,-0.10584 -0.15875,-0.10583 -0.211667,-0.0794 -0.3175,-0.0794 -0.3175,-0.0529 -0.343958,-0.0265 h -0.343959 l -0.370416,0.0265 -0.370417,0.0265 -0.396875,0.0794 -0.264583,0.0794 -0.185208,0.13229 -0.02646,0.10584 0.05292,0.10583 0.47625,0.39688 0.05292,0.0529 h 1.613958 z"
       class="gf_22"
       id="path157"
       style="display:block;fill:none;stroke:#073763;stroke-width:0.302948;stroke-linejoin:round" />
    <path
       fill-rule="evenodd"
       d="m 97.869317,137.58333 c -0.07937,0 -0.3175,0.0265 -0.502708,0.0265 -0.211667,0.0265 -0.502709,0.0265 -0.661459,0 -0.185208,0 -0.264583,0 -0.396874,-0.0265 -0.132292,0 -0.291042,-0.0265 -0.343959,-0.0265 z"
       class="g1_22"
       id="path158"
       style="display:block;fill:#000000;fill-opacity:0;stroke-width:0.264583" />
    <path
       d="m 97.869317,137.58333 c -0.07937,0 -0.3175,0.0265 -0.502708,0.0265 -0.211667,0.0265 -0.502709,0.0265 -0.661459,0 -0.185208,0 -0.264583,0 -0.396874,-0.0265 -0.132292,0 -0.291042,-0.0265 -0.343959,-0.0265"
       class="gf_22"
       id="path159"
       style="display:block;fill:none;stroke:#073763;stroke-width:0.302948;stroke-linejoin:round" />
    <path
       fill-rule="evenodd"
       d="m 98.477859,137.34521 c 0,-0.0265 0.05292,-0.0265 0.05292,-0.0794 0.02646,-0.0529 0.02646,-0.13229 0.05292,-0.26458 0.02646,-0.13229 0.07937,-0.34396 0.07937,-0.47625 0.02646,-0.15875 0.02646,-0.29104 0,-0.44979 0,-0.1323 -0.02646,-0.23813 -0.05292,-0.37042 -0.02646,-0.13229 -0.105833,-0.37042 -0.132291,-0.44979 z"
       class="g1_22"
       id="path160"
       style="display:block;fill:#000000;fill-opacity:0;stroke-width:0.264583" />
    <path
       d="m 98.477859,137.34521 c 0,-0.0265 0.05292,-0.0265 0.05292,-0.0794 0.02646,-0.0529 0.02646,-0.13229 0.05292,-0.26458 0.02646,-0.13229 0.07937,-0.34396 0.07937,-0.47625 0.02646,-0.15875 0.02646,-0.29104 0,-0.44979 0,-0.1323 -0.02646,-0.23813 -0.05292,-0.37042 -0.02646,-0.13229 -0.105833,-0.37042 -0.132291,-0.44979"
       class="gf_22"
       id="path161"
       style="display:block;fill:none;stroke:#073763;stroke-width:0.302948;stroke-linejoin:round" />
    <path
       fill-rule="evenodd"
       d="m 95.355776,137.37166 c -0.02646,-0.0264 -0.05292,-0.0529 -0.07937,-0.10583 0,-0.0529 -0.02646,-0.10583 -0.02646,-0.18521 -0.02646,-0.10583 -0.05292,-0.23812 -0.07937,-0.34396 0,-0.13229 -0.02646,-0.26458 -0.02646,-0.39687 0,-0.13229 0.02646,-0.29104 0.02646,-0.39688 0,-0.10583 -0.02646,-0.0794 0,-0.1852 0.02646,-0.10584 0.132292,-0.39688 0.15875,-0.50271 z"
       class="g1_22"
       id="path162"
       style="display:block;fill:#000000;fill-opacity:0;stroke-width:0.264583" />
    <path
       d="m 95.355776,137.37166 c -0.02646,-0.0264 -0.05292,-0.0529 -0.07937,-0.10583 0,-0.0529 -0.02646,-0.10583 -0.02646,-0.18521 -0.02646,-0.10583 -0.05292,-0.23812 -0.07937,-0.34396 0,-0.13229 -0.02646,-0.26458 -0.02646,-0.39687 0,-0.13229 0.02646,-0.29104 0.02646,-0.39688 0,-0.10583 -0.02646,-0.0794 0,-0.1852 0.02646,-0.10584 0.132292,-0.39688 0.15875,-0.50271"
       class="gf_22"
       id="path163"
       style="display:block;fill:none;stroke:#073763;stroke-width:0.302948;stroke-linejoin:round" />
    <path
       fill-rule="evenodd"
       d="m 96.519942,135.33437 1.190625,-0.87312 h 0.185208 l 0.105834,0.0265 0.07937,0.0265 0.05292,0.0794 0.211667,0.50271 -0.02646,0.0529 -0.05292,0.0265 -0.291042,0.0794 -0.343958,0.0529 -0.370417,0.0265 -0.264583,0.0265 h -0.264583 z"
       class="gh_22"
       id="path164"
       style="display:block;fill:#cfe2f3;stroke-width:0.264583" />
  </g>
</svg>
