<?xml version="1.0" encoding="UTF-8" standalone="no"?>
<!-- Created with Inkscape (http://www.inkscape.org/) -->

<svg
   width="42.733002mm"
   height="42.141998mm"
   viewBox="0 0 42.733002 42.141998"
   version="1.1"
   id="svg1"
   inkscape:version="1.3.2 (1:1.3.2+202311252150+091e20ef0f)"
   sodipodi:docname="vm-05-07_1.svg"
   xmlns:inkscape="http://www.inkscape.org/namespaces/inkscape"
   xmlns:sodipodi="http://sodipodi.sourceforge.net/DTD/sodipodi-0.dtd"
   xmlns="http://www.w3.org/2000/svg"
   xmlns:svg="http://www.w3.org/2000/svg">
  <sodipodi:namedview
     id="namedview1"
     pagecolor="#ffffff"
     bordercolor="#000000"
     borderopacity="0.25"
     inkscape:showpageshadow="2"
     inkscape:pageopacity="0.0"
     inkscape:pagecheckerboard="0"
     inkscape:deskcolor="#d1d1d1"
     inkscape:document-units="mm"
     inkscape:zoom="4.8454075"
     inkscape:cx="67.589774"
     inkscape:cy="92.355492"
     inkscape:window-width="1920"
     inkscape:window-height="2123"
     inkscape:window-x="0"
     inkscape:window-y="0"
     inkscape:window-maximized="0"
     inkscape:current-layer="layer1" />
  <defs
     id="defs1">
    <clipPath
       id="c0_61">
      <path
         d="M 0,825 V 0 h 1100 v 825 z"
         id="path2" />
    </clipPath>
  </defs>
  <g
     inkscape:label="Layer 1"
     inkscape:groupmode="layer"
     id="layer1"
     transform="translate(-87.577083,-130.43958)">
    <path
       fill-rule="evenodd"
       d="m 105.37372,133.30497 h 22.72771 v 35.93042 h -22.72771 z"
       class="g3_61"
       id="path52"
       style="display:block;fill:#666666;stroke-width:0.264583" />
    <path
       fill-rule="evenodd"
       d="m 105.37372,133.49018 v 35.90396 z"
       class="g1_61"
       id="path53"
       style="display:block;fill:#000000;fill-opacity:0;stroke-width:0.264583" />
    <path
       d="m 105.37372,133.49018 v 35.90396"
       class="g2_61"
       id="path54"
       style="display:block;fill:none;stroke:#000000;stroke-width:0.302948;stroke-linejoin:round" />
    <path
       fill-rule="evenodd"
       d="m 128.10143,133.49018 v 35.90396 z"
       class="g1_61"
       id="path55"
       style="display:block;fill:#000000;fill-opacity:0;stroke-width:0.264583" />
    <path
       d="m 128.10143,133.49018 v 35.90396"
       class="g2_61"
       id="path56"
       style="display:block;fill:none;stroke:#000000;stroke-width:0.302948;stroke-linejoin:round" />
    <path
       fill-rule="evenodd"
       d="m 106.00873,133.25206 h 1.00541 v 4.36562 h -1.00541 z"
       class="g0_61"
       id="path57"
       style="display:block;fill:#ffffff;stroke-width:0.264583" />
    <path
       fill-rule="evenodd"
       d="m 108.04602,133.25206 h 1.03187 v 4.36562 h -1.03187 z"
       class="g0_61"
       id="path58"
       style="display:block;fill:#ffffff;stroke-width:0.264583" />
    <path
       fill-rule="evenodd"
       d="m 110.10977,133.25206 h 1.00541 v 4.36562 h -1.00541 z"
       class="g0_61"
       id="path59"
       style="display:block;fill:#ffffff;stroke-width:0.264583" />
    <path
       fill-rule="evenodd"
       d="m 112.14706,133.25206 h 1.03187 v 4.36562 h -1.03187 z"
       class="g0_61"
       id="path60"
       style="display:block;fill:#ffffff;stroke-width:0.264583" />
    <path
       fill-rule="evenodd"
       d="m 114.21081,133.25206 h 1.00542 v 4.36562 h -1.00542 z"
       class="g0_61"
       id="path61"
       style="display:block;fill:#ffffff;stroke-width:0.264583" />
    <path
       fill-rule="evenodd"
       d="m 116.2481,133.25206 h 1.00542 v 4.36562 h -1.00542 z"
       class="g0_61"
       id="path62"
       style="display:block;fill:#ffffff;stroke-width:0.264583" />
    <path
       fill-rule="evenodd"
       d="m 118.31185,133.25206 h 1.00542 v 4.36562 h -1.00542 z"
       class="g0_61"
       id="path63"
       style="display:block;fill:#ffffff;stroke-width:0.264583" />
    <path
       fill-rule="evenodd"
       d="m 120.34914,133.25206 h 1.00542 v 4.36562 h -1.00542 z"
       class="g0_61"
       id="path64"
       style="display:block;fill:#ffffff;stroke-width:0.264583" />
    <path
       fill-rule="evenodd"
       d="m 122.38643,133.25206 h 1.03188 v 4.36562 h -1.03188 z"
       class="g0_61"
       id="path65"
       style="display:block;fill:#ffffff;stroke-width:0.264583" />
    <path
       fill-rule="evenodd"
       d="m 124.45018,133.25206 h 1.00542 v 4.36562 h -1.00542 z"
       class="g0_61"
       id="path66"
       style="display:block;fill:#ffffff;stroke-width:0.264583" />
    <path
       fill-rule="evenodd"
       d="m 126.48748,133.25206 h 1.03187 v 4.36562 h -1.03187 z"
       class="g0_61"
       id="path67"
       style="display:block;fill:#ffffff;stroke-width:0.264583" />
    <path
       fill-rule="evenodd"
       d="m 105.98227,164.86977 h 1.00541 v 4.36562 h -1.00541 z"
       class="g0_61"
       id="path68"
       style="display:block;fill:#ffffff;stroke-width:0.264583" />
    <path
       fill-rule="evenodd"
       d="m 108.04602,164.86977 h 1.00541 v 4.36562 h -1.00541 z"
       class="g0_61"
       id="path69"
       style="display:block;fill:#ffffff;stroke-width:0.264583" />
    <path
       fill-rule="evenodd"
       d="m 110.08331,164.86977 h 1.00542 v 4.36562 h -1.00542 z"
       class="g0_61"
       id="path70"
       style="display:block;fill:#ffffff;stroke-width:0.264583" />
    <path
       fill-rule="evenodd"
       d="m 112.1206,164.86977 h 1.03188 v 4.36562 h -1.03188 z"
       class="g0_61"
       id="path71"
       style="display:block;fill:#ffffff;stroke-width:0.264583" />
    <path
       fill-rule="evenodd"
       d="m 114.18435,164.86977 h 1.00542 v 4.36562 h -1.00542 z"
       class="g0_61"
       id="path72"
       style="display:block;fill:#ffffff;stroke-width:0.264583" />
    <path
       fill-rule="evenodd"
       d="m 116.22164,164.86977 h 1.03188 v 4.36562 h -1.03188 z"
       class="g0_61"
       id="path73"
       style="display:block;fill:#ffffff;stroke-width:0.264583" />
    <path
       fill-rule="evenodd"
       d="m 118.28539,164.86977 h 1.00542 v 4.36562 h -1.00542 z"
       class="g0_61"
       id="path74"
       style="display:block;fill:#ffffff;stroke-width:0.264583" />
    <path
       fill-rule="evenodd"
       d="m 120.32268,164.86977 h 1.00542 v 4.36562 h -1.00542 z"
       class="g0_61"
       id="path75"
       style="display:block;fill:#ffffff;stroke-width:0.264583" />
    <path
       fill-rule="evenodd"
       d="m 122.38643,164.86977 h 1.00542 v 4.36562 h -1.00542 z"
       class="g0_61"
       id="path76"
       style="display:block;fill:#ffffff;stroke-width:0.264583" />
    <path
       fill-rule="evenodd"
       d="m 124.42373,164.86977 h 1.00541 v 4.36562 h -1.00541 z"
       class="g0_61"
       id="path77"
       style="display:block;fill:#ffffff;stroke-width:0.264583" />
    <path
       fill-rule="evenodd"
       d="m 126.46102,164.86977 h 1.03187 v 4.36562 h -1.03187 z"
       class="g0_61"
       id="path78"
       style="display:block;fill:#ffffff;stroke-width:0.264583" />
    <path
       fill-rule="evenodd"
       d="m 105.37372,138.01456 h 15.16063 v 0.34396 h -15.16063 z"
       class="g0_61"
       id="path79"
       style="display:block;fill:#ffffff;stroke-width:0.264583" />
    <path
       fill-rule="evenodd"
       d="m 112.78206,138.19977 h 0.34396 v 4.36562 h -0.34396 z"
       class="g0_61"
       id="path80"
       style="display:block;fill:#ffffff;stroke-width:0.264583" />
    <path
       fill-rule="evenodd"
       d="m 112.94081,164.15539 h 15.16062 v 0.34396 h -15.16062 z"
       class="g0_61"
       id="path81"
       style="display:block;fill:#ffffff;stroke-width:0.264583" />
    <path
       fill-rule="evenodd"
       d="m 112.78206,150.10602 h 0.34396 v 14.39333 h -0.34396 z"
       class="g0_61"
       id="path82"
       style="display:block;fill:#ffffff;stroke-width:0.264583" />
    <path
       fill-rule="evenodd"
       d="m 120.34914,164.49935 h 0.34396 v -4.39208 h -0.34396 z"
       class="g0_61"
       id="path83"
       style="display:block;fill:#ffffff;stroke-width:0.264583" />
    <path
       fill-rule="evenodd"
       d="m 120.34914,151.34956 h 0.34396 v -13.14979 h -0.34396 z"
       class="g0_61"
       id="path84"
       style="display:block;fill:#ffffff;stroke-width:0.264583" />
    <path
       fill-rule="evenodd"
       d="m 120.61373,143.65018 -0.0529,0.34396 -0.82021,-0.13229 0.0529,-0.34396 z"
       class="g0_61"
       id="path85"
       style="display:block;fill:#ffffff;stroke-width:0.264583" />
    <path
       fill-rule="evenodd"
       d="m 120.48143,141.63935 v 0.50271 l -0.10583,0.44979 -0.13229,0.29104 -0.13229,0.26458 -0.23813,0.26459 -6.50875,5.90021 -0.34396,0.39687 -0.0794,0.18521 -0.10583,0.26458 -0.0529,0.3175 v 0.9525 h 0.10583 l 0.0265,-0.55562 0.0794,-0.26459 0.1852,-0.42333 0.26459,-0.52917 0.29104,-0.29104 6.48229,-5.92666 0.26458,-0.47625 0.1323,-0.34396 0.0265,-0.87313 z"
       class="g0_61"
       id="path86"
       style="display:block;fill:#ffffff;stroke-width:0.264583" />
    <path
       fill-rule="evenodd"
       d="m 120.48143,150.0531 v 0.50271 l -0.10583,0.44979 -0.13229,0.29104 -0.13229,0.26458 -0.23813,0.26459 -6.50875,5.90021 -0.34396,0.39687 -0.0794,0.18521 -0.10583,0.26458 -0.0529,0.3175 v 0.9525 h 0.10583 l 0.0265,-0.55562 0.0794,-0.26459 0.1852,-0.42333 0.26459,-0.52917 0.29104,-0.29104 6.48229,-5.92666 0.26458,-0.47625 0.1323,-0.34396 0.0265,-0.87313 z"
       class="g0_61"
       id="path87"
       style="display:block;fill:#ffffff;stroke-width:0.264583" />
    <path
       fill-rule="evenodd"
       d="m 120.64018,144.94664 -0.0529,0.34396 -2.03729,-0.34396 0.0529,-0.34396 z"
       class="g0_61"
       id="path88"
       style="display:block;fill:#ffffff;stroke-width:0.264583" />
    <path
       fill-rule="evenodd"
       d="m 120.64018,146.2431 -0.0794,0.34396 -3.175,-0.55563 0.0529,-0.34396 z"
       class="g0_61"
       id="path89"
       style="display:block;fill:#ffffff;stroke-width:0.264583" />
    <path
       fill-rule="evenodd"
       d="m 120.66664,147.53956 -0.0794,0.34396 -4.41854,-0.7673 0.0529,-0.34395 z"
       class="g0_61"
       id="path90"
       style="display:block;fill:#ffffff;stroke-width:0.264583" />
    <path
       fill-rule="evenodd"
       d="m 120.64018,148.83602 -0.0529,0.34395 -5.63563,-1.00541 0.0529,-0.3175 z"
       class="g0_61"
       id="path91"
       style="display:block;fill:#ffffff;stroke-width:0.264583" />
    <path
       fill-rule="evenodd"
       d="m 120.58727,150.13247 -0.0529,0.34396 -6.77333,-1.21708 0.0794,-0.3175 z"
       class="g0_61"
       id="path92"
       style="display:block;fill:#ffffff;stroke-width:0.264583" />
    <path
       fill-rule="evenodd"
       d="m 120.29623,151.37602 -0.0529,0.34395 -7.24958,-1.29645 0.0794,-0.34396 z"
       class="g0_61"
       id="path93"
       style="display:block;fill:#ffffff;stroke-width:0.264583" />
    <path
       fill-rule="evenodd"
       d="m 119.21143,152.46081 -0.0794,0.34396 -6.16479,-1.0848 0.0529,-0.34395 z"
       class="g0_61"
       id="path94"
       style="display:block;fill:#ffffff;stroke-width:0.264583" />
    <path
       fill-rule="evenodd"
       d="m 118.02081,153.5456 -0.0794,0.34396 -5.00062,-0.87313 0.0794,-0.34396 z"
       class="g0_61"
       id="path95"
       style="display:block;fill:#ffffff;stroke-width:0.264583" />
    <path
       fill-rule="evenodd"
       d="m 116.83018,154.63039 -0.0794,0.34396 -3.81,-0.66146 0.0529,-0.34396 z"
       class="g0_61"
       id="path96"
       style="display:block;fill:#ffffff;stroke-width:0.264583" />
    <path
       fill-rule="evenodd"
       d="m 115.63956,155.71518 -0.0529,0.34396 -2.59291,-0.44979 0.0529,-0.34396 z"
       class="g0_61"
       id="path97"
       style="display:block;fill:#ffffff;stroke-width:0.264583" />
    <path
       fill-rule="evenodd"
       d="m 114.44893,156.79997 -0.0794,0.34396 -1.48167,-0.26458 0.0529,-0.34396 z"
       class="g0_61"
       id="path98"
       style="display:block;fill:#ffffff;stroke-width:0.264583" />
    <path
       fill-rule="evenodd"
       d="m 113.36414,157.91122 -0.0794,0.34396 -0.37042,-0.0794 0.0529,-0.34396 z"
       class="g0_61"
       id="path99"
       style="display:block;fill:#ffffff;stroke-width:0.264583" />
    <path
       fill-rule="evenodd"
       d="m 108.28414,139.54914 0.79375,-0.79375 0.76729,0.79375 h -0.39687 v 1.82563 h -0.76729 v -1.82563 z"
       class="g0_61"
       id="path100"
       style="display:block;fill:#ffffff;stroke-width:0.264583" />
    <path
       fill-rule="evenodd"
       d="m 123.52414,162.99122 0.79375,0.79375 0.76729,-0.79375 h -0.37041 v -1.82562 h -0.79375 v 1.82562 z"
       class="g0_61"
       id="path101"
       style="display:block;fill:#ffffff;stroke-width:0.264583" />
    <path
       fill-rule="evenodd"
       d="m 108.09893,141.18956 -0.55562,-0.55563 0.55562,-0.55562 v 0.29104 h 0.9525 v 0.55562 h -0.9525 z"
       class="g0_61"
       id="path102"
       style="display:block;fill:#ffffff;stroke-width:0.264583" />
    <path
       fill-rule="evenodd"
       d="m 125.42914,162.27685 0.52917,-0.55563 -0.52917,-0.55562 v 0.29104 h -0.9525 v 0.52917 h 0.9525 z"
       class="g0_61"
       id="path103"
       style="display:block;fill:#ffffff;stroke-width:0.264583" />
    <path
       fill-rule="evenodd"
       d="m 116.59206,141.4806 v -1.50813 h 0.55562 v 0.3175 l 0.92605,-0.71437 -0.92605,-0.71438 v 0.3175 h -1.34937 v 2.30188 z"
       class="g0_61"
       id="path104"
       style="display:block;fill:#ffffff;stroke-width:0.264583" />
    <path
       fill-rule="evenodd"
       d="m 117.01539,161.05977 v 1.50812 h -0.58208 v -0.34396 l -0.92604,0.74084 0.92604,0.71437 v -0.34396 h 1.34937 v -2.27541 z"
       class="g0_61"
       id="path105"
       style="display:block;fill:#ffffff;stroke-width:0.264583" />
    <path
       fill-rule="evenodd"
       d="m 93.520388,147.72477 h 19.393962 v 8.30791 H 93.520388 Z"
       class="g1_61"
       id="path293"
       style="display:block;fill:#000000;fill-opacity:0;stroke-width:0.264583" />
    <text
       clip-path="url(#c0_61)"
       x="112.3"
       y="680.90002"
       class="s7_61"
       id="text293"
       style="font-size:7.64px;font-family:MS-PGothic_bn;white-space:pre;display:block;fill:#000000"
       transform="matrix(0.26458333,0,0,0.26458333,62.638664,-28.252761)"><tspan
         sodipodi:role="line"
         id="tspan1"
         x="112.3"
         y="680.90002"> </tspan><tspan
         sodipodi:role="line"
         id="tspan2"
         x="112.3"
         y="690.45001">Buffer zone </tspan></text>
    <path
       fill-rule="evenodd"
       d="m 102.83372,151.87872 11.16542,0.42334 z"
       class="g1_61"
       id="path310"
       style="display:block;fill:#000000;fill-opacity:0;stroke-width:0.264583" />
    <path
       d="m 102.83372,151.87872 11.16542,0.42334"
       class="g2_61"
       id="path311"
       style="display:block;fill:none;stroke:#000000;stroke-width:0.302948;stroke-linejoin:round" />
  </g>
</svg>
