<?xml version="1.0" encoding="UTF-8" standalone="no"?>
<!-- Created with Inkscape (http://www.inkscape.org/) -->

<svg
   width="155.89249mm"
   height="94.456253mm"
   viewBox="0 0 155.89249 94.456253"
   version="1.1"
   id="svg1"
   inkscape:version="1.3.2 (1:1.3.2+202311252150+091e20ef0f)"
   sodipodi:docname="vm-03-13_2.svg"
   xmlns:inkscape="http://www.inkscape.org/namespaces/inkscape"
   xmlns:sodipodi="http://sodipodi.sourceforge.net/DTD/sodipodi-0.dtd"
   xmlns="http://www.w3.org/2000/svg"
   xmlns:svg="http://www.w3.org/2000/svg">
  <sodipodi:namedview
     id="namedview1"
     pagecolor="#ffffff"
     bordercolor="#000000"
     borderopacity="0.25"
     inkscape:showpageshadow="2"
     inkscape:pageopacity="0.0"
     inkscape:pagecheckerboard="0"
     inkscape:deskcolor="#d1d1d1"
     inkscape:document-units="mm"
     inkscape:zoom="1.7131103"
     inkscape:cx="332.43628"
     inkscape:cy="-42.904419"
     inkscape:window-width="3840"
     inkscape:window-height="2123"
     inkscape:window-x="0"
     inkscape:window-y="0"
     inkscape:window-maximized="1"
     inkscape:current-layer="layer1" />
  <defs
     id="defs1">
    <clipPath
       id="c0_46">
      <path
         d="M 0,825 V 0 h 1100 v 825 z"
         id="path2" />
    </clipPath>
    <clipPath
       id="clipPath1">
      <path
         d="M 0,825 V 0 h 1100 v 825 z"
         id="path1" />
    </clipPath>
    <clipPath
       id="clipPath3">
      <path
         d="M 0,825 V 0 h 1100 v 825 z"
         id="path3" />
    </clipPath>
    <clipPath
       id="clipPath4">
      <path
         d="M 0,825 V 0 h 1100 v 825 z"
         id="path4" />
    </clipPath>
  </defs>
  <g
     inkscape:label="Layer 1"
     inkscape:groupmode="layer"
     id="layer1"
     transform="translate(-16.933327,-159.80833)">
    <path
       fill-rule="evenodd"
       d="m 19.26166,159.80833 h 149.70125 v 94.45625 H 19.26166 Z"
       class="g1_46"
       id="path32"
       style="display:block;fill:#000000;fill-opacity:0;stroke-width:0.264583" />
    <path
       fill-rule="evenodd"
       d="m 27.304993,174.96895 h 51.091041 v 22.41021 H 27.304993 Z"
       class="g1_46"
       id="path39"
       style="display:block;fill:#000000;fill-opacity:0;stroke-width:0.264583" />
    <g
       clip-path="url(#c0_46)"
       id="g42"
       style="display:block"
       transform="matrix(0.26458333,0,0,0.26458333,-112.15688,103.61083)">
      <text
         x="537.40002"
         y="297.60001"
         class="s5_46"
         id="text40"
         style="font-size:18.33px;font-family:ArialMT_bj;white-space:pre;fill:#000000">Lanelet </text>
      <text
         x="549.59998"
         y="319.60001"
         class="s5_46"
         id="text41"
         style="font-size:18.33px;font-family:ArialMT_bj;white-space:pre;fill:#000000">subtype:road </text>
      <text
         x="549.59998"
         y="341.60001"
         class="s5_46"
         id="text42"
         style="font-size:18.33px;font-family:ArialMT_bj;white-space:pre;fill:#000000">location=private </text>
    </g>
    <path
       fill-rule="evenodd"
       d="m 97.393117,185.89625 h 11.826873 v 24.55333 H 97.393117 Z"
       class="g3_46"
       id="path42"
       style="display:block;fill:#eeeeee;stroke-width:0.264583" />
    <path
       fill-rule="evenodd"
       d="m 64.875826,213.96854 h 72.204794 v 27.91354 H 64.875826 Z"
       class="g4_46"
       id="path43"
       style="display:block;fill:#666666;stroke-width:0.264583" />
    <path
       fill-rule="evenodd"
       d="M 64.875826,215.9 H 137.08062 Z"
       class="g1_46"
       id="path44"
       style="display:block;fill:#000000;fill-opacity:0;stroke-width:0.264583" />
    <path
       d="M 64.875826,215.9 H 137.08062"
       class="g5_46"
       id="path45"
       style="display:block;fill:none;stroke:#ffffff;stroke-width:0.302948;stroke-linejoin:round" />
    <path
       fill-rule="evenodd"
       d="m 64.875826,210.47604 h 72.204794 v 3.4925 H 64.875826 Z"
       class="g6_46"
       id="path46"
       style="display:block;fill:#cdb164;stroke-width:0.264583" />
    <path
       fill-rule="evenodd"
       d="m 85.566243,185.89625 h 11.826874 v 24.55333 H 85.566243 Z"
       class="g3_46"
       id="path47"
       style="display:block;fill:#eeeeee;stroke-width:0.264583" />
    <path
       fill-rule="evenodd"
       d="m 85.645618,185.89625 v 24.52687 z"
       class="g1_46"
       id="path48"
       style="display:block;fill:#000000;fill-opacity:0;stroke-width:0.264583" />
    <path
       d="m 85.645618,185.89625 v 24.52687"
       class="g7_46"
       id="path49"
       style="display:block;fill:none;stroke:#595959;stroke-width:0.302948;stroke-linejoin:round" />
    <path
       fill-rule="evenodd"
       d="m 97.393117,185.86979 v 24.55333 z"
       class="g1_46"
       id="path50"
       style="display:block;fill:#000000;fill-opacity:0;stroke-width:0.264583" />
    <path
       d="m 97.393117,185.86979 v 24.55333"
       class="g7_46"
       id="path51"
       style="display:block;fill:none;stroke:#595959;stroke-width:0.302948;stroke-linejoin:round" />
    <path
       fill-rule="evenodd"
       d="m 109.19353,185.89625 v 24.55333 z"
       class="g1_46"
       id="path52"
       style="display:block;fill:#000000;fill-opacity:0;stroke-width:0.264583" />
    <path
       d="m 109.19353,185.89625 v 24.55333"
       class="g7_46"
       id="path53"
       style="display:block;fill:none;stroke:#595959;stroke-width:0.302948;stroke-linejoin:round" />
    <path
       fill-rule="evenodd"
       d="M 64.875826,239.95062 H 137.08062 Z"
       class="g1_46"
       id="path54"
       style="display:block;fill:#000000;fill-opacity:0;stroke-width:0.264583" />
    <path
       d="M 64.875826,239.95062 H 137.08062"
       class="g5_46"
       id="path55"
       style="display:block;fill:none;stroke:#ffffff;stroke-width:0.302948;stroke-linejoin:round" />
    <path
       fill-rule="evenodd"
       d="M 64.875826,227.91208 H 137.08062 Z"
       class="g1_46"
       id="path56"
       style="display:block;fill:#000000;fill-opacity:0;stroke-width:0.264583" />
    <path
       d="M 64.875826,227.91208 H 137.08062"
       class="g5_46"
       id="path57"
       style="display:block;fill:none;stroke:#ffffff;stroke-width:0.302948;stroke-linejoin:round" />
    <path
       fill-rule="evenodd"
       d="m 64.875826,215.97937 h 12.594167 v 11.87979 H 64.875826 Z"
       class="g8_46"
       id="path58"
       style="display:block;fill:#f4cccc;fill-opacity:0.43;stroke-width:0.264583" />
    <path
       d="m 64.875826,215.97937 h 12.594167 v 11.87979 H 64.875826 Z"
       class="g9_46"
       id="path59"
       style="display:block;fill:none;stroke:#ff0000;stroke-width:0.302948;stroke-linejoin:round" />
    <path
       fill-rule="evenodd"
       d="m 77.469993,215.97937 h 59.610627 v 11.80042 H 77.469993 Z"
       class="g8_46"
       id="path60"
       style="display:block;fill:#f4cccc;fill-opacity:0.43;stroke-width:0.264583" />
    <path
       d="m 77.469993,215.97937 h 59.610627 v 11.80042 H 77.469993 Z"
       class="g9_46"
       id="path61"
       style="display:block;fill:none;stroke:#ff0000;stroke-width:0.302948;stroke-linejoin:round" />
    <path
       fill-rule="evenodd"
       d="M 64.875826,227.77979 H 120.8352 v 11.90625 H 64.875826 Z"
       class="g8_46"
       id="path62"
       style="display:block;fill:#f4cccc;fill-opacity:0.43;stroke-width:0.264583" />
    <path
       d="M 64.875826,227.77979 H 120.8352 v 11.90625 H 64.875826 Z"
       class="g9_46"
       id="path63"
       style="display:block;fill:none;stroke:#ff0000;stroke-width:0.302948;stroke-linejoin:round" />
    <path
       fill-rule="evenodd"
       d="m 120.8352,227.77979 h 16.24542 v 11.90625 H 120.8352 Z"
       class="g8_46"
       id="path64"
       style="display:block;fill:#f4cccc;fill-opacity:0.43;stroke-width:0.264583" />
    <path
       d="m 120.8352,227.77979 h 16.24542 v 11.90625 H 120.8352 Z"
       class="g9_46"
       id="path65"
       style="display:block;fill:none;stroke:#ff0000;stroke-width:0.302948;stroke-linejoin:round" />
    <path
       fill-rule="evenodd"
       d="m 64.875826,210.47604 h 72.204794 v 3.4925 H 64.875826 Z"
       class="ga_46"
       id="path66"
       style="display:block;fill:#9fc5e8;fill-opacity:0.41;stroke-width:0.264583" />
    <path
       d="m 64.875826,210.47604 h 72.204794 v 3.4925 H 64.875826 Z"
       class="gb_46"
       id="path67"
       style="display:block;fill:none;stroke:#0000ff;stroke-width:0.302948;stroke-linejoin:round" />
    <path
       fill-rule="evenodd"
       d="M 64.849368,213.91562 H 137.05416 V 215.9 H 64.849368 Z"
       class="gc_46"
       id="path68"
       style="display:block;fill:#b7e89f;fill-opacity:0.41;stroke-width:0.264583" />
    <path
       d="M 64.849368,213.91562 H 137.05416 V 215.9 H 64.849368 Z"
       class="gd_46"
       id="path69"
       style="display:block;fill:none;stroke:#274e13;stroke-width:0.302948;stroke-linejoin:round" />
    <path
       fill-rule="evenodd"
       d="m 77.496451,215.95291 -0.02646,11.85334 2.989791,-0.0265 1.640417,-0.0265 2.169583,-0.37042 1.375834,-0.44979 2.143124,-0.74083 1.190625,-0.74084 1.984375,-1.27 1.481667,-1.42875 1.005417,-1.08479 0.9525,-1.34937 0.926041,-1.42875 0.79375,-1.5875 0.3175,-0.92604 0.529167,-1.87855 0.291042,-1.61395 0.132291,-1.7198 V 205.74 l -11.721041,0.0529 0.02646,4.41854 -0.05292,1.19063 -0.15875,0.82021 -0.185209,0.47625 -0.370416,0.71437 -0.3175,0.635 -0.502709,0.47625 -0.47625,0.42334 -0.740833,0.39687 -0.714375,0.3175 -0.740833,0.23813 -0.767292,0.0264 z"
       class="ge_46"
       id="path70"
       style="display:block;fill:#ffe599;fill-opacity:0.64;stroke-width:0.264583" />
    <path
       d="m 77.496451,215.95291 -0.02646,11.85334 2.989791,-0.0265 1.640417,-0.0265 2.169583,-0.37042 1.375834,-0.44979 2.143124,-0.74083 1.190625,-0.74084 1.984375,-1.27 1.481667,-1.42875 1.005417,-1.08479 0.9525,-1.34937 0.926041,-1.42875 0.79375,-1.5875 0.3175,-0.92604 0.529167,-1.87855 0.291042,-1.61395 0.132291,-1.7198 V 205.74 l -11.721041,0.0529 0.02646,4.41854 -0.05292,1.19063 -0.15875,0.82021 -0.185209,0.47625 -0.370416,0.71437 -0.3175,0.635 -0.502709,0.47625 -0.47625,0.42334 -0.740833,0.39687 -0.714375,0.3175 -0.740833,0.23813 -0.767292,0.0264 z"
       class="gf_46"
       id="path71"
       style="display:block;fill:none;stroke:#ff9900;stroke-width:0.302948;stroke-linejoin:round" />
    <path
       fill-rule="evenodd"
       d="M 97.393117,205.76645 H 109.19353 V 218.44 l 0.10584,1.19062 0.23812,1.08479 0.635,1.61396 0.44979,0.71438 0.87313,1.21708 1.08479,1.08479 1.03188,0.76729 1.4552,0.68792 1.905,0.68792 1.56105,0.23812 1.11125,0.0794 h 1.16416 v 11.90624 h -4.07458 l -1.53458,-0.1852 -1.5875,-0.29105 -2.40771,-0.84666 -1.69334,-0.74084 -1.87854,-1.08479 -1.82562,-1.19062 -1.45521,-1.24354 -1.66688,-1.69334 -1.24354,-1.56104 -1.19062,-1.85208 -0.952503,-1.905 -0.687916,-1.53458 -0.502709,-1.93146 -0.3175,-1.56104 -0.291041,-1.87855 -0.07937,-1.82562 z"
       class="ge_46"
       id="path72"
       style="display:block;fill:#ffe599;fill-opacity:0.64;stroke-width:0.264583" />
    <path
       d="M 97.393117,205.76645 H 109.19353 V 218.44 l 0.10584,1.19062 0.23812,1.08479 0.635,1.61396 0.44979,0.71438 0.87313,1.21708 1.08479,1.08479 1.03188,0.76729 1.4552,0.68792 1.905,0.68792 1.56105,0.23812 1.11125,0.0794 h 1.16416 v 11.90624 h -4.07458 l -1.53458,-0.1852 -1.5875,-0.29105 -2.40771,-0.84666 -1.69334,-0.74084 -1.87854,-1.08479 -1.82562,-1.19062 -1.45521,-1.24354 -1.66688,-1.69334 -1.24354,-1.56104 -1.19062,-1.85208 -0.952503,-1.905 -0.687916,-1.53458 -0.502709,-1.93146 -0.3175,-1.56104 -0.291041,-1.87855 -0.07937,-1.82562 z"
       class="gf_46"
       id="path73"
       style="display:block;fill:none;stroke:#ff9900;stroke-width:0.302948;stroke-linejoin:round" />
    <path
       fill-rule="evenodd"
       d="M 85.645618,185.86979 H 97.419576 V 205.6077 H 85.645618 Z"
       class="ge_46"
       id="path74"
       style="display:block;fill:#ffe599;fill-opacity:0.64;stroke-width:0.264583" />
    <path
       d="M 85.645618,185.86979 H 97.419576 V 205.6077 H 85.645618 Z"
       class="gg_46"
       id="path75"
       style="display:block;fill:none;stroke:#f7981d;stroke-width:0.302948;stroke-linejoin:round" />
    <path
       fill-rule="evenodd"
       d="M 97.419576,185.86979 H 109.19353 V 205.6077 H 97.419576 Z"
       class="ge_46"
       id="path76"
       style="display:block;fill:#ffe599;fill-opacity:0.64;stroke-width:0.264583" />
    <path
       d="M 97.419576,185.86979 H 109.19353 V 205.6077 H 97.419576 Z"
       class="gg_46"
       id="path77"
       style="display:block;fill:none;stroke:#f7981d;stroke-width:0.302948;stroke-linejoin:round" />
    <path
       fill-rule="evenodd"
       d="m 69.744159,193.93958 37.465001,13.52021 z"
       class="g1_46"
       id="path78"
       style="display:block;fill:#000000;fill-opacity:0;stroke-width:0.264583" />
    <path
       d="m 69.744159,193.93958 37.465001,13.52021"
       class="g2_46"
       id="path79"
       style="display:block;fill:none;stroke:#000000;stroke-width:0.302948;stroke-linejoin:round" />
    <path
       fill-rule="evenodd"
       d="m 70.987701,191.4525 16.959791,2.01083 z"
       class="g1_46"
       id="path80"
       style="display:block;fill:#000000;fill-opacity:0;stroke-width:0.264583" />
    <path
       d="m 70.987701,191.4525 16.959791,2.01083"
       class="g2_46"
       id="path81"
       style="display:block;fill:none;stroke:#000000;stroke-width:0.302948;stroke-linejoin:round" />
    <path
       fill-rule="evenodd"
       d="m 66.172284,187.72187 34.051876,1.24354 z"
       class="g1_46"
       id="path82"
       style="display:block;fill:#000000;fill-opacity:0;stroke-width:0.264583" />
    <path
       d="m 66.172284,187.72187 34.051876,1.24354"
       class="g2_46"
       id="path83"
       style="display:block;fill:none;stroke:#000000;stroke-width:0.302948;stroke-linejoin:round" />
    <path
       fill-rule="evenodd"
       d="m 66.489784,195.65937 21.9075,12.59417 z"
       class="g1_46"
       id="path84"
       style="display:block;fill:#000000;fill-opacity:0;stroke-width:0.264583" />
    <path
       d="m 66.489784,195.65937 21.9075,12.59417"
       class="g2_46"
       id="path85"
       style="display:block;fill:none;stroke:#000000;stroke-width:0.302948;stroke-linejoin:round" />
    <path
       fill-rule="evenodd"
       d="m 121.73478,185.07604 h 51.09104 v 16.61583 h -51.09104 z"
       class="g1_46"
       id="path86"
       style="display:block;fill:#000000;fill-opacity:0;stroke-width:0.264583" />
    <g
       clip-path="url(#c0_46)"
       id="g87"
       style="display:block"
       transform="matrix(0.26458333,0,0,0.26458333,-112.15688,103.61083)">
      <text
         x="894.29999"
         y="335.79999"
         class="s5_46"
         id="text86"
         style="font-size:18.33px;font-family:ArialMT_bj;white-space:pre;fill:#000000">Lanelet </text>
      <text
         x="906.5"
         y="357.79999"
         class="s5_46"
         id="text87"
         style="font-size:18.33px;font-family:ArialMT_bj;white-space:pre;fill:#000000">subtype:walkway </text>
    </g>
    <path
       fill-rule="evenodd"
       d="m 130.83645,199.68104 -11.48292,12.75291 z"
       class="g1_46"
       id="path87"
       style="display:block;fill:#000000;fill-opacity:0;stroke-width:0.264583" />
    <path
       d="m 130.83645,199.68104 -11.48292,12.75291"
       class="g2_46"
       id="path88"
       style="display:block;fill:none;stroke:#000000;stroke-width:0.302948;stroke-linejoin:round" />
    <path
       fill-rule="evenodd"
       d="m 16.933327,224.86937 h 51.091041 v 22.41021 H 16.933327 Z"
       class="g1_46"
       id="path89"
       style="display:block;fill:#000000;fill-opacity:0;stroke-width:0.264583" />
    <g
       clip-path="url(#c0_46)"
       id="g91"
       style="display:block"
       transform="matrix(0.26458333,0,0,0.26458333,-112.15688,103.61083)">
      <text
         x="498.20001"
         y="486.20001"
         class="s5_46"
         id="text89"
         style="font-size:18.33px;font-family:ArialMT_bj;white-space:pre;fill:#000000">Lanelet </text>
      <text
         x="510.39999"
         y="508.20001"
         class="s5_46"
         id="text90"
         style="font-size:18.33px;font-family:ArialMT_bj;white-space:pre;fill:#000000">subtype:road </text>
      <text
         x="510.39999"
         y="530.20001"
         class="s5_46"
         id="text91"
         style="font-size:18.33px;font-family:ArialMT_bj;white-space:pre;fill:#000000">location=urban </text>
    </g>
    <path
       fill-rule="evenodd"
       d="m 47.968951,230.31979 20.849167,-7.14375 z"
       class="g1_46"
       id="path91"
       style="display:block;fill:#000000;fill-opacity:0;stroke-width:0.264583" />
    <path
       d="m 47.968951,230.31979 20.849167,-7.14375"
       class="g2_46"
       id="path92"
       style="display:block;fill:none;stroke:#000000;stroke-width:0.302948;stroke-linejoin:round" />
    <path
       fill-rule="evenodd"
       d="m 53.419368,238.41604 18.970625,-4.52438 z"
       class="g1_46"
       id="path93"
       style="display:block;fill:#000000;fill-opacity:0;stroke-width:0.264583" />
    <path
       d="m 53.419368,238.41604 18.970625,-4.52438"
       class="g2_46"
       id="path94"
       style="display:block;fill:none;stroke:#000000;stroke-width:0.302948;stroke-linejoin:round" />
    <path
       fill-rule="evenodd"
       d="m 18.30916,198.27875 h 47.545624 v 16.61583 H 18.30916 Z"
       class="g1_46"
       id="path95"
       style="display:block;fill:#000000;fill-opacity:0;stroke-width:0.264583" />
    <g
       clip-path="url(#c0_46)"
       id="g96"
       style="display:block"
       transform="matrix(0.26458333,0,0,0.26458333,-112.15688,103.61083)">
      <text
         x="503.39999"
         y="381.29999"
         class="s2_46"
         id="text95"
         style="font-size:13.75px;font-family:ArialMT_bj;white-space:pre;fill:#000000">Lanelet </text>
      <text
         x="512.5"
         y="397.79999"
         class="s2_46"
         id="text96"
         style="font-size:13.75px;font-family:ArialMT_bj;white-space:pre;fill:#000000">subtype:road_shoulder </text>
    </g>
    <path
       fill-rule="evenodd"
       d="m 49.926868,210.10562 16.562916,4.81542 z"
       class="g1_46"
       id="path96"
       style="display:block;fill:#000000;fill-opacity:0;stroke-width:0.264583" />
    <path
       d="m 49.926868,210.10562 16.562916,4.81542"
       class="g2_46"
       id="path97"
       style="display:block;fill:none;stroke:#000000;stroke-width:0.302948;stroke-linejoin:round" />
    <path
       fill-rule="evenodd"
       d="m 64.849368,239.87124 h 72.231252 v 2.01084 H 64.849368 Z"
       class="gc_46"
       id="path98"
       style="display:block;fill:#b7e89f;fill-opacity:0.41;stroke-width:0.264583" />
    <path
       d="m 64.849368,239.87124 h 72.231252 v 2.01084 H 64.849368 Z"
       class="gd_46"
       id="path99"
       style="display:block;fill:none;stroke:#274e13;stroke-width:0.302948;stroke-linejoin:round" />
    <path
       fill-rule="evenodd"
       d="m 64.849368,241.98791 h 72.231252 v 3.4925 H 64.849368 Z"
       class="g6_46"
       id="path100"
       style="display:block;fill:#cdb164;stroke-width:0.264583" />
    <path
       fill-rule="evenodd"
       d="m 64.875826,241.98791 h 72.204794 v 3.4925 H 64.875826 Z"
       class="ga_46"
       id="path101"
       style="display:block;fill:#9fc5e8;fill-opacity:0.41;stroke-width:0.264583" />
    <path
       d="m 64.875826,241.98791 h 72.204794 v 3.4925 H 64.875826 Z"
       class="gb_46"
       id="path102"
       style="display:block;fill:none;stroke:#0000ff;stroke-width:0.302948;stroke-linejoin:round" />
  </g>
</svg>
