<?xml version="1.0" encoding="UTF-8" standalone="no"?>
<!-- Created with Inkscape (http://www.inkscape.org/) -->

<svg
   width="152.29401mm"
   height="74.945999mm"
   viewBox="0 0 152.29401 74.945999"
   version="1.1"
   id="svg1"
   inkscape:version="1.3.2 (1:1.3.2+202311252150+091e20ef0f)"
   sodipodi:docname="vm-01-17_2.svg"
   xmlns:inkscape="http://www.inkscape.org/namespaces/inkscape"
   xmlns:sodipodi="http://sodipodi.sourceforge.net/DTD/sodipodi-0.dtd"
   xmlns="http://www.w3.org/2000/svg"
   xmlns:svg="http://www.w3.org/2000/svg">
  <sodipodi:namedview
     id="namedview1"
     pagecolor="#ffffff"
     bordercolor="#000000"
     borderopacity="0.25"
     inkscape:showpageshadow="2"
     inkscape:pageopacity="0.0"
     inkscape:pagecheckerboard="0"
     inkscape:deskcolor="#d1d1d1"
     inkscape:document-units="mm"
     inkscape:zoom="1.7131103"
     inkscape:cx="631.89161"
     inkscape:cy="280.48399"
     inkscape:window-width="3840"
     inkscape:window-height="2123"
     inkscape:window-x="0"
     inkscape:window-y="0"
     inkscape:window-maximized="1"
     inkscape:current-layer="layer1" />
  <defs
     id="defs1">
    <clipPath
       id="c0_25">
      <path
         d="M 0,825 V 0 h 1100 v 825 z"
         id="path2" />
    </clipPath>
    <clipPath
       id="clipPath1">
      <path
         d="M 0,825 V 0 h 1100 v 825 z"
         id="path1" />
    </clipPath>
  </defs>
  <g
     inkscape:label="Layer 1"
     inkscape:groupmode="layer"
     id="layer1"
     transform="translate(62.17708,-74.347916)">
    <path
       fill-rule="evenodd"
       d="M -62.17708,74.347916 H 87.524168 V 147.29354 H -62.17708 Z"
       class="g1_25"
       id="path14"
       style="display:block;fill:#000000;fill-opacity:0;stroke-width:0.264583" />
    <path
       fill-rule="evenodd"
       d="m -22.516039,89.720208 14.8695833,14.525622 -11.4300003,12.35604 -1.799166,2.14313 -0.15875,2.11667 0.132291,24.97666 -21.669374,-0.0794 -0.07937,-28.36334 2.2225,-6.08541 2.06375,-5.90021 4.101041,-4.07458 z"
       class="g3_25"
       id="path47"
       style="display:block;fill:#38761d;stroke-width:0.264583" />
    <path
       fill-rule="evenodd"
       d="m -19.764372,92.207291 10.2129163,10.107079 -11.6416663,11.5623 -1.058333,1.11125 -0.846667,1.03187 -0.47625,0.82021 -0.47625,1.11125 -0.264583,1.24354 -0.238125,1.32292 v 1.16416 l 0.05292,1.42875 -0.07938,22.72771 h -14.313958 v -23.97125 l 0.07937,-2.09021 0.264583,-2.88395 0.502709,-2.30188 0.79375,-2.40771 1.11125,-2.16958 1.243541,-2.19604 1.455209,-1.74625 1.137708,-1.34938 1.058333,-1.08479 0.9525,-0.97896 z"
       class="g4_25"
       id="path48"
       style="display:block;fill:#666666;stroke-width:0.264583" />
    <path
       d="m -19.764372,92.207291 10.2129163,10.107079 -11.6416663,11.5623 -1.058333,1.11125 -0.846667,1.03187 -0.47625,0.82021 -0.47625,1.11125 -0.264583,1.24354 -0.238125,1.32292 v 1.16416 l 0.05292,1.42875 -0.07938,22.72771 h -14.313958 v -23.97125 l 0.07937,-2.09021 0.264583,-2.88395 0.502709,-2.30188 0.79375,-2.40771 1.11125,-2.16958 1.243541,-2.19604 1.455209,-1.74625 1.137708,-1.34938 1.058333,-1.08479 0.9525,-0.97896 z"
       class="g5_25"
       id="path49"
       style="display:block;fill:none;stroke:#666666;stroke-width:0.302948;stroke-linejoin:round" />
    <path
       fill-rule="evenodd"
       d="m -31.988122,120.88812 v 24.97667 z"
       class="g1_25"
       id="path50"
       style="display:block;fill:#000000;fill-opacity:0;stroke-width:0.264583" />
    <path
       d="m -31.988122,120.88812 v 24.97667"
       class="g6_25"
       id="path51"
       style="display:block;fill:none;stroke:#595959;stroke-width:0.302948;stroke-linejoin:round" />
    <path
       fill-rule="evenodd"
       d="m -9.577914,102.42021 0.9525,0.92604 -10.451042,10.45104 -1.005416,0.97896 -1.005417,0.97896 -0.47625,0.58208 -0.449791,0.71438 -0.529167,1.03187 -0.396875,1.11125 -0.185208,1.13771 -0.05292,0.97896 0.02646,1.08479 v 23.52146 h -1.375833 v -22.225 l 0.02646,-2.88396 0.238125,-1.98438 0.529167,-1.37583 0.291042,-0.66146 0.740833,-1.16416 0.899583,-0.9525 0.820208,-0.89959 1.084792,-1.00541 z"
       class="g3_25"
       id="path52"
       style="display:block;fill:#38761d;stroke-width:0.264583" />
    <path
       fill-rule="evenodd"
       d="m -19.790831,92.260208 -1.084791,-1.084792 -9.763125,9.763124 -1.561042,1.66688 -0.978958,0.84666 -0.79375,0.79375 -0.846667,0.97896 -0.687916,0.89958 -1.164167,1.5875 -0.582083,0.97896 -0.502709,0.89959 -0.529166,1.27 -0.555625,1.32291 -0.529167,1.56104 -0.423333,1.29646 -0.291042,1.64042 -0.211667,1.56104 -0.15875,1.56104 -0.05292,1.77271 v 24.39458 h 1.613958 v -21.06083 l 0.02646,-3.94229 0.05292,-2.11667 0.238125,-2.2225 0.47625,-1.95791 0.661458,-1.98438 1.217084,-2.59292 1.296458,-2.11666 1.217083,-1.61396 1.5875,-1.79917 1.322917,-1.40229 z"
       class="g3_25"
       id="path53"
       style="display:block;fill:#38761d;stroke-width:0.264583" />
    <path
       fill-rule="evenodd"
       d="M -31.591247,105.19833 -19.182289,92.789374 Z"
       class="g1_25"
       id="path54"
       style="display:block;fill:#000000;fill-opacity:0;stroke-width:0.264583" />
    <path
       d="M -31.591247,105.19833 -19.182289,92.789374"
       class="g6_25"
       id="path55"
       style="display:block;fill:none;stroke:#595959;stroke-width:0.302948;stroke-linejoin:round" />
    <path
       fill-rule="evenodd"
       d="m -32.199789,120.88812 h 0.370417 v 25.05605 h -0.370417 z"
       class="g0_25"
       id="path56"
       style="display:block;fill:#ffffff;stroke-width:0.264583" />
    <path
       fill-rule="evenodd"
       d="m -14.975414,96.996249 0.264583,0.238125 -12.382499,12.382496 -0.264584,-0.26458 z"
       class="g0_25"
       id="path57"
       style="display:block;fill:#ffffff;stroke-width:0.264583" />
    <path
       fill-rule="evenodd"
       d="m -27.357914,109.32583 0.264584,0.26459 -0.555625,0.60854 -0.661459,0.76729 -0.555625,0.71437 -0.423333,0.635 -0.423333,0.66146 -0.502709,0.9525 -0.47625,1.05834 -0.3175,0.92604 -0.238125,0.74083 -0.15875,0.635 -0.211666,1.05833 -0.105834,0.58209 -0.02646,0.635 -0.07937,0.82021 v 0.5027 h -0.343958 l 0.02646,-0.87312 0.105833,-1.03188 0.132292,-1.00541 0.238125,-1.13771 0.343958,-1.08479 0.449792,-1.21709 0.370417,-0.84666 0.582083,-1.11125 0.555625,-0.87313 0.820208,-1.11125 0.608542,-0.68791 z"
       class="g0_25"
       id="path58"
       style="display:block;fill:#ffffff;stroke-width:0.264583" />
    <path
       fill-rule="evenodd"
       d="m -25.717497,120.88812 h 0.370417 v 25.05605 h -0.370417 z"
       class="g0_25"
       id="path59"
       style="display:block;fill:#ffffff;stroke-width:0.264583" />
    <path
       fill-rule="evenodd"
       d="m -38.258747,120.88812 h 0.370417 v 25.05605 h -0.370417 z"
       class="g0_25"
       id="path60"
       style="display:block;fill:#ffffff;stroke-width:0.264583" />
    <path
       fill-rule="evenodd"
       d="m -10.398122,101.49417 0.238125,0.26458 -12.356042,12.3825 -0.264583,-0.26458 z"
       class="g0_25"
       id="path61"
       style="display:block;fill:#ffffff;stroke-width:0.264583" />
    <path
       fill-rule="evenodd"
       d="m -19.314581,92.683541 0.264584,0.238125 -12.3825,12.382504 -0.264583,-0.26459 z"
       class="g0_25"
       id="path62"
       style="display:block;fill:#ffffff;stroke-width:0.264583" />
    <path
       fill-rule="evenodd"
       d="m -22.754164,113.87667 0.238125,0.23812 -0.3175,0.3175 -0.370416,0.37042 -0.3175,0.39687 -0.291042,0.47625 -0.343958,0.66146 -0.3175,0.60854 -0.211667,0.55563 -0.264583,0.74083 -0.132292,0.58208 -0.132292,0.60855 -0.105833,0.5027 v 0.58209 l -0.02646,0.37041 h -0.370417 l 0.02646,-0.8202 0.07937,-0.68792 0.15875,-0.68792 0.15875,-0.66146 0.264584,-0.79375 0.3175,-0.71437 0.423333,-0.84667 0.449792,-0.68791 0.502708,-0.60855 z"
       class="g0_25"
       id="path63"
       style="display:block;fill:#ffffff;stroke-width:0.264583" />
    <path
       fill-rule="evenodd"
       d="m -31.644164,105.01312 0.264584,0.26459 -0.343959,0.34396 -0.635,0.60854 -0.555625,0.66146 -0.714375,0.87312 -0.714375,1.03188 -0.635,1.1377 -0.635,1.21709 -0.582083,1.27 -0.529167,1.48166 -0.370416,1.16417 -0.3175,1.16417 -0.3175,1.56104 -0.105834,1.21708 -0.05292,0.87313 -0.02646,0.74083 0.02646,0.50271 h -0.396875 l 0.02646,-1.34938 0.105833,-1.48166 0.185209,-1.34938 0.423333,-1.85208 0.396875,-1.27 0.47625,-1.45521 0.635,-1.42875 0.767292,-1.42875 0.740833,-1.24354 0.899583,-1.24354 0.740834,-0.82021 0.820208,-0.82021 z"
       class="g0_25"
       id="path64"
       style="display:block;fill:#ffffff;stroke-width:0.264583" />
    <path
       fill-rule="evenodd"
       d="m -19.790831,92.048541 0.635,0.635 -13.308541,13.414379 -1.508125,1.66687 -1.693333,3.14854 -0.767292,1.79917 -0.687917,1.87854 -0.687916,2.67229 -0.02646,0.97896 -0.238125,1.79917 v 25.92916 l -0.79375,-0.0264 0.05292,-24.4475 0.132292,-3.91584 0.978958,-4.04812 1.058333,-2.40771 1.243542,-2.30188 0.926042,-1.4552 1.825625,-2.16959 z"
       class="g8_25"
       id="path65"
       style="display:block;fill:#f4cccc;fill-opacity:0.43;stroke-width:0.264583" />
    <path
       d="m -19.790831,92.048541 0.635,0.635 -13.308541,13.414379 -1.508125,1.66687 -1.693333,3.14854 -0.767292,1.79917 -0.687917,1.87854 -0.687916,2.67229 -0.02646,0.97896 -0.238125,1.79917 v 25.92916 l -0.79375,-0.0264 0.05292,-24.4475 0.132292,-3.91584 0.978958,-4.04812 1.058333,-2.40771 1.243542,-2.30188 0.926042,-1.4552 1.825625,-2.16959 z"
       class="g9_25"
       id="path66"
       style="display:block;fill:none;stroke:#ff0000;stroke-width:0.302948;stroke-linejoin:round" />
    <path
       fill-rule="evenodd"
       d="m -10.159997,101.52062 0.7672913,0.7673 -12.4354163,12.27666 -1.561042,2.16959 -0.661458,1.53458 -0.343958,1.50812 -0.238125,1.74625 0.185208,24.4475 h -1.11125 v -25.61166 l 0.396875,-1.905 0.635,-1.905 0.79375,-1.34938 1.11125,-1.27 z"
       class="g8_25"
       id="path67"
       style="display:block;fill:#f4cccc;fill-opacity:0.43;stroke-width:0.264583" />
    <path
       d="m -10.159997,101.52062 0.7672913,0.7673 -12.4354163,12.27666 -1.561042,2.16959 -0.661458,1.53458 -0.343958,1.50812 -0.238125,1.74625 0.185208,24.4475 h -1.11125 v -25.61166 l 0.396875,-1.905 0.635,-1.905 0.79375,-1.34938 1.11125,-1.27 z"
       class="g9_25"
       id="path68"
       style="display:block;fill:none;stroke:#ff0000;stroke-width:0.302948;stroke-linejoin:round" />
    <path
       fill-rule="evenodd"
       d="M 4.9212525,99.509791 -10.768539,103.08167 Z"
       class="g1_25"
       id="path69"
       style="display:block;fill:#000000;fill-opacity:0;stroke-width:0.264583" />
    <path
       d="M 4.9212525,99.509791 -8.9958307,102.68479"
       class="g2_25"
       id="path70"
       style="display:block;fill:none;stroke:#000000;stroke-width:0.302948;stroke-linejoin:round" />
    <path
       fill-rule="evenodd"
       d="m -9.101664,102.20854 -1.243542,0.79375 1.4552087,0.18521 z"
       class="g7_25"
       id="path71"
       style="display:block;fill:#000000;stroke:#000000;stroke-width:0.302948;stroke-miterlimit:10" />
    <path
       fill-rule="evenodd"
       d="M 1.0054192,87.921041 H 60.695418 V 105.01312 H 1.0054192 Z"
       class="g1_25"
       id="path72"
       style="display:block;fill:#000000;fill-opacity:0;stroke-width:0.264583" />
    <g
       clip-path="url(#c0_25)"
       id="g73"
       style="display:block"
       transform="matrix(0.26458333,0,0,0.26458333,-193.59562,18.150417)">
      <text
         x="745.79999"
         y="290.20001"
         class="s7_25"
         id="text72"
         style="font-size:16.81px;font-family:ArialMT_bl;white-space:pre;fill:#000000">Lanelet </text>
      <text
         x="755.09998"
         y="310.29999"
         class="s7_25"
         id="text73"
         style="font-size:16.81px;font-family:ArialMT_bl;white-space:pre;fill:#000000">subtype:pedestrian_lane </text>
    </g>
    <path
       fill-rule="evenodd"
       d="m -28.283955,136.2075 h 7.434791 v 5.55625 h -7.434791 z"
       class="g1_25"
       id="path73"
       style="display:block;fill:#000000;fill-opacity:0;stroke-width:0.264583" />
    <path
       d="m -28.283955,136.2075 h 7.434791 v 5.55625 h -7.434791 z"
       class="g2_25"
       id="path74"
       style="display:block;fill:none;stroke:#000000;stroke-width:0.302948;stroke-linejoin:round" />
    <path
       fill-rule="evenodd"
       d="M 2.7781275,116.09917 -28.178122,136.2075 Z"
       class="g1_25"
       id="path75"
       style="display:block;fill:#000000;fill-opacity:0;stroke-width:0.264583" />
    <path
       d="M 2.7781275,116.09917 -28.178122,136.2075"
       class="g2_25"
       id="path76"
       style="display:block;fill:none;stroke:#000000;stroke-width:0.302948;stroke-linejoin:round" />
    <path
       fill-rule="evenodd"
       d="M 2.8575025,144.85937 -28.310414,141.76375 Z"
       class="g1_25"
       id="path77"
       style="display:block;fill:#000000;fill-opacity:0;stroke-width:0.264583" />
    <path
       d="M 2.8575025,144.85937 -28.310414,141.76375"
       class="g2_25"
       id="path78"
       style="display:block;fill:none;stroke:#000000;stroke-width:0.302948;stroke-linejoin:round" />
    <path
       fill-rule="evenodd"
       d="m 30.718127,116.12562 -51.620208,20.10834 z"
       class="g1_25"
       id="path79"
       style="display:block;fill:#000000;fill-opacity:0;stroke-width:0.264583" />
    <path
       d="m 30.718127,116.12562 -51.620208,20.10834"
       class="g2_25"
       id="path80"
       style="display:block;fill:none;stroke:#000000;stroke-width:0.302948;stroke-linejoin:round" />
    <path
       fill-rule="evenodd"
       d="m 30.744586,144.59479 -51.620208,-2.93687 z"
       class="g1_25"
       id="path81"
       style="display:block;fill:#000000;fill-opacity:0;stroke-width:0.264583" />
    <path
       d="m 30.744586,144.59479 -51.620208,-2.93687"
       class="g2_25"
       id="path82"
       style="display:block;fill:none;stroke:#000000;stroke-width:0.302948;stroke-linejoin:round" />
    <path
       fill-rule="evenodd"
       d="M 2.8045859,116.09917 H 30.823961 V 144.78 H 2.8045859 Z"
       class="g0_25"
       id="path83"
       style="display:block;fill:#ffffff;stroke-width:0.264583" />
    <path
       d="M 2.8045859,116.09917 H 30.823961 V 144.78 H 2.8045859 Z"
       class="g2_25"
       id="path84"
       style="display:block;fill:none;stroke:#000000;stroke-width:0.302948;stroke-linejoin:round" />
    <path
       fill-rule="evenodd"
       d="M 3.8629192,117.28979 H 20.108336 v 26.37896 H 3.8629192 Z"
       class="g4_25"
       id="path85"
       style="display:block;fill:#666666;stroke-width:0.264583" />
    <path
       fill-rule="evenodd"
       d="m 20.108336,117.26333 h 9.551458 v 26.3525 h -9.551458 z"
       class="g3_25"
       id="path86"
       style="display:block;fill:#38761d;stroke-width:0.264583" />
    <path
       fill-rule="evenodd"
       d="m 11.562294,117.26333 h 2.592917 v 26.3525 h -2.592917 z"
       class="g0_25"
       id="path87"
       style="display:block;fill:#ffffff;stroke-width:0.264583" />
    <path
       fill-rule="evenodd"
       d="m 12.805836,117.39562 h 7.434791 v 26.32605 h -7.434791 z"
       class="g8_25"
       id="path88"
       style="display:block;fill:#f4cccc;fill-opacity:0.43;stroke-width:0.264583" />
    <path
       d="m 12.805836,117.39562 h 7.434791 v 26.32605 h -7.434791 z"
       class="g9_25"
       id="path89"
       style="display:block;fill:none;stroke:#ff0000;stroke-width:0.302948;stroke-linejoin:round" />
    <path
       fill-rule="evenodd"
       d="m 20.240627,117.475 v 26.16729 z"
       class="g1_25"
       id="path90"
       style="display:block;fill:#000000;fill-opacity:0;stroke-width:0.264583" />
    <path
       d="m 20.240627,117.475 v 26.16729"
       class="ga_25"
       id="path91"
       style="display:block;fill:none;stroke:#0000ff;stroke-width:0.909373;stroke-linejoin:round" />
    <path
       fill-rule="evenodd"
       d="m 14.763752,101.86458 2.434167,20.16125 z"
       class="g1_25"
       id="path92"
       style="display:block;fill:#000000;fill-opacity:0;stroke-width:0.264583" />
    <path
       d="m 14.763752,101.86458 2.2225,18.33563"
       class="g2_25"
       id="path93"
       style="display:block;fill:none;stroke:#000000;stroke-width:0.302948;stroke-linejoin:round" />
    <path
       fill-rule="evenodd"
       d="m 16.483544,120.27958 0.661458,1.29646 0.343959,-1.42875 z"
       class="g7_25"
       id="path94"
       style="display:block;fill:#000000;stroke:#000000;stroke-width:0.302948;stroke-miterlimit:10" />
    <path
       fill-rule="evenodd"
       d="M 33.68146,112.395 20.399377,124.56583 Z"
       class="g1_25"
       id="path95"
       style="display:block;fill:#000000;fill-opacity:0;stroke-width:0.264583" />
    <path
       d="M 33.68146,112.395 21.722294,123.34875"
       class="g2_25"
       id="path96"
       style="display:block;fill:none;stroke:#000000;stroke-width:0.302948;stroke-linejoin:round" />
    <path
       fill-rule="evenodd"
       d="m 21.404794,122.97833 -0.687917,1.29646 1.349375,-0.55562 z"
       class="g7_25"
       id="path97"
       style="display:block;fill:#000000;stroke:#000000;stroke-width:0.302948;stroke-miterlimit:10" />
    <path
       fill-rule="evenodd"
       d="m 31.379585,104.06062 h 58.7375 V 118.745 h -58.7375 z"
       class="g1_25"
       id="path98"
       style="display:block;fill:#000000;fill-opacity:0;stroke-width:0.264583" />
    <g
       clip-path="url(#c0_25)"
       id="g100"
       style="display:block"
       transform="matrix(0.26458333,0,0,0.26458333,-193.59562,18.150417)">
      <text
         x="860.59998"
         y="348.20001"
         class="s8_25"
         id="text98"
         style="font-size:13.75px;font-family:MS-PGothic_bp;white-space:pre;fill:#000000" />
      <text
         x="843.49823"
         y="334.72519"
         class="s9_25"
         id="text99"
         style="font-size:13.75px;font-family:ArialMT_bl;white-space:pre;fill:#000000"><tspan
           sodipodi:role="line"
           id="tspan102"
           x="843.49823"
           y="334.72519">Linestring  between side strip</tspan><tspan
           sodipodi:role="line"
           id="tspan103"
           x="843.49823"
           y="351.91269">and off road</tspan></text>
      <text
         x="868.29999"
         y="364.70001"
         class="s9_25"
         id="text100"
         style="font-size:13.75px;font-family:ArialMT_bl;white-space:pre;fill:#000000">subtype: road_border </text>
    </g>
  </g>
</svg>
