<?xml version="1.0" encoding="UTF-8" standalone="no"?>
<!-- Created with Inkscape (http://www.inkscape.org/) -->

<svg
   width="105.869mm"
   height="71.933998mm"
   viewBox="0 0 105.869 71.933999"
   version="1.1"
   id="svg1"
   inkscape:version="1.3.2 (1:1.3.2+202311252150+091e20ef0f)"
   sodipodi:docname="vm-01-05_3.svg"
   xmlns:inkscape="http://www.inkscape.org/namespaces/inkscape"
   xmlns:sodipodi="http://sodipodi.sourceforge.net/DTD/sodipodi-0.dtd"
   xmlns="http://www.w3.org/2000/svg"
   xmlns:svg="http://www.w3.org/2000/svg">
  <sodipodi:namedview
     id="namedview1"
     pagecolor="#ffffff"
     bordercolor="#000000"
     borderopacity="0.25"
     inkscape:showpageshadow="2"
     inkscape:pageopacity="0.0"
     inkscape:pagecheckerboard="0"
     inkscape:deskcolor="#d1d1d1"
     inkscape:document-units="mm"
     inkscape:zoom="1.7131103"
     inkscape:cx="185.04355"
     inkscape:cy="124.04339"
     inkscape:window-width="3840"
     inkscape:window-height="2123"
     inkscape:window-x="0"
     inkscape:window-y="0"
     inkscape:window-maximized="1"
     inkscape:current-layer="layer1" />
  <defs
     id="defs1">
    <clipPath
       id="c0_13">
      <path
         d="M 0,825 V 0 h 1100 v 825 z"
         id="path2" />
    </clipPath>
    <clipPath
       id="clipPath1">
      <path
         d="M 0,825 V 0 h 1100 v 825 z"
         id="path1" />
    </clipPath>
    <clipPath
       id="clipPath3">
      <path
         d="M 0,825 V 0 h 1100 v 825 z"
         id="path3" />
    </clipPath>
  </defs>
  <g
     inkscape:label="Layer 1"
     inkscape:groupmode="layer"
     id="layer1"
     transform="translate(-56.091674,-115.62292)">
    <path
       fill-rule="evenodd"
       d="m 99.353966,119.62307 h 44.714584 v 20.58459 H 99.353966 Z"
       class="g1_13"
       id="path36"
       style="display:block;fill:#000000;fill-opacity:0;stroke-width:0.264583" />
    <g
       clip-path="url(#c0_13)"
       id="g41"
       style="display:block"
       transform="matrix(0.26458333,0,0,0.26458333,-134.43186,-14.547128)">
      <text
         x="893.90002"
         y="532.09998"
         class="s5_13"
         id="text37"
         style="font-size:15.28px;font-family:MS-PGothic_bf;white-space:pre;fill:#000000"><tspan
           sodipodi:role="line"
           id="tspan146"
           x="893.90002"
           y="532.09998">The connection to other</tspan><tspan
           sodipodi:role="line"
           id="tspan147"
           x="893.90002"
           y="551.19995">lanelets is not straight-line.</tspan></text>
    </g>
    <path
       fill-rule="evenodd"
       d="M 89.088133,147.03391 H 133.80272 V 162.7237 H 89.088133 Z"
       class="g1_13"
       id="path41"
       style="display:block;fill:#000000;fill-opacity:0;stroke-width:0.264583" />
    <g
       clip-path="url(#c0_13)"
       id="g43"
       style="display:block"
       transform="matrix(0.26458333,0,0,0.26458333,-134.43186,-14.547128)">
      <text
         x="855.09998"
         y="635.70001"
         class="s5_13"
         id="text42"
         style="font-size:15.28px;font-family:MS-PGothic_bf;white-space:pre;fill:#000000">uneven and not smooth</text>
      <text
         x="855.09998"
         y="654.09998"
         class="s5_13"
         id="text43"
         style="font-size:15.28px;font-family:MS-PGothic_bf;white-space:pre;fill:#000000" />
    </g>
    <path
       fill-rule="evenodd"
       d="m 89.088133,168.86203 h 44.714587 v 15.68979 H 89.088133 Z"
       class="g1_13"
       id="path43"
       style="display:block;fill:#000000;fill-opacity:0;stroke-width:0.264583" />
    <g
       clip-path="url(#c0_13)"
       id="g45"
       style="display:block"
       transform="matrix(0.26458333,0,0,0.26458333,-134.43186,-14.547128)">
      <text
         x="855.09998"
         y="718.20001"
         class="s5_13"
         id="text44"
         style="font-size:15.28px;font-family:MS-PGothic_bf;white-space:pre;fill:#000000"><tspan
           sodipodi:role="line"
           id="tspan144"
           x="855.09998"
           y="718.20001">Line does not follow</tspan><tspan
           sodipodi:role="line"
           id="tspan145"
           x="855.09998"
           y="737.29999">the road boundary.</tspan></text>
      <text
         x="855.09998"
         y="736.59998"
         class="s5_13"
         id="text45"
         style="font-size:15.28px;font-family:MS-PGothic_bf;white-space:pre;fill:#000000"> </text>
    </g>
    <path
       fill-rule="evenodd"
       d="m 83.637717,120.07287 12.250208,12.14437 -13.996458,13.86417 -1.243542,1.34937 -1.031875,1.21708 -0.555625,0.97896 -0.582083,1.34938 -0.3175,1.48166 -0.291042,1.5875 v 1.42875 l 0.05292,1.69334 -0.07937,27.305 H 60.671884 v -28.81313 l 0.07937,-2.48708 0.3175,-3.46604 0.608541,-2.75167 0.9525,-2.91041 1.349375,-2.61938 1.481667,-2.61937 1.74625,-2.09021 1.375833,-1.61396 1.27,-1.32292 1.137708,-1.16416 z"
       class="g3_13"
       id="path65"
       style="display:block;fill:#666666;stroke-width:0.264583" />
    <path
       fill-rule="evenodd"
       d="m 89.352717,125.70849 0.3175,0.34396 -4.656667,4.65667 -0.423333,-0.39688 z"
       class="g0_13"
       id="path66"
       style="display:block;fill:#ffffff;stroke-width:0.264583" />
    <path
       fill-rule="evenodd"
       d="m 80.118758,134.86307 0.343959,0.34396 -4.683125,4.68313 -0.396875,-0.42334 z"
       class="g0_13"
       id="path67"
       style="display:block;fill:#ffffff;stroke-width:0.264583" />
    <path
       fill-rule="evenodd"
       d="M 68.768133,177.80495 H 69.2973 v 6.61458 h -0.529167 z"
       class="g0_13"
       id="path68"
       style="display:block;fill:#ffffff;stroke-width:0.264583" />
    <path
       fill-rule="evenodd"
       d="M 68.768133,165.79286 H 69.2973 v 6.61459 h -0.529167 z"
       class="g0_13"
       id="path69"
       style="display:block;fill:#ffffff;stroke-width:0.264583" />
    <path
       fill-rule="evenodd"
       d="M 68.768133,154.38932 H 69.2973 v 6.61459 h -0.529167 z"
       class="g0_13"
       id="path70"
       style="display:block;fill:#ffffff;stroke-width:0.264583" />
    <path
       fill-rule="evenodd"
       d="m 72.234175,143.43557 0.264583,0.15875 -0.3175,0.55563 -0.396875,0.68791 -0.423333,0.87313 -0.343958,0.76729 -0.211667,0.47625 -0.211667,0.52917 -0.15875,0.39687 -0.15875,0.37042 -0.132291,0.39687 -0.555625,-0.1852 0.264583,-0.635 0.3175,-0.7673 0.370417,-0.84666 0.396875,-0.89959 0.47625,-0.84666 0.370416,-0.60854 0.3175,-0.52917 z"
       class="g0_13"
       id="path71"
       style="display:block;fill:#ffffff;stroke-width:0.264583" />
    <path
       fill-rule="evenodd"
       d="m 95.887925,132.21724 1.11125,1.11125 -12.514792,12.54125 -1.217083,1.16417 -1.217083,1.19062 -0.555625,0.71438 -0.529167,0.84666 -0.635,1.21709 -0.47625,1.34937 -0.264583,1.37583 -0.02646,1.16417 v 29.5275 h -1.640416 v -26.67 l 0.02646,-3.46604 0.291042,-2.35479 0.635,-1.66688 0.343958,-0.79375 0.899583,-1.40229 1.058334,-1.16417 1.005416,-1.05833 1.296459,-1.21708 z"
       class="g3_13"
       id="path72"
       style="display:block;fill:#666666;stroke-width:0.264583" />
    <path
       fill-rule="evenodd"
       d="m 83.611258,120.01995 -1.296458,-1.29646 -11.721042,11.69458 -1.878541,2.01084 -1.164167,1.03187 -0.978958,0.9525 -1.005417,1.16417 -0.820208,1.08479 -1.402292,1.905 -0.687916,1.16417 -0.608542,1.08479 -0.661458,1.53458 -0.635,1.5875 -0.661459,1.87854 -0.502708,1.53459 -0.343958,1.98437 -0.264584,1.87854 -0.15875,1.87854 -0.07937,2.11667 v 29.28938 h 1.931459 v -25.29417 l 0.05292,-4.70958 0.05292,-2.54 0.291042,-2.6723 0.582083,-2.35479 0.79375,-2.38125 1.42875,-3.12208 1.5875,-2.54 1.455208,-1.93146 1.905,-2.14312 1.561042,-1.69334 z"
       class="g3_13"
       id="path73"
       style="display:block;fill:#666666;stroke-width:0.264583" />
    <path
       fill-rule="evenodd"
       d="m 83.611258,120.1787 c -1.534583,1.50812 -6.879166,6.82625 -9.075208,8.96937 -2.2225,2.16959 -2.963333,2.72521 -4.206875,3.9423 -1.217083,1.24354 -2.354792,2.56645 -3.148542,3.51895 -0.79375,0.9525 -1.005416,1.37584 -1.5875,2.2225 -0.555625,0.84667 -1.296458,1.98438 -1.772708,2.8575 -0.449791,0.84667 -0.635,1.45521 -0.978958,2.30188 -0.343958,0.87312 -0.740833,1.93146 -1.031875,2.80458 -0.291042,0.89958 -0.555625,1.61396 -0.740833,2.56646 -0.15875,0.97896 -0.238125,0.87312 -0.291042,3.25437 -0.05292,2.38125 0.02646,6.56167 0,11.05959 -0.02646,4.47146 -0.185208,12.40896 -0.211667,15.90146 0,3.51895 0.05292,4.23333 0.05292,5.08 z"
       class="g1_13"
       id="path74"
       style="display:block;fill:#000000;fill-opacity:0;stroke-width:0.264583" />
    <path
       d="m 83.611258,120.1787 c -1.534583,1.50812 -6.879166,6.82625 -9.075208,8.96937 -2.2225,2.16959 -2.963333,2.72521 -4.206875,3.9423 -1.217083,1.24354 -2.354792,2.56645 -3.148542,3.51895 -0.79375,0.9525 -1.005416,1.37584 -1.5875,2.2225 -0.555625,0.84667 -1.296458,1.98438 -1.772708,2.8575 -0.449791,0.84667 -0.635,1.45521 -0.978958,2.30188 -0.343958,0.87312 -0.740833,1.93146 -1.031875,2.80458 -0.291042,0.89958 -0.555625,1.61396 -0.740833,2.56646 -0.15875,0.97896 -0.238125,0.87312 -0.291042,3.25437 -0.05292,2.38125 0.02646,6.56167 0,11.05959 -0.02646,4.47146 -0.185208,12.40896 -0.211667,15.90146 0,3.51895 0.05292,4.23333 0.05292,5.08"
       class="g4_13"
       id="path75"
       style="display:block;fill:none;stroke:#ffffff;stroke-width:0.302948;stroke-linejoin:round" />
    <path
       fill-rule="evenodd"
       d="m 95.861466,132.21724 c -1.534583,1.53458 -6.852708,6.82625 -9.313333,9.26042 -2.460625,2.46062 -4.365625,4.25979 -5.450416,5.42395 -1.11125,1.16417 -0.820209,1.0848 -1.190625,1.5875 -0.370417,0.50271 -0.767292,0.89959 -1.031875,1.48167 -0.291042,0.55563 -0.449792,1.24354 -0.608542,1.905 -0.132292,0.66146 -0.211667,1.37583 -0.291042,2.09021 -0.05292,0.68792 -0.07937,0.47625 -0.105833,2.11667 0,1.61395 0.02646,4.81541 0,7.64645 0,2.80459 -0.02646,5.82084 -0.02646,9.26042 -0.02646,3.43958 0,9.47208 0,11.37708 z"
       class="g1_13"
       id="path76"
       style="display:block;fill:#000000;fill-opacity:0;stroke-width:0.264583" />
    <path
       d="m 95.861466,132.21724 c -1.534583,1.53458 -6.852708,6.82625 -9.313333,9.26042 -2.460625,2.46062 -4.365625,4.25979 -5.450416,5.42395 -1.11125,1.16417 -0.820209,1.0848 -1.190625,1.5875 -0.370417,0.50271 -0.767292,0.89959 -1.031875,1.48167 -0.291042,0.55563 -0.449792,1.24354 -0.608542,1.905 -0.132292,0.66146 -0.211667,1.37583 -0.291042,2.09021 -0.05292,0.68792 -0.07937,0.47625 -0.105833,2.11667 0,1.61395 0.02646,4.81541 0,7.64645 0,2.80459 -0.02646,5.82084 -0.02646,9.26042 -0.02646,3.43958 0,9.47208 0,11.37708"
       class="g4_13"
       id="path77"
       style="display:block;fill:none;stroke:#ffffff;stroke-width:0.302948;stroke-linejoin:round" />
    <path
       fill-rule="evenodd"
       d="m 83.42605,119.8612 2.460625,2.59292 2.434167,4.18041 -4.736042,4.47146 -4.974167,5.18583 -3.518958,3.33375 -3.280833,3.99521 -2.54,1.08479 0.899583,2.19604 -2.513542,1.95792 1.217084,2.03729 -1.799167,1.905 -0.07937,4.47146 0.07937,12.3825 v 14.71083 h -5.3975 v -30.74458 l 1.984375,-1.66687 -1.508125,-3.67771 2.989792,-1.37584 -0.608542,-3.75708 2.407708,-0.89958 -1.508125,-4.10104 2.169584,-2.32834 4.974166,-5.29166 z"
       class="g5_13"
       id="path78"
       style="display:block;fill:#f4cccc;fill-opacity:0.43;stroke-width:0.264583" />
    <path
       d="m 83.42605,119.8612 2.460625,2.59292 2.434167,4.18041 -4.736042,4.47146 -4.974167,5.18583 -3.518958,3.33375 -3.280833,3.99521 -2.54,1.08479 0.899583,2.19604 -2.513542,1.95792 1.217084,2.03729 -1.799167,1.905 -0.07937,4.47146 0.07937,12.3825 v 14.71083 h -5.3975 v -30.74458 l 1.984375,-1.66687 -1.508125,-3.67771 2.989792,-1.37584 -0.608542,-3.75708 2.407708,-0.89958 -1.508125,-4.10104 2.169584,-2.32834 4.974166,-5.29166 z"
       class="g6_13"
       id="path79"
       style="display:block;fill:none;stroke:#ff0000;stroke-width:0.302948;stroke-linejoin:round" />
    <path
       fill-rule="evenodd"
       d="M 101.86751,127.87807 87.288967,126.97849 Z"
       class="g1_13"
       id="path80"
       style="display:block;fill:#000000;fill-opacity:0;stroke-width:0.264583" />
    <path
       d="M 101.86751,127.87807 89.088133,127.08432"
       class="g2_13"
       id="path81"
       style="display:block;fill:none;stroke:#000000;stroke-width:0.302948;stroke-linejoin:round" />
    <path
       fill-rule="evenodd"
       d="m 89.114592,126.58162 -1.402292,0.42333 1.349375,0.58208 z"
       class="g7_13"
       id="path82"
       style="display:block;fill:#000000;stroke:#000000;stroke-width:0.302948;stroke-miterlimit:10" />
    <path
       fill-rule="evenodd"
       d="m 92.263133,154.49516 -22.06625,-7.77875 z"
       class="g1_13"
       id="path83"
       style="display:block;fill:#000000;fill-opacity:0;stroke-width:0.264583" />
    <path
       d="M 92.263133,154.49516 71.916675,147.32495"
       class="g2_13"
       id="path84"
       style="display:block;fill:none;stroke:#000000;stroke-width:0.302948;stroke-linejoin:round" />
    <path
       fill-rule="evenodd"
       d="m 72.075425,146.8487 -1.455208,0.0265 1.137708,0.92604 z"
       class="g7_13"
       id="path85"
       style="display:block;fill:#000000;stroke:#000000;stroke-width:0.302948;stroke-miterlimit:10" />
    <path
       fill-rule="evenodd"
       d="m 91.866258,176.21745 -24.209375,-0.9525 z"
       class="g1_13"
       id="path86"
       style="display:block;fill:#000000;fill-opacity:0;stroke-width:0.264583" />
    <path
       d="m 91.866258,176.21745 -22.38375,-0.89959"
       class="g2_13"
       id="path87"
       style="display:block;fill:none;stroke:#000000;stroke-width:0.302948;stroke-linejoin:round" />
    <path
       fill-rule="evenodd"
       d="m 69.482508,174.81516 -1.375833,0.44979 1.349375,0.55562 z"
       class="g7_13"
       id="path88"
       style="display:block;fill:#000000;stroke:#000000;stroke-width:0.302948;stroke-miterlimit:10" />
  </g>
</svg>
