<?xml version="1.0" encoding="UTF-8" standalone="no"?>
<!-- Created with Inkscape (http://www.inkscape.org/) -->

<svg
   width="64.002998mm"
   height="63.018002mm"
   viewBox="0 0 64.002999 63.018001"
   version="1.1"
   id="svg1"
   inkscape:version="1.3.2 (1:1.3.2+202311252150+091e20ef0f)"
   sodipodi:docname="vm-06-04_1.svg"
   xmlns:inkscape="http://www.inkscape.org/namespaces/inkscape"
   xmlns:sodipodi="http://sodipodi.sourceforge.net/DTD/sodipodi-0.dtd"
   xmlns="http://www.w3.org/2000/svg"
   xmlns:svg="http://www.w3.org/2000/svg">
  <sodipodi:namedview
     id="namedview1"
     pagecolor="#ffffff"
     bordercolor="#000000"
     borderopacity="0.25"
     inkscape:showpageshadow="2"
     inkscape:pageopacity="0.0"
     inkscape:pagecheckerboard="0"
     inkscape:deskcolor="#d1d1d1"
     inkscape:document-units="mm"
     inkscape:zoom="1.7131103"
     inkscape:cx="105.36391"
     inkscape:cy="107.11511"
     inkscape:window-width="1920"
     inkscape:window-height="2123"
     inkscape:window-x="0"
     inkscape:window-y="0"
     inkscape:window-maximized="0"
     inkscape:current-layer="layer1" />
  <defs
     id="defs1">
    <clipPath
       id="c0_64">
      <path
         d="M 0,825 V 0 h 1100 v 825 z"
         id="path2" />
    </clipPath>
  </defs>
  <g
     inkscape:label="Layer 1"
     inkscape:groupmode="layer"
     id="layer1"
     transform="translate(-77.000722,-120.12084)">
    <path
       fill-rule="evenodd"
       d="M 94.082229,132.69765 H 117.63015 V 179.3966 H 94.082229 Z"
       class="g5_64"
       id="path87"
       style="display:block;fill:#666666;stroke-width:0.264583" />
    <path
       fill-rule="evenodd"
       d="m 95.696187,132.67119 h 0.502709 v 46.69896 h -0.502709 z"
       class="g0_64"
       id="path88"
       style="display:block;fill:#ffffff;stroke-width:0.264583" />
    <path
       fill-rule="evenodd"
       d="m 115.77807,132.67119 h 0.47625 v 46.69896 h -0.47625 z"
       class="g0_64"
       id="path89"
       style="display:block;fill:#ffffff;stroke-width:0.264583" />
    <path
       fill-rule="evenodd"
       d="m 115.93682,145.29181 v 0.47625 H 96.013687 v -0.47625 z"
       class="g0_64"
       id="path90"
       style="display:block;fill:#ffffff;stroke-width:0.264583" />
    <path
       fill-rule="evenodd"
       d="m 115.98973,163.78619 v 0.50271 H 96.013687 v -0.50271 z"
       class="g0_64"
       id="path91"
       style="display:block;fill:#ffffff;stroke-width:0.264583" />
    <path
       fill-rule="evenodd"
       d="m 104.90369,145.31827 0.26458,0.42333 -9.233958,5.31813 -0.238125,-0.42333 z"
       class="g0_64"
       id="path92"
       style="display:block;fill:#ffffff;stroke-width:0.264583" />
    <path
       fill-rule="evenodd"
       d="m 116.01619,158.36223 0.23813,0.42333 -9.2075,5.34459 -0.26459,-0.42334 z"
       class="g0_64"
       id="path93"
       style="display:block;fill:#ffffff;stroke-width:0.264583" />
    <path
       fill-rule="evenodd"
       d="m 101.12015,151.2714 0.23812,0.42333 -5.423958,3.12208 -0.238125,-0.42333 z"
       class="g0_64"
       id="path94"
       style="display:block;fill:#ffffff;stroke-width:0.264583" />
    <path
       fill-rule="evenodd"
       d="m 101.12015,155.02848 0.23812,0.42333 -5.423958,3.12209 -0.238125,-0.42334 z"
       class="g0_64"
       id="path95"
       style="display:block;fill:#ffffff;stroke-width:0.264583" />
    <path
       fill-rule="evenodd"
       d="m 101.12015,158.78556 0.23812,0.42334 -5.423958,3.12208 -0.238125,-0.42333 z"
       class="g0_64"
       id="path96"
       style="display:block;fill:#ffffff;stroke-width:0.264583" />
    <path
       fill-rule="evenodd"
       d="m 115.85744,147.72598 0.23813,0.42333 -5.42396,3.12209 -0.23813,-0.42334 z"
       class="g0_64"
       id="path97"
       style="display:block;fill:#ffffff;stroke-width:0.264583" />
    <path
       fill-rule="evenodd"
       d="m 115.85744,151.2714 0.23813,0.42333 -5.42396,3.12208 -0.23813,-0.42333 z"
       class="g0_64"
       id="path98"
       style="display:block;fill:#ffffff;stroke-width:0.264583" />
    <path
       fill-rule="evenodd"
       d="m 115.85744,154.81681 0.23813,0.42334 -5.42396,3.14854 -0.23813,-0.42334 z"
       class="g0_64"
       id="path99"
       style="display:block;fill:#ffffff;stroke-width:0.264583" />
    <path
       fill-rule="evenodd"
       d="M 105.51223,161.00806 V 141.7464 Z"
       class="g1_64"
       id="path100"
       style="display:block;fill:#000000;fill-opacity:0;stroke-width:0.264583" />
    <path
       d="M 105.51223,161.00806 V 149.02244"
       class="gg_64"
       id="path101"
       style="display:block;fill:none;stroke:#ff9900;stroke-width:1.21259;stroke-linejoin:round" />
    <path
       fill-rule="evenodd"
       d="m 107.52307,149.02244 -2.01084,-5.50334 -1.98437,5.50334 z"
       class="gh_64"
       id="path102"
       style="display:block;fill:#ff9900;stroke:#ff9900;stroke-width:1.21259;stroke-miterlimit:10" />
    <path
       fill-rule="evenodd"
       d="m 91.542229,122.3789 h 33.469791 v 10.29229 H 91.542229 Z"
       class="g1_64"
       id="path103"
       style="display:block;fill:#000000;fill-opacity:0;stroke-width:0.264583" />
    <text
       clip-path="url(#c0_64)"
       x="215.39999"
       y="552.40002"
       class="sa_64"
       id="text103"
       style="font-size:13.75px;font-family:MS-PGothic_bn;white-space:pre;display:block;fill:#000000"
       transform="matrix(0.26458333,0,0,0.26458333,23.122663,-18.136073)">No stopping zone</text>
    <path
       fill-rule="evenodd"
       d="m 102.76056,167.70202 v 0 c 0,-0.0529 0.0265,-0.10583 0.0794,-0.10583 h 0.42333 c 0.0265,0 0.0529,0.0265 0.0794,0.0265 0.0265,0.0265 0.0265,0.0529 0.0265,0.0794 v 1.69333 c 0,0.0529 -0.0529,0.10584 -0.10584,0.10584 h -0.42333 c -0.0529,0 -0.0794,-0.0529 -0.0794,-0.10584 z"
       class="gi_64"
       id="path104"
       style="display:block;fill:#000000;stroke-width:0.264583" />
    <path
       fill-rule="evenodd"
       d="m 108.29036,167.70202 v 0 c 0,-0.0529 0.0529,-0.10583 0.10583,-0.10583 h 0.42333 c 0.0265,0 0.0529,0.0265 0.0794,0.0265 0,0.0265 0.0265,0.0529 0.0265,0.0794 v 1.69333 c 0,0.0529 -0.0529,0.10584 -0.10584,0.10584 h -0.42333 c -0.0529,0 -0.10583,-0.0529 -0.10583,-0.10584 z"
       class="gi_64"
       id="path105"
       style="display:block;fill:#000000;stroke-width:0.264583" />
    <path
       fill-rule="evenodd"
       d="m 102.76056,174.60765 v 0 c 0,-0.0529 0.0265,-0.10584 0.0794,-0.10584 h 0.42333 c 0.0265,0 0.0529,0.0265 0.0794,0.0529 0.0265,0 0.0265,0.0265 0.0265,0.0529 v 1.69333 c 0,0.0529 -0.0529,0.10583 -0.10584,0.10583 h -0.42333 c -0.0529,0 -0.0794,-0.0529 -0.0794,-0.10583 z"
       class="gi_64"
       id="path106"
       style="display:block;fill:#000000;stroke-width:0.264583" />
    <path
       fill-rule="evenodd"
       d="m 108.29036,174.60765 v 0 c 0,-0.0529 0.0529,-0.10584 0.10583,-0.10584 h 0.42333 c 0.0265,0 0.0529,0.0265 0.0794,0.0529 0,0 0.0265,0.0265 0.0265,0.0529 v 1.69333 c 0,0.0529 -0.0529,0.10583 -0.10584,0.10583 h -0.42333 c -0.0529,0 -0.10583,-0.0529 -0.10583,-0.10583 z"
       class="gi_64"
       id="path107"
       style="display:block;fill:#000000;stroke-width:0.264583" />
    <path
       fill-rule="evenodd"
       d="m 102.97223,167.4639 v 0 c 0,-0.87313 0.71438,-1.61396 1.5875,-1.61396 h 2.61938 c 0.42333,0 0.82021,0.18521 1.13771,0.47625 0.29104,0.3175 0.44979,0.71437 0.44979,1.13771 v 9.02229 c 0,0.89958 -0.71438,1.61396 -1.5875,1.61396 h -2.61938 c -0.87312,0 -1.5875,-0.71438 -1.5875,-1.61396 z"
       class="gj_64"
       id="path108"
       style="display:block;fill:#3d85c6;stroke-width:0.264583" />
    <path
       fill-rule="evenodd"
       d="m 105.30057,165.77056 v 0 c 0,-0.0265 0.0264,-0.0265 0.0529,-0.0265 h 1.00542 c 0,0 0.0265,0 0.0265,0 0,0 0.0265,0.0265 0.0265,0.0265 v 0.18521 c 0,0.0265 -0.0265,0.0529 -0.0529,0.0529 h -1.00542 c -0.0265,0 -0.0529,-0.0265 -0.0529,-0.0529 z"
       class="gk_64"
       id="path109"
       style="display:block;fill:#efefef;stroke-width:0.264583" />
    <path
       fill-rule="evenodd"
       d="m 103.79244,166.35265 0.0529,0.37041 0.44979,-0.10583 0.10583,-0.0529 0.0529,-0.0529 v -0.0529 l -0.0265,-0.10583 -0.0265,-0.0529 -0.10583,-0.0265 -0.21167,0.0265 z"
       class="g0_64"
       id="path110"
       style="display:block;fill:#ffffff;stroke-width:0.264583" />
    <path
       fill-rule="evenodd"
       d="m 107.89348,166.35265 -0.0529,0.37041 -0.42334,-0.10583 -0.10583,-0.0529 -0.0529,-0.0529 v -0.15875 l 0.0529,-0.0529 0.10583,-0.0265 0.18521,0.0265 z"
       class="g0_64"
       id="path111"
       style="display:block;fill:#ffffff;stroke-width:0.264583" />
    <path
       fill-rule="evenodd"
       d="m 103.63369,169.73931 0.39688,1.21709 0.0529,0.0794 0.13229,0.0529 h 3.20146 l 0.10584,-0.0265 0.10583,-0.10583 0.39687,-1.05834 v -0.13229 l -0.10583,-0.10583 -0.42333,-0.15875 -0.66146,-0.13229 -0.52917,-0.0794 -0.60854,0.0265 h -0.37042 l -0.29104,0.0265 -0.39687,0.0529 -0.34396,0.0794 -0.26458,0.0794 -0.26459,0.10584 z"
       class="gl_64"
       id="path112"
       style="display:block;fill:#9fc5e8;stroke-width:0.264583" />
    <path
       d="m 103.63369,169.73931 0.39688,1.21709 0.0529,0.0794 0.13229,0.0529 h 3.20146 l 0.10584,-0.0265 0.10583,-0.10583 0.39687,-1.05834 v -0.13229 l -0.10583,-0.10583 -0.42333,-0.15875 -0.66146,-0.13229 -0.52917,-0.0794 -0.60854,0.0265 h -0.37042 l -0.29104,0.0265 -0.39687,0.0529 -0.34396,0.0794 -0.26458,0.0794 -0.26459,0.10584 z"
       class="gm_64"
       id="path113"
       style="display:block;fill:none;stroke:#073763;stroke-width:0.302948;stroke-linejoin:round" />
    <path
       fill-rule="evenodd"
       d="m 103.31619,170.16265 v 6.08541 l 0.0265,0.10584 0.10583,0.0529 0.44979,-0.42333 0.1323,-0.23813 0.0794,-0.21166 -0.0529,-3.57188 -0.0529,-0.26458 -0.15875,-0.44979 -0.21167,-0.47625 z"
       class="gl_64"
       id="path114"
       style="display:block;fill:#9fc5e8;stroke-width:0.264583" />
    <path
       d="m 103.31619,170.16265 v 6.08541 l 0.0265,0.10584 0.10583,0.0529 0.44979,-0.42333 0.1323,-0.23813 0.0794,-0.21166 -0.0529,-3.57188 -0.0529,-0.26458 -0.15875,-0.44979 -0.21167,-0.47625 z"
       class="gm_64"
       id="path115"
       style="display:block;fill:none;stroke:#073763;stroke-width:0.302948;stroke-linejoin:round" />
    <path
       fill-rule="evenodd"
       d="m 108.47557,170.21556 v 6.08542 l -0.0265,0.13229 -0.13229,0.0265 -0.4498,-0.39688 -0.13229,-0.23812 -0.0794,-0.23813 0.0794,-3.54541 0.0265,-0.26459 0.18521,-0.47625 0.18521,-0.44979 z"
       class="gl_64"
       id="path116"
       style="display:block;fill:#9fc5e8;stroke-width:0.264583" />
    <path
       d="m 108.47557,170.21556 v 6.08542 l -0.0265,0.13229 -0.13229,0.0265 -0.4498,-0.39688 -0.13229,-0.23812 -0.0794,-0.23813 0.0794,-3.54541 0.0265,-0.26459 0.18521,-0.47625 0.18521,-0.44979 z"
       class="gm_64"
       id="path117"
       style="display:block;fill:none;stroke:#073763;stroke-width:0.302948;stroke-linejoin:round" />
    <path
       fill-rule="evenodd"
       d="m 103.28973,170.08327 -0.10583,-0.0265 h -0.15875 l -0.1323,0.0265 -0.15875,0.0794 -0.10583,0.0794 -0.0265,0.10583 v 0.0794 l 0.0794,0.0794 0.13229,0.0529 0.21167,0.0265 h 0.15875 l 0.10583,-0.0529 0.10584,-0.10583 0.0264,-0.0794 v -0.10583 l -0.0529,-0.0794 z"
       class="gn_64"
       id="path118"
       style="display:block;fill:#0b5394;stroke-width:0.264583" />
    <path
       fill-rule="evenodd"
       d="m 108.42265,170.08327 0.10583,-0.0265 h 0.15875 l 0.13229,0.0265 0.15875,0.0794 0.10584,0.0794 0.0265,0.10583 v 0.0794 l -0.0794,0.0794 -0.13229,0.0529 -0.21167,0.0265 h -0.15875 l -0.10583,-0.0529 -0.10583,-0.10583 -0.0265,-0.0794 v -0.10583 l 0.0529,-0.0794 z"
       class="gn_64"
       id="path119"
       style="display:block;fill:#0b5394;stroke-width:0.264583" />
    <path
       fill-rule="evenodd"
       d="m 105.30057,177.96785 v 0 c 0,-0.0265 0.0264,-0.0529 0.0529,-0.0529 h 1.00542 c 0,0 0.0265,0 0.0265,0.0265 0,0 0.0265,0 0.0265,0.0265 v 0.15875 c 0,0.0265 -0.0265,0.0529 -0.0529,0.0529 h -1.00542 c -0.0265,0 -0.0529,-0.0265 -0.0529,-0.0529 z"
       class="gk_64"
       id="path120"
       style="display:block;fill:#efefef;stroke-width:0.264583" />
    <path
       fill-rule="evenodd"
       d="m 103.79244,178.15306 0.0529,-0.34396 0.44979,0.10584 0.10583,0.0265 0.0529,0.0529 v 0.0794 l -0.0265,0.0794 -0.0265,0.0529 -0.10583,0.0265 -0.21167,-0.0265 z"
       class="gn_64"
       id="path121"
       style="display:block;fill:#0b5394;stroke-width:0.264583" />
    <path
       fill-rule="evenodd"
       d="m 107.89348,178.15306 -0.0529,-0.34396 -0.42334,0.10584 -0.10583,0.0265 -0.0529,0.0529 v 0.15875 l 0.0529,0.0529 0.10583,0.0265 0.18521,-0.0265 z"
       class="gn_64"
       id="path122"
       style="display:block;fill:#0b5394;stroke-width:0.264583" />
    <path
       fill-rule="evenodd"
       d="m 104.40098,176.16869 -0.10583,0.0265 -0.76729,0.635 -0.0794,0.15875 0.0265,0.10583 0.23813,0.15875 0.3175,0.13229 0.42333,0.10583 0.47625,0.0529 0.47625,0.0529 h 0.50271 l 0.52916,-0.0265 0.50271,-0.0265 0.58209,-0.10583 0.39687,-0.13229 0.26458,-0.18521 0.0529,-0.15875 -0.0794,-0.13229 -0.71438,-0.60855 -0.0529,-0.0264 -0.79375,-0.0529 h -1.50812 z"
       class="gl_64"
       id="path123"
       style="display:block;fill:#9fc5e8;stroke-width:0.264583" />
    <path
       d="m 104.40098,176.16869 -0.10583,0.0265 -0.76729,0.635 -0.0794,0.15875 0.0265,0.10583 0.23813,0.15875 0.3175,0.13229 0.42333,0.10583 0.47625,0.0529 0.47625,0.0529 h 0.50271 l 0.52916,-0.0265 0.50271,-0.0265 0.58209,-0.10583 0.39687,-0.13229 0.26458,-0.18521 0.0529,-0.15875 -0.0794,-0.13229 -0.71438,-0.60855 -0.0529,-0.0264 -0.79375,-0.0529 h -1.50812 z"
       class="gm_64"
       id="path124"
       style="display:block;fill:none;stroke:#073763;stroke-width:0.302948;stroke-linejoin:round" />
    <path
       fill-rule="evenodd"
       d="m 104.4539,166.40556 c 0.10583,-0.0265 0.47625,-0.0529 0.74083,-0.0794 0.29104,0 0.68792,0 0.9525,0 0.23813,0 0.37042,0.0265 0.55563,0.0265 0.18521,0.0264 0.42333,0.0529 0.50271,0.0529 z"
       class="g1_64"
       id="path125"
       style="display:block;fill:#000000;fill-opacity:0;stroke-width:0.264583" />
    <path
       d="m 104.4539,166.40556 c 0.10583,-0.0265 0.47625,-0.0529 0.74083,-0.0794 0.29104,0 0.68792,0 0.9525,0 0.23813,0 0.37042,0.0265 0.55563,0.0265 0.18521,0.0264 0.42333,0.0529 0.50271,0.0529"
       class="gm_64"
       id="path126"
       style="display:block;fill:none;stroke:#073763;stroke-width:0.302948;stroke-linejoin:round" />
    <path
       fill-rule="evenodd"
       d="m 103.58077,166.72306 c 0,0.0265 -0.0529,0.0265 -0.0794,0.10584 -0.0265,0.0794 -0.0529,0.1852 -0.0794,0.37041 -0.0264,0.18521 -0.0794,0.50271 -0.10583,0.71438 -0.0265,0.21166 0,0.42333 0,0.60854 0,0.18521 0.0265,0.34396 0.0794,0.55562 0.0264,0.18521 0.15875,0.52917 0.1852,0.635 z"
       class="g1_64"
       id="path127"
       style="display:block;fill:#000000;fill-opacity:0;stroke-width:0.264583" />
    <path
       d="m 103.58077,166.72306 c 0,0.0265 -0.0529,0.0265 -0.0794,0.10584 -0.0265,0.0794 -0.0529,0.1852 -0.0794,0.37041 -0.0264,0.18521 -0.0794,0.50271 -0.10583,0.71438 -0.0265,0.21166 0,0.42333 0,0.60854 0,0.18521 0.0265,0.34396 0.0794,0.55562 0.0264,0.18521 0.15875,0.52917 0.1852,0.635"
       class="gm_64"
       id="path128"
       style="display:block;fill:none;stroke:#073763;stroke-width:0.302948;stroke-linejoin:round" />
    <path
       fill-rule="evenodd"
       d="m 108.07869,166.67015 c 0.0265,0.0264 0.0794,0.10583 0.10583,0.1852 0,0.0529 0.0265,0.1323 0.0529,0.26459 0.0265,0.13229 0.0794,0.3175 0.0794,0.47625 0.0264,0.18521 0.0529,0.37041 0.0529,0.55562 0,0.18521 -0.0265,0.44979 -0.0265,0.58209 -0.0264,0.13229 0.0265,0.10583 -0.0264,0.26458 -0.0265,0.15875 -0.15875,0.58208 -0.21167,0.68792 z"
       class="g1_64"
       id="path129"
       style="display:block;fill:#000000;fill-opacity:0;stroke-width:0.264583" />
    <path
       d="m 108.07869,166.67015 c 0.0265,0.0264 0.0794,0.10583 0.10583,0.1852 0,0.0529 0.0265,0.1323 0.0529,0.26459 0.0265,0.13229 0.0794,0.3175 0.0794,0.47625 0.0264,0.18521 0.0529,0.37041 0.0529,0.55562 0,0.18521 -0.0265,0.44979 -0.0265,0.58209 -0.0264,0.13229 0.0265,0.10583 -0.0264,0.26458 -0.0265,0.15875 -0.15875,0.58208 -0.21167,0.68792"
       class="gm_64"
       id="path130"
       style="display:block;fill:none;stroke:#073763;stroke-width:0.302948;stroke-linejoin:round" />
    <path
       fill-rule="evenodd"
       d="m 106.41182,169.60702 -1.74625,1.24354 h -0.23813 l -0.15875,-0.0265 -0.10583,-0.0529 -0.0794,-0.0794 -0.29104,-0.74083 0.0265,-0.0794 0.0529,-0.0529 0.44979,-0.10584 0.47625,-0.0794 0.52916,-0.0529 h 0.79375 z"
       class="go_64"
       id="path131"
       style="display:block;fill:#cfe2f3;stroke-width:0.264583" />
  </g>
</svg>
