<?xml version="1.0" encoding="UTF-8" standalone="no"?>
<!-- Created with Inkscape (http://www.inkscape.org/) -->

<svg
   width="68.021004mm"
   height="63.706001mm"
   viewBox="0 0 68.021004 63.706002"
   version="1.1"
   id="svg1"
   inkscape:version="1.3.2 (1:1.3.2+202311252150+091e20ef0f)"
   sodipodi:docname="vm-01-04_1.svg"
   xmlns:inkscape="http://www.inkscape.org/namespaces/inkscape"
   xmlns:sodipodi="http://sodipodi.sourceforge.net/DTD/sodipodi-0.dtd"
   xmlns="http://www.w3.org/2000/svg"
   xmlns:svg="http://www.w3.org/2000/svg">
  <sodipodi:namedview
     id="namedview1"
     pagecolor="#ffffff"
     bordercolor="#000000"
     borderopacity="0.25"
     inkscape:showpageshadow="2"
     inkscape:pageopacity="0.0"
     inkscape:pagecheckerboard="0"
     inkscape:deskcolor="#d1d1d1"
     inkscape:document-units="mm"
     inkscape:zoom="1.7131103"
     inkscape:cx="116.74672"
     inkscape:cy="109.45005"
     inkscape:window-width="3840"
     inkscape:window-height="2123"
     inkscape:window-x="0"
     inkscape:window-y="0"
     inkscape:window-maximized="1"
     inkscape:current-layer="layer1" />
  <defs
     id="defs1">
    <clipPath
       id="c0_12">
      <path
         d="M 0,825 V 0 h 1100 v 825 z"
         id="path2" />
    </clipPath>
  </defs>
  <g
     inkscape:label="Layer 1"
     inkscape:groupmode="layer"
     id="layer1"
     transform="translate(-74.083331,-119.59166)">
    <path
       fill-rule="evenodd"
       d="M 76.002147,122.96335 H 96.58673 v 57.70562 H 76.002147 Z"
       class="gd_12"
       id="path122"
       style="display:block;fill:#666666;stroke-width:0.264583" />
    <path
       fill-rule="evenodd"
       d="m 78.118814,122.96335 0.02646,57.22937 z"
       class="g1_12"
       id="path123"
       style="display:block;fill:#000000;fill-opacity:0;stroke-width:0.264583" />
    <path
       d="m 78.118814,122.96335 0.02646,57.22937"
       class="g5_12"
       id="path124"
       style="display:block;fill:none;stroke:#f3f3f3;stroke-width:0.909373;stroke-linejoin:round" />
    <path
       fill-rule="evenodd"
       d="m 95.105064,123.1221 -0.07937,57.38812 z"
       class="g1_12"
       id="path125"
       style="display:block;fill:#000000;fill-opacity:0;stroke-width:0.264583" />
    <path
       d="m 95.105064,123.1221 -0.07937,57.38812"
       class="g5_12"
       id="path126"
       style="display:block;fill:none;stroke:#f3f3f3;stroke-width:0.909373;stroke-linejoin:round" />
    <path
       fill-rule="evenodd"
       d="m 86.611939,123.1221 -0.05292,57.38812 z"
       class="g1_12"
       id="path127"
       style="display:block;fill:#000000;fill-opacity:0;stroke-width:0.264583" />
    <path
       d="m 86.611939,123.1221 -0.05292,57.38812"
       class="g5_12"
       id="path128"
       style="display:block;fill:none;stroke:#f3f3f3;stroke-width:0.909373;stroke-linejoin:round" />
    <path
       fill-rule="evenodd"
       d="m 82.643189,173.12835 v -10.74208 l 5.55625,-4.97417 -0.15875,-12.67354 -4.7625,-6.90563 v -14.57854 z"
       class="g1_12"
       id="path129"
       style="display:block;fill:#000000;fill-opacity:0;stroke-width:0.264583" />
    <path
       d="m 82.643189,173.12835 v -10.74208 l 5.55625,-4.97417 -0.15875,-12.67354 -4.7625,-6.90563 v -9.10166"
       class="ge_12"
       id="path130"
       style="display:block;fill:none;stroke:#ff9900;stroke-width:0.909373;stroke-linejoin:round" />
    <path
       fill-rule="evenodd"
       d="m 84.759855,128.73127 -1.481666,-4.1275 -1.508125,4.1275 z"
       class="gf_12"
       id="path131"
       style="display:block;fill:#ff9900;stroke:#ff9900;stroke-width:0.909373;stroke-miterlimit:10" />
    <path
       fill-rule="evenodd"
       d="m 91.612564,125.31814 v 11.50938 z"
       class="g1_12"
       id="path132"
       style="display:block;fill:#000000;fill-opacity:0;stroke-width:0.264583" />
    <path
       d="m 91.612564,125.31814 v 7.85813"
       class="gb_12"
       id="path133"
       style="display:block;fill:none;stroke:#000000;stroke-width:0.60616;stroke-linejoin:round" />
    <path
       fill-rule="evenodd"
       d="m 90.607147,133.17627 1.005417,2.75166 1.005416,-2.75166 z"
       class="gc_12"
       id="path134"
       style="display:block;fill:#000000;stroke:#000000;stroke-width:0.60616;stroke-miterlimit:10" />
    <path
       fill-rule="evenodd"
       d="m 107.24944,163.39168 h 21.19313 v 10.29229 h -21.19313 z"
       class="g1_12"
       id="path135"
       style="display:block;fill:#000000;fill-opacity:0;stroke-width:0.264583" />
    <text
       clip-path="url(#c0_12)"
       x="354.89999"
       y="677"
       class="s9_12"
       id="text135"
       style="font-size:13.75px;font-family:MS-PGothic_bf;white-space:pre;display:block;fill:#000000"
       transform="matrix(0.26458333,0,0,0.26458333,16.074023,-9.5135251)">road centerline</text>
    <path
       fill-rule="evenodd"
       d="M 109.4984,168.23356 86.876522,164.97918 Z"
       class="g1_12"
       id="path136"
       style="display:block;fill:#000000;fill-opacity:0;stroke-width:0.264583" />
    <path
       d="M 109.4984,168.23356 86.876522,164.97918"
       class="g2_12"
       id="path137"
       style="display:block;fill:none;stroke:#000000;stroke-width:0.302948;stroke-linejoin:round" />
    <path
       fill-rule="evenodd"
       d="m 75.499439,146.03502 v 0 c 0,-0.0529 0.02646,-0.0794 0.07937,-0.0794 h 0.370417 c 0,0 0.02646,0 0.05292,0.0265 q 0.02646,0.0265 0.02646,0.0529 v 1.42875 c 0,0.0529 -0.05292,0.10583 -0.07938,0.10583 h -0.370417 c -0.05292,0 -0.07937,-0.0529 -0.07937,-0.10583 z"
       class="gg_12"
       id="path138"
       style="display:block;fill:#000000;stroke-width:0.264583" />
    <path
       fill-rule="evenodd"
       d="m 80.209022,146.03502 v 0 c 0,-0.0529 0.02646,-0.0794 0.07937,-0.0794 h 0.343959 c 0.02646,0 0.05292,0 0.07937,0.0265 0,0.0265 0.02646,0.0265 0.02646,0.0529 v 1.42875 c 0,0.0529 -0.05292,0.10583 -0.105833,0.10583 h -0.343959 c -0.05292,0 -0.07937,-0.0529 -0.07937,-0.10583 z"
       class="gg_12"
       id="path139"
       style="display:block;fill:#000000;stroke-width:0.264583" />
    <path
       fill-rule="evenodd"
       d="m 75.499439,151.88231 v 0 c 0,-0.0265 0.05292,-0.0794 0.07937,-0.0794 h 0.370417 q 0.02646,0 0.05292,0.0265 0.02646,0.0265 0.02646,0.0529 v 1.42875 c 0,0.0529 -0.02646,0.10583 -0.07938,0.10583 h -0.370417 c -0.02646,0 -0.07937,-0.0529 -0.07937,-0.10583 z"
       class="gg_12"
       id="path140"
       style="display:block;fill:#000000;stroke-width:0.264583" />
    <path
       fill-rule="evenodd"
       d="m 80.209022,151.88231 v 0 c 0,-0.0265 0.02646,-0.0794 0.07937,-0.0794 h 0.343959 c 0.02646,0 0.05292,0 0.07937,0.0265 0,0.0265 0.02646,0.0265 0.02646,0.0529 v 1.42875 c 0,0.0529 -0.05292,0.10583 -0.105833,0.10583 h -0.343959 c -0.05292,0 -0.07937,-0.0529 -0.07937,-0.10583 z"
       class="gg_12"
       id="path141"
       style="display:block;fill:#000000;stroke-width:0.264583" />
    <path
       fill-rule="evenodd"
       d="m 75.684647,145.84981 v 0 c 0,-0.76729 0.608542,-1.37583 1.349375,-1.37583 h 2.2225 c 0.343959,0 0.714375,0.15875 0.9525,0.39687 0.264584,0.26458 0.396875,0.60854 0.396875,0.97896 v 7.64646 c 0,0.74083 -0.608541,1.34937 -1.349375,1.34937 h -2.2225 c -0.740833,0 -1.349375,-0.60854 -1.349375,-1.34937 z"
       class="gh_12"
       id="path142"
       style="display:block;fill:#ff0000;stroke-width:0.264583" />
    <path
       fill-rule="evenodd"
       d="m 77.669022,144.42106 v 0 c 0,-0.0265 0,-0.0529 0.02646,-0.0529 h 0.873125 l 0.02646,0.0265 v 0.15875 c 0,0.0265 -0.02646,0.0529 -0.02646,0.0529 h -0.873125 c -0.02646,0 -0.02646,-0.0265 -0.02646,-0.0529 z"
       class="gi_12"
       id="path143"
       style="display:block;fill:#efefef;stroke-width:0.264583" />
    <path
       fill-rule="evenodd"
       d="m 76.372564,144.89731 0.05292,0.3175 0.370416,-0.10583 0.105834,-0.0265 0.02646,-0.0529 0.02646,-0.0529 -0.02646,-0.0794 -0.02646,-0.0529 H 76.63715 Z"
       class="gj_12"
       id="path144"
       style="display:block;fill:#ffff00;stroke-width:0.264583" />
    <path
       fill-rule="evenodd"
       d="m 79.865064,144.89731 -0.05292,0.3175 -0.370416,-0.10583 -0.07937,-0.0265 -0.05292,-0.0529 v -0.0529 l 0.02646,-0.0794 0.02646,-0.0529 h 0.264583 z"
       class="gj_12"
       id="path145"
       style="display:block;fill:#ffff00;stroke-width:0.264583" />
    <path
       fill-rule="evenodd"
       d="m 76.266731,147.75481 0.3175,1.03187 0.05292,0.0794 0.105834,0.0529 h 2.725208 l 0.07937,-0.0529 0.105833,-0.0794 0.3175,-0.87312 v -0.13229 l -0.07937,-0.0794 -0.370416,-0.13229 -0.555625,-0.13229 -0.449792,-0.0529 -0.502708,0.0265 h -0.343959 l -0.211666,0.0265 -0.343959,0.0265 -0.291041,0.0794 -0.238125,0.0794 -0.211667,0.0794 z"
       class="gj_12"
       id="path146"
       style="display:block;fill:#ffff00;stroke-width:0.264583" />
    <path
       d="m 76.266731,147.75481 0.3175,1.03187 0.05292,0.0794 0.105834,0.0529 h 2.725208 l 0.07937,-0.0529 0.105833,-0.0794 0.3175,-0.87312 v -0.13229 l -0.07937,-0.0794 -0.370416,-0.13229 -0.555625,-0.13229 -0.449792,-0.0529 -0.502708,0.0265 h -0.343959 l -0.211666,0.0265 -0.343959,0.0265 -0.291041,0.0794 -0.238125,0.0794 -0.211667,0.0794 z"
       class="gk_12"
       id="path147"
       style="display:block;fill:none;stroke:#660000;stroke-width:0.302948;stroke-linejoin:round" />
    <path
       fill-rule="evenodd"
       d="m 75.975689,148.12523 v 5.13291 l 0.02646,0.10583 0.105834,0.0529 0.370416,-0.37042 0.105834,-0.1852 0.07937,-0.18521 -0.05292,-3.01625 -0.05292,-0.23813 -0.132291,-0.37041 -0.15875,-0.42334 z"
       class="gj_12"
       id="path148"
       style="display:block;fill:#ffff00;stroke-width:0.264583" />
    <path
       d="m 75.975689,148.12523 v 5.13291 l 0.02646,0.10583 0.105834,0.0529 0.370416,-0.37042 0.105834,-0.1852 0.07937,-0.18521 -0.05292,-3.01625 -0.05292,-0.23813 -0.132291,-0.37041 -0.15875,-0.42334 z"
       class="gk_12"
       id="path149"
       style="display:block;fill:none;stroke:#660000;stroke-width:0.302948;stroke-linejoin:round" />
    <path
       fill-rule="evenodd"
       d="m 80.341314,148.17814 v 5.15938 l -0.02646,0.0794 -0.07937,0.0529 -0.396875,-0.37042 -0.105834,-0.18521 -0.07937,-0.18521 0.07937,-3.01625 0.02646,-0.21166 0.132291,-0.39688 0.15875,-0.39687 z"
       class="gj_12"
       id="path150"
       style="display:block;fill:#ffff00;stroke-width:0.264583" />
    <path
       d="m 80.341314,148.17814 v 5.15938 l -0.02646,0.0794 -0.07937,0.0529 -0.396875,-0.37042 -0.105834,-0.18521 -0.07937,-0.18521 0.07937,-3.01625 0.02646,-0.21166 0.132291,-0.39688 0.15875,-0.39687 z"
       class="gk_12"
       id="path151"
       style="display:block;fill:none;stroke:#660000;stroke-width:0.302948;stroke-linejoin:round" />
    <path
       fill-rule="evenodd"
       d="m 75.975689,148.07231 -0.105833,-0.0265 h -0.132292 l -0.105833,0.0265 -0.132292,0.0529 -0.105833,0.0529 -0.02646,0.0794 v 0.0794 l 0.07937,0.0794 0.105834,0.0529 0.185208,0.0265 h 0.132292 l 0.105833,-0.0529 0.07937,-0.10584 0.02646,-0.0529 v -0.0794 l -0.05292,-0.0794 z"
       class="gl_12"
       id="path152"
       style="display:block;fill:#980000;stroke-width:0.264583" />
    <path
       fill-rule="evenodd"
       d="m 80.314856,148.07231 0.07937,-0.0265 h 0.132291 l 0.132292,0.0265 0.132292,0.0529 0.105833,0.0529 v 0.15875 l -0.05292,0.0794 -0.132291,0.0529 -0.15875,0.0265 h -0.132292 l -0.105833,-0.0529 -0.07937,-0.10584 -0.02646,-0.0529 v -0.0794 l 0.02646,-0.0794 z"
       class="gl_12"
       id="path153"
       style="display:block;fill:#980000;stroke-width:0.264583" />
    <path
       fill-rule="evenodd"
       d="m 77.669022,154.71335 v 0 c 0,0 0.02646,-0.0265 0.02646,-0.0265 h 0.899583 q 0,0.0265 0,0.0265 v 0.15875 c 0,0.0265 -0.02646,0.0265 -0.02646,0.0265 H 77.69548 c 0,0 -0.02646,0 -0.02646,-0.0265 z"
       class="gi_12"
       id="path154"
       style="display:block;fill:#efefef;stroke-width:0.264583" />
    <path
       fill-rule="evenodd"
       d="m 76.399022,154.89856 0.02646,-0.3175 0.396875,0.10583 0.07937,0.0265 0.02646,0.0529 0.02646,0.0529 -0.02646,0.0529 -0.02646,0.0529 -0.105834,0.0265 h -0.15875 z"
       class="gm_12"
       id="path155"
       style="display:block;fill:#660000;stroke-width:0.264583" />
    <path
       fill-rule="evenodd"
       d="m 79.865064,154.89856 -0.02646,-0.3175 -0.396875,0.10583 -0.07937,0.0265 -0.02646,0.0529 -0.02646,0.0529 0.02646,0.0529 0.02646,0.0529 0.105833,0.0265 h 0.15875 z"
       class="gm_12"
       id="path156"
       style="display:block;fill:#660000;stroke-width:0.264583" />
    <path
       fill-rule="evenodd"
       d="m 76.901731,153.20522 h -0.07937 l -0.661459,0.55563 -0.05292,0.13229 0.02646,0.10583 0.185208,0.1323 0.264584,0.10583 0.370416,0.0794 0.396875,0.0529 0.396875,0.0529 h 0.449792 l 0.449792,-0.0265 0.423333,-0.0265 0.47625,-0.10583 0.3175,-0.10584 0.238125,-0.15875 0.05292,-0.13229 -0.07937,-0.10583 -0.582084,-0.50271 -0.05292,-0.0529 -0.687917,-0.0265 h -0.740833 l -0.529167,0.0265 z"
       class="gj_12"
       id="path157"
       style="display:block;fill:#ffff00;stroke-width:0.264583" />
    <path
       d="m 76.901731,153.20522 h -0.07937 l -0.661459,0.55563 -0.05292,0.13229 0.02646,0.10583 0.185208,0.1323 0.264584,0.10583 0.370416,0.0794 0.396875,0.0529 0.396875,0.0529 h 0.449792 l 0.449792,-0.0265 0.423333,-0.0265 0.47625,-0.10583 0.3175,-0.10584 0.238125,-0.15875 0.05292,-0.13229 -0.07937,-0.10583 -0.582084,-0.50271 -0.05292,-0.0529 -0.687917,-0.0265 h -0.740833 l -0.529167,0.0265 z"
       class="gk_12"
       id="path158"
       style="display:block;fill:none;stroke:#660000;stroke-width:0.302948;stroke-linejoin:round" />
    <path
       fill-rule="evenodd"
       d="m 76.928189,144.92377 c 0.132292,0 0.423333,-0.0265 0.661458,-0.0529 0.238125,0 0.582084,0 0.79375,0 0.211667,0 0.3175,0.0265 0.47625,0.0265 0.132292,0.0265 0.343959,0.0529 0.423334,0.0529 z"
       class="g1_12"
       id="path159"
       style="display:block;fill:#000000;fill-opacity:0;stroke-width:0.264583" />
    <path
       d="m 76.928189,144.92377 c 0.132292,0 0.423333,-0.0265 0.661458,-0.0529 0.238125,0 0.582084,0 0.79375,0 0.211667,0 0.3175,0.0265 0.47625,0.0265 0.132292,0.0265 0.343959,0.0529 0.423334,0.0529"
       class="gk_12"
       id="path160"
       style="display:block;fill:none;stroke:#660000;stroke-width:0.302948;stroke-linejoin:round" />
    <path
       fill-rule="evenodd"
       d="m 76.213814,145.21481 c 0,0 -0.05292,0.0265 -0.07937,0.0794 -0.02646,0.0794 -0.02646,0.18521 -0.05292,0.3175 -0.02646,0.15875 -0.07937,0.42334 -0.105833,0.60855 0,0.1852 0,0.34395 0,0.5027 0.02646,0.18521 0.02646,0.29105 0.07937,0.47625 0.02646,0.15875 0.132292,0.4498 0.15875,0.55563 z"
       class="g1_12"
       id="path161"
       style="display:block;fill:#000000;fill-opacity:0;stroke-width:0.264583" />
    <path
       d="m 76.213814,145.21481 c 0,0 -0.05292,0.0265 -0.07937,0.0794 -0.02646,0.0794 -0.02646,0.18521 -0.05292,0.3175 -0.02646,0.15875 -0.07937,0.42334 -0.105833,0.60855 0,0.1852 0,0.34395 0,0.5027 0.02646,0.18521 0.02646,0.29105 0.07937,0.47625 0.02646,0.15875 0.132292,0.4498 0.15875,0.55563"
       class="gk_12"
       id="path162"
       style="display:block;fill:none;stroke:#660000;stroke-width:0.302948;stroke-linejoin:round" />
    <path
       fill-rule="evenodd"
       d="m 80.023814,145.18835 c 0.02646,0 0.05292,0.0529 0.07937,0.13229 0.02646,0.0529 0.02646,0.10584 0.05292,0.21167 0.02646,0.10583 0.05292,0.26458 0.07937,0.42333 0.02646,0.13229 0.02646,0.29104 0.02646,0.44979 0,0.15875 -0.02646,0.39688 -0.02646,0.50271 0,0.13229 0.02646,0.0794 0,0.21167 -0.02646,0.15875 -0.15875,0.50271 -0.185209,0.60854 z"
       class="g1_12"
       id="path163"
       style="display:block;fill:#000000;fill-opacity:0;stroke-width:0.264583" />
    <path
       d="m 80.023814,145.18835 c 0.02646,0 0.05292,0.0529 0.07937,0.13229 0.02646,0.0529 0.02646,0.10584 0.05292,0.21167 0.02646,0.10583 0.05292,0.26458 0.07937,0.42333 0.02646,0.13229 0.02646,0.29104 0.02646,0.44979 0,0.15875 -0.02646,0.39688 -0.02646,0.50271 0,0.13229 0.02646,0.0794 0,0.21167 -0.02646,0.15875 -0.15875,0.50271 -0.185209,0.60854"
       class="gk_12"
       id="path164"
       style="display:block;fill:none;stroke:#660000;stroke-width:0.302948;stroke-linejoin:round" />
    <path
       fill-rule="evenodd"
       d="m 78.621522,147.62252 -1.481666,1.21708 h -0.211667 l -0.132292,-0.0265 -0.07938,-0.0529 -0.07937,-0.0794 -0.238125,-0.71437 v -0.0529 l 0.05292,-0.0529 0.370417,-0.13229 0.423333,-0.0529 0.449792,-0.0529 0.3175,-0.0265 0.343958,0.0265 z"
       class="gn_12"
       id="path165"
       style="display:block;fill:#fcfc90;stroke-width:0.264583" />
    <path
       fill-rule="evenodd"
       d="m 79.838606,170.4296 v 0 c 0,-0.0529 0.05292,-0.0794 0.07937,-0.0794 h 0.370416 q 0.02646,0 0.05292,0.0265 c 0.02646,0 0.02646,0.0265 0.02646,0.0529 v 1.42875 c 0,0.0529 -0.02646,0.0794 -0.07937,0.0794 h -0.370416 c -0.02646,0 -0.07937,-0.0264 -0.07937,-0.0794 z"
       class="gg_12"
       id="path166"
       style="display:block;fill:#000000;stroke-width:0.264583" />
    <path
       fill-rule="evenodd"
       d="m 84.548189,170.4296 v 0 c 0,-0.0529 0.02646,-0.0794 0.07937,-0.0794 h 0.343958 c 0.02646,0 0.05292,0 0.07937,0.0265 0,0 0.02646,0.0265 0.02646,0.0529 v 1.42875 c 0,0.0529 -0.05292,0.0794 -0.105833,0.0794 h -0.343958 c -0.05292,0 -0.07937,-0.0264 -0.07937,-0.0794 z"
       class="gg_12"
       id="path167"
       style="display:block;fill:#000000;stroke-width:0.264583" />
    <path
       fill-rule="evenodd"
       d="m 79.838606,176.27689 v 0 c 0,-0.0265 0.05292,-0.0794 0.07937,-0.0794 h 0.370416 c 0.02646,0 0.02646,0.0264 0.05292,0.0264 0.02646,0.0265 0.02646,0.0529 0.02646,0.0529 v 1.42875 c 0,0.0529 -0.02646,0.10583 -0.07937,0.10583 h -0.370416 c -0.02646,0 -0.07937,-0.0529 -0.07937,-0.10583 z"
       class="gg_12"
       id="path168"
       style="display:block;fill:#000000;stroke-width:0.264583" />
    <path
       fill-rule="evenodd"
       d="m 84.548189,176.27689 v 0 c 0,-0.0265 0.02646,-0.0794 0.07937,-0.0794 h 0.343958 c 0.02646,0 0.05292,0.0264 0.07937,0.0264 0,0.0265 0.02646,0.0529 0.02646,0.0529 v 1.42875 c 0,0.0529 -0.05292,0.10583 -0.105833,0.10583 h -0.343958 c -0.05292,0 -0.07937,-0.0529 -0.07937,-0.10583 z"
       class="gg_12"
       id="path169"
       style="display:block;fill:#000000;stroke-width:0.264583" />
    <path
       fill-rule="evenodd"
       d="m 80.023814,170.21793 v 0 c 0,-0.74083 0.608542,-1.34937 1.349375,-1.34937 h 2.2225 c 0.343958,0 0.687916,0.13229 0.9525,0.39687 0.264583,0.26459 0.396875,0.60854 0.396875,0.9525 v 7.67292 c 0,0.74083 -0.608542,1.34937 -1.349375,1.34937 h -2.2225 c -0.740833,0 -1.349375,-0.60854 -1.349375,-1.34937 z"
       class="go_12"
       id="path170"
       style="display:block;fill:#3d85c6;stroke-width:0.264583" />
    <path
       fill-rule="evenodd"
       d="m 82.008189,168.78918 v 0 c 0,0 0.02646,-0.0265 0.02646,-0.0265 h 0.899583 q 0,0.0265 0,0.0265 v 0.15875 c 0,0.0265 -0.02646,0.0265 -0.02646,0.0265 h -0.873125 c 0,0 -0.02646,0 -0.02646,-0.0265 z"
       class="gi_12"
       id="path171"
       style="display:block;fill:#efefef;stroke-width:0.264583" />
    <path
       fill-rule="evenodd"
       d="m 80.738189,169.29189 0.02646,0.29104 0.396875,-0.0794 0.07937,-0.0529 0.02646,-0.0265 0.02646,-0.0529 -0.02646,-0.0794 -0.02646,-0.0529 h -0.264583 z"
       class="g0_12"
       id="path172"
       style="display:block;fill:#ffffff;stroke-width:0.264583" />
    <path
       fill-rule="evenodd"
       d="m 84.20423,169.29189 -0.05292,0.29104 -0.370417,-0.0794 -0.07938,-0.0529 -0.05292,-0.0265 v -0.0529 l 0.02646,-0.0794 0.02646,-0.0529 h 0.264583 z"
       class="g0_12"
       id="path173"
       style="display:block;fill:#ffffff;stroke-width:0.264583" />
    <path
       fill-rule="evenodd"
       d="m 80.605897,172.14939 0.3175,1.03188 0.05292,0.0794 0.105833,0.0529 h 2.725208 l 0.07937,-0.0529 0.105834,-0.0794 0.3175,-0.87313 v -0.13229 l -0.07938,-0.10583 -0.370417,-0.10584 -0.555625,-0.13229 -0.449792,-0.0529 H 82.35214 l -0.343958,0.0265 h -0.211667 l -0.343958,0.0529 -0.291042,0.0794 -0.238125,0.0794 -0.211666,0.0794 z"
       class="gp_12"
       id="path174"
       style="display:block;fill:#9fc5e8;stroke-width:0.264583" />
    <path
       d="m 80.605897,172.14939 0.3175,1.03188 0.05292,0.0794 0.105833,0.0529 h 2.725208 l 0.07937,-0.0529 0.105834,-0.0794 0.3175,-0.87313 v -0.13229 l -0.07938,-0.10583 -0.370417,-0.10584 -0.555625,-0.13229 -0.449792,-0.0529 H 82.35214 l -0.343958,0.0265 h -0.211667 l -0.343958,0.0529 -0.291042,0.0794 -0.238125,0.0794 -0.211666,0.0794 z"
       class="gq_12"
       id="path175"
       style="display:block;fill:none;stroke:#073763;stroke-width:0.302948;stroke-linejoin:round" />
    <path
       fill-rule="evenodd"
       d="m 80.314856,172.51981 v 5.15937 l 0.02646,0.0794 0.105833,0.0529 0.370417,-0.34395 0.105833,-0.21167 0.07937,-0.18521 -0.05292,-3.01625 -0.05292,-0.23812 -0.132292,-0.39688 -0.15875,-0.39687 z"
       class="gp_12"
       id="path176"
       style="display:block;fill:#9fc5e8;stroke-width:0.264583" />
    <path
       d="m 80.314856,172.51981 v 5.15937 l 0.02646,0.0794 0.105833,0.0529 0.370417,-0.34395 0.105833,-0.21167 0.07937,-0.18521 -0.05292,-3.01625 -0.05292,-0.23812 -0.132292,-0.39688 -0.15875,-0.39687 z"
       class="gq_12"
       id="path177"
       style="display:block;fill:none;stroke:#073763;stroke-width:0.302948;stroke-linejoin:round" />
    <path
       fill-rule="evenodd"
       d="m 84.68048,172.57272 v 5.15938 l -0.02646,0.0794 -0.07937,0.0529 -0.396875,-0.34396 -0.105833,-0.21166 -0.07937,-0.18521 0.07937,-3.01625 0.02646,-0.21167 0.132292,-0.39687 0.15875,-0.39688 z"
       class="gp_12"
       id="path178"
       style="display:block;fill:#9fc5e8;stroke-width:0.264583" />
    <path
       d="m 84.68048,172.57272 v 5.15938 l -0.02646,0.0794 -0.07937,0.0529 -0.396875,-0.34396 -0.105833,-0.21166 -0.07937,-0.18521 0.07937,-3.01625 0.02646,-0.21167 0.132292,-0.39687 0.15875,-0.39688 z"
       class="gq_12"
       id="path179"
       style="display:block;fill:none;stroke:#073763;stroke-width:0.302948;stroke-linejoin:round" />
    <path
       fill-rule="evenodd"
       d="m 80.314856,172.46689 -0.105834,-0.0529 -0.132291,0.0265 -0.105834,0.0265 -0.132291,0.0529 -0.105834,0.0529 -0.02646,0.0794 v 0.0794 l 0.07937,0.0794 0.105833,0.0529 0.185209,0.0265 h 0.132291 l 0.105834,-0.0529 0.07937,-0.10584 0.02646,-0.0529 v -0.0794 l -0.05292,-0.0794 z"
       class="gr_12"
       id="path180"
       style="display:block;fill:#0b5394;stroke-width:0.264583" />
    <path
       fill-rule="evenodd"
       d="m 84.654022,172.46689 0.07938,-0.0529 0.132292,0.0265 0.132291,0.0265 0.132292,0.0529 0.07937,0.0529 0.02646,0.0794 v 0.0794 l -0.05292,0.0794 -0.132292,0.0529 -0.15875,0.0265 h -0.13229 l -0.105833,-0.0529 -0.07937,-0.10584 -0.02646,-0.0529 v -0.0794 l 0.02646,-0.0794 z"
       class="gr_12"
       id="path181"
       style="display:block;fill:#0b5394;stroke-width:0.264583" />
    <path
       fill-rule="evenodd"
       d="m 82.008189,179.13439 v 0 c 0,-0.0265 0.02646,-0.0529 0.02646,-0.0529 h 0.873125 l 0.02646,0.0265 v 0.15875 c 0,0.0265 -0.02646,0.0529 -0.02646,0.0529 h -0.873125 c 0,0 -0.02646,-0.0265 -0.02646,-0.0529 z"
       class="gi_12"
       id="path182"
       style="display:block;fill:#efefef;stroke-width:0.264583" />
    <path
       fill-rule="evenodd"
       d="m 80.738189,179.29314 0.02646,-0.3175 0.396875,0.10583 0.07937,0.0265 0.02646,0.0529 0.02646,0.0529 -0.02646,0.0794 -0.02646,0.0529 h -0.264583 z"
       class="gr_12"
       id="path183"
       style="display:block;fill:#0b5394;stroke-width:0.264583" />
    <path
       fill-rule="evenodd"
       d="m 84.20423,179.29314 -0.05292,-0.3175 -0.370417,0.10583 -0.07938,0.0265 -0.05292,0.0529 v 0.0529 l 0.02646,0.0794 0.02646,0.0529 h 0.264583 z"
       class="gr_12"
       id="path184"
       style="display:block;fill:#0b5394;stroke-width:0.264583" />
    <path
       fill-rule="evenodd"
       d="m 81.240897,177.59981 -0.105833,0.0265 -0.635,0.52916 -0.05292,0.13229 0.02646,0.10584 0.185208,0.13229 0.264583,0.10583 0.370417,0.10584 0.396875,0.0529 0.396875,0.0265 h 0.449791 l 0.423334,-0.0265 0.449791,-0.0265 0.47625,-0.0794 0.3175,-0.10583 0.238125,-0.18521 0.05292,-0.10584 -0.07937,-0.13229 -0.582083,-0.50271 -0.05292,-0.0264 -0.687917,-0.0265 h -1.269999 z"
       class="gp_12"
       id="path185"
       style="display:block;fill:#9fc5e8;stroke-width:0.264583" />
    <path
       d="m 81.240897,177.59981 -0.105833,0.0265 -0.635,0.52916 -0.05292,0.13229 0.02646,0.10584 0.185208,0.13229 0.264583,0.10583 0.370417,0.10584 0.396875,0.0529 0.396875,0.0265 h 0.449791 l 0.423334,-0.0265 0.449791,-0.0265 0.47625,-0.0794 0.3175,-0.10583 0.238125,-0.18521 0.05292,-0.10584 -0.07937,-0.13229 -0.582083,-0.50271 -0.05292,-0.0264 -0.687917,-0.0265 h -1.269999 z"
       class="gq_12"
       id="path186"
       style="display:block;fill:none;stroke:#073763;stroke-width:0.302948;stroke-linejoin:round" />
    <path
       fill-rule="evenodd"
       d="m 81.267356,169.31835 c 0.105833,0 0.423333,-0.0529 0.661458,-0.0529 0.238125,-0.0265 0.582083,-0.0265 0.79375,0 0.211666,0 0.3175,0 0.47625,0.0265 0.132291,0 0.343958,0.0265 0.423333,0.0265 z"
       class="g1_12"
       id="path187"
       style="display:block;fill:#000000;fill-opacity:0;stroke-width:0.264583" />
    <path
       d="m 81.267356,169.31835 c 0.105833,0 0.423333,-0.0529 0.661458,-0.0529 0.238125,-0.0265 0.582083,-0.0265 0.79375,0 0.211666,0 0.3175,0 0.47625,0.0265 0.132291,0 0.343958,0.0265 0.423333,0.0265"
       class="gq_12"
       id="path188"
       style="display:block;fill:none;stroke:#073763;stroke-width:0.302948;stroke-linejoin:round" />
    <path
       fill-rule="evenodd"
       d="m 80.552981,169.58293 c 0,0.0265 -0.05292,0.0529 -0.07937,0.10584 -0.02646,0.0794 -0.02646,0.15875 -0.05292,0.3175 -0.02646,0.15875 -0.07937,0.42333 -0.105833,0.60854 0,0.18521 0,0.34396 0,0.50271 0.02646,0.15875 0.02646,0.29104 0.07937,0.47625 0.02646,0.15875 0.132291,0.44979 0.15875,0.55562 z"
       class="g1_12"
       id="path189"
       style="display:block;fill:#000000;fill-opacity:0;stroke-width:0.264583" />
    <path
       d="m 80.552981,169.58293 c 0,0.0265 -0.05292,0.0529 -0.07937,0.10584 -0.02646,0.0794 -0.02646,0.15875 -0.05292,0.3175 -0.02646,0.15875 -0.07937,0.42333 -0.105833,0.60854 0,0.18521 0,0.34396 0,0.50271 0.02646,0.15875 0.02646,0.29104 0.07937,0.47625 0.02646,0.15875 0.132291,0.44979 0.15875,0.55562"
       class="gq_12"
       id="path190"
       style="display:block;fill:none;stroke:#073763;stroke-width:0.302948;stroke-linejoin:round" />
    <path
       fill-rule="evenodd"
       d="m 84.36298,169.55647 c 0,0.0265 0.05292,0.0794 0.07937,0.1323 0.02646,0.0794 0.02646,0.13229 0.05292,0.23812 0.02646,0.10583 0.05292,0.26458 0.07937,0.42333 0,0.1323 0.02646,0.29105 0.02646,0.4498 0,0.15875 -0.02646,0.37041 -0.02646,0.5027 0,0.1323 0.02646,0.0794 0,0.21167 -0.02646,0.13229 -0.15875,0.50271 -0.185208,0.60854 z"
       class="g1_12"
       id="path191"
       style="display:block;fill:#000000;fill-opacity:0;stroke-width:0.264583" />
    <path
       d="m 84.36298,169.55647 c 0,0.0265 0.05292,0.0794 0.07937,0.1323 0.02646,0.0794 0.02646,0.13229 0.05292,0.23812 0.02646,0.10583 0.05292,0.26458 0.07937,0.42333 0,0.1323 0.02646,0.29105 0.02646,0.4498 0,0.15875 -0.02646,0.37041 -0.02646,0.5027 0,0.1323 0.02646,0.0794 0,0.21167 -0.02646,0.13229 -0.15875,0.50271 -0.185208,0.60854"
       class="gq_12"
       id="path192"
       style="display:block;fill:none;stroke:#073763;stroke-width:0.302948;stroke-linejoin:round" />
    <path
       fill-rule="evenodd"
       d="m 82.960689,172.04356 -1.481667,1.05833 h -0.211666 l -0.132292,-0.0265 -0.07937,-0.0529 -0.07937,-0.0794 -0.238125,-0.60854 v -0.0529 l 0.05292,-0.0529 0.370416,-0.10584 0.423334,-0.0529 0.449791,-0.0529 h 0.661458 z"
       class="gs_12"
       id="path193"
       style="display:block;fill:#cfe2f3;stroke-width:0.264583" />
    <path
       fill-rule="evenodd"
       d="m 85.209647,146.08793 v 0 c 0,-0.0529 0.02646,-0.0794 0.07937,-0.0794 h 0.370417 c 0,0 0.02646,0 0.05292,0.0265 0.02646,0 0.02646,0.0265 0.02646,0.0529 v 1.42875 c 0,0.0529 -0.05292,0.0794 -0.07937,0.0794 h -0.370417 c -0.05292,0 -0.07937,-0.0265 -0.07937,-0.0794 z"
       class="gg_12"
       id="path194"
       style="display:block;fill:#000000;stroke-width:0.264583" />
    <path
       fill-rule="evenodd"
       d="m 89.91923,146.08793 v 0 c 0,-0.0529 0.02646,-0.0794 0.07937,-0.0794 h 0.343959 c 0.02646,0 0.05292,0 0.07937,0.0265 0,0 0.02646,0.0265 0.02646,0.0529 v 1.42875 c 0,0.0529 -0.05292,0.0794 -0.105833,0.0794 h -0.343951 c -0.05292,0 -0.07937,-0.0265 -0.07937,-0.0794 z"
       class="gg_12"
       id="path195"
       style="display:block;fill:#000000;stroke-width:0.264583" />
    <path
       fill-rule="evenodd"
       d="m 85.209647,151.96168 v 0 c 0,-0.0529 0.02646,-0.10583 0.07937,-0.10583 h 0.370417 c 0,0 0.02646,0.0265 0.05292,0.0265 0.02646,0.0265 0.02646,0.0529 0.02646,0.0794 v 1.40229 c 0,0.0529 -0.05292,0.10584 -0.07937,0.10584 h -0.370417 c -0.05292,0 -0.07937,-0.0529 -0.07937,-0.10584 z"
       class="gg_12"
       id="path196"
       style="display:block;fill:#000000;stroke-width:0.264583" />
    <path
       fill-rule="evenodd"
       d="m 89.91923,151.96168 v 0 c 0,-0.0529 0.02646,-0.10583 0.07937,-0.10583 h 0.343959 c 0.02646,0 0.05292,0.0265 0.07937,0.0265 0,0.0265 0.02646,0.0529 0.02646,0.0794 v 1.40229 c 0,0.0529 -0.05292,0.10584 -0.105833,0.10584 h -0.343951 c -0.05292,0 -0.07937,-0.0529 -0.07937,-0.10584 z"
       class="gg_12"
       id="path197"
       style="display:block;fill:#000000;stroke-width:0.264583" />
    <path
       fill-rule="evenodd"
       d="m 85.394855,145.87627 v 0 c 0,-0.74084 0.608542,-1.34938 1.349375,-1.34938 h 2.2225 c 0.343959,0 0.687917,0.13229 0.9525,0.39688 0.264584,0.26458 0.396875,0.60854 0.396875,0.9525 v 7.67291 c 0,0.74084 -0.608541,1.34938 -1.349375,1.34938 h -2.2225 c -0.740833,0 -1.349375,-0.60854 -1.349375,-1.34938 z"
       class="go_12"
       id="path198"
       style="display:block;fill:#3d85c6;stroke-width:0.264583" />
    <path
       fill-rule="evenodd"
       d="m 87.37923,144.44752 v 0 c 0,0 0,-0.0265 0.02646,-0.0265 h 0.899583 q 0,0.0265 0,0.0265 v 0.15875 c 0,0.0265 -0.02646,0.0265 -0.02646,0.0265 h -0.873125 q -0.02646,0 -0.02646,-0.0265 z"
       class="gi_12"
       id="path199"
       style="display:block;fill:#efefef;stroke-width:0.264583" />
    <path
       fill-rule="evenodd"
       d="m 86.082772,144.95023 0.05292,0.29104 0.370416,-0.0794 0.105834,-0.0529 0.02646,-0.0265 0.02646,-0.0529 -0.02646,-0.0794 -0.02646,-0.0529 h -0.264587 z"
       class="g0_12"
       id="path200"
       style="display:block;fill:#ffffff;stroke-width:0.264583" />
    <path
       fill-rule="evenodd"
       d="m 89.575272,144.95023 -0.05292,0.29104 -0.370416,-0.0794 -0.07937,-0.0529 -0.05292,-0.0265 v -0.0529 l 0.02646,-0.0794 0.02646,-0.0529 h 0.264583 z"
       class="g0_12"
       id="path201"
       style="display:block;fill:#ffffff;stroke-width:0.264583" />
    <path
       fill-rule="evenodd"
       d="m 85.976939,147.80773 0.3175,1.03187 0.05292,0.0794 0.105834,0.0529 h 2.725208 l 0.07937,-0.0529 0.07937,-0.0794 0.343958,-0.87312 v -0.1323 l -0.07937,-0.10583 -0.370416,-0.10583 -0.555625,-0.13229 -0.449792,-0.0529 h -0.502708 l -0.343959,0.0265 h -0.238124 l -0.3175,0.0529 -0.291041,0.0794 -0.238125,0.0794 -0.211667,0.0794 z"
       class="gp_12"
       id="path202"
       style="display:block;fill:#9fc5e8;stroke-width:0.264583" />
    <path
       d="m 85.976939,147.80773 0.3175,1.03187 0.05292,0.0794 0.105834,0.0529 h 2.725208 l 0.07937,-0.0529 0.07937,-0.0794 0.343958,-0.87312 v -0.1323 l -0.07937,-0.10583 -0.370416,-0.10583 -0.555625,-0.13229 -0.449792,-0.0529 h -0.502708 l -0.343959,0.0265 h -0.238124 l -0.3175,0.0529 -0.291041,0.0794 -0.238125,0.0794 -0.211667,0.0794 z"
       class="gq_12"
       id="path203"
       style="display:block;fill:none;stroke:#073763;stroke-width:0.302948;stroke-linejoin:round" />
    <path
       fill-rule="evenodd"
       d="m 85.685897,148.17814 v 5.15938 l 0.02646,0.0794 0.07937,0.0529 0.396875,-0.34396 0.105834,-0.21167 0.07937,-0.18521 -0.07937,-3.01625 -0.02646,-0.23812 -0.132291,-0.39687 -0.15875,-0.39688 z"
       class="gp_12"
       id="path204"
       style="display:block;fill:#9fc5e8;stroke-width:0.264583" />
    <path
       d="m 85.685897,148.17814 v 5.15938 l 0.02646,0.0794 0.07937,0.0529 0.396875,-0.34396 0.105834,-0.21167 0.07937,-0.18521 -0.07937,-3.01625 -0.02646,-0.23812 -0.132291,-0.39687 -0.15875,-0.39688 z"
       class="gq_12"
       id="path205"
       style="display:block;fill:none;stroke:#073763;stroke-width:0.302948;stroke-linejoin:round" />
    <path
       fill-rule="evenodd"
       d="m 90.051522,148.23106 v 5.15937 l -0.02646,0.0794 -0.07937,0.0529 -0.396875,-0.34395 -0.105834,-0.21167 -0.07937,-0.18521 0.05292,-3.01625 0.05292,-0.21167 0.132291,-0.39687 0.15875,-0.39687 z"
       class="gp_12"
       id="path206"
       style="display:block;fill:#9fc5e8;stroke-width:0.264583" />
    <path
       d="m 90.051522,148.23106 v 5.15937 l -0.02646,0.0794 -0.07937,0.0529 -0.396875,-0.34395 -0.105834,-0.21167 -0.07937,-0.18521 0.05292,-3.01625 0.05292,-0.21167 0.132291,-0.39687 0.15875,-0.39687 z"
       class="gq_12"
       id="path207"
       style="display:block;fill:none;stroke:#073763;stroke-width:0.302948;stroke-linejoin:round" />
    <path
       fill-rule="evenodd"
       d="m 85.685897,148.12523 -0.105833,-0.0265 h -0.132292 l -0.105833,0.0265 -0.15875,0.0529 -0.07937,0.0529 -0.02646,0.0794 v 0.0794 l 0.07938,0.0794 0.105834,0.0529 0.185208,0.0265 h 0.132292 l 0.105833,-0.0529 0.05292,-0.10583 0.05292,-0.0529 -0.02646,-0.0794 -0.02646,-0.0794 z"
       class="gr_12"
       id="path208"
       style="display:block;fill:#0b5394;stroke-width:0.264583" />
    <path
       fill-rule="evenodd"
       d="m 89.998605,148.12523 0.105834,-0.0265 h 0.132291 l 0.105834,0.0265 0.15875,0.0529 0.07937,0.0529 0.02646,0.0794 v 0.0794 l -0.07937,0.0794 -0.105833,0.0529 -0.15875,0.0265 h -0.15875 l -0.07937,-0.0529 -0.07937,-0.10583 -0.02646,-0.0529 v -0.0794 l 0.02646,-0.0794 z"
       class="gr_12"
       id="path209"
       style="display:block;fill:#0b5394;stroke-width:0.264583" />
    <path
       fill-rule="evenodd"
       d="m 87.37923,154.79272 v 0 c 0,-0.0265 0,-0.0529 0.02646,-0.0529 h 0.873125 l 0.02646,0.0265 v 0.15875 c 0,0.0265 -0.02646,0.0529 -0.02646,0.0529 H 87.40569 c -0.02646,0 -0.02646,-0.0265 -0.02646,-0.0529 z"
       class="gi_12"
       id="path210"
       style="display:block;fill:#efefef;stroke-width:0.264583" />
    <path
       fill-rule="evenodd"
       d="m 86.082772,154.95147 0.05292,-0.3175 0.370416,0.10584 0.105834,0.0265 0.02646,0.0529 0.02646,0.0529 -0.02646,0.0794 -0.02646,0.0529 h -0.264587 z"
       class="gr_12"
       id="path211"
       style="display:block;fill:#0b5394;stroke-width:0.264583" />
    <path
       fill-rule="evenodd"
       d="m 89.575272,154.95147 -0.05292,-0.3175 -0.370416,0.10584 -0.07937,0.0265 -0.05292,0.0529 v 0.0529 l 0.02646,0.0794 0.02646,0.0529 h 0.264583 z"
       class="gr_12"
       id="path212"
       style="display:block;fill:#0b5394;stroke-width:0.264583" />
    <path
       fill-rule="evenodd"
       d="m 86.611939,153.25814 -0.105834,0.0265 -0.635,0.52917 -0.05292,0.13229 v 0.10583 l 0.211666,0.13229 0.264584,0.10584 0.370416,0.10583 0.396875,0.0529 0.396875,0.0264 h 0.423334 l 0.449791,-0.0264 0.449792,-0.0265 0.47625,-0.0794 0.3175,-0.10583 0.238125,-0.18521 0.05292,-0.10583 -0.07937,-0.13229 -0.582084,-0.50271 -0.05292,-0.0265 -0.687917,-0.0265 h -1.27 z"
       class="gp_12"
       id="path213"
       style="display:block;fill:#9fc5e8;stroke-width:0.264583" />
    <path
       d="m 86.611939,153.25814 -0.105834,0.0265 -0.635,0.52917 -0.05292,0.13229 v 0.10583 l 0.211666,0.13229 0.264584,0.10584 0.370416,0.10583 0.396875,0.0529 0.396875,0.0264 h 0.423334 l 0.449791,-0.0264 0.449792,-0.0265 0.47625,-0.0794 0.3175,-0.10583 0.238125,-0.18521 0.05292,-0.10583 -0.07937,-0.13229 -0.582084,-0.50271 -0.05292,-0.0265 -0.687917,-0.0265 h -1.27 z"
       class="gq_12"
       id="path214"
       style="display:block;fill:none;stroke:#073763;stroke-width:0.302948;stroke-linejoin:round" />
    <path
       fill-rule="evenodd"
       d="m 86.638397,144.97668 c 0.105833,0 0.423333,-0.0529 0.661458,-0.0529 0.238125,-0.0265 0.582084,-0.0265 0.79375,0 0.211667,0 0.3175,0 0.47625,0.0265 0.132292,0 0.343959,0.0264 0.423334,0.0264 z"
       class="g1_12"
       id="path215"
       style="display:block;fill:#000000;fill-opacity:0;stroke-width:0.264583" />
    <path
       d="m 86.638397,144.97668 c 0.105833,0 0.423333,-0.0529 0.661458,-0.0529 0.238125,-0.0265 0.582084,-0.0265 0.79375,0 0.211667,0 0.3175,0 0.47625,0.0265 0.132292,0 0.343959,0.0264 0.423334,0.0264"
       class="gq_12"
       id="path216"
       style="display:block;fill:none;stroke:#073763;stroke-width:0.302948;stroke-linejoin:round" />
    <path
       fill-rule="evenodd"
       d="m 85.924022,145.24127 c -0.02646,0.0265 -0.05292,0.0529 -0.07937,0.10583 -0.02646,0.0794 -0.02646,0.15875 -0.05292,0.3175 -0.02646,0.15875 -0.07937,0.42333 -0.105833,0.60854 0,0.18521 0,0.34396 0,0.50271 0,0.15875 0.02646,0.29104 0.05292,0.47625 0.05292,0.15875 0.15875,0.44979 0.185208,0.55563 z"
       class="g1_12"
       id="path217"
       style="display:block;fill:#000000;fill-opacity:0;stroke-width:0.264583" />
    <path
       d="m 85.924022,145.24127 c -0.02646,0.0265 -0.05292,0.0529 -0.07937,0.10583 -0.02646,0.0794 -0.02646,0.15875 -0.05292,0.3175 -0.02646,0.15875 -0.07937,0.42333 -0.105833,0.60854 0,0.18521 0,0.34396 0,0.50271 0,0.15875 0.02646,0.29104 0.05292,0.47625 0.05292,0.15875 0.15875,0.44979 0.185208,0.55563"
       class="gq_12"
       id="path218"
       style="display:block;fill:none;stroke:#073763;stroke-width:0.302948;stroke-linejoin:round" />
    <path
       fill-rule="evenodd"
       d="m 89.734022,145.21481 c 0,0.0265 0.05292,0.0794 0.07937,0.13229 0,0.0794 0.02646,0.13229 0.05292,0.23813 0,0.10583 0.05292,0.26458 0.07937,0.42333 0,0.13229 0.02646,0.29104 0.02646,0.44979 0,0.15875 -0.02646,0.37042 -0.02646,0.50271 0,0.13229 0.02646,0.0794 0,0.21167 -0.05292,0.13229 -0.15875,0.5027 -0.185209,0.60854 z"
       class="g1_12"
       id="path219"
       style="display:block;fill:#000000;fill-opacity:0;stroke-width:0.264583" />
    <path
       d="m 89.734022,145.21481 c 0,0.0265 0.05292,0.0794 0.07937,0.13229 0,0.0794 0.02646,0.13229 0.05292,0.23813 0,0.10583 0.05292,0.26458 0.07937,0.42333 0,0.13229 0.02646,0.29104 0.02646,0.44979 0,0.15875 -0.02646,0.37042 -0.02646,0.50271 0,0.13229 0.02646,0.0794 0,0.21167 -0.05292,0.13229 -0.15875,0.5027 -0.185209,0.60854"
       class="gq_12"
       id="path220"
       style="display:block;fill:none;stroke:#073763;stroke-width:0.302948;stroke-linejoin:round" />
    <path
       fill-rule="evenodd"
       d="m 88.305272,147.70189 -1.455208,1.05834 h -0.211667 l -0.132292,-0.0265 -0.07937,-0.0529 -0.07937,-0.0794 -0.264583,-0.60855 0.02646,-0.0529 0.05292,-0.0529 0.370417,-0.10583 0.423333,-0.0529 0.449792,-0.0529 h 0.661458 z"
       class="gs_12"
       id="path221"
       style="display:block;fill:#cfe2f3;stroke-width:0.264583" />
  </g>
</svg>
