<?xml version="1.0" encoding="UTF-8" standalone="no"?>
<!-- Created with Inkscape (http://www.inkscape.org/) -->

<svg
   width="34.521999mm"
   height="58.943001mm"
   viewBox="0 0 34.521999 58.943001"
   version="1.1"
   id="svg1"
   inkscape:version="1.3.2 (1:1.3.2+202311252150+091e20ef0f)"
   sodipodi:docname="vm-01-07_1.svg"
   xmlns:inkscape="http://www.inkscape.org/namespaces/inkscape"
   xmlns:sodipodi="http://sodipodi.sourceforge.net/DTD/sodipodi-0.dtd"
   xmlns="http://www.w3.org/2000/svg"
   xmlns:svg="http://www.w3.org/2000/svg">
  <sodipodi:namedview
     id="namedview1"
     pagecolor="#ffffff"
     bordercolor="#000000"
     borderopacity="0.25"
     inkscape:showpageshadow="2"
     inkscape:pageopacity="0.0"
     inkscape:pagecheckerboard="0"
     inkscape:deskcolor="#d1d1d1"
     inkscape:document-units="mm"
     inkscape:zoom="1.7131103"
     inkscape:cx="53.411623"
     inkscape:cy="100.11031"
     inkscape:window-width="3840"
     inkscape:window-height="2123"
     inkscape:window-x="0"
     inkscape:window-y="0"
     inkscape:window-maximized="1"
     inkscape:current-layer="layer1" />
  <defs
     id="defs1" />
  <g
     inkscape:label="Layer 1"
     inkscape:groupmode="layer"
     id="layer1"
     transform="translate(-90.752083,-121.97292)">
    <path
       fill-rule="evenodd"
       d="M 94.033442,125.01528 H 122.55553 V 177.9584 H 94.033442 Z"
       class="g1_15"
       id="path44"
       style="display:block;fill:#666666;stroke-width:0.264583" />
    <path
       fill-rule="evenodd"
       d="M 118.66615,125.17403 V 177.9584 Z"
       class="g2_15"
       id="path45"
       style="display:block;fill:#000000;fill-opacity:0;stroke-width:0.264583" />
    <path
       d="M 118.66615,125.17403 V 177.9584"
       class="g4_15"
       id="path46"
       style="display:block;fill:none;stroke:#ffffff;stroke-width:2.42517;stroke-linejoin:round" />
    <path
       fill-rule="evenodd"
       d="M 98.478442,125.17403 V 177.9584 Z"
       class="g2_15"
       id="path47"
       style="display:block;fill:#000000;fill-opacity:0;stroke-width:0.264583" />
    <path
       d="M 98.478442,125.17403 V 177.9584"
       class="g4_15"
       id="path48"
       style="display:block;fill:none;stroke:#ffffff;stroke-width:2.42517;stroke-linejoin:round" />
    <path
       fill-rule="evenodd"
       d="M 108.87657,157.29444 V 140.01715 Z"
       class="g2_15"
       id="path49"
       style="display:block;fill:#000000;fill-opacity:0;stroke-width:0.264583" />
    <path
       d="M 108.87657,157.29444 V 147.2932"
       class="g7_15"
       id="path50"
       style="display:block;fill:none;stroke:#ff9900;stroke-width:1.21259;stroke-linejoin:round" />
    <path
       fill-rule="evenodd"
       d="m 110.8874,147.2932 -2.01083,-5.50334 -1.98438,5.50334 z"
       class="g8_15"
       id="path51"
       style="display:block;fill:#ff9900;stroke:#ff9900;stroke-width:1.21259;stroke-miterlimit:10" />
    <path
       fill-rule="evenodd"
       d="m 104.82844,163.3534 v 0 c 0,-0.0794 0.0529,-0.13229 0.13229,-0.13229 h 0.55563 c 0.0265,0 0.0529,0.0265 0.0794,0.0529 0.0265,0.0265 0.0529,0.0529 0.0529,0.0794 v 2.19604 c 0,0.0794 -0.0794,0.15875 -0.13229,0.15875 h -0.55563 c -0.0794,0 -0.13229,-0.0794 -0.13229,-0.15875 z"
       class="g9_15"
       id="path52"
       style="display:block;fill:#000000;stroke-width:0.264583" />
    <path
       fill-rule="evenodd"
       d="m 112.07803,163.3534 v 0 c 0,-0.0794 0.0529,-0.13229 0.13229,-0.13229 h 0.52916 c 0.0529,0 0.0794,0.0265 0.10584,0.0529 0.0265,0.0265 0.0529,0.0529 0.0529,0.0794 v 2.19604 c 0,0.0794 -0.0794,0.15875 -0.15875,0.15875 h -0.52916 c -0.0794,0 -0.13229,-0.0794 -0.13229,-0.15875 z"
       class="g9_15"
       id="path53"
       style="display:block;fill:#000000;stroke-width:0.264583" />
    <path
       fill-rule="evenodd"
       d="m 104.82844,172.37569 v 0 c 0,-0.0529 0.0529,-0.13229 0.13229,-0.13229 h 0.55563 c 0.0265,0 0.0529,0.0265 0.0794,0.0529 0.0265,0.0265 0.0529,0.0529 0.0529,0.0794 v 2.2225 c 0,0.0529 -0.0794,0.1323 -0.13229,0.1323 h -0.55563 c -0.0794,0 -0.13229,-0.0794 -0.13229,-0.1323 z"
       class="g9_15"
       id="path54"
       style="display:block;fill:#000000;stroke-width:0.264583" />
    <path
       fill-rule="evenodd"
       d="m 112.07803,172.37569 v 0 c 0,-0.0529 0.0529,-0.13229 0.13229,-0.13229 h 0.52916 c 0.0529,0 0.0794,0.0265 0.10584,0.0529 0.0265,0.0265 0.0529,0.0529 0.0529,0.0794 v 2.2225 c 0,0.0529 -0.0794,0.1323 -0.15875,0.1323 h -0.52916 c -0.0794,0 -0.13229,-0.0794 -0.13229,-0.1323 z"
       class="g9_15"
       id="path55"
       style="display:block;fill:#000000;stroke-width:0.264583" />
    <path
       fill-rule="evenodd"
       d="m 105.11948,163.0359 v 0 c 0,-1.13771 0.92605,-2.09021 2.09021,-2.09021 h 3.38667 c 0.55562,0 1.08479,0.23813 1.48167,0.635 0.39687,0.37042 0.60854,0.89959 0.60854,1.45521 v 11.80042 c 0,1.16417 -0.92604,2.11667 -2.09021,2.11667 h -3.38667 c -1.16416,0 -2.09021,-0.9525 -2.09021,-2.11667 z"
       class="ga_15"
       id="path56"
       style="display:block;fill:#3d85c6;stroke-width:0.264583" />
    <path
       fill-rule="evenodd"
       d="m 108.16219,160.83986 v 0 c 0,-0.0265 0.0265,-0.0529 0.0529,-0.0529 h 1.32292 q 0.0264,0 0.0529,0.0265 c 0,0 0,0.0265 0,0.0265 v 0.23813 c 0,0.0265 -0.0265,0.0529 -0.0529,0.0529 h -1.32292 c -0.0265,0 -0.0529,-0.0265 -0.0529,-0.0529 z"
       class="gb_15"
       id="path57"
       style="display:block;fill:#efefef;stroke-width:0.264583" />
    <path
       fill-rule="evenodd"
       d="m 106.20428,161.58069 0.0529,0.47625 0.58209,-0.13229 0.13229,-0.0529 0.0794,-0.0794 v -0.0794 l -0.0265,-0.10584 -0.0529,-0.0794 -0.13229,-0.0265 -0.26459,0.0265 z"
       class="g0_15"
       id="path58"
       style="display:block;fill:#ffffff;stroke-width:0.264583" />
    <path
       fill-rule="evenodd"
       d="m 111.57532,161.58069 -0.0794,0.47625 -0.58208,-0.13229 -0.13229,-0.0529 -0.0529,-0.0794 -0.0265,-0.0794 0.0265,-0.10584 0.0529,-0.0794 0.13229,-0.0265 0.26458,0.0265 z"
       class="g0_15"
       id="path59"
       style="display:block;fill:#ffffff;stroke-width:0.264583" />
    <path
       fill-rule="evenodd"
       d="m 105.99261,165.99924 0.50271,1.5875 0.0794,0.13229 0.15875,0.0794 h 4.20688 l 0.13229,-0.0529 0.13229,-0.1323 0.50271,-1.37583 v -0.18521 l -0.10583,-0.15875 -0.58209,-0.18521 -0.84666,-0.1852 -0.68792,-0.0794 h -0.79378 l -0.50271,0.0265 -0.37042,0.0265 -0.5027,0.0794 -0.4498,0.10584 -0.34395,0.10583 -0.34396,0.13229 z"
       class="gc_15"
       id="path60"
       style="display:block;fill:#9fc5e8;stroke-width:0.264583" />
    <path
       d="m 105.99261,165.99924 0.50271,1.5875 0.0794,0.13229 0.15875,0.0794 h 4.20688 l 0.13229,-0.0529 0.13229,-0.1323 0.50271,-1.37583 v -0.18521 l -0.10583,-0.15875 -0.58209,-0.18521 -0.84666,-0.1852 -0.68792,-0.0794 h -0.79378 l -0.50271,0.0265 -0.37042,0.0265 -0.5027,0.0794 -0.4498,0.10584 -0.34395,0.10583 -0.34396,0.13229 z"
       class="gd_15"
       id="path61"
       style="display:block;fill:none;stroke:#073763;stroke-width:0.302948;stroke-linejoin:round" />
    <path
       fill-rule="evenodd"
       d="m 105.54282,166.55486 v 7.96396 l 0.0529,0.13229 0.15875,0.0794 0.58209,-0.55563 0.18521,-0.3175 0.0794,-0.26458 -0.0794,-4.65667 -0.0529,-0.34396 -0.21167,-0.60854 -0.26458,-0.60854 z"
       class="gc_15"
       id="path62"
       style="display:block;fill:#9fc5e8;stroke-width:0.264583" />
    <path
       d="m 105.54282,166.55486 v 7.96396 l 0.0529,0.13229 0.15875,0.0794 0.58209,-0.55563 0.18521,-0.3175 0.0794,-0.26458 -0.0794,-4.65667 -0.0529,-0.34396 -0.21167,-0.60854 -0.26458,-0.60854 z"
       class="gd_15"
       id="path63"
       style="display:block;fill:none;stroke:#073763;stroke-width:0.302948;stroke-linejoin:round" />
    <path
       fill-rule="evenodd"
       d="m 112.28969,166.66069 v 7.9375 l -0.0265,0.15875 -0.15875,0.0529 -0.58208,-0.52917 -0.18521,-0.3175 -0.10583,-0.29104 0.10583,-4.65666 0.0529,-0.34396 0.21167,-0.60854 0.26458,-0.60855 z"
       class="gc_15"
       id="path64"
       style="display:block;fill:#9fc5e8;stroke-width:0.264583" />
    <path
       d="m 112.28969,166.66069 v 7.9375 l -0.0265,0.15875 -0.15875,0.0529 -0.58208,-0.52917 -0.18521,-0.3175 -0.10583,-0.29104 0.10583,-4.65666 0.0529,-0.34396 0.21167,-0.60854 0.26458,-0.60855 z"
       class="gd_15"
       id="path65"
       style="display:block;fill:none;stroke:#073763;stroke-width:0.302948;stroke-linejoin:round" />
    <path
       fill-rule="evenodd"
       d="m 105.54282,166.47549 -0.15875,-0.0265 h -0.18521 l -0.18521,0.0265 -0.21167,0.0794 -0.15875,0.13229 -0.0264,0.10584 v 0.13229 l 0.10583,0.0794 0.18521,0.0794 0.26458,0.0529 h 0.21167 l 0.15875,-0.0794 0.13229,-0.13229 0.0265,-0.10584 v -0.13229 l -0.0529,-0.10583 z"
       class="ge_15"
       id="path66"
       style="display:block;fill:#0b5394;stroke-width:0.264583" />
    <path
       fill-rule="evenodd"
       d="m 112.23678,166.47549 0.15875,-0.0265 h 0.1852 l 0.18521,0.0265 0.21167,0.0794 0.13229,0.13229 0.0529,0.10584 v 0.13229 l -0.13229,0.0794 -0.15875,0.0794 -0.26459,0.0529 h -0.21166 l -0.15875,-0.0794 -0.1323,-0.13229 -0.0264,-0.10584 v -0.13229 l 0.0529,-0.10583 z"
       class="ge_15"
       id="path67"
       style="display:block;fill:#0b5394;stroke-width:0.264583" />
    <path
       fill-rule="evenodd"
       d="m 108.16219,176.76778 v 0 c 0,-0.0529 0.0265,-0.0794 0.0529,-0.0794 h 1.32292 c 0.0264,0 0.0264,0.0265 0.0529,0.0265 0,0 0,0.0265 0,0.0529 v 0.21166 c 0,0.0265 -0.0265,0.0529 -0.0529,0.0529 h -1.32292 c -0.0265,0 -0.0529,-0.0265 -0.0529,-0.0529 z"
       class="gb_15"
       id="path68"
       style="display:block;fill:#efefef;stroke-width:0.264583" />
    <path
       fill-rule="evenodd"
       d="m 106.20428,177.0059 0.0529,-0.44979 0.58209,0.13229 0.13229,0.0529 0.0794,0.0794 v 0.0794 l -0.0265,0.10583 -0.0529,0.0794 -0.13229,0.0265 -0.26459,-0.0265 z"
       class="ge_15"
       id="path69"
       style="display:block;fill:#0b5394;stroke-width:0.264583" />
    <path
       fill-rule="evenodd"
       d="m 111.57532,177.0059 -0.0794,-0.44979 -0.58208,0.13229 -0.13229,0.0529 -0.0529,0.0794 -0.0265,0.0794 0.0265,0.10583 0.0529,0.0794 0.13229,0.0265 0.26458,-0.0265 z"
       class="ge_15"
       id="path70"
       style="display:block;fill:#0b5394;stroke-width:0.264583" />
    <path
       fill-rule="evenodd"
       d="m 106.99803,174.41299 -0.15875,0.0264 -1.00542,0.84667 -0.0794,0.18521 0.0265,0.15875 0.3175,0.21167 0.39688,0.15875 0.55562,0.13229 0.60854,0.0794 0.635,0.0794 h 0.66146 l 0.68792,-0.0529 0.68792,-0.0265 0.74083,-0.15875 0.50271,-0.15875 0.34396,-0.23812 0.0794,-0.21167 -0.10583,-0.18521 -0.92604,-0.76729 -0.0794,-0.0529 -1.03187,-0.0529 h -1.98438 z"
       class="gc_15"
       id="path71"
       style="display:block;fill:#9fc5e8;stroke-width:0.264583" />
    <path
       d="m 106.99803,174.41299 -0.15875,0.0264 -1.00542,0.84667 -0.0794,0.18521 0.0265,0.15875 0.3175,0.21167 0.39688,0.15875 0.55562,0.13229 0.60854,0.0794 0.635,0.0794 h 0.66146 l 0.68792,-0.0529 0.68792,-0.0265 0.74083,-0.15875 0.50271,-0.15875 0.34396,-0.23812 0.0794,-0.21167 -0.10583,-0.18521 -0.92604,-0.76729 -0.0794,-0.0529 -1.03187,-0.0529 h -1.98438 z"
       class="gd_15"
       id="path72"
       style="display:block;fill:none;stroke:#073763;stroke-width:0.302948;stroke-linejoin:round" />
    <path
       fill-rule="evenodd"
       d="m 107.05094,161.66007 c 0.15875,-0.0265 0.60854,-0.0794 0.97896,-0.10583 0.37042,0 0.89958,0 1.24354,0 0.3175,0 0.47625,0.0265 0.71438,0.0529 0.23812,0 0.55562,0.0529 0.66146,0.0529 z"
       class="g2_15"
       id="path73"
       style="display:block;fill:#000000;fill-opacity:0;stroke-width:0.264583" />
    <path
       d="m 107.05094,161.66007 c 0.15875,-0.0265 0.60854,-0.0794 0.97896,-0.10583 0.37042,0 0.89958,0 1.24354,0 0.3175,0 0.47625,0.0265 0.71438,0.0529 0.23812,0 0.55562,0.0529 0.66146,0.0529"
       class="gd_15"
       id="path74"
       style="display:block;fill:none;stroke:#073763;stroke-width:0.302948;stroke-linejoin:round" />
    <path
       fill-rule="evenodd"
       d="m 105.93969,162.0834 c -0.0265,0.0265 -0.10583,0.0265 -0.13229,0.13229 -0.0265,0.10584 -0.0529,0.26459 -0.0794,0.50271 -0.0529,0.21167 -0.1323,0.635 -0.15875,0.89959 -0.0265,0.29104 -0.0265,0.55562 0,0.8202 0,0.23813 0.0264,0.4498 0.10583,0.68792 0.0529,0.26458 0.18521,0.71438 0.23812,0.87313 z"
       class="g2_15"
       id="path75"
       style="display:block;fill:#000000;fill-opacity:0;stroke-width:0.264583" />
    <path
       d="m 105.93969,162.0834 c -0.0265,0.0265 -0.10583,0.0265 -0.13229,0.13229 -0.0265,0.10584 -0.0529,0.26459 -0.0794,0.50271 -0.0529,0.21167 -0.1323,0.635 -0.15875,0.89959 -0.0265,0.29104 -0.0265,0.55562 0,0.8202 0,0.23813 0.0264,0.4498 0.10583,0.68792 0.0529,0.26458 0.18521,0.71438 0.23812,0.87313"
       class="gd_15"
       id="path76"
       style="display:block;fill:none;stroke:#073763;stroke-width:0.302948;stroke-linejoin:round" />
    <path
       fill-rule="evenodd"
       d="m 111.78698,162.03049 c 0.0265,0.0264 0.10584,0.10583 0.1323,0.21166 0.0265,0.0794 0.0265,0.18521 0.0794,0.34396 0.0265,0.15875 0.0794,0.42333 0.10583,0.635 0.0265,0.23813 0.0529,0.47625 0.0529,0.71438 0,0.23812 -0.0265,0.58208 -0.0265,0.76729 -0.0265,0.18521 0.0265,0.13229 -0.0265,0.34396 -0.0264,0.21166 -0.21166,0.76729 -0.26458,0.92604 z"
       class="g2_15"
       id="path77"
       style="display:block;fill:#000000;fill-opacity:0;stroke-width:0.264583" />
    <path
       d="m 111.78698,162.03049 c 0.0265,0.0264 0.10584,0.10583 0.1323,0.21166 0.0265,0.0794 0.0265,0.18521 0.0794,0.34396 0.0265,0.15875 0.0794,0.42333 0.10583,0.635 0.0265,0.23813 0.0529,0.47625 0.0529,0.71438 0,0.23812 -0.0265,0.58208 -0.0265,0.76729 -0.0265,0.18521 0.0265,0.13229 -0.0265,0.34396 -0.0264,0.21166 -0.21166,0.76729 -0.26458,0.92604"
       class="gd_15"
       id="path78"
       style="display:block;fill:none;stroke:#073763;stroke-width:0.302948;stroke-linejoin:round" />
    <path
       fill-rule="evenodd"
       d="m 109.6174,165.84049 -2.27542,1.61395 -0.3175,0.0265 -0.21166,-0.0529 -0.13229,-0.0794 -0.10584,-0.10583 -0.37041,-0.9525 0.0264,-0.0794 0.0794,-0.0794 0.55562,-0.15875 0.66146,-0.10584 0.68792,-0.0529 h 1.00542 z"
       class="gf_15"
       id="path79"
       style="display:block;fill:#cfe2f3;stroke-width:0.264583" />
  </g>
</svg>
