<?xml version="1.0" encoding="UTF-8" standalone="no"?>
<!-- Created with Inkscape (http://www.inkscape.org/) -->

<svg
   width="39.152mm"
   height="24.415001mm"
   viewBox="0 0 39.152001 24.415001"
   version="1.1"
   id="svg1"
   inkscape:version="1.3.2 (1:1.3.2+202311252150+091e20ef0f)"
   sodipodi:docname="vm-05-07_2.svg"
   xmlns:inkscape="http://www.inkscape.org/namespaces/inkscape"
   xmlns:sodipodi="http://sodipodi.sourceforge.net/DTD/sodipodi-0.dtd"
   xmlns="http://www.w3.org/2000/svg"
   xmlns:svg="http://www.w3.org/2000/svg">
  <sodipodi:namedview
     id="namedview1"
     pagecolor="#ffffff"
     bordercolor="#000000"
     borderopacity="0.25"
     inkscape:showpageshadow="2"
     inkscape:pageopacity="0.0"
     inkscape:pagecheckerboard="0"
     inkscape:deskcolor="#d1d1d1"
     inkscape:document-units="mm"
     inkscape:zoom="3.4262205"
     inkscape:cx="-41.299151"
     inkscape:cy="97.629442"
     inkscape:window-width="1920"
     inkscape:window-height="2123"
     inkscape:window-x="0"
     inkscape:window-y="0"
     inkscape:window-maximized="0"
     inkscape:current-layer="layer1" />
  <defs
     id="defs1">
    <clipPath
       id="c0_61">
      <path
         d="M 0,825 V 0 h 1100 v 825 z"
         id="path2" />
    </clipPath>
  </defs>
  <g
     inkscape:label="Layer 1"
     inkscape:groupmode="layer"
     id="layer1"
     transform="translate(-88.370832,-139.17083)">
    <path
       fill-rule="evenodd"
       d="m 107.92184,142.25198 h 17.19791 v 18.415 h -17.19791 z"
       class="g3_61"
       id="path282"
       style="display:block;fill:#666666;stroke-width:0.264583" />
    <path
       fill-rule="evenodd"
       d="m 118.53163,146.64406 0.13229,0.68792 -4.25979,0.76729 -0.13229,-0.68792 z"
       class="g0_61"
       id="path283"
       style="display:block;fill:#ffffff;stroke-width:0.264583" />
    <path
       fill-rule="evenodd"
       d="m 118.39934,148.81365 0.13229,0.68791 -4.23334,0.74084 -0.10583,-0.68792 z"
       class="g0_61"
       id="path284"
       style="display:block;fill:#ffffff;stroke-width:0.264583" />
    <path
       fill-rule="evenodd"
       d="m 118.47871,150.93031 0.13229,0.68792 -3.99521,0.71437 -0.10583,-0.71437 z"
       class="g0_61"
       id="path285"
       style="display:block;fill:#ffffff;stroke-width:0.264583" />
    <path
       fill-rule="evenodd"
       d="m 118.39934,153.07344 0.10583,0.68791 -4.10104,0.74084 -0.10584,-0.71438 z"
       class="g0_61"
       id="path286"
       style="display:block;fill:#ffffff;stroke-width:0.264583" />
    <path
       fill-rule="evenodd"
       d="m 118.50517,155.1901 0.13229,0.68792 -4.28625,0.74083 -0.10583,-0.68791 z"
       class="g0_61"
       id="path287"
       style="display:block;fill:#ffffff;stroke-width:0.264583" />
    <path
       fill-rule="evenodd"
       d="m 114.06017,156.75115 v 0 c 0,0.84666 0.44979,1.61395 1.19062,2.01083 0.71438,0.42333 1.61396,0.42333 2.3548,0 0.71437,-0.42333 1.16416,-1.19063 1.16416,-2.03729 h -0.71437 c 0.0265,0.60854 -0.29104,1.13771 -0.82021,1.42875 -0.50271,0.29104 -1.13771,0.29104 -1.64042,0.0265 -0.52916,-0.29105 -0.84666,-0.84667 -0.84666,-1.42875 z"
       class="gg_61"
       id="path288"
       style="display:block;fill:#ff9900;stroke-width:0.264583" />
    <path
       fill-rule="evenodd"
       d="m 114.06017,146.45885 h 0.71437 v 10.31875 h -0.71437 z"
       class="gg_61"
       id="path289"
       style="display:block;fill:#ff9900;stroke-width:0.264583" />
    <path
       fill-rule="evenodd"
       d="m 118.05538,146.45885 h 0.68791 v 10.31875 h -0.68791 z"
       class="gg_61"
       id="path290"
       style="display:block;fill:#ff9900;stroke-width:0.264583" />
    <path
       fill-rule="evenodd"
       d="m 114.08663,146.48531 v 0 c 0,-0.82021 0.44979,-1.5875 1.19062,-2.01083 0.71438,-0.42333 1.61396,-0.39688 2.35479,0.0265 0.71438,0.39687 1.16417,1.19062 1.13771,2.01083 h -0.68791 c 0,-0.58208 -0.29105,-1.13771 -0.82021,-1.42875 -0.50271,-0.29104 -1.13771,-0.29104 -1.64042,0 -0.52917,0.29104 -0.84667,0.82021 -0.84667,1.40229 z"
       class="gg_61"
       id="path291"
       style="display:block;fill:#ff9900;stroke-width:0.264583" />
    <path
       fill-rule="evenodd"
       d="m 91.967465,147.86115 h 19.393955 v 8.30791 H 91.967465 Z"
       class="g1_61"
       id="path292"
       style="display:block;fill:#000000;fill-opacity:0;stroke-width:0.264583" />
    <text
       clip-path="url(#c0_61)"
       x="299.39999"
       y="680.90002"
       class="s7_61"
       id="text292"
       style="font-size:7.64px;font-family:MS-PGothic_bn;white-space:pre;display:block;fill:#000000"
       transform="matrix(0.26458333,0,0,0.26458333,15.476424,-27.636976)"><tspan
         sodipodi:role="line"
         id="tspan1"
         x="299.39999"
         y="680.90002"> </tspan><tspan
         sodipodi:role="line"
         id="tspan2"
         x="299.39999"
         y="690.45001">Safety zone</tspan></text>
  </g>
</svg>
