<?xml version="1.0" encoding="UTF-8" standalone="no"?>
<!-- Created with Inkscape (http://www.inkscape.org/) -->

<svg
   width="56.207001mm"
   height="60.943001mm"
   viewBox="0 0 56.207001 60.943"
   version="1.1"
   id="svg1"
   inkscape:version="1.3.2 (1:1.3.2+202311252150+091e20ef0f)"
   sodipodi:docname="vm-01-08_1.svg"
   xmlns:inkscape="http://www.inkscape.org/namespaces/inkscape"
   xmlns:sodipodi="http://sodipodi.sourceforge.net/DTD/sodipodi-0.dtd"
   xmlns="http://www.w3.org/2000/svg"
   xmlns:svg="http://www.w3.org/2000/svg">
  <sodipodi:namedview
     id="namedview1"
     pagecolor="#ffffff"
     bordercolor="#000000"
     borderopacity="0.25"
     inkscape:showpageshadow="2"
     inkscape:pageopacity="0.0"
     inkscape:pagecheckerboard="0"
     inkscape:deskcolor="#d1d1d1"
     inkscape:document-units="mm"
     inkscape:zoom="1.7131103"
     inkscape:cx="90.478706"
     inkscape:cy="100.11031"
     inkscape:window-width="1452"
     inkscape:window-height="1237"
     inkscape:window-x="606"
     inkscape:window-y="544"
     inkscape:window-maximized="0"
     inkscape:current-layer="layer1" />
  <defs
     id="defs1" />
  <g
     inkscape:label="Layer 1"
     inkscape:groupmode="layer"
     id="layer1"
     transform="translate(-80.962499,-121.97291)">
    <path
       fill-rule="evenodd"
       d="m 84.947143,125.76491 h 48.207077 v 52.94313 H 84.947143 Z"
       class="g3_16"
       id="path57"
       style="display:block;fill:#666666;stroke-width:0.264583" />
    <path
       fill-rule="evenodd"
       d="m 109.05068,125.76491 v 52.94313 z"
       class="g1_16"
       id="path58"
       style="display:block;fill:#000000;fill-opacity:0;stroke-width:0.264583" />
    <path
       d="m 109.05068,125.76491 v 52.94313"
       class="g4_16"
       id="path59"
       style="display:block;fill:none;stroke:#ffffff;stroke-width:2.42517;stroke-linejoin:round;stroke-dasharray:9.78958, 7.40833" />
    <path
       fill-rule="evenodd"
       d="M 98.626101,157.48845 V 140.21116 Z"
       class="g1_16"
       id="path60"
       style="display:block;fill:#000000;fill-opacity:0;stroke-width:0.264583" />
    <path
       d="M 98.626101,157.48845 V 147.4872"
       class="g7_16"
       id="path61"
       style="display:block;fill:none;stroke:#ff9900;stroke-width:1.21259;stroke-linejoin:round" />
    <path
       fill-rule="evenodd"
       d="m 100.61048,147.4872 -1.984379,-5.50333 -2.010833,5.50333 z"
       class="g8_16"
       id="path62"
       style="display:block;fill:#ff9900;stroke:#ff9900;stroke-width:1.21259;stroke-miterlimit:10" />
    <path
       fill-rule="evenodd"
       d="m 120.69235,144.20637 v 17.30375 z"
       class="g1_16"
       id="path63"
       style="display:block;fill:#000000;fill-opacity:0;stroke-width:0.264583" />
    <path
       d="m 120.69235,144.20637 v 10.02771"
       class="g7_16"
       id="path64"
       style="display:block;fill:none;stroke:#ff9900;stroke-width:1.21259;stroke-linejoin:round" />
    <path
       fill-rule="evenodd"
       d="m 118.70797,154.23408 1.98438,5.50333 2.01083,-5.50333 z"
       class="g8_16"
       id="path65"
       style="display:block;fill:#ff9900;stroke:#ff9900;stroke-width:1.21259;stroke-miterlimit:10" />
    <path
       fill-rule="evenodd"
       d="m 94.498601,163.60033 v 0 c 0,-0.0794 0.07937,-0.13229 0.15875,-0.13229 h 0.529167 c 0.05292,0 0.07937,0 0.105833,0.0265 0.02646,0.0265 0.05292,0.0794 0.05292,0.10583 v 2.2225 c 0,0.0794 -0.07937,0.13229 -0.15875,0.13229 h -0.529167 c -0.07937,0 -0.15875,-0.0529 -0.15875,-0.13229 z"
       class="g9_16"
       id="path66"
       style="display:block;fill:#000000;stroke-width:0.264583" />
    <path
       fill-rule="evenodd"
       d="m 101.82756,163.60033 v 0 c 0,-0.0794 0.0794,-0.13229 0.15875,-0.13229 h 0.52917 c 0.0529,0 0.0794,0 0.10583,0.0265 0.0265,0.0265 0.0529,0.0794 0.0529,0.10583 v 2.2225 c 0,0.0794 -0.0794,0.13229 -0.15875,0.13229 h -0.52917 c -0.0794,0 -0.15875,-0.0529 -0.15875,-0.13229 z"
       class="g9_16"
       id="path67"
       style="display:block;fill:#000000;stroke-width:0.264583" />
    <path
       fill-rule="evenodd"
       d="m 94.498601,172.72845 v 0 c 0,-0.0529 0.07937,-0.13229 0.15875,-0.13229 h 0.529167 c 0.05292,0 0.07937,0.0265 0.105833,0.0529 0.02646,0.0265 0.05292,0.0529 0.05292,0.0794 v 2.24896 c 0,0.0529 -0.07937,0.13229 -0.15875,0.13229 h -0.529167 c -0.07937,0 -0.15875,-0.0794 -0.15875,-0.13229 z"
       class="g9_16"
       id="path68"
       style="display:block;fill:#000000;stroke-width:0.264583" />
    <path
       fill-rule="evenodd"
       d="m 101.82756,172.72845 v 0 c 0,-0.0529 0.0794,-0.13229 0.15875,-0.13229 h 0.52917 c 0.0529,0 0.0794,0.0265 0.10583,0.0529 0.0265,0.0265 0.0529,0.0529 0.0529,0.0794 v 2.24896 c 0,0.0529 -0.0794,0.13229 -0.15875,0.13229 h -0.52917 c -0.0794,0 -0.15875,-0.0794 -0.15875,-0.13229 z"
       class="g9_16"
       id="path69"
       style="display:block;fill:#000000;stroke-width:0.264583" />
    <path
       fill-rule="evenodd"
       d="m 94.789643,163.28283 v 0 c 0,-1.16417 0.9525,-2.11667 2.116667,-2.11667 h 3.43958 c 0.58209,0 1.11125,0.23813 1.50813,0.635 0.39687,0.39688 0.60854,0.92604 0.60854,1.48167 V 175.242 c 0,1.16416 -0.92604,2.11666 -2.11667,2.11666 h -3.43958 c -1.164167,0 -2.116667,-0.9525 -2.116667,-2.11666 z"
       class="ga_16"
       id="path70"
       style="display:block;fill:#3d85c6;stroke-width:0.264583" />
    <path
       fill-rule="evenodd"
       d="m 97.885268,161.06033 v 0 c 0,-0.0265 0.02646,-0.0529 0.05292,-0.0529 h 1.349375 c 0,0 0.02646,0 0.02646,0 q 0.02646,0.0265 0.02646,0.0529 v 0.23812 c 0,0.0265 -0.02646,0.0529 -0.05292,0.0529 h -1.349375 c -0.02646,0 -0.05292,-0.0265 -0.05292,-0.0529 z"
       class="gb_16"
       id="path71"
       style="display:block;fill:#efefef;stroke-width:0.264583" />
    <path
       fill-rule="evenodd"
       d="m 95.900893,161.82762 0.05292,0.47625 0.608541,-0.15875 0.132292,-0.0529 0.05292,-0.0529 0.02646,-0.10584 -0.05292,-0.10583 -0.02646,-0.0794 -0.15875,-0.0265 -0.238125,0.0265 z"
       class="g0_16"
       id="path72"
       style="display:block;fill:#ffffff;stroke-width:0.264583" />
    <path
       fill-rule="evenodd"
       d="m 101.32485,161.82762 -0.0794,0.47625 -0.58208,-0.15875 -0.13229,-0.0529 -0.0529,-0.0529 -0.0265,-0.10584 0.0265,-0.10583 0.0529,-0.0794 0.15875,-0.0265 0.23812,0.0265 z"
       class="g0_16"
       id="path73"
       style="display:block;fill:#ffffff;stroke-width:0.264583" />
    <path
       fill-rule="evenodd"
       d="m 95.689226,166.27262 0.502709,1.61396 0.07937,0.13229 0.15875,0.0794 4.259795,-0.0265 0.13229,-0.0529 0.13229,-0.10583 0.52917,-1.40229 v -0.18521 l -0.1323,-0.15875 -0.55562,-0.18521 -0.873125,-0.18521 -0.714375,-0.0794 h -0.79375 l -0.502709,0.0264 -0.370416,0.0265 -0.529167,0.0529 -0.449792,0.13229 -0.343958,0.10583 -0.343958,0.1323 z"
       class="gc_16"
       id="path74"
       style="display:block;fill:#9fc5e8;stroke-width:0.264583" />
    <path
       d="m 95.689226,166.27262 0.502709,1.61396 0.07937,0.13229 0.15875,0.0794 4.259795,-0.0265 0.13229,-0.0529 0.13229,-0.10583 0.52917,-1.40229 v -0.18521 l -0.1323,-0.15875 -0.55562,-0.18521 -0.873125,-0.18521 -0.714375,-0.0794 h -0.79375 l -0.502709,0.0264 -0.370416,0.0265 -0.529167,0.0529 -0.449792,0.13229 -0.343958,0.10583 -0.343958,0.1323 z"
       class="gd_16"
       id="path75"
       style="display:block;fill:none;stroke:#073763;stroke-width:0.302948;stroke-linejoin:round" />
    <path
       fill-rule="evenodd"
       d="m 95.239435,166.8547 v 8.04334 l 0.05292,0.13229 0.132292,0.0794 0.608542,-0.55562 0.185208,-0.3175 0.105833,-0.29104 -0.105833,-4.70959 -0.05292,-0.34395 -0.211666,-0.60855 -0.264584,-0.635 z"
       class="gc_16"
       id="path76"
       style="display:block;fill:#9fc5e8;stroke-width:0.264583" />
    <path
       d="m 95.239435,166.8547 v 8.04334 l 0.05292,0.13229 0.132292,0.0794 0.608542,-0.55562 0.185208,-0.3175 0.105833,-0.29104 -0.105833,-4.70959 -0.05292,-0.34395 -0.211666,-0.60855 -0.264584,-0.635 z"
       class="gd_16"
       id="path77"
       style="display:block;fill:none;stroke:#073763;stroke-width:0.302948;stroke-linejoin:round" />
    <path
       fill-rule="evenodd"
       d="m 102.06568,166.93408 v 8.04333 l -0.0265,0.15875 -0.15875,0.0529 -0.60854,-0.55563 -0.18521,-0.3175 -0.0794,-0.26458 0.0794,-4.70958 0.0529,-0.34396 0.21167,-0.635 0.26458,-0.60854 z"
       class="gc_16"
       id="path78"
       style="display:block;fill:#9fc5e8;stroke-width:0.264583" />
    <path
       d="m 102.06568,166.93408 v 8.04333 l -0.0265,0.15875 -0.15875,0.0529 -0.60854,-0.55563 -0.18521,-0.3175 -0.0794,-0.26458 0.0794,-4.70958 0.0529,-0.34396 0.21167,-0.635 0.26458,-0.60854 z"
       class="gd_16"
       id="path79"
       style="display:block;fill:none;stroke:#073763;stroke-width:0.302948;stroke-linejoin:round" />
    <path
       fill-rule="evenodd"
       d="m 95.239435,166.77533 -0.15875,-0.0529 h -0.211667 l -0.15875,0.0529 -0.211667,0.0794 -0.15875,0.10584 -0.05292,0.13229 0.02646,0.10583 0.105833,0.10584 0.15875,0.0794 0.291042,0.0529 h 0.211667 l 0.15875,-0.0794 0.105833,-0.15875 0.05292,-0.10583 v -0.13229 l -0.05292,-0.10584 z"
       class="ge_16"
       id="path80"
       style="display:block;fill:#0b5394;stroke-width:0.264583" />
    <path
       fill-rule="evenodd"
       d="m 101.98631,166.77533 0.15875,-0.0529 h 0.21167 l 0.1852,0.0529 0.21167,0.0794 0.15875,0.10584 0.0265,0.13229 v 0.10583 l -0.10583,0.10584 -0.18521,0.0794 -0.26458,0.0529 h -0.21167 l -0.15875,-0.0794 -0.13229,-0.15875 -0.0529,-0.10583 v -0.13229 l 0.0794,-0.10584 z"
       class="ge_16"
       id="path81"
       style="display:block;fill:#0b5394;stroke-width:0.264583" />
    <path
       fill-rule="evenodd"
       d="m 97.885268,177.17345 v 0 c 0,-0.0529 0.02646,-0.0794 0.05292,-0.0794 h 1.349375 c 0,0 0.02646,0.0265 0.02646,0.0265 0.02646,0 0.02646,0.0265 0.02646,0.0529 v 0.21167 c 0,0.0529 -0.02646,0.0794 -0.05292,0.0794 h -1.349375 c -0.02646,0 -0.05292,-0.0265 -0.05292,-0.0794 z"
       class="gb_16"
       id="path82"
       style="display:block;fill:#efefef;stroke-width:0.264583" />
    <path
       fill-rule="evenodd"
       d="m 95.900893,177.43804 0.05292,-0.50271 0.608541,0.15875 0.132292,0.0529 0.05292,0.0794 0.02646,0.0794 -0.05292,0.10583 -0.02646,0.0794 -0.15875,0.0265 -0.238125,-0.0265 z"
       class="ge_16"
       id="path83"
       style="display:block;fill:#0b5394;stroke-width:0.264583" />
    <path
       fill-rule="evenodd"
       d="m 101.32485,177.43804 -0.0794,-0.50271 -0.58208,0.15875 -0.13229,0.0529 -0.0529,0.0794 -0.0265,0.0794 0.0265,0.10583 0.0529,0.0794 0.15875,0.0265 0.23812,-0.0265 z"
       class="ge_16"
       id="path84"
       style="display:block;fill:#0b5394;stroke-width:0.264583" />
    <path
       fill-rule="evenodd"
       d="m 96.694643,174.7922 -0.15875,0.0265 -1.005417,0.84667 -0.07937,0.18521 0.02646,0.18521 0.3175,0.21166 0.396875,0.15875 0.582083,0.13229 0.608542,0.0794 0.635,0.0794 0.687916,-0.0265 0.687917,-0.0265 0.661461,-0.0265 0.76729,-0.15875 0.50271,-0.15875 0.37041,-0.26458 0.0794,-0.18521 -0.13229,-0.18521 -0.92604,-0.79375 -0.0794,-0.0529 -1.058333,-0.0529 h -1.984375 z"
       class="gc_16"
       id="path85"
       style="display:block;fill:#9fc5e8;stroke-width:0.264583" />
    <path
       d="m 96.694643,174.7922 -0.15875,0.0265 -1.005417,0.84667 -0.07937,0.18521 0.02646,0.18521 0.3175,0.21166 0.396875,0.15875 0.582083,0.13229 0.608542,0.0794 0.635,0.0794 0.687916,-0.0265 0.687917,-0.0265 0.661461,-0.0265 0.76729,-0.15875 0.50271,-0.15875 0.37041,-0.26458 0.0794,-0.18521 -0.13229,-0.18521 -0.92604,-0.79375 -0.0794,-0.0529 -1.058333,-0.0529 h -1.984375 z"
       class="gd_16"
       id="path86"
       style="display:block;fill:none;stroke:#073763;stroke-width:0.302948;stroke-linejoin:round" />
    <path
       fill-rule="evenodd"
       d="m 96.74756,161.88054 c 0.15875,-0.0265 0.635,-0.0794 1.005416,-0.10584 0.370417,0 0.899584,0 1.243542,0 0.3175,0 0.502708,0.0265 0.740833,0.0529 0.238125,0.0265 0.555629,0.0529 0.661459,0.0529 z"
       class="g1_16"
       id="path87"
       style="display:block;fill:#000000;fill-opacity:0;stroke-width:0.264583" />
    <path
       d="m 96.74756,161.88054 c 0.15875,-0.0265 0.635,-0.0794 1.005416,-0.10584 0.370417,0 0.899584,0 1.243542,0 0.3175,0 0.502708,0.0265 0.740833,0.0529 0.238125,0.0265 0.555629,0.0529 0.661459,0.0529"
       class="gd_16"
       id="path88"
       style="display:block;fill:none;stroke:#073763;stroke-width:0.302948;stroke-linejoin:round" />
    <path
       fill-rule="evenodd"
       d="m 95.63631,162.30387 c -0.02646,0.0265 -0.105834,0.0529 -0.132292,0.15875 -0.05292,0.10583 -0.05292,0.23813 -0.07937,0.47625 -0.05292,0.23813 -0.132292,0.635 -0.15875,0.92604 -0.02646,0.29104 -0.02646,0.55563 0,0.82021 0,0.26458 0.02646,0.44979 0.07937,0.71438 0.07937,0.26458 0.211667,0.71437 0.264583,0.87312 z"
       class="g1_16"
       id="path89"
       style="display:block;fill:#000000;fill-opacity:0;stroke-width:0.264583" />
    <path
       d="m 95.63631,162.30387 c -0.02646,0.0265 -0.105834,0.0529 -0.132292,0.15875 -0.05292,0.10583 -0.05292,0.23813 -0.07937,0.47625 -0.05292,0.23813 -0.132292,0.635 -0.15875,0.92604 -0.02646,0.29104 -0.02646,0.55563 0,0.82021 0,0.26458 0.02646,0.44979 0.07937,0.71438 0.07937,0.26458 0.211667,0.71437 0.264583,0.87312"
       class="gd_16"
       id="path90"
       style="display:block;fill:none;stroke:#073763;stroke-width:0.302948;stroke-linejoin:round" />
    <path
       fill-rule="evenodd"
       d="m 101.56298,162.25095 c 0.0265,0.0265 0.0794,0.10584 0.10583,0.21167 0.0529,0.10583 0.0529,0.18521 0.0794,0.37042 0.0529,0.15875 0.10583,0.39687 0.13229,0.635 0.0265,0.21166 0.0529,0.47625 0.0529,0.71437 0,0.26459 -0.0265,0.58209 -0.0529,0.79375 0,0.18521 0.0529,0.10584 0,0.3175 -0.0529,0.21167 -0.23812,0.79375 -0.29104,0.9525 z"
       class="g1_16"
       id="path91"
       style="display:block;fill:#000000;fill-opacity:0;stroke-width:0.264583" />
    <path
       d="m 101.56298,162.25095 c 0.0265,0.0265 0.0794,0.10584 0.10583,0.21167 0.0529,0.10583 0.0529,0.18521 0.0794,0.37042 0.0529,0.15875 0.10583,0.39687 0.13229,0.635 0.0265,0.21166 0.0529,0.47625 0.0529,0.71437 0,0.26459 -0.0265,0.58209 -0.0529,0.79375 0,0.18521 0.0529,0.10584 0,0.3175 -0.0529,0.21167 -0.23812,0.79375 -0.29104,0.9525"
       class="gd_16"
       id="path92"
       style="display:block;fill:none;stroke:#073763;stroke-width:0.302948;stroke-linejoin:round" />
    <path
       fill-rule="evenodd"
       d="m 99.366935,166.11387 -2.301875,1.64042 h -0.3175 l -0.211667,-0.0265 -0.15875,-0.0794 -0.105833,-0.10583 -0.370417,-0.97896 0.02646,-0.0794 0.07937,-0.0794 0.582084,-0.15875 0.635,-0.10583 0.714375,-0.0529 0.502708,-0.0265 0.502708,0.0265 z"
       class="gf_16"
       id="path93"
       style="display:block;fill:#cfe2f3;stroke-width:0.264583" />
    <path
       fill-rule="evenodd"
       d="m 124.81985,140.05241 v 0 c 0,0.0794 -0.0794,0.13229 -0.15875,0.13229 h -0.52917 c -0.0529,0 -0.0794,0 -0.10583,-0.0264 -0.0265,-0.0265 -0.0529,-0.0794 -0.0529,-0.10584 v -2.2225 c 0,-0.0794 0.0794,-0.13229 0.15875,-0.13229 h 0.52917 c 0.0794,0 0.15875,0.0529 0.15875,0.13229 z"
       class="g9_16"
       id="path94"
       style="display:block;fill:#000000;stroke-width:0.264583" />
    <path
       fill-rule="evenodd"
       d="m 117.49089,140.05241 v 0 c 0,0.0794 -0.0794,0.13229 -0.15875,0.13229 h -0.52917 c -0.0529,0 -0.0794,0 -0.10583,-0.0264 -0.0265,-0.0265 -0.0529,-0.0794 -0.0529,-0.10584 v -2.2225 c 0,-0.0794 0.0794,-0.13229 0.15875,-0.13229 h 0.52917 c 0.0794,0 0.15875,0.0529 0.15875,0.13229 z"
       class="g9_16"
       id="path95"
       style="display:block;fill:#000000;stroke-width:0.264583" />
    <path
       fill-rule="evenodd"
       d="m 124.81985,130.92429 v 0 c 0,0.0529 -0.0794,0.13229 -0.15875,0.13229 h -0.52917 c -0.0529,0 -0.0794,-0.0265 -0.10583,-0.0529 -0.0265,-0.0264 -0.0529,-0.0529 -0.0529,-0.0794 v -2.24896 c 0,-0.0529 0.0794,-0.13229 0.15875,-0.13229 h 0.52917 c 0.0794,0 0.15875,0.0794 0.15875,0.13229 z"
       class="g9_16"
       id="path96"
       style="display:block;fill:#000000;stroke-width:0.264583" />
    <path
       fill-rule="evenodd"
       d="m 117.49089,130.92429 v 0 c 0,0.0529 -0.0794,0.13229 -0.15875,0.13229 h -0.52917 c -0.0529,0 -0.0794,-0.0265 -0.10583,-0.0529 -0.0265,-0.0264 -0.0529,-0.0529 -0.0529,-0.0794 v -2.24896 c 0,-0.0529 0.0794,-0.13229 0.15875,-0.13229 h 0.52917 c 0.0794,0 0.15875,0.0794 0.15875,0.13229 z"
       class="g9_16"
       id="path97"
       style="display:block;fill:#000000;stroke-width:0.264583" />
    <path
       fill-rule="evenodd"
       d="m 124.52881,140.36991 v 0 c 0,1.16417 -0.9525,2.11667 -2.11667,2.11667 h -3.43958 c -0.58209,0 -1.11125,-0.23813 -1.50813,-0.635 -0.39687,-0.39688 -0.60854,-0.92604 -0.60854,-1.48167 v -11.95916 c 0,-1.16417 0.92604,-2.11667 2.11667,-2.11667 h 3.43958 c 1.16417,0 2.11667,0.9525 2.11667,2.11667 z"
       class="ga_16"
       id="path98"
       style="display:block;fill:#3d85c6;stroke-width:0.264583" />
    <path
       fill-rule="evenodd"
       d="m 121.43318,142.59241 v 0 c 0,0.0265 -0.0265,0.0529 -0.0529,0.0529 h -1.34937 c 0,0 -0.0265,0 -0.0265,0 q -0.0265,-0.0265 -0.0265,-0.0529 v -0.23812 c 0,-0.0265 0.0265,-0.0529 0.0529,-0.0529 h 1.34937 c 0.0265,0 0.0529,0.0265 0.0529,0.0529 z"
       class="gb_16"
       id="path99"
       style="display:block;fill:#efefef;stroke-width:0.264583" />
    <path
       fill-rule="evenodd"
       d="m 123.41756,141.82512 -0.0794,-0.47625 -0.58208,0.15875 -0.13229,0.0529 -0.0529,0.0529 -0.0265,0.10584 0.0529,0.10583 0.0265,0.0794 0.15875,0.0264 0.23812,-0.0264 z"
       class="g0_16"
       id="path100"
       style="display:block;fill:#ffffff;stroke-width:0.264583" />
    <path
       fill-rule="evenodd"
       d="m 117.9936,141.82512 0.0794,-0.47625 0.58209,0.15875 0.13229,0.0529 0.0529,0.0529 0.0265,0.10584 -0.0265,0.10583 -0.0529,0.0794 -0.15875,0.0264 -0.23813,-0.0264 z"
       class="g0_16"
       id="path101"
       style="display:block;fill:#ffffff;stroke-width:0.264583" />
    <path
       fill-rule="evenodd"
       d="m 123.62922,137.38012 -0.50271,-1.61396 -0.0794,-0.13229 -0.15875,-0.0794 -4.25979,0.0265 -0.13229,0.0529 -0.15875,0.10584 -0.50271,1.40229 v 0.1852 l 0.13229,0.15875 0.55562,0.18521 0.87313,0.18521 0.71437,0.0794 h 0.79375 l 0.50271,-0.0265 0.37042,-0.0265 0.50271,-0.0529 0.47625,-0.13229 0.34396,-0.10583 0.34395,-0.13229 z"
       class="gc_16"
       id="path102"
       style="display:block;fill:#9fc5e8;stroke-width:0.264583" />
    <path
       d="m 123.62922,137.38012 -0.50271,-1.61396 -0.0794,-0.13229 -0.15875,-0.0794 -4.25979,0.0265 -0.13229,0.0529 -0.15875,0.10584 -0.50271,1.40229 v 0.1852 l 0.13229,0.15875 0.55562,0.18521 0.87313,0.18521 0.71437,0.0794 h 0.79375 l 0.50271,-0.0265 0.37042,-0.0265 0.50271,-0.0529 0.47625,-0.13229 0.34396,-0.10583 0.34395,-0.13229 z"
       class="gd_16"
       id="path103"
       style="display:block;fill:none;stroke:#073763;stroke-width:0.302948;stroke-linejoin:round" />
    <path
       fill-rule="evenodd"
       d="m 124.07901,136.79804 v -8.04333 l -0.0529,-0.1323 -0.13229,-0.0794 -0.60855,0.55562 -0.1852,0.3175 -0.10584,0.29105 0.10584,4.70958 0.0529,0.34396 0.21167,0.60854 0.26458,0.635 z"
       class="gc_16"
       id="path104"
       style="display:block;fill:#9fc5e8;stroke-width:0.264583" />
    <path
       d="m 124.07901,136.79804 v -8.04333 l -0.0529,-0.1323 -0.13229,-0.0794 -0.60855,0.55562 -0.1852,0.3175 -0.10584,0.29105 0.10584,4.70958 0.0529,0.34396 0.21167,0.60854 0.26458,0.635 z"
       class="gd_16"
       id="path105"
       style="display:block;fill:none;stroke:#073763;stroke-width:0.302948;stroke-linejoin:round" />
    <path
       fill-rule="evenodd"
       d="m 117.25276,136.71866 v -8.04333 l 0.0265,-0.15875 0.15875,-0.0529 0.60854,0.55563 0.18521,0.3175 0.0794,0.26458 -0.0794,4.70959 -0.0529,0.34395 -0.23813,0.635 -0.23812,0.60854 z"
       class="gc_16"
       id="path106"
       style="display:block;fill:#9fc5e8;stroke-width:0.264583" />
    <path
       d="m 117.25276,136.71866 v -8.04333 l 0.0265,-0.15875 0.15875,-0.0529 0.60854,0.55563 0.18521,0.3175 0.0794,0.26458 -0.0794,4.70959 -0.0529,0.34395 -0.23813,0.635 -0.23812,0.60854 z"
       class="gd_16"
       id="path107"
       style="display:block;fill:none;stroke:#073763;stroke-width:0.302948;stroke-linejoin:round" />
    <path
       fill-rule="evenodd"
       d="m 124.07901,136.87741 0.15875,0.0529 h 0.21167 l 0.15875,-0.0529 0.21167,-0.0794 0.15875,-0.10584 0.0265,-0.13229 v -0.10583 l -0.10584,-0.10583 -0.15875,-0.0794 -0.29104,-0.0529 h -0.21167 l -0.15875,0.0794 -0.10583,0.15875 -0.0529,0.10583 v 0.13229 l 0.0529,0.10584 z"
       class="ge_16"
       id="path108"
       style="display:block;fill:#0b5394;stroke-width:0.264583" />
    <path
       fill-rule="evenodd"
       d="m 117.33214,136.87741 -0.15875,0.0529 h -0.21167 l -0.18521,-0.0529 -0.21166,-0.0794 -0.15875,-0.10584 -0.0265,-0.13229 v -0.10583 l 0.10583,-0.10583 0.18521,-0.0794 0.26458,-0.0529 h 0.21167 l 0.15875,0.0794 0.13229,0.15875 0.0529,0.10583 v 0.13229 l -0.0794,0.10584 z"
       class="ge_16"
       id="path109"
       style="display:block;fill:#0b5394;stroke-width:0.264583" />
    <path
       fill-rule="evenodd"
       d="m 121.43318,126.47929 v 0 c 0,0.0529 -0.0265,0.0794 -0.0529,0.0794 h -1.34937 c 0,0 -0.0265,-0.0264 -0.0265,-0.0264 -0.0265,0 -0.0265,-0.0265 -0.0265,-0.0529 v -0.21167 c 0,-0.0529 0.0265,-0.0794 0.0529,-0.0794 h 1.34937 c 0.0265,0 0.0529,0.0265 0.0529,0.0794 z"
       class="gb_16"
       id="path110"
       style="display:block;fill:#efefef;stroke-width:0.264583" />
    <path
       fill-rule="evenodd"
       d="m 123.41756,126.21471 -0.0794,0.5027 -0.58208,-0.15875 -0.13229,-0.0529 -0.0529,-0.0794 -0.0265,-0.0794 0.0529,-0.10584 0.0265,-0.0794 0.15875,-0.0265 0.23812,0.0265 z"
       class="ge_16"
       id="path111"
       style="display:block;fill:#0b5394;stroke-width:0.264583" />
    <path
       fill-rule="evenodd"
       d="m 117.9936,126.21471 0.0794,0.5027 0.58209,-0.15875 0.13229,-0.0529 0.0529,-0.0794 0.0265,-0.0794 -0.0265,-0.10584 -0.0529,-0.0794 -0.15875,-0.0265 -0.23813,0.0265 z"
       class="ge_16"
       id="path112"
       style="display:block;fill:#0b5394;stroke-width:0.264583" />
    <path
       fill-rule="evenodd"
       d="m 122.62381,128.86054 0.13229,-0.0265 1.03187,-0.84667 0.0794,-0.1852 -0.0265,-0.18521 -0.3175,-0.21167 -0.39688,-0.15875 -0.58208,-0.13229 -0.60854,-0.0794 -0.635,-0.0794 -0.68792,0.0265 -0.68791,0.0265 -0.66146,0.0264 -0.76729,0.15875 -0.50271,0.15875 -0.37042,0.26459 -0.0794,0.18521 0.13229,0.1852 0.92604,0.79375 0.0794,0.0529 1.05834,0.0529 h 1.98437 z"
       class="gc_16"
       id="path113"
       style="display:block;fill:#9fc5e8;stroke-width:0.264583" />
    <path
       d="m 122.62381,128.86054 0.13229,-0.0265 1.03187,-0.84667 0.0794,-0.1852 -0.0265,-0.18521 -0.3175,-0.21167 -0.39688,-0.15875 -0.58208,-0.13229 -0.60854,-0.0794 -0.635,-0.0794 -0.68792,0.0265 -0.68791,0.0265 -0.66146,0.0264 -0.76729,0.15875 -0.50271,0.15875 -0.37042,0.26459 -0.0794,0.18521 0.13229,0.1852 0.92604,0.79375 0.0794,0.0529 1.05834,0.0529 h 1.98437 z"
       class="gd_16"
       id="path114"
       style="display:block;fill:none;stroke:#073763;stroke-width:0.302948;stroke-linejoin:round" />
    <path
       fill-rule="evenodd"
       d="m 122.57089,141.7722 c -0.18521,0.0265 -0.635,0.0794 -1.00542,0.10584 -0.37041,0 -0.92604,0 -1.24354,0 -0.34396,0 -0.50271,-0.0265 -0.74083,-0.0529 -0.23813,-0.0265 -0.55563,-0.0529 -0.66146,-0.0529 z"
       class="g1_16"
       id="path115"
       style="display:block;fill:#000000;fill-opacity:0;stroke-width:0.264583" />
    <path
       d="m 122.57089,141.7722 c -0.18521,0.0265 -0.635,0.0794 -1.00542,0.10584 -0.37041,0 -0.92604,0 -1.24354,0 -0.34396,0 -0.50271,-0.0265 -0.74083,-0.0529 -0.23813,-0.0265 -0.55563,-0.0529 -0.66146,-0.0529"
       class="gd_16"
       id="path116"
       style="display:block;fill:none;stroke:#073763;stroke-width:0.302948;stroke-linejoin:round" />
    <path
       fill-rule="evenodd"
       d="m 123.68214,141.34887 c 0.0265,-0.0265 0.10583,-0.0529 0.13229,-0.15875 0.0265,-0.10583 0.0529,-0.23812 0.0794,-0.47625 0.0529,-0.23812 0.13229,-0.635 0.15875,-0.92604 0.0264,-0.29104 0.0264,-0.55563 0,-0.82021 0,-0.26458 -0.0265,-0.44979 -0.0794,-0.71437 -0.0794,-0.26459 -0.21167,-0.71438 -0.26458,-0.87313 z"
       class="g1_16"
       id="path117"
       style="display:block;fill:#000000;fill-opacity:0;stroke-width:0.264583" />
    <path
       d="m 123.68214,141.34887 c 0.0265,-0.0265 0.10583,-0.0529 0.13229,-0.15875 0.0265,-0.10583 0.0529,-0.23812 0.0794,-0.47625 0.0529,-0.23812 0.13229,-0.635 0.15875,-0.92604 0.0264,-0.29104 0.0264,-0.55563 0,-0.82021 0,-0.26458 -0.0265,-0.44979 -0.0794,-0.71437 -0.0794,-0.26459 -0.21167,-0.71438 -0.26458,-0.87313"
       class="gd_16"
       id="path118"
       style="display:block;fill:none;stroke:#073763;stroke-width:0.302948;stroke-linejoin:round" />
    <path
       fill-rule="evenodd"
       d="m 117.75547,141.40179 c -0.0265,-0.0265 -0.0794,-0.10584 -0.10583,-0.21167 -0.0529,-0.10583 -0.0529,-0.18521 -0.0794,-0.37042 -0.0529,-0.15875 -0.10583,-0.39687 -0.13229,-0.635 -0.0265,-0.23812 -0.0529,-0.47625 -0.0529,-0.71437 0,-0.26458 0.0264,-0.60854 0.0264,-0.79375 0.0265,-0.18521 -0.0264,-0.10583 0.0265,-0.3175 0.0529,-0.21167 0.23813,-0.79375 0.29104,-0.9525 z"
       class="g1_16"
       id="path119"
       style="display:block;fill:#000000;fill-opacity:0;stroke-width:0.264583" />
    <path
       d="m 117.75547,141.40179 c -0.0265,-0.0265 -0.0794,-0.10584 -0.10583,-0.21167 -0.0529,-0.10583 -0.0529,-0.18521 -0.0794,-0.37042 -0.0529,-0.15875 -0.10583,-0.39687 -0.13229,-0.635 -0.0265,-0.23812 -0.0529,-0.47625 -0.0529,-0.71437 0,-0.26458 0.0264,-0.60854 0.0264,-0.79375 0.0265,-0.18521 -0.0264,-0.10583 0.0265,-0.3175 0.0529,-0.21167 0.23813,-0.79375 0.29104,-0.9525"
       class="gd_16"
       id="path120"
       style="display:block;fill:none;stroke:#073763;stroke-width:0.302948;stroke-linejoin:round" />
    <path
       fill-rule="evenodd"
       d="m 119.95151,137.53887 2.30188,-1.64042 h 0.3175 l 0.21167,0.0265 0.13229,0.0794 0.10583,0.10583 0.39688,0.97896 -0.0265,0.0794 -0.0794,0.0794 -0.58208,0.15875 -0.66146,0.10583 -0.68792,0.0529 -0.5027,0.0265 -0.52917,-0.0265 z"
       class="gf_16"
       id="path121"
       style="display:block;fill:#cfe2f3;stroke-width:0.264583" />
  </g>
</svg>
