<?xml version="1.0" encoding="UTF-8" standalone="no"?>
<!-- Created with Inkscape (http://www.inkscape.org/) -->

<svg
   width="28.558001mm"
   height="65.733002mm"
   viewBox="0 0 28.558001 65.733002"
   version="1.1"
   id="svg1"
   inkscape:version="1.3.2 (1:1.3.2+202311252150+091e20ef0f)"
   sodipodi:docname="vm-01-10_1.svg"
   xmlns:inkscape="http://www.inkscape.org/namespaces/inkscape"
   xmlns:sodipodi="http://sodipodi.sourceforge.net/DTD/sodipodi-0.dtd"
   xmlns="http://www.w3.org/2000/svg"
   xmlns:svg="http://www.w3.org/2000/svg">
  <sodipodi:namedview
     id="namedview1"
     pagecolor="#ffffff"
     bordercolor="#000000"
     borderopacity="0.25"
     inkscape:showpageshadow="2"
     inkscape:pageopacity="0.0"
     inkscape:pagecheckerboard="0"
     inkscape:deskcolor="#d1d1d1"
     inkscape:document-units="mm"
     inkscape:zoom="1.7131103"
     inkscape:cx="468.4462"
     inkscape:cy="558.34117"
     inkscape:window-width="3840"
     inkscape:window-height="2123"
     inkscape:window-x="0"
     inkscape:window-y="0"
     inkscape:window-maximized="1"
     inkscape:current-layer="layer1" />
  <defs
     id="defs1" />
  <g
     inkscape:label="Layer 1"
     inkscape:groupmode="layer"
     id="layer1"
     transform="translate(19.050001,11.641672)">
    <path
       fill-rule="evenodd"
       d="M -15.483486,-7.8423181 H 5.0746393 V 49.889765 H -15.483486 Z"
       class="g3_18"
       id="path138"
       style="display:block;fill:#999999;stroke-width:0.264583" />
    <path
       fill-rule="evenodd"
       d="m -14.107652,-7.8423181 0.05292,57.2558331 z"
       class="g1_18"
       id="path139"
       style="display:block;fill:#000000;fill-opacity:0;stroke-width:0.264583" />
    <path
       d="m -14.107652,-7.8423181 0.05292,57.2558331"
       class="g4_18"
       id="path140"
       style="display:block;fill:none;stroke:#f3f3f3;stroke-width:0.909373;stroke-linejoin:round" />
    <path
       fill-rule="evenodd"
       d="M 3.5929727,-7.6835681 3.540056,49.731015 Z"
       class="g1_18"
       id="path141"
       style="display:block;fill:#000000;fill-opacity:0;stroke-width:0.264583" />
    <path
       d="M 3.5929727,-7.6835681 3.540056,49.731015"
       class="g4_18"
       id="path142"
       style="display:block;fill:none;stroke:#f3f3f3;stroke-width:0.909373;stroke-linejoin:round" />
    <path
       fill-rule="evenodd"
       d="M -5.7468189,42.34914 V 31.607057 l 5.52979158,-5.000625 -0.15875,-12.647083 L -5.1382772,7.0537236 V -7.5248181 Z"
       class="g1_18"
       id="path143"
       style="display:block;fill:#000000;fill-opacity:0;stroke-width:0.264583" />
    <path
       d="M -5.7468189,42.34914 V 31.607057 l 5.52979158,-5.000625 -0.15875,-12.647083 -4.76249988,-6.9056254 v -9.1281249"
       class="g9_18"
       id="path144"
       style="display:block;fill:none;stroke:#ff9900;stroke-width:0.909373;stroke-linejoin:round" />
    <path
       fill-rule="evenodd"
       d="m -3.6301522,-2.0744013 -1.508125,-4.1274998 -1.5081246,4.1274998 z"
       class="ga_18"
       id="path145"
       style="display:block;fill:#ff9900;stroke:#ff9900;stroke-width:0.909373;stroke-miterlimit:10" />
    <path
       fill-rule="evenodd"
       d="m -8.5778608,39.49164 v 0 c 0,-0.05292 0.02646,-0.07937 0.07937,-0.07937 h 0.370417 c 0.02646,0 0.05292,0 0.05292,0.02646 0.02646,0 0.02646,0.02646 0.02646,0.05292 v 1.481667 c 0,0.05292 -0.02646,0.07937 -0.07938,0.07937 h -0.370417 c -0.05292,0 -0.07937,-0.02646 -0.07937,-0.07937 z"
       class="gb_18"
       id="path146"
       style="display:block;fill:#000000;stroke-width:0.264583" />
    <path
       fill-rule="evenodd"
       d="m -3.7359856,39.49164 v 0 c 0,-0.05292 0.026458,-0.07937 0.079375,-0.07937 h 0.3704167 c 0.026458,0 0.052917,0 0.079375,0.02646 0,0 0.026458,0.02646 0.026458,0.05292 v 1.481667 c 0,0.05292 -0.052917,0.07937 -0.1058333,0.07937 h -0.3704167 c -0.052917,0 -0.079375,-0.02646 -0.079375,-0.07937 z"
       class="gb_18"
       id="path147"
       style="display:block;fill:#000000;stroke-width:0.264583" />
    <path
       fill-rule="evenodd"
       d="m -8.5778608,45.550598 v 0 c 0,-0.05292 0.02646,-0.105833 0.07937,-0.105833 h 0.370417 c 0.02646,0 0.05292,0.02646 0.05292,0.02646 0.02646,0.02646 0.02646,0.05292 0.02646,0.07937 v 1.455209 c 0,0.05292 -0.02646,0.105833 -0.07938,0.105833 h -0.370417 c -0.05292,0 -0.07937,-0.05292 -0.07937,-0.105833 z"
       class="gb_18"
       id="path148"
       style="display:block;fill:#000000;stroke-width:0.264583" />
    <path
       fill-rule="evenodd"
       d="m -3.7359856,45.550598 v 0 c 0,-0.05292 0.026458,-0.105833 0.079375,-0.105833 h 0.3704167 c 0.026458,0 0.052917,0.02646 0.079375,0.02646 0,0.02646 0.026458,0.05292 0.026458,0.07937 v 1.455209 c 0,0.05292 -0.052917,0.105833 -0.1058333,0.105833 h -0.3704167 c -0.052917,0 -0.079375,-0.05292 -0.079375,-0.105833 z"
       class="gb_18"
       id="path149"
       style="display:block;fill:#000000;stroke-width:0.264583" />
    <path
       fill-rule="evenodd"
       d="m -8.3926518,39.279973 v 0 c 0,-0.767291 0.635,-1.402291 1.402291,-1.402291 h 2.2754169 c 0.3704167,0 0.714375,0.15875 0.9789583,0.423333 0.2645834,0.238125 0.4233334,0.608542 0.4233334,0.978958 v 7.911042 c 0,0.767292 -0.635,1.402292 -1.4022917,1.402292 h -2.2754169 c -0.767291,0 -1.402291,-0.635 -1.402291,-1.402292 z"
       class="gc_18"
       id="path150"
       style="display:block;fill:#3d85c6;stroke-width:0.264583" />
    <path
       fill-rule="evenodd"
       d="m -6.3553605,37.798307 v 0 c 0,-0.02646 0.026458,-0.02646 0.052917,-0.02646 h 0.873125 c 0,0 0.026458,0 0.026458,0 q 0,0.02646 0,0.02646 v 0.15875 c 0,0.02646 0,0.05292 -0.026458,0.05292 h -0.873125 c -0.026458,0 -0.052917,-0.02646 -0.052917,-0.05292 z"
       class="gd_18"
       id="path151"
       style="display:block;fill:#efefef;stroke-width:0.264583" />
    <path
       fill-rule="evenodd"
       d="m -7.6782768,38.301015 0.05292,0.3175 0.396875,-0.07937 0.07937,-0.05292 0.05292,-0.02646 v -0.07937 l -0.02646,-0.05292 -0.02646,-0.07937 h -0.264583 z"
       class="g0_18"
       id="path152"
       style="display:block;fill:#ffffff;stroke-width:0.264583" />
    <path
       fill-rule="evenodd"
       d="m -4.0799439,38.301015 -0.052917,0.3175 -0.3704166,-0.07937 -0.1058333,-0.05292 -0.026458,-0.02646 -0.026458,-0.07937 0.026458,-0.05292 0.026458,-0.07937 h 0.2645833 z"
       class="g0_18"
       id="path153"
       style="display:block;fill:#ffffff;stroke-width:0.264583" />
    <path
       fill-rule="evenodd"
       d="m -7.8105688,41.264348 0.343958,1.058334 0.05292,0.07937 0.105833,0.05292 h 2.8045836 l 0.1058333,-0.02646 0.079375,-0.07937 0.3439583,-0.926042 v -0.132291 l -0.079375,-0.105834 -0.3704166,-0.132291 -0.5820833,-0.105834 -0.47625,-0.05292 h -0.5291667 l -0.3175,0.02646 h -0.2645836 l -0.3175,0.05292 -0.3175,0.07937 -0.238125,0.07937 -0.211666,0.07937 z"
       class="ge_18"
       id="path154"
       style="display:block;fill:#9fc5e8;stroke-width:0.264583" />
    <path
       d="m -7.8105688,41.264348 0.343958,1.058334 0.05292,0.07937 0.105833,0.05292 h 2.8045836 l 0.1058333,-0.02646 0.079375,-0.07937 0.3439583,-0.926042 v -0.132291 l -0.079375,-0.105834 -0.3704166,-0.132291 -0.5820833,-0.105834 -0.47625,-0.05292 h -0.5291667 l -0.3175,0.02646 h -0.2645836 l -0.3175,0.05292 -0.3175,0.07937 -0.238125,0.07937 -0.211666,0.07937 z"
       class="gf_18"
       id="path155"
       style="display:block;fill:none;stroke:#073763;stroke-width:0.302948;stroke-linejoin:round" />
    <path
       fill-rule="evenodd"
       d="m -8.1016108,41.634765 v 5.318125 l 0.02646,0.105833 0.105833,0.05292 0.396875,-0.370417 0.105833,-0.211666 0.07937,-0.185209 -0.05292,-3.122083 -0.05292,-0.238125 -0.132292,-0.396875 -0.185208,-0.396875 z"
       class="ge_18"
       id="path156"
       style="display:block;fill:#9fc5e8;stroke-width:0.264583" />
    <path
       d="m -8.1016108,41.634765 v 5.318125 l 0.02646,0.105833 0.105833,0.05292 0.396875,-0.370417 0.105833,-0.211666 0.07937,-0.185209 -0.05292,-3.122083 -0.05292,-0.238125 -0.132292,-0.396875 -0.185208,-0.396875 z"
       class="gf_18"
       id="path157"
       style="display:block;fill:none;stroke:#073763;stroke-width:0.302948;stroke-linejoin:round" />
    <path
       fill-rule="evenodd"
       d="m -3.5772356,41.687682 v 5.344583 l -0.026458,0.07937 -0.1058333,0.05292 -0.396875,-0.370417 -0.1322917,-0.211667 -0.052917,-0.185208 0.052917,-3.122083 0.052917,-0.211667 0.1322916,-0.423333 0.1852084,-0.396875 z"
       class="ge_18"
       id="path158"
       style="display:block;fill:#9fc5e8;stroke-width:0.264583" />
    <path
       d="m -3.5772356,41.687682 v 5.344583 l -0.026458,0.07937 -0.1058333,0.05292 -0.396875,-0.370417 -0.1322917,-0.211667 -0.052917,-0.185208 0.052917,-3.122083 0.052917,-0.211667 0.1322916,-0.423333 0.1852084,-0.396875 z"
       class="gf_18"
       id="path159"
       style="display:block;fill:none;stroke:#073763;stroke-width:0.302948;stroke-linejoin:round" />
    <path
       fill-rule="evenodd"
       d="m -8.1016108,41.581848 -0.105833,-0.02646 h -0.132292 l -0.105833,0.02646 -0.15875,0.05292 -0.105833,0.07937 -0.02646,0.07937 0.02646,0.07938 0.05292,0.07937 0.132292,0.05292 0.185208,0.02646 h 0.132292 l 0.105833,-0.05292 0.07938,-0.105833 0.02646,-0.07938 v -0.07937 l -0.05292,-0.07937 z"
       class="gg_18"
       id="path160"
       style="display:block;fill:#0b5394;stroke-width:0.264583" />
    <path
       fill-rule="evenodd"
       d="m -3.6301522,41.581848 0.1058333,-0.02646 h 0.1322917 l 0.1058333,0.02646 0.15875,0.05292 0.1058333,0.07937 v 0.15875 l -0.052917,0.07937 -0.1322917,0.05292 -0.1852083,0.02646 h -0.1322917 l -0.1058333,-0.05292 -0.079375,-0.105833 -0.026458,-0.07938 v -0.07937 l 0.026458,-0.07937 z"
       class="gg_18"
       id="path161"
       style="display:block;fill:#0b5394;stroke-width:0.264583" />
    <path
       fill-rule="evenodd"
       d="m -6.3553605,48.461015 v 0 c 0,-0.02646 0.026458,-0.02646 0.052917,-0.02646 h 0.873125 c 0,0 0.026458,0 0.026458,0 q 0,0.02646 0,0.02646 v 0.15875 c 0,0.02646 0,0.05292 -0.026458,0.05292 h -0.873125 c -0.026458,0 -0.052917,-0.02646 -0.052917,-0.05292 z"
       class="gd_18"
       id="path162"
       style="display:block;fill:#efefef;stroke-width:0.264583" />
    <path
       fill-rule="evenodd"
       d="m -7.6782768,48.646223 0.05292,-0.3175 0.396875,0.105834 0.07937,0.02646 0.05292,0.05292 v 0.05292 l -0.02646,0.07938 -0.02646,0.05292 h -0.264583 z"
       class="gg_18"
       id="path163"
       style="display:block;fill:#0b5394;stroke-width:0.264583" />
    <path
       fill-rule="evenodd"
       d="m -4.0799439,48.646223 -0.052917,-0.3175 -0.3704166,0.105834 -0.1058333,0.02646 -0.026458,0.05292 -0.026458,0.05292 0.026458,0.07938 0.026458,0.05292 h 0.2645833 z"
       class="gg_18"
       id="path164"
       style="display:block;fill:#0b5394;stroke-width:0.264583" />
    <path
       fill-rule="evenodd"
       d="m -7.1491108,46.899973 h -0.07937 l -0.687916,0.582084 -0.05292,0.132291 0.02646,0.105834 0.211667,0.132291 0.264583,0.105834 0.370417,0.105833 0.423333,0.05292 0.4233336,0.02646 h 0.4233333 l 0.47625,-0.02646 h 0.4497917 l 0.5027083,-0.105834 0.3175,-0.132291 0.238125,-0.15875 0.052917,-0.132292 -0.079375,-0.105833 -0.6085417,-0.529167 -0.052917,-0.05292 -0.6879167,-0.02646 h -1.3229165 z"
       class="ge_18"
       id="path165"
       style="display:block;fill:#9fc5e8;stroke-width:0.264583" />
    <path
       d="m -7.1491108,46.899973 h -0.07937 l -0.687916,0.582084 -0.05292,0.132291 0.02646,0.105834 0.211667,0.132291 0.264583,0.105834 0.370417,0.105833 0.423333,0.05292 0.4233336,0.02646 h 0.4233333 l 0.47625,-0.02646 h 0.4497917 l 0.5027083,-0.105834 0.3175,-0.132291 0.238125,-0.15875 0.052917,-0.132292 -0.079375,-0.105833 -0.6085417,-0.529167 -0.052917,-0.05292 -0.6879167,-0.02646 h -1.3229165 z"
       class="gf_18"
       id="path166"
       style="display:block;fill:none;stroke:#073763;stroke-width:0.302948;stroke-linejoin:round" />
    <path
       fill-rule="evenodd"
       d="m -7.0961938,38.353932 c 0.105833,-0.02646 0.396875,-0.05292 0.661458,-0.07937 0.2381253,0 0.6085419,0 0.8202086,0 0.2116667,0 0.3175,0.02646 0.47625,0.02646 0.15875,0.02646 0.3704167,0.05292 0.4497917,0.05292 z"
       class="g1_18"
       id="path167"
       style="display:block;fill:#000000;fill-opacity:0;stroke-width:0.264583" />
    <path
       d="m -7.0961938,38.353932 c 0.105833,-0.02646 0.396875,-0.05292 0.661458,-0.07937 0.2381253,0 0.6085419,0 0.8202086,0 0.2116667,0 0.3175,0.02646 0.47625,0.02646 0.15875,0.02646 0.3704167,0.05292 0.4497917,0.05292"
       class="gf_18"
       id="path168"
       style="display:block;fill:none;stroke:#073763;stroke-width:0.302948;stroke-linejoin:round" />
    <path
       fill-rule="evenodd"
       d="m -7.8370268,38.618515 c -0.02646,0.02646 -0.07938,0.05292 -0.105834,0.105833 0,0.07937 -0.02646,0.15875 -0.05292,0.3175 -0.02646,0.15875 -0.07938,0.449792 -0.07938,0.635 -0.02646,0.185209 -0.02646,0.370417 -0.02646,0.529167 0.02646,0.15875 0.02646,0.291042 0.07938,0.47625 0.02646,0.185208 0.132292,0.47625 0.15875,0.582083 z"
       class="g1_18"
       id="path169"
       style="display:block;fill:#000000;fill-opacity:0;stroke-width:0.264583" />
    <path
       d="m -7.8370268,38.618515 c -0.02646,0.02646 -0.07938,0.05292 -0.105834,0.105833 0,0.07937 -0.02646,0.15875 -0.05292,0.3175 -0.02646,0.15875 -0.07938,0.449792 -0.07938,0.635 -0.02646,0.185209 -0.02646,0.370417 -0.02646,0.529167 0.02646,0.15875 0.02646,0.291042 0.07938,0.47625 0.02646,0.185208 0.132292,0.47625 0.15875,0.582083"
       class="gf_18"
       id="path170"
       style="display:block;fill:none;stroke:#073763;stroke-width:0.302948;stroke-linejoin:round" />
    <path
       fill-rule="evenodd"
       d="m -3.9211939,38.592057 c 0.026458,0.02646 0.052917,0.07937 0.079375,0.132291 0.026458,0.07937 0.026458,0.132292 0.052917,0.238125 0.026458,0.132292 0.052917,0.291042 0.079375,0.449792 0.026458,0.132292 0.026458,0.291042 0.026458,0.47625 0,0.15875 -0.026458,0.370417 -0.026458,0.502708 0,0.132292 0.026458,0.07937 0,0.238125 -0.026458,0.132292 -0.15875,0.502709 -0.1852084,0.608542 z"
       class="g1_18"
       id="path171"
       style="display:block;fill:#000000;fill-opacity:0;stroke-width:0.264583" />
    <path
       d="m -3.9211939,38.592057 c 0.026458,0.02646 0.052917,0.07937 0.079375,0.132291 0.026458,0.07937 0.026458,0.132292 0.052917,0.238125 0.026458,0.132292 0.052917,0.291042 0.079375,0.449792 0.026458,0.132292 0.026458,0.291042 0.026458,0.47625 0,0.15875 -0.026458,0.370417 -0.026458,0.502708 0,0.132292 0.026458,0.07937 0,0.238125 -0.026458,0.132292 -0.15875,0.502709 -0.1852084,0.608542"
       class="gf_18"
       id="path172"
       style="display:block;fill:none;stroke:#073763;stroke-width:0.302948;stroke-linejoin:round" />
    <path
       fill-rule="evenodd"
       d="m -5.3764022,41.158515 -1.5345836,1.084792 h -0.185208 l -0.15875,-0.02646 -0.07937,-0.05292 -0.07938,-0.07937 -0.264583,-0.635 0.02646,-0.05292 0.05292,-0.05292 0.396875,-0.105833 0.423333,-0.05292 0.4497916,-0.05292 h 0.6879167 z"
       class="gh_18"
       id="path173"
       style="display:block;fill:#cfe2f3;stroke-width:0.264583" />
    <path
       fill-rule="evenodd"
       d="m -3.2597356,16.419974 v 0 c 0,-0.05292 0.052917,-0.07938 0.1058334,-0.07938 h 0.3704166 q 0.026458,0 0.052917,0.02646 c 0.026458,0 0.026458,0.02646 0.026458,0.05292 v 1.481666 c 0,0.05292 -0.026458,0.07938 -0.079375,0.07938 h -0.3704166 c -0.052917,0 -0.1058334,-0.02646 -0.1058334,-0.07938 z"
       class="gb_18"
       id="path174"
       style="display:block;fill:#000000;stroke-width:0.264583" />
    <path
       fill-rule="evenodd"
       d="m 1.6085977,16.419974 v 0 c 0,-0.05292 0.026458,-0.07938 0.079375,-0.07938 h 0.3704167 c 0.026458,0 0.052917,0 0.052917,0.02646 0.026458,0 0.026458,0.02646 0.026458,0.05292 v 1.481666 c 0,0.05292 -0.026458,0.07938 -0.079375,0.07938 H 1.6879727 c -0.052917,0 -0.079375,-0.02646 -0.079375,-0.07938 z"
       class="gb_18"
       id="path175"
       style="display:block;fill:#000000;stroke-width:0.264583" />
    <path
       fill-rule="evenodd"
       d="m -3.2597356,22.478932 v 0 c 0,-0.05292 0.052917,-0.105833 0.1058334,-0.105833 h 0.3704166 c 0.026458,0 0.026458,0.02646 0.052917,0.02646 0.026458,0.02646 0.026458,0.05292 0.026458,0.07938 v 1.455208 c 0,0.05292 -0.026458,0.105833 -0.079375,0.105833 h -0.3704166 c -0.052917,0 -0.1058334,-0.05292 -0.1058334,-0.105833 z"
       class="gb_18"
       id="path176"
       style="display:block;fill:#000000;stroke-width:0.264583" />
    <path
       fill-rule="evenodd"
       d="m 1.6085977,22.478932 v 0 c 0,-0.05292 0.026458,-0.105833 0.079375,-0.105833 h 0.3704167 c 0.026458,0 0.052917,0.02646 0.052917,0.02646 0.026458,0.02646 0.026458,0.05292 0.026458,0.07938 v 1.455208 c 0,0.05292 -0.026458,0.105833 -0.079375,0.105833 H 1.6879727 c -0.052917,0 -0.079375,-0.05292 -0.079375,-0.105833 z"
       class="gb_18"
       id="path177"
       style="display:block;fill:#000000;stroke-width:0.264583" />
    <path
       fill-rule="evenodd"
       d="m -3.0480689,16.208307 v 0 c 0,-0.767292 0.6085417,-1.402292 1.4022917,-1.402292 h 2.27541658 c 0.37041672,0 0.71437502,0.15875 0.97895832,0.423334 0.2645833,0.264583 0.4233333,0.608541 0.4233333,0.978958 v 7.911041 c 0,0.767292 -0.635,1.402292 -1.40229162,1.402292 H -1.6457772 c -0.79375,0 -1.4022917,-0.635 -1.4022917,-1.402292 z"
       class="gc_18"
       id="path178"
       style="display:block;fill:#3d85c6;stroke-width:0.264583" />
    <path
       fill-rule="evenodd"
       d="m -1.0107773,14.72664 v 0 c 0,0 0.026458,-0.02646 0.026458,-0.02646 h 0.8995833 c 0,0 0.026458,0 0.026458,0 q 0,0.02646 0,0.02646 v 0.15875 c 0,0.02646 0,0.05292 -0.026458,0.05292 h -0.8995833 c 0,0 -0.026458,-0.02646 -0.026458,-0.05292 z"
       class="gd_18"
       id="path179"
       style="display:block;fill:#efefef;stroke-width:0.264583" />
    <path
       fill-rule="evenodd"
       d="m -2.3336939,15.229349 0.052917,0.3175 0.3704166,-0.07938 0.1058334,-0.05292 0.026458,-0.02646 0.026458,-0.07937 -0.026458,-0.05292 -0.026458,-0.05292 -0.1058334,-0.02646 h -0.15875 z"
       class="g0_18"
       id="path180"
       style="display:block;fill:#ffffff;stroke-width:0.264583" />
    <path
       fill-rule="evenodd"
       d="m 1.2646394,15.229349 -0.052917,0.3175 -0.39687502,-0.07938 -0.079375,-0.05292 -0.052917,-0.02646 v -0.07937 l 0.026458,-0.05292 0.026458,-0.05292 0.1058334,-0.02646 H 1.0000548 Z"
       class="g0_18"
       id="path181"
       style="display:block;fill:#ffffff;stroke-width:0.264583" />
    <path
       fill-rule="evenodd"
       d="m -2.4659856,18.192682 0.3439584,1.058333 0.052917,0.07938 0.1058334,0.05292 h 2.80458328 l 0.1058333,-0.02646 0.079375,-0.07937 0.3439583,-0.926042 v -0.132292 l -0.079375,-0.07938 -0.39687502,-0.132291 -0.555625,-0.132292 -0.47625,-0.05292 h -0.5291666 l -0.34395838,0.02646 h -0.238125 l -0.3439583,0.05292 -0.2910416,0.07938 -0.238125,0.07938 -0.2116667,0.07937 z"
       class="ge_18"
       id="path182"
       style="display:block;fill:#9fc5e8;stroke-width:0.264583" />
    <path
       d="m -2.4659856,18.192682 0.3439584,1.058333 0.052917,0.07938 0.1058334,0.05292 h 2.80458328 l 0.1058333,-0.02646 0.079375,-0.07937 0.3439583,-0.926042 v -0.132292 l -0.079375,-0.07938 -0.39687502,-0.132291 -0.555625,-0.132292 -0.47625,-0.05292 h -0.5291666 l -0.34395838,0.02646 h -0.238125 l -0.3439583,0.05292 -0.2910416,0.07938 -0.238125,0.07938 -0.2116667,0.07937 z"
       class="gf_18"
       id="path183"
       style="display:block;fill:none;stroke:#073763;stroke-width:0.302948;stroke-linejoin:round" />
    <path
       fill-rule="evenodd"
       d="m -2.7570272,18.563099 v 5.344583 l 0.026458,0.07938 0.1058333,0.05292 0.396875,-0.370416 0.1058334,-0.211667 0.079375,-0.185208 -0.079375,-3.122083 -0.026458,-0.211667 -0.1322916,-0.423333 -0.1852084,-0.396875 z"
       class="ge_18"
       id="path184"
       style="display:block;fill:#9fc5e8;stroke-width:0.264583" />
    <path
       d="m -2.7570272,18.563099 v 5.344583 l 0.026458,0.07938 0.1058333,0.05292 0.396875,-0.370416 0.1058334,-0.211667 0.079375,-0.185208 -0.079375,-3.122083 -0.026458,-0.211667 -0.1322916,-0.423333 -0.1852084,-0.396875 z"
       class="gf_18"
       id="path185"
       style="display:block;fill:none;stroke:#073763;stroke-width:0.302948;stroke-linejoin:round" />
    <path
       fill-rule="evenodd"
       d="m 1.7408894,18.642474 v 5.423958 L 1.635056,24.092892 1.238181,23.722475 1.1058894,23.510809 1.0529724,23.3256 l 0.052917,-3.095624 0.052917,-0.238125 0.1322917,-0.423334 0.15875,-0.396875 z"
       class="ge_18"
       id="path186"
       style="display:block;fill:#9fc5e8;stroke-width:0.264583" />
    <path
       d="m 1.7408894,18.642474 v 5.423958 L 1.635056,24.092892 1.238181,23.722475 1.1058894,23.510809 1.0529724,23.3256 l 0.052917,-3.095624 0.052917,-0.238125 0.1322917,-0.423334 0.15875,-0.396875 z"
       class="gf_18"
       id="path187"
       style="display:block;fill:none;stroke:#073763;stroke-width:0.302948;stroke-linejoin:round" />
    <path
       fill-rule="evenodd"
       d="m -2.7570272,18.510182 -0.1058334,-0.02646 h -0.1322916 l -0.1322917,0.02646 -0.1322917,0.05292 -0.1058333,0.07938 -0.026458,0.07937 v 0.07938 l 0.079375,0.07937 0.1058333,0.05292 0.1852083,0.02646 h 0.15875 l 0.1058334,-0.05292 0.079375,-0.105833 0.026458,-0.05292 v -0.105835 l -0.052917,-0.07938 z"
       class="gg_18"
       id="path188"
       style="display:block;fill:#0b5394;stroke-width:0.264583" />
    <path
       fill-rule="evenodd"
       d="m 1.714431,18.510182 0.1058334,-0.02646 H 1.952556 l 0.1058334,0.02646 0.1322916,0.05292 0.1058334,0.07938 0.026458,0.07937 v 0.07938 l -0.079375,0.07937 -0.1058333,0.05292 -0.1852084,0.02646 H 1.8202641 l -0.1058334,-0.05292 -0.079375,-0.105833 -0.026458,-0.05292 v -0.105835 l 0.026458,-0.07938 z"
       class="gg_18"
       id="path189"
       style="display:block;fill:#0b5394;stroke-width:0.264583" />
    <path
       fill-rule="evenodd"
       d="m -1.0107773,25.389348 v 0 c 0,0 0.026458,-0.02646 0.026458,-0.02646 h 0.8995833 c 0,0 0.026458,0 0.026458,0 q 0,0.02646 0,0.02646 v 0.15875 c 0,0.02646 0,0.05292 -0.026458,0.05292 h -0.8995833 c 0,0 -0.026458,-0.02646 -0.026458,-0.05292 z"
       class="gd_18"
       id="path190"
       style="display:block;fill:#efefef;stroke-width:0.264583" />
    <path
       fill-rule="evenodd"
       d="m -2.3336939,25.574557 0.052917,-0.3175 0.3704166,0.105833 0.1058334,0.02646 0.026458,0.05292 0.026458,0.05292 -0.026458,0.07937 -0.026458,0.05292 h -0.2645834 z"
       class="gg_18"
       id="path191"
       style="display:block;fill:#0b5394;stroke-width:0.264583" />
    <path
       fill-rule="evenodd"
       d="m 1.2646394,25.574557 -0.052917,-0.3175 -0.39687502,0.105833 -0.079375,0.02646 -0.052917,0.05292 v 0.05292 l 0.026458,0.07937 0.026458,0.05292 H 1.0000548 Z"
       class="gg_18"
       id="path192"
       style="display:block;fill:#0b5394;stroke-width:0.264583" />
    <path
       fill-rule="evenodd"
       d="m -1.8045272,23.828307 -0.1058334,0.02646 -0.6614583,0.555625 -0.052917,0.132292 0.026458,0.105833 0.2116666,0.132292 0.238125,0.105833 0.396875,0.105833 0.396875,0.05292 0.42333328,0.05292 0.4497917,-0.02646 h 0.47625 l 0.4233333,-0.02646 0.5027084,-0.105833 0.34395832,-0.105834 0.238125,-0.185208 0.052917,-0.132292 -0.079375,-0.105833 -0.60854162,-0.529167 -0.052917,-0.02646 -0.714375,-0.05292 h -0.7672916 l -0.55562498,0.02646 z"
       class="ge_18"
       id="path193"
       style="display:block;fill:#9fc5e8;stroke-width:0.264583" />
    <path
       d="m -1.8045272,23.828307 -0.1058334,0.02646 -0.6614583,0.555625 -0.052917,0.132292 0.026458,0.105833 0.2116666,0.132292 0.238125,0.105833 0.396875,0.105833 0.396875,0.05292 0.42333328,0.05292 0.4497917,-0.02646 h 0.47625 l 0.4233333,-0.02646 0.5027084,-0.105833 0.34395832,-0.105834 0.238125,-0.185208 0.052917,-0.132292 -0.079375,-0.105833 -0.60854162,-0.529167 -0.052917,-0.02646 -0.714375,-0.05292 h -0.7672916 l -0.55562498,0.02646 z"
       class="gf_18"
       id="path194"
       style="display:block;fill:none;stroke:#073763;stroke-width:0.302948;stroke-linejoin:round" />
    <path
       fill-rule="evenodd"
       d="m -1.7516106,15.282265 c 0.1058334,-0.02646 0.396875,-0.05292 0.6614583,-0.05292 0.23812498,-0.02646 0.58208338,-0.02646 0.82020838,-0.02646 0.2116666,0 0.3175,0.02646 0.47625,0.05292 0.15875,0 0.3704166,0.02646 0.4497916,0.02646 z"
       class="g1_18"
       id="path195"
       style="display:block;fill:#000000;fill-opacity:0;stroke-width:0.264583" />
    <path
       d="m -1.7516106,15.282265 c 0.1058334,-0.02646 0.396875,-0.05292 0.6614583,-0.05292 0.23812498,-0.02646 0.58208338,-0.02646 0.82020838,-0.02646 0.2116666,0 0.3175,0.02646 0.47625,0.05292 0.15875,0 0.3704166,0.02646 0.4497916,0.02646"
       class="gf_18"
       id="path196"
       style="display:block;fill:none;stroke:#073763;stroke-width:0.302948;stroke-linejoin:round" />
    <path
       fill-rule="evenodd"
       d="m -2.5189022,15.546849 c 0,0.02646 -0.052917,0.05292 -0.079375,0.105833 -0.026458,0.07938 -0.026458,0.185208 -0.052917,0.343958 -0.026458,0.132292 -0.079375,0.423334 -0.1058333,0.608542 0,0.185208 0,0.370417 0,0.529167 0.026458,0.15875 0.026458,0.3175 0.079375,0.47625 0.026458,0.185208 0.1322916,0.47625 0.15875,0.582083 z"
       class="g1_18"
       id="path197"
       style="display:block;fill:#000000;fill-opacity:0;stroke-width:0.264583" />
    <path
       d="m -2.5189022,15.546849 c 0,0.02646 -0.052917,0.05292 -0.079375,0.105833 -0.026458,0.07938 -0.026458,0.185208 -0.052917,0.343958 -0.026458,0.132292 -0.079375,0.423334 -0.1058333,0.608542 0,0.185208 0,0.370417 0,0.529167 0.026458,0.15875 0.026458,0.3175 0.079375,0.47625 0.026458,0.185208 0.1322916,0.47625 0.15875,0.582083"
       class="gf_18"
       id="path198"
       style="display:block;fill:none;stroke:#073763;stroke-width:0.302948;stroke-linejoin:round" />
    <path
       fill-rule="evenodd"
       d="m 1.4233894,15.52039 c 0,0.02646 0.052917,0.07938 0.079375,0.15875 0.026458,0.05292 0.026458,0.105834 0.052917,0.238125 0.026458,0.105834 0.052917,0.264584 0.079375,0.423334 0.026458,0.132291 0.026458,0.291041 0.026458,0.47625 0,0.15875 -0.026458,0.396875 -0.026458,0.502708 0,0.132292 0.026458,0.07937 0,0.238125 -0.026458,0.132292 -0.15875,0.502708 -0.1852083,0.608542 z"
       class="g1_18"
       id="path199"
       style="display:block;fill:#000000;fill-opacity:0;stroke-width:0.264583" />
    <path
       d="m 1.4233894,15.52039 c 0,0.02646 0.052917,0.07938 0.079375,0.15875 0.026458,0.05292 0.026458,0.105834 0.052917,0.238125 0.026458,0.105834 0.052917,0.264584 0.079375,0.423334 0.026458,0.132291 0.026458,0.291041 0.026458,0.47625 0,0.15875 -0.026458,0.396875 -0.026458,0.502708 0,0.132292 0.026458,0.07937 0,0.238125 -0.026458,0.132292 -0.15875,0.502708 -0.1852083,0.608542"
       class="gf_18"
       id="path200"
       style="display:block;fill:none;stroke:#073763;stroke-width:0.302948;stroke-linejoin:round" />
    <path
       fill-rule="evenodd"
       d="M -0.03181892,18.086849 -1.5664023,19.17164 h -0.2116666 l -0.1322917,-0.02646 -0.079375,-0.05292 -0.079375,-0.05292 -0.2645833,-0.661459 0.026458,-0.05292 0.052917,-0.05292 0.3704167,-0.105833 0.4497916,-0.05292 0.44979168,-0.05292 h 0.6879166 z"
       class="gh_18"
       id="path201"
       style="display:block;fill:#cfe2f3;stroke-width:0.264583" />
  </g>
</svg>
