<?xml version="1.0" encoding="UTF-8" standalone="no"?>
<!-- Created with Inkscape (http://www.inkscape.org/) -->

<svg
   width="101.608mm"
   height="70.183998mm"
   viewBox="0 0 101.608 70.183998"
   version="1.1"
   id="svg1"
   inkscape:version="1.3.2 (1:1.3.2+202311252150+091e20ef0f)"
   sodipodi:docname="vm-01-09_2.svg"
   xmlns:inkscape="http://www.inkscape.org/namespaces/inkscape"
   xmlns:sodipodi="http://sodipodi.sourceforge.net/DTD/sodipodi-0.dtd"
   xmlns="http://www.w3.org/2000/svg"
   xmlns:svg="http://www.w3.org/2000/svg">
  <sodipodi:namedview
     id="namedview1"
     pagecolor="#ffffff"
     bordercolor="#000000"
     borderopacity="0.25"
     inkscape:showpageshadow="2"
     inkscape:pageopacity="0.0"
     inkscape:pagecheckerboard="0"
     inkscape:deskcolor="#d1d1d1"
     inkscape:document-units="mm"
     inkscape:zoom="1.7131103"
     inkscape:cx="305.58453"
     inkscape:cy="186.50288"
     inkscape:window-width="3840"
     inkscape:window-height="2123"
     inkscape:window-x="0"
     inkscape:window-y="0"
     inkscape:window-maximized="1"
     inkscape:current-layer="layer1" />
  <defs
     id="defs1">
    <clipPath
       id="c0_17">
      <path
         d="M 0,825 V 0 h 1100 v 825 z"
         id="path2" />
    </clipPath>
  </defs>
  <g
     inkscape:label="Layer 1"
     inkscape:groupmode="layer"
     id="layer1"
     transform="translate(-24.077075,-99.21875)">
    <path
       fill-rule="evenodd"
       d="m 110.18318,102.98701 12.25021,12.14438 -13.99646,13.86416 -1.24354,1.32292 -1.03188,1.24354 -0.55562,0.97896 -0.58208,1.32292 -0.3175,1.50812 -0.29105,1.5875 v 1.40229 l 0.0529,1.69334 -0.0794,27.305 H 87.217347 v -28.78667 l 0.07937,-2.48708 0.3175,-3.46605 0.608542,-2.75166 0.9525,-2.93688 1.349375,-2.59291 1.481667,-2.64584 1.74625,-2.09021 1.375833,-1.61395 1.27,-1.29646 1.137708,-1.19063 z"
       class="g3_17"
       id="path40"
       style="display:block;fill:#666666;stroke-width:0.264583" />
    <path
       fill-rule="evenodd"
       d="m 115.89818,108.59618 0.34396,0.34396 -4.68313,4.68312 -0.42333,-0.39687 z"
       class="g0_17"
       id="path41"
       style="display:block;fill:#ffffff;stroke-width:0.264583" />
    <path
       fill-rule="evenodd"
       d="m 106.66422,117.77722 0.34396,0.3175 -4.68312,4.68312 -0.39688,-0.39687 z"
       class="g0_17"
       id="path42"
       style="display:block;fill:#ffffff;stroke-width:0.264583" />
    <path
       fill-rule="evenodd"
       d="m 95.313597,160.69264 h 0.529167 v 6.64104 h -0.529167 z"
       class="g0_17"
       id="path43"
       style="display:block;fill:#ffffff;stroke-width:0.264583" />
    <path
       fill-rule="evenodd"
       d="m 95.313597,148.68055 h 0.529167 v 6.64104 h -0.529167 z"
       class="g0_17"
       id="path44"
       style="display:block;fill:#ffffff;stroke-width:0.264583" />
    <path
       fill-rule="evenodd"
       d="m 95.313597,137.27701 h 0.529167 v 6.64104 h -0.529167 z"
       class="g0_17"
       id="path45"
       style="display:block;fill:#ffffff;stroke-width:0.264583" />
    <path
       fill-rule="evenodd"
       d="m 98.779639,126.32326 0.264583,0.15875 -0.3175,0.58208 -0.396875,0.68792 -0.423333,0.84667 -0.343958,0.79375 -0.211667,0.47625 -0.211667,0.52916 -0.15875,0.37042 -0.15875,0.39688 -0.132291,0.39687 -0.555625,-0.18521 0.264583,-0.635 0.3175,-0.76729 0.370417,-0.84667 0.396875,-0.92604 0.47625,-0.82021 0.396874,-0.635 0.291042,-0.52916 z"
       class="g0_17"
       id="path46"
       style="display:block;fill:#ffffff;stroke-width:0.264583" />
    <path
       fill-rule="evenodd"
       d="m 122.43339,115.13139 1.11125,1.11125 -12.51479,12.54125 -1.21709,1.16416 -1.21708,1.16417 -0.55562,0.71437 -0.52917,0.87313 -0.635,1.21708 -0.47625,1.34938 -0.26458,1.37583 -0.0265,1.13771 v 29.55396 h -1.64042 v -26.67 l 0.0265,-3.46604 0.29104,-2.38125 0.635,-1.64042 0.34396,-0.79375 0.89958,-1.42875 1.08479,-1.13771 0.97896,-1.05833 1.29646,-1.21709 z"
       class="g4_17"
       id="path47"
       style="display:block;fill:#cdb164;stroke-width:0.264583" />
    <path
       d="m 122.43339,115.13139 1.11125,1.11125 -12.51479,12.54125 -1.21709,1.16416 -1.21708,1.16417 -0.55562,0.71437 -0.52917,0.87313 -0.635,1.21708 -0.47625,1.34938 -0.26458,1.37583 -0.0265,1.13771 v 29.55396 h -1.64042 v -26.67 l 0.0265,-3.46604 0.29104,-2.38125 0.635,-1.64042 0.34396,-0.79375 0.89958,-1.42875 1.08479,-1.13771 0.97896,-1.05833 1.29646,-1.21709 z"
       class="g5_17"
       id="path48"
       style="display:block;fill:none;stroke:#cdb164;stroke-width:0.302948;stroke-linejoin:round" />
    <path
       fill-rule="evenodd"
       d="m 110.15672,102.90764 -1.29646,-1.29646 -11.721038,11.72104 -1.878541,1.98437 -1.164167,1.05834 -0.978958,0.92604 -1.005417,1.19062 -0.820208,1.0848 -1.402292,1.905 -0.687917,1.16416 -0.608541,1.05834 -0.661459,1.56104 -0.635,1.5875 -0.635,1.85208 -0.529166,1.56104 -0.343959,1.98438 -0.264583,1.85208 -0.15875,1.87854 -0.07937,2.11667 v 29.31583 h 1.931458 v -25.32062 l 0.05292,-4.70959 0.05292,-2.51354 0.291041,-2.69875 0.582084,-2.32833 0.79375,-2.38125 1.42875,-3.12208 1.5875,-2.56646 1.455208,-1.905 1.905,-2.16959 1.5875,-1.69333 z"
       class="g4_17"
       id="path49"
       style="display:block;fill:#cdb164;stroke-width:0.264583" />
    <path
       d="m 110.15672,102.90764 -1.29646,-1.29646 -11.721038,11.72104 -1.878541,1.98437 -1.164167,1.05834 -0.978958,0.92604 -1.005417,1.19062 -0.820208,1.0848 -1.402292,1.905 -0.687917,1.16416 -0.608541,1.05834 -0.661459,1.56104 -0.635,1.5875 -0.635,1.85208 -0.529166,1.56104 -0.343959,1.98438 -0.264583,1.85208 -0.15875,1.87854 -0.07937,2.11667 v 29.31583 h 1.931458 v -25.32062 l 0.05292,-4.70959 0.05292,-2.51354 0.291041,-2.69875 0.582084,-2.32833 0.79375,-2.38125 1.42875,-3.12208 1.5875,-2.56646 1.455208,-1.905 1.905,-2.16959 1.5875,-1.69333 z"
       class="g5_17"
       id="path50"
       style="display:block;fill:none;stroke:#cdb164;stroke-width:0.302948;stroke-linejoin:round" />
    <path
       fill-rule="evenodd"
       d="m 110.2361,102.93409 5.82083,5.82084 -13.59958,13.59958 -1.74625,1.64042 -1.084795,1.32291 -1.190625,1.7198 -1.005416,2.0902 -0.661458,1.64042 -0.767292,2.27542 -0.238125,1.32291 -0.15875,2.54 v 30.58584 h -8.228542 v -32.41146 l 0.3175,-3.175 1.058334,-3.62479 1.613958,-3.75709 1.534583,-2.24895 1.481667,-2.0373 2.513542,-2.96333 z"
       class="g6_17"
       id="path51"
       style="display:block;fill:#f4cccc;fill-opacity:0.43;stroke-width:0.264583" />
    <path
       d="m 110.2361,102.93409 5.82083,5.82084 -13.59958,13.59958 -1.74625,1.64042 -1.084795,1.32291 -1.190625,1.7198 -1.005416,2.0902 -0.661458,1.64042 -0.767292,2.27542 -0.238125,1.32291 -0.15875,2.54 v 30.58584 h -8.228542 v -32.41146 l 0.3175,-3.175 1.058334,-3.62479 1.613958,-3.75709 1.534583,-2.24895 1.481667,-2.0373 2.513542,-2.96333 z"
       class="g7_17"
       id="path52"
       style="display:block;fill:none;stroke:#ff0000;stroke-width:0.302948;stroke-linejoin:round" />
    <path
       fill-rule="evenodd"
       d="m 24.087765,117.67139 h 53.525207 v 22.06625 H 24.087765 Z"
       class="g1_17"
       id="path53"
       style="display:block;fill:#000000;fill-opacity:0;stroke-width:0.264583" />
    <g
       clip-path="url(#c0_17)"
       id="g55"
       style="display:block"
       transform="matrix(0.26458333,0,0,0.26458333,-126.9364,41.074511)">
      <text
         x="581.09998"
         y="316"
         class="s2_17"
         id="text53"
         style="font-size:16.81px;font-family:ArialMT_bl;white-space:pre;fill:#000000">lanelet </text>
      <text
         x="590.40002"
         y="336.20001"
         class="s2_17"
         id="text54"
         style="font-size:16.81px;font-family:ArialMT_bl;white-space:pre;fill:#000000">subtype: road </text>
      <text
         x="590.40002"
         y="356.29999"
         class="s2_17"
         id="text55"
         style="font-size:16.81px;font-family:ArialMT_bl;white-space:pre;fill:#000000">tag: speed_limit = 20 </text>
    </g>
    <path
       fill-rule="evenodd"
       d="m 65.230473,128.94264 24.976666,7.1702 z"
       class="g1_17"
       id="path55"
       style="display:block;fill:#000000;fill-opacity:0;stroke-width:0.264583" />
    <path
       d="m 65.230473,128.94264 24.976666,7.1702"
       class="g2_17"
       id="path56"
       style="display:block;fill:none;stroke:#000000;stroke-width:0.302948;stroke-linejoin:round" />
    <path
       fill-rule="evenodd"
       d="m 87.323181,159.79305 v 5.31813 z"
       class="g1_17"
       id="path58"
       style="display:block;fill:#000000;fill-opacity:0;stroke-width:0.264583" />
    <path
       d="m 87.323181,159.79305 v 5.31813"
       class="g8_17"
       id="path59"
       style="display:block;fill:none;stroke:#000000;stroke-width:0.60616;stroke-linejoin:round" />
    <path
       fill-rule="evenodd"
       d="m 84.306931,157.22659 v 0 c 0,-1.64041 1.349375,-2.98979 3.01625,-2.98979 0.79375,0 1.561041,0.3175 2.116666,0.87313 0.555625,0.55562 0.873125,1.32291 0.873125,2.11666 0,1.66688 -1.349375,2.9898 -2.989791,2.9898 -1.666875,0 -3.01625,-1.32292 -3.01625,-2.9898 z"
       class="g9_17"
       id="path60"
       style="display:block;fill:#ff0000;stroke-width:0.264583" />
    <path
       fill-rule="evenodd"
       d="m 84.359847,157.22659 v 0 c 0,-1.61395 1.322917,-2.93687 2.963334,-2.93687 0.767291,0 1.534583,0.3175 2.06375,0.87312 0.555625,0.55563 0.873125,1.29646 0.873125,2.06375 0,1.64042 -1.322917,2.96334 -2.936875,2.96334 -1.640417,0 -2.963334,-1.32292 -2.963334,-2.96334 z"
       class="g0_17"
       id="path61"
       style="display:block;fill:#ffffff;stroke-width:0.264583" />
    <path
       fill-rule="evenodd"
       d="m 84.492139,157.22659 v 0 c 0,-1.56104 1.27,-2.83104 2.831042,-2.83104 0.740833,0 1.455208,0.29104 1.984375,0.82021 0.529166,0.55563 0.820208,1.27 0.820208,2.01083 0,1.5875 -1.243542,2.8575 -2.804583,2.8575 -1.561042,0 -2.831042,-1.27 -2.831042,-2.8575 z"
       class="g9_17"
       id="path62"
       style="display:block;fill:#ff0000;stroke-width:0.264583" />
    <path
       fill-rule="evenodd"
       d="m 85.127139,157.22659 v 0 c 0,-1.19062 0.9525,-2.14312 2.143125,-2.14312 0.555625,0 1.11125,0.23812 1.508125,0.635 0.396875,0.39687 0.635,0.9525 0.635,1.50812 0,1.19063 -0.978958,2.14313 -2.143125,2.14313 -1.190625,0 -2.143125,-0.9525 -2.143125,-2.14313 z"
       class="g0_17"
       id="path63"
       style="display:block;fill:#ffffff;stroke-width:0.264583" />
    <path
       fill-rule="evenodd"
       d="m 85.735681,156.82972 h 0.343958 v -0.21167 l 0.07937,-0.15875 0.02646,-0.0794 0.105834,-0.0529 0.05292,-0.0529 0.105834,0.0265 0.05292,0.0265 0.07937,0.10583 0.05292,0.0794 0.02646,0.21167 v 0.13229 l -0.05292,0.13229 -0.07937,0.13229 -0.132292,0.15875 -0.3175,0.3175 -0.132292,0.18521 -0.07937,0.18521 -0.07937,0.21166 -0.02646,0.1323 -0.02646,0.13229 v 0.13229 h 1.322916 v -0.42333 h -0.899583 l 0.185208,-0.23813 0.291042,-0.29104 0.211667,-0.23813 0.132291,-0.23812 0.05292,-0.15875 v -0.52917 l -0.05292,-0.15875 -0.105833,-0.15875 -0.105833,-0.13229 -0.105834,-0.10583 -0.185208,-0.0265 h -0.15875 l -0.15875,0.0529 -0.132292,0.0794 -0.132291,0.15875 -0.07937,0.15875 -0.02646,0.10583 -0.02646,0.1323 -0.02646,0.13229 z"
       class="ga_17"
       id="path64"
       style="display:block;fill:#1155cc;stroke-width:0.264583" />
    <path
       fill-rule="evenodd"
       d="m 87.402556,157.14722 h 0.343958 l 0.02646,-0.18521 v -0.10583 l 0.02646,-0.13229 0.05292,-0.18521 0.05292,-0.10584 0.05292,-0.0794 0.07937,-0.0265 0.02646,-0.0265 0.05292,-0.0265 h 0.07937 l 0.05292,0.0265 0.05292,0.0265 0.05292,0.0529 0.05292,0.0794 0.02646,0.10584 0.05292,0.13229 0.02646,0.13229 0.02646,0.10583 v 0.58209 l -0.02646,0.13229 -0.02646,0.15875 -0.05292,0.13229 -0.05292,0.13229 -0.05292,0.0529 -0.05292,0.0265 -0.02646,0.0265 -0.05292,0.0265 -0.07937,-0.0265 -0.07937,-0.0265 -0.05292,-0.0265 -0.05292,-0.0529 -0.05292,-0.10583 -0.02646,-0.0794 -0.02646,-0.10583 -0.02646,-0.0794 -0.02646,-0.13229 v -0.10583 l -0.02646,-0.10583 v -0.21167 h -0.343958 v 0.37042 l 0.02646,0.13229 0.02646,0.15875 0.05292,0.18521 0.07937,0.21166 0.05292,0.10584 0.105833,0.10583 0.07938,0.0794 0.105833,0.0529 0.105834,0.0529 h 0.264583 l 0.132292,-0.0794 0.05292,-0.0529 0.07937,-0.0529 0.07937,-0.10583 0.07937,-0.21167 0.07937,-0.18521 0.05292,-0.18521 0.02646,-0.15875 v -0.50271 l -0.02646,-0.21166 v -0.15875 l -0.05292,-0.21167 -0.07937,-0.13229 -0.05292,-0.10583 -0.05292,-0.10584 -0.05292,-0.10583 -0.105833,-0.0794 -0.105833,-0.0529 -0.132292,-0.0265 h -0.15875 l -0.15875,0.0529 -0.05292,0.0529 -0.132291,0.10584 -0.05292,0.0794 -0.05292,0.13229 -0.05292,0.10584 -0.07937,0.13229 -0.02646,0.15875 -0.02646,0.13229 v 0.13229 l -0.02646,0.10583 z"
       class="ga_17"
       id="path65"
       style="display:block;fill:#1155cc;stroke-width:0.264583" />
  </g>
</svg>
