<?xml version="1.0" encoding="UTF-8" standalone="no"?>
<!-- Created with Inkscape (http://www.inkscape.org/) -->

<svg
   width="117.314mm"
   height="68.355003mm"
   viewBox="0 0 117.31401 68.355004"
   version="1.1"
   id="svg1"
   inkscape:version="1.3.2 (1:1.3.2+202311252150+091e20ef0f)"
   sodipodi:docname="vm-03-10_1.svg"
   xmlns:inkscape="http://www.inkscape.org/namespaces/inkscape"
   xmlns:sodipodi="http://sodipodi.sourceforge.net/DTD/sodipodi-0.dtd"
   xmlns="http://www.w3.org/2000/svg"
   xmlns:svg="http://www.w3.org/2000/svg">
  <sodipodi:namedview
     id="namedview1"
     pagecolor="#ffffff"
     bordercolor="#000000"
     borderopacity="0.25"
     inkscape:showpageshadow="2"
     inkscape:pageopacity="0.0"
     inkscape:pagecheckerboard="0"
     inkscape:deskcolor="#d1d1d1"
     inkscape:document-units="mm"
     inkscape:zoom="1.7131103"
     inkscape:cx="268.80932"
     inkscape:cy="-175.99568"
     inkscape:window-width="3840"
     inkscape:window-height="2123"
     inkscape:window-x="0"
     inkscape:window-y="0"
     inkscape:window-maximized="1"
     inkscape:current-layer="layer1" />
  <defs
     id="defs1">
    <clipPath
       id="c0_43">
      <path
         d="M 0,825 V 0 h 1100 v 825 z"
         id="path2" />
    </clipPath>
    <clipPath
       id="clipPath1">
      <path
         d="M 0,825 V 0 h 1100 v 825 z"
         id="path1" />
    </clipPath>
  </defs>
  <g
     inkscape:label="Layer 1"
     inkscape:groupmode="layer"
     id="layer1"
     transform="translate(-33.866666,-244.475)">
    <path
       fill-rule="evenodd"
       d="m 98.26464,297.72573 h 44.02671 v 12.2502 H 98.26464 Z"
       class="g1_43"
       id="path313"
       style="display:block;fill:#000000;fill-opacity:0;stroke-width:0.264583" />
    <text
       clip-path="url(#c0_43)"
       x="288.20001"
       y="740.40002"
       class="s3_43"
       id="text314"
       style="font-size:16px;font-family:MS-PGothic_bn;white-space:pre;display:block;fill:#000000"
       transform="matrix(0.26458333,0,0,0.26458333,21.909611,109.85123)">The vehicle turns right. </text>
    <path
       fill-rule="evenodd"
       d="m 39.738803,297.72573 h 44.026666 v 12.2502 H 39.738803 Z"
       class="g1_43"
       id="path314"
       style="display:block;fill:#000000;fill-opacity:0;stroke-width:0.264583" />
    <text
       clip-path="url(#c0_43)"
       x="95"
       y="740.40002"
       class="s3_43"
       id="text315"
       style="font-size:16px;font-family:MS-PGothic_bn;white-space:pre;display:block;fill:#000000"
       transform="matrix(0.26458333,0,0,0.26458333,12.903198,109.36094)">The vehicle turns left.</text>
    <path
       fill-rule="evenodd"
       d="m 54.23797,247.66656 h 15.319374 v 51.56729 H 54.23797 Z"
       class="g3_43"
       id="path315"
       style="display:block;fill:#666666;stroke-width:0.264583" />
    <path
       fill-rule="evenodd"
       d="m 38.310053,265.76406 h 47.254583 v 15.34583 H 38.310053 Z"
       class="g3_43"
       id="path316"
       style="display:block;fill:#666666;stroke-width:0.264583" />
    <path
       fill-rule="evenodd"
       d="m 54.264428,247.77239 h 0.873125 v 17.33021 h -0.873125 z"
       class="g4_43"
       id="path317"
       style="display:block;fill:#999999;stroke-width:0.264583" />
    <path
       d="m 54.264428,247.77239 h 0.873125 v 17.33021 h -0.873125 z"
       class="g5_43"
       id="path318"
       style="display:block;fill:none;stroke:#999999;stroke-width:0.302948;stroke-linejoin:round" />
    <path
       fill-rule="evenodd"
       d="m 68.657761,247.77239 h 0.873125 v 17.33021 h -0.873125 z"
       class="g4_43"
       id="path319"
       style="display:block;fill:#999999;stroke-width:0.264583" />
    <path
       d="m 68.657761,247.77239 h 0.873125 v 17.33021 h -0.873125 z"
       class="g5_43"
       id="path320"
       style="display:block;fill:none;stroke:#999999;stroke-width:0.302948;stroke-linejoin:round" />
    <path
       fill-rule="evenodd"
       d="m 54.290886,281.79781 h 0.873125 v 17.33021 h -0.873125 z"
       class="g4_43"
       id="path321"
       style="display:block;fill:#999999;stroke-width:0.264583" />
    <path
       d="m 54.290886,281.79781 h 0.873125 v 17.33021 h -0.873125 z"
       class="g5_43"
       id="path322"
       style="display:block;fill:none;stroke:#999999;stroke-width:0.302948;stroke-linejoin:round" />
    <path
       fill-rule="evenodd"
       d="m 68.684219,281.79781 h 0.873125 v 17.33021 h -0.873125 z"
       class="g4_43"
       id="path323"
       style="display:block;fill:#999999;stroke-width:0.264583" />
    <path
       d="m 68.684219,281.79781 h 0.873125 v 17.33021 h -0.873125 z"
       class="g5_43"
       id="path324"
       style="display:block;fill:none;stroke:#999999;stroke-width:0.302948;stroke-linejoin:round" />
    <path
       fill-rule="evenodd"
       d="m 55.137553,265.12906 v 0.92604 H 38.389428 v -0.92604 z"
       class="g4_43"
       id="path325"
       style="display:block;fill:#999999;stroke-width:0.264583" />
    <path
       d="m 55.137553,265.12906 v 0.92604 H 38.389428 v -0.92604 z"
       class="g5_43"
       id="path326"
       style="display:block;fill:none;stroke:#999999;stroke-width:0.302948;stroke-linejoin:round" />
    <path
       fill-rule="evenodd"
       d="m 55.137553,280.76593 v 0.9525 H 38.389428 v -0.9525 z"
       class="g4_43"
       id="path327"
       style="display:block;fill:#999999;stroke-width:0.264583" />
    <path
       d="m 55.137553,280.76593 v 0.9525 H 38.389428 v -0.9525 z"
       class="g5_43"
       id="path328"
       style="display:block;fill:none;stroke:#999999;stroke-width:0.302948;stroke-linejoin:round" />
    <path
       fill-rule="evenodd"
       d="m 85.458802,265.15552 v 0.92604 H 68.684219 v -0.92604 z"
       class="g4_43"
       id="path329"
       style="display:block;fill:#999999;stroke-width:0.264583" />
    <path
       d="m 85.458802,265.15552 v 0.92604 H 68.684219 v -0.92604 z"
       class="g5_43"
       id="path330"
       style="display:block;fill:none;stroke:#999999;stroke-width:0.302948;stroke-linejoin:round" />
    <path
       fill-rule="evenodd"
       d="m 85.458802,280.79239 v 0.9525 H 68.684219 v -0.9525 z"
       class="g4_43"
       id="path331"
       style="display:block;fill:#999999;stroke-width:0.264583" />
    <path
       d="m 85.458802,280.79239 v 0.9525 H 68.684219 v -0.9525 z"
       class="g5_43"
       id="path332"
       style="display:block;fill:none;stroke:#999999;stroke-width:0.302948;stroke-linejoin:round" />
    <path
       fill-rule="evenodd"
       d="m 45.956511,273.46343 -7.593541,-0.0265 z"
       class="g1_43"
       id="path333"
       style="display:block;fill:#000000;fill-opacity:0;stroke-width:0.264583" />
    <path
       d="m 45.956511,273.46343 -7.593541,-0.0265"
       class="g6_43"
       id="path334"
       style="display:block;fill:none;stroke:#f3f3f3;stroke-width:0.60616;stroke-linejoin:round;stroke-dasharray:2.64583, 1.85208" />
    <path
       fill-rule="evenodd"
       d="m 85.458802,273.46343 -7.593541,-0.0265 z"
       class="g1_43"
       id="path335"
       style="display:block;fill:#000000;fill-opacity:0;stroke-width:0.264583" />
    <path
       d="m 85.458802,273.46343 -7.593541,-0.0265"
       class="g6_43"
       id="path336"
       style="display:block;fill:none;stroke:#f3f3f3;stroke-width:0.60616;stroke-linejoin:round;stroke-dasharray:2.64583, 1.85208" />
    <path
       fill-rule="evenodd"
       d="m 61.884428,256.02739 0.02646,-8.255 z"
       class="g1_43"
       id="path337"
       style="display:block;fill:#000000;fill-opacity:0;stroke-width:0.264583" />
    <path
       d="m 61.884428,256.02739 0.02646,-8.255"
       class="g6_43"
       id="path338"
       style="display:block;fill:none;stroke:#f3f3f3;stroke-width:0.60616;stroke-linejoin:round;stroke-dasharray:2.64583, 1.85208" />
    <path
       fill-rule="evenodd"
       d="m 61.910886,299.12802 0.02646,-8.255 z"
       class="g1_43"
       id="path339"
       style="display:block;fill:#000000;fill-opacity:0;stroke-width:0.264583" />
    <path
       d="m 61.910886,299.12802 0.02646,-8.255"
       class="g6_43"
       id="path340"
       style="display:block;fill:none;stroke:#f3f3f3;stroke-width:0.60616;stroke-linejoin:round;stroke-dasharray:2.64583, 1.85208" />
    <path
       fill-rule="evenodd"
       d="m 46.035886,273.56927 0.02646,-7.48771 z"
       class="g1_43"
       id="path341"
       style="display:block;fill:#000000;fill-opacity:0;stroke-width:0.264583" />
    <path
       d="m 46.035886,273.56927 0.02646,-7.48771"
       class="g7_43"
       id="path342"
       style="display:block;fill:none;stroke:#f3f3f3;stroke-width:0.909373;stroke-linejoin:round" />
    <path
       fill-rule="evenodd"
       d="m 77.944636,280.89823 0.02646,-7.46125 z"
       class="g1_43"
       id="path343"
       style="display:block;fill:#000000;fill-opacity:0;stroke-width:0.264583" />
    <path
       d="m 77.944636,280.89823 0.02646,-7.46125"
       class="g7_43"
       id="path344"
       style="display:block;fill:none;stroke:#f3f3f3;stroke-width:0.909373;stroke-linejoin:round" />
    <path
       fill-rule="evenodd"
       d="m 61.805053,256.15968 6.879166,0.0265 z"
       class="g1_43"
       id="path345"
       style="display:block;fill:#000000;fill-opacity:0;stroke-width:0.264583" />
    <path
       d="m 61.805053,256.15968 6.879166,0.0265"
       class="g7_43"
       id="path346"
       style="display:block;fill:none;stroke:#f3f3f3;stroke-width:0.909373;stroke-linejoin:round" />
    <path
       fill-rule="evenodd"
       d="m 55.164011,290.87302 6.905625,0.0265 z"
       class="g1_43"
       id="path347"
       style="display:block;fill:#000000;fill-opacity:0;stroke-width:0.264583" />
    <path
       d="m 55.164011,290.87302 6.905625,0.0265"
       class="g7_43"
       id="path348"
       style="display:block;fill:none;stroke:#f3f3f3;stroke-width:0.909373;stroke-linejoin:round" />
    <path
       fill-rule="evenodd"
       d="m 55.534428,285.66073 h 0.740833 v 3.38666 h -0.740833 z"
       class="g8_43"
       id="path349"
       style="display:block;fill:#eeeeee;stroke-width:0.264583" />
    <path
       fill-rule="evenodd"
       d="m 57.095469,285.66073 h 0.714375 v 3.38666 h -0.714375 z"
       class="g8_43"
       id="path350"
       style="display:block;fill:#eeeeee;stroke-width:0.264583" />
    <path
       fill-rule="evenodd"
       d="m 58.630053,285.66073 h 0.714375 v 3.38666 h -0.714375 z"
       class="g8_43"
       id="path351"
       style="display:block;fill:#eeeeee;stroke-width:0.264583" />
    <path
       fill-rule="evenodd"
       d="m 60.164636,285.66073 h 0.740833 v 3.38666 h -0.740833 z"
       class="g8_43"
       id="path352"
       style="display:block;fill:#eeeeee;stroke-width:0.264583" />
    <path
       fill-rule="evenodd"
       d="m 61.725678,285.66073 h 0.714375 v 3.38666 h -0.714375 z"
       class="g8_43"
       id="path353"
       style="display:block;fill:#eeeeee;stroke-width:0.264583" />
    <path
       fill-rule="evenodd"
       d="m 63.260261,285.66073 h 0.714375 v 3.38666 h -0.714375 z"
       class="g8_43"
       id="path354"
       style="display:block;fill:#eeeeee;stroke-width:0.264583" />
    <path
       fill-rule="evenodd"
       d="m 64.794844,285.66073 h 0.740834 v 3.38666 h -0.740834 z"
       class="g8_43"
       id="path355"
       style="display:block;fill:#eeeeee;stroke-width:0.264583" />
    <path
       fill-rule="evenodd"
       d="m 66.329428,285.66073 h 0.740833 v 3.38666 h -0.740833 z"
       class="g8_43"
       id="path356"
       style="display:block;fill:#eeeeee;stroke-width:0.264583" />
    <path
       fill-rule="evenodd"
       d="m 67.890469,285.66073 h 0.714375 v 3.38666 h -0.714375 z"
       class="g8_43"
       id="path357"
       style="display:block;fill:#eeeeee;stroke-width:0.264583" />
    <path
       fill-rule="evenodd"
       d="m 55.375678,258.14406 h 0.714375 v 3.38667 h -0.714375 z"
       class="g8_43"
       id="path358"
       style="display:block;fill:#eeeeee;stroke-width:0.264583" />
    <path
       fill-rule="evenodd"
       d="m 56.910261,258.14406 h 0.714375 v 3.38667 h -0.714375 z"
       class="g8_43"
       id="path359"
       style="display:block;fill:#eeeeee;stroke-width:0.264583" />
    <path
       fill-rule="evenodd"
       d="m 58.444844,258.14406 h 0.740834 v 3.38667 h -0.740834 z"
       class="g8_43"
       id="path360"
       style="display:block;fill:#eeeeee;stroke-width:0.264583" />
    <path
       fill-rule="evenodd"
       d="m 60.005886,258.14406 h 0.714375 v 3.38667 h -0.714375 z"
       class="g8_43"
       id="path361"
       style="display:block;fill:#eeeeee;stroke-width:0.264583" />
    <path
       fill-rule="evenodd"
       d="m 61.540469,258.14406 h 0.714375 v 3.38667 h -0.714375 z"
       class="g8_43"
       id="path362"
       style="display:block;fill:#eeeeee;stroke-width:0.264583" />
    <path
       fill-rule="evenodd"
       d="m 63.075053,258.14406 h 0.740833 v 3.38667 h -0.740833 z"
       class="g8_43"
       id="path363"
       style="display:block;fill:#eeeeee;stroke-width:0.264583" />
    <path
       fill-rule="evenodd"
       d="m 64.609636,258.14406 h 0.740833 v 3.38667 h -0.740833 z"
       class="g8_43"
       id="path364"
       style="display:block;fill:#eeeeee;stroke-width:0.264583" />
    <path
       fill-rule="evenodd"
       d="m 66.170678,258.14406 h 0.714375 v 3.38667 h -0.714375 z"
       class="g8_43"
       id="path365"
       style="display:block;fill:#eeeeee;stroke-width:0.264583" />
    <path
       fill-rule="evenodd"
       d="m 67.705261,258.14406 h 0.714375 v 3.38667 h -0.714375 z"
       class="g8_43"
       id="path366"
       style="display:block;fill:#eeeeee;stroke-width:0.264583" />
    <path
       fill-rule="evenodd"
       d="m 51.06297,266.34614 v 0.79375 h -3.095625 v -0.79375 z"
       class="g8_43"
       id="path367"
       style="display:block;fill:#eeeeee;stroke-width:0.264583" />
    <path
       fill-rule="evenodd"
       d="m 51.06297,268.01302 v 0.79375 h -3.095625 v -0.79375 z"
       class="g8_43"
       id="path368"
       style="display:block;fill:#eeeeee;stroke-width:0.264583" />
    <path
       fill-rule="evenodd"
       d="m 51.06297,269.67989 v 0.79375 h -3.095625 v -0.79375 z"
       class="g8_43"
       id="path369"
       style="display:block;fill:#eeeeee;stroke-width:0.264583" />
    <path
       fill-rule="evenodd"
       d="m 51.06297,271.37323 v 0.79375 h -3.095625 v -0.79375 z"
       class="g8_43"
       id="path370"
       style="display:block;fill:#eeeeee;stroke-width:0.264583" />
    <path
       fill-rule="evenodd"
       d="m 51.06297,273.0401 v 0.79375 h -3.095625 v -0.79375 z"
       class="g8_43"
       id="path371"
       style="display:block;fill:#eeeeee;stroke-width:0.264583" />
    <path
       fill-rule="evenodd"
       d="m 51.06297,274.73343 v 0.79375 h -3.095625 v -0.79375 z"
       class="g8_43"
       id="path372"
       style="display:block;fill:#eeeeee;stroke-width:0.264583" />
    <path
       fill-rule="evenodd"
       d="m 51.06297,276.40031 v 0.79375 h -3.095625 v -0.79375 z"
       class="g8_43"
       id="path373"
       style="display:block;fill:#eeeeee;stroke-width:0.264583" />
    <path
       fill-rule="evenodd"
       d="m 51.06297,278.09364 v 0.79375 h -3.095625 v -0.79375 z"
       class="g8_43"
       id="path374"
       style="display:block;fill:#eeeeee;stroke-width:0.264583" />
    <path
       fill-rule="evenodd"
       d="m 51.06297,279.76052 v 0.79375 h -3.095625 v -0.79375 z"
       class="g8_43"
       id="path375"
       style="display:block;fill:#eeeeee;stroke-width:0.264583" />
    <path
       fill-rule="evenodd"
       d="m 75.960261,266.34614 v 0.79375 h -3.122083 v -0.79375 z"
       class="g8_43"
       id="path376"
       style="display:block;fill:#eeeeee;stroke-width:0.264583" />
    <path
       fill-rule="evenodd"
       d="m 75.960261,268.01302 v 0.79375 h -3.122083 v -0.79375 z"
       class="g8_43"
       id="path377"
       style="display:block;fill:#eeeeee;stroke-width:0.264583" />
    <path
       fill-rule="evenodd"
       d="m 75.960261,269.67989 v 0.79375 h -3.122083 v -0.79375 z"
       class="g8_43"
       id="path378"
       style="display:block;fill:#eeeeee;stroke-width:0.264583" />
    <path
       fill-rule="evenodd"
       d="m 75.960261,271.37323 v 0.79375 h -3.122083 v -0.79375 z"
       class="g8_43"
       id="path379"
       style="display:block;fill:#eeeeee;stroke-width:0.264583" />
    <path
       fill-rule="evenodd"
       d="m 75.960261,273.0401 v 0.79375 h -3.122083 v -0.79375 z"
       class="g8_43"
       id="path380"
       style="display:block;fill:#eeeeee;stroke-width:0.264583" />
    <path
       fill-rule="evenodd"
       d="m 75.960261,274.73343 v 0.79375 h -3.122083 v -0.79375 z"
       class="g8_43"
       id="path381"
       style="display:block;fill:#eeeeee;stroke-width:0.264583" />
    <path
       fill-rule="evenodd"
       d="m 75.960261,276.40031 v 0.79375 h -3.122083 v -0.79375 z"
       class="g8_43"
       id="path382"
       style="display:block;fill:#eeeeee;stroke-width:0.264583" />
    <path
       fill-rule="evenodd"
       d="m 75.960261,278.09364 v 0.79375 h -3.122083 v -0.79375 z"
       class="g8_43"
       id="path383"
       style="display:block;fill:#eeeeee;stroke-width:0.264583" />
    <path
       fill-rule="evenodd"
       d="m 75.960261,279.76052 v 0.79375 h -3.122083 v -0.79375 z"
       class="g8_43"
       id="path384"
       style="display:block;fill:#eeeeee;stroke-width:0.264583" />
    <path
       fill-rule="evenodd"
       d="m 61.222969,273.62218 0.740834,-0.79375 0.714375,0.79375 -0.714375,0.7673 z"
       class="g1_43"
       id="path385"
       style="display:block;fill:#000000;fill-opacity:0;stroke-width:0.264583" />
    <path
       d="m 61.222969,273.62218 0.740834,-0.79375 0.714375,0.79375 -0.714375,0.7673 z"
       class="g9_43"
       id="path386"
       style="display:block;fill:none;stroke:#f3f3f3;stroke-width:0.302948;stroke-linejoin:round" />
    <path
       fill-rule="evenodd"
       d="m 73.605469,264.41468 v -0.42333 h -3.571875 v 0.42333 z"
       class="g4_43"
       id="path387"
       style="display:block;fill:#999999;stroke-width:0.264583" />
    <path
       d="m 73.605469,264.41468 v -0.42333 h -3.571875 v 0.42333 z"
       class="g5_43"
       id="path388"
       style="display:block;fill:none;stroke:#999999;stroke-width:0.302948;stroke-linejoin:round" />
    <path
       fill-rule="evenodd"
       d="m 73.287969,264.36177 v 0 c 0.15875,0 0.3175,-0.15875 0.3175,-0.3175 v -4.63021 c 0,-0.0794 -0.05292,-0.15875 -0.105833,-0.23813 -0.05292,-0.0529 -0.132292,-0.0794 -0.211667,-0.0794 h -1.27 c -0.185208,0 -0.3175,0.13229 -0.3175,0.3175 v 4.63021 c 0,0.15875 0.132292,0.3175 0.3175,0.3175 z"
       class="g4_43"
       id="path389"
       style="display:block;fill:#999999;stroke-width:0.264583" />
    <path
       d="m 73.287969,264.36177 v 0 c 0.15875,0 0.3175,-0.15875 0.3175,-0.3175 v -4.63021 c 0,-0.0794 -0.05292,-0.15875 -0.105833,-0.23813 -0.05292,-0.0529 -0.132292,-0.0794 -0.211667,-0.0794 h -1.27 c -0.185208,0 -0.3175,0.13229 -0.3175,0.3175 v 4.63021 c 0,0.15875 0.132292,0.3175 0.3175,0.3175 z"
       class="g5_43"
       id="path390"
       style="display:block;fill:none;stroke:#999999;stroke-width:0.302948;stroke-linejoin:round" />
    <path
       fill-rule="evenodd"
       d="m 72.679428,260.76343 v 0 c 0.291041,0 0.529166,-0.26458 0.529166,-0.60854 0,-0.3175 -0.238125,-0.58208 -0.529166,-0.58208 -0.3175,0 -0.555625,0.26458 -0.555625,0.58208 0,0.34396 0.238125,0.60854 0.555625,0.60854 z"
       class="ga_43"
       id="path391"
       style="display:block;fill:#ff0000;stroke-width:0.264583" />
    <path
       fill-rule="evenodd"
       d="m 72.679428,262.43031 v 0 c 0.291041,0 0.529166,-0.26458 0.529166,-0.60854 0,-0.3175 -0.238125,-0.58209 -0.529166,-0.58209 -0.3175,0 -0.555625,0.26459 -0.555625,0.58209 0,0.34396 0.238125,0.60854 0.555625,0.60854 z"
       class="gb_43"
       id="path392"
       style="display:block;fill:#f1c232;stroke-width:0.264583" />
    <path
       fill-rule="evenodd"
       d="m 72.679428,264.09718 v 0 c 0.291041,0 0.529166,-0.26458 0.529166,-0.58208 0,-0.34396 -0.238125,-0.60854 -0.529166,-0.60854 -0.3175,0 -0.555625,0.26458 -0.555625,0.60854 0,0.3175 0.238125,0.58208 0.555625,0.58208 z"
       class="gc_43"
       id="path393"
       style="display:block;fill:#38761d;stroke-width:0.264583" />
    <path
       fill-rule="evenodd"
       d="m 85.538177,266.16093 v 7.27605 h -7.461249 v -7.27605 z"
       class="gl_43"
       id="path394"
       style="display:block;fill:#ea9999;fill-opacity:0.37;stroke-width:0.264583" />
    <path
       fill-rule="evenodd"
       d="m 55.19047,291.00531 h 6.746874 v 8.12271 H 55.19047 Z"
       class="gl_43"
       id="path395"
       style="display:block;fill:#ea9999;fill-opacity:0.37;stroke-width:0.264583" />
    <path
       fill-rule="evenodd"
       d="m 85.485261,273.46343 v 7.32896 h -7.381875 v -7.32896 z"
       class="gl_43"
       id="path396"
       style="display:block;fill:#ea9999;fill-opacity:0.37;stroke-width:0.264583" />
    <path
       fill-rule="evenodd"
       d="m 45.930053,266.13448 v 7.3025 h -7.62 v -7.3025 z"
       class="gl_43"
       id="path397"
       style="display:block;fill:#ea9999;fill-opacity:0.37;stroke-width:0.264583" />
    <path
       fill-rule="evenodd"
       d="m 45.930053,273.46343 v 7.3025 h -7.62 v -7.3025 z"
       class="gl_43"
       id="path398"
       style="display:block;fill:#ea9999;fill-opacity:0.37;stroke-width:0.264583" />
    <path
       fill-rule="evenodd"
       d="m 68.631303,299.12802 h -6.6675 v -8.09625 h 6.6675 z"
       class="gl_43"
       id="path399"
       style="display:block;fill:#ea9999;fill-opacity:0.37;stroke-width:0.264583" />
    <path
       fill-rule="evenodd"
       d="m 68.604844,256.02739 h -6.6675 v -8.28146 h 6.6675 z"
       class="gl_43"
       id="path400"
       style="display:block;fill:#ea9999;fill-opacity:0.37;stroke-width:0.264583" />
    <path
       fill-rule="evenodd"
       d="m 61.884428,256.00093 h -6.6675 v -8.28145 h 6.6675 z"
       class="gl_43"
       id="path401"
       style="display:block;fill:#ea9999;fill-opacity:0.37;stroke-width:0.264583" />
    <path
       fill-rule="evenodd"
       d="m 68.631303,291.00531 h -6.6675 v -34.95146 h 6.6675 z"
       class="gd_43"
       id="path402"
       style="display:block;fill:#9fc5e8;fill-opacity:0.41;stroke-width:0.264583" />
    <path
       fill-rule="evenodd"
       d="m 61.910886,291.00531 h -6.6675 v -34.95146 h 6.6675 z"
       class="gd_43"
       id="path403"
       style="display:block;fill:#9fc5e8;fill-opacity:0.41;stroke-width:0.264583" />
    <path
       fill-rule="evenodd"
       d="m 45.930053,280.71302 v -7.24959 h 32.120416 v 7.24959 z"
       class="gd_43"
       id="path404"
       style="display:block;fill:#9fc5e8;fill-opacity:0.41;stroke-width:0.264583" />
    <path
       fill-rule="evenodd"
       d="m 45.930053,273.41052 v -7.3025 h 32.146875 v 7.3025 z"
       class="gd_43"
       id="path405"
       style="display:block;fill:#9fc5e8;fill-opacity:0.41;stroke-width:0.264583" />
    <path
       fill-rule="evenodd"
       d="m 77.891719,266.13448 v 7.22312 l -2.248958,0.3175 -2.460625,0.68792 -1.957917,0.92604 -1.534583,0.89958 -1.402292,1.00542 -1.031875,1.00542 -1.11125,1.16416 -0.873125,1.00542 -0.635,0.92604 -0.635,1.19063 -0.714375,1.4552 -0.79375,2.27542 -0.47625,2.61938 -0.132291,2.14312 -6.6675,-0.0265 0.15875,-3.99521 0.47625,-2.91041 0.820208,-2.72521 0.978958,-2.14313 0.740834,-1.32291 0.820208,-1.21709 0.661458,-0.89958 0.582084,-0.71437 0.661458,-0.71438 0.820208,-0.84667 0.9525,-0.92604 0.846667,-0.76729 0.820208,-0.635 1.243542,-0.92604 1.666875,-1.03188 2.196042,-1.03187 2.275416,-0.84667 3.069167,-0.82021 z"
       class="gm_43"
       id="path406"
       style="display:block;fill:#ffff00;fill-opacity:0.59;stroke-width:0.264583" />
    <path
       fill-rule="evenodd"
       d="m 45.98297,280.68656 v -7.14375 l 2.275416,-0.34396 2.434167,-0.66146 1.957917,-0.92604 1.534583,-0.89958 1.402292,-0.97896 1.058333,-1.00542 1.084791,-1.13771 0.873125,-1.03187 0.635,-0.89958 0.635,-1.19063 0.740834,-1.42875 0.767291,-2.24896 0.502709,-2.59291 0.105833,-2.14313 6.6675,0.0265 -0.15875,3.96875 -0.47625,2.88396 -0.820208,2.69875 -0.978959,2.11666 -0.740833,1.32292 -0.79375,1.21708 -0.687917,0.87313 -0.582083,0.71437 -0.661458,0.71438 -0.820209,0.82021 -0.9525,0.92604 -0.846666,0.76729 -0.820209,0.635 -1.243541,0.92604 -1.666875,1.00542 -2.169583,1.03187 -2.301875,0.84667 -3.069167,0.79375 z"
       class="gm_43"
       id="path407"
       style="display:block;fill:#ffff00;fill-opacity:0.59;stroke-width:0.264583" />
    <path
       fill-rule="evenodd"
       d="m 68.578386,291.00531 h -6.561667 l -0.291041,-2.48708 -0.635,-2.6723 -0.820209,-2.14312 -0.820208,-1.69333 -0.899583,-1.53459 -0.926042,-1.13771 -1.031875,-1.21708 -0.9525,-0.9525 -0.820208,-0.68792 -1.084792,-0.68791 -1.322916,-0.79375 -2.06375,-0.87313 -2.38125,-0.52916 -1.931459,-0.1323 0.02646,-7.3025 3.598333,0.15875 2.645833,0.52917 2.487084,0.89958 1.931458,1.0848 1.217083,0.79375 1.11125,0.89958 0.79375,0.74083 0.661458,0.635 0.635,0.71438 0.767292,0.89958 0.846667,1.05833 0.687916,0.92605 0.608542,0.89958 0.820208,1.34937 0.926042,1.82563 0.9525,2.40771 0.767292,2.48708 0.740833,3.36021 z"
       class="gm_43"
       id="path408"
       style="display:block;fill:#ffff00;fill-opacity:0.59;stroke-width:0.264583" />
    <path
       fill-rule="evenodd"
       d="m 55.269845,256.00093 6.588124,0.0265 0.291042,2.46063 0.635,2.67229 0.846667,2.14312 0.820208,1.69334 0.899583,1.53458 0.926042,1.13771 1.058333,1.21708 0.926042,0.92604 0.846667,0.71438 1.084791,0.68792 1.349375,0.79375 2.037292,0.87312 2.407708,0.52917 1.957917,0.10583 -0.02646,7.3025 -3.624792,-0.15875 -2.672292,-0.52917 -2.487083,-0.89958 -1.957917,-1.08479 -1.190625,-0.79375 -1.137708,-0.87313 -0.820208,-0.76729 -0.661459,-0.635 -0.635,-0.71437 -0.767291,-0.87313 -0.846667,-1.05833 -0.687917,-0.92604 -0.608541,-0.89959 -0.846667,-1.37583 -0.926042,-1.79917 -0.9525,-2.4077 -0.767291,-2.48709 -0.740833,-3.36021 z"
       class="gm_43"
       id="path409"
       style="display:block;fill:#ffff00;fill-opacity:0.59;stroke-width:0.264583" />
    <path
       fill-rule="evenodd"
       d="m 45.930053,273.54281 v 7.17021 l 9.286875,-0.0265 0.105833,10.21292 6.614583,0.0265 0.02646,-9.7102 v -1.24355 l -0.05292,-0.92604 -0.185208,-0.92604 -0.291042,-0.74083 -0.3175,-0.60854 -0.423333,-0.635 -0.423334,-0.47625 -0.423333,-0.4498 -0.529167,-0.47625 -0.423333,-0.23812 -0.687917,-0.42333 -0.661458,-0.26459 -0.608541,-0.18521 -0.555625,-0.0794 -0.978959,-0.0794 -3.889375,0.0265 z"
       class="gf_43"
       id="path410"
       style="display:block;fill:#f4cccc;fill-opacity:0.43;stroke-width:0.264583" />
    <path
       fill-rule="evenodd"
       d="m 61.857969,256.02739 h -6.588124 l -0.02646,10.13354 -9.313333,0.0529 -0.02646,7.19667 8.89,0.0529 h 1.164166 l 0.846667,-0.0794 0.873125,-0.21167 0.661458,-0.29104 0.555625,-0.34396 0.582083,-0.47625 0.449792,-0.47625 0.396875,-0.44979 0.449792,-0.58208 0.211666,-0.44979 0.370417,-0.74084 0.264583,-0.74083 0.15875,-0.635 0.07937,-0.60854 0.07937,-1.05834 -0.02646,-4.23333 z"
       class="gf_43"
       id="path411"
       style="display:block;fill:#f4cccc;fill-opacity:0.43;stroke-width:0.264583" />
    <path
       fill-rule="evenodd"
       d="m 77.838803,273.25177 v -7.09084 l -9.313334,-0.0529 -0.02646,-10.05417 -6.614583,-0.0265 -0.05292,9.60438 v 1.24354 l 0.07937,0.92604 0.185208,0.92604 0.291042,0.71438 0.3175,0.60854 0.396875,0.635 0.449792,0.47625 0.423333,0.44979 0.529167,0.47625 0.423333,0.23813 0.687917,0.39687 0.661458,0.29104 0.582083,0.15875 0.582084,0.0794 0.9525,0.10583 3.889375,-0.0265 z"
       class="gf_43"
       id="path412"
       style="display:block;fill:#f4cccc;fill-opacity:0.43;stroke-width:0.264583" />
    <path
       fill-rule="evenodd"
       d="m 61.990261,290.97885 h 6.535208 l 0.02646,-10.23937 9.286875,-0.0265 0.02646,-7.27604 -8.863542,-0.0529 h -1.137708 l -0.846667,0.0794 -0.873125,0.21167 -0.661458,0.3175 -0.529167,0.34396 -0.608541,0.44979 -0.423334,0.47625 -0.423333,0.47625 -0.423333,0.58208 -0.238125,0.4498 -0.370417,0.76729 -0.238125,0.71437 -0.15875,0.66146 -0.07937,0.635 -0.07937,1.05833 0.02646,4.2598 z"
       class="gf_43"
       id="path413"
       style="display:block;fill:#f4cccc;fill-opacity:0.43;stroke-width:0.264583" />
    <path
       fill-rule="evenodd"
       d="m 58.365469,287.0101 c 0,-0.9525 0.396875,-4.10104 0,-5.60917 -0.396875,-1.53458 -1.428749,-2.8575 -2.354791,-3.4925 -0.926042,-0.66145 -2.672292,-0.34395 -3.201458,-0.42333 z"
       class="g1_43"
       id="path414"
       style="display:block;fill:#000000;fill-opacity:0;stroke-width:0.264583" />
    <path
       d="m 58.365469,287.0101 c 0,-0.9525 0.396875,-4.10104 0,-5.60917 -0.105833,-0.39687 -0.238125,-0.76729 -0.396875,-1.11125 -0.05292,-0.0794 -0.105833,-0.15875 -0.132291,-0.23812 -0.02646,-0.0529 -0.05292,-0.10583 -0.07937,-0.13229 l -0.02646,-0.0794"
       class="gn_43"
       id="path415"
       style="display:block;fill:none;stroke:#ff9900;stroke-width:0.909373;stroke-linejoin:round" />
    <path
       fill-rule="evenodd"
       d="m 58.365469,278.49052 -4.365624,-0.42334 3.069166,3.12209 z"
       class="go_43"
       id="path416"
       style="display:block;fill:#ff9900;stroke:#ff9900;stroke-width:0.909373;stroke-miterlimit:10" />
    <path
       fill-rule="evenodd"
       d="m 53.60297,254.9426 h 0.396875 v 8.255 H 53.60297 Z"
       class="g4_43"
       id="path417"
       style="display:block;fill:#999999;stroke-width:0.264583" />
    <path
       d="m 53.60297,254.9426 h 0.396875 v 8.255 H 53.60297 Z"
       class="g5_43"
       id="path418"
       style="display:block;fill:none;stroke:#999999;stroke-width:0.302948;stroke-linejoin:round" />
    <path
       fill-rule="evenodd"
       d="m 53.735261,255.28656 v 0 c 0,-0.21167 0.15875,-0.34396 0.343959,-0.34396 h 4.153958 c 0.07937,0 0.185208,0.0265 0.238125,0.0794 0.07937,0.0794 0.105833,0.15875 0.105833,0.26458 v 1.37583 c 0,0.18521 -0.15875,0.34396 -0.343958,0.34396 H 54.07922 c -0.185209,0 -0.343959,-0.15875 -0.343959,-0.34396 z"
       class="g4_43"
       id="path419"
       style="display:block;fill:#999999;stroke-width:0.264583" />
    <path
       d="m 53.735261,255.28656 v 0 c 0,-0.21167 0.15875,-0.34396 0.343959,-0.34396 h 4.153958 c 0.07937,0 0.185208,0.0265 0.238125,0.0794 0.07937,0.0794 0.105833,0.15875 0.105833,0.26458 v 1.37583 c 0,0.18521 -0.15875,0.34396 -0.343958,0.34396 H 54.07922 c -0.185209,0 -0.343959,-0.15875 -0.343959,-0.34396 z"
       class="g5_43"
       id="path420"
       style="display:block;fill:none;stroke:#999999;stroke-width:0.302948;stroke-linejoin:round" />
    <path
       fill-rule="evenodd"
       d="m 57.042553,255.94802 v 0 c 0,-0.34396 0.238125,-0.60854 0.555625,-0.60854 0.132291,0 0.264583,0.0794 0.370416,0.1852 0.105834,0.10584 0.15875,0.26459 0.15875,0.42334 0,0.3175 -0.238125,0.58208 -0.529166,0.58208 -0.3175,0 -0.555625,-0.26458 -0.555625,-0.58208 z"
       class="ga_43"
       id="path421"
       style="display:block;fill:#ff0000;stroke-width:0.264583" />
    <path
       fill-rule="evenodd"
       d="m 55.50797,255.94802 v 0 c 0,-0.34396 0.238125,-0.60854 0.555625,-0.60854 0.132291,0 0.264583,0.0794 0.370416,0.1852 0.105834,0.10584 0.15875,0.26459 0.15875,0.42334 0,0.3175 -0.238125,0.58208 -0.529166,0.58208 -0.3175,0 -0.555625,-0.26458 -0.555625,-0.58208 z"
       class="gb_43"
       id="path422"
       style="display:block;fill:#f1c232;stroke-width:0.264583" />
    <path
       fill-rule="evenodd"
       d="m 53.973386,255.94802 v 0 c 0,-0.34396 0.238125,-0.60854 0.555625,-0.60854 0.132292,0 0.264584,0.0794 0.370417,0.1852 0.105833,0.10584 0.15875,0.26459 0.15875,0.42334 0,0.3175 -0.238125,0.58208 -0.529167,0.58208 -0.3175,0 -0.555625,-0.26458 -0.555625,-0.58208 z"
       class="gc_43"
       id="path423"
       style="display:block;fill:#38761d;stroke-width:0.264583" />
    <path
       fill-rule="evenodd"
       d="m 70.245261,275.95052 h -0.396875 v 8.255 h 0.396875 z"
       class="g4_43"
       id="path424"
       style="display:block;fill:#999999;stroke-width:0.264583" />
    <path
       d="m 70.245261,275.95052 h -0.396875 v 8.255 h 0.396875 z"
       class="g5_43"
       id="path425"
       style="display:block;fill:none;stroke:#999999;stroke-width:0.302948;stroke-linejoin:round" />
    <path
       fill-rule="evenodd"
       d="m 70.112969,276.29448 v 0 c 0,-0.18521 -0.15875,-0.34396 -0.343958,-0.34396 h -4.1275 c -0.105833,0 -0.185208,0.0265 -0.264583,0.10583 -0.05292,0.0529 -0.07937,0.15875 -0.07937,0.23813 v 1.37583 c 0,0.21167 0.132291,0.34396 0.343958,0.34396 h 4.1275 c 0.185208,0 0.343958,-0.13229 0.343958,-0.34396 z"
       class="g4_43"
       id="path426"
       style="display:block;fill:#999999;stroke-width:0.264583" />
    <path
       d="m 70.112969,276.29448 v 0 c 0,-0.18521 -0.15875,-0.34396 -0.343958,-0.34396 h -4.1275 c -0.105833,0 -0.185208,0.0265 -0.264583,0.10583 -0.05292,0.0529 -0.07937,0.15875 -0.07937,0.23813 v 1.37583 c 0,0.21167 0.132291,0.34396 0.343958,0.34396 h 4.1275 c 0.185208,0 0.343958,-0.13229 0.343958,-0.34396 z"
       class="g5_43"
       id="path427"
       style="display:block;fill:none;stroke:#999999;stroke-width:0.302948;stroke-linejoin:round" />
    <path
       fill-rule="evenodd"
       d="m 50.216303,282.93552 v -0.42334 h 3.571875 v 0.42334 z"
       class="g4_43"
       id="path428"
       style="display:block;fill:#999999;stroke-width:0.264583" />
    <path
       d="m 50.216303,282.93552 v -0.42334 h 3.571875 v 0.42334 z"
       class="g5_43"
       id="path429"
       style="display:block;fill:none;stroke:#999999;stroke-width:0.302948;stroke-linejoin:round" />
    <path
       fill-rule="evenodd"
       d="m 50.533803,282.8826 v 0 c -0.15875,0 -0.3175,-0.13229 -0.3175,-0.3175 v -4.63021 c 0,-0.0794 0.05292,-0.15875 0.105833,-0.21166 0.05292,-0.0794 0.132292,-0.10584 0.211667,-0.10584 h 1.27 c 0.185208,0 0.3175,0.15875 0.3175,0.3175 v 4.63021 c 0,0.18521 -0.132292,0.3175 -0.3175,0.3175 z"
       class="g4_43"
       id="path430"
       style="display:block;fill:#999999;stroke-width:0.264583" />
    <path
       d="m 50.533803,282.8826 v 0 c -0.15875,0 -0.3175,-0.13229 -0.3175,-0.3175 v -4.63021 c 0,-0.0794 0.05292,-0.15875 0.105833,-0.21166 0.05292,-0.0794 0.132292,-0.10584 0.211667,-0.10584 h 1.27 c 0.185208,0 0.3175,0.15875 0.3175,0.3175 v 4.63021 c 0,0.18521 -0.132292,0.3175 -0.3175,0.3175 z"
       class="g5_43"
       id="path431"
       style="display:block;fill:none;stroke:#999999;stroke-width:0.302948;stroke-linejoin:round" />
    <path
       fill-rule="evenodd"
       d="m 51.142345,279.28427 v 0 c -0.291042,0 -0.529167,-0.26459 -0.529167,-0.58209 0,-0.34395 0.238125,-0.60854 0.529167,-0.60854 0.3175,0 0.555625,0.26459 0.555625,0.60854 0,0.3175 -0.238125,0.58209 -0.555625,0.58209 z"
       class="ga_43"
       id="path432"
       style="display:block;fill:#ff0000;stroke-width:0.264583" />
    <path
       fill-rule="evenodd"
       d="m 51.142345,280.95114 v 0 c -0.291042,0 -0.529167,-0.26458 -0.529167,-0.58208 0,-0.34396 0.238125,-0.60854 0.529167,-0.60854 0.3175,0 0.555625,0.26458 0.555625,0.60854 0,0.3175 -0.238125,0.58208 -0.555625,0.58208 z"
       class="gb_43"
       id="path433"
       style="display:block;fill:#f1c232;stroke-width:0.264583" />
    <path
       fill-rule="evenodd"
       d="m 51.142345,282.61802 v 0 c -0.291042,0 -0.529167,-0.26459 -0.529167,-0.58209 0,-0.34395 0.238125,-0.60854 0.529167,-0.60854 0.3175,0 0.555625,0.26459 0.555625,0.60854 0,0.3175 -0.238125,0.58209 -0.555625,0.58209 z"
       class="gc_43"
       id="path434"
       style="display:block;fill:#38761d;stroke-width:0.264583" />
    <path
       fill-rule="evenodd"
       d="m 112.57864,247.66656 h 15.31938 v 51.56729 h -15.31938 z"
       class="g3_43"
       id="path435"
       style="display:block;fill:#666666;stroke-width:0.264583" />
    <path
       fill-rule="evenodd"
       d="m 96.650682,265.76406 h 47.281088 v 15.37229 H 96.650682 Z"
       class="g3_43"
       id="path436"
       style="display:block;fill:#666666;stroke-width:0.264583" />
    <path
       fill-rule="evenodd"
       d="m 112.63156,247.77239 h 0.84667 v 17.33021 h -0.84667 z"
       class="g4_43"
       id="path437"
       style="display:block;fill:#999999;stroke-width:0.264583" />
    <path
       d="m 112.63156,247.77239 h 0.84667 v 17.33021 h -0.84667 z"
       class="g5_43"
       id="path438"
       style="display:block;fill:none;stroke:#999999;stroke-width:0.302948;stroke-linejoin:round" />
    <path
       fill-rule="evenodd"
       d="m 126.99844,247.77239 h 0.87312 v 17.33021 h -0.87312 z"
       class="g4_43"
       id="path439"
       style="display:block;fill:#999999;stroke-width:0.264583" />
    <path
       d="m 126.99844,247.77239 h 0.87312 v 17.33021 h -0.87312 z"
       class="g5_43"
       id="path440"
       style="display:block;fill:none;stroke:#999999;stroke-width:0.302948;stroke-linejoin:round" />
    <path
       fill-rule="evenodd"
       d="m 112.65802,281.79781 h 0.84667 v 17.33021 h -0.84667 z"
       class="g4_43"
       id="path441"
       style="display:block;fill:#999999;stroke-width:0.264583" />
    <path
       d="m 112.65802,281.79781 h 0.84667 v 17.33021 h -0.84667 z"
       class="g5_43"
       id="path442"
       style="display:block;fill:none;stroke:#999999;stroke-width:0.302948;stroke-linejoin:round" />
    <path
       fill-rule="evenodd"
       d="m 127.02489,281.79781 h 0.87313 v 17.33021 h -0.87313 z"
       class="g4_43"
       id="path443"
       style="display:block;fill:#999999;stroke-width:0.264583" />
    <path
       d="m 127.02489,281.79781 h 0.87313 v 17.33021 h -0.87313 z"
       class="g5_43"
       id="path444"
       style="display:block;fill:none;stroke:#999999;stroke-width:0.302948;stroke-linejoin:round" />
    <path
       fill-rule="evenodd"
       d="m 113.50469,265.12906 v 0.92604 H 96.730057 v -0.92604 z"
       class="g4_43"
       id="path445"
       style="display:block;fill:#999999;stroke-width:0.264583" />
    <path
       d="m 113.50469,265.12906 v 0.92604 H 96.730057 v -0.92604 z"
       class="g5_43"
       id="path446"
       style="display:block;fill:none;stroke:#999999;stroke-width:0.302948;stroke-linejoin:round" />
    <path
       fill-rule="evenodd"
       d="m 113.50469,280.79239 v 0.92604 H 96.730057 v -0.92604 z"
       class="g4_43"
       id="path447"
       style="display:block;fill:#999999;stroke-width:0.264583" />
    <path
       d="m 113.50469,280.79239 v 0.92604 H 96.730057 v -0.92604 z"
       class="g5_43"
       id="path448"
       style="display:block;fill:none;stroke:#999999;stroke-width:0.302948;stroke-linejoin:round" />
    <path
       fill-rule="evenodd"
       d="m 143.79948,265.15552 v 0.92604 h -16.74813 v -0.92604 z"
       class="g4_43"
       id="path449"
       style="display:block;fill:#999999;stroke-width:0.264583" />
    <path
       d="m 143.79948,265.15552 v 0.92604 h -16.74813 v -0.92604 z"
       class="g5_43"
       id="path450"
       style="display:block;fill:none;stroke:#999999;stroke-width:0.302948;stroke-linejoin:round" />
    <path
       fill-rule="evenodd"
       d="m 143.79948,280.79239 v 0.9525 h -16.74813 v -0.9525 z"
       class="g4_43"
       id="path451"
       style="display:block;fill:#999999;stroke-width:0.264583" />
    <path
       d="m 143.79948,280.79239 v 0.9525 h -16.74813 v -0.9525 z"
       class="g5_43"
       id="path452"
       style="display:block;fill:none;stroke:#999999;stroke-width:0.302948;stroke-linejoin:round" />
    <path
       fill-rule="evenodd"
       d="m 104.29714,273.48989 -7.593541,-0.0529 z"
       class="g1_43"
       id="path453"
       style="display:block;fill:#000000;fill-opacity:0;stroke-width:0.264583" />
    <path
       d="m 104.29714,273.48989 -7.593541,-0.0529"
       class="g6_43"
       id="path454"
       style="display:block;fill:none;stroke:#f3f3f3;stroke-width:0.60616;stroke-linejoin:round;stroke-dasharray:2.64583, 1.85208" />
    <path
       fill-rule="evenodd"
       d="m 143.79948,273.48989 -7.59354,-0.0529 z"
       class="g1_43"
       id="path455"
       style="display:block;fill:#000000;fill-opacity:0;stroke-width:0.264583" />
    <path
       d="m 143.79948,273.48989 -7.59354,-0.0529"
       class="g6_43"
       id="path456"
       style="display:block;fill:none;stroke:#f3f3f3;stroke-width:0.60616;stroke-linejoin:round;stroke-dasharray:2.64583, 1.85208" />
    <path
       fill-rule="evenodd"
       d="m 120.2251,256.02739 0.0265,-8.255 z"
       class="g1_43"
       id="path457"
       style="display:block;fill:#000000;fill-opacity:0;stroke-width:0.264583" />
    <path
       d="m 120.2251,256.02739 0.0265,-8.255"
       class="g6_43"
       id="path458"
       style="display:block;fill:none;stroke:#f3f3f3;stroke-width:0.60616;stroke-linejoin:round;stroke-dasharray:2.64583, 1.85208" />
    <path
       fill-rule="evenodd"
       d="m 120.25156,299.12802 0.0265,-8.255 z"
       class="g1_43"
       id="path459"
       style="display:block;fill:#000000;fill-opacity:0;stroke-width:0.264583" />
    <path
       d="m 120.25156,299.12802 0.0265,-8.255"
       class="g6_43"
       id="path460"
       style="display:block;fill:none;stroke:#f3f3f3;stroke-width:0.60616;stroke-linejoin:round;stroke-dasharray:2.64583, 1.85208" />
    <path
       fill-rule="evenodd"
       d="m 104.37652,273.56927 0.0265,-7.48771 z"
       class="g1_43"
       id="path461"
       style="display:block;fill:#000000;fill-opacity:0;stroke-width:0.264583" />
    <path
       d="m 104.37652,273.56927 0.0265,-7.48771"
       class="g7_43"
       id="path462"
       style="display:block;fill:none;stroke:#f3f3f3;stroke-width:0.909373;stroke-linejoin:round" />
    <path
       fill-rule="evenodd"
       d="m 136.28531,280.92468 0.0265,-7.4877 z"
       class="g1_43"
       id="path463"
       style="display:block;fill:#000000;fill-opacity:0;stroke-width:0.264583" />
    <path
       d="m 136.28531,280.92468 0.0265,-7.4877"
       class="g7_43"
       id="path464"
       style="display:block;fill:none;stroke:#f3f3f3;stroke-width:0.909373;stroke-linejoin:round" />
    <path
       fill-rule="evenodd"
       d="m 120.14573,256.18614 h 6.87916 z"
       class="g1_43"
       id="path465"
       style="display:block;fill:#000000;fill-opacity:0;stroke-width:0.264583" />
    <path
       d="m 120.14573,256.18614 h 6.87916"
       class="g7_43"
       id="path466"
       style="display:block;fill:none;stroke:#f3f3f3;stroke-width:0.909373;stroke-linejoin:round" />
    <path
       fill-rule="evenodd"
       d="m 113.53114,290.87302 6.87917,0.0265 z"
       class="g1_43"
       id="path467"
       style="display:block;fill:#000000;fill-opacity:0;stroke-width:0.264583" />
    <path
       d="m 113.53114,290.87302 6.87917,0.0265"
       class="g7_43"
       id="path468"
       style="display:block;fill:none;stroke:#f3f3f3;stroke-width:0.909373;stroke-linejoin:round" />
    <path
       fill-rule="evenodd"
       d="m 113.8751,285.66073 h 0.74084 v 3.41312 h -0.74084 z"
       class="g8_43"
       id="path469"
       style="display:block;fill:#eeeeee;stroke-width:0.264583" />
    <path
       fill-rule="evenodd"
       d="m 115.43614,285.66073 h 0.71438 v 3.41312 h -0.71438 z"
       class="g8_43"
       id="path470"
       style="display:block;fill:#eeeeee;stroke-width:0.264583" />
    <path
       fill-rule="evenodd"
       d="m 116.97073,285.66073 h 0.74083 v 3.41312 h -0.74083 z"
       class="g8_43"
       id="path471"
       style="display:block;fill:#eeeeee;stroke-width:0.264583" />
    <path
       fill-rule="evenodd"
       d="m 118.50531,285.66073 h 0.74083 v 3.41312 h -0.74083 z"
       class="g8_43"
       id="path472"
       style="display:block;fill:#eeeeee;stroke-width:0.264583" />
    <path
       fill-rule="evenodd"
       d="m 120.06635,285.66073 h 0.71438 v 3.41312 h -0.71438 z"
       class="g8_43"
       id="path473"
       style="display:block;fill:#eeeeee;stroke-width:0.264583" />
    <path
       fill-rule="evenodd"
       d="m 121.60094,285.66073 h 0.71437 v 3.41312 h -0.71437 z"
       class="g8_43"
       id="path474"
       style="display:block;fill:#eeeeee;stroke-width:0.264583" />
    <path
       fill-rule="evenodd"
       d="m 123.13552,285.66073 h 0.74083 v 3.41312 h -0.74083 z"
       class="g8_43"
       id="path475"
       style="display:block;fill:#eeeeee;stroke-width:0.264583" />
    <path
       fill-rule="evenodd"
       d="m 124.69656,285.66073 h 0.71438 v 3.41312 h -0.71438 z"
       class="g8_43"
       id="path476"
       style="display:block;fill:#eeeeee;stroke-width:0.264583" />
    <path
       fill-rule="evenodd"
       d="m 126.23114,285.66073 h 0.71438 v 3.41312 h -0.71438 z"
       class="g8_43"
       id="path477"
       style="display:block;fill:#eeeeee;stroke-width:0.264583" />
    <path
       fill-rule="evenodd"
       d="m 113.71635,258.17052 h 0.71438 v 3.38666 h -0.71438 z"
       class="g8_43"
       id="path478"
       style="display:block;fill:#eeeeee;stroke-width:0.264583" />
    <path
       fill-rule="evenodd"
       d="m 115.25094,258.17052 h 0.74083 v 3.38666 h -0.74083 z"
       class="g8_43"
       id="path479"
       style="display:block;fill:#eeeeee;stroke-width:0.264583" />
    <path
       fill-rule="evenodd"
       d="m 116.78552,258.17052 h 0.74083 v 3.38666 h -0.74083 z"
       class="g8_43"
       id="path480"
       style="display:block;fill:#eeeeee;stroke-width:0.264583" />
    <path
       fill-rule="evenodd"
       d="m 118.34656,258.17052 h 0.71438 v 3.38666 h -0.71438 z"
       class="g8_43"
       id="path481"
       style="display:block;fill:#eeeeee;stroke-width:0.264583" />
    <path
       fill-rule="evenodd"
       d="m 119.88114,258.17052 h 0.71438 v 3.38666 h -0.71438 z"
       class="g8_43"
       id="path482"
       style="display:block;fill:#eeeeee;stroke-width:0.264583" />
    <path
       fill-rule="evenodd"
       d="m 121.41573,258.17052 h 0.74083 v 3.38666 h -0.74083 z"
       class="g8_43"
       id="path483"
       style="display:block;fill:#eeeeee;stroke-width:0.264583" />
    <path
       fill-rule="evenodd"
       d="m 122.97677,258.17052 h 0.71437 v 3.38666 h -0.71437 z"
       class="g8_43"
       id="path484"
       style="display:block;fill:#eeeeee;stroke-width:0.264583" />
    <path
       fill-rule="evenodd"
       d="m 124.51135,258.17052 h 0.71438 v 3.38666 h -0.71438 z"
       class="g8_43"
       id="path485"
       style="display:block;fill:#eeeeee;stroke-width:0.264583" />
    <path
       fill-rule="evenodd"
       d="m 126.04594,258.17052 h 0.74083 v 3.38666 h -0.74083 z"
       class="g8_43"
       id="path486"
       style="display:block;fill:#eeeeee;stroke-width:0.264583" />
    <path
       fill-rule="evenodd"
       d="m 109.43009,266.34614 v 0.79375 h -3.1221 v -0.79375 z"
       class="g8_43"
       id="path487"
       style="display:block;fill:#eeeeee;stroke-width:0.264583" />
    <path
       fill-rule="evenodd"
       d="m 109.43009,268.01302 v 0.79375 h -3.1221 v -0.79375 z"
       class="g8_43"
       id="path488"
       style="display:block;fill:#eeeeee;stroke-width:0.264583" />
    <path
       fill-rule="evenodd"
       d="m 109.43009,269.70635 v 0.79375 h -3.1221 v -0.79375 z"
       class="g8_43"
       id="path489"
       style="display:block;fill:#eeeeee;stroke-width:0.264583" />
    <path
       fill-rule="evenodd"
       d="m 109.43009,271.37323 v 0.79375 h -3.1221 v -0.79375 z"
       class="g8_43"
       id="path490"
       style="display:block;fill:#eeeeee;stroke-width:0.264583" />
    <path
       fill-rule="evenodd"
       d="m 109.43009,273.06656 v 0.79375 h -3.1221 v -0.79375 z"
       class="g8_43"
       id="path491"
       style="display:block;fill:#eeeeee;stroke-width:0.264583" />
    <path
       fill-rule="evenodd"
       d="m 109.43009,274.73343 v 0.79375 h -3.1221 v -0.79375 z"
       class="g8_43"
       id="path492"
       style="display:block;fill:#eeeeee;stroke-width:0.264583" />
    <path
       fill-rule="evenodd"
       d="m 109.43009,276.40031 v 0.79375 h -3.1221 v -0.79375 z"
       class="g8_43"
       id="path493"
       style="display:block;fill:#eeeeee;stroke-width:0.264583" />
    <path
       fill-rule="evenodd"
       d="m 109.43009,278.09364 v 0.79375 h -3.1221 v -0.79375 z"
       class="g8_43"
       id="path494"
       style="display:block;fill:#eeeeee;stroke-width:0.264583" />
    <path
       fill-rule="evenodd"
       d="m 109.43009,279.76052 v 0.79375 h -3.1221 v -0.79375 z"
       class="g8_43"
       id="path495"
       style="display:block;fill:#eeeeee;stroke-width:0.264583" />
    <path
       fill-rule="evenodd"
       d="m 134.30094,266.34614 v 0.79375 h -3.12209 v -0.79375 z"
       class="g8_43"
       id="path496"
       style="display:block;fill:#eeeeee;stroke-width:0.264583" />
    <path
       fill-rule="evenodd"
       d="m 134.30094,268.01302 v 0.79375 h -3.12209 v -0.79375 z"
       class="g8_43"
       id="path497"
       style="display:block;fill:#eeeeee;stroke-width:0.264583" />
    <path
       fill-rule="evenodd"
       d="m 134.30094,269.70635 v 0.79375 h -3.12209 v -0.79375 z"
       class="g8_43"
       id="path498"
       style="display:block;fill:#eeeeee;stroke-width:0.264583" />
    <path
       fill-rule="evenodd"
       d="m 134.30094,271.37323 v 0.79375 h -3.12209 v -0.79375 z"
       class="g8_43"
       id="path499"
       style="display:block;fill:#eeeeee;stroke-width:0.264583" />
    <path
       fill-rule="evenodd"
       d="m 134.30094,273.06656 v 0.79375 h -3.12209 v -0.79375 z"
       class="g8_43"
       id="path500"
       style="display:block;fill:#eeeeee;stroke-width:0.264583" />
    <path
       fill-rule="evenodd"
       d="m 134.30094,274.73343 v 0.79375 h -3.12209 v -0.79375 z"
       class="g8_43"
       id="path501"
       style="display:block;fill:#eeeeee;stroke-width:0.264583" />
    <path
       fill-rule="evenodd"
       d="m 134.30094,276.40031 v 0.79375 h -3.12209 v -0.79375 z"
       class="g8_43"
       id="path502"
       style="display:block;fill:#eeeeee;stroke-width:0.264583" />
    <path
       fill-rule="evenodd"
       d="m 134.30094,278.09364 v 0.79375 h -3.12209 v -0.79375 z"
       class="g8_43"
       id="path503"
       style="display:block;fill:#eeeeee;stroke-width:0.264583" />
    <path
       fill-rule="evenodd"
       d="m 134.30094,279.76052 v 0.79375 h -3.12209 v -0.79375 z"
       class="g8_43"
       id="path504"
       style="display:block;fill:#eeeeee;stroke-width:0.264583" />
    <path
       fill-rule="evenodd"
       d="m 119.56364,273.62218 0.74084,-0.79375 0.74083,0.79375 -0.74083,0.79375 z"
       class="g1_43"
       id="path505"
       style="display:block;fill:#000000;fill-opacity:0;stroke-width:0.264583" />
    <path
       d="m 119.56364,273.62218 0.74084,-0.79375 0.74083,0.79375 -0.74083,0.79375 z"
       class="g9_43"
       id="path506"
       style="display:block;fill:none;stroke:#f3f3f3;stroke-width:0.302948;stroke-linejoin:round" />
    <path
       fill-rule="evenodd"
       d="m 131.94614,264.41468 v -0.42333 h -3.57187 v 0.42333 z"
       class="g4_43"
       id="path507"
       style="display:block;fill:#999999;stroke-width:0.264583" />
    <path
       d="m 131.94614,264.41468 v -0.42333 h -3.57187 v 0.42333 z"
       class="g5_43"
       id="path508"
       style="display:block;fill:none;stroke:#999999;stroke-width:0.302948;stroke-linejoin:round" />
    <path
       fill-rule="evenodd"
       d="m 131.62864,264.36177 v 0 c 0.15875,0 0.3175,-0.13229 0.3175,-0.3175 v -4.63021 c 0,-0.0794 -0.0529,-0.15875 -0.10583,-0.21167 -0.0529,-0.0794 -0.13229,-0.10583 -0.21167,-0.10583 h -1.27 c -0.1852,0 -0.3175,0.13229 -0.3175,0.3175 v 4.63021 c 0,0.18521 0.1323,0.3175 0.3175,0.3175 z"
       class="g4_43"
       id="path509"
       style="display:block;fill:#999999;stroke-width:0.264583" />
    <path
       d="m 131.62864,264.36177 v 0 c 0.15875,0 0.3175,-0.13229 0.3175,-0.3175 v -4.63021 c 0,-0.0794 -0.0529,-0.15875 -0.10583,-0.21167 -0.0529,-0.0794 -0.13229,-0.10583 -0.21167,-0.10583 h -1.27 c -0.1852,0 -0.3175,0.13229 -0.3175,0.3175 v 4.63021 c 0,0.18521 0.1323,0.3175 0.3175,0.3175 z"
       class="g5_43"
       id="path510"
       style="display:block;fill:none;stroke:#999999;stroke-width:0.302948;stroke-linejoin:round" />
    <path
       fill-rule="evenodd"
       d="m 131.0201,260.76343 v 0 c 0.29104,0 0.52917,-0.26458 0.52917,-0.60854 0,-0.3175 -0.23813,-0.58208 -0.52917,-0.58208 -0.3175,0 -0.55562,0.26458 -0.55562,0.58208 0,0.34396 0.23812,0.60854 0.55562,0.60854 z"
       class="ga_43"
       id="path511"
       style="display:block;fill:#ff0000;stroke-width:0.264583" />
    <path
       fill-rule="evenodd"
       d="m 131.0201,262.43031 v 0 c 0.29104,0 0.52917,-0.26458 0.52917,-0.58208 0,-0.34396 -0.23813,-0.60855 -0.52917,-0.60855 -0.3175,0 -0.55562,0.26459 -0.55562,0.60855 0,0.3175 0.23812,0.58208 0.55562,0.58208 z"
       class="gb_43"
       id="path512"
       style="display:block;fill:#f1c232;stroke-width:0.264583" />
    <path
       fill-rule="evenodd"
       d="m 131.0201,264.09718 v 0 c 0.29104,0 0.52917,-0.26458 0.52917,-0.58208 0,-0.34396 -0.23813,-0.60854 -0.52917,-0.60854 -0.3175,0 -0.55562,0.26458 -0.55562,0.60854 0,0.3175 0.23812,0.58208 0.55562,0.58208 z"
       class="gc_43"
       id="path513"
       style="display:block;fill:#38761d;stroke-width:0.264583" />
    <path
       fill-rule="evenodd"
       d="m 143.87885,266.16093 v 7.27605 h -7.43479 v -7.27605 z"
       class="gl_43"
       id="path514"
       style="display:block;fill:#ea9999;fill-opacity:0.37;stroke-width:0.264583" />
    <path
       fill-rule="evenodd"
       d="m 113.53114,291.00531 h 6.77334 v 8.12271 h -6.77334 z"
       class="gl_43"
       id="path515"
       style="display:block;fill:#ea9999;fill-opacity:0.37;stroke-width:0.264583" />
    <path
       fill-rule="evenodd"
       d="m 143.82594,273.46343 v 7.32896 h -7.38188 v -7.32896 z"
       class="gl_43"
       id="path516"
       style="display:block;fill:#ea9999;fill-opacity:0.37;stroke-width:0.264583" />
    <path
       fill-rule="evenodd"
       d="m 104.27069,266.16093 v 7.3025 h -7.620008 v -7.3025 z"
       class="gl_43"
       id="path517"
       style="display:block;fill:#ea9999;fill-opacity:0.37;stroke-width:0.264583" />
    <path
       fill-rule="evenodd"
       d="m 104.27069,273.46343 v 7.3025 h -7.620008 v -7.3025 z"
       class="gl_43"
       id="path518"
       style="display:block;fill:#ea9999;fill-opacity:0.37;stroke-width:0.264583" />
    <path
       fill-rule="evenodd"
       d="m 126.99844,299.12802 h -6.69396 v -8.09625 h 6.69396 z"
       class="gl_43"
       id="path519"
       style="display:block;fill:#ea9999;fill-opacity:0.37;stroke-width:0.264583" />
    <path
       fill-rule="evenodd"
       d="m 126.94552,256.02739 h -6.6675 v -8.28146 h 6.6675 z"
       class="gl_43"
       id="path520"
       style="display:block;fill:#ea9999;fill-opacity:0.37;stroke-width:0.264583" />
    <path
       fill-rule="evenodd"
       d="m 120.25156,256.00093 h -6.69396 v -8.255 h 6.69396 z"
       class="gl_43"
       id="path521"
       style="display:block;fill:#ea9999;fill-opacity:0.37;stroke-width:0.264583" />
    <path
       fill-rule="evenodd"
       d="m 126.99844,291.00531 h -6.69396 v -34.95146 h 6.69396 z"
       class="gd_43"
       id="path522"
       style="display:block;fill:#9fc5e8;fill-opacity:0.41;stroke-width:0.264583" />
    <path
       fill-rule="evenodd"
       d="m 120.25156,291.00531 h -6.6675 v -34.95146 h 6.6675 z"
       class="gd_43"
       id="path523"
       style="display:block;fill:#9fc5e8;fill-opacity:0.41;stroke-width:0.264583" />
    <path
       fill-rule="evenodd"
       d="m 104.27069,280.71302 v -7.24959 h 32.14691 v 7.24959 z"
       class="gd_43"
       id="path524"
       style="display:block;fill:#9fc5e8;fill-opacity:0.41;stroke-width:0.264583" />
    <path
       fill-rule="evenodd"
       d="m 104.27069,273.41052 v -7.3025 h 32.14691 v 7.3025 z"
       class="gd_43"
       id="path525"
       style="display:block;fill:#9fc5e8;fill-opacity:0.41;stroke-width:0.264583" />
    <path
       fill-rule="evenodd"
       d="m 136.23239,266.13448 v 7.22312 l -2.24895,0.3175 -2.43417,0.71438 -1.95792,0.89958 -1.56104,0.92604 -1.40229,0.97896 -1.03188,1.00542 -1.11125,1.16416 -0.87312,1.03188 -0.635,0.92604 -0.635,1.16417 -0.71438,1.48166 -0.79375,2.24896 -0.47625,2.61938 -0.13229,2.16958 -6.6675,-0.0529 0.15875,-3.96875 0.47625,-2.93687 0.84667,-2.69875 0.9525,-2.14313 0.74083,-1.34937 0.82021,-1.21709 0.66146,-0.89958 0.58208,-0.71437 0.66146,-0.71438 0.82021,-0.84667 0.9525,-0.92604 0.84667,-0.76729 0.8202,-0.635 1.27,-0.92604 1.64042,-1.03188 2.19604,-1.03187 2.27542,-0.84667 3.06917,-0.79375 z"
       class="gm_43"
       id="path526"
       style="display:block;fill:#ffff00;fill-opacity:0.59;stroke-width:0.264583" />
    <path
       fill-rule="evenodd"
       d="m 104.3236,280.71302 0.0265,-7.17021 2.24897,-0.3175 2.43418,-0.68792 1.95793,-0.92604 1.53459,-0.89958 1.40229,-0.97896 1.05833,-1.00542 1.08479,-1.13771 0.87313,-1.00541 0.66146,-0.92604 0.60854,-1.16417 0.74083,-1.45521 0.79375,-2.24896 0.47625,-2.59291 0.10584,-2.14313 6.6675,0.0529 -0.15875,3.94229 -0.4498,2.88396 -0.84666,2.69875 -0.97896,2.11666 -0.74083,1.32292 -0.79375,1.21708 -0.68792,0.89959 -0.58208,0.71437 -0.635,0.68792 -0.82021,0.84667 -0.97896,0.89958 -0.84667,0.76729 -0.82021,0.635 -1.24354,0.92604 -1.66687,1.00542 -2.16959,1.03187 -2.27542,0.84667 -3.06918,0.79375 z"
       class="gm_43"
       id="path527"
       style="display:block;fill:#ffff00;fill-opacity:0.59;stroke-width:0.264583" />
    <path
       fill-rule="evenodd"
       d="m 126.91906,291.03177 -6.53521,-0.0265 -0.3175,-2.46063 -0.635,-2.69875 -0.82021,-2.14312 -0.8202,-1.69333 -0.89959,-1.53459 -0.92604,-1.13771 -1.03187,-1.21708 -0.9525,-0.92604 -0.82021,-0.71438 -1.08479,-0.68791 -1.32293,-0.79375 -2.0373,-0.87313 -2.38126,-0.52916 -1.95793,-0.1323 0.0265,-7.3025 3.62481,0.15875 2.64585,0.52917 2.46063,0.92604 1.93146,1.05834 1.21708,0.79375 1.11125,0.89958 0.82021,0.74083 0.635,0.635 0.66146,0.71438 0.74083,0.89958 0.84667,1.05833 0.68791,0.92605 0.60855,0.89958 0.84666,1.37583 0.92604,1.79917 0.92605,2.40771 0.76729,2.48708 0.74083,3.38667 z"
       class="gm_43"
       id="path528"
       style="display:block;fill:#ffff00;fill-opacity:0.59;stroke-width:0.264583" />
    <path
       fill-rule="evenodd"
       d="m 113.61052,256.02739 h 6.58812 l 0.3175,2.46063 0.60855,2.67229 0.84666,2.14312 0.82021,1.69334 0.89958,1.53458 0.92605,1.13771 1.05833,1.21708 0.9525,0.92604 0.82021,0.71438 1.08479,0.68792 1.34937,0.79375 2.0373,0.87312 2.4077,0.52917 1.95792,0.13229 -0.0265,7.27604 -3.62479,-0.15875 -2.67229,-0.52917 -2.48708,-0.89958 -1.95792,-1.05833 -1.19063,-0.82021 -1.11125,-0.87313 -0.84666,-0.74083 -0.635,-0.635 -0.66146,-0.71437 -0.76729,-0.89959 -0.84667,-1.05833 -0.68792,-0.92604 -0.60854,-0.89959 -0.84666,-1.37583 -0.92605,-1.79917 -0.9525,-2.38125 -0.76729,-2.51354 -0.71437,-3.36021 z"
       class="gm_43"
       id="path529"
       style="display:block;fill:#ffff00;fill-opacity:0.59;stroke-width:0.264583" />
    <path
       fill-rule="evenodd"
       d="m 104.29714,273.54281 v 7.17021 l 9.26046,-0.0265 0.10584,10.21292 6.61458,0.0265 0.0529,-9.68375 v -1.27 l -0.0794,-0.92604 -0.18521,-0.92604 -0.29104,-0.74083 -0.3175,-0.58209 -0.42333,-0.66145 -0.42334,-0.47625 -0.42333,-0.4498 -0.52917,-0.47625 -0.42333,-0.23812 -0.68792,-0.39688 -0.66145,-0.29104 -0.60855,-0.18521 -0.55562,-0.0794 -0.97896,-0.0794 -3.88939,0.0265 z"
       class="gf_43"
       id="path530"
       style="display:block;fill:#f4cccc;fill-opacity:0.43;stroke-width:0.264583" />
    <path
       fill-rule="evenodd"
       d="m 120.19864,256.02739 h -6.56166 l -0.0529,10.13354 -9.31337,0.0529 -0.0265,7.19667 8.9165,0.0529 h 1.13771 l 0.84666,-0.0794 0.87313,-0.18521 0.66146,-0.3175 0.55562,-0.34396 0.60854,-0.47625 0.42334,-0.44979 0.42333,-0.47625 0.42333,-0.58208 0.23813,-0.44979 0.37041,-0.74084 0.23813,-0.71437 0.15875,-0.66146 0.0794,-0.60854 0.0794,-1.05834 v -4.23333 z"
       class="gf_43"
       id="path531"
       style="display:block;fill:#f4cccc;fill-opacity:0.43;stroke-width:0.264583" />
    <path
       fill-rule="evenodd"
       d="m 136.17948,273.27823 v -7.1173 l -9.31334,-0.0265 -0.0264,-10.08063 -6.61459,-0.0265 -0.0265,9.60438 v 1.27 l 0.0529,0.89958 0.18521,0.92604 0.29104,0.71438 0.3175,0.60854 0.42333,0.66146 0.42334,0.44979 0.42333,0.44979 0.52917,0.47625 0.42333,0.23813 0.68792,0.39687 0.66146,0.29104 0.58208,0.15875 0.58208,0.10584 0.97896,0.0794 3.86292,-0.0265 z"
       class="gf_43"
       id="path532"
       style="display:block;fill:#f4cccc;fill-opacity:0.43;stroke-width:0.264583" />
    <path
       fill-rule="evenodd"
       d="m 120.33094,291.00531 h 6.5352 l 0.0529,-10.23938 9.26042,-0.0529 0.0265,-7.27604 -8.86355,-0.0265 h -1.1377 l -0.84667,0.0529 -0.84667,0.21167 -0.66146,0.3175 -0.55562,0.34396 -0.60854,0.47625 -0.42334,0.47625 -0.42333,0.44979 -0.42333,0.58208 -0.21167,0.47625 -0.37042,0.74084 -0.26458,0.74083 -0.15875,0.635 -0.0794,0.635 -0.0794,1.05833 0.0265,4.28625 z"
       class="gf_43"
       id="path533"
       style="display:block;fill:#f4cccc;fill-opacity:0.43;stroke-width:0.264583" />
    <path
       fill-rule="evenodd"
       d="m 117.71156,287.38052 c 0,-1.03188 -0.18521,-4.52438 0,-6.16479 0.18521,-1.66688 0.47625,-2.69875 1.11125,-3.73063 0.66146,-1.03187 1.82563,-1.82562 2.75167,-2.48708 0.9525,-0.635 1.77271,-0.92604 2.8575,-1.40229 1.11125,-0.47625 3.12208,-1.19063 3.75708,-1.42875 z"
       class="g1_43"
       id="path534"
       style="display:block;fill:#000000;fill-opacity:0;stroke-width:0.264583" />
    <path
       d="m 117.71156,287.38052 c 0,-1.03188 -0.18521,-4.52438 0,-6.16479 0.18521,-1.66688 0.47625,-2.69875 1.11125,-3.73063 0.66146,-1.03187 1.82563,-1.82562 2.75167,-2.48708 0.47625,-0.3175 0.92604,-0.55563 1.37583,-0.76729 l 0.15875,-0.0529"
       class="gp_43"
       id="path535"
       style="display:block;fill:none;stroke:#f7981d;stroke-width:0.909373;stroke-linejoin:round" />
    <path
       fill-rule="evenodd"
       d="m 123.66469,275.55364 3.28083,-2.91041 -4.39208,0.13229 z"
       class="gq_43"
       id="path536"
       style="display:block;fill:#f7981d;stroke:#f7981d;stroke-width:0.909373;stroke-miterlimit:10" />
    <path
       fill-rule="evenodd"
       d="m 111.94364,254.9426 h 0.39688 v 8.255 h -0.39688 z"
       class="g4_43"
       id="path537"
       style="display:block;fill:#999999;stroke-width:0.264583" />
    <path
       d="m 111.94364,254.9426 h 0.39688 v 8.255 h -0.39688 z"
       class="g5_43"
       id="path538"
       style="display:block;fill:none;stroke:#999999;stroke-width:0.302948;stroke-linejoin:round" />
    <path
       fill-rule="evenodd"
       d="m 112.07594,255.28656 v 0 c 0,-0.18521 0.15875,-0.34396 0.37041,-0.34396 h 4.1275 c 0.0794,0 0.18521,0.0265 0.23813,0.10583 0.0794,0.0529 0.10583,0.1323 0.10583,0.23813 v 1.37583 c 0,0.18521 -0.15875,0.34396 -0.34396,0.34396 h -4.1275 c -0.21166,0 -0.37041,-0.15875 -0.37041,-0.34396 z"
       class="g4_43"
       id="path539"
       style="display:block;fill:#999999;stroke-width:0.264583" />
    <path
       d="m 112.07594,255.28656 v 0 c 0,-0.18521 0.15875,-0.34396 0.37041,-0.34396 h 4.1275 c 0.0794,0 0.18521,0.0265 0.23813,0.10583 0.0794,0.0529 0.10583,0.1323 0.10583,0.23813 v 1.37583 c 0,0.18521 -0.15875,0.34396 -0.34396,0.34396 h -4.1275 c -0.21166,0 -0.37041,-0.15875 -0.37041,-0.34396 z"
       class="g5_43"
       id="path540"
       style="display:block;fill:none;stroke:#999999;stroke-width:0.302948;stroke-linejoin:round" />
    <path
       fill-rule="evenodd"
       d="m 115.38323,255.94802 v 0 c 0,-0.34396 0.26458,-0.60854 0.55562,-0.60854 0.13229,0 0.29104,0.0794 0.37042,0.1852 0.10583,0.10584 0.15875,0.26459 0.15875,0.42334 0,0.3175 -0.23813,0.58208 -0.52917,0.58208 -0.29104,0 -0.55562,-0.26458 -0.55562,-0.58208 z"
       class="ga_43"
       id="path541"
       style="display:block;fill:#ff0000;stroke-width:0.264583" />
    <path
       fill-rule="evenodd"
       d="m 113.84864,255.94802 v 0 c 0,-0.34396 0.23813,-0.60854 0.55563,-0.60854 0.13229,0 0.29104,0.0794 0.37042,0.1852 0.10583,0.10584 0.15875,0.26459 0.15875,0.42334 0,0.3175 -0.23813,0.58208 -0.52917,0.58208 -0.3175,0 -0.55563,-0.26458 -0.55563,-0.58208 z"
       class="gb_43"
       id="path542"
       style="display:block;fill:#f1c232;stroke-width:0.264583" />
    <path
       fill-rule="evenodd"
       d="m 112.31406,255.94802 v 0 c 0,-0.34396 0.23813,-0.60854 0.55563,-0.60854 0.13229,0 0.29104,0.0794 0.37041,0.1852 0.10584,0.10584 0.15875,0.26459 0.15875,0.42334 0,0.3175 -0.23812,0.58208 -0.52916,0.58208 -0.3175,0 -0.55563,-0.26458 -0.55563,-0.58208 z"
       class="gc_43"
       id="path543"
       style="display:block;fill:#38761d;stroke-width:0.264583" />
    <path
       fill-rule="evenodd"
       d="m 128.58594,275.95052 h -0.37042 v 8.255 h 0.37042 z"
       class="g4_43"
       id="path544"
       style="display:block;fill:#999999;stroke-width:0.264583" />
    <path
       d="m 128.58594,275.95052 h -0.37042 v 8.255 h 0.37042 z"
       class="g5_43"
       id="path545"
       style="display:block;fill:none;stroke:#999999;stroke-width:0.302948;stroke-linejoin:round" />
    <path
       fill-rule="evenodd"
       d="m 128.45364,276.29448 v 0 c 0,-0.18521 -0.13229,-0.34396 -0.34395,-0.34396 h -4.1275 c -0.10584,0 -0.18521,0.0529 -0.23813,0.10583 -0.0794,0.0794 -0.10583,0.15875 -0.10583,0.23813 v 1.40229 c 0,0.18521 0.15875,0.34396 0.34396,0.34396 h 4.1275 c 0.21166,0 0.34395,-0.15875 0.34395,-0.34396 z"
       class="g4_43"
       id="path546"
       style="display:block;fill:#999999;stroke-width:0.264583" />
    <path
       d="m 128.45364,276.29448 v 0 c 0,-0.18521 -0.13229,-0.34396 -0.34395,-0.34396 h -4.1275 c -0.10584,0 -0.18521,0.0529 -0.23813,0.10583 -0.0794,0.0794 -0.10583,0.15875 -0.10583,0.23813 v 1.40229 c 0,0.18521 0.15875,0.34396 0.34396,0.34396 h 4.1275 c 0.21166,0 0.34395,-0.15875 0.34395,-0.34396 z"
       class="g5_43"
       id="path547"
       style="display:block;fill:none;stroke:#999999;stroke-width:0.302948;stroke-linejoin:round" />
    <path
       fill-rule="evenodd"
       d="m 108.58342,282.93552 v -0.39688 h 3.57189 v 0.39688 z"
       class="g4_43"
       id="path548"
       style="display:block;fill:#999999;stroke-width:0.264583" />
    <path
       d="m 108.58342,282.93552 v -0.39688 h 3.57189 v 0.39688 z"
       class="g5_43"
       id="path549"
       style="display:block;fill:none;stroke:#999999;stroke-width:0.302948;stroke-linejoin:round" />
    <path
       fill-rule="evenodd"
       d="m 108.90092,282.8826 v 0 c -0.18521,0 -0.3175,-0.13229 -0.3175,-0.3175 v -4.63021 c 0,-0.0794 0.0265,-0.15875 0.0794,-0.21166 0.0529,-0.0529 0.13229,-0.10584 0.23812,-0.10584 h 1.24355 c 0.18521,0 0.3175,0.15875 0.3175,0.3175 v 4.63021 c 0,0.18521 -0.13229,0.3175 -0.3175,0.3175 z"
       class="g4_43"
       id="path550"
       style="display:block;fill:#999999;stroke-width:0.264583" />
    <path
       d="m 108.90092,282.8826 v 0 c -0.18521,0 -0.3175,-0.13229 -0.3175,-0.3175 v -4.63021 c 0,-0.0794 0.0265,-0.15875 0.0794,-0.21166 0.0529,-0.0529 0.13229,-0.10584 0.23812,-0.10584 h 1.24355 c 0.18521,0 0.3175,0.15875 0.3175,0.3175 v 4.63021 c 0,0.18521 -0.13229,0.3175 -0.3175,0.3175 z"
       class="g5_43"
       id="path551"
       style="display:block;fill:none;stroke:#999999;stroke-width:0.302948;stroke-linejoin:round" />
    <path
       fill-rule="evenodd"
       d="m 109.50947,279.28427 v 0 c -0.31751,0 -0.55563,-0.26459 -0.55563,-0.58209 0,-0.34395 0.23812,-0.60854 0.55563,-0.60854 0.29104,0 0.52917,0.26459 0.52917,0.60854 0,0.3175 -0.23813,0.58209 -0.52917,0.58209 z"
       class="ga_43"
       id="path552"
       style="display:block;fill:#ff0000;stroke-width:0.264583" />
    <path
       fill-rule="evenodd"
       d="m 109.50947,280.95114 v 0 c -0.31751,0 -0.55563,-0.26458 -0.55563,-0.58208 0,-0.34396 0.23812,-0.60854 0.55563,-0.60854 0.29104,0 0.52917,0.26458 0.52917,0.60854 0,0.3175 -0.23813,0.58208 -0.52917,0.58208 z"
       class="gb_43"
       id="path553"
       style="display:block;fill:#f1c232;stroke-width:0.264583" />
    <path
       fill-rule="evenodd"
       d="m 109.50947,282.64448 v 0 c -0.31751,0 -0.55563,-0.26459 -0.55563,-0.60855 0,-0.3175 0.23812,-0.58208 0.55563,-0.58208 0.29104,0 0.52917,0.26458 0.52917,0.58208 0,0.34396 -0.23813,0.60855 -0.52917,0.60855 z"
       class="gc_43"
       id="path554"
       style="display:block;fill:#38761d;stroke-width:0.264583" />
    <path
       fill-rule="evenodd"
       d="m 115.43614,291.64031 v 0 c 0,-0.0265 0.0265,-0.0529 0.0529,-0.0529 h 0.23813 q 0.0264,0 0.0529,0 0,0.0265 0,0.0529 v 0.92604 c 0,0.0265 -0.0265,0.0529 -0.0529,0.0529 h -0.23813 c -0.0265,0 -0.0529,-0.0265 -0.0529,-0.0529 z"
       class="gr_43"
       id="path555"
       style="display:block;fill:#000000;stroke-width:0.264583" />
    <path
       fill-rule="evenodd"
       d="m 118.50531,291.64031 v 0 c 0,-0.0265 0.0265,-0.0529 0.0529,-0.0529 h 0.23812 q 0.0265,0 0.0529,0 0,0.0265 0,0.0529 v 0.92604 c 0,0.0265 -0.0265,0.0529 -0.0529,0.0529 h -0.23812 c -0.0265,0 -0.0529,-0.0265 -0.0529,-0.0529 z"
       class="gr_43"
       id="path556"
       style="display:block;fill:#000000;stroke-width:0.264583" />
    <path
       fill-rule="evenodd"
       d="m 115.43614,295.47677 v 0 c 0,-0.0265 0.0265,-0.0529 0.0529,-0.0529 h 0.23813 q 0.0264,0 0.0529,0 0,0.0265 0,0.0529 v 0.92604 c 0,0.0265 -0.0265,0.0529 -0.0529,0.0529 h -0.23813 c -0.0265,0 -0.0529,-0.0265 -0.0529,-0.0529 z"
       class="gr_43"
       id="path557"
       style="display:block;fill:#000000;stroke-width:0.264583" />
    <path
       fill-rule="evenodd"
       d="m 118.50531,295.47677 v 0 c 0,-0.0265 0.0265,-0.0529 0.0529,-0.0529 h 0.23812 q 0.0265,0 0.0529,0 0,0.0265 0,0.0529 v 0.92604 c 0,0.0265 -0.0265,0.0529 -0.0529,0.0529 h -0.23812 c -0.0265,0 -0.0529,-0.0265 -0.0529,-0.0529 z"
       class="gr_43"
       id="path558"
       style="display:block;fill:#000000;stroke-width:0.264583" />
    <path
       fill-rule="evenodd"
       d="m 115.56844,291.50802 v 0 c 0,-0.50271 0.39687,-0.89959 0.87312,-0.89959 h 1.45521 c 0.23812,0 0.44979,0.10584 0.60854,0.26459 0.18521,0.18521 0.26458,0.39687 0.26458,0.635 v 5.00062 c 0,0.50271 -0.39687,0.89959 -0.87312,0.89959 h -1.45521 c -0.47625,0 -0.87312,-0.39688 -0.87312,-0.89959 z"
       class="gs_43"
       id="path559"
       style="display:block;fill:#3d85c6;stroke-width:0.264583" />
    <path
       fill-rule="evenodd"
       d="m 116.86489,290.58198 v 0 q 0,-0.0265 0.0265,-0.0265 h 0.55563 q 0.0265,0 0.0265,0.0265 v 0.0794 c 0,0.0265 -0.0265,0.0265 -0.0265,0.0265 h -0.55563 q -0.0265,0 -0.0265,-0.0265 z"
       class="gt_43"
       id="path560"
       style="display:block;fill:#efefef;stroke-width:0.264583" />
    <path
       fill-rule="evenodd"
       d="m 116.01823,290.89948 0.0265,0.1852 0.23812,-0.0529 0.0794,-0.0265 0.0265,-0.0265 v -0.0265 l -0.0265,-0.0529 v -0.0265 l -0.0794,-0.0265 -0.10583,0.0265 z"
       class="g0_43"
       id="path561"
       style="display:block;fill:#ffffff;stroke-width:0.264583" />
    <path
       fill-rule="evenodd"
       d="m 118.29364,290.89948 -0.0265,0.1852 -0.23813,-0.0529 -0.0529,-0.0265 -0.0529,-0.0265 v -0.0265 l 0.0265,-0.0529 v -0.0265 l 0.0794,-0.0265 0.10583,0.0265 z"
       class="g0_43"
       id="path562"
       style="display:block;fill:#ffffff;stroke-width:0.264583" />
    <path
       fill-rule="evenodd"
       d="m 115.93885,292.75156 0.21167,0.68792 0.0265,0.0529 0.0794,0.0265 h 1.77271 l 0.0529,-0.0265 0.0529,-0.0529 0.21167,-0.58209 v -0.0794 l -0.0265,-0.0529 -0.23812,-0.0794 -0.37042,-0.0794 -0.29104,-0.0529 -0.34396,0.0265 h -0.37042 l -0.21166,0.0265 -0.18521,0.0529 -0.15875,0.0529 -0.13229,0.0529 z"
       class="gu_43"
       id="path563"
       style="display:block;fill:#9fc5e8;stroke-width:0.264583" />
    <path
       d="m 115.93885,292.75156 0.21167,0.68792 0.0265,0.0529 0.0794,0.0265 h 1.77271 l 0.0529,-0.0265 0.0529,-0.0529 0.21167,-0.58209 v -0.0794 l -0.0265,-0.0529 -0.23812,-0.0794 -0.37042,-0.0794 -0.29104,-0.0529 -0.34396,0.0265 h -0.37042 l -0.21166,0.0265 -0.18521,0.0529 -0.15875,0.0529 -0.13229,0.0529 z"
       class="gv_43"
       id="path564"
       style="display:block;fill:none;stroke:#073763;stroke-width:0.302948;stroke-linejoin:round" />
    <path
       fill-rule="evenodd"
       d="m 115.75364,292.98968 v 3.43959 l 0.0794,0.0265 0.23812,-0.21167 0.0794,-0.15875 0.0529,-0.10583 -0.0529,-1.98438 -0.0265,-0.13229 -0.0794,-0.26458 -0.10584,-0.26459 z"
       class="gu_43"
       id="path565"
       style="display:block;fill:#9fc5e8;stroke-width:0.264583" />
    <path
       d="m 115.75364,292.98968 v 3.43959 l 0.0794,0.0265 0.23812,-0.21167 0.0794,-0.15875 0.0529,-0.10583 -0.0529,-1.98438 -0.0265,-0.13229 -0.0794,-0.26458 -0.10584,-0.26459 z"
       class="gv_43"
       id="path566"
       style="display:block;fill:none;stroke:#073763;stroke-width:0.302948;stroke-linejoin:round" />
    <path
       fill-rule="evenodd"
       d="m 118.61114,293.0426 v 3.36021 l -0.0264,0.0794 -0.0529,0.0265 -0.26458,-0.23812 -0.0794,-0.13229 -0.0265,-0.1323 0.0265,-1.95791 0.0265,-0.15875 0.10583,-0.23813 0.10584,-0.26458 z"
       class="gu_43"
       id="path567"
       style="display:block;fill:#9fc5e8;stroke-width:0.264583" />
    <path
       d="m 118.61114,293.0426 v 3.36021 l -0.0264,0.0794 -0.0529,0.0265 -0.26458,-0.23812 -0.0794,-0.13229 -0.0265,-0.1323 0.0265,-1.95791 0.0265,-0.15875 0.10583,-0.23813 0.10584,-0.26458 z"
       class="gv_43"
       id="path568"
       style="display:block;fill:none;stroke:#073763;stroke-width:0.302948;stroke-linejoin:round" />
    <path
       fill-rule="evenodd"
       d="m 115.75364,292.96323 -0.0794,-0.0265 -0.0794,0.0265 h -0.0794 l -0.0794,0.0264 -0.0794,0.0529 v 0.10583 l 0.0529,0.0529 0.0529,0.0265 0.13229,0.0265 h 0.0794 l 0.0794,-0.0529 0.0265,-0.0529 0.0265,-0.0529 v -0.0529 l -0.0265,-0.0529 z"
       class="gw_43"
       id="path569"
       style="display:block;fill:#0b5394;stroke-width:0.264583" />
    <path
       fill-rule="evenodd"
       d="m 118.58469,292.96323 0.0529,-0.0265 0.10584,0.0265 h 0.0529 l 0.10584,0.0264 0.0529,0.0529 0.0265,0.0529 v 0.0529 l -0.0529,0.0529 -0.0794,0.0265 -0.10583,0.0265 h -0.10584 l -0.0529,-0.0529 -0.0529,-0.0529 -0.0265,-0.0529 v -0.0529 l 0.0265,-0.0529 z"
       class="gw_43"
       id="path570"
       style="display:block;fill:#0b5394;stroke-width:0.264583" />
    <path
       fill-rule="evenodd"
       d="m 116.86489,297.32885 v 0 q 0,-0.0265 0.0265,-0.0265 h 0.55563 c 0.0265,0 0.0265,0.0265 0.0265,0.0265 v 0.0794 c 0,0.0265 -0.0265,0.0265 -0.0265,0.0265 h -0.55563 q -0.0265,0 -0.0265,-0.0265 z"
       class="gt_43"
       id="path571"
       style="display:block;fill:#efefef;stroke-width:0.264583" />
    <path
       fill-rule="evenodd"
       d="m 116.01823,297.43468 0.0265,-0.21166 0.23812,0.0794 0.0794,0.0265 0.0265,0.0265 v 0.0265 l -0.0265,0.0529 v 0.0265 h -0.18521 z"
       class="gw_43"
       id="path572"
       style="display:block;fill:#0b5394;stroke-width:0.264583" />
    <path
       fill-rule="evenodd"
       d="m 118.29364,297.43468 -0.0265,-0.21166 -0.23813,0.0794 -0.0529,0.0265 -0.0529,0.0265 v 0.0265 l 0.0265,0.0529 v 0.0265 h 0.1852 z"
       class="gw_43"
       id="path573"
       style="display:block;fill:#0b5394;stroke-width:0.264583" />
    <path
       fill-rule="evenodd"
       d="m 116.36219,296.32343 -0.0794,0.0265 -0.42333,0.34396 -0.0265,0.0794 v 0.0794 l 0.13229,0.0794 0.18521,0.0794 0.23812,0.0529 0.26459,0.0265 0.26458,0.0264 h 0.58208 l 0.26459,-0.0264 0.3175,-0.0529 0.21166,-0.0794 0.15875,-0.10583 0.0265,-0.0794 -0.0529,-0.0794 -0.37042,-0.3175 -0.0529,-0.0265 -0.42333,-0.0265 h -0.84667 z"
       class="gu_43"
       id="path574"
       style="display:block;fill:#9fc5e8;stroke-width:0.264583" />
    <path
       d="m 116.36219,296.32343 -0.0794,0.0265 -0.42333,0.34396 -0.0265,0.0794 v 0.0794 l 0.13229,0.0794 0.18521,0.0794 0.23812,0.0529 0.26459,0.0265 0.26458,0.0264 h 0.58208 l 0.26459,-0.0264 0.3175,-0.0529 0.21166,-0.0794 0.15875,-0.10583 0.0265,-0.0794 -0.0529,-0.0794 -0.37042,-0.3175 -0.0529,-0.0265 -0.42333,-0.0265 h -0.84667 z"
       class="gv_43"
       id="path575"
       style="display:block;fill:none;stroke:#073763;stroke-width:0.302948;stroke-linejoin:round" />
    <path
       fill-rule="evenodd"
       d="m 116.38864,290.92593 c 0.0529,-0.0265 0.26459,-0.0529 0.39688,-0.0529 0.15875,0 0.39687,0 0.52917,0 0.13229,0 0.21166,0 0.3175,0.0265 0.10583,0 0.23812,0.0265 0.29104,0.0265 z"
       class="g1_43"
       id="path576"
       style="display:block;fill:#000000;fill-opacity:0;stroke-width:0.264583" />
    <path
       d="m 116.38864,290.92593 c 0.0529,-0.0265 0.26459,-0.0529 0.39688,-0.0529 0.15875,0 0.39687,0 0.52917,0 0.13229,0 0.21166,0 0.3175,0.0265 0.10583,0 0.23812,0.0265 0.29104,0.0265"
       class="gv_43"
       id="path577"
       style="display:block;fill:none;stroke:#073763;stroke-width:0.302948;stroke-linejoin:round" />
    <path
       fill-rule="evenodd"
       d="m 115.91239,291.08468 c -0.0264,0.0265 -0.0529,0.0265 -0.0529,0.0794 -0.0265,0.0529 -0.0265,0.10583 -0.0529,0.21167 0,0.0794 -0.0529,0.26458 -0.0529,0.37041 0,0.13229 0,0.23813 0,0.34396 0,0.10583 0.0265,0.18521 0.0265,0.3175 0.0265,0.10583 0.10584,0.29104 0.10584,0.34396 z"
       class="g1_43"
       id="path578"
       style="display:block;fill:#000000;fill-opacity:0;stroke-width:0.264583" />
    <path
       d="m 115.91239,291.08468 c -0.0264,0.0265 -0.0529,0.0265 -0.0529,0.0794 -0.0265,0.0529 -0.0265,0.10583 -0.0529,0.21167 0,0.0794 -0.0529,0.26458 -0.0529,0.37041 0,0.13229 0,0.23813 0,0.34396 0,0.10583 0.0265,0.18521 0.0265,0.3175 0.0265,0.10583 0.10584,0.29104 0.10584,0.34396"
       class="gv_43"
       id="path579"
       style="display:block;fill:none;stroke:#073763;stroke-width:0.302948;stroke-linejoin:round" />
    <path
       fill-rule="evenodd"
       d="m 118.39948,291.08468 c 0,0 0.0265,0.0265 0.0529,0.0794 0,0.0265 0,0.0794 0.0265,0.15875 0,0.0529 0.0265,0.15875 0.0529,0.26458 0,0.0794 0.0265,0.18521 0.0265,0.29104 0,0.10584 -0.0265,0.26459 -0.0265,0.34396 0,0.0794 0.0265,0.0529 0,0.13229 -0.0265,0.0794 -0.10583,0.3175 -0.13229,0.39688 z"
       class="g1_43"
       id="path580"
       style="display:block;fill:#000000;fill-opacity:0;stroke-width:0.264583" />
    <path
       d="m 118.39948,291.08468 c 0,0 0.0265,0.0265 0.0529,0.0794 0,0.0265 0,0.0794 0.0265,0.15875 0,0.0529 0.0265,0.15875 0.0529,0.26458 0,0.0794 0.0265,0.18521 0.0265,0.29104 0,0.10584 -0.0265,0.26459 -0.0265,0.34396 0,0.0794 0.0265,0.0529 0,0.13229 -0.0265,0.0794 -0.10583,0.3175 -0.13229,0.39688"
       class="gv_43"
       id="path581"
       style="display:block;fill:none;stroke:#073763;stroke-width:0.302948;stroke-linejoin:round" />
    <path
       fill-rule="evenodd"
       d="m 117.47344,292.69864 -0.97896,0.68792 h -0.13229 l -0.0794,-0.0265 -0.0529,-0.0265 -0.0529,-0.0529 -0.15875,-0.39688 v -0.0265 l 0.0529,-0.0529 0.23813,-0.0529 0.26458,-0.0529 0.29104,-0.0265 h 0.4498 z"
       class="gx_43"
       id="path582"
       style="display:block;fill:#cfe2f3;stroke-width:0.264583" />
    <path
       fill-rule="evenodd"
       d="m 57.095469,291.82552 v 0 c 0,-0.0265 0.02646,-0.0529 0.05292,-0.0529 h 0.238125 c 0,0 0.02646,0 0.02646,0 q 0.02646,0.0265 0.02646,0.0529 v 0.92604 c 0,0.0265 -0.02646,0.0529 -0.05292,0.0529 h -0.238128 c -0.02646,0 -0.05292,-0.0265 -0.05292,-0.0529 z"
       class="gr_43"
       id="path583"
       style="display:block;fill:#000000;stroke-width:0.264583" />
    <path
       fill-rule="evenodd"
       d="m 60.164636,291.82552 v 0 c 0,-0.0265 0.02646,-0.0529 0.05292,-0.0529 h 0.238125 c 0,0 0.02646,0 0.02646,0 q 0.02646,0.0265 0.02646,0.0529 v 0.92604 c 0,0.0265 -0.02646,0.0529 -0.05292,0.0529 h -0.238125 c -0.02646,0 -0.05292,-0.0265 -0.05292,-0.0529 z"
       class="gr_43"
       id="path584"
       style="display:block;fill:#000000;stroke-width:0.264583" />
    <path
       fill-rule="evenodd"
       d="m 57.095469,295.66198 v 0 c 0,-0.0529 0.02646,-0.0794 0.05292,-0.0794 h 0.238125 c 0,0 0.02646,0.0265 0.02646,0.0265 0.02646,0 0.02646,0.0265 0.02646,0.0529 v 0.92604 c 0,0.0265 -0.02646,0.0529 -0.05292,0.0529 h -0.238128 c -0.02646,0 -0.05292,-0.0264 -0.05292,-0.0529 z"
       class="gr_43"
       id="path585"
       style="display:block;fill:#000000;stroke-width:0.264583" />
    <path
       fill-rule="evenodd"
       d="m 60.164636,295.66198 v 0 c 0,-0.0529 0.02646,-0.0794 0.05292,-0.0794 h 0.238125 c 0,0 0.02646,0.0265 0.02646,0.0265 0.02646,0 0.02646,0.0265 0.02646,0.0529 v 0.92604 c 0,0.0265 -0.02646,0.0529 -0.05292,0.0529 h -0.238125 c -0.02646,0 -0.05292,-0.0264 -0.05292,-0.0529 z"
       class="gr_43"
       id="path586"
       style="display:block;fill:#000000;stroke-width:0.264583" />
    <path
       fill-rule="evenodd"
       d="m 57.201303,291.69323 v 0 c 0,-0.50271 0.396875,-0.89959 0.899583,-0.89959 h 1.42875 c 0.238125,0 0.47625,0.10584 0.635,0.26459 0.185208,0.15875 0.264583,0.39687 0.264583,0.635 v 5.00062 c 0,0.47625 -0.396875,0.89958 -0.899583,0.89958 h -1.42875 c -0.502708,0 -0.899583,-0.42333 -0.899583,-0.89958 z"
       class="gs_43"
       id="path587"
       style="display:block;fill:#3d85c6;stroke-width:0.264583" />
    <path
       fill-rule="evenodd"
       d="m 58.497761,290.74073 v 0 c 0,0 0.02646,0 0.02646,0 h 0.555625 q 0.02646,0 0.02646,0 v 0.10583 q 0,0.0265 -0.02646,0.0265 h -0.555625 c 0,0 -0.02646,0 -0.02646,-0.0265 z"
       class="gt_43"
       id="path588"
       style="display:block;fill:#efefef;stroke-width:0.264583" />
    <path
       fill-rule="evenodd"
       d="m 57.677553,291.05823 0.02646,0.21166 0.238125,-0.0529 0.05292,-0.0265 0.02646,-0.0265 0.02646,-0.0529 -0.02646,-0.0265 -0.02646,-0.0529 h -0.15875 z"
       class="g0_43"
       id="path589"
       style="display:block;fill:#ffffff;stroke-width:0.264583" />
    <path
       fill-rule="evenodd"
       d="m 59.952969,291.05823 -0.02646,0.21166 -0.264583,-0.0529 -0.05292,-0.0265 -0.02646,-0.0265 v -0.0529 l 0.02646,-0.0265 v -0.0529 h 0.185208 z"
       class="g0_43"
       id="path590"
       style="display:block;fill:#ffffff;stroke-width:0.264583" />
    <path
       fill-rule="evenodd"
       d="m 57.598178,292.93677 0.211666,0.68791 0.02646,0.0529 0.05292,0.0265 h 1.799167 l 0.05292,-0.0265 0.05292,-0.0529 0.211667,-0.58208 v -0.0794 l -0.05292,-0.0529 -0.238125,-0.10583 -0.343958,-0.0529 -0.3175,-0.0529 h -0.3175 l -0.211667,0.0265 h -0.15875 l -0.211666,0.0265 -0.185209,0.0529 -0.15875,0.0529 -0.15875,0.0529 z"
       class="gu_43"
       id="path591"
       style="display:block;fill:#9fc5e8;stroke-width:0.264583" />
    <path
       d="m 57.598178,292.93677 0.211666,0.68791 0.02646,0.0529 0.05292,0.0265 h 1.799167 l 0.05292,-0.0265 0.05292,-0.0529 0.211667,-0.58208 v -0.0794 l -0.05292,-0.0529 -0.238125,-0.10583 -0.343958,-0.0529 -0.3175,-0.0529 h -0.3175 l -0.211667,0.0265 h -0.15875 l -0.211666,0.0265 -0.185209,0.0529 -0.15875,0.0529 -0.15875,0.0529 z"
       class="gv_43"
       id="path592"
       style="display:block;fill:none;stroke:#073763;stroke-width:0.302948;stroke-linejoin:round" />
    <path
       fill-rule="evenodd"
       d="m 57.412969,293.17489 v 3.43959 l 0.07937,0.0264 0.238125,-0.23812 0.07937,-0.13229 0.02646,-0.10584 -0.02646,-1.98437 -0.02646,-0.13229 -0.07937,-0.26459 -0.105833,-0.26458 z"
       class="gu_43"
       id="path593"
       style="display:block;fill:#9fc5e8;stroke-width:0.264583" />
    <path
       d="m 57.412969,293.17489 v 3.43959 l 0.07937,0.0264 0.238125,-0.23812 0.07937,-0.13229 0.02646,-0.10584 -0.02646,-1.98437 -0.02646,-0.13229 -0.07937,-0.26459 -0.105833,-0.26458 z"
       class="gv_43"
       id="path594"
       style="display:block;fill:none;stroke:#073763;stroke-width:0.302948;stroke-linejoin:round" />
    <path
       fill-rule="evenodd"
       d="m 60.270469,293.22781 v 3.36021 l -0.02646,0.0529 -0.05292,0.0265 -0.264583,-0.21166 -0.07937,-0.1323 -0.02646,-0.13229 0.02646,-1.95791 0.02646,-0.15875 0.07937,-0.26459 0.132292,-0.26458 z"
       class="gu_43"
       id="path595"
       style="display:block;fill:#9fc5e8;stroke-width:0.264583" />
    <path
       d="m 60.270469,293.22781 v 3.36021 l -0.02646,0.0529 -0.05292,0.0265 -0.264583,-0.21166 -0.07937,-0.1323 -0.02646,-0.13229 0.02646,-1.95791 0.02646,-0.15875 0.07937,-0.26459 0.132292,-0.26458 z"
       class="gv_43"
       id="path596"
       style="display:block;fill:none;stroke:#073763;stroke-width:0.302948;stroke-linejoin:round" />
    <path
       fill-rule="evenodd"
       d="m 57.386511,293.14843 -0.05292,-0.0264 h -0.07937 l -0.07937,0.0264 -0.07937,0.0265 -0.07938,0.0529 v 0.10583 l 0.02646,0.0265 0.07937,0.0529 h 0.211666 l 0.05292,-0.0265 0.05292,-0.0529 0.02646,-0.0529 v -0.0529 l -0.02646,-0.0529 z"
       class="gw_43"
       id="path597"
       style="display:block;fill:#0b5394;stroke-width:0.264583" />
    <path
       fill-rule="evenodd"
       d="m 60.217553,293.14843 0.07937,-0.0264 h 0.07937 l 0.07937,0.0264 0.07937,0.0265 0.07937,0.0529 v 0.10583 l -0.02646,0.0265 -0.07937,0.0529 h -0.211666 l -0.05292,-0.0265 -0.05292,-0.0529 -0.02646,-0.0529 v -0.0529 l 0.02646,-0.0529 z"
       class="gw_43"
       id="path598"
       style="display:block;fill:#0b5394;stroke-width:0.264583" />
    <path
       fill-rule="evenodd"
       d="m 58.497761,297.51406 v 0 c 0,-0.0265 0.02646,-0.0265 0.02646,-0.0265 h 0.555625 q 0.02646,0 0.02646,0 v 0.10583 q 0,0.0265 -0.02646,0.0265 h -0.555625 c 0,0 -0.02646,0 -0.02646,-0.0265 z"
       class="gt_43"
       id="path599"
       style="display:block;fill:#efefef;stroke-width:0.264583" />
    <path
       fill-rule="evenodd"
       d="m 57.677553,297.61989 0.02646,-0.21166 0.238125,0.0529 0.05292,0.0265 0.02646,0.0265 0.02646,0.0529 -0.02646,0.0529 -0.02646,0.0265 h -0.15875 z"
       class="gw_43"
       id="path600"
       style="display:block;fill:#0b5394;stroke-width:0.264583" />
    <path
       fill-rule="evenodd"
       d="m 59.952969,297.61989 -0.02646,-0.21166 -0.264583,0.0529 -0.05292,0.0265 -0.02646,0.0265 v 0.0529 l 0.02646,0.0529 v 0.0265 h 0.185208 z"
       class="gw_43"
       id="path601"
       style="display:block;fill:#0b5394;stroke-width:0.264583" />
    <path
       fill-rule="evenodd"
       d="m 58.021511,296.50864 h -0.07937 l -0.423333,0.37042 -0.02646,0.0794 v 0.0794 l 0.132292,0.0794 0.185208,0.0529 0.238125,0.0794 0.238125,0.0265 0.291042,0.0265 h 0.264583 l 0.291042,-0.0265 h 0.291042 l 0.3175,-0.0794 0.211666,-0.0529 0.15875,-0.10583 0.02646,-0.0794 -0.05292,-0.0794 -0.396875,-0.34396 -0.02646,-0.0265 h -1.27 z"
       class="gu_43"
       id="path602"
       style="display:block;fill:#9fc5e8;stroke-width:0.264583" />
    <path
       d="m 58.021511,296.50864 h -0.07937 l -0.423333,0.37042 -0.02646,0.0794 v 0.0794 l 0.132292,0.0794 0.185208,0.0529 0.238125,0.0794 0.238125,0.0265 0.291042,0.0265 h 0.264583 l 0.291042,-0.0265 h 0.291042 l 0.3175,-0.0794 0.211666,-0.0529 0.15875,-0.10583 0.02646,-0.0794 -0.05292,-0.0794 -0.396875,-0.34396 -0.02646,-0.0265 h -1.27 z"
       class="gv_43"
       id="path603"
       style="display:block;fill:none;stroke:#073763;stroke-width:0.302948;stroke-linejoin:round" />
    <path
       fill-rule="evenodd"
       d="m 58.021511,291.08468 c 0.07937,0 0.264583,-0.0265 0.423333,-0.0265 0.15875,0 0.396875,0 0.529167,0 0.132292,0 0.211667,0 0.3175,0.0265 0.07937,0 0.238125,0 0.264583,0.0265 z"
       class="g1_43"
       id="path604"
       style="display:block;fill:#000000;fill-opacity:0;stroke-width:0.264583" />
    <path
       d="m 58.021511,291.08468 c 0.07937,0 0.264583,-0.0265 0.423333,-0.0265 0.15875,0 0.396875,0 0.529167,0 0.132292,0 0.211667,0 0.3175,0.0265 0.07937,0 0.238125,0 0.264583,0.0265"
       class="gv_43"
       id="path605"
       style="display:block;fill:none;stroke:#073763;stroke-width:0.302948;stroke-linejoin:round" />
    <path
       fill-rule="evenodd"
       d="m 57.571719,291.26989 c -0.02646,0.0265 -0.05292,0.0265 -0.05292,0.0794 -0.02646,0.0265 -0.02646,0.10583 -0.05292,0.18521 0,0.10583 -0.05292,0.26458 -0.05292,0.39687 -0.02646,0.13229 -0.02646,0.23813 0,0.34396 0,0.10583 0,0.18521 0.02646,0.29104 0.02646,0.10583 0.105833,0.3175 0.105833,0.37042 z"
       class="g1_43"
       id="path606"
       style="display:block;fill:#000000;fill-opacity:0;stroke-width:0.264583" />
    <path
       d="m 57.571719,291.26989 c -0.02646,0.0265 -0.05292,0.0265 -0.05292,0.0794 -0.02646,0.0265 -0.02646,0.10583 -0.05292,0.18521 0,0.10583 -0.05292,0.26458 -0.05292,0.39687 -0.02646,0.13229 -0.02646,0.23813 0,0.34396 0,0.10583 0,0.18521 0.02646,0.29104 0.02646,0.10583 0.105833,0.3175 0.105833,0.37042"
       class="gv_43"
       id="path607"
       style="display:block;fill:none;stroke:#073763;stroke-width:0.302948;stroke-linejoin:round" />
    <path
       fill-rule="evenodd"
       d="m 60.058803,291.24343 c 0,0.0265 0.02646,0.0529 0.02646,0.10584 0.02646,0.0265 0.02646,0.0794 0.05292,0.13229 0,0.0794 0.02646,0.18521 0.05292,0.29104 0,0.0794 0,0.18521 0,0.29104 0,0.10584 0,0.23813 0,0.3175 0,0.0794 0,0.0529 0,0.15875 -0.02646,0.0794 -0.105833,0.3175 -0.132291,0.39688 z"
       class="g1_43"
       id="path608"
       style="display:block;fill:#000000;fill-opacity:0;stroke-width:0.264583" />
    <path
       d="m 60.058803,291.24343 c 0,0.0265 0.02646,0.0529 0.02646,0.10584 0.02646,0.0265 0.02646,0.0794 0.05292,0.13229 0,0.0794 0.02646,0.18521 0.05292,0.29104 0,0.0794 0,0.18521 0,0.29104 0,0.10584 0,0.23813 0,0.3175 0,0.0794 0,0.0529 0,0.15875 -0.02646,0.0794 -0.105833,0.3175 -0.132291,0.39688"
       class="gv_43"
       id="path609"
       style="display:block;fill:none;stroke:#073763;stroke-width:0.302948;stroke-linejoin:round" />
    <path
       fill-rule="evenodd"
       d="m 59.132761,292.85739 -0.978958,0.71438 h -0.132292 l -0.07937,-0.0265 -0.05292,-0.0265 -0.05292,-0.0529 -0.15875,-0.39687 v -0.0529 l 0.05292,-0.0265 0.238125,-0.0529 0.264584,-0.0529 0.291041,-0.0265 h 0.423334 z"
       class="gx_43"
       id="path610"
       style="display:block;fill:#cfe2f3;stroke-width:0.264583" />
  </g>
</svg>
