<?xml version="1.0" encoding="UTF-8" standalone="no"?>
<!-- Created with Inkscape (http://www.inkscape.org/) -->

<svg
   width="56.014mm"
   height="61.049999mm"
   viewBox="0 0 56.014 61.05"
   version="1.1"
   id="svg1"
   inkscape:version="1.3.2 (1:1.3.2+202311252150+091e20ef0f)"
   sodipodi:docname="vm-06-02_1.svg"
   xmlns:inkscape="http://www.inkscape.org/namespaces/inkscape"
   xmlns:sodipodi="http://sodipodi.sourceforge.net/DTD/sodipodi-0.dtd"
   xmlns="http://www.w3.org/2000/svg"
   xmlns:svg="http://www.w3.org/2000/svg">
  <sodipodi:namedview
     id="namedview1"
     pagecolor="#ffffff"
     bordercolor="#000000"
     borderopacity="0.25"
     inkscape:showpageshadow="2"
     inkscape:pageopacity="0.0"
     inkscape:pagecheckerboard="0"
     inkscape:deskcolor="#d1d1d1"
     inkscape:document-units="mm"
     inkscape:zoom="1.7131103"
     inkscape:cx="94.856708"
     inkscape:cy="109.45005"
     inkscape:window-width="3840"
     inkscape:window-height="2123"
     inkscape:window-x="0"
     inkscape:window-y="0"
     inkscape:window-maximized="1"
     inkscape:current-layer="layer1" />
  <defs
     id="defs1">
    <clipPath
       id="c0_62">
      <path
         d="M 0,825 V 0 h 1100 v 825 z"
         id="path2" />
    </clipPath>
  </defs>
  <g
     inkscape:label="Layer 1"
     inkscape:groupmode="layer"
     id="layer1"
     transform="translate(-79.904166,-119.59167)">
    <path
       fill-rule="evenodd"
       d="m 83.013269,150.50967 v 0 c 0,-4.92125 3.995208,-8.89 8.916458,-8.89 2.354792,0 4.60375,0.92604 6.270625,2.59292 1.666875,1.66687 2.619378,3.94229 2.619378,6.29708 0,4.92125 -3.995211,8.89 -8.890003,8.89 -4.92125,0 -8.916458,-3.96875 -8.916458,-8.89 z"
       class="g0_62"
       id="path65"
       style="display:block;fill:#ffffff;stroke-width:0.264583" />
    <path
       d="m 83.013269,150.50967 v 0 c 0,-4.92125 3.995208,-8.89 8.916458,-8.89 2.354792,0 4.60375,0.92604 6.270625,2.59292 1.666875,1.66687 2.619378,3.94229 2.619378,6.29708 0,4.92125 -3.995211,8.89 -8.890003,8.89 -4.92125,0 -8.916458,-3.96875 -8.916458,-8.89 z"
       class="g2_62"
       id="path66"
       style="display:block;fill:none;stroke:#000000;stroke-width:0.302948;stroke-linejoin:round" />
    <path
       fill-rule="evenodd"
       d="m 83.383686,150.50967 v 0 c 0,-4.70958 3.81,-8.54604 8.519583,-8.54604 2.275417,0 4.445,0.89958 6.058958,2.51354 1.5875,1.5875 2.487083,3.78354 2.487083,6.0325 0,4.70958 -3.809999,8.54604 -8.546041,8.54604 -4.709583,0 -8.519583,-3.83646 -8.519583,-8.54604 z"
       class="gd_62"
       id="path67"
       style="display:block;fill:#ff0000;stroke-width:0.264583" />
    <path
       fill-rule="evenodd"
       d="m 85.791394,150.37738 v 0 c 0,-3.38667 2.725208,-6.13833 6.138333,-6.13833 1.613959,0 3.175,0.635 4.339167,1.79916 1.137708,1.13771 1.799167,2.69875 1.799167,4.33917 0,3.38667 -2.751667,6.13833 -6.138334,6.13833 -3.413125,0 -6.138333,-2.75166 -6.138333,-6.13833 z"
       class="ge_62"
       id="path68"
       style="display:block;fill:#4a86e8;stroke-width:0.264583" />
    <path
       fill-rule="evenodd"
       d="m 86.585144,144.13321 11.58875,11.80042 -0.926042,0.9525 -11.615208,-11.80042 z"
       class="gd_62"
       id="path69"
       style="display:block;fill:#ff0000;stroke-width:0.264583" />
    <path
       fill-rule="evenodd"
       d="m 117.88535,129.42238 h 13.41438 v 48.84208 h -13.41438 z"
       class="g5_62"
       id="path70"
       style="display:block;fill:#666666;stroke-width:0.264583" />
    <path
       fill-rule="evenodd"
       d="m 107.77827,172.76113 h 23.52146 v 5.50333 h -23.52146 z"
       class="g5_62"
       id="path71"
       style="display:block;fill:#666666;stroke-width:0.264583" />
    <path
       fill-rule="evenodd"
       d="m 107.77827,129.42238 h 11.16542 v 42.88896 h -11.16542 z"
       class="gf_62"
       id="path72"
       style="display:block;fill:#efefef;stroke-width:0.264583" />
    <path
       fill-rule="evenodd"
       d="m 117.88535,129.55467 h 2.14313 v 41.275 h -2.14313 z"
       class="gg_62"
       id="path73"
       style="display:block;fill:#999999;stroke-width:0.264583" />
    <path
       d="m 117.88535,129.55467 h 2.14313 v 41.275 h -2.14313 z"
       class="gh_62"
       id="path74"
       style="display:block;fill:none;stroke:#999999;stroke-width:0.302948;stroke-linejoin:round" />
    <path
       fill-rule="evenodd"
       d="m 116.48306,172.31134 v 2.35479 h -8.70479 v -2.35479 z"
       class="gg_62"
       id="path75"
       style="display:block;fill:#999999;stroke-width:0.264583" />
    <path
       d="m 116.48306,172.31134 v 2.35479 h -8.70479 v -2.35479 z"
       class="gh_62"
       id="path76"
       style="display:block;fill:none;stroke:#999999;stroke-width:0.302948;stroke-linejoin:round" />
    <path
       fill-rule="evenodd"
       d="m 116.08619,174.63967 v 0 c 2.11666,0.0529 3.88937,-1.64042 3.94229,-3.78354 l -2.19604,-0.0529 c -0.0265,0.92604 -0.79375,1.66688 -1.7198,1.66688 z"
       class="gg_62"
       id="path77"
       style="display:block;fill:#999999;stroke-width:0.264583" />
    <path
       d="m 116.08619,174.63967 v 0 c 2.11666,0.0529 3.88937,-1.64042 3.94229,-3.78354 l -2.19604,-0.0529 c -0.0265,0.92604 -0.79375,1.66688 -1.7198,1.66688 z"
       class="gh_62"
       id="path78"
       style="display:block;fill:none;stroke:#999999;stroke-width:0.302948;stroke-linejoin:round" />
    <path
       fill-rule="evenodd"
       d="m 117.80598,131.32738 h 2.2225 v 6.985 h -2.2225 z"
       class="gi_62"
       id="path79"
       style="display:block;fill:#ff9900;stroke-width:0.264583" />
    <path
       fill-rule="evenodd"
       d="m 117.80598,141.06405 h 2.2225 v 7.01145 h -2.2225 z"
       class="gi_62"
       id="path80"
       style="display:block;fill:#ff9900;stroke-width:0.264583" />
    <path
       fill-rule="evenodd"
       d="m 117.80598,150.82717 h 2.2225 v 6.985 h -2.2225 z"
       class="gi_62"
       id="path81"
       style="display:block;fill:#ff9900;stroke-width:0.264583" />
    <path
       fill-rule="evenodd"
       d="m 117.80598,160.5903 h 2.2225 v 6.985 h -2.2225 z"
       class="gi_62"
       id="path82"
       style="display:block;fill:#ff9900;stroke-width:0.264583" />
    <path
       fill-rule="evenodd"
       d="M 93.199727,120.21488 H 118.0441 v 10.29229 H 93.199727 Z"
       class="g1_62"
       id="path83"
       style="display:block;fill:#000000;fill-opacity:0;stroke-width:0.264583" />
    <text
       clip-path="url(#c0_62)"
       x="215.5"
       y="557.79999"
       class="s9_62"
       id="text83"
       style="font-size:13.75px;font-family:MS-PGothic_bn;white-space:pre;display:block;fill:#000000"
       transform="matrix(0.26458333,0,0,0.26458333,32.483327,-21.615328)">No parkng </text>
  </g>
</svg>
