<?xml version="1.0" encoding="UTF-8" standalone="no"?>
<!-- Created with Inkscape (http://www.inkscape.org/) -->

<svg
   width="67.362915mm"
   height="41.650002mm"
   viewBox="0 0 67.362915 41.650001"
   version="1.1"
   id="svg1"
   inkscape:version="1.3.2 (1:1.3.2+202311252150+091e20ef0f)"
   sodipodi:docname="vm-01-09_1.svg"
   xmlns:inkscape="http://www.inkscape.org/namespaces/inkscape"
   xmlns:sodipodi="http://sodipodi.sourceforge.net/DTD/sodipodi-0.dtd"
   xmlns="http://www.w3.org/2000/svg"
   xmlns:svg="http://www.w3.org/2000/svg">
  <sodipodi:namedview
     id="namedview1"
     pagecolor="#ffffff"
     bordercolor="#000000"
     borderopacity="0.25"
     inkscape:showpageshadow="2"
     inkscape:pageopacity="0.0"
     inkscape:pagecheckerboard="0"
     inkscape:deskcolor="#d1d1d1"
     inkscape:document-units="mm"
     inkscape:zoom="1.7131103"
     inkscape:cx="331.85254"
     inkscape:cy="-127.54579"
     inkscape:window-width="3840"
     inkscape:window-height="2123"
     inkscape:window-x="0"
     inkscape:window-y="0"
     inkscape:window-maximized="1"
     inkscape:current-layer="layer1" />
  <defs
     id="defs1">
    <clipPath
       id="c0_17">
      <path
         d="M 0,825 V 0 h 1100 v 825 z"
         id="path2" />
    </clipPath>
  </defs>
  <g
     inkscape:label="Layer 1"
     inkscape:groupmode="layer"
     id="layer1"
     transform="translate(-17.197916,-182.29791)">
    <path
       fill-rule="evenodd"
       d="m 17.386977,211.36405 h 67.362916 v 11.7475 H 17.386977 Z"
       class="g1_17"
       id="path57"
       style="display:block;fill:#000000;fill-opacity:0;stroke-width:0.264583" />
    <text
       clip-path="url(#c0_17)"
       x="171.39999"
       y="728.90002"
       class="s6_17"
       id="text57"
       style="font-size:18.33px;font-family:MS-PGothic_bp;white-space:pre;display:block;fill:#000000"
       transform="matrix(0.26458333,0,0,0.26458333,-25.237397,25.891139)">Speed limit road sign</text>
    <path
       fill-rule="evenodd"
       d="m 31.330519,197.2353 v 0 c 0,-6.50875 5.265208,-11.77396 11.773958,-11.77396 3.122083,0 6.111875,1.21709 8.334375,3.43959 2.196042,2.19604 3.439583,5.21229 3.439583,8.33437 0,6.50875 -5.265208,11.77396 -11.773958,11.77396 -6.50875,0 -11.773958,-5.26521 -11.773958,-11.77396 z"
       class="g9_17"
       id="path66"
       style="display:block;fill:#ff0000;stroke-width:0.264583" />
    <path
       fill-rule="evenodd"
       d="m 31.515727,197.26176 v 0 c 0,-6.37646 5.185834,-11.56229 11.58875,-11.56229 3.069167,0 6.006042,1.21708 8.175625,3.38666 2.169583,2.16959 3.386667,5.10646 3.386667,8.17563 0,6.40292 -5.185834,11.58875 -11.562292,11.58875 -6.402916,0 -11.58875,-5.18583 -11.58875,-11.58875 z"
       class="g0_17"
       id="path67"
       style="display:block;fill:#ffffff;stroke-width:0.264583" />
    <path
       fill-rule="evenodd"
       d="m 32.018436,197.26176 v 0 c 0,-6.16479 4.974166,-11.19188 11.086041,-11.19188 2.936875,0 5.741458,1.19063 7.831667,3.28084 2.06375,2.09021 3.227916,4.94771 3.227916,7.91104 0,6.19125 -4.947708,11.21833 -11.059583,11.21833 -6.111875,0 -11.086041,-5.02708 -11.086041,-11.21833 z"
       class="g9_17"
       id="path68"
       style="display:block;fill:#ff0000;stroke-width:0.264583" />
    <path
       fill-rule="evenodd"
       d="m 34.505519,197.2353 v 0 c 0,-4.63021 3.757083,-8.41375 8.387291,-8.41375 2.2225,0 4.365625,0.89958 5.953125,2.46063 1.561042,1.5875 2.460625,3.73062 2.460625,5.95312 0,4.63021 -3.783541,8.38729 -8.41375,8.38729 -4.630208,0 -8.387291,-3.75708 -8.387291,-8.38729 z"
       class="g0_17"
       id="path69"
       style="display:block;fill:#ffffff;stroke-width:0.264583" />
    <path
       fill-rule="evenodd"
       d="m 36.939686,195.70072 h 1.296458 l 0.07937,-0.82021 0.211667,-0.635 0.185208,-0.37042 0.343958,-0.21166 0.264584,-0.1323 0.343958,0.0265 0.3175,0.18521 0.264583,0.3175 0.238125,0.39688 0.07937,0.76729 -0.02646,0.52916 -0.185208,0.50271 -0.291042,0.58209 -0.502708,0.60854 -1.27,1.27 -0.502709,0.66146 -0.396875,0.71437 -0.291041,0.84667 -0.105834,0.58208 -0.07938,0.47625 0.02646,0.55563 h 5.132916 v -1.69334 l -3.466041,-0.0265 0.714375,-0.92604 1.084791,-1.16416 0.846667,-0.84667 0.529166,-1.00542 0.15875,-0.60854 0.07937,-0.84667 v -0.66145 l -0.05292,-0.55563 -0.211667,-0.60854 -0.343958,-0.68792 -0.423334,-0.52916 -0.476249,-0.3175 -0.661459,-0.21167 -0.687916,0.0265 -0.608542,0.23812 -0.502708,0.34396 -0.529167,0.635 -0.264583,0.60854 -0.15875,0.42334 -0.07937,0.5027 -0.07937,0.52917 z"
       class="ga_17"
       id="path70"
       style="display:block;fill:#1155cc;stroke-width:0.264583" />
    <path
       fill-rule="evenodd"
       d="m 43.448435,196.89134 h 1.402292 l 0.02646,-0.66146 0.05292,-0.47625 0.132292,-0.52916 0.15875,-0.66146 0.185208,-0.39688 0.264583,-0.37041 0.211667,-0.15875 0.185208,-0.0794 0.238125,-0.0529 0.264584,0.0265 0.211666,0.0529 0.185209,0.10583 0.238125,0.23813 0.185208,0.3175 0.15875,0.37042 0.15875,0.5027 0.132292,0.58209 0.05292,0.37041 0.02646,0.3175 v 0.68792 l 0.02646,0.68792 -0.05292,0.635 -0.05292,0.50271 -0.15875,0.66145 -0.15875,0.52917 -0.238125,0.42333 -0.185209,0.23813 -0.185208,0.13229 -0.185208,0.10583 -0.211667,0.0529 -0.291042,-0.0529 -0.264583,-0.0794 -0.211667,-0.15875 -0.185208,-0.23813 -0.211667,-0.34395 -0.15875,-0.39688 -0.105833,-0.39687 -0.07937,-0.3175 -0.07937,-0.4498 -0.07938,-0.44979 -0.02646,-0.37041 v -0.52917 l 0.02646,-0.37042 h -1.402292 l -0.02646,0.34396 v 0.47625 l 0.02646,0.34396 0.02646,0.3175 0.05292,0.47625 0.105834,0.68792 0.211666,0.74083 0.370417,0.84667 0.211667,0.34395 0.343958,0.42334 0.343958,0.3175 0.396875,0.23812 0.396875,0.13229 0.47625,0.10584 0.582084,-0.10584 0.529166,-0.23812 0.211667,-0.15875 0.264583,-0.29104 0.3175,-0.39688 0.396875,-0.79375 0.264584,-0.71437 0.185208,-0.79375 0.07937,-0.60854 0.05292,-0.68792 v -1.32292 l -0.07937,-0.79375 -0.07937,-0.635 -0.185209,-0.79375 -0.238125,-0.58208 -0.211666,-0.42333 -0.238125,-0.42334 -0.264584,-0.34396 -0.423333,-0.34395 -0.3175,-0.21167 -0.529167,-0.13229 -0.3175,-0.0265 -0.343958,0.0529 -0.582083,0.21166 -0.291042,0.18521 -0.423333,0.42333 -0.264584,0.37042 -0.238125,0.47625 -0.211666,0.44979 -0.211667,0.52917 -0.132292,0.52917 -0.105833,0.55562 -0.07937,0.50271 -0.02646,0.42333 z"
       class="ga_17"
       id="path71"
       style="display:block;fill:#1155cc;stroke-width:0.264583" />
  </g>
</svg>
