<?xml version="1.0" encoding="UTF-8" standalone="no"?>
<!-- Created with Inkscape (http://www.inkscape.org/) -->

<svg
   width="103.74313mm"
   height="77.291481mm"
   viewBox="0 0 103.74313 77.291481"
   version="1.1"
   id="svg1"
   inkscape:version="1.3.2 (1:1.3.2+202311252150+091e20ef0f)"
   sodipodi:docname="vm-03-14_1.svg"
   xmlns:inkscape="http://www.inkscape.org/namespaces/inkscape"
   xmlns:sodipodi="http://sodipodi.sourceforge.net/DTD/sodipodi-0.dtd"
   xmlns="http://www.w3.org/2000/svg"
   xmlns:svg="http://www.w3.org/2000/svg">
  <sodipodi:namedview
     id="namedview1"
     pagecolor="#ffffff"
     bordercolor="#000000"
     borderopacity="0.25"
     inkscape:showpageshadow="2"
     inkscape:pageopacity="0.0"
     inkscape:pagecheckerboard="0"
     inkscape:deskcolor="#d1d1d1"
     inkscape:document-units="mm"
     inkscape:zoom="1.7131103"
     inkscape:cx="8.464137"
     inkscape:cy="-168.99087"
     inkscape:window-width="3840"
     inkscape:window-height="2123"
     inkscape:window-x="0"
     inkscape:window-y="0"
     inkscape:window-maximized="1"
     inkscape:current-layer="layer1" />
  <defs
     id="defs1">
    <clipPath
       id="c0_47">
      <path
         d="M 0,825 V 0 h 1100 v 825 z"
         id="path2" />
    </clipPath>
    <clipPath
       id="clipPath1">
      <path
         d="M 0,825 V 0 h 1100 v 825 z"
         id="path1" />
    </clipPath>
  </defs>
  <g
     inkscape:label="Layer 1"
     inkscape:groupmode="layer"
     id="layer1"
     transform="translate(-102.65833,-193.14583)">
    <path
       d="m 99.461018,186.68262 h 72.866252 v 5.10646 H 99.461018 Z"
       class="g3_47"
       id="path33"
       style="display:block;fill:#010000;fill-opacity:0;stroke-width:0.264583" />
    <path
       d="m 172.32727,186.78845 h 13.62604 v 4.55084 h -13.62604 z"
       class="g3_47"
       id="path34"
       style="display:block;fill:#010000;fill-opacity:0;stroke-width:0.264583" />
    <path
       d="m 185.95331,186.68262 h 1.24355 v 5.10646 h -1.24355 z"
       class="g1_47"
       id="path35"
       style="display:block;fill:#000000;fill-opacity:0;stroke-width:0.264583" />
    <path
       d="m 187.19686,186.78845 h 16.00729 v 4.55084 h -16.00729 z"
       class="g1_47"
       id="path36"
       style="display:block;fill:#000000;fill-opacity:0;stroke-width:0.264583" />
    <path
       fill-rule="evenodd"
       d="m 126.47498,222.66595 h 18.38854 v -20.8227 h 17.59479 v 20.8227 h 18.415 v 17.5948 h -18.415 V 261.057 h -17.59479 v -20.79625 h -18.38854 z"
       class="g5_47"
       id="path170"
       style="display:block;fill:#666666;stroke-width:0.264583" />
    <path
       d="m 126.47498,222.66595 h 18.38854 v -20.8227 h 17.59479 v 20.8227 h 18.415 v 17.5948 h -18.415 V 261.057 h -17.59479 v -20.79625 h -18.38854 z"
       class="g6_47"
       id="path171"
       style="display:block;fill:none;stroke:#666666;stroke-width:0.302948;stroke-linejoin:round" />
    <path
       fill-rule="evenodd"
       d="m 144.83706,201.84325 h 1.00542 v 20.0025 h -1.00542 z"
       class="g7_47"
       id="path172"
       style="display:block;fill:#999999;stroke-width:0.264583" />
    <path
       d="m 144.83706,201.84325 h 1.00542 v 20.0025 h -1.00542 z"
       class="g8_47"
       id="path173"
       style="display:block;fill:none;stroke:#999999;stroke-width:0.302948;stroke-linejoin:round" />
    <path
       fill-rule="evenodd"
       d="m 161.42644,201.84325 h 1.00542 v 20.0025 h -1.00542 z"
       class="g7_47"
       id="path174"
       style="display:block;fill:#999999;stroke-width:0.264583" />
    <path
       d="m 161.42644,201.84325 h 1.00542 v 20.0025 h -1.00542 z"
       class="g8_47"
       id="path175"
       style="display:block;fill:none;stroke:#999999;stroke-width:0.302948;stroke-linejoin:round" />
    <path
       fill-rule="evenodd"
       d="m 144.86352,241.10741 h 1.00542 v 20.0025 h -1.00542 z"
       class="g7_47"
       id="path176"
       style="display:block;fill:#999999;stroke-width:0.264583" />
    <path
       d="m 144.86352,241.10741 h 1.00542 v 20.0025 h -1.00542 z"
       class="g8_47"
       id="path177"
       style="display:block;fill:none;stroke:#999999;stroke-width:0.302948;stroke-linejoin:round" />
    <path
       fill-rule="evenodd"
       d="m 161.47936,241.10741 h 0.97895 v 20.0025 h -0.97895 z"
       class="g7_47"
       id="path178"
       style="display:block;fill:#999999;stroke-width:0.264583" />
    <path
       d="m 161.47936,241.10741 h 0.97895 v 20.0025 h -0.97895 z"
       class="g8_47"
       id="path179"
       style="display:block;fill:none;stroke:#999999;stroke-width:0.302948;stroke-linejoin:round" />
    <path
       fill-rule="evenodd"
       d="m 145.84248,221.8722 v 1.0848 h -19.3675 v -1.0848 z"
       class="g7_47"
       id="path180"
       style="display:block;fill:#999999;stroke-width:0.264583" />
    <path
       d="m 145.84248,221.8722 v 1.0848 h -19.3675 v -1.0848 z"
       class="g8_47"
       id="path181"
       style="display:block;fill:none;stroke:#999999;stroke-width:0.302948;stroke-linejoin:round" />
    <path
       fill-rule="evenodd"
       d="m 145.84248,239.94325 v 1.08479 h -19.3675 v -1.08479 z"
       class="g7_47"
       id="path182"
       style="display:block;fill:#999999;stroke-width:0.264583" />
    <path
       d="m 145.84248,239.94325 v 1.08479 h -19.3675 v -1.08479 z"
       class="g8_47"
       id="path183"
       style="display:block;fill:none;stroke:#999999;stroke-width:0.302948;stroke-linejoin:round" />
    <path
       fill-rule="evenodd"
       d="m 180.84686,221.89866 v 1.08479 h -19.3675 v -1.08479 z"
       class="g7_47"
       id="path184"
       style="display:block;fill:#999999;stroke-width:0.264583" />
    <path
       d="m 180.84686,221.89866 v 1.08479 h -19.3675 v -1.08479 z"
       class="g8_47"
       id="path185"
       style="display:block;fill:none;stroke:#999999;stroke-width:0.302948;stroke-linejoin:round" />
    <path
       fill-rule="evenodd"
       d="m 180.84686,239.9697 v 1.0848 h -19.3675 v -1.0848 z"
       class="g7_47"
       id="path186"
       style="display:block;fill:#999999;stroke-width:0.264583" />
    <path
       d="m 180.84686,239.9697 v 1.0848 h -19.3675 v -1.0848 z"
       class="g8_47"
       id="path187"
       style="display:block;fill:none;stroke:#999999;stroke-width:0.302948;stroke-linejoin:round" />
    <path
       fill-rule="evenodd"
       d="m 135.23269,231.50304 -8.75771,-0.0265 z"
       class="g1_47"
       id="path188"
       style="display:block;fill:#000000;fill-opacity:0;stroke-width:0.264583" />
    <path
       d="m 135.23269,231.50304 -8.75771,-0.0265"
       class="g9_47"
       id="path189"
       style="display:block;fill:none;stroke:#f3f3f3;stroke-width:0.60616;stroke-linejoin:round;stroke-dasharray:2.64583, 1.85208" />
    <path
       fill-rule="evenodd"
       d="m 180.84686,231.50304 -8.78417,-0.0265 z"
       class="g1_47"
       id="path190"
       style="display:block;fill:#000000;fill-opacity:0;stroke-width:0.264583" />
    <path
       d="m 180.84686,231.50304 -8.78417,-0.0265"
       class="g9_47"
       id="path191"
       style="display:block;fill:none;stroke:#f3f3f3;stroke-width:0.60616;stroke-linejoin:round;stroke-dasharray:2.64583, 1.85208" />
    <path
       fill-rule="evenodd"
       d="m 153.62123,211.36825 0.0265,-9.49855 z"
       class="g1_47"
       id="path192"
       style="display:block;fill:#000000;fill-opacity:0;stroke-width:0.264583" />
    <path
       d="m 153.62123,211.36825 0.0265,-9.49855"
       class="g9_47"
       id="path193"
       style="display:block;fill:none;stroke:#f3f3f3;stroke-width:0.60616;stroke-linejoin:round;stroke-dasharray:2.64583, 1.85208" />
    <path
       fill-rule="evenodd"
       d="m 154.57373,261.32158 0.0529,-11.64167 z"
       class="g1_47"
       id="path194"
       style="display:block;fill:#000000;fill-opacity:0;stroke-width:0.264583" />
    <path
       d="m 154.57373,261.32158 0.0529,-11.64167"
       class="g9_47"
       id="path195"
       style="display:block;fill:none;stroke:#f3f3f3;stroke-width:0.60616;stroke-linejoin:round;stroke-dasharray:2.64583, 1.85208" />
    <path
       fill-rule="evenodd"
       d="m 135.31206,231.60887 0.0265,-8.65187 z"
       class="g1_47"
       id="path196"
       style="display:block;fill:#000000;fill-opacity:0;stroke-width:0.264583" />
    <path
       d="m 135.31206,231.60887 0.0265,-8.65187"
       class="ga_47"
       id="path197"
       style="display:block;fill:none;stroke:#f3f3f3;stroke-width:0.909373;stroke-linejoin:round" />
    <path
       fill-rule="evenodd"
       d="m 172.16852,240.102 0.0265,-8.65188 z"
       class="g1_47"
       id="path198"
       style="display:block;fill:#000000;fill-opacity:0;stroke-width:0.264583" />
    <path
       d="m 172.16852,240.102 0.0265,-8.65188"
       class="ga_47"
       id="path199"
       style="display:block;fill:none;stroke:#f3f3f3;stroke-width:0.909373;stroke-linejoin:round" />
    <path
       fill-rule="evenodd"
       d="m 153.5154,211.527 7.96396,0.0265 z"
       class="g1_47"
       id="path200"
       style="display:block;fill:#000000;fill-opacity:0;stroke-width:0.264583" />
    <path
       d="m 153.5154,211.527 7.96396,0.0265"
       class="ga_47"
       id="path201"
       style="display:block;fill:none;stroke:#f3f3f3;stroke-width:0.909373;stroke-linejoin:round" />
    <path
       fill-rule="evenodd"
       d="m 144.81061,249.65345 h 9.73666 z"
       class="g1_47"
       id="path202"
       style="display:block;fill:#000000;fill-opacity:0;stroke-width:0.264583" />
    <path
       d="m 144.81061,249.65345 h 9.73666"
       class="ga_47"
       id="path203"
       style="display:block;fill:none;stroke:#f3f3f3;stroke-width:0.909373;stroke-linejoin:round" />
    <path
       fill-rule="evenodd"
       d="m 146.29227,245.57887 h 0.84667 v 3.91583 h -0.84667 z"
       class="gb_47"
       id="path204"
       style="display:block;fill:#eeeeee;stroke-width:0.264583" />
    <path
       fill-rule="evenodd"
       d="m 148.09144,245.57887 h 0.84667 v 3.91583 h -0.84667 z"
       class="gb_47"
       id="path205"
       style="display:block;fill:#eeeeee;stroke-width:0.264583" />
    <path
       fill-rule="evenodd"
       d="m 149.86415,245.57887 h 0.84666 v 3.91583 h -0.84666 z"
       class="gb_47"
       id="path206"
       style="display:block;fill:#eeeeee;stroke-width:0.264583" />
    <path
       fill-rule="evenodd"
       d="m 151.63686,245.57887 h 0.84666 v 3.91583 h -0.84666 z"
       class="gb_47"
       id="path207"
       style="display:block;fill:#eeeeee;stroke-width:0.264583" />
    <path
       fill-rule="evenodd"
       d="m 153.43602,245.57887 h 0.84667 v 3.91583 h -0.84667 z"
       class="gb_47"
       id="path208"
       style="display:block;fill:#eeeeee;stroke-width:0.264583" />
    <path
       fill-rule="evenodd"
       d="m 155.20873,245.57887 h 0.84667 v 3.91583 h -0.84667 z"
       class="gb_47"
       id="path209"
       style="display:block;fill:#eeeeee;stroke-width:0.264583" />
    <path
       fill-rule="evenodd"
       d="m 156.98144,245.57887 h 0.84667 v 3.91583 h -0.84667 z"
       class="gb_47"
       id="path210"
       style="display:block;fill:#eeeeee;stroke-width:0.264583" />
    <path
       fill-rule="evenodd"
       d="m 158.78061,245.57887 h 0.84666 v 3.91583 h -0.84666 z"
       class="gb_47"
       id="path211"
       style="display:block;fill:#eeeeee;stroke-width:0.264583" />
    <path
       fill-rule="evenodd"
       d="m 160.55331,245.57887 h 0.84667 v 3.91583 h -0.84667 z"
       class="gb_47"
       id="path212"
       style="display:block;fill:#eeeeee;stroke-width:0.264583" />
    <path
       fill-rule="evenodd"
       d="m 146.10706,213.82887 h 0.84667 v 3.91583 h -0.84667 z"
       class="gb_47"
       id="path213"
       style="display:block;fill:#eeeeee;stroke-width:0.264583" />
    <path
       fill-rule="evenodd"
       d="m 147.87977,213.82887 h 0.84667 v 3.91583 h -0.84667 z"
       class="gb_47"
       id="path214"
       style="display:block;fill:#eeeeee;stroke-width:0.264583" />
    <path
       fill-rule="evenodd"
       d="m 149.65248,213.82887 h 0.84667 v 3.91583 h -0.84667 z"
       class="gb_47"
       id="path215"
       style="display:block;fill:#eeeeee;stroke-width:0.264583" />
    <path
       fill-rule="evenodd"
       d="m 151.45165,213.82887 h 0.84666 v 3.91583 h -0.84666 z"
       class="gb_47"
       id="path216"
       style="display:block;fill:#eeeeee;stroke-width:0.264583" />
    <path
       fill-rule="evenodd"
       d="m 153.22436,213.82887 h 0.84666 v 3.91583 h -0.84666 z"
       class="gb_47"
       id="path217"
       style="display:block;fill:#eeeeee;stroke-width:0.264583" />
    <path
       fill-rule="evenodd"
       d="m 154.99706,213.82887 h 0.84667 v 3.91583 h -0.84667 z"
       class="gb_47"
       id="path218"
       style="display:block;fill:#eeeeee;stroke-width:0.264583" />
    <path
       fill-rule="evenodd"
       d="m 156.79623,213.82887 h 0.82021 v 3.91583 h -0.82021 z"
       class="gb_47"
       id="path219"
       style="display:block;fill:#eeeeee;stroke-width:0.264583" />
    <path
       fill-rule="evenodd"
       d="m 158.56894,213.82887 h 0.84667 v 3.91583 h -0.84667 z"
       class="gb_47"
       id="path220"
       style="display:block;fill:#eeeeee;stroke-width:0.264583" />
    <path
       fill-rule="evenodd"
       d="m 160.34165,213.82887 h 0.84666 v 3.91583 h -0.84666 z"
       class="gb_47"
       id="path221"
       style="display:block;fill:#eeeeee;stroke-width:0.264583" />
    <path
       fill-rule="evenodd"
       d="m 141.1329,223.2745 v 0.92604 h -3.59834 v -0.92604 z"
       class="gb_47"
       id="path222"
       style="display:block;fill:#eeeeee;stroke-width:0.264583" />
    <path
       fill-rule="evenodd"
       d="m 141.1329,225.20595 v 0.92605 h -3.59834 v -0.92605 z"
       class="gb_47"
       id="path223"
       style="display:block;fill:#eeeeee;stroke-width:0.264583" />
    <path
       fill-rule="evenodd"
       d="m 141.1329,227.13741 v 0.92604 h -3.59834 v -0.92604 z"
       class="gb_47"
       id="path224"
       style="display:block;fill:#eeeeee;stroke-width:0.264583" />
    <path
       fill-rule="evenodd"
       d="m 141.1329,229.09533 v 0.89958 h -3.59834 v -0.89958 z"
       class="gb_47"
       id="path225"
       style="display:block;fill:#eeeeee;stroke-width:0.264583" />
    <path
       fill-rule="evenodd"
       d="m 141.1329,231.02679 v 0.89958 h -3.59834 v -0.89958 z"
       class="gb_47"
       id="path226"
       style="display:block;fill:#eeeeee;stroke-width:0.264583" />
    <path
       fill-rule="evenodd"
       d="m 141.1329,232.95825 v 0.92604 h -3.59834 v -0.92604 z"
       class="gb_47"
       id="path227"
       style="display:block;fill:#eeeeee;stroke-width:0.264583" />
    <path
       fill-rule="evenodd"
       d="m 141.1329,234.8897 v 0.92605 h -3.59834 v -0.92605 z"
       class="gb_47"
       id="path228"
       style="display:block;fill:#eeeeee;stroke-width:0.264583" />
    <path
       fill-rule="evenodd"
       d="m 141.1329,236.84762 v 0.89958 h -3.59834 v -0.89958 z"
       class="gb_47"
       id="path229"
       style="display:block;fill:#eeeeee;stroke-width:0.264583" />
    <path
       fill-rule="evenodd"
       d="m 141.1329,238.77908 v 0.89958 h -3.59834 v -0.89958 z"
       class="gb_47"
       id="path230"
       style="display:block;fill:#eeeeee;stroke-width:0.264583" />
    <path
       fill-rule="evenodd"
       d="m 169.86665,223.2745 v 0.92604 h -3.59834 v -0.92604 z"
       class="gb_47"
       id="path231"
       style="display:block;fill:#eeeeee;stroke-width:0.264583" />
    <path
       fill-rule="evenodd"
       d="m 169.86665,225.20595 v 0.92605 h -3.59834 v -0.92605 z"
       class="gb_47"
       id="path232"
       style="display:block;fill:#eeeeee;stroke-width:0.264583" />
    <path
       fill-rule="evenodd"
       d="m 169.86665,227.13741 v 0.92604 h -3.59834 v -0.92604 z"
       class="gb_47"
       id="path233"
       style="display:block;fill:#eeeeee;stroke-width:0.264583" />
    <path
       fill-rule="evenodd"
       d="m 169.86665,229.09533 v 0.89958 h -3.59834 v -0.89958 z"
       class="gb_47"
       id="path234"
       style="display:block;fill:#eeeeee;stroke-width:0.264583" />
    <path
       fill-rule="evenodd"
       d="m 169.86665,231.02679 v 0.89958 h -3.59834 v -0.89958 z"
       class="gb_47"
       id="path235"
       style="display:block;fill:#eeeeee;stroke-width:0.264583" />
    <path
       fill-rule="evenodd"
       d="m 169.86665,232.95825 v 0.92604 h -3.59834 v -0.92604 z"
       class="gb_47"
       id="path236"
       style="display:block;fill:#eeeeee;stroke-width:0.264583" />
    <path
       fill-rule="evenodd"
       d="m 169.86665,234.8897 v 0.92605 h -3.59834 v -0.92605 z"
       class="gb_47"
       id="path237"
       style="display:block;fill:#eeeeee;stroke-width:0.264583" />
    <path
       fill-rule="evenodd"
       d="m 169.86665,236.84762 v 0.89958 h -3.59834 v -0.89958 z"
       class="gb_47"
       id="path238"
       style="display:block;fill:#eeeeee;stroke-width:0.264583" />
    <path
       fill-rule="evenodd"
       d="m 169.86665,238.77908 v 0.89958 h -3.59834 v -0.89958 z"
       class="gb_47"
       id="path239"
       style="display:block;fill:#eeeeee;stroke-width:0.264583" />
    <path
       fill-rule="evenodd"
       d="m 152.85394,231.66179 0.84667,-0.89959 0.84666,0.89959 -0.84666,0.92604 z"
       class="g1_47"
       id="path240"
       style="display:block;fill:#000000;fill-opacity:0;stroke-width:0.264583" />
    <path
       d="m 152.85394,231.66179 0.84667,-0.89959 0.84666,0.89959 -0.84666,0.92604 z"
       class="gc_47"
       id="path241"
       style="display:block;fill:none;stroke:#f3f3f3;stroke-width:0.302948;stroke-linejoin:round" />
    <path
       fill-rule="evenodd"
       d="m 163.27852,234.387 h -0.44979 v 9.525 h 0.44979 z"
       class="g7_47"
       id="path242"
       style="display:block;fill:#999999;stroke-width:0.264583" />
    <path
       d="m 163.27852,234.387 h -0.44979 v 9.525 h 0.44979 z"
       class="g8_47"
       id="path243"
       style="display:block;fill:none;stroke:#999999;stroke-width:0.302948;stroke-linejoin:round" />
    <path
       fill-rule="evenodd"
       d="m 163.11977,234.78387 v 0 c 0,-0.23812 -0.18521,-0.39687 -0.39687,-0.39687 h -4.78896 c -0.10583,0 -0.21167,0.0264 -0.29104,0.10583 -0.0794,0.0794 -0.10584,0.18521 -0.10584,0.29104 v 1.5875 c 0,0.21167 0.18521,0.39688 0.39688,0.39688 h 4.78896 c 0.21166,0 0.39687,-0.18521 0.39687,-0.39688 z"
       class="g7_47"
       id="path244"
       style="display:block;fill:#999999;stroke-width:0.264583" />
    <path
       d="m 163.11977,234.78387 v 0 c 0,-0.23812 -0.18521,-0.39687 -0.39687,-0.39687 h -4.78896 c -0.10583,0 -0.21167,0.0264 -0.29104,0.10583 -0.0794,0.0794 -0.10584,0.18521 -0.10584,0.29104 v 1.5875 c 0,0.21167 0.18521,0.39688 0.39688,0.39688 h 4.78896 c 0.21166,0 0.39687,-0.18521 0.39687,-0.39688 z"
       class="g8_47"
       id="path245"
       style="display:block;fill:none;stroke:#999999;stroke-width:0.302948;stroke-linejoin:round" />
    <path
       fill-rule="evenodd"
       d="m 140.1804,242.45679 v -0.50271 h 4.10104 v 0.50271 z"
       class="g7_47"
       id="path246"
       style="display:block;fill:#999999;stroke-width:0.264583" />
    <path
       d="m 140.1804,242.45679 v -0.50271 h 4.10104 v 0.50271 z"
       class="g8_47"
       id="path247"
       style="display:block;fill:none;stroke:#999999;stroke-width:0.302948;stroke-linejoin:round" />
    <path
       fill-rule="evenodd"
       d="m 140.52436,242.37741 v 0 c -0.18521,0 -0.34396,-0.15875 -0.34396,-0.37041 v -5.34459 c 0,-0.0794 0.0265,-0.18521 0.10583,-0.26458 0.0529,-0.0529 0.15875,-0.10583 0.23813,-0.10583 h 1.48166 c 0.18521,0 0.37042,0.1852 0.37042,0.37041 v 5.34459 c 0,0.21166 -0.18521,0.37041 -0.37042,0.37041 z"
       class="g7_47"
       id="path248"
       style="display:block;fill:#999999;stroke-width:0.264583" />
    <path
       d="m 140.52436,242.37741 v 0 c -0.18521,0 -0.34396,-0.15875 -0.34396,-0.37041 v -5.34459 c 0,-0.0794 0.0265,-0.18521 0.10583,-0.26458 0.0529,-0.0529 0.15875,-0.10583 0.23813,-0.10583 h 1.48166 c 0.18521,0 0.37042,0.1852 0.37042,0.37041 v 5.34459 c 0,0.21166 -0.18521,0.37041 -0.37042,0.37041 z"
       class="g8_47"
       id="path249"
       style="display:block;fill:none;stroke:#999999;stroke-width:0.302948;stroke-linejoin:round" />
    <path
       fill-rule="evenodd"
       d="m 141.23873,238.22345 v 0 c -0.34396,0 -0.635,-0.3175 -0.635,-0.68791 0,-0.37042 0.29104,-0.68792 0.635,-0.68792 0.34396,0 0.635,0.3175 0.635,0.68792 0,0.37041 -0.29104,0.68791 -0.635,0.68791 z"
       class="gd_47"
       id="path250"
       style="display:block;fill:#ff0000;stroke-width:0.264583" />
    <path
       fill-rule="evenodd"
       d="m 141.23873,240.15491 v 0 c -0.34396,0 -0.635,-0.3175 -0.635,-0.68791 0,-0.37042 0.29104,-0.68792 0.635,-0.68792 0.34396,0 0.635,0.3175 0.635,0.68792 0,0.37041 -0.29104,0.68791 -0.635,0.68791 z"
       class="ge_47"
       id="path251"
       style="display:block;fill:#f1c232;stroke-width:0.264583" />
    <path
       fill-rule="evenodd"
       d="m 141.23873,242.08637 v 0 c -0.34396,0 -0.635,-0.3175 -0.635,-0.68792 0,-0.37041 0.29104,-0.68791 0.635,-0.68791 0.34396,0 0.635,0.3175 0.635,0.68791 0,0.37042 -0.29104,0.68792 -0.635,0.68792 z"
       class="gf_47"
       id="path252"
       style="display:block;fill:#38761d;stroke-width:0.264583" />
    <path
       fill-rule="evenodd"
       d="m 167.14144,221.052 v -0.47625 h -4.1275 v 0.47625 z"
       class="g7_47"
       id="path253"
       style="display:block;fill:#999999;stroke-width:0.264583" />
    <path
       d="m 167.14144,221.052 v -0.47625 h -4.1275 v 0.47625 z"
       class="g8_47"
       id="path254"
       style="display:block;fill:none;stroke:#999999;stroke-width:0.302948;stroke-linejoin:round" />
    <path
       fill-rule="evenodd"
       d="m 166.77102,220.99908 v 0 c 0.21167,0 0.37042,-0.18521 0.37042,-0.37042 v -5.34458 c 0,-0.10583 -0.0529,-0.18521 -0.10583,-0.26458 -0.0794,-0.0529 -0.15875,-0.10584 -0.26459,-0.10584 h -1.45521 c -0.21166,0 -0.37041,0.15875 -0.37041,0.37042 v 5.34458 c 0,0.18521 0.15875,0.37042 0.37041,0.37042 z"
       class="g7_47"
       id="path255"
       style="display:block;fill:#999999;stroke-width:0.264583" />
    <path
       d="m 166.77102,220.99908 v 0 c 0.21167,0 0.37042,-0.18521 0.37042,-0.37042 v -5.34458 c 0,-0.10583 -0.0529,-0.18521 -0.10583,-0.26458 -0.0794,-0.0529 -0.15875,-0.10584 -0.26459,-0.10584 h -1.45521 c -0.21166,0 -0.37041,0.15875 -0.37041,0.37042 v 5.34458 c 0,0.18521 0.15875,0.37042 0.37041,0.37042 z"
       class="g8_47"
       id="path256"
       style="display:block;fill:none;stroke:#999999;stroke-width:0.302948;stroke-linejoin:round" />
    <path
       fill-rule="evenodd"
       d="m 166.05665,216.84512 v 0 c 0.37041,0 0.635,-0.3175 0.635,-0.68792 0,-0.39687 -0.26459,-0.68791 -0.635,-0.68791 -0.34396,0 -0.60854,0.29104 -0.60854,0.68791 0,0.37042 0.26458,0.68792 0.60854,0.68792 z"
       class="gd_47"
       id="path257"
       style="display:block;fill:#ff0000;stroke-width:0.264583" />
    <path
       fill-rule="evenodd"
       d="m 166.05665,218.77658 v 0 c 0.37041,0 0.635,-0.3175 0.635,-0.68792 0,-0.39687 -0.26459,-0.68791 -0.635,-0.68791 -0.34396,0 -0.60854,0.29104 -0.60854,0.68791 0,0.37042 0.26458,0.68792 0.60854,0.68792 z"
       class="ge_47"
       id="path258"
       style="display:block;fill:#f1c232;stroke-width:0.264583" />
    <path
       fill-rule="evenodd"
       d="m 166.05665,220.70804 v 0 c 0.37041,0 0.635,-0.3175 0.635,-0.68792 0,-0.39687 -0.26459,-0.68792 -0.635,-0.68792 -0.34396,0 -0.60854,0.29105 -0.60854,0.68792 0,0.37042 0.26458,0.68792 0.60854,0.68792 z"
       class="gf_47"
       id="path259"
       style="display:block;fill:#38761d;stroke-width:0.264583" />
    <path
       fill-rule="evenodd"
       d="m 144.06977,210.09825 h 0.44979 v 9.55145 h -0.44979 z"
       class="g7_47"
       id="path260"
       style="display:block;fill:#999999;stroke-width:0.264583" />
    <path
       d="m 144.06977,210.09825 h 0.44979 v 9.55145 h -0.44979 z"
       class="g8_47"
       id="path261"
       style="display:block;fill:none;stroke:#999999;stroke-width:0.302948;stroke-linejoin:round" />
    <path
       fill-rule="evenodd"
       d="m 144.22852,210.49512 v 0 c 0,-0.21167 0.18521,-0.39687 0.39688,-0.39687 h 4.78896 c 0.10583,0 0.21166,0.0529 0.29104,0.13229 0.0794,0.0794 0.10583,0.15875 0.10583,0.26458 v 1.61396 c 0,0.21167 -0.18521,0.39687 -0.39687,0.39687 h -4.78896 c -0.21167,0 -0.39688,-0.1852 -0.39688,-0.39687 z"
       class="g7_47"
       id="path262"
       style="display:block;fill:#999999;stroke-width:0.264583" />
    <path
       d="m 144.22852,210.49512 v 0 c 0,-0.21167 0.18521,-0.39687 0.39688,-0.39687 h 4.78896 c 0.10583,0 0.21166,0.0529 0.29104,0.13229 0.0794,0.0794 0.10583,0.15875 0.10583,0.26458 v 1.61396 c 0,0.21167 -0.18521,0.39687 -0.39687,0.39687 h -4.78896 c -0.21167,0 -0.39688,-0.1852 -0.39688,-0.39687 z"
       class="g8_47"
       id="path263"
       style="display:block;fill:none;stroke:#999999;stroke-width:0.302948;stroke-linejoin:round" />
    <path
       fill-rule="evenodd"
       d="m 148.03852,211.26241 v 0 c 0,-0.37041 0.29104,-0.68791 0.635,-0.68791 0.18521,0 0.34396,0.0794 0.44979,0.21166 0.1323,0.13229 0.18521,0.29104 0.18521,0.47625 0,0.39688 -0.29104,0.68792 -0.635,0.68792 -0.34396,0 -0.635,-0.29104 -0.635,-0.68792 z"
       class="gd_47"
       id="path264"
       style="display:block;fill:#ff0000;stroke-width:0.264583" />
    <path
       fill-rule="evenodd"
       d="m 146.26581,211.26241 v 0 c 0,-0.37041 0.29105,-0.68791 0.635,-0.68791 0.15875,0 0.34396,0.0794 0.4498,0.21166 0.13229,0.13229 0.1852,0.29104 0.1852,0.47625 0,0.39688 -0.29104,0.68792 -0.635,0.68792 -0.34395,0 -0.635,-0.29104 -0.635,-0.68792 z"
       class="ge_47"
       id="path265"
       style="display:block;fill:#f1c232;stroke-width:0.264583" />
    <path
       fill-rule="evenodd"
       d="m 144.49311,211.26241 v 0 c 0,-0.37041 0.29104,-0.68791 0.635,-0.68791 0.15875,0 0.34395,0.0794 0.44979,0.21166 0.10583,0.13229 0.18521,0.29104 0.18521,0.47625 0,0.39688 -0.29105,0.68792 -0.635,0.68792 -0.34396,0 -0.635,-0.29104 -0.635,-0.68792 z"
       class="gf_47"
       id="path266"
       style="display:block;fill:#38761d;stroke-width:0.264583" />
    <path
       fill-rule="evenodd"
       d="m 146.47748,244.89095 c 0.0265,-0.97895 -0.0265,-4.18041 0.15875,-5.84729 0.18521,-1.69333 0.52917,-2.80458 0.97896,-4.28625 0.47625,-1.48166 1.50812,-3.83646 1.82562,-4.60375 z"
       class="g1_47"
       id="path267"
       style="display:block;fill:#000000;fill-opacity:0;stroke-width:0.264583" />
    <path
       d="m 146.47748,244.89095 c 0.0265,-0.97895 -0.0265,-4.18041 0.15875,-5.84729 0.18521,-1.69333 0.52917,-2.80458 0.97896,-4.28625 0.47625,-1.48166 1.50812,-3.83646 1.82562,-4.60375"
       class="gg_47"
       id="path268"
       style="display:block;fill:none;stroke:#ffffff;stroke-width:0.60616;stroke-linejoin:round;stroke-dasharray:2.64583, 1.85208" />
    <path
       fill-rule="evenodd"
       d="m 154.86477,245.44658 c 0,-0.68792 -0.23812,-2.51354 0,-4.10104 0.21167,-1.5875 1.08479,-4.60375 1.29646,-5.50334 z"
       class="g1_47"
       id="path269"
       style="display:block;fill:#000000;fill-opacity:0;stroke-width:0.264583" />
    <path
       d="m 154.86477,245.44658 c 0,-0.68792 -0.23812,-2.51354 0,-4.10104 0.21167,-1.5875 1.08479,-4.60375 1.29646,-5.50334"
       class="gg_47"
       id="path270"
       style="display:block;fill:none;stroke:#ffffff;stroke-width:0.60616;stroke-linejoin:round;stroke-dasharray:2.64583, 1.85208" />
    <path
       fill-rule="evenodd"
       d="m 149.75831,250.262 c 0,-1.56105 -0.21166,-6.85271 0,-9.36625 0.18521,-2.51355 0.50271,-4.10105 1.19063,-5.68855 0.68792,-1.56104 1.93146,-2.75166 2.93687,-3.75708 0.97896,-0.97896 1.85209,-1.42875 3.01625,-2.14312 1.16417,-0.71438 3.33375,-1.79917 3.99521,-2.16959 z"
       class="g1_47"
       id="path271"
       style="display:block;fill:#000000;fill-opacity:0;stroke-width:0.264583" />
    <path
       d="m 149.75831,250.262 c 0,-1.56105 -0.21166,-6.85271 0,-9.36625 0.18521,-2.51355 0.50271,-4.10105 1.19063,-5.68855 0.68792,-1.56104 1.93146,-2.75166 2.93687,-3.75708 0.50271,-0.47625 0.9525,-0.84667 1.45521,-1.16417 0.23813,-0.15875 0.47625,-0.3175 0.74084,-0.47625 l 0.0265,-0.0264"
       class="gn_47"
       id="path272"
       style="display:block;fill:none;stroke:#f7981d;stroke-width:0.909373;stroke-linejoin:round" />
    <path
       fill-rule="evenodd"
       d="m 156.84915,231.10616 2.88396,-3.33375 -4.33917,0.68792 z"
       class="go_47"
       id="path273"
       style="display:block;fill:#f7981d;stroke:#f7981d;stroke-width:0.909373;stroke-miterlimit:10" />
    <path
       fill-rule="evenodd"
       d="m 172.48602,249.52116 h 28.38979 v 11.7475 h -28.38979 z"
       class="g1_47"
       id="path274"
       style="display:block;fill:#000000;fill-opacity:0;stroke-width:0.264583" />
    <text
       clip-path="url(#c0_47)"
       x="334.20001"
       y="726.79999"
       class="s9_47"
       id="text274"
       style="font-size:18.33px;font-family:MS-PGothic_bn;white-space:pre;display:block;fill:#000000"
       transform="matrix(0.26458333,0,0,0.26458333,86.813939,64.603873)"><tspan
         sodipodi:role="line"
         id="tspan311"
         x="334.20001"
         y="726.79999"> </tspan><tspan
         sodipodi:role="line"
         id="tspan312"
         x="334.20001"
         y="749.71246">guide line</tspan></text>
    <path
       fill-rule="evenodd"
       d="M 173.38561,253.54283 155.04998,242.93304 Z"
       class="g1_47"
       id="path275"
       style="display:block;fill:#000000;fill-opacity:0;stroke-width:0.264583" />
    <path
       d="m 173.38561,253.54283 -16.77459,-9.71021"
       class="g2_47"
       id="path276"
       style="display:block;fill:none;stroke:#000000;stroke-width:0.302948;stroke-linejoin:round" />
    <path
       fill-rule="evenodd"
       d="m 156.87561,243.40929 -1.45521,-0.26459 0.9525,1.13771 z"
       class="gp_47"
       id="path277"
       style="display:block;fill:#000000;stroke:#000000;stroke-width:0.302948;stroke-miterlimit:10" />
    <path
       fill-rule="evenodd"
       d="m 156.08186,235.9745 -6.64105,-5.58271 z"
       class="g1_47"
       id="path278"
       style="display:block;fill:#000000;fill-opacity:0;stroke-width:0.264583" />
    <path
       d="m 156.08186,235.9745 -6.64105,-5.58271"
       class="ga_47"
       id="path279"
       style="display:block;fill:none;stroke:#f3f3f3;stroke-width:0.909373;stroke-linejoin:round" />
    <path
       fill-rule="evenodd"
       d="m 105.46706,205.97075 h 28.3898 v 11.7475 h -28.3898 z"
       class="g1_47"
       id="path280"
       style="display:block;fill:#000000;fill-opacity:0;stroke-width:0.264583" />
    <text
       clip-path="url(#c0_47)"
       x="80.800003"
       y="562.20001"
       class="s9_47"
       id="text280"
       transform="matrix(0.26458333,0,0,0.26458333,84.200108,64.020398)"
       style="font-size:18.33px;font-family:MS-PGothic_bn;white-space:pre;display:block;fill:#000000"><tspan
         sodipodi:role="line"
         id="tspan313"
         x="80.800003"
         y="562.20001"> </tspan><tspan
         sodipodi:role="line"
         id="tspan314"
         x="80.800003"
         y="585.11249">stop line</tspan></text>
    <path
       fill-rule="evenodd"
       d="m 123.96144,213.98762 25.87625,17.11854 z"
       class="g1_47"
       id="path281"
       style="display:block;fill:#000000;fill-opacity:0;stroke-width:0.264583" />
    <path
       d="m 123.96144,213.98762 24.36812,16.11313"
       class="g2_47"
       id="path282"
       style="display:block;fill:none;stroke:#000000;stroke-width:0.302948;stroke-linejoin:round" />
    <path
       fill-rule="evenodd"
       d="m 148.03852,230.52408 1.42875,0.34396 -0.87312,-1.19063 z"
       class="gp_47"
       id="path283"
       style="display:block;fill:#000000;stroke:#000000;stroke-width:0.302948;stroke-miterlimit:10" />
    <path
       fill-rule="evenodd"
       d="m 147.85331,252.6697 v 0 c 0,-0.0264 0.0529,-0.0529 0.0794,-0.0529 h 0.23812 q 0.0265,0 0.0529,0 0,0.0265 0,0.0529 v 0.97896 c 0,0.0265 -0.0265,0.0529 -0.0529,0.0529 h -0.23814 c -0.0265,0 -0.0794,-0.0265 -0.0794,-0.0529 z"
       class="gq_47"
       id="path284"
       style="display:block;fill:#000000;stroke-width:0.264583" />
    <path
       fill-rule="evenodd"
       d="m 151.08123,252.6697 v 0 c 0,-0.0264 0.0265,-0.0529 0.0794,-0.0529 h 0.23812 c 0,0 0.0265,0 0.0265,0 q 0.0265,0.0265 0.0265,0.0529 v 0.97896 c 0,0.0265 -0.0265,0.0529 -0.0529,0.0529 h -0.23812 c -0.0529,0 -0.0794,-0.0265 -0.0794,-0.0529 z"
       class="gq_47"
       id="path285"
       style="display:block;fill:#000000;stroke-width:0.264583" />
    <path
       fill-rule="evenodd"
       d="m 147.85331,256.69137 v 0 c 0,-0.0265 0.0529,-0.0529 0.0794,-0.0529 h 0.23812 q 0.0265,0 0.0529,0 0,0.0265 0,0.0529 v 0.97896 c 0,0.0265 -0.0265,0.0529 -0.0529,0.0529 h -0.23814 c -0.0265,0 -0.0794,-0.0265 -0.0794,-0.0529 z"
       class="gq_47"
       id="path286"
       style="display:block;fill:#000000;stroke-width:0.264583" />
    <path
       fill-rule="evenodd"
       d="m 151.08123,256.69137 v 0 c 0,-0.0265 0.0265,-0.0529 0.0794,-0.0529 h 0.23812 c 0,0 0.0265,0 0.0265,0 q 0.0265,0.0265 0.0265,0.0529 v 0.97896 c 0,0.0265 -0.0265,0.0529 -0.0529,0.0529 h -0.23812 c -0.0529,0 -0.0794,-0.0265 -0.0794,-0.0529 z"
       class="gq_47"
       id="path287"
       style="display:block;fill:#000000;stroke-width:0.264583" />
    <path
       fill-rule="evenodd"
       d="m 147.98561,252.53741 v 0 c 0,-0.52916 0.42333,-0.92604 0.92604,-0.92604 h 1.53458 c 0.23813,0 0.47625,0.0794 0.66146,0.26458 0.15875,0.15875 0.26458,0.39688 0.26458,0.66146 v 5.23875 c 0,0.52917 -0.42333,0.9525 -0.92604,0.9525 h -1.53458 c -0.50271,0 -0.92604,-0.42333 -0.92604,-0.9525 z"
       class="gr_47"
       id="path288"
       style="display:block;fill:#3d85c6;stroke-width:0.264583" />
    <path
       fill-rule="evenodd"
       d="m 149.36144,251.55845 v 0 q 0,-0.0265 0.0265,-0.0265 h 0.60854 v 0.13229 c 0,0 -0.0265,0.0265 -0.0265,0.0265 h -0.58208 c -0.0265,0 -0.0265,-0.0265 -0.0265,-0.0265 z"
       class="gs_47"
       id="path289"
       style="display:block;fill:#efefef;stroke-width:0.264583" />
    <path
       fill-rule="evenodd"
       d="m 148.46186,251.87595 0.0529,0.21167 0.23813,-0.0529 0.0794,-0.0265 0.0265,-0.0265 v -0.0529 l -0.0265,-0.0265 v -0.0529 h -0.18521 z"
       class="g0_47"
       id="path290"
       style="display:block;fill:#ffffff;stroke-width:0.264583" />
    <path
       fill-rule="evenodd"
       d="m 150.86956,251.87595 -0.0264,0.21167 -0.26459,-0.0529 -0.0529,-0.0265 -0.0265,-0.0265 -0.0265,-0.0529 0.0265,-0.0265 0.0265,-0.0529 h 0.15875 z"
       class="g0_47"
       id="path291"
       style="display:block;fill:#ffffff;stroke-width:0.264583" />
    <path
       fill-rule="evenodd"
       d="m 148.38248,253.83387 0.23813,0.71438 0.0265,0.0529 0.0794,0.0529 h 1.85208 l 0.0794,-0.0265 0.0529,-0.0529 0.21167,-0.60854 v -0.10583 l -0.0529,-0.0529 -0.23812,-0.0794 -0.39688,-0.0794 -0.29104,-0.0529 h -0.37041 l -0.21167,0.0265 h -0.15885 l -0.23813,0.0265 -0.1852,0.0529 -0.15875,0.0529 -0.15875,0.0529 z"
       class="gt_47"
       id="path292"
       style="display:block;fill:#9fc5e8;stroke-width:0.264583" />
    <path
       d="m 148.38248,253.83387 0.23813,0.71438 0.0265,0.0529 0.0794,0.0529 h 1.85208 l 0.0794,-0.0265 0.0529,-0.0529 0.21167,-0.60854 v -0.10583 l -0.0529,-0.0529 -0.23812,-0.0794 -0.39688,-0.0794 -0.29104,-0.0529 h -0.37041 l -0.21167,0.0265 h -0.15885 l -0.23813,0.0265 -0.1852,0.0529 -0.15875,0.0529 -0.15875,0.0529 z"
       class="gu_47"
       id="path293"
       style="display:block;fill:none;stroke:#073763;stroke-width:0.302948;stroke-linejoin:round" />
    <path
       fill-rule="evenodd"
       d="m 148.19727,254.09845 v 3.59834 l 0.0794,0.0265 0.26458,-0.23813 0.0794,-0.13229 0.0529,-0.13229 -0.0529,-2.06375 -0.0265,-0.15875 -0.10584,-0.26459 -0.10583,-0.29104 z"
       class="gt_47"
       id="path294"
       style="display:block;fill:#9fc5e8;stroke-width:0.264583" />
    <path
       d="m 148.19727,254.09845 v 3.59834 l 0.0794,0.0265 0.26458,-0.23813 0.0794,-0.13229 0.0529,-0.13229 -0.0529,-2.06375 -0.0265,-0.15875 -0.10584,-0.26459 -0.10583,-0.29104 z"
       class="gu_47"
       id="path295"
       style="display:block;fill:none;stroke:#073763;stroke-width:0.302948;stroke-linejoin:round" />
    <path
       fill-rule="evenodd"
       d="m 151.18706,254.12491 v 3.62479 l -0.0794,0.0265 -0.26458,-0.23812 -0.0794,-0.15875 -0.0529,-0.13229 0.0529,-2.06375 0.0265,-0.1323 0.0794,-0.29104 0.1323,-0.26458 z"
       class="gt_47"
       id="path296"
       style="display:block;fill:#9fc5e8;stroke-width:0.264583" />
    <path
       d="m 151.18706,254.12491 v 3.62479 l -0.0794,0.0265 -0.26458,-0.23812 -0.0794,-0.15875 -0.0529,-0.13229 0.0529,-2.06375 0.0265,-0.1323 0.0794,-0.29104 0.1323,-0.26458 z"
       class="gu_47"
       id="path297"
       style="display:block;fill:none;stroke:#073763;stroke-width:0.302948;stroke-linejoin:round" />
    <path
       fill-rule="evenodd"
       d="m 148.19727,254.072 -0.0794,-0.0265 h -0.0794 l -0.0794,0.0265 -0.10584,0.0265 -0.0529,0.0529 -0.0265,0.0529 v 0.0529 l 0.0529,0.0529 0.0794,0.0265 0.10583,0.0265 h 0.10584 l 0.0794,-0.0529 0.0529,-0.0529 v -0.10583 l -0.0265,-0.0529 z"
       class="gv_47"
       id="path298"
       style="display:block;fill:#0b5394;stroke-width:0.264583" />
    <path
       fill-rule="evenodd"
       d="m 151.16061,254.072 0.0794,-0.0265 h 0.0794 l 0.0794,0.0265 0.0794,0.0265 0.0794,0.0529 0.0265,0.0529 v 0.0529 l -0.0529,0.0529 -0.0794,0.0265 -0.13229,0.0265 h -0.0794 l -0.0794,-0.0529 -0.0529,-0.0529 -0.0265,-0.0529 v -0.0529 l 0.0265,-0.0529 z"
       class="gv_47"
       id="path299"
       style="display:block;fill:#0b5394;stroke-width:0.264583" />
    <path
       fill-rule="evenodd"
       d="m 149.36144,258.62283 v 0 c 0,0 0,-0.0265 0.0265,-0.0265 h 0.58208 c 0,0 0,0.0265 0.0265,0.0265 v 0.10583 c 0,0.0265 -0.0265,0.0265 -0.0265,0.0265 h -0.58208 q -0.0265,0 -0.0265,-0.0265 z"
       class="gs_47"
       id="path300"
       style="display:block;fill:#efefef;stroke-width:0.264583" />
    <path
       fill-rule="evenodd"
       d="m 148.46186,258.75512 0.0529,-0.21167 0.23813,0.0529 0.0794,0.0265 0.0265,0.0265 v 0.0529 l -0.0265,0.0529 v 0.0265 h -0.18521 z"
       class="gv_47"
       id="path301"
       style="display:block;fill:#0b5394;stroke-width:0.264583" />
    <path
       fill-rule="evenodd"
       d="m 150.86956,258.75512 -0.0264,-0.21167 -0.26459,0.0529 -0.0529,0.0265 -0.0265,0.0265 -0.0265,0.0529 0.0265,0.0529 0.0265,0.0265 h 0.15875 z"
       class="gv_47"
       id="path302"
       style="display:block;fill:#0b5394;stroke-width:0.264583" />
    <path
       fill-rule="evenodd"
       d="m 148.83227,257.59095 h -0.0794 l -0.42334,0.39688 -0.0529,0.0794 0.0265,0.0794 0.13229,0.0794 0.15875,0.0794 0.26458,0.0529 0.26458,0.0265 0.29105,0.0529 0.29104,-0.0265 h 0.3175 l 0.29104,-0.0265 0.3175,-0.0529 0.23812,-0.0794 0.15875,-0.10583 0.0265,-0.10583 -0.0529,-0.0794 -0.39688,-0.34396 -0.0529,-0.0265 h -1.32291 z"
       class="gt_47"
       id="path303"
       style="display:block;fill:#9fc5e8;stroke-width:0.264583" />
    <path
       d="m 148.83227,257.59095 h -0.0794 l -0.42334,0.39688 -0.0529,0.0794 0.0265,0.0794 0.13229,0.0794 0.15875,0.0794 0.26458,0.0529 0.26458,0.0265 0.29105,0.0529 0.29104,-0.0265 h 0.3175 l 0.29104,-0.0265 0.3175,-0.0529 0.23812,-0.0794 0.15875,-0.10583 0.0265,-0.10583 -0.0529,-0.0794 -0.39688,-0.34396 -0.0529,-0.0265 h -1.32291 z"
       class="gu_47"
       id="path304"
       style="display:block;fill:none;stroke:#073763;stroke-width:0.302948;stroke-linejoin:round" />
    <path
       fill-rule="evenodd"
       d="m 148.85873,251.90241 c 0.0794,0 0.26458,-0.0265 0.42333,-0.0265 0.18521,0 0.42334,0 0.55563,0 0.15875,0 0.21167,0 0.3175,0 0.10583,0.0265 0.26458,0.0265 0.3175,0.0529 z"
       class="g1_47"
       id="path305"
       style="display:block;fill:#000000;fill-opacity:0;stroke-width:0.264583" />
    <path
       d="m 148.85873,251.90241 c 0.0794,0 0.26458,-0.0265 0.42333,-0.0265 0.18521,0 0.42334,0 0.55563,0 0.15875,0 0.21167,0 0.3175,0 0.10583,0.0265 0.26458,0.0265 0.3175,0.0529"
       class="gu_47"
       id="path306"
       style="display:block;fill:none;stroke:#073763;stroke-width:0.302948;stroke-linejoin:round" />
    <path
       fill-rule="evenodd"
       d="m 148.35602,252.08762 c 0,0.0265 -0.0265,0.0265 -0.0529,0.0794 -0.0265,0.0529 -0.0265,0.10583 -0.0265,0.21166 -0.0265,0.10584 -0.0529,0.29104 -0.0794,0.42334 0,0.10583 0,0.23812 0,0.34395 0,0.10584 0.0265,0.21167 0.0529,0.3175 0.0265,0.10584 0.0794,0.3175 0.10583,0.37042 z"
       class="g1_47"
       id="path307"
       style="display:block;fill:#000000;fill-opacity:0;stroke-width:0.264583" />
    <path
       d="m 148.35602,252.08762 c 0,0.0265 -0.0265,0.0265 -0.0529,0.0794 -0.0265,0.0529 -0.0265,0.10583 -0.0265,0.21166 -0.0265,0.10584 -0.0529,0.29104 -0.0794,0.42334 0,0.10583 0,0.23812 0,0.34395 0,0.10584 0.0265,0.21167 0.0529,0.3175 0.0265,0.10584 0.0794,0.3175 0.10583,0.37042"
       class="gu_47"
       id="path308"
       style="display:block;fill:none;stroke:#073763;stroke-width:0.302948;stroke-linejoin:round" />
    <path
       fill-rule="evenodd"
       d="m 150.9754,252.08762 c 0,0 0.0265,0.0529 0.0529,0.0794 0,0.0529 0,0.0794 0.0265,0.15875 0.0265,0.0794 0.0529,0.1852 0.0529,0.29104 0.0265,0.10583 0.0265,0.21166 0.0265,0.3175 0,0.10583 -0.0265,0.26458 -0.0265,0.34396 0,0.0794 0.0265,0.0529 0,0.13229 -0.0265,0.10583 -0.10583,0.34396 -0.13229,0.42333 z"
       class="g1_47"
       id="path309"
       style="display:block;fill:#000000;fill-opacity:0;stroke-width:0.264583" />
    <path
       d="m 150.9754,252.08762 c 0,0 0.0265,0.0529 0.0529,0.0794 0,0.0529 0,0.0794 0.0265,0.15875 0.0265,0.0794 0.0529,0.1852 0.0529,0.29104 0.0265,0.10583 0.0265,0.21166 0.0265,0.3175 0,0.10583 -0.0265,0.26458 -0.0265,0.34396 0,0.0794 0.0265,0.0529 0,0.13229 -0.0265,0.10583 -0.10583,0.34396 -0.13229,0.42333"
       class="gu_47"
       id="path310"
       style="display:block;fill:none;stroke:#073763;stroke-width:0.302948;stroke-linejoin:round" />
    <path
       fill-rule="evenodd"
       d="m 149.99644,253.78095 -1.00542,0.71438 h -0.23812 l -0.0529,-0.0529 -0.0529,-0.0529 -0.1852,-0.42334 0.0265,-0.0265 0.0265,-0.0265 0.26459,-0.0794 0.29104,-0.0529 0.29104,-0.0265 h 0.44979 z"
       class="gw_47"
       id="path311"
       style="display:block;fill:#cfe2f3;stroke-width:0.264583" />
  </g>
</svg>
