<?xml version="1.0" encoding="UTF-8" standalone="no"?>
<!-- Created with Inkscape (http://www.inkscape.org/) -->

<svg
   width="98.852997mm"
   height="73.635002mm"
   viewBox="0 0 98.852997 73.635003"
   version="1.1"
   id="svg1"
   inkscape:version="1.3.2 (1:1.3.2+202311252150+091e20ef0f)"
   sodipodi:docname="vm-03-03_2.svg"
   xmlns:inkscape="http://www.inkscape.org/namespaces/inkscape"
   xmlns:sodipodi="http://sodipodi.sourceforge.net/DTD/sodipodi-0.dtd"
   xmlns="http://www.w3.org/2000/svg"
   xmlns:svg="http://www.w3.org/2000/svg">
  <sodipodi:namedview
     id="namedview1"
     pagecolor="#ffffff"
     bordercolor="#000000"
     borderopacity="0.25"
     inkscape:showpageshadow="2"
     inkscape:pageopacity="0.0"
     inkscape:pagecheckerboard="0"
     inkscape:deskcolor="#d1d1d1"
     inkscape:document-units="mm"
     inkscape:zoom="1.7131103"
     inkscape:cx="452.6854"
     inkscape:cy="386.13977"
     inkscape:window-width="3840"
     inkscape:window-height="2123"
     inkscape:window-x="0"
     inkscape:window-y="0"
     inkscape:window-maximized="1"
     inkscape:current-layer="layer1" />
  <defs
     id="defs1">
    <clipPath
       id="c0_36">
      <path
         d="M 0,825 V 0 h 1100 v 825 z"
         id="path2" />
    </clipPath>
  </defs>
  <g
     inkscape:label="Layer 1"
     inkscape:groupmode="layer"
     id="layer1"
     transform="translate(14.816675,-46.302082)">
    <path
       fill-rule="evenodd"
       d="M 21.816881,72.007719 H 41.845839 V 49.359386 H 61.001672 V 72.007719 H 81.03063 V 91.137094 H 61.001672 V 113.78543 H 41.845839 V 91.137094 H 21.816881 Z"
       class="g3_36"
       id="path24"
       style="display:block;fill:#666666;stroke-width:0.264583" />
    <path
       d="M 21.816881,72.007719 H 41.845839 V 49.359386 H 61.001672 V 72.007719 H 81.03063 V 91.137094 H 61.001672 V 113.78543 H 41.845839 V 91.137094 H 21.816881 Z"
       class="g4_36"
       id="path25"
       style="display:block;fill:none;stroke:#666666;stroke-width:0.302948;stroke-linejoin:round" />
    <path
       fill-rule="evenodd"
       d="m 41.819381,49.359386 h 1.084791 v 21.775208 h -1.084791 z"
       class="g5_36"
       id="path26"
       style="display:block;fill:#999999;stroke-width:0.264583" />
    <path
       d="m 41.819381,49.359386 h 1.084791 v 21.775208 h -1.084791 z"
       class="g6_36"
       id="path27"
       style="display:block;fill:none;stroke:#999999;stroke-width:0.302948;stroke-linejoin:round" />
    <path
       fill-rule="evenodd"
       d="m 59.890422,49.359386 h 1.084792 v 21.775208 h -1.084792 z"
       class="g5_36"
       id="path28"
       style="display:block;fill:#999999;stroke-width:0.264583" />
    <path
       d="m 59.890422,49.359386 h 1.084792 v 21.775208 h -1.084792 z"
       class="g6_36"
       id="path29"
       style="display:block;fill:none;stroke:#999999;stroke-width:0.302948;stroke-linejoin:round" />
    <path
       fill-rule="evenodd"
       d="m 41.845839,92.089594 h 1.084792 V 113.8648 h -1.084792 z"
       class="g5_36"
       id="path30"
       style="display:block;fill:#999999;stroke-width:0.264583" />
    <path
       d="m 41.845839,92.089594 h 1.084792 V 113.8648 h -1.084792 z"
       class="g6_36"
       id="path31"
       style="display:block;fill:none;stroke:#999999;stroke-width:0.302948;stroke-linejoin:round" />
    <path
       fill-rule="evenodd"
       d="m 59.91688,92.089594 h 1.084792 V 113.8648 H 59.91688 Z"
       class="g5_36"
       id="path32"
       style="display:block;fill:#999999;stroke-width:0.264583" />
    <path
       d="m 59.91688,92.089594 h 1.084792 V 113.8648 H 59.91688 Z"
       class="g6_36"
       id="path33"
       style="display:block;fill:none;stroke:#999999;stroke-width:0.302948;stroke-linejoin:round" />
    <path
       fill-rule="evenodd"
       d="m 42.904172,71.161053 v 1.164166 H 21.843339 v -1.164166 z"
       class="g5_36"
       id="path34"
       style="display:block;fill:#999999;stroke-width:0.264583" />
    <path
       d="m 42.904172,71.161053 v 1.164166 H 21.843339 v -1.164166 z"
       class="g6_36"
       id="path35"
       style="display:block;fill:none;stroke:#999999;stroke-width:0.302948;stroke-linejoin:round" />
    <path
       fill-rule="evenodd"
       d="m 42.904172,90.819594 v 1.164167 H 21.843339 v -1.164167 z"
       class="g5_36"
       id="path36"
       style="display:block;fill:#999999;stroke-width:0.264583" />
    <path
       d="m 42.904172,90.819594 v 1.164167 H 21.843339 v -1.164167 z"
       class="g6_36"
       id="path37"
       style="display:block;fill:none;stroke:#999999;stroke-width:0.302948;stroke-linejoin:round" />
    <path
       fill-rule="evenodd"
       d="m 80.977714,71.187511 v 1.190625 H 59.91688 v -1.190625 z"
       class="g5_36"
       id="path38"
       style="display:block;fill:#999999;stroke-width:0.264583" />
    <path
       d="m 80.977714,71.187511 v 1.190625 H 59.91688 v -1.190625 z"
       class="g6_36"
       id="path39"
       style="display:block;fill:none;stroke:#999999;stroke-width:0.302948;stroke-linejoin:round" />
    <path
       fill-rule="evenodd"
       d="m 80.977714,90.846052 v 1.190625 H 59.91688 v -1.190625 z"
       class="g5_36"
       id="path40"
       style="display:block;fill:#999999;stroke-width:0.264583" />
    <path
       d="m 80.977714,90.846052 v 1.190625 H 59.91688 v -1.190625 z"
       class="g6_36"
       id="path41"
       style="display:block;fill:none;stroke:#999999;stroke-width:0.302948;stroke-linejoin:round" />
    <path
       fill-rule="evenodd"
       d="m 31.368339,81.638552 -9.525,-0.05292 z"
       class="g1_36"
       id="path42"
       style="display:block;fill:#000000;fill-opacity:0;stroke-width:0.264583" />
    <path
       d="m 31.368339,81.638552 -9.525,-0.05292"
       class="g7_36"
       id="path43"
       style="display:block;fill:none;stroke:#f3f3f3;stroke-width:0.60616;stroke-linejoin:round;stroke-dasharray:2.64583, 1.85208" />
    <path
       fill-rule="evenodd"
       d="m 80.977714,81.638552 -9.525,-0.05292 z"
       class="g1_36"
       id="path44"
       style="display:block;fill:#000000;fill-opacity:0;stroke-width:0.264583" />
    <path
       d="m 80.977714,81.638552 -9.525,-0.05292"
       class="g7_36"
       id="path45"
       style="display:block;fill:none;stroke:#f3f3f3;stroke-width:0.60616;stroke-linejoin:round;stroke-dasharray:2.64583, 1.85208" />
    <path
       fill-rule="evenodd"
       d="m 51.370839,59.731053 0.05292,-10.371667 z"
       class="g1_36"
       id="path46"
       style="display:block;fill:#000000;fill-opacity:0;stroke-width:0.264583" />
    <path
       d="m 51.370839,59.731053 0.05292,-10.371667"
       class="g7_36"
       id="path47"
       style="display:block;fill:none;stroke:#f3f3f3;stroke-width:0.60616;stroke-linejoin:round;stroke-dasharray:2.64583, 1.85208" />
    <path
       fill-rule="evenodd"
       d="m 51.397297,113.8648 0.05292,-10.37166 z"
       class="g1_36"
       id="path48"
       style="display:block;fill:#000000;fill-opacity:0;stroke-width:0.264583" />
    <path
       d="m 51.397297,113.8648 0.05292,-10.37166"
       class="g7_36"
       id="path49"
       style="display:block;fill:none;stroke:#f3f3f3;stroke-width:0.60616;stroke-linejoin:round;stroke-dasharray:2.64583, 1.85208" />
    <path
       fill-rule="evenodd"
       d="M 31.474173,81.744386 V 72.351678 Z"
       class="g1_36"
       id="path50"
       style="display:block;fill:#000000;fill-opacity:0;stroke-width:0.264583" />
    <path
       d="M 31.474173,81.744386 V 72.351678"
       class="g8_36"
       id="path51"
       style="display:block;fill:none;stroke:#f3f3f3;stroke-width:0.909373;stroke-linejoin:round" />
    <path
       fill-rule="evenodd"
       d="M 71.558547,90.978344 V 81.585636 Z"
       class="g1_36"
       id="path52"
       style="display:block;fill:#000000;fill-opacity:0;stroke-width:0.264583" />
    <path
       d="M 71.558547,90.978344 V 81.585636"
       class="g8_36"
       id="path53"
       style="display:block;fill:none;stroke:#f3f3f3;stroke-width:0.909373;stroke-linejoin:round" />
    <path
       fill-rule="evenodd"
       d="M 51.265006,59.916261 H 59.91688 Z"
       class="g1_36"
       id="path54"
       style="display:block;fill:#000000;fill-opacity:0;stroke-width:0.264583" />
    <path
       d="M 51.265006,59.916261 H 59.91688"
       class="g8_36"
       id="path55"
       style="display:block;fill:none;stroke:#f3f3f3;stroke-width:0.909373;stroke-linejoin:round" />
    <path
       fill-rule="evenodd"
       d="m 42.957089,103.49314 h 8.651875 z"
       class="g1_36"
       id="path56"
       style="display:block;fill:#000000;fill-opacity:0;stroke-width:0.264583" />
    <path
       d="m 42.957089,103.49314 h 8.651875"
       class="g8_36"
       id="path57"
       style="display:block;fill:none;stroke:#f3f3f3;stroke-width:0.909373;stroke-linejoin:round" />
    <path
       fill-rule="evenodd"
       d="m 43.406881,96.957927 h 0.926041 v 4.259793 h -0.926041 z"
       class="g9_36"
       id="path58"
       style="display:block;fill:#eeeeee;stroke-width:0.264583" />
    <path
       fill-rule="evenodd"
       d="m 45.338339,96.957927 h 0.926042 v 4.259793 h -0.926042 z"
       class="g9_36"
       id="path59"
       style="display:block;fill:#eeeeee;stroke-width:0.264583" />
    <path
       fill-rule="evenodd"
       d="m 47.296256,96.957927 h 0.899583 v 4.259793 h -0.899583 z"
       class="g9_36"
       id="path60"
       style="display:block;fill:#eeeeee;stroke-width:0.264583" />
    <path
       fill-rule="evenodd"
       d="m 49.227714,96.957927 h 0.899583 v 4.259793 h -0.899583 z"
       class="g9_36"
       id="path61"
       style="display:block;fill:#eeeeee;stroke-width:0.264583" />
    <path
       fill-rule="evenodd"
       d="m 51.159172,96.957927 h 0.926042 v 4.259793 h -0.926042 z"
       class="g9_36"
       id="path62"
       style="display:block;fill:#eeeeee;stroke-width:0.264583" />
    <path
       fill-rule="evenodd"
       d="m 53.090631,96.957927 h 0.926041 v 4.259793 h -0.926041 z"
       class="g9_36"
       id="path63"
       style="display:block;fill:#eeeeee;stroke-width:0.264583" />
    <path
       fill-rule="evenodd"
       d="m 55.022089,96.957927 h 0.926042 v 4.259793 h -0.926042 z"
       class="g9_36"
       id="path64"
       style="display:block;fill:#eeeeee;stroke-width:0.264583" />
    <path
       fill-rule="evenodd"
       d="m 56.980006,96.957927 h 0.899583 v 4.259793 h -0.899583 z"
       class="g9_36"
       id="path65"
       style="display:block;fill:#eeeeee;stroke-width:0.264583" />
    <path
       fill-rule="evenodd"
       d="m 58.911464,96.957927 h 0.926041 v 4.259793 h -0.926041 z"
       class="g9_36"
       id="path66"
       style="display:block;fill:#eeeeee;stroke-width:0.264583" />
    <path
       fill-rule="evenodd"
       d="m 43.195214,62.403344 h 0.899583 v 4.259792 h -0.899583 z"
       class="g9_36"
       id="path67"
       style="display:block;fill:#eeeeee;stroke-width:0.264583" />
    <path
       fill-rule="evenodd"
       d="m 45.126672,62.403344 h 0.899584 v 4.259792 h -0.899584 z"
       class="g9_36"
       id="path68"
       style="display:block;fill:#eeeeee;stroke-width:0.264583" />
    <path
       fill-rule="evenodd"
       d="m 47.058131,62.403344 h 0.926041 v 4.259792 h -0.926041 z"
       class="g9_36"
       id="path69"
       style="display:block;fill:#eeeeee;stroke-width:0.264583" />
    <path
       fill-rule="evenodd"
       d="m 48.989589,62.403344 h 0.926042 v 4.259792 h -0.926042 z"
       class="g9_36"
       id="path70"
       style="display:block;fill:#eeeeee;stroke-width:0.264583" />
    <path
       fill-rule="evenodd"
       d="m 50.947506,62.403344 h 0.899583 v 4.259792 h -0.899583 z"
       class="g9_36"
       id="path71"
       style="display:block;fill:#eeeeee;stroke-width:0.264583" />
    <path
       fill-rule="evenodd"
       d="m 52.878964,62.403344 h 0.899583 v 4.259792 h -0.899583 z"
       class="g9_36"
       id="path72"
       style="display:block;fill:#eeeeee;stroke-width:0.264583" />
    <path
       fill-rule="evenodd"
       d="m 54.810422,62.403344 h 0.926042 v 4.259792 h -0.926042 z"
       class="g9_36"
       id="path73"
       style="display:block;fill:#eeeeee;stroke-width:0.264583" />
    <path
       fill-rule="evenodd"
       d="m 56.741881,62.403344 h 0.926041 v 4.259792 h -0.926041 z"
       class="g9_36"
       id="path74"
       style="display:block;fill:#eeeeee;stroke-width:0.264583" />
    <path
       fill-rule="evenodd"
       d="m 58.699797,62.403344 h 0.899583 v 4.259792 h -0.899583 z"
       class="g9_36"
       id="path75"
       style="display:block;fill:#eeeeee;stroke-width:0.264583" />
    <path
       fill-rule="evenodd"
       d="m 37.797714,72.669178 v 1.005416 h -3.915833 v -1.005416 z"
       class="g9_36"
       id="path76"
       style="display:block;fill:#eeeeee;stroke-width:0.264583" />
    <path
       fill-rule="evenodd"
       d="m 37.797714,74.785844 v 0.978959 h -3.915833 v -0.978959 z"
       class="g9_36"
       id="path77"
       style="display:block;fill:#eeeeee;stroke-width:0.264583" />
    <path
       fill-rule="evenodd"
       d="m 37.797714,76.876053 v 1.005416 h -3.915833 v -1.005416 z"
       class="g9_36"
       id="path78"
       style="display:block;fill:#eeeeee;stroke-width:0.264583" />
    <path
       fill-rule="evenodd"
       d="m 37.797714,78.992719 v 1.005417 h -3.915833 v -1.005417 z"
       class="g9_36"
       id="path79"
       style="display:block;fill:#eeeeee;stroke-width:0.264583" />
    <path
       fill-rule="evenodd"
       d="m 37.797714,81.109386 v 1.005416 h -3.915833 v -1.005416 z"
       class="g9_36"
       id="path80"
       style="display:block;fill:#eeeeee;stroke-width:0.264583" />
    <path
       fill-rule="evenodd"
       d="m 37.797714,83.226052 v 0.978959 h -3.915833 v -0.978959 z"
       class="g9_36"
       id="path81"
       style="display:block;fill:#eeeeee;stroke-width:0.264583" />
    <path
       fill-rule="evenodd"
       d="m 37.797714,85.316261 v 1.005416 h -3.915833 v -1.005416 z"
       class="g9_36"
       id="path82"
       style="display:block;fill:#eeeeee;stroke-width:0.264583" />
    <path
       fill-rule="evenodd"
       d="m 37.797714,87.432927 v 1.005417 h -3.915833 v -1.005417 z"
       class="g9_36"
       id="path83"
       style="display:block;fill:#eeeeee;stroke-width:0.264583" />
    <path
       fill-rule="evenodd"
       d="m 37.797714,89.549594 v 0.978958 h -3.915833 v -0.978958 z"
       class="g9_36"
       id="path84"
       style="display:block;fill:#eeeeee;stroke-width:0.264583" />
    <path
       fill-rule="evenodd"
       d="m 69.045005,72.669178 v 1.005416 h -3.915833 v -1.005416 z"
       class="g9_36"
       id="path85"
       style="display:block;fill:#eeeeee;stroke-width:0.264583" />
    <path
       fill-rule="evenodd"
       d="m 69.045005,74.785844 v 0.978959 h -3.915833 v -0.978959 z"
       class="g9_36"
       id="path86"
       style="display:block;fill:#eeeeee;stroke-width:0.264583" />
    <path
       fill-rule="evenodd"
       d="m 69.045005,76.876053 v 1.005416 h -3.915833 v -1.005416 z"
       class="g9_36"
       id="path87"
       style="display:block;fill:#eeeeee;stroke-width:0.264583" />
    <path
       fill-rule="evenodd"
       d="m 69.045005,78.992719 v 1.005417 h -3.915833 v -1.005417 z"
       class="g9_36"
       id="path88"
       style="display:block;fill:#eeeeee;stroke-width:0.264583" />
    <path
       fill-rule="evenodd"
       d="m 69.045005,81.109386 v 1.005416 h -3.915833 v -1.005416 z"
       class="g9_36"
       id="path89"
       style="display:block;fill:#eeeeee;stroke-width:0.264583" />
    <path
       fill-rule="evenodd"
       d="m 69.045005,83.226052 v 0.978959 h -3.915833 v -0.978959 z"
       class="g9_36"
       id="path90"
       style="display:block;fill:#eeeeee;stroke-width:0.264583" />
    <path
       fill-rule="evenodd"
       d="m 69.045005,85.316261 v 1.005416 h -3.915833 v -1.005416 z"
       class="g9_36"
       id="path91"
       style="display:block;fill:#eeeeee;stroke-width:0.264583" />
    <path
       fill-rule="evenodd"
       d="m 69.045005,87.432927 v 1.005417 h -3.915833 v -1.005417 z"
       class="g9_36"
       id="path92"
       style="display:block;fill:#eeeeee;stroke-width:0.264583" />
    <path
       fill-rule="evenodd"
       d="m 69.045005,89.549594 v 0.978958 h -3.915833 v -0.978958 z"
       class="g9_36"
       id="path93"
       style="display:block;fill:#eeeeee;stroke-width:0.264583" />
    <path
       fill-rule="evenodd"
       d="m 50.550631,81.823761 0.926041,-1.005417 0.899584,1.005417 -0.899584,0.978958 z"
       class="g1_36"
       id="path94"
       style="display:block;fill:#000000;fill-opacity:0;stroke-width:0.264583" />
    <path
       d="m 50.550631,81.823761 0.926041,-1.005417 0.899584,1.005417 -0.899584,0.978958 z"
       class="ga_36"
       id="path95"
       style="display:block;fill:none;stroke:#f3f3f3;stroke-width:0.302948;stroke-linejoin:round" />
    <path
       fill-rule="evenodd"
       d="m 61.874797,84.760636 h -0.47625 v 10.371666 h 0.47625 z"
       class="g5_36"
       id="path96"
       style="display:block;fill:#999999;stroke-width:0.264583" />
    <path
       d="m 61.874797,84.760636 h -0.47625 v 10.371666 h 0.47625 z"
       class="g6_36"
       id="path97"
       style="display:block;fill:none;stroke:#999999;stroke-width:0.302948;stroke-linejoin:round" />
    <path
       fill-rule="evenodd"
       d="m 61.716047,85.183969 v 0 c 0,-0.238125 -0.211667,-0.423333 -0.449792,-0.423333 h -5.185833 c -0.132291,0 -0.238125,0.02646 -0.3175,0.105833 -0.07937,0.105833 -0.132291,0.211667 -0.132291,0.3175 v 1.719792 c 0,0.264583 0.211666,0.449791 0.449791,0.449791 h 5.185833 c 0.238125,0 0.449792,-0.185208 0.449792,-0.449791 z"
       class="g5_36"
       id="path98"
       style="display:block;fill:#999999;stroke-width:0.264583" />
    <path
       d="m 61.716047,85.183969 v 0 c 0,-0.238125 -0.211667,-0.423333 -0.449792,-0.423333 h -5.185833 c -0.132291,0 -0.238125,0.02646 -0.3175,0.105833 -0.07937,0.105833 -0.132291,0.211667 -0.132291,0.3175 v 1.719792 c 0,0.264583 0.211666,0.449791 0.449791,0.449791 h 5.185833 c 0.238125,0 0.449792,-0.185208 0.449792,-0.449791 z"
       class="g6_36"
       id="path99"
       style="display:block;fill:none;stroke:#999999;stroke-width:0.302948;stroke-linejoin:round" />
    <path
       fill-rule="evenodd"
       d="m 36.739381,93.518344 v -0.529167 h 4.471458 v 0.529167 z"
       class="g5_36"
       id="path100"
       style="display:block;fill:#999999;stroke-width:0.264583" />
    <path
       d="m 36.739381,93.518344 v -0.529167 h 4.471458 v 0.529167 z"
       class="g6_36"
       id="path101"
       style="display:block;fill:none;stroke:#999999;stroke-width:0.302948;stroke-linejoin:round" />
    <path
       fill-rule="evenodd"
       d="m 37.136256,93.465427 v 0 c -0.238125,0 -0.396875,-0.185208 -0.396875,-0.396875 v -5.820833 c 0,-0.105833 0.02646,-0.211667 0.105833,-0.291042 0.07937,-0.07937 0.185208,-0.105833 0.291042,-0.105833 h 1.5875 c 0.211666,0 0.396875,0.185208 0.396875,0.396875 v 5.820833 c 0,0.211667 -0.185209,0.396875 -0.396875,0.396875 z"
       class="g5_36"
       id="path102"
       style="display:block;fill:#999999;stroke-width:0.264583" />
    <path
       d="m 37.136256,93.465427 v 0 c -0.238125,0 -0.396875,-0.185208 -0.396875,-0.396875 v -5.820833 c 0,-0.105833 0.02646,-0.211667 0.105833,-0.291042 0.07937,-0.07937 0.185208,-0.105833 0.291042,-0.105833 h 1.5875 c 0.211666,0 0.396875,0.185208 0.396875,0.396875 v 5.820833 c 0,0.211667 -0.185209,0.396875 -0.396875,0.396875 z"
       class="g6_36"
       id="path103"
       style="display:block;fill:none;stroke:#999999;stroke-width:0.302948;stroke-linejoin:round" />
    <path
       fill-rule="evenodd"
       d="m 37.903547,88.941052 v 0 c -0.396875,0 -0.687916,-0.343958 -0.687916,-0.740833 0,-0.423333 0.291041,-0.767292 0.687916,-0.767292 0.370417,0 0.687917,0.343959 0.687917,0.767292 0,0.396875 -0.3175,0.740833 -0.687917,0.740833 z"
       class="gb_36"
       id="path104"
       style="display:block;fill:#ff0000;stroke-width:0.264583" />
    <path
       fill-rule="evenodd"
       d="m 37.903547,91.031261 v 0 c -0.396875,0 -0.687916,-0.3175 -0.687916,-0.740834 0,-0.423333 0.291041,-0.740833 0.687916,-0.740833 0.370417,0 0.687917,0.3175 0.687917,0.740833 0,0.423334 -0.3175,0.740834 -0.687917,0.740834 z"
       class="gc_36"
       id="path105"
       style="display:block;fill:#f1c232;stroke-width:0.264583" />
    <path
       fill-rule="evenodd"
       d="m 37.903547,93.147927 v 0 c -0.396875,0 -0.687916,-0.343958 -0.687916,-0.767291 0,-0.396875 0.291041,-0.740834 0.687916,-0.740834 0.370417,0 0.687917,0.343959 0.687917,0.740834 0,0.423333 -0.3175,0.767291 -0.687917,0.767291 z"
       class="gd_36"
       id="path106"
       style="display:block;fill:#38761d;stroke-width:0.264583" />
    <path
       fill-rule="evenodd"
       d="m 66.081672,70.261469 v -0.529166 h -4.497917 v 0.529166 z"
       class="g5_36"
       id="path107"
       style="display:block;fill:#999999;stroke-width:0.264583" />
    <path
       d="m 66.081672,70.261469 v -0.529166 h -4.497917 v 0.529166 z"
       class="g6_36"
       id="path108"
       style="display:block;fill:none;stroke:#999999;stroke-width:0.302948;stroke-linejoin:round" />
    <path
       fill-rule="evenodd"
       d="m 65.684797,70.182094 v 0 c 0.211667,0 0.396875,-0.185208 0.396875,-0.396875 v -5.820833 c 0,-0.105833 -0.05292,-0.185208 -0.132292,-0.264583 -0.05292,-0.07937 -0.15875,-0.132292 -0.264583,-0.132292 h -1.5875 c -0.238125,0 -0.396875,0.185208 -0.396875,0.396875 v 5.820833 c 0,0.211667 0.15875,0.396875 0.396875,0.396875 z"
       class="g5_36"
       id="path109"
       style="display:block;fill:#999999;stroke-width:0.264583" />
    <path
       d="m 65.684797,70.182094 v 0 c 0.211667,0 0.396875,-0.185208 0.396875,-0.396875 v -5.820833 c 0,-0.105833 -0.05292,-0.185208 -0.132292,-0.264583 -0.05292,-0.07937 -0.15875,-0.132292 -0.264583,-0.132292 h -1.5875 c -0.238125,0 -0.396875,0.185208 -0.396875,0.396875 v 5.820833 c 0,0.211667 0.15875,0.396875 0.396875,0.396875 z"
       class="g6_36"
       id="path110"
       style="display:block;fill:none;stroke:#999999;stroke-width:0.302948;stroke-linejoin:round" />
    <path
       fill-rule="evenodd"
       d="m 64.917505,65.657719 v 0 c 0.370417,0 0.687917,-0.3175 0.687917,-0.740833 0,-0.396875 -0.3175,-0.740833 -0.687917,-0.740833 -0.370416,0 -0.687916,0.343958 -0.687916,0.740833 0,0.423333 0.3175,0.740833 0.687916,0.740833 z"
       class="gb_36"
       id="path111"
       style="display:block;fill:#ff0000;stroke-width:0.264583" />
    <path
       fill-rule="evenodd"
       d="m 64.917505,67.774386 v 0 c 0.370417,0 0.687917,-0.343958 0.687917,-0.740833 0,-0.423334 -0.3175,-0.767292 -0.687917,-0.767292 -0.370416,0 -0.687916,0.343958 -0.687916,0.767292 0,0.396875 0.3175,0.740833 0.687916,0.740833 z"
       class="gc_36"
       id="path112"
       style="display:block;fill:#f1c232;stroke-width:0.264583" />
    <path
       fill-rule="evenodd"
       d="m 64.917505,69.864594 v 0 c 0.370417,0 0.687917,-0.343958 0.687917,-0.740833 0,-0.423333 -0.3175,-0.740833 -0.687917,-0.740833 -0.370416,0 -0.687916,0.3175 -0.687916,0.740833 0,0.396875 0.3175,0.740833 0.687916,0.740833 z"
       class="gd_36"
       id="path113"
       style="display:block;fill:#38761d;stroke-width:0.264583" />
    <path
       fill-rule="evenodd"
       d="m 40.972714,58.355219 h 0.502708 v 10.371667 h -0.502708 z"
       class="g5_36"
       id="path114"
       style="display:block;fill:#999999;stroke-width:0.264583" />
    <path
       d="m 40.972714,58.355219 h 0.502708 v 10.371667 h -0.502708 z"
       class="g6_36"
       id="path115"
       style="display:block;fill:none;stroke:#999999;stroke-width:0.302948;stroke-linejoin:round" />
    <path
       fill-rule="evenodd"
       d="m 41.157922,58.778553 v 0 c 0,-0.238125 0.185209,-0.423334 0.423334,-0.423334 h 5.212291 c 0.105834,0 0.211667,0.02646 0.291042,0.132292 0.105833,0.07937 0.132292,0.185208 0.132292,0.291042 v 1.74625 c 0,0.238125 -0.185209,0.423333 -0.423334,0.423333 h -5.212291 c -0.238125,0 -0.423334,-0.185208 -0.423334,-0.423333 z"
       class="g5_36"
       id="path116"
       style="display:block;fill:#999999;stroke-width:0.264583" />
    <path
       d="m 41.157922,58.778553 v 0 c 0,-0.238125 0.185209,-0.423334 0.423334,-0.423334 h 5.212291 c 0.105834,0 0.211667,0.02646 0.291042,0.132292 0.105833,0.07937 0.132292,0.185208 0.132292,0.291042 v 1.74625 c 0,0.238125 -0.185209,0.423333 -0.423334,0.423333 h -5.212291 c -0.238125,0 -0.423334,-0.185208 -0.423334,-0.423333 z"
       class="g6_36"
       id="path117"
       style="display:block;fill:none;stroke:#999999;stroke-width:0.302948;stroke-linejoin:round" />
    <path
       fill-rule="evenodd"
       d="m 45.311881,59.625219 v 0 c 0,-0.423333 0.291041,-0.767291 0.661458,-0.767291 0.185208,0 0.370417,0.07937 0.502708,0.238125 0.132292,0.132291 0.185209,0.3175 0.185209,0.529166 0,0.396875 -0.291042,0.740834 -0.687917,0.740834 -0.370417,0 -0.661458,-0.343959 -0.661458,-0.740834 z"
       class="gb_36"
       id="path118"
       style="display:block;fill:#ff0000;stroke-width:0.264583" />
    <path
       fill-rule="evenodd"
       d="m 43.380422,59.625219 v 0 c 0,-0.423333 0.291042,-0.767291 0.687917,-0.767291 0.15875,0 0.343958,0.07937 0.47625,0.238125 0.132292,0.132291 0.211667,0.3175 0.211667,0.529166 0,0.396875 -0.3175,0.740834 -0.687917,0.740834 -0.396875,0 -0.687917,-0.343959 -0.687917,-0.740834 z"
       class="gc_36"
       id="path119"
       style="display:block;fill:#f1c232;stroke-width:0.264583" />
    <path
       fill-rule="evenodd"
       d="m 41.448964,59.625219 v 0 c 0,-0.423333 0.291042,-0.767291 0.687917,-0.767291 0.185208,0 0.343958,0.07937 0.47625,0.238125 0.132291,0.132291 0.211666,0.3175 0.211666,0.529166 0,0.396875 -0.3175,0.740834 -0.687916,0.740834 -0.396875,0 -0.687917,-0.343959 -0.687917,-0.740834 z"
       class="gd_36"
       id="path120"
       style="display:block;fill:#38761d;stroke-width:0.264583" />
    <path
       fill-rule="evenodd"
       d="m 81.242297,72.563344 v 8.942917 H 69.071464 v -8.942917 z"
       class="ge_36"
       id="path121"
       style="display:block;fill:#a4c2f4;fill-opacity:0.36;stroke-width:0.264583" />
    <path
       fill-rule="evenodd"
       d="m 43.142297,101.21772 h 8.307917 v 12.67354 h -8.307917 z"
       class="ge_36"
       id="path122"
       style="display:block;fill:#a4c2f4;fill-opacity:0.36;stroke-width:0.264583" />
    <g
       clip-path="url(#c0_36)"
       id="g127"
       style="display:block"
       transform="matrix(0.26458333,0,0,0.26458333,-165.61395,-11.044988)">
      <text
         x="582.10071"
         y="448.78503"
         class="s5_36"
         id="text123"
         style="font-size:13.75px;font-family:MS-PGothic_bn;white-space:pre;fill:#000000"><tspan
           sodipodi:role="line"
           id="tspan368"
           x="582.10071"
           y="448.78503">The lanelet has a constant</tspan><tspan
           sodipodi:role="line"
           id="tspan369"
           x="582.10071"
           y="465.97253">width and the linestring </tspan><tspan
           sodipodi:role="line"
           x="582.10071"
           y="483.16003"
           id="tspan370">has a smooth curve</tspan></text>
      <text
         x="675.40002"
         y="445.89999"
         class="s6_36"
         id="text124"
         style="font-size:13.75px;font-family:ArialMT_bj;white-space:pre;fill:#000000" />
      <text
         x="720.5"
         y="445.89999"
         class="s5_36"
         id="text125"
         style="font-size:13.75px;font-family:MS-PGothic_bn;white-space:pre;fill:#000000"> </text>
      <text
         x="606.59998"
         y="462.39999"
         class="s5_36"
         id="text126"
         style="font-size:13.75px;font-family:MS-PGothic_bn;white-space:pre;fill:#000000"> </text>
      <text
         x="606.59998"
         y="478.89999"
         class="s5_36"
         id="text127"
         style="font-size:13.75px;font-family:MS-PGothic_bn;white-space:pre;fill:#000000"> </text>
    </g>
    <path
       fill-rule="evenodd"
       d="m 69.045005,72.483969 -6.985,-0.02646 -2.037291,0.105833 -2.143125,0.211667 -2.090208,0.714375 -2.06375,0.873125 -1.772709,1.058333 -1.878541,1.27 -1.084792,0.899584 -0.899583,0.846666 -1.217084,1.190625 -0.9525,1.42875 -1.005416,1.719792 -0.502709,1.481666 -0.502708,1.508125 -0.423333,2.143125 -0.211667,1.719792 -0.132292,1.613958 v 0.873125 l -0.02646,9.10167 h 8.334375 l -0.07937,-8.863545 0.02646,-1.375833 0.07937,-1.74625 0.185209,-1.164167 0.291041,-0.740833 0.555625,-1.031875 0.47625,-0.79375 0.926042,-0.978958 0.9525,-0.820209 0.608542,-0.396875 1.11125,-0.661458 1.190625,-0.502708 0.873125,-0.343959 1.217083,-0.238124 1.190625,-0.185209 1.164166,-0.02646 6.932084,0.05292 z"
       class="gf_36"
       id="path235"
       style="display:block;fill:#ea9999;fill-opacity:0.37;stroke-width:0.264583" />
    <path
       fill-rule="evenodd"
       d="M 18.985839,103.78418 47.216881,87.909177 Z"
       class="g1_36"
       id="path236"
       style="display:block;fill:#000000;fill-opacity:0;stroke-width:0.264583" />
    <path
       d="M 18.985839,103.78418 45.629381,88.808761"
       class="g2_36"
       id="path237"
       style="display:block;fill:none;stroke:#000000;stroke-width:0.302948;stroke-linejoin:round" />
    <path
       fill-rule="evenodd"
       d="m 45.867506,89.258552 0.9525,-1.11125 -1.42875,0.238125 z"
       class="gg_36"
       id="path238"
       style="display:block;fill:#000000;stroke:#000000;stroke-width:0.302948;stroke-miterlimit:10" />
  </g>
</svg>
