<?xml version="1.0" encoding="UTF-8" standalone="no"?>
<!-- Created with Inkscape (http://www.inkscape.org/) -->

<svg
   width="115.705mm"
   height="84.290001mm"
   viewBox="0 0 115.705 84.290001"
   version="1.1"
   id="svg1"
   inkscape:version="1.3.2 (1:1.3.2+202311252150+091e20ef0f)"
   sodipodi:docname="vm-01-19_1.svg"
   xmlns:inkscape="http://www.inkscape.org/namespaces/inkscape"
   xmlns:sodipodi="http://sodipodi.sourceforge.net/DTD/sodipodi-0.dtd"
   xmlns="http://www.w3.org/2000/svg"
   xmlns:svg="http://www.w3.org/2000/svg">
  <sodipodi:namedview
     id="namedview1"
     pagecolor="#ffffff"
     bordercolor="#000000"
     borderopacity="0.25"
     inkscape:showpageshadow="2"
     inkscape:pageopacity="0.0"
     inkscape:pagecheckerboard="0"
     inkscape:deskcolor="#d1d1d1"
     inkscape:document-units="mm"
     inkscape:zoom="1.7131103"
     inkscape:cx="142.43099"
     inkscape:cy="88.435637"
     inkscape:window-width="1920"
     inkscape:window-height="2123"
     inkscape:window-x="0"
     inkscape:window-y="0"
     inkscape:window-maximized="0"
     inkscape:current-layer="layer1" />
  <defs
     id="defs1">
    <clipPath
       id="c0_27">
      <path
         d="M 0,825 V 0 h 1100 v 825 z"
         id="path2" />
    </clipPath>
    <clipPath
       id="clipPath1">
      <path
         d="M 0,825 V 0 h 1100 v 825 z"
         id="path1" />
    </clipPath>
    <clipPath
       id="clipPath3">
      <path
         d="M 0,825 V 0 h 1100 v 825 z"
         id="path3" />
    </clipPath>
    <clipPath
       id="clipPath4">
      <path
         d="M 0,825 V 0 h 1100 v 825 z"
         id="path4" />
    </clipPath>
    <clipPath
       id="clipPath5">
      <path
         d="M 0,825 V 0 h 1100 v 825 z"
         id="path5" />
    </clipPath>
  </defs>
  <g
     inkscape:label="Layer 1"
     inkscape:groupmode="layer"
     id="layer1"
     transform="translate(-67.204166,-125.14792)">
    <path
       fill-rule="evenodd"
       d="m 96.402061,134.77744 18.891249,18.46791 -14.52562,15.71625 -2.27542,2.69875 -0.185209,2.72521 0.132292,31.69709 -27.516666,-0.0794 -0.105834,-36.03625 2.8575,-7.75229 2.619375,-7.48771 5.212292,-5.18583 z"
       class="g3_27"
       id="path52"
       style="display:block;fill:#38761d;stroke-width:0.264583" />
    <path
       fill-rule="evenodd"
       d="m 99.92102,137.9789 12.96459,12.83229 -14.790215,14.68437 -1.349375,1.42875 -1.084792,1.27 -0.582083,1.05834 -0.608542,1.40229 -0.343958,1.5875 -0.291042,1.66687 v 1.50813 l 0.02646,1.79916 -0.07937,28.8925 H 75.605812 v -30.48 l 0.07937,-2.61937 0.343958,-3.67771 0.661458,-2.91042 1.005417,-3.09562 1.42875,-2.75167 1.561042,-2.80458 1.852083,-2.19604 1.455208,-1.71979 1.322917,-1.37584 1.217083,-1.24354 z"
       class="g4_27"
       id="path53"
       style="display:block;fill:#666666;stroke-width:0.264583" />
    <path
       d="m 99.92102,137.9789 12.96459,12.83229 -14.790215,14.68437 -1.349375,1.42875 -1.084792,1.27 -0.582083,1.05834 -0.608542,1.40229 -0.343958,1.5875 -0.291042,1.66687 v 1.50813 l 0.02646,1.79916 -0.07937,28.8925 H 75.605812 v -30.48 l 0.07937,-2.61937 0.343958,-3.67771 0.661458,-2.91042 1.005417,-3.09562 1.42875,-2.75167 1.561042,-2.80458 1.852083,-2.19604 1.455208,-1.71979 1.322917,-1.37584 1.217083,-1.24354 z"
       class="g5_27"
       id="path54"
       style="display:block;fill:none;stroke:#666666;stroke-width:0.302948;stroke-linejoin:round" />
    <path
       fill-rule="evenodd"
       d="m 84.389978,174.41202 v 31.72354 z"
       class="g1_27"
       id="path55"
       style="display:block;fill:#000000;fill-opacity:0;stroke-width:0.264583" />
    <path
       d="m 84.389978,174.41202 v 31.72354"
       class="g6_27"
       id="path56"
       style="display:block;fill:none;stroke:#595959;stroke-width:0.302948;stroke-linejoin:round" />
    <path
       fill-rule="evenodd"
       d="m 112.85915,150.94348 1.19062,1.19062 -13.25563,13.25563 -1.269995,1.24354 -1.296459,1.24354 -0.608541,0.74084 -0.555625,0.92604 -0.661459,1.29646 -0.502708,1.42875 -0.264583,1.42875 -0.05292,1.21708 0.02646,1.42875 v 29.845 h -1.74625 v -28.23104 l 0.02646,-3.67771 0.291041,-2.48708 0.661459,-1.74625 0.396875,-0.84667 0.9525,-1.50813 1.11125,-1.19062 1.058333,-1.13771 1.375833,-1.29646 z"
       class="g7_27"
       id="path57"
       style="display:block;fill:#cdb164;stroke-width:0.264583" />
    <path
       fill-rule="evenodd"
       d="m 99.868103,138.00536 -1.375833,-1.34938 -12.408959,12.3825 -1.984375,2.11667 -1.217083,1.11125 -1.031875,0.97895 -1.058333,1.27 -0.899583,1.13771 -1.481667,2.01084 -0.714375,1.21708 -0.635,1.16417 -0.687917,1.61395 -0.687916,1.69334 -0.687917,1.98437 -0.555625,1.64042 -0.343958,2.09021 -0.291042,1.95791 -0.185208,1.98438 -0.07938,2.24896 v 31.00916 h 2.06375 v -26.77583 l 0.02646,-4.97417 0.07937,-2.69875 0.3175,-2.83104 0.608542,-2.48708 0.820208,-2.51354 1.534583,-3.30729 1.666875,-2.69875 1.534584,-2.0373 2.010833,-2.27541 1.666875,-1.79917 z"
       class="g7_27"
       id="path58"
       style="display:block;fill:#cdb164;stroke-width:0.264583" />
    <path
       fill-rule="evenodd"
       d="M 84.892686,154.46244 100.66185,138.69327 Z"
       class="g1_27"
       id="path59"
       style="display:block;fill:#000000;fill-opacity:0;stroke-width:0.264583" />
    <path
       d="M 84.892686,154.46244 100.66185,138.69327"
       class="g6_27"
       id="path60"
       style="display:block;fill:none;stroke:#595959;stroke-width:0.302948;stroke-linejoin:round" />
    <path
       fill-rule="evenodd"
       d="m 84.125395,174.38556 h 0.449791 v 31.82938 h -0.449791 z"
       class="g0_27"
       id="path61"
       style="display:block;fill:#ffffff;stroke-width:0.264583" />
    <path
       fill-rule="evenodd"
       d="m 105.97998,144.03785 0.34396,0.3175 -15.742712,15.74271 -0.3175,-0.34396 z"
       class="g0_27"
       id="path62"
       style="display:block;fill:#ffffff;stroke-width:0.264583" />
    <path
       fill-rule="evenodd"
       d="m 90.263728,159.72765 0.3175,0.3175 -0.687917,0.79375 -0.820208,0.9525 -0.740833,0.92604 -0.529167,0.79375 -0.529167,0.82021 -0.661458,1.21708 -0.582083,1.34937 -0.423334,1.19063 -0.291041,0.92604 -0.185209,0.82021 -0.264583,1.34937 -0.132292,0.74084 -0.05292,0.79375 -0.105834,1.03187 v 0.66146 h -0.449791 l 0.05292,-1.13771 0.105834,-1.29646 0.185208,-1.27 0.291042,-1.42875 0.449791,-1.37583 0.582084,-1.5875 0.47625,-1.03187 0.714375,-1.45521 0.740833,-1.11125 1.031875,-1.37584 0.740833,-0.89958 z"
       class="g0_27"
       id="path63"
       style="display:block;fill:#ffffff;stroke-width:0.264583" />
    <path
       fill-rule="evenodd"
       d="m 92.353936,174.41202 h 0.449792 v 31.80292 h -0.449792 z"
       class="g0_27"
       id="path64"
       style="display:block;fill:#ffffff;stroke-width:0.264583" />
    <path
       fill-rule="evenodd"
       d="m 76.399562,174.38556 h 0.47625 v 31.82938 h -0.47625 z"
       class="g0_27"
       id="path65"
       style="display:block;fill:#ffffff;stroke-width:0.264583" />
    <path
       fill-rule="evenodd"
       d="m 111.80081,149.77931 0.3175,0.3175 -15.716249,15.74271 -0.3175,-0.34396 z"
       class="g0_27"
       id="path66"
       style="display:block;fill:#ffffff;stroke-width:0.264583" />
    <path
       fill-rule="evenodd"
       d="m 100.47664,138.56098 0.3175,0.3175 -15.716245,15.74271 -0.343959,-0.34396 z"
       class="g0_27"
       id="path67"
       style="display:block;fill:#ffffff;stroke-width:0.264583" />
    <path
       fill-rule="evenodd"
       d="m 96.11102,165.49556 0.291041,0.29104 -0.396875,0.39688 -0.449791,0.50271 -0.396875,0.50271 -0.396875,0.60854 -0.449792,0.82021 -0.396875,0.76729 -0.264583,0.74083 -0.343959,0.92604 -0.15875,0.74084 -0.185208,0.76729 -0.105833,0.635 -0.02646,0.74083 -0.02646,0.47625 h -0.47625 l 0.02646,-1.05833 0.132292,-0.87313 0.185208,-0.87312 0.211667,-0.84667 0.343958,-1.00542 0.370417,-0.89958 0.582083,-1.05833 0.555625,-0.89959 0.635,-0.76729 z"
       class="g0_27"
       id="path68"
       style="display:block;fill:#ffffff;stroke-width:0.264583" />
    <path
       fill-rule="evenodd"
       d="m 84.813311,154.25077 0.3175,0.3175 -0.423333,0.42333 -0.79375,0.7673 -0.714375,0.84666 -0.899583,1.11125 -0.926042,1.32292 -0.79375,1.42875 -0.820208,1.56104 -0.740833,1.61396 -0.661459,1.87854 -0.47625,1.50813 -0.396875,1.4552 -0.396875,1.98438 -0.132291,1.56104 -0.07937,1.08479 -0.02646,0.9525 0.02646,0.635 h -0.502709 l 0.02646,-1.71979 0.15875,-1.85208 0.211666,-1.71979 0.529167,-2.3548 0.502708,-1.64041 0.635,-1.85209 0.79375,-1.79916 0.9525,-1.82563 0.978959,-1.56104 1.11125,-1.5875 0.952499,-1.03187 1.058334,-1.05834 z"
       class="g0_27"
       id="path69"
       style="display:block;fill:#ffffff;stroke-width:0.264583" />
    <path
       fill-rule="evenodd"
       d="m 119.31498,149.54119 h 29.15708 v 9.60437 h -29.15708 z"
       class="g1_27"
       id="path70"
       style="display:block;fill:#000000;fill-opacity:0;stroke-width:0.264583" />
    <text
       clip-path="url(#c0_27)"
       x="314.89999"
       y="561"
       class="s6_27"
       id="text70"
       style="font-size:18.33px;font-family:MS-PGothic_bp;white-space:pre;display:block;fill:#000000"
       transform="matrix(0.26458333,0,0,0.26458333,43.300187,7.6716052)">off road </text>
    <path
       fill-rule="evenodd"
       d="m 126.51165,142.4239 h 44.47646 v 9.57791 h -44.47646 z"
       class="g1_27"
       id="path71"
       style="display:block;fill:#000000;fill-opacity:0;stroke-width:0.264583" />
    <g
       clip-path="url(#c0_27)"
       id="g74"
       style="display:block"
       transform="matrix(0.26458333,0,0,0.26458333,43.300187,7.6716052)">
      <text
         x="324.79999"
         y="534"
         class="s7_27"
         id="text71"
         style="font-size:18.33px;font-family:MS-PGothic_bp;white-space:pre;fill:#000000;stroke:#000000;stroke-width:0.8"><tspan
           style="font-style:normal;font-variant:normal;font-weight:normal;font-stretch:normal;font-size:16px;font-family:Sans;-inkscape-font-specification:'Sans, ';font-variant-ligatures:normal;font-variant-caps:normal;font-variant-numeric:normal;font-variant-east-asian:normal"
           id="tspan1">intersecting walkway</tspan></text>
      <text
         x="361.39999"
         y="534"
         class="s8_27"
         id="text72"
         style="font-size:18.33px;font-family:Arial-BoldMT_bt;white-space:pre;fill:#000000" />
      <text
         x="367.60001"
         y="534"
         class="s7_27"
         id="text73"
         style="font-size:18.33px;font-family:MS-PGothic_bp;white-space:pre;fill:#000000;stroke:#000000;stroke-width:0.8" />
      <text
         x="437.70001"
         y="534"
         class="s8_27"
         id="text74"
         style="font-size:18.33px;font-family:Arial-BoldMT_bt;white-space:pre;fill:#000000" />
    </g>
    <path
       fill-rule="evenodd"
       d="m 119.31498,135.17431 h 29.15708 v 9.57792 h -29.15708 z"
       class="g1_27"
       id="path74"
       style="display:block;fill:#000000;fill-opacity:0;stroke-width:0.264583" />
    <text
       clip-path="url(#c0_27)"
       x="324"
       y="506.60001"
       class="s6_27"
       id="text75"
       style="font-size:18.33px;font-family:MS-PGothic_bp;white-space:pre;display:block;fill:#000000"
       transform="matrix(0.26458333,0,0,0.26458333,43.300187,7.6716052)">road shoulder </text>
    <path
       fill-rule="evenodd"
       d="m 119.31498,127.97765 h 29.15708 v 9.57791 h -29.15708 z"
       class="g1_27"
       id="path75"
       style="display:block;fill:#000000;fill-opacity:0;stroke-width:0.264583" />
    <text
       clip-path="url(#c0_27)"
       x="324"
       y="479.39999"
       class="s6_27"
       id="text76"
       style="font-size:18.33px;font-family:MS-PGothic_bp;white-space:pre;display:block;fill:#000000"
       transform="matrix(0.26458333,0,0,0.26458333,43.300187,7.6716052)">road </text>
    <path
       fill-rule="evenodd"
       d="m 128.46956,132.68723 -20.79625,13.97 z"
       class="g1_27"
       id="path76"
       style="display:block;fill:#000000;fill-opacity:0;stroke-width:0.264583" />
    <path
       d="m 128.46956,132.68723 -19.28812,12.93812"
       class="g2_27"
       id="path77"
       style="display:block;fill:none;stroke:#000000;stroke-width:0.302948;stroke-linejoin:round" />
    <path
       fill-rule="evenodd"
       d="m 108.91686,145.22848 -0.87313,1.16417 1.42875,-0.34396 z"
       class="g9_27"
       id="path78"
       style="display:block;fill:#000000;stroke:#000000;stroke-width:0.302948;stroke-miterlimit:10" />
    <path
       fill-rule="evenodd"
       d="m 128.60186,141.02161 -17.145,10.47749 z"
       class="g1_27"
       id="path79"
       style="display:block;fill:#000000;fill-opacity:0;stroke-width:0.264583" />
    <path
       d="M 128.60186,141.02161 113.0179,150.5466"
       class="g2_27"
       id="path80"
       style="display:block;fill:none;stroke:#000000;stroke-width:0.302948;stroke-linejoin:round" />
    <path
       fill-rule="evenodd"
       d="m 112.75331,150.12327 -0.89958,1.13771 1.42875,-0.29104 z"
       class="g9_27"
       id="path81"
       style="display:block;fill:#000000;stroke:#000000;stroke-width:0.302948;stroke-miterlimit:10" />
    <path
       fill-rule="evenodd"
       d="m 128.8929,147.66265 -18.65313,7.59354 z"
       class="g1_27"
       id="path82"
       style="display:block;fill:#000000;fill-opacity:0;stroke-width:0.264583" />
    <path
       d="m 128.8929,147.66265 -16.95979,6.90562"
       class="g2_27"
       id="path83"
       style="display:block;fill:none;stroke:#000000;stroke-width:0.302948;stroke-linejoin:round" />
    <path
       fill-rule="evenodd"
       d="m 111.7479,154.09202 -1.08479,0.97896 1.4552,-0.0529 z"
       class="g9_27"
       id="path84"
       style="display:block;fill:#000000;stroke:#000000;stroke-width:0.302948;stroke-miterlimit:10" />
    <path
       fill-rule="evenodd"
       d="m 126.0354,156.84369 -18.36209,3.09562 z"
       class="g1_27"
       id="path85"
       style="display:block;fill:#000000;fill-opacity:0;stroke-width:0.264583" />
    <path
       d="m 126.0354,156.84369 -16.56292,2.80458"
       class="g2_27"
       id="path86"
       style="display:block;fill:none;stroke:#000000;stroke-width:0.302948;stroke-linejoin:round" />
    <path
       fill-rule="evenodd"
       d="m 109.39311,159.14556 -1.27,0.71438 1.42875,0.26458 z"
       class="g9_27"
       id="path87"
       style="display:block;fill:#000000;stroke:#000000;stroke-width:0.302948;stroke-miterlimit:10" />
    <path
       fill-rule="evenodd"
       d="m 119.31498,176.23765 h 29.15708 v 9.57791 h -29.15708 z"
       class="g1_27"
       id="path88"
       style="display:block;fill:#000000;fill-opacity:0;stroke-width:0.264583" />
    <text
       clip-path="url(#c0_27)"
       x="314.89999"
       y="661.79999"
       class="s6_27"
       id="text88"
       style="font-size:18.33px;font-family:MS-PGothic_bp;white-space:pre;display:block;fill:#000000"
       transform="matrix(0.26458333,0,0,0.26458333,43.300187,7.6716052)">private area </text>
    <path
       fill-rule="evenodd"
       d="m 126.0354,183.54015 -18.36209,3.06916 z"
       class="g1_27"
       id="path89"
       style="display:block;fill:#000000;fill-opacity:0;stroke-width:0.264583" />
    <path
       d="m 126.0354,183.54015 -16.56292,2.77812"
       class="g2_27"
       id="path90"
       style="display:block;fill:none;stroke:#000000;stroke-width:0.302948;stroke-linejoin:round" />
    <path
       fill-rule="evenodd"
       d="m 109.39311,185.81556 -1.27,0.74084 1.42875,0.26458 z"
       class="g9_27"
       id="path91"
       style="display:block;fill:#000000;stroke:#000000;stroke-width:0.302948;stroke-miterlimit:10" />
    <path
       fill-rule="evenodd"
       d="m 95.687686,183.61952 h 19.790834 v 9.65729 H 95.687686 Z"
       class="g4_27"
       id="path92"
       style="display:block;fill:#666666;stroke-width:0.264583" />
    <path
       fill-rule="evenodd"
       d="m 80.738728,197.80119 c 0,-0.92604 -1.164166,-3.96875 0,-5.55625 1.137709,-1.5875 3.439583,-3.25438 6.932083,-3.96875 3.4925,-0.71438 11.694584,-0.23813 14.049379,-0.26459 z"
       class="g1_27"
       id="path93"
       style="display:block;fill:#000000;fill-opacity:0;stroke-width:0.264583" />
    <path
       d="m 80.738728,197.80119 c 0,-0.92604 -1.164166,-3.96875 0,-5.55625 1.137709,-1.5875 3.439583,-3.25438 6.932083,-3.96875 1.74625,-0.34396 4.683125,-0.42334 7.46125,-0.39688 1.375834,0.0265 2.751667,0.0529 3.889375,0.0794 0.291042,0 0.555625,0.0265 0.820209,0.0265 h 0.05292"
       class="ga_27"
       id="path94"
       style="display:block;fill:none;stroke:#ff9900;stroke-width:0.302948;stroke-linejoin:round" />
    <path
       fill-rule="evenodd"
       d="m 99.894561,188.48785 1.375829,-0.5027 -1.375829,-0.50271 z"
       class="gb_27"
       id="path95"
       style="display:block;fill:#ff9900;stroke:#ff9900;stroke-width:0.302948;stroke-miterlimit:10" />
    <path
       fill-rule="evenodd"
       d="m 78.198728,195.7639 v 0 c 0,-0.0529 0.02646,-0.0794 0.07937,-0.0794 h 0.264589 q 0.02646,0 0.05292,0.0265 c 0,0 0.02646,0.0265 0.02646,0.0529 v 1.08479 c 0,0.0529 -0.05292,0.0794 -0.07937,0.0794 h -0.264584 c -0.05292,0 -0.07937,-0.0265 -0.07937,-0.0794 z"
       class="gc_27"
       id="path96"
       style="display:block;fill:#000000;stroke-width:0.264583" />
    <path
       fill-rule="evenodd"
       d="m 81.849978,195.7639 v 0 c 0,-0.0529 0.02646,-0.0794 0.05292,-0.0794 h 0.291042 c 0,0 0.02646,0 0.05292,0.0265 0,0 0,0.0265 0,0.0529 v 1.08479 c 0,0.0529 -0.02646,0.0794 -0.05292,0.0794 h -0.291042 c -0.02646,0 -0.05292,-0.0265 -0.05292,-0.0794 z"
       class="gc_27"
       id="path97"
       style="display:block;fill:#000000;stroke-width:0.264583" />
    <path
       fill-rule="evenodd"
       d="m 78.198728,200.28827 v 0 c 0,-0.0265 0.02646,-0.0529 0.07937,-0.0529 h 0.264589 q 0.02646,0 0.05292,0.0265 c 0,0 0.02646,0.0265 0.02646,0.0265 v 1.11125 c 0,0.0529 -0.05292,0.0794 -0.07937,0.0794 h -0.264584 c -0.05292,0 -0.07937,-0.0265 -0.07937,-0.0794 z"
       class="gc_27"
       id="path98"
       style="display:block;fill:#000000;stroke-width:0.264583" />
    <path
       fill-rule="evenodd"
       d="m 81.849978,200.28827 v 0 c 0,-0.0265 0.02646,-0.0529 0.05292,-0.0529 h 0.291042 c 0,0 0.02646,0 0.05292,0.0265 0,0 0,0.0265 0,0.0265 v 1.11125 c 0,0.0529 -0.02646,0.0794 -0.05292,0.0794 h -0.291042 c -0.02646,0 -0.05292,-0.0265 -0.05292,-0.0794 z"
       class="gc_27"
       id="path99"
       style="display:block;fill:#000000;stroke-width:0.264583" />
    <path
       fill-rule="evenodd"
       d="m 78.33102,195.60515 v 0 c 0,-0.58209 0.47625,-1.05834 1.058333,-1.05834 h 1.719792 c 0.291042,0 0.555625,0.10584 0.740833,0.29104 0.211667,0.21167 0.3175,0.47625 0.3175,0.7673 v 5.92666 c 0,0.58209 -0.47625,1.05834 -1.058333,1.05834 h -1.719792 c -0.582083,0 -1.058333,-0.47625 -1.058333,-1.05834 z"
       class="gd_27"
       id="path100"
       style="display:block;fill:#3d85c6;stroke-width:0.264583" />
    <path
       fill-rule="evenodd"
       d="m 79.892062,194.4939 v 0 q 0,-0.0265 0.02646,-0.0265 h 0.687915 v 0.13233 c 0,0.0265 -0.02646,0.0265 -0.02646,0.0265 h -0.661458 q -0.02646,0 -0.02646,-0.0265 z"
       class="ge_27"
       id="path101"
       style="display:block;fill:#efefef;stroke-width:0.264583" />
    <path
       fill-rule="evenodd"
       d="m 78.886645,194.86431 0.05292,0.23813 0.264583,-0.0794 0.07937,-0.0265 0.02646,-0.0264 0.02646,-0.0529 -0.02646,-0.0529 -0.02646,-0.0265 -0.07937,-0.0264 -0.105833,0.0264 z"
       class="g0_27"
       id="path102"
       style="display:block;fill:#ffffff;stroke-width:0.264583" />
    <path
       fill-rule="evenodd"
       d="m 81.585395,194.86431 -0.02646,0.23813 -0.291042,-0.0794 -0.07937,-0.0265 -0.02646,-0.0264 v -0.10584 l 0.02646,-0.0265 0.07937,-0.0264 0.132292,0.0264 z"
       class="g0_27"
       id="path103"
       style="display:block;fill:#ffffff;stroke-width:0.264583" />
    <path
       fill-rule="evenodd"
       d="m 78.780812,197.08681 0.264583,0.79375 0.02646,0.0529 0.07937,0.0529 h 2.116667 l 0.07937,-0.0265 0.07937,-0.0529 0.238125,-0.71437 v -0.0794 l -0.05292,-0.0794 -0.291041,-0.10584 -0.423334,-0.0794 -0.343958,-0.0529 h -0.423317 l -0.238125,0.0265 h -0.185209 l -0.264583,0.0529 -0.211667,0.0529 -0.185208,0.0529 -0.15875,0.0529 z"
       class="gf_27"
       id="path104"
       style="display:block;fill:#9fc5e8;stroke-width:0.264583" />
    <path
       d="m 78.780812,197.08681 0.264583,0.79375 0.02646,0.0529 0.07937,0.0529 h 2.116667 l 0.07937,-0.0265 0.07937,-0.0529 0.238125,-0.71437 v -0.0794 l -0.05292,-0.0794 -0.291041,-0.10584 -0.423334,-0.0794 -0.343958,-0.0529 h -0.423317 l -0.238125,0.0265 h -0.185209 l -0.264583,0.0529 -0.211667,0.0529 -0.185208,0.0529 -0.15875,0.0529 z"
       class="gg_27"
       id="path105"
       style="display:block;fill:none;stroke:#073763;stroke-width:0.302948;stroke-linejoin:round" />
    <path
       fill-rule="evenodd"
       d="m 78.569145,197.37785 v 3.99521 l 0.02646,0.0794 0.07937,0.0265 0.291042,-0.26459 0.07937,-0.15875 0.05292,-0.15875 -0.05292,-2.32833 -0.02646,-0.18521 -0.105834,-0.29104 -0.132291,-0.3175 z"
       class="gf_27"
       id="path106"
       style="display:block;fill:#9fc5e8;stroke-width:0.264583" />
    <path
       d="m 78.569145,197.37785 v 3.99521 l 0.02646,0.0794 0.07937,0.0265 0.291042,-0.26459 0.07937,-0.15875 0.05292,-0.15875 -0.05292,-2.32833 -0.02646,-0.18521 -0.105834,-0.29104 -0.132291,-0.3175 z"
       class="gg_27"
       id="path107"
       style="display:block;fill:none;stroke:#073763;stroke-width:0.302948;stroke-linejoin:round" />
    <path
       fill-rule="evenodd"
       d="m 81.955812,197.40431 v 4.02167 l -0.02646,0.0529 -0.05292,0.0529 -0.3175,-0.29104 -0.07938,-0.15875 -0.05292,-0.13229 0.05292,-2.35479 0.02646,-0.15875 0.105833,-0.3175 0.132292,-0.29104 z"
       class="gf_27"
       id="path108"
       style="display:block;fill:#9fc5e8;stroke-width:0.264583" />
    <path
       d="m 81.955812,197.40431 v 4.02167 l -0.02646,0.0529 -0.05292,0.0529 -0.3175,-0.29104 -0.07938,-0.15875 -0.05292,-0.13229 0.05292,-2.35479 0.02646,-0.15875 0.105833,-0.3175 0.132292,-0.29104 z"
       class="gg_27"
       id="path109"
       style="display:block;fill:none;stroke:#073763;stroke-width:0.302948;stroke-linejoin:round" />
    <path
       fill-rule="evenodd"
       d="m 78.569145,197.32494 -0.07937,-0.0265 h -0.105838 l -0.07937,0.0265 -0.105834,0.0529 -0.07937,0.0529 -0.02646,0.0529 v 0.0529 l 0.05292,0.0529 0.105833,0.0529 0.132292,0.0265 h 0.105833 l 0.07937,-0.0529 0.05292,-0.0794 0.02646,-0.0529 v -0.0529 l -0.02646,-0.0529 z"
       class="gh_27"
       id="path110"
       style="display:block;fill:#0b5394;stroke-width:0.264583" />
    <path
       fill-rule="evenodd"
       d="m 81.929353,197.32494 0.07937,-0.0265 h 0.105834 l 0.07937,0.0265 0.105833,0.0529 0.07937,0.0529 0.02646,0.0529 -0.02646,0.0529 -0.05292,0.0529 -0.07938,0.0529 -0.132291,0.0265 h -0.105834 l -0.07937,-0.0529 -0.05292,-0.0794 -0.02646,-0.0529 v -0.0529 l 0.02646,-0.0529 z"
       class="gh_27"
       id="path111"
       style="display:block;fill:#0b5394;stroke-width:0.264583" />
    <path
       fill-rule="evenodd"
       d="m 79.892062,202.51077 v 0 c 0,-0.0265 0,-0.0529 0.02646,-0.0529 h 0.661458 c 0,0 0,0.0265 0.02646,0.0265 v 0.13229 c 0,0.0265 -0.02646,0.0265 -0.02646,0.0265 h -0.661458 q -0.02646,0 -0.02646,-0.0265 z"
       class="ge_27"
       id="path112"
       style="display:block;fill:#efefef;stroke-width:0.264583" />
    <path
       fill-rule="evenodd"
       d="m 78.886645,202.64306 0.05292,-0.23812 0.264583,0.0529 0.07937,0.0265 0.02646,0.0529 0.02646,0.0265 -0.02646,0.0529 -0.02646,0.0529 H 79.09831 Z"
       class="gh_27"
       id="path113"
       style="display:block;fill:#0b5394;stroke-width:0.264583" />
    <path
       fill-rule="evenodd"
       d="m 81.585395,202.64306 -0.02646,-0.23812 -0.291042,0.0529 -0.07937,0.0265 -0.02646,0.0529 v 0.0794 l 0.02646,0.0529 h 0.211664 z"
       class="gh_27"
       id="path114"
       style="display:block;fill:#0b5394;stroke-width:0.264583" />
    <path
       fill-rule="evenodd"
       d="m 79.28352,201.32015 h -0.07937 l -0.502708,0.42333 -0.02646,0.10583 v 0.0794 l 0.15875,0.10583 0.211667,0.0794 0.291042,0.0794 0.291041,0.0265 0.3175,0.0529 h 0.343959 l 0.343958,-0.0265 0.343958,-0.0265 0.370417,-0.0794 0.238125,-0.0794 0.185208,-0.13229 0.05292,-0.0794 -0.07937,-0.10583 -0.449792,-0.37042 -0.05292,-0.0529 -0.502709,-0.0265 h -0.608549 l -0.396875,0.0265 z"
       class="gf_27"
       id="path115"
       style="display:block;fill:#9fc5e8;stroke-width:0.264583" />
    <path
       d="m 79.28352,201.32015 h -0.07937 l -0.502708,0.42333 -0.02646,0.10583 v 0.0794 l 0.15875,0.10583 0.211667,0.0794 0.291042,0.0794 0.291041,0.0265 0.3175,0.0529 h 0.343959 l 0.343958,-0.0265 0.343958,-0.0265 0.370417,-0.0794 0.238125,-0.0794 0.185208,-0.13229 0.05292,-0.0794 -0.07937,-0.10583 -0.449792,-0.37042 -0.05292,-0.0529 -0.502709,-0.0265 h -0.608549 l -0.396875,0.0265 z"
       class="gg_27"
       id="path116"
       style="display:block;fill:none;stroke:#073763;stroke-width:0.302948;stroke-linejoin:round" />
    <path
       fill-rule="evenodd"
       d="m 79.309978,194.89077 c 0.07937,0 0.3175,-0.0265 0.502709,-0.0529 0.185208,0 0.449791,0 0.608541,0 0.185209,0 0.264584,0.0265 0.370417,0.0265 0.132292,0 0.291042,0.0265 0.343958,0.0265 z"
       class="g1_27"
       id="path117"
       style="display:block;fill:#000000;fill-opacity:0;stroke-width:0.264583" />
    <path
       d="m 79.309978,194.89077 c 0.07937,0 0.3175,-0.0265 0.502709,-0.0529 0.185208,0 0.449791,0 0.608541,0 0.185209,0 0.264584,0.0265 0.370417,0.0265 0.132292,0 0.291042,0.0265 0.343958,0.0265"
       class="gg_27"
       id="path118"
       style="display:block;fill:none;stroke:#073763;stroke-width:0.302948;stroke-linejoin:round" />
    <path
       fill-rule="evenodd"
       d="m 78.754353,195.10244 c 0,0.0265 -0.05292,0.0265 -0.05292,0.0794 -0.02646,0.0529 -0.02646,0.13229 -0.05292,0.23813 -0.02646,0.13229 -0.05292,0.3175 -0.07937,0.47625 0,0.13229 0,0.26458 0,0.39687 0,0.13229 0.02646,0.21167 0.05292,0.34396 0.02646,0.13229 0.105833,0.37042 0.132291,0.44979 z"
       class="g1_27"
       id="path119"
       style="display:block;fill:#000000;fill-opacity:0;stroke-width:0.264583" />
    <path
       d="m 78.754353,195.10244 c 0,0.0265 -0.05292,0.0265 -0.05292,0.0794 -0.02646,0.0529 -0.02646,0.13229 -0.05292,0.23813 -0.02646,0.13229 -0.05292,0.3175 -0.07937,0.47625 0,0.13229 0,0.26458 0,0.39687 0,0.13229 0.02646,0.21167 0.05292,0.34396 0.02646,0.13229 0.105833,0.37042 0.132291,0.44979"
       class="gg_27"
       id="path120"
       style="display:block;fill:none;stroke:#073763;stroke-width:0.302948;stroke-linejoin:round" />
    <path
       fill-rule="evenodd"
       d="m 81.717687,195.07598 c 0,0.0265 0.02646,0.0529 0.05292,0.10583 0,0.0529 0.02646,0.10584 0.02646,0.18521 0.02646,0.0794 0.05292,0.21167 0.07937,0.3175 0,0.10583 0.02646,0.23813 0.02646,0.37042 0,0.10583 -0.02646,0.29104 -0.02646,0.37041 0,0.10584 0.02646,0.0794 0,0.18521 -0.02646,0.10584 -0.132292,0.37042 -0.15875,0.44979 z"
       class="g1_27"
       id="path121"
       style="display:block;fill:#000000;fill-opacity:0;stroke-width:0.264583" />
    <path
       d="m 81.717687,195.07598 c 0,0.0265 0.02646,0.0529 0.05292,0.10583 0,0.0529 0.02646,0.10584 0.02646,0.18521 0.02646,0.0794 0.05292,0.21167 0.07937,0.3175 0,0.10583 0.02646,0.23813 0.02646,0.37042 0,0.10583 -0.02646,0.29104 -0.02646,0.37041 0,0.10584 0.02646,0.0794 0,0.18521 -0.02646,0.10584 -0.132292,0.37042 -0.15875,0.44979"
       class="gg_27"
       id="path122"
       style="display:block;fill:none;stroke:#073763;stroke-width:0.302948;stroke-linejoin:round" />
    <path
       fill-rule="evenodd"
       d="m 80.606437,197.00744 -1.137709,0.82021 h -0.15875 l -0.105833,-0.0265 -0.07937,-0.0265 -0.05292,-0.0529 -0.185208,-0.47625 0.02646,-0.0529 0.02646,-0.0529 0.291041,-0.0794 0.3175,-0.0264 0.343959,-0.0529 h 0.529166 z"
       class="gi_27"
       id="path123"
       style="display:block;fill:#cfe2f3;stroke-width:0.264583" />
  </g>
</svg>
