<?xml version="1.0" encoding="UTF-8" standalone="no"?>
<!-- Created with Inkscape (http://www.inkscape.org/) -->

<svg
   width="106.651mm"
   height="67.307999mm"
   viewBox="0 0 106.651 67.307998"
   version="1.1"
   id="svg1"
   inkscape:version="1.3.2 (1:1.3.2+202311252150+091e20ef0f)"
   sodipodi:docname="vm-01-18_2.svg"
   xmlns:inkscape="http://www.inkscape.org/namespaces/inkscape"
   xmlns:sodipodi="http://sodipodi.sourceforge.net/DTD/sodipodi-0.dtd"
   xmlns="http://www.w3.org/2000/svg"
   xmlns:svg="http://www.w3.org/2000/svg">
  <sodipodi:namedview
     id="namedview1"
     pagecolor="#ffffff"
     bordercolor="#000000"
     borderopacity="0.25"
     inkscape:showpageshadow="2"
     inkscape:pageopacity="0.0"
     inkscape:pagecheckerboard="0"
     inkscape:deskcolor="#d1d1d1"
     inkscape:document-units="mm"
     inkscape:zoom="1.7131103"
     inkscape:cx="193.50768"
     inkscape:cy="119.37352"
     inkscape:window-width="3840"
     inkscape:window-height="2123"
     inkscape:window-x="0"
     inkscape:window-y="0"
     inkscape:window-maximized="1"
     inkscape:current-layer="layer1" />
  <defs
     id="defs1">
    <clipPath
       id="c0_26">
      <path
         d="M 0,825 V 0 h 1100 v 825 z"
         id="path2" />
    </clipPath>
    <clipPath
       id="clipPath1">
      <path
         d="M 0,825 V 0 h 1100 v 825 z"
         id="path1" />
    </clipPath>
  </defs>
  <g
     inkscape:label="Layer 1"
     inkscape:groupmode="layer"
     id="layer1"
     transform="translate(-53.710419,-116.94583)">
    <path
       fill-rule="evenodd"
       d="m 75.865645,125.7886 14.869583,14.55208 -11.43,12.35605 -1.799166,2.14312 -0.15875,2.11667 0.105833,24.95021 -21.669375,-0.0529 -0.07937,-28.36333 2.248959,-6.08542 2.06375,-5.92667 4.101041,-4.07458 z"
       class="g1_26"
       id="path5"
       style="display:block;fill:#38761d;stroke-width:0.264583" />
    <path
       fill-rule="evenodd"
       d="m 78.617312,128.30214 10.212916,10.10709 -11.641666,11.56229 -1.058334,1.11125 -0.846666,1.00541 -0.47625,0.82021 -0.47625,1.13771 -0.264584,1.24354 -0.238125,1.29646 v 1.19063 l 0.02646,1.40229 -0.05292,22.75416 H 59.487937 v -23.9977 l 0.05292,-2.06375 0.264583,-2.88396 0.529167,-2.30188 0.79375,-2.43416 1.11125,-2.16959 1.243541,-2.19604 1.455209,-1.71979 1.137708,-1.34938 1.058333,-1.08479 0.9525,-0.97896 z"
       class="g2_26"
       id="path6"
       style="display:block;fill:#666666;stroke-width:0.264583" />
    <path
       d="m 78.617312,128.30214 10.212916,10.10709 -11.641666,11.56229 -1.058334,1.11125 -0.846666,1.00541 -0.47625,0.82021 -0.47625,1.13771 -0.264584,1.24354 -0.238125,1.29646 v 1.19063 l 0.02646,1.40229 -0.05292,22.75416 H 59.487937 v -23.9977 l 0.05292,-2.06375 0.264583,-2.88396 0.529167,-2.30188 0.79375,-2.43416 1.11125,-2.16959 1.243541,-2.19604 1.455209,-1.71979 1.137708,-1.34938 1.058333,-1.08479 0.9525,-0.97896 z"
       class="g3_26"
       id="path7"
       style="display:block;fill:none;stroke:#666666;stroke-width:0.302948;stroke-linejoin:round" />
    <path
       fill-rule="evenodd"
       d="m 66.393562,156.98298 v 24.97666 z"
       class="g4_26"
       id="path8"
       style="display:block;fill:#000000;fill-opacity:0;stroke-width:0.264583" />
    <path
       d="m 66.393562,156.98298 v 24.97666"
       class="g5_26"
       id="path9"
       style="display:block;fill:none;stroke:#595959;stroke-width:0.302948;stroke-linejoin:round" />
    <path
       fill-rule="evenodd"
       d="m 88.80377,138.51506 0.9525,0.92604 -10.451042,10.45104 -1.005416,0.9525 -1.005417,0.97896 -0.47625,0.60854 -0.449792,0.71438 -0.529166,1.00541 -0.396875,1.13771 -0.211667,1.13771 -0.02646,0.9525 0.02646,1.11125 v 23.495 h -1.375833 v -22.19854 l 0.02646,-2.91042 0.211667,-1.95791 0.529166,-1.37584 0.291042,-0.66146 0.767292,-1.19062 0.873125,-0.9525 0.846666,-0.87313 1.058334,-1.03187 z"
       class="g1_26"
       id="path10"
       style="display:block;fill:#38761d;stroke-width:0.264583" />
    <path
       fill-rule="evenodd"
       d="m 78.564395,128.3286 -1.058333,-1.05833 -9.763125,9.73666 -1.5875,1.66688 -0.9525,0.87312 -0.820208,0.79375 -0.820209,0.97896 -0.687916,0.89959 -1.190625,1.5875 -0.555625,0.9525 -0.502709,0.89958 -0.555625,1.29646 -0.529166,1.32291 -0.529167,1.56105 -0.449792,1.29645 -0.264583,1.64042 -0.238125,1.56104 -0.132292,1.56104 -0.07937,1.74625 v 24.42105 h 1.640417 v -21.0873 l 0.02646,-3.91583 0.05292,-2.11667 0.238125,-2.2225 0.47625,-1.95791 0.661458,-1.98438 1.190625,-2.59291 1.322917,-2.14313 1.217083,-1.5875 1.5875,-1.79917 1.322917,-1.40229 z"
       class="g1_26"
       id="path11"
       style="display:block;fill:#38761d;stroke-width:0.264583" />
    <path
       fill-rule="evenodd"
       d="M 66.790437,141.29318 79.199395,128.88423 Z"
       class="g4_26"
       id="path12"
       style="display:block;fill:#000000;fill-opacity:0;stroke-width:0.264583" />
    <path
       d="M 66.790437,141.29318 79.199395,128.88423"
       class="g5_26"
       id="path13"
       style="display:block;fill:none;stroke:#595959;stroke-width:0.302948;stroke-linejoin:round" />
    <path
       fill-rule="evenodd"
       d="m 66.181895,156.98298 h 0.370417 v 25.02958 h -0.370417 z"
       class="g0_26"
       id="path14"
       style="display:block;fill:#ffffff;stroke-width:0.264583" />
    <path
       fill-rule="evenodd"
       d="m 83.40627,133.06464 0.238125,0.26459 -12.356041,12.3825 -0.264584,-0.26459 z"
       class="g0_26"
       id="path15"
       style="display:block;fill:#ffffff;stroke-width:0.264583" />
    <path
       fill-rule="evenodd"
       d="m 71.02377,145.42068 0.238125,0.26459 -0.555625,0.60854 -0.635,0.74083 -0.582083,0.74084 -0.423333,0.635 -0.396875,0.635 -0.502709,0.97895 -0.47625,1.05834 -0.343958,0.92604 -0.211667,0.74083 -0.15875,0.635 -0.211666,1.05834 -0.105834,0.58208 -0.02646,0.635 -0.07937,0.79375 v 0.52917 h -0.343958 l 0.02646,-0.87313 0.07937,-1.03187 0.15875,-1.00542 0.211667,-1.13771 0.343958,-1.08479 0.47625,-1.24354 0.370417,-0.82021 0.582083,-1.11125 0.555625,-0.87313 0.820208,-1.11125 0.582084,-0.68791 z"
       class="g0_26"
       id="path16"
       style="display:block;fill:#ffffff;stroke-width:0.264583" />
    <path
       fill-rule="evenodd"
       d="m 72.664187,156.98298 h 0.370416 v 25.02958 h -0.370416 z"
       class="g0_26"
       id="path17"
       style="display:block;fill:#ffffff;stroke-width:0.264583" />
    <path
       fill-rule="evenodd"
       d="m 60.096479,156.98298 h 0.370416 v 25.02958 h -0.370416 z"
       class="g0_26"
       id="path18"
       style="display:block;fill:#ffffff;stroke-width:0.264583" />
    <path
       fill-rule="evenodd"
       d="m 87.957103,137.58902 0.264584,0.26458 -12.3825,12.3825 -0.238125,-0.26458 z"
       class="g0_26"
       id="path19"
       style="display:block;fill:#ffffff;stroke-width:0.264583" />
    <path
       fill-rule="evenodd"
       d="m 79.040645,128.75193 0.264583,0.26459 -12.356041,12.3825 -0.264583,-0.26459 z"
       class="g0_26"
       id="path20"
       style="display:block;fill:#ffffff;stroke-width:0.264583" />
    <path
       fill-rule="evenodd"
       d="m 75.601062,149.94506 0.238125,0.23812 -0.291042,0.34396 -0.370417,0.37042 -0.3175,0.39687 -0.3175,0.47625 -0.343958,0.635 -0.291042,0.635 -0.238125,0.55563 -0.238125,0.74083 -0.15875,0.58209 -0.132291,0.60854 -0.07937,0.50271 -0.02646,0.58208 v 0.37042 h -0.37042 v -0.84667 l 0.105833,-0.68792 0.132292,-0.68791 0.185208,-0.635 0.264583,-0.79375 0.291042,-0.71438 0.449792,-0.84667 0.449791,-0.68791 0.502709,-0.635 z"
       class="g0_26"
       id="path21"
       style="display:block;fill:#ffffff;stroke-width:0.264583" />
    <path
       fill-rule="evenodd"
       d="m 66.73752,141.10798 0.238125,0.26458 -0.3175,0.3175 -0.635,0.60854 -0.555625,0.66146 -0.714375,0.89958 -0.714375,1.03188 -0.635,1.13771 -0.661458,1.19062 -0.582083,1.29646 -0.502709,1.48167 -0.370416,1.16416 -0.3175,1.16417 -0.3175,1.56104 -0.105834,1.21708 -0.05292,0.84667 -0.02646,0.76729 0.02646,0.47625 h -0.396875 l 0.02646,-1.34937 0.105833,-1.45521 0.15875,-1.34938 0.449792,-1.85208 0.370417,-1.27 0.502708,-1.48167 0.608542,-1.40229 0.767291,-1.42875 0.767292,-1.24354 0.873125,-1.24354 0.767292,-0.82021 0.820208,-0.82021 z"
       class="g0_26"
       id="path22"
       style="display:block;fill:#ffffff;stroke-width:0.264583" />
    <path
       fill-rule="evenodd"
       d="m 101.18627,133.06464 -12.964583,5.52979 z"
       class="g4_26"
       id="path23"
       style="display:block;fill:#000000;fill-opacity:0;stroke-width:0.264583" />
    <path
       d="m 101.18627,133.06464 -11.297708,4.81542"
       class="g6_26"
       id="path24"
       style="display:block;fill:none;stroke:#000000;stroke-width:0.302948;stroke-linejoin:round" />
    <path
       fill-rule="evenodd"
       d="m 89.703353,137.43027 -1.084791,1.00541 1.481666,-0.0794 z"
       class="g7_26"
       id="path25"
       style="display:block;fill:#000000;stroke:#000000;stroke-width:0.302948;stroke-miterlimit:10" />
    <path
       fill-rule="evenodd"
       d="m 79.067103,127.77298 0.635,0.66145 -13.308541,13.38792 -1.508125,1.69333 -1.693333,3.12209 -0.767292,1.79916 -0.714375,1.905 -0.661458,2.6723 -0.02646,0.97895 -0.238125,1.79917 v 25.92917 l -0.79375,-0.0265 0.05292,-24.4475 0.132292,-3.91583 0.9525,-4.07459 1.084791,-2.40771 1.243542,-2.27541 0.926042,-1.45521 1.825625,-2.16958 z"
       class="g8_26"
       id="path50"
       style="display:block;fill:#f4cccc;fill-opacity:0.43;stroke-width:0.264583" />
    <path
       d="m 79.067103,127.77298 0.635,0.66145 -13.308541,13.38792 -1.508125,1.69333 -1.693333,3.12209 -0.767292,1.79916 -0.714375,1.905 -0.661458,2.6723 -0.02646,0.97895 -0.238125,1.79917 v 25.92917 l -0.79375,-0.0265 0.05292,-24.4475 0.132292,-3.91583 0.9525,-4.07459 1.084791,-2.40771 1.243542,-2.27541 0.926042,-1.45521 1.825625,-2.16958 z"
       class="g9_26"
       id="path51"
       style="display:block;fill:none;stroke:#ff0000;stroke-width:0.302948;stroke-linejoin:round" />
    <path
       fill-rule="evenodd"
       d="M 95.868145,118.77714 H 155.5846 v 23.01875 H 95.868145 Z"
       class="g4_26"
       id="path52"
       style="display:block;fill:#000000;fill-opacity:0;stroke-width:0.264583" />
    <g
       clip-path="url(#c0_26)"
       id="g54"
       style="display:block"
       transform="matrix(0.26458333,0,0,0.26458333,-126.27602,55.72694)">
      <text
         x="850"
         y="266.20001"
         class="s5_26"
         id="text52"
         style="font-size:18.33px;font-family:ArialMT_bl;white-space:pre;fill:#000000">lanelet </text>
      <text
         x="860.09998"
         y="288.20001"
         class="s5_26"
         id="text53"
         style="font-size:18.33px;font-family:ArialMT_bl;white-space:pre;fill:#000000">subtype: road_shoulder </text>
      <text
         x="859.29999"
         y="308.79999"
         class="s6_26"
         id="text54"
         style="font-size:16.81px;font-family:ArialMT_bl;white-space:pre;fill:#000000">tag: oneway = yes </text>
    </g>
    <path
       fill-rule="evenodd"
       d="m 79.834395,128.56673 4.233333,4.23333 -12.250208,12.25021 -1.217083,1.16416 -0.820208,1.11125 -1.058334,1.7198 -0.714375,1.71979 -0.555625,1.50812 -0.3175,1.69334 -0.185208,1.27 -0.132292,1.85208 v 24.68562 h -5.820833 v -24.6327 l -0.07937,-1.03188 0.211667,-2.46062 0.635,-2.51355 0.873125,-3.14854 1.905,-3.04271 1.137708,-2.03729 z"
       class="ga_26"
       id="path54"
       style="display:block;fill:#9fc5e8;fill-opacity:0.41;stroke-width:0.264583" />
    <path
       d="m 79.834395,128.56673 4.233333,4.23333 -12.250208,12.25021 -1.217083,1.16416 -0.820208,1.11125 -1.058334,1.7198 -0.714375,1.71979 -0.555625,1.50812 -0.3175,1.69334 -0.185208,1.27 -0.132292,1.85208 v 24.68562 h -5.820833 v -24.6327 l -0.07937,-1.03188 0.211667,-2.46062 0.635,-2.51355 0.873125,-3.14854 1.905,-3.04271 1.137708,-2.03729 z"
       class="gb_26"
       id="path55"
       style="display:block;fill:none;stroke:#0000ff;stroke-width:0.302948;stroke-linejoin:round" />
    <path
       fill-rule="evenodd"
       d="M 95.868145,145.4736 H 155.5846 v 23.01875 H 95.868145 Z"
       class="g4_26"
       id="path56"
       style="display:block;fill:#000000;fill-opacity:0;stroke-width:0.264583" />
    <g
       clip-path="url(#c0_26)"
       id="g58"
       style="display:block"
       transform="matrix(0.26458333,0,0,0.26458333,-126.27602,55.72694)">
      <text
         x="850"
         y="367.10001"
         class="s5_26"
         id="text56"
         style="font-size:18.33px;font-family:ArialMT_bl;white-space:pre;fill:#000000">lanelet </text>
      <text
         x="860.09998"
         y="389.10001"
         class="s5_26"
         id="text57"
         style="font-size:18.33px;font-family:ArialMT_bl;white-space:pre;fill:#000000">subtype: road </text>
      <text
         x="859.29999"
         y="409.60001"
         class="s6_26"
         id="text58"
         style="font-size:16.81px;font-family:ArialMT_bl;white-space:pre;fill:#000000">tag: oneway = yes </text>
    </g>
    <path
       fill-rule="evenodd"
       d="M 97.826062,152.53798 67.478354,146.87589 Z"
       class="g4_26"
       id="path58"
       style="display:block;fill:#000000;fill-opacity:0;stroke-width:0.264583" />
    <path
       d="m 97.826062,152.53798 -28.575,-5.31813"
       class="g6_26"
       id="path59"
       style="display:block;fill:none;stroke:#000000;stroke-width:0.302948;stroke-linejoin:round" />
    <path
       fill-rule="evenodd"
       d="m 69.356895,146.71714 -1.455208,0.23813 1.27,0.74083 z"
       class="g7_26"
       id="path60"
       style="display:block;fill:#000000;stroke:#000000;stroke-width:0.302948;stroke-miterlimit:10" />
    <path
       fill-rule="evenodd"
       d="m 88.671478,137.27152 0.79375,0.76729 -12.461875,12.27667 -1.534583,2.14312 -0.687917,1.56104 -0.3175,1.48167 -0.264583,1.77271 0.185208,24.4475 h -1.084791 v -25.63813 l 0.396875,-1.87854 0.635,-1.93146 0.79375,-1.32291 1.084791,-1.29646 z"
       class="g8_26"
       id="path87"
       style="display:block;fill:#f4cccc;fill-opacity:0.43;stroke-width:0.264583" />
    <path
       d="m 88.671478,137.27152 0.79375,0.76729 -12.461875,12.27667 -1.534583,2.14312 -0.687917,1.56104 -0.3175,1.48167 -0.264583,1.77271 0.185208,24.4475 h -1.084791 v -25.63813 l 0.396875,-1.87854 0.635,-1.93146 0.79375,-1.32291 1.084791,-1.29646 z"
       class="g9_26"
       id="path88"
       style="display:block;fill:none;stroke:#ff0000;stroke-width:0.302948;stroke-linejoin:round" />
    <path
       fill-rule="evenodd"
       d="m 84.252937,132.93235 4.259791,4.25979 -12.488333,12.48834 -1.27,1.5875 -0.978958,1.82562 -0.396875,1.05833 -0.264584,2.0373 -0.185208,1.1377 v 24.39459 h -5.926666 v -24.79146 l 0.264583,-2.75167 0.740833,-2.46062 1.005417,-2.61938 2.169583,-3.14854 0.873125,-0.76729 z"
       class="ga_26"
       id="path89"
       style="display:block;fill:#9fc5e8;fill-opacity:0.41;stroke-width:0.264583" />
    <path
       d="m 84.252937,132.93235 4.259791,4.25979 -12.488333,12.48834 -1.27,1.5875 -0.978958,1.82562 -0.396875,1.05833 -0.264584,2.0373 -0.185208,1.1377 v 24.39459 h -5.926666 v -24.79146 l 0.264583,-2.75167 0.740833,-2.46062 1.005417,-2.61938 2.169583,-3.14854 0.873125,-0.76729 z"
       class="gb_26"
       id="path90"
       style="display:block;fill:none;stroke:#0000ff;stroke-width:0.302948;stroke-linejoin:round" />
    <path
       fill-rule="evenodd"
       d="m 99.519395,154.39006 -28.363333,2.38125 z"
       class="g4_26"
       id="path91"
       style="display:block;fill:#000000;fill-opacity:0;stroke-width:0.264583" />
    <path
       d="m 99.519395,154.39006 -26.564167,2.24896"
       class="g6_26"
       id="path92"
       style="display:block;fill:none;stroke:#000000;stroke-width:0.302948;stroke-linejoin:round" />
    <path
       fill-rule="evenodd"
       d="m 72.902312,156.13631 -1.322917,0.60854 1.42875,0.37042 z"
       class="g7_26"
       id="path93"
       style="display:block;fill:#000000;stroke:#000000;stroke-width:0.302948;stroke-miterlimit:10" />
  </g>
</svg>
