<?xml version="1.0" encoding="UTF-8" standalone="no"?>
<!-- Created with Inkscape (http://www.inkscape.org/) -->

<svg
   width="20.049mm"
   height="81.486mm"
   viewBox="0 0 20.049 81.486"
   version="1.1"
   id="svg1"
   inkscape:version="1.3.2 (1:1.3.2+202311252150+091e20ef0f)"
   sodipodi:docname="vm-01-12_1.svg"
   xmlns:inkscape="http://www.inkscape.org/namespaces/inkscape"
   xmlns:sodipodi="http://sodipodi.sourceforge.net/DTD/sodipodi-0.dtd"
   xmlns="http://www.w3.org/2000/svg"
   xmlns:svg="http://www.w3.org/2000/svg">
  <sodipodi:namedview
     id="namedview1"
     pagecolor="#ffffff"
     bordercolor="#000000"
     borderopacity="0.25"
     inkscape:showpageshadow="2"
     inkscape:pageopacity="0.0"
     inkscape:pagecheckerboard="0"
     inkscape:deskcolor="#d1d1d1"
     inkscape:document-units="mm"
     inkscape:zoom="1.7131103"
     inkscape:cx="307.91947"
     inkscape:cy="488.29314"
     inkscape:window-width="3840"
     inkscape:window-height="2123"
     inkscape:window-x="0"
     inkscape:window-y="0"
     inkscape:window-maximized="1"
     inkscape:current-layer="layer1" />
  <defs
     id="defs1" />
  <g
     inkscape:label="Layer 1"
     inkscape:groupmode="layer"
     id="layer1"
     transform="translate(-23.547917,-19.314577)">
    <path
       fill-rule="evenodd"
       d="M 26.607788,40.264158 H 40.657162 V 79.687074 H 26.607788 Z"
       class="g3_20"
       id="path164"
       style="display:block;fill:#999999;stroke-width:0.264583" />
    <path
       fill-rule="evenodd"
       d="m 27.560288,40.264158 0.02646,39.105416 z"
       class="g1_20"
       id="path165"
       style="display:block;fill:#000000;fill-opacity:0;stroke-width:0.264583" />
    <path
       d="m 27.560288,40.264158 0.02646,39.105416"
       class="g9_20"
       id="path166"
       style="display:block;fill:none;stroke:#f3f3f3;stroke-width:0.909373;stroke-linejoin:round" />
    <path
       fill-rule="evenodd"
       d="m 39.651746,40.369991 -0.05292,39.21125 z"
       class="g1_20"
       id="path167"
       style="display:block;fill:#000000;fill-opacity:0;stroke-width:0.264583" />
    <path
       d="m 39.651746,40.369991 -0.05292,39.21125"
       class="g9_20"
       id="path168"
       style="display:block;fill:none;stroke:#f3f3f3;stroke-width:0.909373;stroke-linejoin:round" />
    <path
       fill-rule="evenodd"
       d="m 33.248829,74.527699 v -7.328958 l 3.783542,-3.413125 -0.105834,-8.651875 -3.254375,-4.709583 v -9.948333 z"
       class="g1_20"
       id="path169"
       style="display:block;fill:#000000;fill-opacity:0;stroke-width:0.264583" />
    <path
       d="m 33.248829,74.527699 v -7.328958 l 3.783542,-3.413125 -0.105834,-8.651875 -3.254375,-4.709583 v -4.497917"
       class="ga_20"
       id="path170"
       style="display:block;fill:none;stroke:#ff9900;stroke-width:0.909373;stroke-linejoin:round" />
    <path
       fill-rule="evenodd"
       d="m 35.180287,45.926241 -1.508125,-4.1275 -1.508124,4.1275 z"
       class="gb_20"
       id="path171"
       style="display:block;fill:#ff9900;stroke:#ff9900;stroke-width:0.909373;stroke-miterlimit:10" />
    <path
       fill-rule="evenodd"
       d="M 26.607788,22.29895 H 40.657162 V 40.264158 H 26.607788 Z"
       class="g3_20"
       id="path172"
       style="display:block;fill:#999999;stroke-width:0.264583" />
    <path
       fill-rule="evenodd"
       d="M 27.560288,22.29895 V 40.317075 Z"
       class="g1_20"
       id="path173"
       style="display:block;fill:#000000;fill-opacity:0;stroke-width:0.264583" />
    <path
       d="M 27.560288,22.29895 V 40.317075"
       class="g9_20"
       id="path174"
       style="display:block;fill:none;stroke:#f3f3f3;stroke-width:0.909373;stroke-linejoin:round" />
    <path
       fill-rule="evenodd"
       d="M 39.651746,22.351866 V 40.39645 Z"
       class="g1_20"
       id="path175"
       style="display:block;fill:#000000;fill-opacity:0;stroke-width:0.264583" />
    <path
       d="M 39.651746,22.351866 V 40.39645"
       class="g9_20"
       id="path176"
       style="display:block;fill:none;stroke:#f3f3f3;stroke-width:0.909373;stroke-linejoin:round" />
    <path
       fill-rule="evenodd"
       d="M 26.607788,79.687074 H 40.657162 V 97.652282 H 26.607788 Z"
       class="g3_20"
       id="path177"
       style="display:block;fill:#999999;stroke-width:0.264583" />
    <path
       fill-rule="evenodd"
       d="M 27.560288,79.687074 V 97.705199 Z"
       class="g1_20"
       id="path178"
       style="display:block;fill:#000000;fill-opacity:0;stroke-width:0.264583" />
    <path
       d="M 27.560288,79.687074 V 97.705199"
       class="g9_20"
       id="path179"
       style="display:block;fill:none;stroke:#f3f3f3;stroke-width:0.909373;stroke-linejoin:round" />
    <path
       fill-rule="evenodd"
       d="M 39.651746,79.739991 V 97.784574 Z"
       class="g1_20"
       id="path180"
       style="display:block;fill:#000000;fill-opacity:0;stroke-width:0.264583" />
    <path
       d="M 39.651746,79.739991 V 97.784574"
       class="g9_20"
       id="path181"
       style="display:block;fill:none;stroke:#f3f3f3;stroke-width:0.909373;stroke-linejoin:round" />
    <path
       fill-rule="evenodd"
       d="m 31.264454,72.649157 v 0 c 0,-0.05292 0.05292,-0.07937 0.07937,-0.07937 h 0.264584 c 0.02646,0 0.02646,0.02646 0.05292,0.02646 q 0,0.02646 0,0.05292 v 1.058334 c 0,0.02646 -0.02646,0.05292 -0.05292,0.05292 h -0.264584 c -0.02646,0 -0.07937,-0.02646 -0.07937,-0.05292 z"
       class="gc_20"
       id="path182"
       style="display:block;fill:#000000;stroke-width:0.264583" />
    <path
       fill-rule="evenodd"
       d="m 34.783412,72.649157 v 0 c 0,-0.05292 0.02646,-0.07937 0.05292,-0.07937 h 0.264583 c 0.02646,0 0.02646,0.02646 0.05292,0.02646 q 0,0.02646 0,0.05292 v 1.058334 c 0,0.02646 -0.02646,0.05292 -0.05292,0.05292 h -0.264583 c -0.02646,0 -0.05292,-0.02646 -0.05292,-0.05292 z"
       class="gc_20"
       id="path183"
       style="display:block;fill:#000000;stroke-width:0.264583" />
    <path
       fill-rule="evenodd"
       d="m 31.264454,77.014782 v 0 c 0,-0.05292 0.05292,-0.07937 0.07937,-0.07937 h 0.264584 q 0.02646,0 0.05292,0.02646 c 0,0 0,0.02646 0,0.05292 v 1.058334 c 0,0.02646 -0.02646,0.05292 -0.05292,0.05292 h -0.264584 c -0.02646,0 -0.07937,-0.02646 -0.07937,-0.05292 z"
       class="gc_20"
       id="path184"
       style="display:block;fill:#000000;stroke-width:0.264583" />
    <path
       fill-rule="evenodd"
       d="m 34.783412,77.014782 v 0 c 0,-0.05292 0.02646,-0.07937 0.05292,-0.07937 h 0.264583 q 0.02646,0 0.05292,0.02646 c 0,0 0,0.02646 0,0.05292 v 1.058334 c 0,0.02646 -0.02646,0.05292 -0.05292,0.05292 h -0.264583 c -0.02646,0 -0.05292,-0.02646 -0.05292,-0.05292 z"
       class="gc_20"
       id="path185"
       style="display:block;fill:#000000;stroke-width:0.264583" />
    <path
       fill-rule="evenodd"
       d="m 31.423204,72.490407 v 0 c 0,-0.555624 0.449792,-1.005416 1.005417,-1.005416 h 1.640416 c 0.264584,0 0.529167,0.105833 0.714375,0.291042 0.185209,0.185208 0.291042,0.449791 0.291042,0.714374 v 5.715 c 0,0.555625 -0.449792,1.005417 -1.005417,1.005417 h -1.640416 c -0.555625,0 -1.005417,-0.449792 -1.005417,-1.005417 z"
       class="gd_20"
       id="path186"
       style="display:block;fill:#3d85c6;stroke-width:0.264583" />
    <path
       fill-rule="evenodd"
       d="m 32.878412,71.432074 v 0 c 0,-0.02646 0.02646,-0.02646 0.02646,-0.02646 h 0.661458 c 0,0 0.02646,0.02646 0.02646,0.02646 v 0.105834 c 0,0.02646 -0.02646,0.02646 -0.02646,0.02646 h -0.661459 c 0,0 -0.02646,0 -0.02646,-0.02646 z"
       class="ge_20"
       id="path187"
       style="display:block;fill:#efefef;stroke-width:0.264583" />
    <path
       fill-rule="evenodd"
       d="m 31.925913,71.802491 0.05292,0.211667 0.264584,-0.05292 0.07938,-0.02646 0.02646,-0.05292 v -0.07937 l -0.02646,-0.05292 h -0.185209 z"
       class="g0_20"
       id="path188"
       style="display:block;fill:#ffffff;stroke-width:0.264583" />
    <path
       fill-rule="evenodd"
       d="m 34.518829,71.802491 -0.02646,0.211667 -0.264584,-0.05292 -0.07938,-0.02646 -0.02646,-0.05292 v -0.07937 l 0.02646,-0.05292 h 0.185209 z"
       class="g0_20"
       id="path189"
       style="display:block;fill:#ffffff;stroke-width:0.264583" />
    <path
       fill-rule="evenodd"
       d="m 31.846538,73.919157 0.238125,0.767292 0.02646,0.05292 0.07937,0.05292 h 2.037291 l 0.05292,-0.02646 0.07938,-0.05292 0.238125,-0.687916 v -0.07937 l -0.05292,-0.07937 -0.264583,-0.07937 -0.423333,-0.105834 -0.343959,-0.02646 h -0.608543 l -0.185208,0.02646 -0.238125,0.02646 -0.211667,0.05292 -0.185208,0.05292 -0.15875,0.07937 z"
       class="gf_20"
       id="path190"
       style="display:block;fill:#9fc5e8;stroke-width:0.264583" />
    <path
       d="m 31.846538,73.919157 0.238125,0.767292 0.02646,0.05292 0.07937,0.05292 h 2.037291 l 0.05292,-0.02646 0.07938,-0.05292 0.238125,-0.687916 v -0.07937 l -0.05292,-0.07937 -0.264583,-0.07937 -0.423333,-0.105834 -0.343959,-0.02646 h -0.608543 l -0.185208,0.02646 -0.238125,0.02646 -0.211667,0.05292 -0.185208,0.05292 -0.15875,0.07937 z"
       class="gg_20"
       id="path191"
       style="display:block;fill:none;stroke:#073763;stroke-width:0.302948;stroke-linejoin:round" />
    <path
       fill-rule="evenodd"
       d="m 31.634871,74.183741 v 3.915833 l 0.07938,0.02646 0.291042,-0.264583 0.07938,-0.132292 0.05292,-0.15875 -0.05292,-2.2225 -0.02646,-0.185208 -0.105833,-0.291042 -0.105833,-0.291041 z"
       class="gf_20"
       id="path192"
       style="display:block;fill:#9fc5e8;stroke-width:0.264583" />
    <path
       d="m 31.634871,74.183741 v 3.915833 l 0.07938,0.02646 0.291042,-0.264583 0.07938,-0.132292 0.05292,-0.15875 -0.05292,-2.2225 -0.02646,-0.185208 -0.105833,-0.291042 -0.105833,-0.291041 z"
       class="gg_20"
       id="path193"
       style="display:block;fill:none;stroke:#073763;stroke-width:0.302948;stroke-linejoin:round" />
    <path
       fill-rule="evenodd"
       d="m 34.889246,74.236657 v 3.836459 l -0.02646,0.07938 -0.07937,0.02646 -0.264583,-0.264583 -0.105833,-0.15875 -0.05292,-0.132292 0.05292,-2.248958 0.02646,-0.15875 0.105833,-0.291042 0.132292,-0.291042 z"
       class="gf_20"
       id="path194"
       style="display:block;fill:#9fc5e8;stroke-width:0.264583" />
    <path
       d="m 34.889246,74.236657 v 3.836459 l -0.02646,0.07938 -0.07937,0.02646 -0.264583,-0.264583 -0.105833,-0.15875 -0.05292,-0.132292 0.05292,-2.248958 0.02646,-0.15875 0.105833,-0.291042 0.132292,-0.291042 z"
       class="gg_20"
       id="path195"
       style="display:block;fill:none;stroke:#073763;stroke-width:0.302948;stroke-linejoin:round" />
    <path
       fill-rule="evenodd"
       d="m 31.634871,74.157282 -0.07937,-0.02646 h -0.105833 l -0.07937,0.02646 -0.105834,0.02646 -0.07937,0.05292 v 0.132292 l 0.05292,0.05292 0.07937,0.02646 0.132292,0.02646 h 0.105833 l 0.07937,-0.05292 0.05292,-0.05292 0.02646,-0.05292 v -0.07937 l -0.05292,-0.05292 z"
       class="gh_20"
       id="path196"
       style="display:block;fill:#0b5394;stroke-width:0.264583" />
    <path
       fill-rule="evenodd"
       d="m 34.836329,74.157282 0.07937,-0.02646 h 0.105833 l 0.07937,0.02646 0.105834,0.02646 0.07937,0.05292 v 0.132292 l -0.05292,0.05292 -0.07937,0.02646 -0.132292,0.02646 h -0.07938 l -0.07937,-0.05292 -0.07937,-0.05292 v -0.132297 l 0.02647,-0.05292 z"
       class="gh_20"
       id="path197"
       style="display:block;fill:#0b5394;stroke-width:0.264583" />
    <path
       fill-rule="evenodd"
       d="m 32.878412,79.104991 v 0 c 0,0 0.02646,-0.02646 0.02646,-0.02646 h 0.661458 c 0,0 0,0.02646 0,0.02646 0,0 0.02646,0 0.02646,0 v 0.132291 c 0,0 -0.02646,0.02646 -0.02646,0.02646 h -0.661459 c 0,0 -0.02646,-0.02646 -0.02646,-0.02646 z"
       class="ge_20"
       id="path198"
       style="display:block;fill:#efefef;stroke-width:0.264583" />
    <path
       fill-rule="evenodd"
       d="m 31.925913,79.237282 0.05292,-0.211666 0.264584,0.05292 0.07938,0.02646 0.02646,0.02646 v 0.105833 l -0.02646,0.02646 -0.07938,0.02646 h -0.105834 z"
       class="gh_20"
       id="path199"
       style="display:block;fill:#0b5394;stroke-width:0.264583" />
    <path
       fill-rule="evenodd"
       d="m 34.518829,79.237282 -0.02646,-0.211666 -0.264584,0.05292 -0.07938,0.02646 -0.02646,0.02646 v 0.105833 l 0.02646,0.02646 0.07938,0.02646 h 0.105834 z"
       class="gh_20"
       id="path200"
       style="display:block;fill:#0b5394;stroke-width:0.264583" />
    <path
       fill-rule="evenodd"
       d="m 32.322788,77.993741 h -0.07938 l -0.47625,0.396875 -0.05292,0.105833 0.02646,0.07938 0.15875,0.105833 0.185209,0.07937 0.264583,0.05292 0.291042,0.05292 0.317499,0.02646 h 0.3175 l 0.343959,-0.02646 h 0.3175 l 0.343958,-0.07937 0.238125,-0.07937 0.185208,-0.132292 0.02646,-0.07938 -0.05292,-0.105833 -0.423333,-0.370417 -0.05292,-0.02646 -0.502708,-0.02646 h -0.9525 z"
       class="gf_20"
       id="path201"
       style="display:block;fill:#9fc5e8;stroke-width:0.264583" />
    <path
       d="m 32.322788,77.993741 h -0.07938 l -0.47625,0.396875 -0.05292,0.105833 0.02646,0.07938 0.15875,0.105833 0.185209,0.07937 0.264583,0.05292 0.291042,0.05292 0.317499,0.02646 h 0.3175 l 0.343959,-0.02646 h 0.3175 l 0.343958,-0.07937 0.238125,-0.07937 0.185208,-0.132292 0.02646,-0.07938 -0.05292,-0.105833 -0.423333,-0.370417 -0.05292,-0.02646 -0.502708,-0.02646 h -0.9525 z"
       class="gg_20"
       id="path202"
       style="display:block;fill:none;stroke:#073763;stroke-width:0.302948;stroke-linejoin:round" />
    <path
       fill-rule="evenodd"
       d="m 32.349246,71.828949 c 0.07937,-0.02646 0.291042,-0.05292 0.47625,-0.05292 0.185208,0 0.423333,0 0.582083,0 0.15875,0 0.238125,0 0.370417,0.02646 0.105833,0 0.264583,0.02646 0.3175,0.02646 z"
       class="g1_20"
       id="path203"
       style="display:block;fill:#000000;fill-opacity:0;stroke-width:0.264583" />
    <path
       d="m 32.349246,71.828949 c 0.07937,-0.02646 0.291042,-0.05292 0.47625,-0.05292 0.185208,0 0.423333,0 0.582083,0 0.15875,0 0.238125,0 0.370417,0.02646 0.105833,0 0.264583,0.02646 0.3175,0.02646"
       class="gg_20"
       id="path204"
       style="display:block;fill:none;stroke:#073763;stroke-width:0.302948;stroke-linejoin:round" />
    <path
       fill-rule="evenodd"
       d="m 31.820079,72.014158 c -0.02646,0.02646 -0.05292,0.02646 -0.07937,0.07937 0,0.05292 -0.02646,0.132291 -0.02646,0.238124 -0.02646,0.105834 -0.05292,0.291042 -0.07938,0.449792 0,0.132292 0,0.264583 0,0.370417 0,0.132291 0.02646,0.238125 0.05292,0.343958 0.02646,0.132292 0.105833,0.343958 0.105833,0.423333 z"
       class="g1_20"
       id="path205"
       style="display:block;fill:#000000;fill-opacity:0;stroke-width:0.264583" />
    <path
       d="m 31.820079,72.014158 c -0.02646,0.02646 -0.05292,0.02646 -0.07937,0.07937 0,0.05292 -0.02646,0.132291 -0.02646,0.238124 -0.02646,0.105834 -0.05292,0.291042 -0.07938,0.449792 0,0.132292 0,0.264583 0,0.370417 0,0.132291 0.02646,0.238125 0.05292,0.343958 0.02646,0.132292 0.105833,0.343958 0.105833,0.423333"
       class="gg_20"
       id="path206"
       style="display:block;fill:none;stroke:#073763;stroke-width:0.302948;stroke-linejoin:round" />
    <path
       fill-rule="evenodd"
       d="m 34.651121,71.987699 c 0,0.02646 0.02646,0.07937 0.05292,0.105834 0,0.05292 0.02646,0.105833 0.02646,0.185208 0.02646,0.07937 0.05292,0.185208 0.05292,0.291041 0.02646,0.105834 0.02646,0.238125 0.02646,0.343959 0,0.132291 0,0.291041 0,0.370416 -0.02646,0.105834 0,0.07937 -0.02646,0.185209 0,0.07937 -0.105833,0.370416 -0.132291,0.423333 z"
       class="g1_20"
       id="path207"
       style="display:block;fill:#000000;fill-opacity:0;stroke-width:0.264583" />
    <path
       d="m 34.651121,71.987699 c 0,0.02646 0.02646,0.07937 0.05292,0.105834 0,0.05292 0.02646,0.105833 0.02646,0.185208 0.02646,0.07937 0.05292,0.185208 0.05292,0.291041 0.02646,0.105834 0.02646,0.238125 0.02646,0.343959 0,0.132291 0,0.291041 0,0.370416 -0.02646,0.105834 0,0.07937 -0.02646,0.185209 0,0.07937 -0.105833,0.370416 -0.132291,0.423333"
       class="gg_20"
       id="path208"
       style="display:block;fill:none;stroke:#073763;stroke-width:0.302948;stroke-linejoin:round" />
    <path
       fill-rule="evenodd"
       d="m 33.592787,73.839782 -1.111249,0.79375 h -0.132292 l -0.105833,-0.02646 -0.07937,-0.02646 -0.05292,-0.05292 -0.185208,-0.47625 0.02646,-0.02646 0.02646,-0.05292 0.291042,-0.05292 0.3175,-0.05292 0.3175,-0.02646 0.238125,-0.02646 h 0.264583 z"
       class="gi_20"
       id="path209"
       style="display:block;fill:#cfe2f3;stroke-width:0.264583" />
    <path
       fill-rule="evenodd"
       d="m 34.968621,56.800616 v 0 c 0,-0.02646 0.02646,-0.05292 0.07937,-0.05292 h 0.238125 c 0.02646,0 0.05292,0 0.05292,0 q 0.02646,0.02646 0.02646,0.05292 v 1.058333 c 0,0.05292 -0.02646,0.07938 -0.07937,0.07938 h -0.238125 c -0.05292,0 -0.07937,-0.02646 -0.07937,-0.07938 z"
       class="gc_20"
       id="path210"
       style="display:block;fill:#000000;stroke-width:0.264583" />
    <path
       fill-rule="evenodd"
       d="m 38.461121,56.800616 v 0 c 0,-0.02646 0.02646,-0.05292 0.07938,-0.05292 h 0.264583 c 0,0 0.02646,0 0.02646,0 q 0.02646,0.02646 0.02646,0.05292 v 1.058333 c 0,0.05292 -0.02646,0.07938 -0.05292,0.07938 h -0.264583 c -0.05292,0 -0.07938,-0.02646 -0.07938,-0.07938 z"
       class="gc_20"
       id="path211"
       style="display:block;fill:#000000;stroke-width:0.264583" />
    <path
       fill-rule="evenodd"
       d="m 34.968621,61.166241 v 0 c 0,-0.02646 0.02646,-0.07937 0.07937,-0.07937 h 0.238125 c 0.02646,0 0.05292,0.02646 0.05292,0.02646 q 0.02646,0.02646 0.02646,0.05292 v 1.058333 c 0,0.02646 -0.02646,0.07937 -0.07937,0.07937 h -0.238125 c -0.05292,0 -0.07937,-0.05292 -0.07937,-0.07937 z"
       class="gc_20"
       id="path212"
       style="display:block;fill:#000000;stroke-width:0.264583" />
    <path
       fill-rule="evenodd"
       d="m 38.461121,61.166241 v 0 c 0,-0.02646 0.02646,-0.07937 0.07938,-0.07937 h 0.264583 c 0,0 0.02646,0.02646 0.02646,0.02646 q 0.02646,0.02646 0.02646,0.05292 v 1.058333 c 0,0.02646 -0.02646,0.07937 -0.05292,0.07937 h -0.264583 c -0.05292,0 -0.07938,-0.05292 -0.07938,-0.07937 z"
       class="gc_20"
       id="path213"
       style="display:block;fill:#000000;stroke-width:0.264583" />
    <path
       fill-rule="evenodd"
       d="m 35.100912,56.641866 v 0 c 0,-0.555625 0.449792,-1.005417 1.005417,-1.005417 h 1.640417 c 0.291041,0 0.529166,0.105834 0.740833,0.291042 0.185208,0.211667 0.291042,0.449792 0.291042,0.714375 v 5.715 c 0,0.555625 -0.449792,1.005417 -1.031875,1.005417 h -1.640417 c -0.555625,0 -1.005417,-0.449792 -1.005417,-1.005417 z"
       class="gd_20"
       id="path214"
       style="display:block;fill:#3d85c6;stroke-width:0.264583" />
    <path
       fill-rule="evenodd"
       d="m 36.582579,55.583533 v 0 c 0,0 0,-0.02646 0.02646,-0.02646 h 0.635 c 0,0 0.02646,0 0.02646,0 q 0,0.02646 0,0.02646 v 0.105833 q 0,0.02646 -0.02646,0.02646 h -0.635 q -0.02646,0 -0.02646,-0.02646 z"
       class="ge_20"
       id="path215"
       style="display:block;fill:#efefef;stroke-width:0.264583" />
    <path
       fill-rule="evenodd"
       d="m 35.630079,55.953949 0.02646,0.238125 0.291042,-0.07937 0.05292,-0.02646 0.02646,-0.02646 0.02646,-0.05292 -0.02646,-0.05292 -0.02646,-0.02646 -0.05292,-0.02646 h -0.132292 z"
       class="g0_20"
       id="path216"
       style="display:block;fill:#ffffff;stroke-width:0.264583" />
    <path
       fill-rule="evenodd"
       d="m 38.222996,55.953949 -0.02646,0.238125 -0.291041,-0.07937 -0.05292,-0.02646 -0.02646,-0.02646 -0.02646,-0.05292 0.02646,-0.05292 0.02646,-0.02646 0.05292,-0.02646 h 0.132291 z"
       class="g0_20"
       id="path217"
       style="display:block;fill:#ffffff;stroke-width:0.264583" />
    <path
       fill-rule="evenodd"
       d="m 35.550704,58.070616 0.238125,0.767292 0.02646,0.07937 0.07938,0.02646 h 2.010834 l 0.07937,-0.02646 0.07938,-0.05292 0.238125,-0.661458 v -0.105834 l -0.05292,-0.05292 -0.291042,-0.105834 -0.396875,-0.07938 -0.343958,-0.05292 h -0.396875 l -0.238125,0.02646 h -0.15875 l -0.264583,0.02646 -0.211667,0.07938 -0.15875,0.05292 -0.15875,0.05292 z"
       class="gf_20"
       id="path218"
       style="display:block;fill:#9fc5e8;stroke-width:0.264583" />
    <path
       d="m 35.550704,58.070616 0.238125,0.767292 0.02646,0.07937 0.07938,0.02646 h 2.010834 l 0.07937,-0.02646 0.07938,-0.05292 0.238125,-0.661458 v -0.105834 l -0.05292,-0.05292 -0.291042,-0.105834 -0.396875,-0.07938 -0.343958,-0.05292 h -0.396875 l -0.238125,0.02646 h -0.15875 l -0.264583,0.02646 -0.211667,0.07938 -0.15875,0.05292 -0.15875,0.05292 z"
       class="gg_20"
       id="path219"
       style="display:block;fill:none;stroke:#073763;stroke-width:0.302948;stroke-linejoin:round" />
    <path
       fill-rule="evenodd"
       d="m 35.312579,58.361658 v 3.836458 l 0.02646,0.07937 0.07938,0.02646 0.291042,-0.264583 0.07937,-0.15875 0.05292,-0.132292 -0.05292,-2.248958 -0.02646,-0.15875 -0.105834,-0.291042 -0.132291,-0.3175 z"
       class="gf_20"
       id="path220"
       style="display:block;fill:#9fc5e8;stroke-width:0.264583" />
    <path
       d="m 35.312579,58.361658 v 3.836458 l 0.02646,0.07937 0.07938,0.02646 0.291042,-0.264583 0.07937,-0.15875 0.05292,-0.132292 -0.05292,-2.248958 -0.02646,-0.15875 -0.105834,-0.291042 -0.132291,-0.3175 z"
       class="gg_20"
       id="path221"
       style="display:block;fill:none;stroke:#073763;stroke-width:0.302948;stroke-linejoin:round" />
    <path
       fill-rule="evenodd"
       d="m 38.566954,58.388116 v 3.915833 l -0.07937,0.02646 -0.291042,-0.264584 -0.07937,-0.132291 -0.05292,-0.15875 0.05292,-2.2225 0.02646,-0.185209 0.105833,-0.291041 0.105833,-0.291042 z"
       class="gf_20"
       id="path222"
       style="display:block;fill:#9fc5e8;stroke-width:0.264583" />
    <path
       d="m 38.566954,58.388116 v 3.915833 l -0.07937,0.02646 -0.291042,-0.264584 -0.07937,-0.132291 -0.05292,-0.15875 0.05292,-2.2225 0.02646,-0.185209 0.105833,-0.291041 0.105833,-0.291042 z"
       class="gg_20"
       id="path223"
       style="display:block;fill:none;stroke:#073763;stroke-width:0.302948;stroke-linejoin:round" />
    <path
       fill-rule="evenodd"
       d="m 35.312579,58.308741 -0.07937,-0.02646 h -0.07937 l -0.07937,0.02646 -0.105833,0.05292 -0.07938,0.05292 -0.02646,0.05292 v 0.05292 l 0.05292,0.05292 0.07937,0.02646 0.132292,0.02646 h 0.105833 l 0.07937,-0.02646 0.05292,-0.07937 0.02646,-0.05292 v -0.05292 l -0.02646,-0.05292 z"
       class="gh_20"
       id="path224"
       style="display:block;fill:#0b5394;stroke-width:0.264583" />
    <path
       fill-rule="evenodd"
       d="m 38.540496,58.308741 0.07938,-0.02646 h 0.105833 l 0.07937,0.02646 0.105833,0.05292 0.05292,0.05292 0.02646,0.05292 v 0.05292 l -0.05292,0.05292 -0.07937,0.02646 -0.132292,0.02646 h -0.105834 l -0.07937,-0.02646 -0.05292,-0.07937 -0.02646,-0.05292 v -0.05292 l 0.02646,-0.05292 z"
       class="gh_20"
       id="path225"
       style="display:block;fill:#0b5394;stroke-width:0.264583" />
    <path
       fill-rule="evenodd"
       d="m 36.582579,63.282908 v 0 q 0,-0.02646 0.02646,-0.02646 h 0.635 c 0,0 0.02646,0 0.02646,0 v 0.132292 q 0,0.02646 -0.02646,0.02646 h -0.635 q -0.02646,0 -0.02646,-0.02646 z"
       class="ge_20"
       id="path226"
       style="display:block;fill:#efefef;stroke-width:0.264583" />
    <path
       fill-rule="evenodd"
       d="m 35.630079,63.415199 0.02646,-0.238125 0.291042,0.07937 0.05292,0.02646 0.02646,0.02646 0.02646,0.02646 -0.02646,0.05292 -0.02646,0.05292 h -0.185209 z"
       class="gh_20"
       id="path227"
       style="display:block;fill:#0b5394;stroke-width:0.264583" />
    <path
       fill-rule="evenodd"
       d="m 38.222996,63.415199 -0.02646,-0.238125 -0.291041,0.07937 -0.05292,0.02646 -0.02646,0.02646 -0.02646,0.02646 0.02646,0.05292 0.02646,0.05292 h 0.185208 z"
       class="gh_20"
       id="path228"
       style="display:block;fill:#0b5394;stroke-width:0.264583" />
    <path
       fill-rule="evenodd"
       d="m 36.000496,62.145199 h -0.05292 l -0.47625,0.423334 -0.05292,0.07938 0.02646,0.07937 0.132291,0.105833 0.185209,0.07937 0.291041,0.07937 0.291042,0.02646 0.291042,0.02646 h 0.661458 l 0.3175,-0.02646 0.370417,-0.07937 0.238125,-0.07938 0.185208,-0.132291 0.02646,-0.07937 -0.05292,-0.07938 -0.449792,-0.370417 -0.02646,-0.05292 -0.502709,-0.02646 h -0.582083 l -0.370417,0.02646 z"
       class="gf_20"
       id="path229"
       style="display:block;fill:#9fc5e8;stroke-width:0.264583" />
    <path
       d="m 36.000496,62.145199 h -0.05292 l -0.47625,0.423334 -0.05292,0.07938 0.02646,0.07937 0.132291,0.105833 0.185209,0.07937 0.291041,0.07937 0.291042,0.02646 0.291042,0.02646 h 0.661458 l 0.3175,-0.02646 0.370417,-0.07937 0.238125,-0.07938 0.185208,-0.132291 0.02646,-0.07937 -0.05292,-0.07938 -0.449792,-0.370417 -0.02646,-0.05292 -0.502709,-0.02646 h -0.582083 l -0.370417,0.02646 z"
       class="gg_20"
       id="path230"
       style="display:block;fill:none;stroke:#073763;stroke-width:0.302948;stroke-linejoin:round" />
    <path
       fill-rule="evenodd"
       d="m 36.053412,55.980408 c 0.07937,0 0.291042,-0.02646 0.47625,-0.05292 0.15875,0 0.423334,0 0.582084,0 0.15875,0 0.238125,0.02646 0.343958,0.02646 0.132292,0 0.264583,0.02646 0.3175,0.02646 z"
       class="g1_20"
       id="path231"
       style="display:block;fill:#000000;fill-opacity:0;stroke-width:0.264583" />
    <path
       d="m 36.053412,55.980408 c 0.07937,0 0.291042,-0.02646 0.47625,-0.05292 0.15875,0 0.423334,0 0.582084,0 0.15875,0 0.238125,0.02646 0.343958,0.02646 0.132292,0 0.264583,0.02646 0.3175,0.02646"
       class="gg_20"
       id="path232"
       style="display:block;fill:none;stroke:#073763;stroke-width:0.302948;stroke-linejoin:round" />
    <path
       fill-rule="evenodd"
       d="m 35.497787,56.192074 c 0,0 -0.02646,0 -0.05292,0.05292 -0.02646,0.05292 -0.02646,0.132292 -0.05292,0.238125 0,0.105833 -0.05292,0.3175 -0.05292,0.449792 -0.02646,0.132291 -0.02646,0.264583 0,0.396875 0,0.105833 0,0.211666 0.02646,0.343958 0.02646,0.105833 0.105833,0.343958 0.132291,0.396875 z"
       class="g1_20"
       id="path233"
       style="display:block;fill:#000000;fill-opacity:0;stroke-width:0.264583" />
    <path
       d="m 35.497787,56.192074 c 0,0 -0.02646,0 -0.05292,0.05292 -0.02646,0.05292 -0.02646,0.132292 -0.05292,0.238125 0,0.105833 -0.05292,0.3175 -0.05292,0.449792 -0.02646,0.132291 -0.02646,0.264583 0,0.396875 0,0.105833 0,0.211666 0.02646,0.343958 0.02646,0.105833 0.105833,0.343958 0.132291,0.396875"
       class="gg_20"
       id="path234"
       style="display:block;fill:none;stroke:#073763;stroke-width:0.302948;stroke-linejoin:round" />
    <path
       fill-rule="evenodd"
       d="m 38.328829,56.165616 c 0.02646,0 0.05292,0.05292 0.05292,0.105833 0.02646,0.02646 0.02646,0.07937 0.05292,0.15875 0,0.07938 0.05292,0.211667 0.05292,0.3175 0.02646,0.105834 0.02646,0.211667 0.02646,0.343959 0,0.105833 -0.02646,0.264583 -0.02646,0.370416 0,0.07937 0.02646,0.05292 0,0.15875 -0.02646,0.105834 -0.105833,0.370417 -0.132292,0.449792 z"
       class="g1_20"
       id="path235"
       style="display:block;fill:#000000;fill-opacity:0;stroke-width:0.264583" />
    <path
       d="m 38.328829,56.165616 c 0.02646,0 0.05292,0.05292 0.05292,0.105833 0.02646,0.02646 0.02646,0.07937 0.05292,0.15875 0,0.07938 0.05292,0.211667 0.05292,0.3175 0.02646,0.105834 0.02646,0.211667 0.02646,0.343959 0,0.105833 -0.02646,0.264583 -0.02646,0.370416 0,0.07937 0.02646,0.05292 0,0.15875 -0.02646,0.105834 -0.105833,0.370417 -0.132292,0.449792"
       class="gg_20"
       id="path236"
       style="display:block;fill:none;stroke:#073763;stroke-width:0.302948;stroke-linejoin:round" />
    <path
       fill-rule="evenodd"
       d="m 37.270496,57.991241 -1.084792,0.79375 h -0.15875 l -0.105833,-0.02646 -0.05292,-0.02646 -0.05292,-0.05292 -0.185208,-0.449792 0.02646,-0.05292 0.02646,-0.02646 0.264583,-0.07937 0.3175,-0.05292 0.343958,-0.02646 h 0.47625 z"
       class="gi_20"
       id="path237"
       style="display:block;fill:#cfe2f3;stroke-width:0.264583" />
  </g>
</svg>
