<?xml version="1.0" encoding="UTF-8" standalone="no"?>
<!-- Page 51 -->

<svg
   x="0"
   y="0"
   width="620.38599"
   height="258.20001"
   viewBox="0 0 620.38598 258.20002"
   version="1.1"
   style="display:block"
   id="svg118"
   sodipodi:docname="vm-04-02_1.svg"
   inkscape:version="1.3.2 (1:1.3.2+202311252150+091e20ef0f)"
   xmlns:inkscape="http://www.inkscape.org/namespaces/inkscape"
   xmlns:sodipodi="http://sodipodi.sourceforge.net/DTD/sodipodi-0.dtd"
   xmlns="http://www.w3.org/2000/svg"
   xmlns:svg="http://www.w3.org/2000/svg">
  <sodipodi:namedview
     id="namedview118"
     pagecolor="#ffffff"
     bordercolor="#000000"
     borderopacity="0.25"
     inkscape:showpageshadow="2"
     inkscape:pageopacity="0.0"
     inkscape:pagecheckerboard="0"
     inkscape:deskcolor="#d1d1d1"
     inkscape:zoom="1.3987858"
     inkscape:cx="326.35448"
     inkscape:cy="-89.720672"
     inkscape:window-width="3840"
     inkscape:window-height="2123"
     inkscape:window-x="0"
     inkscape:window-y="0"
     inkscape:window-maximized="1"
     inkscape:current-layer="g118" />
  <defs
     id="defs2">
    <clipPath
       id="c_51">
      <path
         d="M 0,0 H 1100 V 825 H 0 Z"
         id="path1" />
    </clipPath>
    <clipPath
       id="c0_51">
      <path
         d="M 0,825 V 0 h 1100 v 825 z"
         id="path2" />
    </clipPath>
    <style
       type="text/css"
       id="style2"><![CDATA[
text { white-space: pre; }
path, image { pointer-events: none; }

.s0_51{
font-size: 27.50px;
font-family: MS-PGothic_bn;
fill: #000;
}
.s1_51{
font-size: 18.33px;
font-family: MS-PGothic_bn;
fill: #000;
}
.s2_51{
font-size: 18.33px;
font-family: ArialMT_bj;
fill: #000;
}
.s3_51{
font-size: 10.69px;
font-family: ArialMT_bj;
fill: #000;
}
.s4_51{
font-size: 27.50px;
font-family: ArialMT_bj;
fill: #000;
}
.s5_51{
font-size: 12.22px;
font-family: MS-PGothic_bn;
fill: #000;
}
.s6_51{
font-size: 13.75px;
font-family: ArialMT_bj;
fill: #000;
}
.s7_51{
font-size: 13.75px;
font-family: MS-PGothic_bn;
fill: #000;
}
.s8_51{
font-size: 9.17px;
font-family: ArialMT_bj;
fill: #000;
}
.s9_51{
font-size: 12.22px;
font-family: ArialMT_bj;
fill: #000;
}
.sa_51{
font-size: 16.81px;
font-family: QuattrocentoSans_ca;
fill: #000;
}

.g0_51{
fill: #FFF;
}
.g1_51{
fill: #000;
fill-opacity: 0;
}
.g2_51{
fill: none;
stroke: #000;
stroke-width: 1.145;
stroke-linejoin: round;
}
.g3_51{
fill: #000;
stroke: #000;
stroke-width: 1.145;
stroke-miterlimit: 10;
}
.g4_51{
fill: #666;
}
.g5_51{
fill: #DFE3E5;
}
.g6_51{
fill: none;
stroke: #335B74;
stroke-width: 1.145;
stroke-linejoin: round;
}
.g7_51{
fill: #3E8853;
}
.g8_51{
fill: #FF0;
}
.g9_51{
fill: #F00;
}
.ga_51{
fill: none;
stroke: #000;
stroke-width: 4.583;
stroke-linejoin: round;
}
.gb_51{
fill: #0FF;
}
.gc_51{
fill: #335B74;
stroke: #335B74;
stroke-width: 1.145;
stroke-miterlimit: 10;
}

]]></style>
  </defs>
  <g
     clip-path="url(#c_51)"
     id="g118"
     transform="translate(-430.18602,-347.2)">
    <path
       fill-rule="evenodd"
       d="m 498.10747,216.55146 h 565.80003 v 546.8 H 498.10747 Z"
       class="g1_51"
       id="path46" />
    <path
       fill-rule="evenodd"
       d="m 606.80356,429.2365 v 152.6 z"
       class="g1_51"
       id="path50" />
    <path
       d="m 606.80356,436.1365 v 138.9"
       class="g2_51"
       id="path51" />
    <path
       fill-rule="evenodd"
       d="m 608.70356,436.1365 -1.9,-5.2 -1.9,5.2 z"
       class="g3_51"
       id="path52" />
    <path
       fill-rule="evenodd"
       d="m 604.90356,575.0365 1.9,5.2 1.9,-5.2 z"
       class="g3_51"
       id="path53" />
    <path
       fill-rule="evenodd"
       d="m 577.80356,582.8365 h 59.3 v 14 h -59.3 z"
       class="g4_51"
       id="path54" />
    <text
       clip-path="url(#c0_51)"
       x="589.70001"
       y="588.70001"
       class="s5_51"
       id="text54"
       style="font-size:10.6667px"
       transform="translate(0.1982747,4.5810431)"><tspan
         style="fill:#ffffff;fill-opacity:1"
         id="tspan118">ground </tspan></text>
    <path
       fill-rule="evenodd"
       d="m 577.80356,582.5365 h 59.3 z"
       class="g1_51"
       id="path55" />
    <path
       d="m 577.80356,582.5365 h 59.3"
       class="g2_51"
       id="path56" />
    <path
       fill-rule="evenodd"
       d="m 502.70356,501.8365 h 113.5 v 72.2 h -113.5 z"
       class="g1_51"
       id="path57" />
    <g
       clip-path="url(#c0_51)"
       id="g61"
       transform="translate(-72.610408,1.8414583)">
      <text
         x="509.48541"
         y="507.69122"
         class="s6_51"
         id="text57"><tspan
           sodipodi:role="line"
           id="tspan119"
           x="509.48541"
           y="507.69122">the position of the Point</tspan><tspan
           sodipodi:role="line"
           id="tspan120"
           x="509.48541"
           y="524.87872">should be accurate in</tspan><tspan
           sodipodi:role="line"
           x="509.48541"
           y="542.06622"
           id="tspan121">three dimensions</tspan></text>
      <text
         x="539.20001"
         y="519.90002"
         class="s7_51"
         id="text58"> </text>
      <text
         x="507.89999"
         y="536.40002"
         class="s6_51"
         id="text59" />
      <text
         x="515.5"
         y="536.40002"
         class="s7_51"
         id="text60"> </text>
      <text
         x="507.89999"
         y="552.90002"
         class="s7_51"
         id="text61"> </text>
    </g>
    <path
       fill-rule="evenodd"
       d="m 960.60356,468.6365 v 0 c 4.6,0 8.3,-3.8 8.3,-8.3 v -96.9 c 0,-2.2 -0.9,-4.3 -2.4,-5.9 -1.6,-1.6 -3.7,-2.4 -5.9,-2.4 h -33.2 c -4.6,0 -8.3,3.7 -8.3,8.3 v 96.9 c 0,4.5 3.7,8.3 8.3,8.3 z"
       class="g5_51"
       id="path61" />
    <path
       d="m 960.60356,468.6365 v 0 c 4.6,0 8.3,-3.8 8.3,-8.3 v -96.9 c 0,-2.2 -0.9,-4.3 -2.4,-5.9 -1.6,-1.6 -3.7,-2.4 -5.9,-2.4 h -33.2 c -4.6,0 -8.3,3.7 -8.3,8.3 v 96.9 c 0,4.5 3.7,8.3 8.3,8.3 z"
       class="g6_51"
       id="path62" />
    <path
       fill-rule="evenodd"
       d="m 944.00356,458.5365 v 0 c 7.5,0 13.5,-6.3 13.5,-14.1 0,-3.7 -1.4,-7.3 -4,-10 -2.5,-2.6 -5.9,-4.1 -9.5,-4.1 -7.5,0 -13.6,6.3 -13.6,14.1 0,7.8 6.1,14.1 13.6,14.1 z"
       class="g7_51"
       id="path63" />
    <path
       d="m 944.00356,458.5365 v 0 c 7.5,0 13.5,-6.3 13.5,-14.1 0,-3.7 -1.4,-7.3 -4,-10 -2.5,-2.6 -5.9,-4.1 -9.5,-4.1 -7.5,0 -13.6,6.3 -13.6,14.1 0,7.8 6.1,14.1 13.6,14.1 z"
       class="g6_51"
       id="path64" />
    <path
       fill-rule="evenodd"
       d="m 944.00356,425.9365 v 0 c 7.5,0 13.5,-6.3 13.5,-14.1 0,-3.7 -1.4,-7.3 -4,-10 -2.5,-2.6 -5.9,-4.1 -9.5,-4.1 -7.5,0 -13.6,6.3 -13.6,14.1 0,7.8 6.1,14.1 13.6,14.1 z"
       class="g8_51"
       id="path65" />
    <path
       d="m 944.00356,425.9365 v 0 c 7.5,0 13.5,-6.3 13.5,-14.1 0,-3.7 -1.4,-7.3 -4,-10 -2.5,-2.6 -5.9,-4.1 -9.5,-4.1 -7.5,0 -13.6,6.3 -13.6,14.1 0,7.8 6.1,14.1 13.6,14.1 z"
       class="g6_51"
       id="path66" />
    <path
       fill-rule="evenodd"
       d="m 944.00356,393.4365 v 0 c 7.5,0 13.5,-6.4 13.5,-14.2 0,-3.7 -1.4,-7.3 -4,-10 -2.5,-2.6 -5.9,-4.1 -9.5,-4.1 -7.5,0 -13.6,6.3 -13.6,14.1 0,7.8 6.1,14.2 13.6,14.2 z"
       class="g9_51"
       id="path67" />
    <path
       d="m 944.00356,393.4365 v 0 c 7.5,0 13.5,-6.4 13.5,-14.2 0,-3.7 -1.4,-7.3 -4,-10 -2.5,-2.6 -5.9,-4.1 -9.5,-4.1 -7.5,0 -13.6,6.3 -13.6,14.1 0,7.8 6.1,14.2 13.6,14.2 z"
       class="g6_51"
       id="path68" />
    <path
       fill-rule="evenodd"
       d="m 926.80356,468.5365 42.1,-0.7 z"
       class="g1_51"
       id="path69" />
    <path
       d="m 926.80356,468.5365 42.1,-0.7"
       class="ga_51"
       id="path70" />
    <path
       fill-rule="evenodd"
       d="m 911.70356,468.5365 v 0 c 0,-4.1 3.4,-7.5 7.5,-7.5 2,0 4,0.8 5.4,2.2 1.4,1.4 2.2,3.3 2.2,5.3 0,4.2 -3.4,7.5 -7.6,7.5 -4.1,0 -7.5,-3.3 -7.5,-7.5 z"
       class="g5_51"
       id="path71" />
    <path
       d="m 911.70356,468.5365 v 0 c 0,-4.1 3.4,-7.5 7.5,-7.5 2,0 4,0.8 5.4,2.2 1.4,1.4 2.2,3.3 2.2,5.3 0,4.2 -3.4,7.5 -7.6,7.5 -4.1,0 -7.5,-3.3 -7.5,-7.5 z"
       class="g6_51"
       id="path72" />
    <path
       fill-rule="evenodd"
       d="m 907.80356,461.1365 h 19 v 14.9 h -19 z"
       class="g1_51"
       id="path73" />
    <text
       clip-path="url(#c0_51)"
       x="911.40002"
       y="466.20001"
       class="s8_51"
       id="text73"
       transform="translate(5.1035649,5.4364952)">1 </text>
    <path
       fill-rule="evenodd"
       d="m 963.80356,468.5365 v 0 c 0,-4.1 3.4,-7.5 7.5,-7.5 2,0 4,0.8 5.4,2.2 1.4,1.4 2.2,3.3 2.2,5.3 0,4.2 -3.4,7.5 -7.6,7.5 -4.1,0 -7.5,-3.3 -7.5,-7.5 z"
       class="g5_51"
       id="path74" />
    <path
       d="m 963.80356,468.5365 v 0 c 0,-4.1 3.4,-7.5 7.5,-7.5 2,0 4,0.8 5.4,2.2 1.4,1.4 2.2,3.3 2.2,5.3 0,4.2 -3.4,7.5 -7.6,7.5 -4.1,0 -7.5,-3.3 -7.5,-7.5 z"
       class="g6_51"
       id="path75" />
    <path
       fill-rule="evenodd"
       d="m 960.00356,461.1365 h 18.9 v 14.9 h -18.9 z"
       class="g1_51"
       id="path76" />
    <text
       clip-path="url(#c0_51)"
       x="963.5"
       y="466.20001"
       class="s8_51"
       id="text76"
       transform="translate(5.1035649,5.4364952)">2 </text>
    <path
       fill-rule="evenodd"
       d="m 926.60356,512.0365 h 18.9 l -4.6,-41.2 33,41.2 h 66.20004 v 67.8 H 926.60356 v -56.5 z"
       class="gb_51"
       id="path77" />
    <path
       d="m 926.60356,512.0365 h 18.9 l -4.6,-41.2 33,41.2 h 66.20004 v 67.8 H 926.60356 v -56.5 z"
       class="g6_51"
       id="path78" />
    <g
       clip-path="url(#c0_51)"
       id="g81"
       transform="translate(0.0934649,5.4364952)">
      <text
         x="931.79999"
         y="522.40002"
         class="s9_51"
         id="text78">Linestring </text>
      <text
         x="931.79999"
         y="537.29999"
         class="s9_51"
         id="text79">points: 1-2 </text>
      <text
         x="931.79999"
         y="552.20001"
         dx="0 0 0 0 0 0 0 0 0 0 -0.2 0 0 0 0 0 0 0 0"
         class="s9_51"
         id="text80">type: traffic_light </text>
      <text
         x="931.79999"
         y="567.09998"
         class="s9_51"
         id="text81">height: 1.2 </text>
    </g>
    <path
       fill-rule="evenodd"
       d="m 901.70356,361.6365 v 108 z"
       class="g1_51"
       id="path81" />
    <path
       d="m 901.70356,365.6365 v 100.1"
       class="g6_51"
       id="path82" />
    <path
       fill-rule="evenodd"
       d="m 901.70356,365.6365 1.3,1.3 -1.3,-3.6 -1.3,3.6 z"
       class="gc_51"
       id="path83" />
    <path
       fill-rule="evenodd"
       d="m 901.70356,465.7365 -1.3,-1.3 1.3,3.5 1.3,-3.5 z"
       class="gc_51"
       id="path84" />
    <path
       fill-rule="evenodd"
       d="m 865.70356,452.5365 v -73.8 h 46.8 v 73.8 z"
       class="g1_51"
       id="path85" />
    <g
       clip-path="url(#c0_51)"
       id="g85"
       transform="translate(5.1035649,5.4364952)">
      <text
         transform="rotate(-90,661.95,-225.15)"
         class="sa_51"
         id="text85">height </text>
    </g>
    <path
       fill-rule="evenodd"
       d="m 715.10356,382.0365 v 0 c 0,-4.6 -3.7,-8.3 -8.3,-8.3 h -96.9 c -2.2,0 -4.3,0.9 -5.8,2.4 -1.6,1.6 -2.5,3.7 -2.5,5.9 v 33.2 c 0,4.6 3.7,8.3 8.3,8.3 h 96.9 c 4.6,0 8.3,-3.7 8.3,-8.3 z"
       class="g5_51"
       id="path86" />
    <path
       d="m 715.10356,382.0365 v 0 c 0,-4.6 -3.7,-8.3 -8.3,-8.3 h -96.9 c -2.2,0 -4.3,0.9 -5.8,2.4 -1.6,1.6 -2.5,3.7 -2.5,5.9 v 33.2 c 0,4.6 3.7,8.3 8.3,8.3 h 96.9 c 4.6,0 8.3,-3.7 8.3,-8.3 z"
       class="g6_51"
       id="path87" />
    <path
       fill-rule="evenodd"
       d="m 705.10356,398.6365 v 0 c 0,-7.5 -6.3,-13.5 -14.1,-13.5 -3.8,0 -7.4,1.4 -10,3.9 -2.7,2.6 -4.2,6 -4.2,9.6 0,7.5 6.4,13.6 14.2,13.6 7.8,0 14.1,-6.1 14.1,-13.6 z"
       class="g7_51"
       id="path88" />
    <path
       d="m 705.10356,398.6365 v 0 c 0,-7.5 -6.3,-13.5 -14.1,-13.5 -3.8,0 -7.4,1.4 -10,3.9 -2.7,2.6 -4.2,6 -4.2,9.6 0,7.5 6.4,13.6 14.2,13.6 7.8,0 14.1,-6.1 14.1,-13.6 z"
       class="g6_51"
       id="path89" />
    <path
       fill-rule="evenodd"
       d="m 672.50356,398.6365 v 0 c 0,-7.5 -6.3,-13.5 -14.1,-13.5 -3.8,0 -7.4,1.4 -10,3.9 -2.7,2.6 -4.2,6 -4.2,9.6 0,7.5 6.4,13.6 14.2,13.6 7.8,0 14.1,-6.1 14.1,-13.6 z"
       class="g8_51"
       id="path90" />
    <path
       d="m 672.50356,398.6365 v 0 c 0,-7.5 -6.3,-13.5 -14.1,-13.5 -3.8,0 -7.4,1.4 -10,3.9 -2.7,2.6 -4.2,6 -4.2,9.6 0,7.5 6.4,13.6 14.2,13.6 7.8,0 14.1,-6.1 14.1,-13.6 z"
       class="g6_51"
       id="path91" />
    <path
       fill-rule="evenodd"
       d="m 639.90356,398.6365 v 0 c 0,-7.5 -6.3,-13.5 -14.1,-13.5 -3.8,0 -7.4,1.4 -10,3.9 -2.7,2.6 -4.2,6 -4.2,9.6 0,7.5 6.4,13.6 14.2,13.6 7.8,0 14.1,-6.1 14.1,-13.6 z"
       class="g9_51"
       id="path92" />
    <path
       d="m 639.90356,398.6365 v 0 c 0,-7.5 -6.3,-13.5 -14.1,-13.5 -3.8,0 -7.4,1.4 -10,3.9 -2.7,2.6 -4.2,6 -4.2,9.6 0,7.5 6.4,13.6 14.2,13.6 7.8,0 14.1,-6.1 14.1,-13.6 z"
       class="g6_51"
       id="path93" />
    <path
       fill-rule="evenodd"
       d="m 610.10356,425.9365 h 96.5 z"
       class="g1_51"
       id="path94" />
    <path
       d="m 610.10356,425.9365 h 96.5"
       class="ga_51"
       id="path95" />
    <path
       fill-rule="evenodd"
       d="m 599.20356,425.9365 v 0 c 0,-4.2 3.3,-7.5 7.5,-7.5 2,0 3.9,0.8 5.3,2.2 1.4,1.4 2.2,3.3 2.2,5.3 0,4.2 -3.3,7.5 -7.5,7.5 -4.2,0 -7.5,-3.3 -7.5,-7.5 z"
       class="g5_51"
       id="path96" />
    <path
       d="m 599.20356,425.9365 v 0 c 0,-4.2 3.3,-7.5 7.5,-7.5 2,0 3.9,0.8 5.3,2.2 1.4,1.4 2.2,3.3 2.2,5.3 0,4.2 -3.3,7.5 -7.5,7.5 -4.2,0 -7.5,-3.3 -7.5,-7.5 z"
       class="g6_51"
       id="path97" />
    <path
       fill-rule="evenodd"
       d="m 595.30356,418.4365 h 19 v 15 h -19 z"
       class="g1_51"
       id="path98" />
    <text
       clip-path="url(#c0_51)"
       x="598.79999"
       y="423.60001"
       class="s8_51"
       id="text98"
       transform="translate(5.1035649,5.4364952)">1 </text>
    <path
       fill-rule="evenodd"
       d="m 702.70356,425.9365 v 0 c 0,-4.2 3.3,-7.5 7.5,-7.5 2,0 3.9,0.8 5.3,2.2 1.5,1.4 2.3,3.3 2.3,5.3 0,4.2 -3.4,7.5 -7.6,7.5 -4.2,0 -7.5,-3.3 -7.5,-7.5 z"
       class="g5_51"
       id="path99" />
    <path
       d="m 702.70356,425.9365 v 0 c 0,-4.2 3.3,-7.5 7.5,-7.5 2,0 3.9,0.8 5.3,2.2 1.5,1.4 2.3,3.3 2.3,5.3 0,4.2 -3.4,7.5 -7.6,7.5 -4.2,0 -7.5,-3.3 -7.5,-7.5 z"
       class="g6_51"
       id="path100" />
    <path
       fill-rule="evenodd"
       d="m 698.80356,418.4365 h 19 v 15 h -19 z"
       class="g1_51"
       id="path101" />
    <text
       clip-path="url(#c0_51)"
       x="702.40002"
       y="423.60001"
       class="s8_51"
       id="text101"
       transform="translate(5.1035649,5.4364952)">2 </text>
    <path
       fill-rule="evenodd"
       d="m 651.90356,512.0365 h 18.9 l -11.9,-84.4 40.3,84.4 h 66.2 v 67.8 h -113.5 v -56.5 z"
       class="gb_51"
       id="path102" />
    <path
       d="m 651.90356,512.0365 h 18.9 l -11.9,-84.4 40.3,84.4 h 66.2 v 67.8 h -113.5 v -56.5 z"
       class="g6_51"
       id="path103" />
    <g
       clip-path="url(#c0_51)"
       id="g106"
       transform="translate(0.54913876,5.9392942)">
      <text
         x="657.09998"
         y="522.40002"
         class="s9_51"
         id="text103">Linestring </text>
      <text
         x="657.09998"
         y="537.29999"
         class="s9_51"
         id="text104">points: 1-2 </text>
      <text
         x="657.09998"
         y="552.20001"
         dx="0 0 0 0 0 0 0 0 0 0 -0.2 0 0 0 0 0 0 0 0"
         class="s9_51"
         id="text105">type: traffic_light </text>
      <text
         x="657.09998"
         y="567.09998"
         class="s9_51"
         id="text106">height: 0.5 m </text>
    </g>
    <path
       fill-rule="evenodd"
       d="m 595.30356,377.4365 v 46.3 z"
       class="g1_51"
       id="path106" />
    <path
       d="m 595.30356,381.4365 v 38.4"
       class="g6_51"
       id="path107" />
    <path
       fill-rule="evenodd"
       d="m 595.30356,381.4365 1.3,1.2 -1.3,-3.5 -1.3,3.5 z"
       class="gc_51"
       id="path108" />
    <path
       fill-rule="evenodd"
       d="m 595.30356,419.8365 -1.3,-1.3 1.3,3.6 1.3,-3.6 z"
       class="gc_51"
       id="path109" />
    <path
       fill-rule="evenodd"
       d="m 559.80356,426.4365 v -73.8 h 46.8 v 73.8 z"
       class="g1_51"
       id="path110" />
    <g
       clip-path="url(#c0_51)"
       id="g110"
       transform="translate(5.1035649,5.4364952)">
      <text
         transform="rotate(-90,495.95,-85.25)"
         class="sa_51"
         id="text110">height </text>
    </g>
    <path
       fill-rule="evenodd"
       d="m 510.70356,436.3365 h 92.7 v 38.9 h -92.7 z"
       class="g1_51"
       id="path111" />
    <text
       clip-path="url(#c0_51)"
       x="515.90002"
       y="454.39999"
       class="s7_51"
       id="text111"
       transform="translate(-74.078094,5.9679839)">left end as start point </text>
    <path
       fill-rule="evenodd"
       d="m 738.90356,426.4365 h 96.4 v 38.9 h -96.4 z"
       class="g1_51"
       id="path112" />
    <text
       clip-path="url(#c0_51)"
       x="744.09998"
       y="444.5"
       class="s7_51"
       id="text112"
       transform="translate(-47.522382,12.492786)">right end as end point</text>
    <path
       fill-rule="evenodd"
       d="m 561.10356,447.1365 42.3,-19.1 z"
       class="g1_51"
       id="path113" />
    <path
       d="m 561.10356,447.1365 36,-16.2"
       class="g2_51"
       id="path114" />
    <path
       fill-rule="evenodd"
       d="m 597.90356,432.6365 4,-3.9 -5.5,0.4 z"
       class="g3_51"
       id="path115" />
    <path
       fill-rule="evenodd"
       d="m 738.90356,445.8365 -21.1,-19.9 z"
       class="g1_51"
       id="path116" />
    <path
       d="m 738.90356,445.8365 -16.1,-15.1"
       class="g2_51"
       id="path117" />
    <path
       fill-rule="evenodd"
       d="m 724.10356,429.3365 -5.1,-2.2 2.5,4.9 z"
       class="g3_51"
       id="path118" />
  </g>
  <!-- Any embedded fonts defined here -->
  <style
     type="text/css"
     id="style118"><![CDATA[

@font-face {
	font-family: ArialMT_bj;
	src: url("fonts/ArialMT_bj.woff") format("woff");
}

@font-face {
	font-family: MS-PGothic_bn;
	src: url("fonts/MS-PGothic_bn.woff") format("woff");
}

@font-face {
	font-family: QuattrocentoSans_ca;
	src: url("fonts/QuattrocentoSans_ca.woff") format("woff");
}

]]></style>
</svg>
