<?xml version="1.0" encoding="UTF-8" standalone="no"?>
<!-- Created with Inkscape (http://www.inkscape.org/) -->

<svg
   width="29.733mm"
   height="41.243mm"
   viewBox="0 0 29.733 41.243"
   version="1.1"
   id="svg1"
   inkscape:version="1.3.2 (1:1.3.2+202311252150+091e20ef0f)"
   sodipodi:docname="vm-01-03_1.svg"
   xmlns:inkscape="http://www.inkscape.org/namespaces/inkscape"
   xmlns:sodipodi="http://sodipodi.sourceforge.net/DTD/sodipodi-0.dtd"
   xmlns="http://www.w3.org/2000/svg"
   xmlns:svg="http://www.w3.org/2000/svg">
  <sodipodi:namedview
     id="namedview1"
     pagecolor="#ffffff"
     bordercolor="#000000"
     borderopacity="0.25"
     inkscape:showpageshadow="2"
     inkscape:pageopacity="0.0"
     inkscape:pagecheckerboard="0"
     inkscape:deskcolor="#d1d1d1"
     inkscape:document-units="mm"
     inkscape:zoom="1.7131103"
     inkscape:cx="308.21133"
     inkscape:cy="-100.69404"
     inkscape:window-width="3840"
     inkscape:window-height="2123"
     inkscape:window-x="0"
     inkscape:window-y="0"
     inkscape:window-maximized="1"
     inkscape:current-layer="layer1" />
  <defs
     id="defs1" />
  <g
     inkscape:label="Layer 1"
     inkscape:groupmode="layer"
     id="layer1"
     transform="translate(-23.547915,-175.15417)">
    <path
       fill-rule="evenodd"
       d="m 26.437936,178.64938 h 23.733125 v 35.2425 H 26.437936 Z"
       class="g3_11"
       id="path138"
       style="display:block;fill:#999999;stroke-width:0.264583" />
    <path
       fill-rule="evenodd"
       d="m 27.707936,178.64938 0.02646,34.95146 z"
       class="g1_11"
       id="path139"
       style="display:block;fill:#000000;fill-opacity:0;stroke-width:0.264583" />
    <path
       d="m 27.707936,178.64938 0.02646,34.95146"
       class="g4_11"
       id="path140"
       style="display:block;fill:none;stroke:#ffffff;stroke-width:0.909373;stroke-linejoin:round" />
    <path
       fill-rule="evenodd"
       d="m 38.211895,178.75521 -0.05292,35.03083 z"
       class="g1_11"
       id="path141"
       style="display:block;fill:#000000;fill-opacity:0;stroke-width:0.264583" />
    <path
       d="m 38.211895,178.75521 -0.05292,35.03083"
       class="g5_11"
       id="path142"
       style="display:block;fill:none;stroke:#ff9900;stroke-width:0.909373;stroke-linejoin:round" />
    <path
       fill-rule="evenodd"
       d="m 32.973145,178.75521 -0.05292,35.03083 z"
       class="g1_11"
       id="path143"
       style="display:block;fill:#000000;fill-opacity:0;stroke-width:0.264583" />
    <path
       d="m 32.973145,178.75521 -0.05292,35.03083"
       class="g6_11"
       id="path144"
       style="display:block;fill:none;stroke:#ffffff;stroke-width:0.909373;stroke-linejoin:round;stroke-dasharray:3.70417, 2.91042" />
    <path
       fill-rule="evenodd"
       d="m 43.450645,178.75521 -0.05292,35.03083 z"
       class="g1_11"
       id="path145"
       style="display:block;fill:#000000;fill-opacity:0;stroke-width:0.264583" />
    <path
       d="m 43.450645,178.75521 -0.05292,35.03083"
       class="g6_11"
       id="path146"
       style="display:block;fill:none;stroke:#ffffff;stroke-width:0.909373;stroke-linejoin:round;stroke-dasharray:3.70417, 2.91042" />
    <path
       fill-rule="evenodd"
       d="m 48.689395,178.75521 -0.05292,35.03083 z"
       class="g1_11"
       id="path147"
       style="display:block;fill:#000000;fill-opacity:0;stroke-width:0.264583" />
    <path
       d="m 48.689395,178.75521 -0.05292,35.03083"
       class="g4_11"
       id="path148"
       style="display:block;fill:none;stroke:#ffffff;stroke-width:0.909373;stroke-linejoin:round" />
    <path
       fill-rule="evenodd"
       d="m 28.581061,207.54188 v 0 c 0,-0.0265 0.02646,-0.0529 0.05292,-0.0529 h 0.211667 q 0.02646,0 0.05292,0.0265 c 0,0 0,0.0265 0,0.0265 v 0.89958 c 0,0.0265 -0.02646,0.0529 -0.05292,0.0529 h -0.211667 c -0.02646,0 -0.05292,-0.0265 -0.05292,-0.0529 z"
       class="gb_11"
       id="path149"
       style="display:block;fill:#000000;stroke-width:0.264583" />
    <path
       fill-rule="evenodd"
       d="m 31.544395,207.54188 v 0 c 0,-0.0265 0.02646,-0.0529 0.05292,-0.0529 h 0.211667 q 0.02646,0 0.05292,0.0265 c 0,0 0,0.0265 0,0.0265 v 0.89958 c 0,0.0265 -0.02646,0.0529 -0.05292,0.0529 h -0.211671 c -0.02646,0 -0.05292,-0.0265 -0.05292,-0.0529 z"
       class="gb_11"
       id="path150"
       style="display:block;fill:#000000;stroke-width:0.264583" />
    <path
       fill-rule="evenodd"
       d="m 28.581061,211.24604 v 0 c 0,-0.0265 0.02646,-0.0529 0.05292,-0.0529 h 0.211667 q 0.02646,0 0.05292,0 0,0.0265 0,0.0529 v 0.89959 c 0,0.0265 -0.02646,0.0529 -0.05292,0.0529 h -0.211667 c -0.02646,0 -0.05292,-0.0264 -0.05292,-0.0529 z"
       class="gb_11"
       id="path151"
       style="display:block;fill:#000000;stroke-width:0.264583" />
    <path
       fill-rule="evenodd"
       d="m 31.544395,211.24604 v 0 c 0,-0.0265 0.02646,-0.0529 0.05292,-0.0529 h 0.211667 q 0.02646,0 0.05292,0 0,0.0265 0,0.0529 v 0.89959 c 0,0.0265 -0.02646,0.0529 -0.05292,0.0529 h -0.211671 c -0.02646,0 -0.05292,-0.0264 -0.05292,-0.0529 z"
       class="gb_11"
       id="path152"
       style="display:block;fill:#000000;stroke-width:0.264583" />
    <path
       fill-rule="evenodd"
       d="m 28.686895,207.40959 v 0 c 0,-0.47625 0.396875,-0.84667 0.873125,-0.84667 h 1.375833 c 0.238125,0 0.449792,0.0794 0.608542,0.23812 0.15875,0.15875 0.264583,0.39688 0.264583,0.60855 v 4.84187 c 0,0.47625 -0.396875,0.84667 -0.873125,0.84667 H 29.56002 c -0.47625,0 -0.873125,-0.37042 -0.873125,-0.84667 z"
       class="gc_11"
       id="path153"
       style="display:block;fill:#3d85c6;stroke-width:0.264583" />
    <path
       fill-rule="evenodd"
       d="m 29.930436,206.51 v 0 c 0,0 0.02646,-0.0265 0.02646,-0.0265 h 0.555625 v 0.0265 q 0.02646,0 0.02646,0 v 0.10584 c 0,0 -0.02646,0.0265 -0.02646,0.0265 h -0.555625 c 0,0 -0.02646,-0.0265 -0.02646,-0.0265 z"
       class="gd_11"
       id="path154"
       style="display:block;fill:#efefef;stroke-width:0.264583" />
    <path
       fill-rule="evenodd"
       d="m 29.136686,206.8275 0.02646,0.18521 0.238125,-0.0529 0.05292,-0.0265 0.02646,-0.0265 v -0.0794 l -0.02646,-0.0265 -0.05292,-0.0265 -0.105834,0.0265 z"
       class="g0_11"
       id="path155"
       style="display:block;fill:#ffffff;stroke-width:0.264583" />
    <path
       fill-rule="evenodd"
       d="m 31.332728,206.8275 -0.02646,0.18521 -0.238125,-0.0529 -0.05292,-0.0265 -0.02646,-0.0265 v -0.0794 l 0.02646,-0.0265 0.05292,-0.0265 0.105833,0.0265 z"
       class="g0_11"
       id="path156"
       style="display:block;fill:#ffffff;stroke-width:0.264583" />
    <path
       fill-rule="evenodd"
       d="m 29.057311,208.62667 0.211667,0.66146 0.02646,0.0265 0.05292,0.0529 h 1.719792 l 0.05292,-0.0265 0.05292,-0.0529 0.211667,-0.55563 v -0.0794 l -0.02646,-0.0794 -0.238125,-0.0794 -0.370416,-0.0529 -0.264584,-0.0529 h -0.343958 l -0.185208,0.0265 h -0.15875 l -0.211667,0.0265 -0.185208,0.0529 -0.132292,0.0529 -0.132292,0.0529 z"
       class="ge_11"
       id="path157"
       style="display:block;fill:#9fc5e8;stroke-width:0.264583" />
    <path
       d="m 29.057311,208.62667 0.211667,0.66146 0.02646,0.0265 0.05292,0.0529 h 1.719792 l 0.05292,-0.0265 0.05292,-0.0529 0.211667,-0.55563 v -0.0794 l -0.02646,-0.0794 -0.238125,-0.0794 -0.370416,-0.0529 -0.264584,-0.0529 h -0.343958 l -0.185208,0.0265 h -0.15875 l -0.211667,0.0265 -0.185208,0.0529 -0.132292,0.0529 -0.132292,0.0529 z"
       class="gf_11"
       id="path158"
       style="display:block;fill:none;stroke:#073763;stroke-width:0.302948;stroke-linejoin:round" />
    <path
       fill-rule="evenodd"
       d="m 28.872103,208.86479 v 3.25438 l 0.02646,0.0529 0.05292,0.0264 0.238125,-0.21166 0.07937,-0.13229 0.02646,-0.1323 -0.02646,-1.905 -0.02646,-0.13229 -0.07938,-0.23812 -0.105834,-0.26459 z"
       class="ge_11"
       id="path159"
       style="display:block;fill:#9fc5e8;stroke-width:0.264583" />
    <path
       d="m 28.872103,208.86479 v 3.25438 l 0.02646,0.0529 0.05292,0.0264 0.238125,-0.21166 0.07937,-0.13229 0.02646,-0.1323 -0.02646,-1.905 -0.02646,-0.13229 -0.07938,-0.23812 -0.105834,-0.26459 z"
       class="gf_11"
       id="path160"
       style="display:block;fill:none;stroke:#073763;stroke-width:0.302948;stroke-linejoin:round" />
    <path
       fill-rule="evenodd"
       d="m 31.62377,208.89125 v 3.30729 l -0.07937,0.0265 -0.238125,-0.21166 -0.07937,-0.1323 -0.02646,-0.10583 0.02646,-1.905 0.02646,-0.15875 0.105833,-0.23812 0.07937,-0.26459 z"
       class="ge_11"
       id="path161"
       style="display:block;fill:#9fc5e8;stroke-width:0.264583" />
    <path
       d="m 31.62377,208.89125 v 3.30729 l -0.07937,0.0265 -0.238125,-0.21166 -0.07937,-0.1323 -0.02646,-0.10583 0.02646,-1.905 0.02646,-0.15875 0.105833,-0.23812 0.07937,-0.26459 z"
       class="gf_11"
       id="path162"
       style="display:block;fill:none;stroke:#073763;stroke-width:0.302948;stroke-linejoin:round" />
    <path
       fill-rule="evenodd"
       d="m 28.872103,208.81188 h -0.211667 l -0.105833,0.0529 -0.05292,0.0265 v 0.10584 l 0.02646,0.0529 0.07937,0.0265 0.105833,0.0265 h 0.07937 l 0.07937,-0.0529 0.05292,-0.0529 v -0.0794 l -0.02646,-0.0529 z"
       class="gg_11"
       id="path163"
       style="display:block;fill:#0b5394;stroke-width:0.264583" />
    <path
       fill-rule="evenodd"
       d="m 31.597311,208.81188 h 0.211667 l 0.105833,0.0529 0.05292,0.0265 0.02646,0.0529 v 0.0529 l -0.05292,0.0529 -0.07937,0.0265 -0.105834,0.0265 h -0.07938 l -0.07937,-0.0529 -0.05292,-0.0529 v -0.0794 l 0.02646,-0.0529 z"
       class="gg_11"
       id="path164"
       style="display:block;fill:#0b5394;stroke-width:0.264583" />
    <path
       fill-rule="evenodd"
       d="m 29.930436,213.01875 v 0 c 0,0 0.02646,-0.0265 0.02646,-0.0265 h 0.555625 c 0,0 0,0.0265 0,0.0265 q 0.02646,0 0.02646,0 v 0.10584 c 0,0 -0.02646,0.0265 -0.02646,0.0265 h -0.555625 c 0,0 -0.02646,-0.0265 -0.02646,-0.0265 z"
       class="gd_11"
       id="path165"
       style="display:block;fill:#efefef;stroke-width:0.264583" />
    <path
       fill-rule="evenodd"
       d="m 29.136686,213.12459 0.02646,-0.18521 0.238125,0.0529 0.05292,0.0265 0.02646,0.0265 v 0.0794 l -0.02646,0.0265 -0.05292,0.0265 h -0.105834 z"
       class="gg_11"
       id="path166"
       style="display:block;fill:#0b5394;stroke-width:0.264583" />
    <path
       fill-rule="evenodd"
       d="m 31.332728,213.12459 -0.02646,-0.18521 -0.238125,0.0529 -0.05292,0.0265 -0.02646,0.0265 v 0.0794 l 0.02646,0.0265 0.05292,0.0265 h 0.105833 z"
       class="gg_11"
       id="path167"
       style="display:block;fill:#0b5394;stroke-width:0.264583" />
    <path
       fill-rule="evenodd"
       d="m 29.454186,212.06625 h -0.05292 l -0.396875,0.34396 -0.05292,0.0794 0.02646,0.0794 0.105834,0.0794 0.15875,0.0794 0.238125,0.0529 0.264583,0.0265 0.264583,0.0265 h 0.529167 l 0.291042,-0.0265 0.291041,-0.0529 0.211667,-0.0794 0.15875,-0.10583 0.02646,-0.0794 -0.05292,-0.0794 -0.370417,-0.3175 -0.05292,-0.0265 h -1.217083 z"
       class="ge_11"
       id="path168"
       style="display:block;fill:#9fc5e8;stroke-width:0.264583" />
    <path
       d="m 29.454186,212.06625 h -0.05292 l -0.396875,0.34396 -0.05292,0.0794 0.02646,0.0794 0.105834,0.0794 0.15875,0.0794 0.238125,0.0529 0.264583,0.0265 0.264583,0.0265 h 0.529167 l 0.291042,-0.0265 0.291041,-0.0529 0.211667,-0.0794 0.15875,-0.10583 0.02646,-0.0794 -0.05292,-0.0794 -0.370417,-0.3175 -0.05292,-0.0265 h -1.217083 z"
       class="gf_11"
       id="path169"
       style="display:block;fill:none;stroke:#073763;stroke-width:0.302948;stroke-linejoin:round" />
    <path
       fill-rule="evenodd"
       d="m 29.480645,206.85396 c 0.07938,-0.0265 0.264583,-0.0265 0.396875,-0.0529 0.15875,0 0.370416,0 0.502708,0 0.132292,0 0.211667,0.0265 0.3175,0.0265 0.07937,0 0.211667,0.0265 0.264583,0.0265 z"
       class="g1_11"
       id="path170"
       style="display:block;fill:#000000;fill-opacity:0;stroke-width:0.264583" />
    <path
       d="m 29.480645,206.85396 c 0.07938,-0.0265 0.264583,-0.0265 0.396875,-0.0529 0.15875,0 0.370416,0 0.502708,0 0.132292,0 0.211667,0.0265 0.3175,0.0265 0.07937,0 0.211667,0.0265 0.264583,0.0265"
       class="gf_11"
       id="path171"
       style="display:block;fill:none;stroke:#073763;stroke-width:0.302948;stroke-linejoin:round" />
    <path
       fill-rule="evenodd"
       d="m 29.030853,207.01271 c 0,0.0265 -0.05292,0.0265 -0.05292,0.0794 -0.02646,0.0265 -0.02646,0.0794 -0.02646,0.1852 -0.02646,0.10584 -0.05292,0.26459 -0.07938,0.37042 0,0.13229 0,0.23813 0,0.34396 0,0.0794 0.02646,0.18521 0.05292,0.29104 0.02646,0.10583 0.07938,0.29104 0.105833,0.34396 z"
       class="g1_11"
       id="path172"
       style="display:block;fill:#000000;fill-opacity:0;stroke-width:0.264583" />
    <path
       d="m 29.030853,207.01271 c 0,0.0265 -0.05292,0.0265 -0.05292,0.0794 -0.02646,0.0265 -0.02646,0.0794 -0.02646,0.1852 -0.02646,0.10584 -0.05292,0.26459 -0.07938,0.37042 0,0.13229 0,0.23813 0,0.34396 0,0.0794 0.02646,0.18521 0.05292,0.29104 0.02646,0.10583 0.07938,0.29104 0.105833,0.34396"
       class="gf_11"
       id="path173"
       style="display:block;fill:none;stroke:#073763;stroke-width:0.302948;stroke-linejoin:round" />
    <path
       fill-rule="evenodd"
       d="m 31.438561,206.98625 c 0,0.0265 0.02646,0.0529 0.02646,0.10584 0.02646,0.0265 0.02646,0.0794 0.05292,0.13229 0,0.0794 0.02646,0.18521 0.02646,0.26458 0.02646,0.0794 0.02646,0.18521 0.02646,0.29104 0,0.10584 0,0.23813 0,0.3175 0,0.0794 0,0.0529 -0.02646,0.13229 0,0.0794 -0.07938,0.3175 -0.105834,0.37042 z"
       class="g1_11"
       id="path174"
       style="display:block;fill:#000000;fill-opacity:0;stroke-width:0.264583" />
    <path
       d="m 31.438561,206.98625 c 0,0.0265 0.02646,0.0529 0.02646,0.10584 0.02646,0.0265 0.02646,0.0794 0.05292,0.13229 0,0.0794 0.02646,0.18521 0.02646,0.26458 0.02646,0.0794 0.02646,0.18521 0.02646,0.29104 0,0.10584 0,0.23813 0,0.3175 0,0.0794 0,0.0529 -0.02646,0.13229 0,0.0794 -0.07938,0.3175 -0.105834,0.37042"
       class="gf_11"
       id="path175"
       style="display:block;fill:none;stroke:#073763;stroke-width:0.302948;stroke-linejoin:round" />
    <path
       fill-rule="evenodd"
       d="m 30.538978,208.54729 -0.926042,0.68792 h -0.132291 l -0.07937,-0.0265 -0.05292,-0.0265 -0.05292,-0.0529 -0.15875,-0.37042 v -0.0529 l 0.05292,-0.0265 0.211667,-0.0529 0.264583,-0.0529 0.291042,-0.0265 h 0.423333 z"
       class="gh_11"
       id="path176"
       style="display:block;fill:#cfe2f3;stroke-width:0.264583" />
  </g>
</svg>
