<?xml version="1.0" encoding="UTF-8" standalone="no"?>
<!-- Created with Inkscape (http://www.inkscape.org/) -->

<svg
   width="108.515mm"
   height="53.564999mm"
   viewBox="0 0 108.515 53.564999"
   version="1.1"
   id="svg1"
   inkscape:version="1.3.2 (1:1.3.2+202311252150+091e20ef0f)"
   sodipodi:docname="vm-01-04_3.svg"
   xmlns:inkscape="http://www.inkscape.org/namespaces/inkscape"
   xmlns:sodipodi="http://sodipodi.sourceforge.net/DTD/sodipodi-0.dtd"
   xmlns="http://www.w3.org/2000/svg"
   xmlns:svg="http://www.w3.org/2000/svg">
  <sodipodi:namedview
     id="namedview1"
     pagecolor="#ffffff"
     bordercolor="#000000"
     borderopacity="0.25"
     inkscape:showpageshadow="2"
     inkscape:pageopacity="0.0"
     inkscape:pagecheckerboard="0"
     inkscape:deskcolor="#d1d1d1"
     inkscape:document-units="mm"
     inkscape:zoom="1.7131103"
     inkscape:cx="193.79955"
     inkscape:cy="90.186839"
     inkscape:window-width="3840"
     inkscape:window-height="2123"
     inkscape:window-x="0"
     inkscape:window-y="0"
     inkscape:window-maximized="1"
     inkscape:current-layer="layer1" />
  <defs
     id="defs1">
    <clipPath
       id="c0_12">
      <path
         d="M 0,825 V 0 h 1100 v 825 z"
         id="path2" />
    </clipPath>
    <clipPath
       id="clipPath1">
      <path
         d="M 0,825 V 0 h 1100 v 825 z"
         id="path1" />
    </clipPath>
  </defs>
  <g
     inkscape:label="Layer 1"
     inkscape:groupmode="layer"
     id="layer1"
     transform="translate(-53.710419,-124.61875)">
    <path
       fill-rule="evenodd"
       d="m 55.709949,128.72596 h 20.584583 v 44.68812 H 55.709949 Z"
       class="g3_12"
       id="path60"
       style="display:block;fill:#999999;stroke-width:0.264583" />
    <path
       d="m 55.709949,128.72596 h 20.584583 v 44.68812 H 55.709949 Z"
       class="g4_12"
       id="path61"
       style="display:block;fill:none;stroke:#595959;stroke-width:0.302948;stroke-linejoin:round" />
    <path
       fill-rule="evenodd"
       d="m 57.826615,128.72596 0.05292,44.3177 z"
       class="g1_12"
       id="path62"
       style="display:block;fill:#000000;fill-opacity:0;stroke-width:0.264583" />
    <path
       d="m 57.826615,128.72596 0.05292,44.3177"
       class="g5_12"
       id="path63"
       style="display:block;fill:none;stroke:#f3f3f3;stroke-width:0.909373;stroke-linejoin:round" />
    <path
       fill-rule="evenodd"
       d="m 74.812865,128.83179 -0.07937,44.45 z"
       class="g1_12"
       id="path64"
       style="display:block;fill:#000000;fill-opacity:0;stroke-width:0.264583" />
    <path
       d="m 74.812865,128.83179 -0.07937,44.45"
       class="g5_12"
       id="path65"
       style="display:block;fill:none;stroke:#f3f3f3;stroke-width:0.909373;stroke-linejoin:round" />
    <path
       fill-rule="evenodd"
       d="m 66.346199,128.83179 -0.07937,44.45 z"
       class="g1_12"
       id="path66"
       style="display:block;fill:#000000;fill-opacity:0;stroke-width:0.264583" />
    <path
       d="m 66.346199,128.83179 -0.07937,44.45"
       class="g5_12"
       id="path67"
       style="display:block;fill:none;stroke:#f3f3f3;stroke-width:0.909373;stroke-linejoin:round" />
    <path
       fill-rule="evenodd"
       d="m 58.011824,128.91116 h 8.255 v 44.31771 h -8.255 z"
       class="g6_12"
       id="path68"
       style="display:block;fill:#ea9999;fill-opacity:0.37;stroke-width:0.264583" />
    <path
       fill-rule="evenodd"
       d="m 66.399115,156.34846 h 8.281459 v 16.88041 h -8.281459 z"
       class="ga_12"
       id="path69"
       style="display:block;fill:#9fc5e8;fill-opacity:0.41;stroke-width:0.264583" />
    <path
       fill-rule="evenodd"
       d="m 85.263907,126.00075 h 70.273333 v 22.03979 H 85.263907 Z"
       class="g1_12"
       id="path70"
       style="display:block;fill:#000000;fill-opacity:0;stroke-width:0.264583" />
    <g
       clip-path="url(#c0_12)"
       id="g78"
       style="display:block"
       transform="matrix(0.26458333,0,0,0.26458333,-118.20067,-18.302997)">
      <text
         x="779.29999"
         y="571.79999"
         class="s7_12"
         id="text70"
         style="font-size:16.81px;font-family:ArialMT_bb;white-space:pre;fill:#000000"><tspan
           sodipodi:role="line"
           id="tspan224"
           x="779.29999"
           y="571.79999">Linestring:</tspan><tspan
           sodipodi:role="line"
           id="tspan225"
           x="779.29999"
           y="592.8125">Two lanelets do NOT refer</tspan><tspan
           sodipodi:role="line"
           x="779.29999"
           y="613.82501"
           id="tspan226">to the same linestring.</tspan></text>
    </g>
    <path
       fill-rule="evenodd"
       d="m 66.399115,128.91116 h 8.281459 v 27.4373 h -8.281459 z"
       class="g7_12"
       id="path78"
       style="display:block;fill:#f4cccc;fill-opacity:0.43;stroke-width:0.264583" />
    <path
       fill-rule="evenodd"
       d="m 66.372657,128.91116 v 44.45 z"
       class="g1_12"
       id="path79"
       style="display:block;fill:#000000;fill-opacity:0;stroke-width:0.264583" />
    <path
       d="m 66.372657,128.91116 v 44.45"
       class="g8_12"
       id="path80"
       style="display:block;fill:none;stroke:#ff9900;stroke-width:0.302948;stroke-linejoin:round" />
    <path
       fill-rule="evenodd"
       d="m 57.853074,128.91116 v 44.45 z"
       class="g1_12"
       id="path85"
       style="display:block;fill:#000000;fill-opacity:0;stroke-width:0.264583" />
    <path
       d="m 57.853074,128.91116 v 44.45"
       class="g8_12"
       id="path86"
       style="display:block;fill:none;stroke:#ff9900;stroke-width:0.302948;stroke-linejoin:round" />
    <path
       fill-rule="evenodd"
       d="m 74.812865,128.91116 v 44.45 z"
       class="g1_12"
       id="path87"
       style="display:block;fill:#000000;fill-opacity:0;stroke-width:0.264583" />
    <path
       d="m 74.812865,128.91116 v 44.45"
       class="g8_12"
       id="path88"
       style="display:block;fill:none;stroke:#ff9900;stroke-width:0.302948;stroke-linejoin:round" />
    <path
       fill-rule="evenodd"
       d="m 84.179115,133.56783 -16.721666,6.90563 z"
       class="g1_12"
       id="path89"
       style="display:block;fill:#000000;fill-opacity:0;stroke-width:0.264583" />
    <path
       d="m 84.179115,133.56783 -15.054791,6.21771"
       class="g4_12"
       id="path90"
       style="display:block;fill:none;stroke:#595959;stroke-width:0.302948;stroke-linejoin:round" />
    <path
       fill-rule="evenodd"
       d="m 68.939115,139.30929 -1.084791,0.97896 1.481666,-0.0529 z"
       class="g9_12"
       id="path91"
       style="display:block;fill:#595959;stroke:#595959;stroke-width:0.302948;stroke-miterlimit:10" />
    <path
       fill-rule="evenodd"
       d="m 76.982449,128.72596 v 0 c 0.238125,0 0.449791,0.0794 0.608541,0.26458 0.185209,0.15875 0.264584,0.37042 0.264584,0.60854 v 11.95917 c 0,0.47625 0.396875,0.87312 0.873125,0.87312 -0.47625,0 -0.873125,0.39688 -0.873125,0.87313 v 11.95916 c 0,0.50271 -0.396875,0.89959 -0.873125,0.89959 z"
       class="g1_12"
       id="path92"
       style="display:block;fill:#000000;fill-opacity:0;stroke-width:0.264583" />
    <path
       fill-rule="evenodd"
       d="m 76.982449,128.72596 v 0 c 0.238125,0 0.449791,0.0794 0.608541,0.26458 0.185209,0.15875 0.264584,0.37042 0.264584,0.60854 v 11.95917 c 0,0.47625 0.396875,0.87312 0.873125,0.87312 -0.47625,0 -0.873125,0.39688 -0.873125,0.87313 v 11.95916 c 0,0.50271 -0.396875,0.89959 -0.873125,0.89959 z"
       class="g1_12"
       id="path93"
       style="display:block;fill:#000000;fill-opacity:0;stroke-width:0.264583" />
    <path
       d="m 76.982449,128.72596 v 0 c 0.238125,0 0.449791,0.0794 0.608541,0.26458 0.185209,0.15875 0.264584,0.37042 0.264584,0.60854 v 11.95917 c 0,0.47625 0.396875,0.87312 0.873125,0.87312 -0.47625,0 -0.873125,0.39688 -0.873125,0.87313 v 11.95916 c 0,0.50271 -0.396875,0.89959 -0.873125,0.89959"
       class="g4_12"
       id="path94"
       style="display:block;fill:none;stroke:#595959;stroke-width:0.302948;stroke-linejoin:round" />
    <path
       fill-rule="evenodd"
       d="m 76.982449,156.69241 v 0 c 0.238125,0 0.449791,0.10584 0.608541,0.26459 0.185209,0.15875 0.264584,0.39687 0.264584,0.60854 v 6.61458 c 0,0.47625 0.396875,0.87313 0.873125,0.87313 -0.47625,0 -0.873125,0.39687 -0.873125,0.87312 v 6.61459 c 0,0.47625 -0.396875,0.87312 -0.873125,0.87312 z"
       class="g1_12"
       id="path95"
       style="display:block;fill:#000000;fill-opacity:0;stroke-width:0.264583" />
    <path
       fill-rule="evenodd"
       d="m 76.982449,156.69241 v 0 c 0.238125,0 0.449791,0.10584 0.608541,0.26459 0.185209,0.15875 0.264584,0.39687 0.264584,0.60854 v 6.61458 c 0,0.47625 0.396875,0.87313 0.873125,0.87313 -0.47625,0 -0.873125,0.39687 -0.873125,0.87312 v 6.61459 c 0,0.47625 -0.396875,0.87312 -0.873125,0.87312 z"
       class="g1_12"
       id="path96"
       style="display:block;fill:#000000;fill-opacity:0;stroke-width:0.264583" />
    <path
       d="m 76.982449,156.69241 v 0 c 0.238125,0 0.449791,0.10584 0.608541,0.26459 0.185209,0.15875 0.264584,0.39687 0.264584,0.60854 v 6.61458 c 0,0.47625 0.396875,0.87313 0.873125,0.87313 -0.47625,0 -0.873125,0.39687 -0.873125,0.87312 v 6.61459 c 0,0.47625 -0.396875,0.87312 -0.873125,0.87312"
       class="g4_12"
       id="path97"
       style="display:block;fill:none;stroke:#595959;stroke-width:0.302948;stroke-linejoin:round" />
    <path
       fill-rule="evenodd"
       d="M 78.728699,142.43137 87.142448,161.402 Z"
       class="g1_12"
       id="path98"
       style="display:block;fill:#000000;fill-opacity:0;stroke-width:0.264583" />
    <path
       d="M 78.728699,142.43137 87.142448,161.402"
       class="g4_12"
       id="path99"
       style="display:block;fill:none;stroke:#595959;stroke-width:0.302948;stroke-linejoin:round" />
    <path
       fill-rule="evenodd"
       d="M 78.728699,165.05325 87.11599,163.942 Z"
       class="g1_12"
       id="path100"
       style="display:block;fill:#000000;fill-opacity:0;stroke-width:0.264583" />
    <path
       d="M 78.728699,165.05325 87.11599,163.942"
       class="g4_12"
       id="path101"
       style="display:block;fill:none;stroke:#595959;stroke-width:0.302948;stroke-linejoin:round" />
    <path
       fill-rule="evenodd"
       d="m 85.237448,155.13137 h 72.019582 v 16.64229 H 85.237448 Z"
       class="g1_12"
       id="path102"
       style="display:block;fill:#000000;fill-opacity:0;stroke-width:0.264583" />
    <g
       clip-path="url(#c0_12)"
       id="g106"
       style="display:block"
       transform="matrix(0.26458333,0,0,0.26458333,-118.20067,-18.302997)">
      <text
         x="779.20001"
         y="681.90002"
         class="s7_12"
         id="text102"
         style="font-size:16.81px;font-family:ArialMT_bb;white-space:pre;fill:#000000"><tspan
           sodipodi:role="line"
           id="tspan227"
           x="779.20001"
           y="681.90002">Two Lanelets are NOT the same</tspan><tspan
           sodipodi:role="line"
           id="tspan228"
           x="779.20001"
           y="702.91254">length.</tspan></text>
    </g>
    <path
       fill-rule="evenodd"
       d="m 70.473699,143.59554 v 11.50937 z"
       class="g1_12"
       id="path116"
       style="display:block;fill:#000000;fill-opacity:0;stroke-width:0.264583" />
    <path
       d="m 70.473699,143.59554 v 7.85812"
       class="gb_12"
       id="path117"
       style="display:block;fill:none;stroke:#000000;stroke-width:0.60616;stroke-linejoin:round" />
    <path
       fill-rule="evenodd"
       d="m 69.49474,151.45366 0.978959,2.75167 1.005416,-2.75167 z"
       class="gc_12"
       id="path118"
       style="display:block;fill:#000000;stroke:#000000;stroke-width:0.60616;stroke-miterlimit:10" />
    <path
       fill-rule="evenodd"
       d="M 62.086407,154.60221 V 143.09283 Z"
       class="g1_12"
       id="path119"
       style="display:block;fill:#000000;fill-opacity:0;stroke-width:0.264583" />
    <path
       d="m 62.086407,154.60221 v -7.88459"
       class="gb_12"
       id="path120"
       style="display:block;fill:none;stroke:#000000;stroke-width:0.60616;stroke-linejoin:round" />
    <path
       fill-rule="evenodd"
       d="m 63.091824,146.71762 -1.005417,-2.75166 -1.005417,2.75166 z"
       class="gc_12"
       id="path121"
       style="display:block;fill:#000000;stroke:#000000;stroke-width:0.60616;stroke-miterlimit:10" />
  </g>
</svg>
