<?xml version="1.0" encoding="UTF-8" standalone="no"?>
<!-- Created with Inkscape (http://www.inkscape.org/) -->

<svg
   width="65.516998mm"
   height="70.807999mm"
   viewBox="0 0 65.516998 70.807998"
   version="1.1"
   id="svg1"
   inkscape:version="1.3.2 (1:1.3.2+202311252150+091e20ef0f)"
   sodipodi:docname="vm-03-05_1.svg"
   xmlns:inkscape="http://www.inkscape.org/namespaces/inkscape"
   xmlns:sodipodi="http://sodipodi.sourceforge.net/DTD/sodipodi-0.dtd"
   xmlns="http://www.w3.org/2000/svg"
   xmlns:svg="http://www.w3.org/2000/svg">
  <sodipodi:namedview
     id="namedview1"
     pagecolor="#ffffff"
     bordercolor="#000000"
     borderopacity="0.25"
     inkscape:showpageshadow="2"
     inkscape:pageopacity="0.0"
     inkscape:pagecheckerboard="0"
     inkscape:deskcolor="#d1d1d1"
     inkscape:document-units="mm"
     inkscape:zoom="1.7131103"
     inkscape:cx="314.92427"
     inkscape:cy="201.09622"
     inkscape:window-width="3840"
     inkscape:window-height="2123"
     inkscape:window-x="0"
     inkscape:window-y="0"
     inkscape:window-maximized="1"
     inkscape:current-layer="layer1" />
  <defs
     id="defs1" />
  <g
     inkscape:label="Layer 1"
     inkscape:groupmode="layer"
     id="layer1"
     transform="translate(-21.695833,-95.249995)">
    <path
       fill-rule="evenodd"
       d="M 24.829823,121.07986 H 44.858781 V 98.431533 h 19.155833 v 22.648327 h 20.028958 v 19.15583 H 64.014614 v 22.64834 H 44.858781 V 140.23569 H 24.829823 Z"
       class="g3_38"
       id="path242"
       style="display:block;fill:#666666;stroke-width:0.264583" />
    <path
       d="M 24.829823,121.07986 H 44.858781 V 98.431533 h 19.155833 v 22.648327 h 20.028958 v 19.15583 H 64.014614 v 22.64834 H 44.858781 V 140.23569 H 24.829823 Z"
       class="g4_38"
       id="path243"
       style="display:block;fill:none;stroke:#666666;stroke-width:0.302948;stroke-linejoin:round" />
    <path
       fill-rule="evenodd"
       d="m 44.832322,98.431533 h 1.084792 v 21.775207 h -1.084792 z"
       class="g5_38"
       id="path244"
       style="display:block;fill:#999999;stroke-width:0.264583" />
    <path
       d="m 44.832322,98.431533 h 1.084792 v 21.775207 h -1.084792 z"
       class="g6_38"
       id="path245"
       style="display:block;fill:none;stroke:#999999;stroke-width:0.302948;stroke-linejoin:round" />
    <path
       fill-rule="evenodd"
       d="m 62.876905,98.431533 h 1.084792 v 21.775207 h -1.084792 z"
       class="g5_38"
       id="path246"
       style="display:block;fill:#999999;stroke-width:0.264583" />
    <path
       d="m 62.876905,98.431533 h 1.084792 v 21.775207 h -1.084792 z"
       class="g6_38"
       id="path247"
       style="display:block;fill:none;stroke:#999999;stroke-width:0.302948;stroke-linejoin:round" />
    <path
       fill-rule="evenodd"
       d="m 44.858781,141.16174 h 1.084791 v 21.7752 h -1.084791 z"
       class="g5_38"
       id="path248"
       style="display:block;fill:#999999;stroke-width:0.264583" />
    <path
       d="m 44.858781,141.16174 h 1.084791 v 21.7752 h -1.084791 z"
       class="g6_38"
       id="path249"
       style="display:block;fill:none;stroke:#999999;stroke-width:0.302948;stroke-linejoin:round" />
    <path
       fill-rule="evenodd"
       d="m 62.929822,141.16174 h 1.084792 v 21.7752 h -1.084792 z"
       class="g5_38"
       id="path250"
       style="display:block;fill:#999999;stroke-width:0.264583" />
    <path
       d="m 62.929822,141.16174 h 1.084792 v 21.7752 h -1.084792 z"
       class="g6_38"
       id="path251"
       style="display:block;fill:none;stroke:#999999;stroke-width:0.302948;stroke-linejoin:round" />
    <path
       fill-rule="evenodd"
       d="m 45.917114,120.2332 v 1.19062 H 24.856281 v -1.19062 z"
       class="g5_38"
       id="path252"
       style="display:block;fill:#999999;stroke-width:0.264583" />
    <path
       d="m 45.917114,120.2332 v 1.19062 H 24.856281 v -1.19062 z"
       class="g6_38"
       id="path253"
       style="display:block;fill:none;stroke:#999999;stroke-width:0.302948;stroke-linejoin:round" />
    <path
       fill-rule="evenodd"
       d="m 45.917114,139.89174 v 1.19062 H 24.856281 v -1.19062 z"
       class="g5_38"
       id="path254"
       style="display:block;fill:#999999;stroke-width:0.264583" />
    <path
       d="m 45.917114,139.89174 v 1.19062 H 24.856281 v -1.19062 z"
       class="g6_38"
       id="path255"
       style="display:block;fill:none;stroke:#999999;stroke-width:0.302948;stroke-linejoin:round" />
    <path
       fill-rule="evenodd"
       d="m 83.990655,120.25965 v 1.19063 H 62.929822 v -1.19063 z"
       class="g5_38"
       id="path256"
       style="display:block;fill:#999999;stroke-width:0.264583" />
    <path
       d="m 83.990655,120.25965 v 1.19063 H 62.929822 v -1.19063 z"
       class="g6_38"
       id="path257"
       style="display:block;fill:none;stroke:#999999;stroke-width:0.302948;stroke-linejoin:round" />
    <path
       fill-rule="evenodd"
       d="m 83.990655,139.91819 v 1.19063 H 62.929822 v -1.19063 z"
       class="g5_38"
       id="path258"
       style="display:block;fill:#999999;stroke-width:0.264583" />
    <path
       d="m 83.990655,139.91819 v 1.19063 H 62.929822 v -1.19063 z"
       class="g6_38"
       id="path259"
       style="display:block;fill:none;stroke:#999999;stroke-width:0.302948;stroke-linejoin:round" />
    <path
       fill-rule="evenodd"
       d="m 34.354822,130.71069 -9.524999,-0.0529 z"
       class="g1_38"
       id="path260"
       style="display:block;fill:#000000;fill-opacity:0;stroke-width:0.264583" />
    <path
       d="m 34.354822,130.71069 -9.524999,-0.0529"
       class="g7_38"
       id="path261"
       style="display:block;fill:none;stroke:#f3f3f3;stroke-width:0.60616;stroke-linejoin:round;stroke-dasharray:2.64583, 1.85208" />
    <path
       fill-rule="evenodd"
       d="m 83.990655,130.71069 -9.525,-0.0529 z"
       class="g1_38"
       id="path262"
       style="display:block;fill:#000000;fill-opacity:0;stroke-width:0.264583" />
    <path
       d="m 83.990655,130.71069 -9.525,-0.0529"
       class="g7_38"
       id="path263"
       style="display:block;fill:none;stroke:#f3f3f3;stroke-width:0.60616;stroke-linejoin:round;stroke-dasharray:2.64583, 1.85208" />
    <path
       fill-rule="evenodd"
       d="m 54.357322,108.8032 0.07937,-10.371667 z"
       class="g1_38"
       id="path264"
       style="display:block;fill:#000000;fill-opacity:0;stroke-width:0.264583" />
    <path
       d="m 54.357322,108.8032 0.07937,-10.371667"
       class="g7_38"
       id="path265"
       style="display:block;fill:none;stroke:#f3f3f3;stroke-width:0.60616;stroke-linejoin:round;stroke-dasharray:2.64583, 1.85208" />
    <path
       fill-rule="evenodd"
       d="m 54.410239,162.93694 0.05292,-10.37166 z"
       class="g1_38"
       id="path266"
       style="display:block;fill:#000000;fill-opacity:0;stroke-width:0.264583" />
    <path
       d="m 54.410239,162.93694 0.05292,-10.37166"
       class="g7_38"
       id="path267"
       style="display:block;fill:none;stroke:#f3f3f3;stroke-width:0.60616;stroke-linejoin:round;stroke-dasharray:2.64583, 1.85208" />
    <path
       fill-rule="evenodd"
       d="m 34.460656,130.81653 0.02646,-9.39271 z"
       class="g1_38"
       id="path268"
       style="display:block;fill:#000000;fill-opacity:0;stroke-width:0.264583" />
    <path
       d="m 34.460656,130.81653 0.02646,-9.39271"
       class="g8_38"
       id="path269"
       style="display:block;fill:none;stroke:#f3f3f3;stroke-width:0.909373;stroke-linejoin:round" />
    <path
       fill-rule="evenodd"
       d="m 74.54503,140.05049 0.02646,-9.39271 z"
       class="g1_38"
       id="path270"
       style="display:block;fill:#000000;fill-opacity:0;stroke-width:0.264583" />
    <path
       d="m 74.54503,140.05049 0.02646,-9.39271"
       class="g8_38"
       id="path271"
       style="display:block;fill:none;stroke:#f3f3f3;stroke-width:0.909373;stroke-linejoin:round" />
    <path
       fill-rule="evenodd"
       d="m 54.277947,108.9884 8.651875,0.0265 z"
       class="g1_38"
       id="path272"
       style="display:block;fill:#000000;fill-opacity:0;stroke-width:0.264583" />
    <path
       d="m 54.277947,108.9884 8.651875,0.0265"
       class="g8_38"
       id="path273"
       style="display:block;fill:none;stroke:#f3f3f3;stroke-width:0.909373;stroke-linejoin:round" />
    <path
       fill-rule="evenodd"
       d="m 45.943572,152.56528 8.651875,0.0265 z"
       class="g1_38"
       id="path274"
       style="display:block;fill:#000000;fill-opacity:0;stroke-width:0.264583" />
    <path
       d="m 45.943572,152.56528 8.651875,0.0265"
       class="g8_38"
       id="path275"
       style="display:block;fill:none;stroke:#f3f3f3;stroke-width:0.909373;stroke-linejoin:round" />
    <path
       fill-rule="evenodd"
       d="m 46.419822,146.03007 h 0.899584 v 4.25979 h -0.899584 z"
       class="g9_38"
       id="path276"
       style="display:block;fill:#eeeeee;stroke-width:0.264583" />
    <path
       fill-rule="evenodd"
       d="m 48.351281,146.03007 h 0.926041 v 4.25979 h -0.926041 z"
       class="g9_38"
       id="path277"
       style="display:block;fill:#eeeeee;stroke-width:0.264583" />
    <path
       fill-rule="evenodd"
       d="m 50.282739,146.03007 h 0.926042 v 4.25979 h -0.926042 z"
       class="g9_38"
       id="path278"
       style="display:block;fill:#eeeeee;stroke-width:0.264583" />
    <path
       fill-rule="evenodd"
       d="m 52.214197,146.03007 h 0.926042 v 4.25979 h -0.926042 z"
       class="g9_38"
       id="path279"
       style="display:block;fill:#eeeeee;stroke-width:0.264583" />
    <path
       fill-rule="evenodd"
       d="m 54.172114,146.03007 h 0.899583 v 4.25979 h -0.899583 z"
       class="g9_38"
       id="path280"
       style="display:block;fill:#eeeeee;stroke-width:0.264583" />
    <path
       fill-rule="evenodd"
       d="m 56.103572,146.03007 h 0.926042 v 4.25979 h -0.926042 z"
       class="g9_38"
       id="path281"
       style="display:block;fill:#eeeeee;stroke-width:0.264583" />
    <path
       fill-rule="evenodd"
       d="m 58.03503,146.03007 h 0.926042 v 4.25979 H 58.03503 Z"
       class="g9_38"
       id="path282"
       style="display:block;fill:#eeeeee;stroke-width:0.264583" />
    <path
       fill-rule="evenodd"
       d="m 59.966489,146.03007 h 0.926041 v 4.25979 h -0.926041 z"
       class="g9_38"
       id="path283"
       style="display:block;fill:#eeeeee;stroke-width:0.264583" />
    <path
       fill-rule="evenodd"
       d="m 61.924405,146.03007 h 0.899584 v 4.25979 h -0.899584 z"
       class="g9_38"
       id="path284"
       style="display:block;fill:#eeeeee;stroke-width:0.264583" />
    <path
       fill-rule="evenodd"
       d="m 46.181697,111.47549 h 0.926042 v 4.25979 h -0.926042 z"
       class="g9_38"
       id="path285"
       style="display:block;fill:#eeeeee;stroke-width:0.264583" />
    <path
       fill-rule="evenodd"
       d="m 48.139614,111.47549 h 0.899583 v 4.25979 h -0.899583 z"
       class="g9_38"
       id="path286"
       style="display:block;fill:#eeeeee;stroke-width:0.264583" />
    <path
       fill-rule="evenodd"
       d="m 50.071072,111.47549 h 0.899584 v 4.25979 h -0.899584 z"
       class="g9_38"
       id="path287"
       style="display:block;fill:#eeeeee;stroke-width:0.264583" />
    <path
       fill-rule="evenodd"
       d="m 52.002531,111.47549 h 0.926041 v 4.25979 h -0.926041 z"
       class="g9_38"
       id="path288"
       style="display:block;fill:#eeeeee;stroke-width:0.264583" />
    <path
       fill-rule="evenodd"
       d="m 53.933989,111.47549 h 0.926041 v 4.25979 h -0.926041 z"
       class="g9_38"
       id="path289"
       style="display:block;fill:#eeeeee;stroke-width:0.264583" />
    <path
       fill-rule="evenodd"
       d="m 55.891905,111.47549 h 0.899584 v 4.25979 h -0.899584 z"
       class="g9_38"
       id="path290"
       style="display:block;fill:#eeeeee;stroke-width:0.264583" />
    <path
       fill-rule="evenodd"
       d="m 57.823364,111.47549 h 0.899583 v 4.25979 h -0.899583 z"
       class="g9_38"
       id="path291"
       style="display:block;fill:#eeeeee;stroke-width:0.264583" />
    <path
       fill-rule="evenodd"
       d="m 59.754822,111.47549 h 0.926042 v 4.25979 h -0.926042 z"
       class="g9_38"
       id="path292"
       style="display:block;fill:#eeeeee;stroke-width:0.264583" />
    <path
       fill-rule="evenodd"
       d="m 61.68628,111.47549 h 0.926042 v 4.25979 H 61.68628 Z"
       class="g9_38"
       id="path293"
       style="display:block;fill:#eeeeee;stroke-width:0.264583" />
    <path
       fill-rule="evenodd"
       d="m 40.810656,121.74132 v 1.00542 h -3.915834 v -1.00542 z"
       class="g9_38"
       id="path294"
       style="display:block;fill:#eeeeee;stroke-width:0.264583" />
    <path
       fill-rule="evenodd"
       d="m 40.810656,123.85799 v 1.00541 h -3.915834 v -1.00541 z"
       class="g9_38"
       id="path295"
       style="display:block;fill:#eeeeee;stroke-width:0.264583" />
    <path
       fill-rule="evenodd"
       d="m 40.810656,125.97465 v 0.97896 h -3.915834 v -0.97896 z"
       class="g9_38"
       id="path296"
       style="display:block;fill:#eeeeee;stroke-width:0.264583" />
    <path
       fill-rule="evenodd"
       d="m 40.810656,128.09132 v 0.97896 h -3.915834 v -0.97896 z"
       class="g9_38"
       id="path297"
       style="display:block;fill:#eeeeee;stroke-width:0.264583" />
    <path
       fill-rule="evenodd"
       d="m 40.810656,130.18153 v 1.00541 h -3.915834 v -1.00541 z"
       class="g9_38"
       id="path298"
       style="display:block;fill:#eeeeee;stroke-width:0.264583" />
    <path
       fill-rule="evenodd"
       d="m 40.810656,132.29819 v 0.97896 h -3.915834 v -0.97896 z"
       class="g9_38"
       id="path299"
       style="display:block;fill:#eeeeee;stroke-width:0.264583" />
    <path
       fill-rule="evenodd"
       d="m 40.810656,134.41486 v 0.97896 h -3.915834 v -0.97896 z"
       class="g9_38"
       id="path300"
       style="display:block;fill:#eeeeee;stroke-width:0.264583" />
    <path
       fill-rule="evenodd"
       d="m 40.810656,136.50507 v 1.00542 h -3.915834 v -1.00542 z"
       class="g9_38"
       id="path301"
       style="display:block;fill:#eeeeee;stroke-width:0.264583" />
    <path
       fill-rule="evenodd"
       d="m 40.810656,138.62174 v 1.00541 h -3.915834 v -1.00541 z"
       class="g9_38"
       id="path302"
       style="display:block;fill:#eeeeee;stroke-width:0.264583" />
    <path
       fill-rule="evenodd"
       d="m 72.057947,121.74132 v 1.00542 h -3.915833 v -1.00542 z"
       class="g9_38"
       id="path303"
       style="display:block;fill:#eeeeee;stroke-width:0.264583" />
    <path
       fill-rule="evenodd"
       d="m 72.057947,123.85799 v 1.00541 h -3.915833 v -1.00541 z"
       class="g9_38"
       id="path304"
       style="display:block;fill:#eeeeee;stroke-width:0.264583" />
    <path
       fill-rule="evenodd"
       d="m 72.057947,125.97465 v 0.97896 h -3.915833 v -0.97896 z"
       class="g9_38"
       id="path305"
       style="display:block;fill:#eeeeee;stroke-width:0.264583" />
    <path
       fill-rule="evenodd"
       d="m 72.057947,128.09132 v 0.97896 h -3.915833 v -0.97896 z"
       class="g9_38"
       id="path306"
       style="display:block;fill:#eeeeee;stroke-width:0.264583" />
    <path
       fill-rule="evenodd"
       d="m 72.057947,130.18153 v 1.00541 h -3.915833 v -1.00541 z"
       class="g9_38"
       id="path307"
       style="display:block;fill:#eeeeee;stroke-width:0.264583" />
    <path
       fill-rule="evenodd"
       d="m 72.057947,132.29819 v 0.97896 h -3.915833 v -0.97896 z"
       class="g9_38"
       id="path308"
       style="display:block;fill:#eeeeee;stroke-width:0.264583" />
    <path
       fill-rule="evenodd"
       d="m 72.057947,134.41486 v 0.97896 h -3.915833 v -0.97896 z"
       class="g9_38"
       id="path309"
       style="display:block;fill:#eeeeee;stroke-width:0.264583" />
    <path
       fill-rule="evenodd"
       d="m 72.057947,136.50507 v 1.00542 h -3.915833 v -1.00542 z"
       class="g9_38"
       id="path310"
       style="display:block;fill:#eeeeee;stroke-width:0.264583" />
    <path
       fill-rule="evenodd"
       d="m 72.057947,138.62174 v 1.00541 h -3.915833 v -1.00541 z"
       class="g9_38"
       id="path311"
       style="display:block;fill:#eeeeee;stroke-width:0.264583" />
    <path
       fill-rule="evenodd"
       d="m 53.563572,130.8959 0.899583,-1.00541 0.926042,1.00541 -0.926042,1.00542 z"
       class="g1_38"
       id="path312"
       style="display:block;fill:#000000;fill-opacity:0;stroke-width:0.264583" />
    <path
       d="m 53.563572,130.8959 0.899583,-1.00541 0.926042,1.00541 -0.926042,1.00542 z"
       class="ga_38"
       id="path313"
       style="display:block;fill:none;stroke:#f3f3f3;stroke-width:0.302948;stroke-linejoin:round" />
    <path
       fill-rule="evenodd"
       d="M 64.887739,133.83278 H 64.38503 v 10.37166 h 0.502709 z"
       class="g5_38"
       id="path314"
       style="display:block;fill:#999999;stroke-width:0.264583" />
    <path
       d="M 64.887739,133.83278 H 64.38503 v 10.37166 h 0.502709 z"
       class="g6_38"
       id="path315"
       style="display:block;fill:none;stroke:#999999;stroke-width:0.302948;stroke-linejoin:round" />
    <path
       fill-rule="evenodd"
       d="m 64.70253,134.25611 v 0 c 0,-0.23812 -0.185208,-0.42333 -0.423333,-0.42333 h -5.212292 c -0.105833,0 -0.211666,0.0529 -0.291041,0.13229 -0.07937,0.0794 -0.132292,0.18521 -0.132292,0.29104 v 1.74625 c 0,0.23813 0.185208,0.42333 0.423333,0.42333 h 5.212292 c 0.238125,0 0.423333,-0.1852 0.423333,-0.42333 z"
       class="g5_38"
       id="path316"
       style="display:block;fill:#999999;stroke-width:0.264583" />
    <path
       d="m 64.70253,134.25611 v 0 c 0,-0.23812 -0.185208,-0.42333 -0.423333,-0.42333 h -5.212292 c -0.105833,0 -0.211666,0.0529 -0.291041,0.13229 -0.07937,0.0794 -0.132292,0.18521 -0.132292,0.29104 v 1.74625 c 0,0.23813 0.185208,0.42333 0.423333,0.42333 h 5.212292 c 0.238125,0 0.423333,-0.1852 0.423333,-0.42333 z"
       class="g6_38"
       id="path317"
       style="display:block;fill:none;stroke:#999999;stroke-width:0.302948;stroke-linejoin:round" />
    <path
       fill-rule="evenodd"
       d="m 39.725864,142.61694 v -0.52916 h 4.497917 v 0.52916 z"
       class="g5_38"
       id="path318"
       style="display:block;fill:#999999;stroke-width:0.264583" />
    <path
       d="m 39.725864,142.61694 v -0.52916 h 4.497917 v 0.52916 z"
       class="g6_38"
       id="path319"
       style="display:block;fill:none;stroke:#999999;stroke-width:0.302948;stroke-linejoin:round" />
    <path
       fill-rule="evenodd"
       d="m 40.122739,142.53757 v 0 c -0.211667,0 -0.396875,-0.18521 -0.396875,-0.39688 v -5.82083 c 0,-0.10583 0.05292,-0.21167 0.132292,-0.26458 0.07938,-0.0794 0.15875,-0.13229 0.264583,-0.13229 h 1.613958 c 0.211667,0 0.396875,0.1852 0.396875,0.39687 v 5.82083 c 0,0.21167 -0.185208,0.39688 -0.396875,0.39688 z"
       class="g5_38"
       id="path320"
       style="display:block;fill:#999999;stroke-width:0.264583" />
    <path
       d="m 40.122739,142.53757 v 0 c -0.211667,0 -0.396875,-0.18521 -0.396875,-0.39688 v -5.82083 c 0,-0.10583 0.05292,-0.21167 0.132292,-0.26458 0.07938,-0.0794 0.15875,-0.13229 0.264583,-0.13229 h 1.613958 c 0.211667,0 0.396875,0.1852 0.396875,0.39687 v 5.82083 c 0,0.21167 -0.185208,0.39688 -0.396875,0.39688 z"
       class="g6_38"
       id="path321"
       style="display:block;fill:none;stroke:#999999;stroke-width:0.302948;stroke-linejoin:round" />
    <path
       fill-rule="evenodd"
       d="m 40.890031,138.01319 v 0 c -0.370417,0 -0.687917,-0.3175 -0.687917,-0.74083 0,-0.39687 0.3175,-0.74083 0.687917,-0.74083 0.396875,0 0.687916,0.34396 0.687916,0.74083 0,0.42333 -0.291041,0.74083 -0.687916,0.74083 z"
       class="gb_38"
       id="path322"
       style="display:block;fill:#ff0000;stroke-width:0.264583" />
    <path
       fill-rule="evenodd"
       d="m 40.890031,140.12986 v 0 c -0.370417,0 -0.687917,-0.34396 -0.687917,-0.76729 0,-0.39688 0.3175,-0.74083 0.687917,-0.74083 0.396875,0 0.687916,0.34395 0.687916,0.74083 0,0.42333 -0.291041,0.76729 -0.687916,0.76729 z"
       class="gc_38"
       id="path323"
       style="display:block;fill:#f1c232;stroke-width:0.264583" />
    <path
       fill-rule="evenodd"
       d="m 40.890031,142.22007 v 0 c -0.370417,0 -0.687917,-0.34396 -0.687917,-0.74083 0,-0.42334 0.3175,-0.74084 0.687917,-0.74084 0.396875,0 0.687916,0.3175 0.687916,0.74084 0,0.39687 -0.291041,0.74083 -0.687916,0.74083 z"
       class="gd_38"
       id="path324"
       style="display:block;fill:#38761d;stroke-width:0.264583" />
    <path
       fill-rule="evenodd"
       d="m 69.094614,119.33361 v -0.52916 h -4.497917 v 0.52916 z"
       class="g5_38"
       id="path325"
       style="display:block;fill:#999999;stroke-width:0.264583" />
    <path
       d="m 69.094614,119.33361 v -0.52916 h -4.497917 v 0.52916 z"
       class="g6_38"
       id="path326"
       style="display:block;fill:none;stroke:#999999;stroke-width:0.302948;stroke-linejoin:round" />
    <path
       fill-rule="evenodd"
       d="m 68.697739,119.25424 v 0 c 0.211666,0 0.396875,-0.15875 0.396875,-0.39688 v -5.79437 c 0,-0.10584 -0.05292,-0.21167 -0.132292,-0.29104 -0.07937,-0.0794 -0.15875,-0.10584 -0.264583,-0.10584 H 67.08378 c -0.211666,0 -0.396875,0.15875 -0.396875,0.39688 v 5.79437 c 0,0.23813 0.185209,0.39688 0.396875,0.39688 z"
       class="g5_38"
       id="path327"
       style="display:block;fill:#999999;stroke-width:0.264583" />
    <path
       d="m 68.697739,119.25424 v 0 c 0.211666,0 0.396875,-0.15875 0.396875,-0.39688 v -5.79437 c 0,-0.10584 -0.05292,-0.21167 -0.132292,-0.29104 -0.07937,-0.0794 -0.15875,-0.10584 -0.264583,-0.10584 H 67.08378 c -0.211666,0 -0.396875,0.15875 -0.396875,0.39688 v 5.79437 c 0,0.23813 0.185209,0.39688 0.396875,0.39688 z"
       class="g6_38"
       id="path328"
       style="display:block;fill:none;stroke:#999999;stroke-width:0.302948;stroke-linejoin:round" />
    <path
       fill-rule="evenodd"
       d="m 67.930447,114.75632 v 0 c 0.370417,0 0.687917,-0.34396 0.687917,-0.74083 0,-0.42334 -0.3175,-0.74084 -0.687917,-0.74084 -0.396875,0 -0.687917,0.3175 -0.687917,0.74084 0,0.39687 0.291042,0.74083 0.687917,0.74083 z"
       class="gb_38"
       id="path329"
       style="display:block;fill:#ff0000;stroke-width:0.264583" />
    <path
       fill-rule="evenodd"
       d="m 67.930447,116.84653 v 0 c 0.370417,0 0.687917,-0.3175 0.687917,-0.74083 0,-0.42334 -0.3175,-0.74084 -0.687917,-0.74084 -0.396875,0 -0.687917,0.3175 -0.687917,0.74084 0,0.42333 0.291042,0.74083 0.687917,0.74083 z"
       class="gc_38"
       id="path330"
       style="display:block;fill:#f1c232;stroke-width:0.264583" />
    <path
       fill-rule="evenodd"
       d="m 67.930447,118.93674 v 0 c 0.370417,0 0.687917,-0.3175 0.687917,-0.74084 0,-0.39687 -0.3175,-0.74083 -0.687917,-0.74083 -0.396875,0 -0.687917,0.34396 -0.687917,0.74083 0,0.42334 0.291042,0.74084 0.687917,0.74084 z"
       class="gd_38"
       id="path331"
       style="display:block;fill:#38761d;stroke-width:0.264583" />
    <path
       fill-rule="evenodd"
       d="m 43.985656,107.42736 h 0.47625 v 10.37167 h -0.47625 z"
       class="g5_38"
       id="path332"
       style="display:block;fill:#999999;stroke-width:0.264583" />
    <path
       d="m 43.985656,107.42736 h 0.47625 v 10.37167 h -0.47625 z"
       class="g6_38"
       id="path333"
       style="display:block;fill:none;stroke:#999999;stroke-width:0.302948;stroke-linejoin:round" />
    <path
       fill-rule="evenodd"
       d="m 44.144406,107.8507 v 0 c 0,-0.23813 0.211666,-0.42334 0.449791,-0.42334 h 5.212292 c 0.105833,0 0.211667,0.0529 0.291042,0.13229 0.07937,0.0794 0.132291,0.18521 0.132291,0.29105 v 1.74625 c 0,0.23812 -0.185208,0.42333 -0.423333,0.42333 h -5.212292 c -0.238125,0 -0.449791,-0.18521 -0.449791,-0.42333 z"
       class="g5_38"
       id="path334"
       style="display:block;fill:#999999;stroke-width:0.264583" />
    <path
       d="m 44.144406,107.8507 v 0 c 0,-0.23813 0.211666,-0.42334 0.449791,-0.42334 h 5.212292 c 0.105833,0 0.211667,0.0529 0.291042,0.13229 0.07937,0.0794 0.132291,0.18521 0.132291,0.29105 v 1.74625 c 0,0.23812 -0.185208,0.42333 -0.423333,0.42333 h -5.212292 c -0.238125,0 -0.449791,-0.18521 -0.449791,-0.42333 z"
       class="g6_38"
       id="path335"
       style="display:block;fill:none;stroke:#999999;stroke-width:0.302948;stroke-linejoin:round" />
    <path
       fill-rule="evenodd"
       d="m 48.298364,108.69736 v 0 c 0,-0.42333 0.3175,-0.74083 0.687917,-0.74083 0.185208,0 0.370416,0.0794 0.502708,0.21167 0.105833,0.13229 0.185208,0.3175 0.185208,0.52916 0,0.39688 -0.291041,0.74084 -0.687916,0.74084 -0.370417,0 -0.687917,-0.34396 -0.687917,-0.74084 z"
       class="gb_38"
       id="path336"
       style="display:block;fill:#ff0000;stroke-width:0.264583" />
    <path
       fill-rule="evenodd"
       d="m 46.366906,108.69736 v 0 c 0,-0.42333 0.3175,-0.74083 0.687916,-0.74083 0.185209,0 0.370417,0.0794 0.502709,0.21167 0.132291,0.13229 0.185208,0.3175 0.185208,0.52916 0,0.39688 -0.291042,0.74084 -0.687917,0.74084 -0.370416,0 -0.687916,-0.34396 -0.687916,-0.74084 z"
       class="gc_38"
       id="path337"
       style="display:block;fill:#f1c232;stroke-width:0.264583" />
    <path
       fill-rule="evenodd"
       d="m 44.435447,108.69736 v 0 c 0,-0.42333 0.3175,-0.74083 0.687917,-0.74083 0.185208,0 0.370417,0.0794 0.502708,0.21167 0.132292,0.13229 0.185209,0.3175 0.185209,0.52916 0,0.39688 -0.291042,0.74084 -0.687917,0.74084 -0.370417,0 -0.687917,-0.34396 -0.687917,-0.74084 z"
       class="gd_38"
       id="path338"
       style="display:block;fill:#38761d;stroke-width:0.264583" />
    <path
       fill-rule="evenodd"
       d="m 50.176906,151.13653 c 0,-1.71979 -0.211667,-7.48771 0,-10.21292 0.211666,-2.72521 0.529166,-4.47146 1.296458,-6.16479 0.740833,-1.71979 2.116667,-3.01625 3.175,-4.10104 1.084791,-1.05834 2.037291,-1.56104 3.307291,-2.35479 1.27,-0.7673 3.598334,-1.95792 4.339167,-2.3548 z"
       class="g1_38"
       id="path339"
       style="display:block;fill:#000000;fill-opacity:0;stroke-width:0.264583" />
    <path
       d="m 50.176906,151.13653 c 0,-1.71979 -0.211667,-7.48771 0,-10.21292 0.211666,-2.72521 0.529166,-4.47146 1.296458,-6.16479 0.740833,-1.71979 2.116667,-3.01625 3.175,-4.10104 0.291041,-0.26459 0.555625,-0.50271 0.79375,-0.71438 0.132291,-0.10583 0.264583,-0.18521 0.396875,-0.29104 0.02646,-0.0265 0.07937,-0.0529 0.105833,-0.0794 h 0.02646"
       class="gi_38"
       id="path340"
       style="display:block;fill:none;stroke:#f7981d;stroke-width:1.21259;stroke-linejoin:round" />
    <path
       fill-rule="evenodd"
       d="m 56.950239,131.29278 3.783541,-4.445 -5.767916,0.97896 z"
       class="gj_38"
       id="path341"
       style="display:block;fill:#f7981d;stroke:#f7981d;stroke-width:1.21259;stroke-miterlimit:10" />
    <path
       fill-rule="evenodd"
       d="m 48.033781,153.46486 v 0 c 0,-0.0265 0.02646,-0.0529 0.07937,-0.0529 h 0.291041 c 0,0 0.02646,0 0.05292,0 0,0.0265 0,0.0529 0,0.0529 v 1.16417 c 0,0.0265 -0.02646,0.0794 -0.05292,0.0794 h -0.291036 c -0.05292,0 -0.07937,-0.0529 -0.07937,-0.0794 z"
       class="gk_38"
       id="path342"
       style="display:block;fill:#000000;stroke-width:0.264583" />
    <path
       fill-rule="evenodd"
       d="m 51.843781,153.46486 v 0 c 0,-0.0265 0.02646,-0.0529 0.07937,-0.0529 h 0.291041 c 0,0 0.02646,0 0.05292,0 0,0.0265 0,0.0529 0,0.0529 v 1.16417 c 0,0.0265 -0.02646,0.0794 -0.05292,0.0794 h -0.291036 c -0.05292,0 -0.07937,-0.0529 -0.07937,-0.0794 z"
       class="gk_38"
       id="path343"
       style="display:block;fill:#000000;stroke-width:0.264583" />
    <path
       fill-rule="evenodd"
       d="m 48.033781,158.22736 v 0 c 0,-0.0529 0.02646,-0.0794 0.07937,-0.0794 h 0.291041 c 0,0 0.02646,0 0.05292,0.0265 0,0 0,0.0265 0,0.0529 v 1.13771 c 0,0.0529 -0.02646,0.0794 -0.05292,0.0794 h -0.291036 c -0.05292,0 -0.07937,-0.0264 -0.07937,-0.0794 z"
       class="gk_38"
       id="path344"
       style="display:block;fill:#000000;stroke-width:0.264583" />
    <path
       fill-rule="evenodd"
       d="m 51.843781,158.22736 v 0 c 0,-0.0529 0.02646,-0.0794 0.07937,-0.0794 h 0.291041 c 0,0 0.02646,0 0.05292,0.0265 0,0 0,0.0265 0,0.0529 v 1.13771 c 0,0.0529 -0.02646,0.0794 -0.05292,0.0794 h -0.291036 c -0.05292,0 -0.07937,-0.0264 -0.07937,-0.0794 z"
       class="gk_38"
       id="path345"
       style="display:block;fill:#000000;stroke-width:0.264583" />
    <path
       fill-rule="evenodd"
       d="m 48.192531,153.30611 v 0 c 0,-0.60854 0.47625,-1.08479 1.084791,-1.08479 h 1.799167 c 0.291042,0 0.582083,0.10583 0.767292,0.3175 0.211666,0.18521 0.343958,0.47625 0.343958,0.76729 v 6.21771 c 0,0.58208 -0.502708,1.08479 -1.11125,1.08479 h -1.799167 c -0.608541,0 -1.084791,-0.50271 -1.084791,-1.08479 z"
       class="gl_38"
       id="path346"
       style="display:block;fill:#3d85c6;stroke-width:0.264583" />
    <path
       fill-rule="evenodd"
       d="m 49.806489,152.14194 v 0 c 0,0 0,-0.0265 0.02646,-0.0265 h 0.687917 l 0.02646,0.0265 v 0.1323 q 0,0.0265 -0.02646,0.0265 h -0.687917 q -0.02646,0 -0.02646,-0.0265 z"
       class="gm_38"
       id="path347"
       style="display:block;fill:#efefef;stroke-width:0.264583" />
    <path
       fill-rule="evenodd"
       d="m 48.748156,152.53882 0.05292,0.26458 0.291042,-0.0794 0.07937,-0.0265 0.02646,-0.0529 v -0.10583 l -0.02646,-0.0265 -0.07937,-0.0265 -0.132292,0.0265 z"
       class="g0_38"
       id="path348"
       style="display:block;fill:#ffffff;stroke-width:0.264583" />
    <path
       fill-rule="evenodd"
       d="m 51.579197,152.53882 -0.02646,0.26458 -0.3175,-0.0794 -0.05292,-0.0265 -0.05292,-0.0529 v -0.0265 l 0.02646,-0.0794 v -0.0265 l 0.07938,-0.0265 0.132292,0.0265 z"
       class="g0_38"
       id="path349"
       style="display:block;fill:#ffffff;stroke-width:0.264583" />
    <path
       fill-rule="evenodd"
       d="m 48.668781,154.86715 0.238125,0.82021 0.05292,0.0794 0.07937,0.0264 h 2.2225 l 0.05292,-0.0264 0.07937,-0.0529 0.264583,-0.71438 v -0.10583 l -0.05292,-0.0794 -0.3175,-0.10584 -0.449792,-0.10583 -0.343958,-0.0265 h -0.687917 l -0.185208,0.0265 -0.264584,0.0265 -0.238125,0.0794 -0.185208,0.0529 -0.185208,0.0529 z"
       class="gn_38"
       id="path350"
       style="display:block;fill:#9fc5e8;stroke-width:0.264583" />
    <path
       d="m 48.668781,154.86715 0.238125,0.82021 0.05292,0.0794 0.07937,0.0264 h 2.2225 l 0.05292,-0.0264 0.07937,-0.0529 0.264583,-0.71438 v -0.10583 l -0.05292,-0.0794 -0.3175,-0.10584 -0.449792,-0.10583 -0.343958,-0.0265 h -0.687917 l -0.185208,0.0265 -0.264584,0.0265 -0.238125,0.0794 -0.185208,0.0529 -0.185208,0.0529 z"
       class="go_38"
       id="path351"
       style="display:block;fill:none;stroke:#073763;stroke-width:0.302948;stroke-linejoin:round" />
    <path
       fill-rule="evenodd"
       d="m 48.430656,155.15819 v 4.2598 l 0.07937,0.0264 0.3175,-0.29104 0.105833,-0.15875 0.05292,-0.15875 -0.05292,-2.43416 -0.02646,-0.18521 -0.105834,-0.3175 -0.15875,-0.3175 z"
       class="gn_38"
       id="path352"
       style="display:block;fill:#9fc5e8;stroke-width:0.264583" />
    <path
       d="m 48.430656,155.15819 v 4.2598 l 0.07937,0.0264 0.3175,-0.29104 0.105833,-0.15875 0.05292,-0.15875 -0.05292,-2.43416 -0.02646,-0.18521 -0.105834,-0.3175 -0.15875,-0.3175 z"
       class="go_38"
       id="path353"
       style="display:block;fill:none;stroke:#073763;stroke-width:0.302948;stroke-linejoin:round" />
    <path
       fill-rule="evenodd"
       d="m 51.976072,155.21111 v 4.18042 l -0.02646,0.0794 -0.07937,0.0265 -0.3175,-0.29104 -0.07937,-0.15875 -0.05292,-0.15875 0.02646,-2.43417 0.05292,-0.18521 0.105834,-0.3175 0.132291,-0.3175 z"
       class="gn_38"
       id="path354"
       style="display:block;fill:#9fc5e8;stroke-width:0.264583" />
    <path
       d="m 51.976072,155.21111 v 4.18042 l -0.02646,0.0794 -0.07937,0.0265 -0.3175,-0.29104 -0.07937,-0.15875 -0.05292,-0.15875 0.02646,-2.43417 0.05292,-0.18521 0.105834,-0.3175 0.132291,-0.3175 z"
       class="go_38"
       id="path355"
       style="display:block;fill:none;stroke:#073763;stroke-width:0.302948;stroke-linejoin:round" />
    <path
       fill-rule="evenodd"
       d="m 48.430656,155.10528 -0.105834,-0.0265 -0.105833,0.0265 h -0.07937 l -0.105833,0.0529 -0.07937,0.0529 -0.02646,0.0794 v 0.0529 l 0.05292,0.0529 0.105833,0.0265 0.132292,0.0265 h 0.105833 l 0.07937,-0.0265 0.07937,-0.0794 0.02646,-0.0529 v -0.0794 l -0.05292,-0.0529 z"
       class="gp_38"
       id="path356"
       style="display:block;fill:#0b5394;stroke-width:0.264583" />
    <path
       fill-rule="evenodd"
       d="m 51.923156,155.10528 0.07937,-0.0265 0.105833,0.0265 h 0.105833 l 0.105834,0.0529 0.07937,0.0529 0.02646,0.0794 v 0.0529 l -0.07937,0.0529 -0.07937,0.0265 -0.132292,0.0265 h -0.105833 l -0.105833,-0.0265 -0.05292,-0.0794 -0.02646,-0.0529 v -0.0794 l 0.02646,-0.0529 z"
       class="gp_38"
       id="path357"
       style="display:block;fill:#0b5394;stroke-width:0.264583" />
    <path
       fill-rule="evenodd"
       d="m 49.806489,160.50278 v 0 c 0,0 0,-0.0265 0.02646,-0.0265 h 0.687917 l 0.02646,0.0265 v 0.13229 q 0,0.0265 -0.02646,0.0265 h -0.687917 q -0.02646,0 -0.02646,-0.0265 z"
       class="gm_38"
       id="path358"
       style="display:block;fill:#efefef;stroke-width:0.264583" />
    <path
       fill-rule="evenodd"
       d="m 48.748156,160.66153 0.05292,-0.26459 0.291042,0.0794 0.07937,0.0265 0.02646,0.0265 v 0.10583 l -0.02646,0.0529 h -0.211667 z"
       class="gp_38"
       id="path359"
       style="display:block;fill:#0b5394;stroke-width:0.264583" />
    <path
       fill-rule="evenodd"
       d="m 51.579197,160.66153 -0.02646,-0.26459 -0.3175,0.0794 -0.05292,0.0265 -0.05292,0.0265 v 0.0529 l 0.02646,0.0529 v 0.0529 h 0.211667 z"
       class="gp_38"
       id="path360"
       style="display:block;fill:#0b5394;stroke-width:0.264583" />
    <path
       fill-rule="evenodd"
       d="m 49.171489,159.28569 h -0.07937 l -0.529167,0.4498 -0.02646,0.10583 v 0.0794 l 0.15875,0.10584 0.211667,0.0794 0.3175,0.0794 0.3175,0.0529 0.3175,0.0265 h 0.343958 l 0.370417,-0.0265 h 0.343958 l 0.396875,-0.0794 0.264583,-0.10583 0.185209,-0.1323 0.05292,-0.0794 -0.07937,-0.10583 -0.47625,-0.39688 -0.02646,-0.0529 -0.555625,-0.0264 h -0.608542 l -0.423333,0.0264 z"
       class="gn_38"
       id="path361"
       style="display:block;fill:#9fc5e8;stroke-width:0.264583" />
    <path
       d="m 49.171489,159.28569 h -0.07937 l -0.529167,0.4498 -0.02646,0.10583 v 0.0794 l 0.15875,0.10584 0.211667,0.0794 0.3175,0.0794 0.3175,0.0529 0.3175,0.0265 h 0.343958 l 0.370417,-0.0265 h 0.343958 l 0.396875,-0.0794 0.264583,-0.10583 0.185209,-0.1323 0.05292,-0.0794 -0.07937,-0.10583 -0.47625,-0.39688 -0.02646,-0.0529 -0.555625,-0.0264 h -0.608542 l -0.423333,0.0264 z"
       class="go_38"
       id="path362"
       style="display:block;fill:none;stroke:#073763;stroke-width:0.302948;stroke-linejoin:round" />
    <path
       fill-rule="evenodd"
       d="m 49.197947,152.56528 c 0.105834,0 0.343959,-0.0265 0.529167,-0.0265 0.185208,-0.0265 0.47625,-0.0265 0.635,-0.0265 0.185208,0.0265 0.264583,0.0265 0.396875,0.0265 0.105833,0.0265 0.291042,0.0265 0.343958,0.0529 z"
       class="g1_38"
       id="path363"
       style="display:block;fill:#000000;fill-opacity:0;stroke-width:0.264583" />
    <path
       d="m 49.197947,152.56528 c 0.105834,0 0.343959,-0.0265 0.529167,-0.0265 0.185208,-0.0265 0.47625,-0.0265 0.635,-0.0265 0.185208,0.0265 0.264583,0.0265 0.396875,0.0265 0.105833,0.0265 0.291042,0.0265 0.343958,0.0529"
       class="go_38"
       id="path364"
       style="display:block;fill:none;stroke:#073763;stroke-width:0.302948;stroke-linejoin:round" />
    <path
       fill-rule="evenodd"
       d="m 48.615864,152.8034 c 0,0 -0.05292,0.0265 -0.05292,0.0794 -0.02646,0.0529 -0.02646,0.13229 -0.05292,0.23812 -0.02646,0.13229 -0.05292,0.34396 -0.07937,0.50271 0,0.13229 0,0.26458 0,0.39688 0,0.13229 0.02646,0.23812 0.05292,0.39687 0.02646,0.13229 0.105834,0.37042 0.132292,0.44979 z"
       class="g1_38"
       id="path365"
       style="display:block;fill:#000000;fill-opacity:0;stroke-width:0.264583" />
    <path
       d="m 48.615864,152.8034 c 0,0 -0.05292,0.0265 -0.05292,0.0794 -0.02646,0.0529 -0.02646,0.13229 -0.05292,0.23812 -0.02646,0.13229 -0.05292,0.34396 -0.07937,0.50271 0,0.13229 0,0.26458 0,0.39688 0,0.13229 0.02646,0.23812 0.05292,0.39687 0.02646,0.13229 0.105834,0.37042 0.132292,0.44979"
       class="go_38"
       id="path366"
       style="display:block;fill:none;stroke:#073763;stroke-width:0.302948;stroke-linejoin:round" />
    <path
       fill-rule="evenodd"
       d="m 51.711489,152.77694 c 0,0 0.02646,0.0529 0.05292,0.10584 0.02646,0.0529 0.02646,0.10583 0.05292,0.18521 0,0.0794 0.02646,0.21166 0.05292,0.34395 0.02646,0.10584 0.02646,0.23813 0.02646,0.37042 0,0.13229 -0.02646,0.29104 -0.02646,0.39688 0,0.10583 0.02646,0.0794 0,0.1852 -0.02646,0.10584 -0.132292,0.39688 -0.15875,0.47625 z"
       class="g1_38"
       id="path367"
       style="display:block;fill:#000000;fill-opacity:0;stroke-width:0.264583" />
    <path
       d="m 51.711489,152.77694 c 0,0 0.02646,0.0529 0.05292,0.10584 0.02646,0.0529 0.02646,0.10583 0.05292,0.18521 0,0.0794 0.02646,0.21166 0.05292,0.34395 0.02646,0.10584 0.02646,0.23813 0.02646,0.37042 0,0.13229 -0.02646,0.29104 -0.02646,0.39688 0,0.10583 0.02646,0.0794 0,0.1852 -0.02646,0.10584 -0.132292,0.39688 -0.15875,0.47625"
       class="go_38"
       id="path368"
       style="display:block;fill:none;stroke:#073763;stroke-width:0.302948;stroke-linejoin:round" />
    <path
       fill-rule="evenodd"
       d="m 50.547322,154.76132 -1.190625,0.87312 h -0.15875 l -0.105833,-0.0264 -0.07937,-0.0265 -0.05292,-0.0794 -0.211666,-0.47625 0.02646,-0.0529 0.05292,-0.0529 0.291041,-0.0794 0.343959,-0.0529 0.343958,-0.0265 h 0.555625 z"
       class="gq_38"
       id="path369"
       style="display:block;fill:#cfe2f3;stroke-width:0.264583" />
  </g>
</svg>
