<svg xmlns="http://www.w3.org/2000/svg" viewBox="0 0 203.85 378.33"><defs><style>.cls-1{opacity:0.75;}.cls-2{fill:#324047;}.cls-3{fill:#b64148;}.cls-4{fill:#b1353d;}.cls-5{fill:#a93237;}.cls-6{fill:#96b6c1;}.cls-7{fill:#627985;}.cls-8{fill:#c24861;}.cls-9{fill:#29c5d0;}.cls-10{fill:#c13f45;}.cls-11{fill:#c1474b;}.cls-12{fill:#c3595c;}.cls-13{fill:#52bbcb;}.cls-14{fill:#c1474c;}.cls-15{fill:#c03b58;}.cls-16{fill:#dadde1;}.cls-17{fill:#c3aacf;}.cls-18{opacity:0.47;}.cls-19{fill:#603813;stroke:#000;stroke-width:0.5px;}.cls-19,.cls-20,.cls-21{stroke-miterlimit:10;}.cls-20{stroke:red;}.cls-20,.cls-21{stroke-width:5px;}.cls-21{stroke:lime;}.cls-22{fill:#fff;}.cls-23{font-size:9px;font-family:MyriadPro-Regular, Myriad Pro;}</style></defs><title>Asset 30</title><g id="Layer_2" data-name="Layer 2"><g id="Layer_5" data-name="Layer 5" class="cls-1"><path class="cls-2" d="M48.93,26.13l-.26.28c-2.49,1.75-5,3.53-7.48,5.24a3,3,0,0,0-1.43,3c.46,5.6.78,11.2,1.24,16.79a27.52,27.52,0,0,0,.43,5.2A9.12,9.12,0,0,0,41.68,60c0,4.9,0,9.79,0,14.69,0,2.17,0,4.35.08,6.52-.19,2.39-.07,4.78-.07,7.17,0,4.62,0,9.23.06,13.85,0,.6,0,1.2-.07,1.79-.27,4.87.56,9.67.85,14.5a10.27,10.27,0,0,0,.52,3.37c0,.45.09.9.13,1.35a1.68,1.68,0,0,0,.17,1.28,6.32,6.32,0,0,0,.18,2A31.3,31.3,0,0,0,43.5,132c-.18,2.85-.19,5.71-.1,8.56a6.45,6.45,0,0,0-.21,2.27c-.14,7.64-.13,15.28-.3,22.93-.24,10.31-.36,20.63-.42,31-.11,18.72-.28,37.45-.63,56.17-.21,11.35-.12,22.71-.13,34.07,0,.59.06,1.19.09,1.79s-.07,1-.07,1.47q0,15.88,0,31.78c0,.92.07,1.85.11,2.78a2.65,2.65,0,0,0-.07.48l0,27a3.59,3.59,0,0,0,.32,1.43,6.6,6.6,0,0,0,2.8,3.5c1.41.78,2.51,2.11,4.21,2.4a3.17,3.17,0,0,0,3.14,1.58c2-.12,3.94-.05,5.9,0,4.65,0,9.28,0,13.93.27,5.56.33,11.12.77,16.69.77h33.77c1.58,0,3.16-.06,4.75-.14,4.74-.26,9.48-.57,14.23-.8,5.52-.26,11-.09,16.55,0a3.53,3.53,0,0,0,3.33-1.59c1.75-.43,3-1.67,4.45-2.64a6.25,6.25,0,0,0,2.81-5.55c0-8.22,0-16.45,0-24.68,0-.65-.06-1.3-.1-1.95,0-.93.12-1.85.12-2.78q0-13.42,0-26.86c0-1.91-.07-3.82-.11-5.73,0-.76.1-1.53.1-2.29,0-13.64,0-27.27-.25-40.91-.17-10.15-.13-20.29-.22-30.44,0-2.13-.17-4.25-.26-6.37,0-3.31,0-6.61,0-9.91a16.32,16.32,0,0,0-.17-3.56,22.37,22.37,0,0,0-.1-6.17c.1-5.71,0-11.42-.12-17.12a4.52,4.52,0,0,0-.12-.64,16.14,16.14,0,0,0-.09-5.19c0-.76.07-1.53.06-2.29q-.16-17.91-.35-35.83a58.75,58.75,0,0,1,.45-7.5,138.6,138.6,0,0,0,1.2-18.1c-.08-6.38,0-12.76,0-19.14,0-.6,0-1.2-.08-1.8.26-8.57-.15-17.14.32-25.71a3.59,3.59,0,0,0,.37-1.74q.48-7.08.94-14.17c.14-2.12.24-4.24.44-6.35a2.17,2.17,0,0,0-1-2.21l-.93-.66-6.85-5c-.44-1.8-1.86-2.31-3.42-2.55-3.35-.5-6.75-.51-10.12-.84-2.33-.24-4.67-.52-7-.6-4.31-.14-8.62-.13-12.93-.2A19.3,19.3,0,0,1,126,22c-4.65-.65-9.29-1.33-13.94-2a32.06,32.06,0,0,0-7.47-.71c-4.51.39-9,1-13.48,1.71A82.78,82.78,0,0,1,77.75,22.2a104.73,104.73,0,0,0-12.27.39c-3,.32-6,.58-9,.73-1.57.07-3.15.26-4.72.47s-2.59,1-2.86,2.37Z"/><path class="cls-3" d="M168.47,289.42c0,1.91.11,3.82.11,5.73q0,13.43,0,26.86c0,.93-.08,1.85-.12,2.78a2.13,2.13,0,0,0-.91,1.3c-.52,1.6-1.14,3.17-1.53,4.79-.77,3.17-1.87,6.23-2.84,9.33-.16.51-.26,1.07-.8,1.35-.22-2.31-.46-4.63-.67-6.95-.26-2.8-.44-5.62-.79-8.41a12.76,12.76,0,0,0-.54-3.68c.19-1.8-.57-3.43-.94-5.12-.77-3.63-1.62-7.24-2.38-10.86-.71-3.36-1.74-6.65-2.25-10.06a3.94,3.94,0,0,0-.66-1.83c-.26-2.89-1.31-5.61-1.86-8.45-.71-3.68-1.86-7.27-2.64-10.95s-1.81-7.29-2.7-10.94c-1.65-6.72-3.05-13.5-4.93-20.16.16-5.94,0-11.89.24-17.84.34-9.71,0-19.43.4-29.14.09-2.08-.15-2.23-2.21-2.26H70.17l-1.31,0a1.16,1.16,0,0,0-1.22,1.25c0,.38,0,.76,0,1.14.07,3.11,0,6.22.24,9.33a71.49,71.49,0,0,1,.06,8c-.17,9.83.51,19.65.36,29.47-.23.84-.47,1.68-.67,2.53-.72,3-1.4,5.94-2.13,8.9-1,4.23-2.09,8.46-3.11,12.69-1,4-1.8,8.08-2.87,12.07s-1.86,7.73-2.78,11.6a9.81,9.81,0,0,0-.58,3,26.23,26.23,0,0,0-1.53,5.65c-1.14,4.71-2.13,9.46-3.19,14.2a49.09,49.09,0,0,0-1.51,7.69,6.12,6.12,0,0,0-.28,1.1q-.71,7.38-1.37,14.75a5.92,5.92,0,0,1-.65,2.51,6.51,6.51,0,0,1-1.15-2.49c-1.11-3.63-2.16-7.27-3.28-10.89a4.93,4.93,0,0,0-1.37-2.7c0-.93-.11-1.86-.11-2.78q0-15.88,0-31.78c0-.49.05-1,.07-1.47a1.14,1.14,0,0,0,.89-1,36.81,36.81,0,0,0,.89-4.47c.25-3.59,1.26-7,1.7-10.6.4-3.17,1.16-6.29,1.36-9.49,1.16-.19,1-1.23,1.32-2a3.78,3.78,0,0,0,2.37-4.08c0,.33,0,.65,0,1s0,.57.35.67.46-.21.64-.39c4.79-4.78,9.56-9.58,14.4-14.31a3.76,3.76,0,0,0,1.17-3q-.36-22.27-.65-44.56a16.84,16.84,0,0,0-.58-3.87q-2.55-10.32-5.13-20.65c-1.57-6.24-3.19-12.47-4.77-18.71-.48-1.9-.88-3.82-1.32-5.73a.75.75,0,0,0,0-.3l-.61-1.39-1.95-7.53q-.5-3.81-1-7.61a1.42,1.42,0,0,0-.65-1.24l.32-2.95H122.1q18.5,0,37,0v.64h-.82l-104.9.06c-1.84,0-2.28.54-2,2.36,0,.21.12.42.17.63.41,1.64.83,3.28,1.23,4.93,1.07,4.34,2.11,8.69,3.2,13,1.14,4.56,2.34,9.09,3.48,13.65,1.43,5.72,2.8,11.45,4.23,17.17,1.17,4.66,2.4,9.3,3.59,13.95.44,1.7.43,1.72,2.14,1.72h71.14c2.1,0,2.12,0,2.64-2,1-3.76,1.91-7.52,2.85-11.27,1.43-5.72,2.84-11.44,4.28-17.16,1.16-4.55,2.36-9.09,3.52-13.64,1.67-6.61,3.31-13.24,5-19.85a9.35,9.35,0,0,0,.22-3.57c1.05.75,1,1.85,1,3-.57.3-.6.84-.68,1.39-.3,2.16-.47,4.34-.95,6.48-.65,1.56-.55,3.32-1.17,4.88a10.1,10.1,0,0,0-.48,5.57c-.17-.54.1-1.19-.54-2-.35,1.19-.72,2.14-.91,3.12-.82,4.23-2.13,8.34-3.06,12.55-.75,3.41-1.71,6.77-2.53,10.16-1.49,6.2-3.15,12.37-4.68,18.56a26.63,26.63,0,0,0-1.08,6.1c0,6.38-.18,12.77-.26,19.15-.1,8.41-.17,16.81-.26,25.22a3,3,0,0,0,.89,2.48c4.7,4.61,9.32,9.29,14,13.94a4.87,4.87,0,0,0,1,.79c.49.26.48-.23.62-.49a3.34,3.34,0,0,0,2.37,2.84c.08.84.32,1.54,1.31,1.65a30.57,30.57,0,0,0,.69,6.81c.42,2.25,1,4.48,1.21,6.75.36,3.92,1.48,7.7,1.89,11.6A1.82,1.82,0,0,0,168.47,289.42Z"/><path class="cls-4" d="M160.06,130.08c0-1.11.06-2.21-1-3h0c0-.22,0-.43,0-.64,1.08-.19,1.16-1.1,1.21-1.88a31.67,31.67,0,0,1,.89-4.64c.54-2.39,1.08-4.77,1.56-7.17a27.37,27.37,0,0,0,.61-4.69c1.13-.36,1.37-1.38,1.5-2.33a60.19,60.19,0,0,0,.81-7.11c0-1.73.27-3.46.44-5.19a13.43,13.43,0,0,1,.41-3.38c.81-2.25.43-4.47.11-6.69-.1-.71.05-1,.72-1.15.38-.06.76-.07,1.14-.1,0,.6.08,1.2.08,1.8,0,6.38-.06,12.76,0,19.14a138.6,138.6,0,0,1-1.2,18.1,58.75,58.75,0,0,0-.45,7.5q.19,17.93.35,35.83c0,.76,0,1.53-.06,2.29a8.91,8.91,0,0,0,.09,5.19,4.52,4.52,0,0,1,.12.64c.08,5.7.22,11.41.12,17.12-.55,1.74-.2,3.52-.25,5.29a1.34,1.34,0,0,0,.35.88,16.32,16.32,0,0,1,.17,3.56c0,3.3,0,6.6,0,9.91-1.32.15-2.25-.68-3.22-1.35a2.64,2.64,0,0,0-2.57-.61c-.07-4.2,0-8.4-.3-12.6-.28-3.64,0-7.3-.3-11-.31-3.41-.06-6.86-.35-10.3s0-6.75-.31-10.13c-.3-3.58-.22-7.2-.32-10.8C160.27,145.14,160.42,137.6,160.06,130.08Z"/><path class="cls-4" d="M50.57,126.47c-.11,1-.22,2-.32,2.95-.15,5.07.17,10.15-.29,15.22-.29,3.2-.06,6.43-.33,9.65-.28,3.42,0,6.86-.31,10.3-.32,4.13,0,8.28-.34,12.43s-.15,8.4-.29,12.6c-.18,5.61-.64,11.22-.43,16.85,0,.22,0,.44,0,.66a3.14,3.14,0,0,0-1.77,0c-1.44.4-2.15-.24-2-1.78a5.07,5.07,0,0,0,.05-1.78,5.85,5.85,0,0,1,0-2.6,3.56,3.56,0,0,0,0-1.3,19.21,19.21,0,0,1-.23-4.08q0-8,0-16.05c0-1.63,0-3.27-.17-4.89s.13-3.35,0-5c-.13-2,.19-4,.12-6-.07-2.33-.25-4.65-.13-7a12.43,12.43,0,0,0,0-2.28c-.35-2.71.12-5.42-.13-8.13-.18-1.89-.4-3.76-.69-5.63-.09-2.85-.08-5.71.1-8.56a4.89,4.89,0,0,0,.06-5.56,6.32,6.32,0,0,1-.18-2,.85.85,0,0,0-.17-1.28c0-.45-.09-.9-.13-1.35a5,5,0,0,0,.93-2.76,14.92,14.92,0,0,1,.56-4A16.93,16.93,0,0,0,43,103.45a2.12,2.12,0,0,0-1.21-1.26c0-4.62-.07-9.23-.06-13.85,0-2.39-.12-4.78.07-7.17a16.14,16.14,0,0,1,5.16.72q0,12.35,0,24.7a32.78,32.78,0,0,0,.46,5c.5,3.18,1.37,6.28,1.93,9.45C49.65,122.89,50.15,124.67,50.57,126.47Z"/><path class="cls-5" d="M43.4,140.59c.29,1.87.51,3.74.69,5.63.25,2.71-.22,5.42.13,8.13a12.43,12.43,0,0,1,0,2.28c-.12,2.34.06,4.66.13,7,.07,2-.25,4-.12,6,.12,1.69-.13,3.35,0,5s.17,3.26.17,4.89q0,8,0,16.05a19.21,19.21,0,0,0,.23,4.08,3.56,3.56,0,0,1,0,1.3,5.85,5.85,0,0,0,0,2.6,5.07,5.07,0,0,1-.05,1.78c-.14,1.54.57,2.18,2,1.78a3.14,3.14,0,0,1,1.77,0,29.49,29.49,0,0,1-.29,3.25c-.07,3.38-.1,6.75-.28,10.13-.33,6.15.14,12.32-.36,18.48-.27,3.31-.16,6.65-.26,10-.14,4.74-.48,9.47-.42,14.22-.2,3.2-1,6.32-1.36,9.49-.44,3.56-1.45,7-1.7,10.6a36.81,36.81,0,0,1-.89,4.47,1.14,1.14,0,0,1-.89,1c0-.6-.09-1.2-.09-1.79,0-11.36-.08-22.72.13-34.07.35-18.72.52-37.45.63-56.17.06-10.32.18-20.64.42-31,.17-7.65.16-15.29.3-22.93A6.45,6.45,0,0,1,43.4,140.59Z"/><path class="cls-5" d="M162.05,207.45a2.64,2.64,0,0,1,2.57.61c1,.67,1.9,1.5,3.22,1.35.09,2.12.24,4.24.26,6.37.09,10.15.05,20.29.22,30.44.23,13.64.29,27.27.25,40.91,0,.76-.06,1.53-.1,2.29a1.82,1.82,0,0,1-1-1.74c-.41-3.9-1.53-7.68-1.89-11.6-.21-2.27-.79-4.5-1.21-6.75a30.57,30.57,0,0,1-.69-6.81,39.35,39.35,0,0,0-.27-4.07c-.12-4.09-.27-8.18-.29-12.26,0-8-.42-16-.42-24.05a7.32,7.32,0,0,0,0-.81C162.09,216.72,162.56,212.06,162.05,207.45Z"/><path class="cls-3" d="M168.49,82.16c-.38,0-.76,0-1.14.1-.67.1-.82.44-.72,1.15.32,2.22.7,4.44-.11,6.69a13.43,13.43,0,0,0-.41,3.38c-.17,1.73-.44,3.46-.44,5.19a60.19,60.19,0,0,1-.81,7.11c-.13,1-.37,2-1.5,2.33q0-13.42,0-26.87c-.55-3.07-.22-6.2-.6-9.29s-.62-6.18-.79-9.28c-.16-2.88-.55-5.75-.55-8.64a11.88,11.88,0,0,1,.13-1.79c.38-2.59.78-5.18,1.17-7.77a12.13,12.13,0,0,0,2-1.84.83.83,0,0,0,0-1.39c-.23-.23-.41-.5-.63-.75-2.12-2.42-4.29-4.79-6.35-7.26-1.44-1.73-2.93-3.22-5.36-3.29a4.42,4.42,0,0,1-1.1-.31c-3.47-1-6.91-2-10.46-2.68a14.27,14.27,0,0,0-.81-2.78,6.38,6.38,0,0,1,2.09.07,3,3,0,0,0,2.19,1.27c3.58,1,7.05,2.26,10.61,3.27a4.81,4.81,0,0,1,2.33,1.41q4.67,5.14,9.4,10.22a3.47,3.47,0,0,1,1,2.16c.37,3.9.46,7.82.64,11.73a3,3,0,0,0,.56,2.15C168.34,65,168.75,73.59,168.49,82.16Z"/><path class="cls-6" d="M161.33,359.61A3.53,3.53,0,0,1,158,361.2c-5.51-.05-11-.22-16.55,0-4.75.23-9.49.54-14.23.8-1.59.08-3.17.14-4.75.14H88.7c-5.57,0-11.13-.44-16.69-.77-4.65-.28-9.28-.26-13.93-.27-2,0-3.94-.08-5.9,0A3.17,3.17,0,0,1,49,359.61a.32.32,0,0,0,.18-.2l19.75,0a8.28,8.28,0,0,0,1-.12,53.59,53.59,0,0,0,6.21.1c3.16,0,6.32.14,9.48-.1a6,6,0,0,0,1.79.12h35.16a5.62,5.62,0,0,0,1.78-.13c4,.26,8,.07,11.92.11a23.16,23.16,0,0,0,4.08-.11,4.42,4.42,0,0,0,.8.12l19.89,0Z"/><path class="cls-5" d="M41.43,56.63a27.52,27.52,0,0,1-.43-5.2c-.46-5.59-.78-11.19-1.24-16.79a3,3,0,0,1,1.43-3c2.52-1.71,5-3.49,7.48-5.24a3.45,3.45,0,0,0,.26-.28v0A8.68,8.68,0,0,1,54,24.9c3.42-.07,6.84-.23,10.26-.46a27.13,27.13,0,0,1,4.23-.21,1.05,1.05,0,0,1-.71.62c-3.74,1.19-7.45,2.52-11.25,3.49a8.77,8.77,0,0,0-4.72,3q-2.52,3-5.23,5.85c-1.25,1.3-2.39,2.7-3.58,4a3.31,3.31,0,0,0-.66,2.59c.08,3.74-.08,7.47-.34,11.19A2.11,2.11,0,0,1,41.43,56.63Z"/><path class="cls-5" d="M168.81,56.45a3,3,0,0,1-.56-2.15c-.18-3.91-.27-7.83-.64-11.73a3.47,3.47,0,0,0-1-2.16q-4.74-5.08-9.4-10.22a4.81,4.81,0,0,0-2.33-1.41c-3.56-1-7-2.29-10.61-3.27a3,3,0,0,1-2.19-1.27c4.58.14,9.15.61,13.74.66,2,0,3.93.06,5.6,1.33.08.07.21.06.32.09l6.85,5,.93.66a2.17,2.17,0,0,1,1,2.21c-.2,2.11-.3,4.23-.44,6.35q-.47,7.1-.94,14.17A3.59,3.59,0,0,1,168.81,56.45Z"/><path class="cls-3" d="M47,81.89a16.14,16.14,0,0,0-5.16-.72c0-2.17-.07-4.35-.08-6.52,0-4.9,0-9.79,0-14.69.76-.23,1-.85,1.36-1.51A19.29,19.29,0,0,1,44.88,55a10.25,10.25,0,0,0,1.87-4.45,20.37,20.37,0,0,0-.09-6.79l1,.58a17.59,17.59,0,0,0,.18,1.78,45.17,45.17,0,0,1,.69,15.25,92.85,92.85,0,0,0-.94,12.36c0,.54-.06,1.08-.11,1.62-.17,2-.35,3.9-.52,5.85Z"/><path class="cls-7" d="M161.75,26.32c-.11,0-.24,0-.32-.09-1.67-1.27-3.64-1.31-5.6-1.33-4.59,0-9.16-.52-13.74-.66a6.38,6.38,0,0,0-2.09-.07,84.18,84.18,0,0,0-8.55-.51c-.7-.07-1.4-.16-2.11-.21-1.85-.12-3.72-.09-5.55-.34C119,22.46,114.3,21.7,109.56,21a24.17,24.17,0,0,0-7.64-.17c-6.29,1-12.6,2-18.94,2.66l-2.84.08L79,23.6c-3,.16-6,.2-9,.59l-1.45,0a27.13,27.13,0,0,0-4.23.21c-3.42.23-6.84.39-10.26.46a8.68,8.68,0,0,0-5.12,1.26c.27-1.35,1.16-2.14,2.86-2.37s3.15-.4,4.72-.47c3-.15,6-.41,9-.73a104.73,104.73,0,0,1,12.27-.39A82.78,82.78,0,0,0,91.09,21c4.48-.69,9-1.32,13.48-1.71A32.06,32.06,0,0,1,112,20c4.65.67,9.29,1.35,13.94,2a19.3,19.3,0,0,0,2.29.11c4.31.07,8.62.06,12.93.2,2.34.08,4.68.36,7,.6,3.37.33,6.77.34,10.12.84C159.89,24,161.31,24.52,161.75,26.32Z"/><path class="cls-5" d="M161.33,359.61l-.28-.21a6,6,0,0,1-1.43-2.12,16.81,16.81,0,0,0,0-3.25,5.29,5.29,0,0,0,2.56-2.63,4.54,4.54,0,0,1,2.62-2.75,1.08,1.08,0,0,0,.75-1c.09-1,.17-2,.23-2.93a1.23,1.23,0,0,0-.47-1,2.78,2.78,0,0,0-2.65-.89h-.33l0-1.28c.54-.28.64-.84.8-1.35,1-3.1,2.07-6.16,2.84-9.33.39-1.62,1-3.19,1.53-4.79a2.13,2.13,0,0,1,.91-1.3c0,.65.1,1.3.1,1.95,0,8.23,0,16.46,0,24.68a6.25,6.25,0,0,1-2.81,5.55C164.35,357.94,163.08,359.18,161.33,359.61Z"/><path class="cls-5" d="M41.81,324.8a4.93,4.93,0,0,1,1.37,2.7c1.12,3.62,2.17,7.26,3.28,10.89a6.51,6.51,0,0,0,1.15,2.49v1.31c-.81.3-1.62.59-2.42.93a1.54,1.54,0,0,0-1.1,1.47c.06,1.12.23,2.25.39,3.37a.81.81,0,0,0,.66.66c1.35.22,1.9,1.31,2.57,2.29.42.63.87,1.24,1.26,1.89a1.77,1.77,0,0,0,1.63.88c0,1.11,0,2.22.07,3.33a4.57,4.57,0,0,1-1.45,2.4.32.32,0,0,1-.18.2c-1.7-.29-2.8-1.62-4.21-2.4a6.6,6.6,0,0,1-2.8-3.5,3.59,3.59,0,0,1-.32-1.43l0-27A2.65,2.65,0,0,1,41.81,324.8Z"/><path class="cls-4" d="M46.66,43.8a20.37,20.37,0,0,1,.09,6.79A10.25,10.25,0,0,1,44.88,55,19.29,19.29,0,0,0,43,58.45c-.31.66-.6,1.28-1.36,1.51a9.12,9.12,0,0,1-.25-3.33A2.11,2.11,0,0,0,42,55c.26-3.72.42-7.45.34-11.19A3.31,3.31,0,0,1,43,41.23a4.49,4.49,0,0,0,2.08.36C45,42.74,46.3,43,46.66,43.8Z"/><path class="cls-5" d="M41.78,102.19A2.12,2.12,0,0,1,43,103.45a16.93,16.93,0,0,1,1.58,11.6,14.92,14.92,0,0,0-.56,4,5,5,0,0,1-.93,2.76,10.27,10.27,0,0,1-.52-3.37c-.29-4.83-1.12-9.63-.85-14.5C41.75,103.39,41.76,102.79,41.78,102.19Z"/><path class="cls-5" d="M43.56,126.47A4.89,4.89,0,0,1,43.5,132,31.3,31.3,0,0,1,43.56,126.47Z"/><path class="cls-5" d="M167.66,195.94a1.34,1.34,0,0,1-.35-.88c.05-1.77-.3-3.55.25-5.29A22.37,22.37,0,0,1,167.66,195.94Z"/><path class="cls-5" d="M167.32,172a8.91,8.91,0,0,1-.09-5.19A16.14,16.14,0,0,1,167.32,172Z"/><path class="cls-5" d="M43.21,123.2a.85.85,0,0,1,.17,1.28A1.68,1.68,0,0,1,43.21,123.2Z"/><path class="cls-7" d="M48.93,26.13a3.45,3.45,0,0,1-.26.28A3.45,3.45,0,0,0,48.93,26.13Z"/><path class="cls-8" d="M47,81.89l0-.65,17,0c3,0,3.27-.24,3.27-3.25q0-10.65,0-21.29a14.71,14.71,0,0,1,.07-1.63.91.91,0,0,1,1-.88c2.12,0,4.24-.32,6.36-.11a15,15,0,0,0,2.12,0c3.38-.17,6.75-.42,10.13-.41,12.18.06,24.35,0,36.53,0,2.56,0,5.13-.28,7.66.42a2,2,0,0,0,.65,0c2.83-.26,5.67-.09,8.51-.12,2.59,0,2.69.1,2.7,2.65v21a15.46,15.46,0,0,0,0,1.8c.15,1.27.61,1.69,1.91,1.77.49,0,1,0,1.47,0l16.87,0q0,13.44,0,26.87a27.37,27.37,0,0,1-.61,4.69c-.48,2.4-1,4.78-1.56,7.17a31.67,31.67,0,0,0-.89,4.64c-.05.78-.13,1.69-1.21,1.88q-18.5,0-37,0H50.57c-.42-1.8-.92-3.58-1.24-5.4-.56-3.17-1.43-6.27-1.93-9.45a32.78,32.78,0,0,1-.46-5Q47,94.23,47,81.89Z"/><path class="cls-9" d="M159.07,127.12a9.35,9.35,0,0,1-.22,3.57c-1.68,6.61-3.32,13.24-5,19.85-1.16,4.55-2.36,9.09-3.52,13.64-1.44,5.72-2.85,11.44-4.28,17.16-.94,3.75-1.88,7.51-2.85,11.27-.52,2-.54,2-2.64,2H69.43c-1.71,0-1.7,0-2.14-1.72-1.19-4.65-2.42-9.29-3.59-13.95-1.43-5.72-2.8-11.45-4.23-17.17-1.14-4.56-2.34-9.09-3.48-13.65-1.09-4.34-2.13-8.69-3.2-13-.4-1.65-.82-3.29-1.23-4.93-.05-.21-.13-.42-.17-.63-.31-1.82.13-2.36,2-2.36l104.9-.06h.81Z"/><path class="cls-10" d="M162.36,342.84h.33a33.68,33.68,0,0,0,.7,4.35c.22.84,0,1.08-.85,1.19a8.84,8.84,0,0,1-1.15,0h-7.2c-4.2,0-8.4-.15-12.59.22-2.19.19-4.35-.11-6.52-.1-1.64,0-3.25.26-4.89.22-3.37-.07-6.76,0-10.14,0H85c-.87,0-1.75-.14-2.61-.11-1.8.07-3.58-.45-5.37-.09a16.4,16.4,0,0,1-2.61.21c-3,.08-6-.2-9-.31s-6.12,0-9.17,0H49.22c-2.66,0-2.67,0-2-2.51a12.26,12.26,0,0,0,.46-3.07H64.7c.6,0,1.2,0,1.8-.08a79.43,79.43,0,0,1,8.31-.57,69.47,69.47,0,0,0,8.65-.62c1.94-.24,2.17-.51,2.18-2.51q0-7,0-13.92c0-1.94-.33-2.32-2.31-2.27-9.18.21-18.35-.43-27.52-.35-2,0-3.93,0-5.9,0a49.09,49.09,0,0,1,1.51-7.69c1.06-4.74,2-9.49,3.19-14.2A26.23,26.23,0,0,1,56.14,295h95.12a6.79,6.79,0,0,0,2.9-.32,3.94,3.94,0,0,1,.66,1.83c.51,3.41,1.54,6.7,2.25,10.06.76,3.62,1.61,7.23,2.38,10.86.37,1.69,1.13,3.32.94,5.12h-1.8c-10.59-.2-21.17.55-31.76.35-1.92,0-2.15.24-2.17,2.19,0,3.12,0,6.23,0,9.34a23.88,23.88,0,0,0,0,5.21c.28,1.45.43,1.74,1.93,1.93a68,68,0,0,0,9.13.66,29.29,29.29,0,0,1,3.11.07c3.2.3,6.4.61,9.63.59C153.08,342.81,157.72,342.84,162.36,342.84Z"/><path class="cls-11" d="M154.16,294.65a6.79,6.79,0,0,1-2.9.32H56.14a9.81,9.81,0,0,1,.58-3c.92-3.87,1.76-7.75,2.78-11.6s1.9-8,2.87-12.07c1-4.23,2.09-8.46,3.11-12.69.73-3,1.41-5.94,2.13-8.9.2-.85.44-1.69.67-2.53H142c1.88,6.66,3.28,13.44,4.93,20.16.89,3.65,1.93,7.27,2.7,10.94s1.93,7.27,2.64,10.95C152.85,289,153.9,291.76,154.16,294.65Z"/><path class="cls-12" d="M142,244.15H68.28c.15-9.82-.53-19.64-.36-29.47a71.49,71.49,0,0,0-.06-8c-.28-3.11-.17-6.22-.24-9.33,0-.38,0-.76,0-1.14a1.16,1.16,0,0,1,1.22-1.25l1.31,0h70.29c2.06,0,2.3.18,2.21,2.26-.4,9.71-.06,19.43-.4,29.14C142.07,232.26,142.19,238.21,142,244.15Z"/><path class="cls-13" d="M160,258c-.14.26-.13.75-.62.49a4.87,4.87,0,0,1-1-.79c-4.66-4.65-9.28-9.33-14-13.94a3,3,0,0,1-.89-2.48c.09-8.41.16-16.81.26-25.22.08-6.38.22-12.77.26-19.15a26.63,26.63,0,0,1,1.08-6.1c1.53-6.19,3.19-12.36,4.68-18.56.82-3.39,1.78-6.75,2.53-10.16.93-4.21,2.24-8.32,3.06-12.55.19-1,.56-1.93.91-3.12.64.76.37,1.41.54,2,0,1.1,0,2.19,0,3.28q.84,29.63,1.7,59.23.65,22.26,1.31,44.51C159.82,256.29,159.91,257.16,160,258Z"/><path class="cls-13" d="M54.48,147.49c.44,1.91.84,3.83,1.32,5.73,1.58,6.24,3.2,12.47,4.77,18.71q2.59,10.32,5.13,20.65a16.84,16.84,0,0,1,.58,3.87q.3,22.29.65,44.56a3.76,3.76,0,0,1-1.17,3c-4.84,4.73-9.61,9.53-14.4,14.31-.18.18-.3.5-.64.39s-.34-.39-.35-.67,0-.65,0-1c.05-.65.14-1.31.16-2q1-34.29,2.06-68.58c.37-12.33.52-24.67,1-37,.05-1.26.16-2.51.25-3.76.2.46.4.93.61,1.39a.24.24,0,0,0,0,.1A1.76,1.76,0,0,0,54.48,147.49Z"/><path class="cls-14" d="M162.36,342.84c-4.64,0-9.28,0-13.92,0-3.23,0-6.43-.29-9.63-.59a29.29,29.29,0,0,0-3.11-.07,68,68,0,0,1-9.13-.66c-1.5-.19-1.65-.48-1.93-1.93a23.88,23.88,0,0,1,0-5.21c0-3.11,0-6.22,0-9.34,0-1.95.25-2.23,2.17-2.19,10.59.2,21.17-.55,31.76-.35h1.8a12.76,12.76,0,0,1,.54,3.68c.35,2.79.53,5.61.79,8.41.21,2.32.45,4.64.67,6.95Z"/><path class="cls-14" d="M49.91,322.52c2,0,3.93,0,5.9,0,9.17-.08,18.34.56,27.52.35,2-.05,2.3.33,2.31,2.27q0,7,0,13.92c0,2-.24,2.27-2.18,2.51a69.47,69.47,0,0,1-8.65.62,79.43,79.43,0,0,0-8.31.57c-.6.06-1.2.08-1.8.08H47.65c0-.21,0-.43,0-.64v-1.31a5.92,5.92,0,0,0,.65-2.51q.68-7.38,1.37-14.75A6.12,6.12,0,0,1,49.91,322.52Z"/><path class="cls-12" d="M53.83,145.8c-.09,1.25-.2,2.5-.25,3.76-.51,12.32-.66,24.66-1,37q-1,34.29-2.06,68.58c0,.65-.11,1.31-.16,2A3.79,3.79,0,0,1,48,261.18c-.1-2.13.19-4.24.29-6.37.15-3.21,0-6.42.28-9.64.29-3.7.09-7.41.35-11.12.29-4.19,0-8.39.32-12.6.29-3.52,0-7.08.33-10.63.27-3.09.07-6.2.32-9.31.28-3.59.12-7.19.33-10.79.32-5.5-.12-11,.35-16.53.28-3.31.18-6.65.27-10,.13-5,.51-10,.44-15.05-.05-3.22.5-6.42.33-9.64a2.41,2.41,0,0,1,.31-1.26Z"/><path class="cls-12" d="M160,258c-.07-.87-.16-1.74-.19-2.61q-.66-22.26-1.31-44.51-.85-29.61-1.7-59.23c0-1.09,0-2.18,0-3.28a10.1,10.1,0,0,1,.48-5.57c.62-1.56.52-3.32,1.17-4.88a2.39,2.39,0,0,1,.31,1.25c0,1.92.2,3.81.29,5.72.18,3.48.08,7,.32,10.47.3,4.18,0,8.39.33,12.59.3,3.47,0,7,.32,10.46s.14,6.76.32,10.14c.31,5.88.1,11.78.32,17.67.21,5.4.61,10.79.43,16.2a1.22,1.22,0,0,0,0,.33c.65,4.28.13,8.6.56,12.91.35,3.57.09,7.18.31,10.79.3,4.78-.07,9.6.4,14.39A3.34,3.34,0,0,1,160,258Z"/><path class="cls-10" d="M51.88,138.27a2.41,2.41,0,0,0-.31,1.26c.17,3.22-.38,6.42-.33,9.64.07,5-.31,10-.44,15.05-.09,3.32,0,6.66-.27,10-.47,5.51,0,11-.35,16.53-.21,3.6,0,7.2-.33,10.79-.25,3.11-.05,6.22-.32,9.31-.31,3.55,0,7.11-.33,10.63-.36,4.21,0,8.41-.32,12.6-.26,3.71-.06,7.42-.35,11.12-.25,3.22-.13,6.43-.28,9.64-.1,2.13-.39,4.24-.29,6.37-.29.77-.16,1.81-1.32,2-.06-4.75.28-9.48.42-14.22.1-3.32,0-6.66.26-10,.5-6.16,0-12.33.36-18.48.18-3.38.21-6.75.28-10.13a29.49,29.49,0,0,0,.29-3.25c0-.22,0-.44,0-.66-.21-5.63.25-11.24.43-16.85.14-4.2,0-8.42.29-12.6s0-8.3.34-12.43c.27-3.44,0-6.88.31-10.3.27-3.22,0-6.45.33-9.65.46-5.07.14-10.15.29-15.22a1.42,1.42,0,0,1,.65,1.24Q51.38,134.45,51.88,138.27Z"/><path class="cls-10" d="M162.35,260.87c-.47-4.79-.1-9.61-.4-14.39-.22-3.61,0-7.22-.31-10.79-.43-4.31.09-8.63-.56-12.91a1.22,1.22,0,0,1,0-.33c.18-5.41-.22-10.8-.43-16.2-.22-5.89,0-11.79-.32-17.67-.18-3.38,0-6.77-.32-10.14s0-7-.32-10.46c-.37-4.2,0-8.41-.33-12.59-.24-3.5-.14-7-.32-10.47-.09-1.91-.31-3.8-.29-5.72a2.39,2.39,0,0,0-.31-1.25c.48-2.14.65-4.32.95-6.48.08-.55.11-1.09.68-1.39.36,7.52.21,15.06.41,22.58.1,3.6,0,7.22.32,10.8.28,3.38,0,6.77.31,10.13s0,6.89.35,10.3c.33,3.66,0,7.32.3,11,.33,4.2.23,8.4.3,12.6.51,4.61,0,9.27.59,13.88a7.32,7.32,0,0,1,0,.81c0,8,.38,16,.42,24.05,0,4.08.17,8.17.29,12.26a39.35,39.35,0,0,1,.27,4.07C162.67,262.41,162.43,261.71,162.35,260.87Z"/><path class="cls-12" d="M54.48,147.49a1.76,1.76,0,0,1-.09-.2.24.24,0,0,1,0-.1A.75.75,0,0,1,54.48,147.49Z"/><path class="cls-15" d="M163.32,81.24l-16.87,0c-.49,0-1,0-1.47,0-1.3-.08-1.76-.5-1.91-1.77a15.46,15.46,0,0,1,0-1.8v-21c0-2.55-.11-2.67-2.7-2.65-2.84,0-5.68-.14-8.51.12a2,2,0,0,1-.65,0c-2.53-.7-5.1-.42-7.66-.42-12.18,0-24.35,0-36.53,0-3.38,0-6.75.24-10.13.41a15,15,0,0,1-2.12,0c-2.12-.21-4.24.14-6.36.11a.91.91,0,0,0-1,.88,14.71,14.71,0,0,0-.07,1.63q0,10.65,0,21.29c0,3-.24,3.25-3.27,3.25l-17,0c.17-1.95.35-3.9.52-5.85,0-.54.11-1.08.11-1.62a92.85,92.85,0,0,1,.94-12.36,45.17,45.17,0,0,0-.69-15.25,17.59,17.59,0,0,1-.18-1.78A72.1,72.1,0,0,0,54.52,40c3.21-2,6.36-4.17,9.51-6.3,2.07-1.4,4.22-2.67,6.16-4.26l2.32-.05c.22,0,.44,0,.66,0,5.78-.09,11.55.23,17.33-.55,3.45-.47,7-.64,10.42-1a24,24,0,0,1,5.21-.37l10.74,1.14c2.77.28,5.53.68,8.31.76,4.09.13,8.19,0,12.28,0l2.47-.31a12.77,12.77,0,0,0,2.35,2q5.83,3.87,11.68,7.71c2.9,1.9,5.73,3.93,8.72,5.69-.39,2.59-.79,5.18-1.17,7.77a11.88,11.88,0,0,0-.13,1.79c0,2.89.39,5.76.55,8.64.17,3.1.42,6.2.79,9.28S162.77,78.17,163.32,81.24Z"/><path class="cls-16" d="M162.68,44.47c-3-1.76-5.82-3.79-8.72-5.69q-5.85-3.83-11.68-7.71a12.77,12.77,0,0,1-2.35-2,6.41,6.41,0,0,1,.88-2.13c3.55.66,7,1.7,10.46,2.68a4.42,4.42,0,0,0,1.1.31c2.43.07,3.92,1.56,5.36,3.29,2.06,2.47,4.23,4.84,6.35,7.26.22.25.4.52.63.75a.83.83,0,0,1,0,1.39A12.13,12.13,0,0,1,162.68,44.47Z"/><path class="cls-5" d="M140.81,27a6.41,6.41,0,0,0-.88,2.13l-2.47.31a2.72,2.72,0,0,0-2.34-.9,20.75,20.75,0,0,1-2.74-.37l-.16-1a1.62,1.62,0,0,0,0-.22c.07-.58.62-1,.55-1.64.34-.21.49-.48,0-.62s-1.09-.33-1.33-.94a84.18,84.18,0,0,1,8.55.51A14.27,14.27,0,0,1,140.81,27Z"/><path class="cls-5" d="M85.63,359.32c-3.16.24-6.32.08-9.48.1a53.59,53.59,0,0,1-6.21-.1l-1.41-2,.09-1.3c4.31-.15,8.61.11,12.93-.3,3.24-.3,6.54-.28,9.8-.3,10.09,0,20.19-.28,30.29.16,5.11.22,10.24.53,15.37.41,1.47,0,2.94.39,4.4,0a3,3,0,0,0,.36,1.31c-.44.7-1.38,1.05-1.41,2a23.16,23.16,0,0,1-4.08.11c-4,0-7.95.15-11.92-.11-.39-.93-1.25-1-2.06-1-1.58,0-3.15-.3-4.71-.3-4.41,0-8.81-.23-13.21-.39-1.91-.06-3.78.45-5.7.34-3.54-.23-7.06.26-10.59.34A2.74,2.74,0,0,0,85.63,359.32Z"/><path class="cls-3" d="M85.63,359.32a2.74,2.74,0,0,1,2.46-1c3.53-.08,7-.57,10.59-.34,1.92.11,3.79-.4,5.7-.34,4.4.16,8.8.38,13.21.39,1.56,0,3.13.27,4.71.3.81,0,1.67.08,2.06,1a5.62,5.62,0,0,1-1.78.13H87.42A6,6,0,0,1,85.63,359.32Z"/><path class="cls-3" d="M140.36,359.31c0-1,1-1.33,1.41-2h17.85a6,6,0,0,0,1.43,2.12l-19.89,0A4.42,4.42,0,0,1,140.36,359.31Z"/><path class="cls-3" d="M68.53,357.28l1.41,2a8.28,8.28,0,0,1-1,.12l-19.75,0a4.57,4.57,0,0,0,1.45-2.4,6.48,6.48,0,0,0,2.4.27Z"/><path class="cls-3" d="M45.12,41.59A4.49,4.49,0,0,1,43,41.23c1.19-1.35,2.33-2.75,3.58-4q2.72-2.84,5.23-5.85a8.77,8.77,0,0,1,4.72-3c3.8-1,7.51-2.3,11.25-3.49a1.05,1.05,0,0,0,.71-.62l1.45,0-.45,2.7c-1.63.42-3.28.78-4.92,1.19-2.7.67-5.32,1.64-8.07,2.14a3.65,3.65,0,0,0-2.28,1.16c-1.37,1.63-2.74,3.25-4.19,4.8C48.39,38,47,40,45.12,41.59Z"/><path class="cls-16" d="M45.12,41.59C47,40,48.39,38,50.07,36.18c1.45-1.55,2.82-3.17,4.19-4.8a3.65,3.65,0,0,1,2.28-1.16c2.75-.5,5.37-1.47,8.07-2.14,1.64-.41,3.29-.77,4.92-1.19a3.39,3.39,0,0,1,.66,2.55C68.25,31,66.1,32.3,64,33.7c-3.15,2.13-6.3,4.26-9.51,6.3a72.1,72.1,0,0,1-6.84,4.38l-1-.58C46.3,43,45,42.74,45.12,41.59Z"/><path class="cls-3" d="M131.45,23.66c.24.61.76.77,1.33.94s.34.41,0,.62c-3.15-.33-6.33-.2-9.47-.56-4.93-.56-9.83-1.31-14.74-2a22.83,22.83,0,0,0-6.18-.11c-7.18.91-14.31,2.37-21.6,2.46a6.2,6.2,0,0,0-3.19.51c-.52-.31-.86-.67,0-.93.6-.18,1.36,0,1.42-1l1.12-.05c1.12.9,1.82.88,2.84-.08,6.34-.67,12.65-1.64,18.94-2.66a24.17,24.17,0,0,1,7.64.17c4.74.72,9.48,1.48,14.23,2.13,1.83.25,3.7.22,5.55.34C130.05,23.5,130.75,23.59,131.45,23.66Z"/><path class="cls-5" d="M79,23.6c-.06.93-.82.79-1.42,1-.86.26-.52.62,0,.93a2.76,2.76,0,0,1,.33,2.29,3.76,3.76,0,0,1-2.44.68c-1.07,0-2.19,0-3,.92l-2.32.05a3.39,3.39,0,0,0-.66-2.55l.45-2.7C73,23.8,76,23.76,79,23.6Z"/><path class="cls-5" d="M83,23.47c-1,1-1.72,1-2.84.08Z"/><path class="cls-4" d="M141.41,356c-1.46.37-2.93-.06-4.4,0-5.13.12-10.26-.19-15.37-.41-10.1-.44-20.2-.2-30.29-.16-3.26,0-6.56,0-9.8.3-4.32.41-8.62.15-12.93.3a2.68,2.68,0,0,0-1.24-.34c-5.63-.36-11.19-1.28-16.78-2A1.77,1.77,0,0,1,49,352.8c-.39-.65-.84-1.26-1.26-1.89-.67-1-1.22-2.07-2.57-2.29a.81.81,0,0,1-.66-.66c-.16-1.12-.33-2.25-.39-3.37a1.54,1.54,0,0,1,1.1-1.47c.8-.34,1.61-.63,2.42-.93,0,.21,0,.43,0,.64a12.26,12.26,0,0,1-.46,3.07c-.64,2.51-.63,2.51,2,2.51h7.05c3,0,6.11-.08,9.17,0s6,.39,9,.31a16.4,16.4,0,0,0,2.61-.21c1.79-.36,3.57.16,5.37.09.86,0,1.74.11,2.61.11h35c3.38,0,6.77-.05,10.14,0,1.64,0,3.25-.2,4.89-.22,2.17,0,4.33.29,6.52.1,4.19-.37,8.39-.22,12.59-.22h7.2a8.84,8.84,0,0,0,1.15,0c.85-.11,1.07-.35.85-1.19a33.68,33.68,0,0,1-.7-4.35,2.78,2.78,0,0,1,2.65.89,1.23,1.23,0,0,1,.47,1c-.06,1-.14,2-.23,2.93a1.08,1.08,0,0,1-.75,1,4.54,4.54,0,0,0-2.62,2.75,5.29,5.29,0,0,1-2.56,2.63,28,28,0,0,0-4.38.19c-3.22.4-6.42,1-9.68,1.15A16.55,16.55,0,0,0,141.41,356Z"/><path class="cls-10" d="M141.41,356a16.55,16.55,0,0,1,4.18-.6c3.26-.15,6.46-.75,9.68-1.15a28,28,0,0,1,4.38-.19,16.81,16.81,0,0,1,0,3.25H141.77A3,3,0,0,1,141.41,356Z"/><path class="cls-10" d="M50.6,353.68c5.59.68,11.15,1.6,16.78,2a2.68,2.68,0,0,1,1.24.34l-.09,1.3H53.07a6.48,6.48,0,0,1-2.4-.27C50.64,355.9,50.62,354.79,50.6,353.68Z"/><path class="cls-3" d="M72.51,29.39c.79-1,1.91-.9,3-.92a3.76,3.76,0,0,0,2.44-.68,1.69,1.69,0,0,0,1.36.43c3,0,6,.15,9-.12,4.34-.4,8.67-.85,13-1.23a24,24,0,0,1,4.56-.34c5.15.5,10.3,1,15.45,1.5a54.08,54.08,0,0,0,11.09.09,20.75,20.75,0,0,0,2.74.37,2.72,2.72,0,0,1,2.34.9c-4.09,0-8.19.12-12.28,0-2.78-.08-5.54-.48-8.31-.76l-10.74-1.14a24,24,0,0,0-5.21.37c-3.47.37-7,.54-10.42,1-5.78.78-11.55.46-17.33.55C73,29.42,72.73,29.4,72.51,29.39Z"/><path class="cls-7" d="M132.38,28.12A54.08,54.08,0,0,1,121.29,28c-5.15-.51-10.3-1-15.45-1.5a24,24,0,0,0-4.56.34c-4.34.38-8.67.83-13,1.23-3,.27-6,.1-9,.12a1.69,1.69,0,0,1-1.36-.43,2.76,2.76,0,0,0-.33-2.29A6.2,6.2,0,0,1,80.79,25c7.29-.09,14.42-1.55,21.6-2.46a22.83,22.83,0,0,1,6.18.11c4.91.71,9.81,1.46,14.74,2,3.14.36,6.32.23,9.47.56.07.63-.48,1.06-.55,1.64l-.08.11.07.11Z"/><path class="cls-3" d="M132.22,27.08l-.07-.11.08-.11A1.62,1.62,0,0,1,132.22,27.08Z"/><rect class="cls-2" x="149.48" y="254.43" width="18" height="58.58" rx="4.15" transform="translate(316.95 567.45) rotate(-180)"/><rect class="cls-2" x="43.08" y="254.43" width="18" height="58.58" rx="4.15" transform="translate(104.17 567.45) rotate(-180)"/><rect class="cls-2" x="43.47" y="57.09" width="18" height="58.58" rx="4.15" transform="translate(141.1 134.95) rotate(150)"/><rect class="cls-17" x="43.47" y="57.09" width="18" height="58.58" rx="4.15" transform="translate(54.72 187.42) rotate(-150)"/><rect class="cls-2" x="149.47" y="57.09" width="18" height="58.58" rx="4.15" transform="translate(338.9 81.95) rotate(150)"/><rect class="cls-17" x="149.47" y="57.09" width="18" height="58.58" rx="4.15" transform="translate(252.52 240.42) rotate(-150)"/><path class="cls-2" d="M18.33,143.41l27-8.68s-4.13-11.22-13.07-7.52S18.33,139,18.33,143.41Z"/><path class="cls-2" d="M192,143.41l-27-8.68s4.13-11.22,13.07-7.52S192,139,192,143.41Z"/></g><g id="bbox" class="cls-18"><polygon class="cls-19" points="37.78 17.45 37.78 56.45 27.41 61.59 29.78 123.84 14.37 137.94 14.37 148.71 39.74 141.59 39.74 365.3 170.58 365.3 170.58 143.41 194.22 149.89 194.22 133.3 182.67 123.84 182.37 61.59 172.59 54.34 172.59 17.45 37.78 17.45"/><circle cx="172.59" cy="17.45" r="2.83"/><circle cx="172.59" cy="54.33" r="2.83"/><circle cx="182.37" cy="61.59" r="2.83"/><circle cx="182.67" cy="123.84" r="2.83"/><circle cx="194.22" cy="133.3" r="2.83"/><circle cx="194.22" cy="149.89" r="2.83"/><circle cx="170.58" cy="143.41" r="2.83"/><circle cx="170.58" cy="365.3" r="2.83"/><circle cx="39.74" cy="365.3" r="2.83"/><circle cx="39.74" cy="141.59" r="2.83"/><circle cx="14.37" cy="148.71" r="2.83"/><circle cx="14.37" cy="137.95" r="2.83"/><circle cx="29.78" cy="123.84" r="2.83"/><circle cx="27.41" cy="61.59" r="2.83"/><circle cx="37.78" cy="56.45" r="2.83"/><circle cx="37.78" cy="17.45" r="2.83"/></g><g id="Layer_8" data-name="Layer 8"><line class="cls-20" x1="104.95" y1="378.33" x2="104.95"/><line class="cls-21" x1="188.59" y1="283.72" x2="22.07" y2="283.72"/><circle class="cls-22" cx="104.95" cy="283.72" r="1.54"/></g><g id="text"><text class="cls-23" transform="translate(176.25 14.42)">1</text><text class="cls-23" transform="translate(176.25 51.31)">2</text><text class="cls-23" transform="translate(187.62 61.64)">3</text><text class="cls-23" transform="translate(185.84 120.81)">4</text><text class="cls-23" transform="translate(196.06 129.78)">5</text><text class="cls-23" transform="translate(195.69 158.59)">6</text><text class="cls-23" transform="translate(172.73 153.88)">7</text><text class="cls-23" transform="translate(172.73 374.79)">8</text><text class="cls-23" transform="translate(30.88 374.79)">9</text><text class="cls-23" transform="translate(28.57 153.88)">10</text><text class="cls-23" transform="translate(1.31 156.55)">11</text><text class="cls-23" transform="translate(0.86 138.1)">12</text><text class="cls-23" transform="translate(15.24 123.43)">13</text><text class="cls-23" transform="translate(13.71 64.52)">14</text><text class="cls-23" transform="translate(24.67 54.53)">15</text><text class="cls-23" transform="translate(24.67 19.13)">16</text></g></g></svg>