<svg xmlns="http://www.w3.org/2000/svg" viewBox="0 0 499.88 395.13"><defs><style>.cls-1{opacity:0.75;}.cls-2{fill:#314047;}.cls-3{fill:#c0445f;}.cls-4{fill:#26373f;}.cls-5{fill:#c04c55;}.cls-6{fill:#c0474d;}.cls-7{fill:#a42122;}.cls-8{fill:#60828f;}.cls-9{fill:#af3137;}.cls-10{fill:#a31718;}.cls-11{fill:#c15268;}.cls-12{fill:#31c4d0;}.cls-13{fill:#b7393e;}.cls-14{fill:#dae0e3;}.cls-15{fill:#19262c;}.cls-16{fill:#4cbecb;}.cls-17{fill:#324047;}.cls-18{fill:#4d4d4d;}.cls-19,.cls-20,.cls-21,.cls-22,.cls-23,.cls-24{font-size:18.37px;}.cls-19{fill:blue;}.cls-19,.cls-20,.cls-21,.cls-22,.cls-23,.cls-24,.cls-25{font-family:Tahoma-Bold, Tahoma;font-weight:700;}.cls-20{fill:red;}.cls-21{fill:#750c14;}.cls-22{fill:#006837;}.cls-23{fill:#010159;}.cls-24{fill:#39b54a;}.cls-25{font-size:12.86px;fill:#f2f2f2;}.cls-26{stroke:blue;}.cls-26,.cls-27,.cls-28,.cls-29{stroke-miterlimit:10;stroke-width:5px;}.cls-27,.cls-28{stroke:lime;}.cls-27{opacity:0.5;}.cls-29{stroke:red;}.cls-30{fill:#fff;}.cls-31{fill:#262671;}.cls-32{fill:#267e54;}.cls-33{fill:#893037;}</style></defs><title>Asset 26</title><g id="Layer_2" data-name="Layer 2"><g id="Layer_5" data-name="Layer 5" class="cls-1"><path class="cls-2" d="M421.94,156.63l0,0c-.29-.59-.88-.8-1.39-1.09q-8.18-4.76-16.37-9.49l-13.39-7.76c-4.26-2.55-8.48-5.15-12.77-7.63-5.75-3.34-11.49-6.7-17.39-9.77-.35-.24-.69-.52-1.06-.74-9.3-5.32-18.63-10.6-27.9-16a8.19,8.19,0,0,0-5.11-1.25,2,2,0,0,0-1.41.3c-14.18,6.61-28.77,12.41-41.91,21.13-6.22,4.13-12.65,8-19,11.92-9.14,4.41-18.3,8.79-26.84,14.35-4.34,2.82-8.78,5.49-13.18,8.24-.41.26-.84.51-1.23.8q-24.37,17.9-48.75,35.82c-6,4.39-11.91,8.82-17.86,13.23-.57.33-1.15.62-1.69,1-9.84,6.66-19.62,13.43-29.55,20A96.55,96.55,0,0,0,105.69,246a80.22,80.22,0,0,1-16.76,14.26c-2.38,3.1-4.34,6.49-6.47,9.76q-4.35,8.3-8.73,16.57c-.37.71-.67,1.38-.13,2.12a4.83,4.83,0,0,0,.6,2.32c.34,1.52.68,3,1,4.56-.24,2.22-.47,4.44-.73,6.65a2.36,2.36,0,0,0,1,2.23c2.66,2.25,5.25,4.57,7.87,6.86a12.09,12.09,0,0,0-7.22,8.43,5,5,0,0,0,.64,4.51,34.94,34.94,0,0,0,9.76,8.57c4.16,2.68,8.5,5.07,12.69,7.7,2.38,1.49,4.58,3.27,6.93,4.81a175.64,175.64,0,0,0,16.74,9.49c6.4,3.27,12.8,6.54,19.11,10,5.71,3.1,11.47,5.92,18,7.06a28.54,28.54,0,0,0,8.78.29c5.91-.81,11.47-3,16.9-5.44,5-2.27,10-4.43,15.39-5.35a54.08,54.08,0,0,0,5.73-1.34,60.41,60.41,0,0,0,14.79-6.9c4.07-2.46,7.81-5.3,9.75-9.79,1.65-3.79,4.63-6.34,7.43-9.15,2.05-2.06,4.57-3.49,6.7-5.44a57.38,57.38,0,0,1,6.89-5.21c5.53-3.69,11.41-6.77,17.24-9.95,3.11-1.69,6.12-3.6,9.26-5.2,5.19-2.63,10.18-5.62,15.33-8.31,5.73-3,11.29-6.29,17-9.39,7.5-4.1,15-8.13,22.56-12.21,7.31-4,14.5-8.21,22-11.74a36.86,36.86,0,0,1,10.05-3.32,102,102,0,0,0,11.11-1.81,54.91,54.91,0,0,0,14.43-6.47,38.62,38.62,0,0,0,8.21-6.42c1.65-1.75,2.8-3.94,4.73-5.41,3.4-2.61,6.79-5.27,10.33-7.68a117.1,117.1,0,0,0,11.07-8.05c2.35-2,4-4.7,2.84-8.1-1.46-4.16-4.9-6.32-8.61-8.13,1.85-2.55,3.63-5.16,5.59-7.62a12.68,12.68,0,0,0,3-7.71l.32-.4v-.9l.27-.4.08-.63a45.91,45.91,0,0,0,2.1-8.5,2.08,2.08,0,0,0,.15-.62c-.32-3.85-.67-7.7-1-11.55a1.88,1.88,0,0,0-.75-1.23,17.15,17.15,0,0,1-6-12,5.09,5.09,0,0,0-.25-1.28c-.18-.54,0-1.25-.72-1.55Z"/><path class="cls-3" d="M88.93,260.27A80.22,80.22,0,0,0,105.69,246a96.55,96.55,0,0,1,19.49-16.33c9.93-6.54,19.71-13.31,29.55-20,.54-.36,1.12-.65,1.69-1l1,.35c.28.76,1,.93,1.63,1.27q29.55,17.09,59.12,34.14,12,7,24.06,14h0l.6.34c.18.83-.47,1.31-.87,1.85-2.51,3.35-5.06,6.68-7.61,10a12.12,12.12,0,0,1-2.65,3.07c-5.33,3.6-10.63,7.24-15.95,10.85a42.79,42.79,0,0,1-5.87,3.82c-.58-.41-1.18-.79-1.74-1.23-4.25-3.39-8.52-6.75-12.73-10.2a1.7,1.7,0,0,0-2.56.07c-.91.78-1.86,1.52-2.8,2.25-5.69,4.47-11.46,8.84-17.08,13.4-6.58,5.35-13.07,10.82-19.52,16.33-1,.82-2.53,1.25-2.58,2.93-1.63-.07-2.8-1.17-4.08-1.94a157.44,157.44,0,0,0-18.23-9.58,77.3,77.3,0,0,1-14.79-8.64,152.87,152.87,0,0,0-18.94-11.6c-.46-1.5-.88-3-1.38-4.51-1.55-4.63-2.75-9.37-4.54-13.93Z"/><path class="cls-4" d="M419.92,211.37c3.72,1.81,7.16,4,8.62,8.13,1.2,3.4-.49,6.05-2.84,8.1a117.1,117.1,0,0,1-11.07,8.05c-3.54,2.41-6.93,5.07-10.33,7.68-1.93,1.47-3.08,3.66-4.73,5.41a38.62,38.62,0,0,1-8.21,6.42,54.91,54.91,0,0,1-14.43,6.47,102,102,0,0,1-11.11,1.81,36.86,36.86,0,0,0-10.05,3.32c-7.55,3.53-14.74,7.76-22,11.74-7.51,4.08-15.06,8.11-22.56,12.21-5.66,3.1-11.22,6.4-17,9.39-5.15,2.69-10.14,5.68-15.33,8.31-3.14,1.6-6.15,3.51-9.26,5.2-5.83,3.18-11.71,6.26-17.24,9.95a57.38,57.38,0,0,0-6.89,5.21c-2.13,2-4.65,3.38-6.7,5.44-2.8,2.81-5.78,5.36-7.43,9.15-1.94,4.49-5.68,7.33-9.75,9.79a60.41,60.41,0,0,1-14.79,6.9,54.08,54.08,0,0,1-5.73,1.34c-5.44.92-10.44,3.08-15.39,5.35-5.43,2.48-11,4.63-16.9,5.44a28.54,28.54,0,0,1-8.78-.29c-6.51-1.14-12.27-4-18-7.06-6.31-3.44-12.71-6.71-19.11-10a175.64,175.64,0,0,1-16.74-9.49c-2.35-1.54-4.55-3.32-6.93-4.81-4.19-2.63-8.53-5-12.69-7.7a34.94,34.94,0,0,1-9.76-8.57,5,5,0,0,1-.64-4.51,12.09,12.09,0,0,1,7.22-8.43A52.64,52.64,0,0,0,89,315.51a165,165,0,0,1,19,11.8,90.81,90.81,0,0,0,16.11,9.34,175.41,175.41,0,0,1,16.54,8.63,47.58,47.58,0,0,0,7.29,4c4.7,1.76,9.45,3.4,14.18,5.07a3.77,3.77,0,0,0,1.57.38c2.75-.32,5.5-.72,8.25-1.1.63-.16,1.28-.28,1.89-.5,4.74-1.66,9.44-3.43,14.21-5,1.81-.59,3-1.32,2.89-3.41.33.19.65.4,1,.57,3.35,1.65,6.19,4.29,10,5.11a.74.74,0,0,1,.62.68c.09,1.13.49,2.45-.17,3.36-1.15,1.55-.22,1.7,1,2.07a3.59,3.59,0,0,0,2.52-.28A76.47,76.47,0,0,0,222,347.4a13.85,13.85,0,0,0,3.81-4.21c.49-.8.34-1.18-.57-1.35-1.38-.26-1.45-1.16-.94-2.2a8.65,8.65,0,0,1,1.19-1.76c3.56-4.25,5.42-9.38,7.39-14.45.57-1.47.36-3.13,1-4.61.88.49,1.42.28,2-.6,2.26-3.47,4.63-6.88,6.93-10.34a5.32,5.32,0,0,1,1.9-1.75l38.95-21.64q32.87-18.27,65.71-36.56c2.38-1.32,4.93-2.36,7-4.21a30.68,30.68,0,0,0,5.41,3.32c3.13,1.63,5.89,3.94,9.3,5.05.56.18.89.66.67,1.12-.67,1.4.57,2.93-.4,4.29-.21.3.07.65.45.69,1.38.13,2.71.67,4.16,0a89.72,89.72,0,0,0,12.3-6.41c3.12-2.08,6.34-4.06,8.24-7.5.33-.6.64-.93-.16-1.42-1.44-.88-1.64-1.79-.73-3.22.59-.91,1.31-1.74,1.94-2.62,2.12-3,3.08-6.61,4.85-9.79.81-1.45.44-3.25,1.68-4.48,1,.68,1.81.38,2.72-.39C411.12,218.66,415.53,215,419.92,211.37Z"/><path class="cls-5" d="M264.28,136.29c6.34-4,12.77-7.79,19-11.92,13.14-8.72,27.73-14.52,41.91-21.13a2,2,0,0,1,1.41-.3,7.15,7.15,0,0,0,2.26,1.58,177.22,177.22,0,0,1,23.9,15.3c2.61,2,5.11,2,7.91,1.09,5.9,3.07,11.64,6.43,17.39,9.77,4.29,2.48,8.51,5.08,12.77,7.63-.54,1.09-1.54.48-2.33.63-.47.08-1.13-.12-1.31.42-.24.73.57.67.94.84a240.48,240.48,0,0,1,26.32,13.69c.81.5,1.85.74,2.27,1.75v.05c-1.15.32-2.31.63-3.46,1-4.56,1.29-9.06,3-13.7,3.76-5.29.91-10.7,1-16.06,1.48-3.14.26-6.31.36-9.43.77-5.6.74-11.18,1.66-16.77,2.51-7.63,1.17-15.25,2.37-22.88,3.52-4,.61-8.07,1.16-12.11,1.73-.77-.5-1.53-1-2.33-1.5q-13.23-7.66-26.48-15.31c-7.61-4.39-15.25-8.72-22.83-13.14C268.48,139.19,266.09,138.17,264.28,136.29Z"/><path class="cls-6" d="M264.28,136.29c1.81,1.88,4.2,2.9,6.39,4.18,7.58,4.42,15.22,8.75,22.83,13.14q13.26,7.63,26.48,15.31c.8.47,1.56,1,2.33,1.5a2.38,2.38,0,0,1-1.14.89q-4.14,2.15-8.27,4.3c-2.46,1.3-5,2.46-7.35,3.93q-10.12,6.33-20.11,12.87c-1.22.8-2.17,1.1-3.33.06a2.47,2.47,0,0,0-1.71-.44c-3.93-2-7.72-4.3-11.5-6.59-.1-.62-.59-.86-1.07-1.13q-2.2-1.25-4.39-2.52c-10.32-6-20.61-12-31-17.89-2.11-1.2-4-2.81-6.5-3.32h0c-.2-.93-1.37-.89-1.69-1.69,4.4-2.75,8.84-5.42,13.18-8.24C246,145.08,255.14,140.7,264.28,136.29Z"/><path class="cls-7" d="M431.3,185.21a45.91,45.91,0,0,1-2.1,8.5c-.55-1.08.08-2.09.18-3.14.05-.5.15-1-.39-1.29s-1,.06-1.25.45c-.84,1.16-2.08,2-2.79,3.18-2.1,3.45-5.72,4.67-9,6.26a47.83,47.83,0,0,1-10.69,3.22c-2.89.65-3.56.54-5.23-1.83-1.1-1.55-2.24-2.77-4.35-1.92a11.07,11.07,0,0,0-2.91.59c-2.44.28-4.87.59-7.31.83a4.13,4.13,0,0,0-2.54,1.29c-4.85,4.7-9.74,9.37-14.62,14.05-1.3-1.15-1.85-2.78-2.71-4.21-2.83-4.69-5.7-9.35-8.2-14.23a137.58,137.58,0,0,1,13.06-5.56c7.74-3.12,15.42-6.28,22.54-10.72,3.78-2.36,7.6-4.67,11.6-6.66.82.3,1,.8.72,1.66-.82,2.48-1.55,5-2.3,7.49-.63,2.09-1.23,4.18-1.86,6.26a2.41,2.41,0,0,0,.42,2.31c.57.66,1.36.08,1.95-.19a20.45,20.45,0,0,0,5.24-3.25,114.4,114.4,0,0,0,9.47-9.21c2-2.34,4.37-2.85,7.15-2.79a2.41,2.41,0,0,1,2.09,1.29,18.75,18.75,0,0,1,2.3,6.06C430,184.53,430.25,185.22,431.3,185.21Z"/><path class="cls-8" d="M172,353.67c-2.75.38-5.5.78-8.25,1.1a3.77,3.77,0,0,1-1.57-.38c-4.73-1.67-9.48-3.31-14.18-5.07a47.58,47.58,0,0,1-7.29-4,175.41,175.41,0,0,0-16.54-8.63,90.81,90.81,0,0,1-16.11-9.34,165,165,0,0,0-19-11.8,52.64,52.64,0,0,1-5.64-4.17c-2.62-2.29-5.21-4.61-7.87-6.86a2.36,2.36,0,0,1-1-2.23c.26-2.21.49-4.43.72-6.65a2.45,2.45,0,0,1,1.34.57c12.43,8.21,25.12,16.05,36.28,26a12.62,12.62,0,0,0,4,2.74c14.38,5.25,28.07,12,41.71,18.93,4.31,2.18,8.53,4.4,11.76,8.11a3.55,3.55,0,0,0,.53.37Z"/><path class="cls-7" d="M170.88,352.34a3.55,3.55,0,0,1-.53-.37c-3.23-3.71-7.45-5.93-11.76-8.11-13.64-6.9-27.33-13.68-41.71-18.93a12.62,12.62,0,0,1-4-2.74c-11.16-10-23.85-17.81-36.28-26a2.45,2.45,0,0,0-1.34-.57l-1-4.56h1.3l.33,0a2.26,2.26,0,0,0,.4.51l10.7,7c.74.48,1.22.12,1.61-.51l1.66-2.63c.33-.56.67-.76,1.31-.32,6,4.09,12,8.06,17.66,12.68,2.3,1.88,4.43,4.05,7.23,5.27,7.95,3.47,16,6.74,23.84,10.41,4.25,2,7.16,4.49,8,9.18a3.57,3.57,0,0,0,2.1,2.55c8.76,4.57,17.62,8.91,26.8,12.59-.33,1.2-1.42,1.85-2.09,2.81a2.65,2.65,0,0,1-3.18,1.27C171.35,351.66,171,351.8,170.88,352.34Z"/><path class="cls-9" d="M431.3,185.21c-1.05,0-1.34-.68-1.54-1.56a18.75,18.75,0,0,0-2.3-6.06,2.41,2.41,0,0,0-2.09-1.29c-2.78-.06-5.11.45-7.15,2.79a114.4,114.4,0,0,1-9.47,9.21,20.45,20.45,0,0,1-5.24,3.25c-.59.27-1.38.85-1.95.19a2.41,2.41,0,0,1-.42-2.31c.63-2.08,1.23-4.17,1.86-6.26.75-2.5,1.48-5,2.3-7.49.28-.86.1-1.36-.72-1.66a10.62,10.62,0,0,0,3.35-3.7c2.22-3.55,4.53-7,6.71-10.62.78-1.28,1.83-2.45,2.08-4v-.05c1.83-.08,3.43,1.06,5.26,1l0,0,.75.31c.71.3.54,1,.72,1.55a5.09,5.09,0,0,1,.25,1.28,17.15,17.15,0,0,0,6,12,1.88,1.88,0,0,1,.75,1.23c.34,3.85.69,7.7,1,11.55A2.08,2.08,0,0,1,431.3,185.21Z"/><path class="cls-10" d="M395.67,198.64c2.11-.85,3.25.37,4.35,1.92,1.67,2.37,2.34,2.48,5.23,1.83a47.83,47.83,0,0,0,10.69-3.22c3.29-1.59,6.91-2.81,9-6.26.71-1.17,1.95-2,2.79-3.18.28-.39.7-.75,1.25-.45s.44.79.39,1.29c-.1,1.05-.73,2.06-.18,3.14,0,.21-.06.42-.08.63l-.27.4v.9l-.32.4a12.68,12.68,0,0,1-3,7.71c-2,2.46-3.74,5.07-5.59,7.62-4.4,3.66-8.81,7.29-13.16,11-.91.77-1.69,1.07-2.72.4a1.82,1.82,0,0,1-.35-1.84c1.11-4,.55-7.95-.42-11.87a3.49,3.49,0,0,0-1-2.3c-1.44-1.52-2.84-3.08-4.26-4.63C397.56,200.73,395.86,200.19,395.67,198.64Z"/><path class="cls-6" d="M75.83,291.06l-.33,0c-.53-.86-.78-1.94-1.9-2.31-.54-.74-.24-1.41.13-2.12q4.38-8.28,8.73-16.57l2.1.47c-.22,2.23-.32,4.47-.7,6.67a6.06,6.06,0,0,0,1.45,5.53c2.45,2.77,4.33,6,6.9,8.68-.17.46-.32.93-.53,1.36-.84,1.73-.88,1.75-2,.18-2.33-3.22-4.65-6.45-6.91-9.72-.74-1.08-1.22-1-1.87,0C79.23,285.85,77.52,288.45,75.83,291.06Z"/><path class="cls-9" d="M224.26,158.88c.32.8,1.49.76,1.69,1.69-1.16-.88-2.07-.5-3.17.31-11.89,8.8-23.83,17.53-35.74,26.31q-14.82,10.92-29.61,21.89l-1-.35c6-4.41,11.89-8.84,17.86-13.23q24.36-17.92,48.75-35.82C223.42,159.39,223.85,159.14,224.26,158.88Z"/><path class="cls-11" d="M360.66,120.91c-2.8.86-5.3,1-7.91-1.09a177.22,177.22,0,0,0-23.9-15.3,7.15,7.15,0,0,1-2.26-1.58,8.19,8.19,0,0,1,5.11,1.25c9.27,5.38,18.6,10.66,27.9,16C360,120.39,360.31,120.67,360.66,120.91Z"/><path class="cls-11" d="M422,156.65c-1.83,0-3.43-1.09-5.26-1-.42-1-1.46-1.25-2.27-1.75a240.48,240.48,0,0,0-26.32-13.69c-.37-.17-1.18-.11-.94-.84.18-.54.84-.34,1.31-.42.79-.15,1.79.46,2.33-.63l13.39,7.76q8.19,4.74,16.37,9.49C421.09,155.85,421.68,156.06,422,156.65Z"/><path class="cls-9" d="M84.56,270.5l-2.1-.47c2.13-3.27,4.09-6.66,6.47-9.76,0,.5,0,1,0,1.5C87.19,264.54,86,267.6,84.56,270.5Z"/><path class="cls-9" d="M73.6,288.72c1.12.37,1.37,1.45,1.9,2.31H74.2A4.83,4.83,0,0,1,73.6,288.72Z"/><path class="cls-11" d="M422.69,156.94l-.75-.31Z"/><path class="cls-7" d="M428.85,194.74l.27-.4Z"/><path class="cls-7" d="M428.52,196l.32-.4Z"/><path class="cls-12" d="M157.43,209.08q14.81-11,29.61-21.89c11.91-8.78,23.85-17.51,35.74-26.31,1.1-.81,2-1.19,3.17-.31h0c.46.29.91.59,1.38.87l41.55,24c3.78,2.29,7.57,4.56,11.5,6.59.45.3.87.64,1.34.91,1.79,1,1.8,1,.73,2.73l-38,61.41a4,4,0,0,1-1.65,1.75l-.6-.34h0q-12-7-24.06-14-29.55-17.09-59.12-34.14C158.47,210,157.71,209.84,157.43,209.08Z"/><path class="cls-13" d="M242.86,258.83a4,4,0,0,0,1.65-1.75l38-61.41c1.07-1.73,1.06-1.72-.73-2.73-.47-.27-.89-.61-1.34-.91a2.47,2.47,0,0,1,1.71.44c1.16,1,2.11.74,3.33-.06q10-6.53,20.11-12.87c2.35-1.47,4.89-2.63,7.35-3.93q4.13-2.16,8.27-4.3a2.38,2.38,0,0,0,1.14-.89c4-.57,8.08-1.12,12.11-1.73,7.63-1.15,15.25-2.35,22.88-3.52,5.59-.85,11.17-1.77,16.77-2.51,3.12-.41,6.29-.51,9.43-.77,5.36-.45,10.77-.57,16.06-1.48,4.64-.79,9.14-2.47,13.7-3.76,1.15-.33,2.31-.64,3.46-1-.25,1.56-1.3,2.73-2.08,4-2.18,3.58-4.49,7.07-6.71,10.62a10.62,10.62,0,0,1-3.35,3.7c-4,2-7.82,4.3-11.6,6.66-7.12,4.44-14.8,7.6-22.54,10.72A137.58,137.58,0,0,0,357.38,197a29.6,29.6,0,0,0-5.54,2.78q-9.57,5.17-19.13,10.39-13.56,7.43-27.13,14.86c-6.36,3.48-12.75,6.93-19.11,10.4q-13.73,7.5-27.42,15c-4.73,2.6-9.43,5.26-14.16,7.87a1.74,1.74,0,0,0-1,2.26,32.64,32.64,0,0,1,1.25,8.32c0,1.51-.73,1.79-1.54,2.41-1,.76-1.12-.43-1.68-.65-.79-.31-1.69-.87-2.48-.36s0,1.19.13,1.78a1.37,1.37,0,0,1-1,1.87c.14-1.13.06-2.07-1.11-2.47-.58,2.42-.7,5-2.48,6.77a12,12,0,0,0-2.69,3.58c-1.16,2.76-2,5.65-4.11,7.91-.35.38-.46.8-1.18.88-.89.1-1.46.73-.28,1.44.53.32.71.8.39,1.23s-.74-.07-1.06-.28a1,1,0,0,0-1.51.41c-.37.63,0,1.05.59,1.23.4.11.72.25.8.69-1.7.52-3.54.26-5.22.94h-1.64c-.56-.86-1-.81-1.28.19-1.12.17-2.24.35-3.37.5a1.68,1.68,0,0,0-1.17.46c-4.22,4.82-8.87,9.22-13.28,13.87a5.73,5.73,0,0,0-1.15,1.74,3.26,3.26,0,0,0-2,1.06c-3.42,3.1-6.79,6.25-10.31,9.24-1.14,1-2,2.28-3.52,2.83a1.86,1.86,0,0,1-.91-2.68,8.45,8.45,0,0,1,3-2.58c.39-.23.93-.53.62-.95a3.22,3.22,0,0,0-1.85-1.45c-.59-.1-1,.59-1.21,1.16-.13.3-.22.61-.33.92s-.19.72-.57.72c-.55,0-.34-.56-.51-.86-.42-.79.13-1.91-.86-2.5l-.12-3.48,0-1.13c2.54-3.1,4.89-6.4,8.13-8.85,4.25-3.21,8.6-6.29,12.85-9.5,2.86-2.16,5.95-4,8.54-6.52a42.79,42.79,0,0,0,5.87-3.82c5.32-3.61,10.62-7.25,15.95-10.85a12.12,12.12,0,0,0,2.65-3.07c2.55-3.32,5.1-6.65,7.61-10C242.39,260.14,243,259.66,242.86,258.83Zm8-5.81a10.7,10.7,0,0,0,4.26-2.54c.45-.43,1.12-1.23-.3-1.4l1.66-.91,78-42.58c5-2.7,10-5.35,14.94-8,.72.3,1.65.82,2.14,0s-.56-.78-1-1l-1.31-1-25.5-19.51c-.6-.46-1.13-1-2-.54-5.29,2.73-10.76,5.14-15.86,8.19-6.64,4-13,8.46-19.48,12.71a5.78,5.78,0,0,0-1.82,1.83c-3.85,6.22-7.78,12.4-11.59,18.65q-4.41,7.22-8.88,14.4c-3.68,5.89-7.29,11.83-11,17.68-.21.33-.62.66-.25,1.14a5.52,5.52,0,0,0-1.63,1.87c-2,.49-3,2.09-4.1,3.55l.28.31Zm-27.69,40.61c-.06-.29-.19-.45-.42-.43a.4.4,0,0,0-.26.29.32.32,0,0,0,.38.36C223,293.84,223.06,293.69,223.15,293.63Zm4.38-4.92a1.07,1.07,0,0,0-.31-.1.36.36,0,0,0-.42.34.46.46,0,0,0,.25.31C227.28,289.31,227.43,289.17,227.53,288.71Zm12.61-20.14c0,.19.11.31.3.26a.31.31,0,0,0,.15-.25c0-.17-.1-.31-.29-.25S240.19,268.49,240.14,268.57Z"/><path class="cls-9" d="M180.46,317.9c1,.59.44,1.71.86,2.5.17.3,0,.87.51.86.38,0,.46-.41.57-.72s.2-.62.33-.92c.24-.57.62-1.26,1.21-1.16a3.22,3.22,0,0,1,1.85,1.45c.31.42-.23.72-.62.95a8.45,8.45,0,0,0-3,2.58,1.86,1.86,0,0,0,.91,2.68,14.52,14.52,0,0,0-1.56,3.72c-.82,3.78-1.83,7.52-2.6,11.31-.4,2-1.22,3.86-1.11,5.92l-.64.68c-9.18-3.68-18-8-26.8-12.59a3.57,3.57,0,0,1-2.1-2.55c-.82-4.69-3.73-7.2-8-9.18-7.87-3.67-15.89-6.94-23.84-10.41-2.8-1.22-4.93-3.39-7.23-5.27-5.62-4.62-11.68-8.59-17.66-12.68-.64-.44-1-.24-1.31.32L88.54,298c-.39.63-.87,1-1.61.51l-10.7-7a2.26,2.26,0,0,1-.4-.51c1.69-2.61,3.4-5.21,5.06-7.83.65-1,1.13-1.11,1.87,0,2.26,3.27,4.58,6.5,6.91,9.72,1.13,1.57,1.17,1.55,2-.18.21-.43.36-.9.53-1.36a14.79,14.79,0,0,0,2.33-7.95,23.41,23.41,0,0,1,.32-3.22,152.87,152.87,0,0,1,18.94,11.6,77.3,77.3,0,0,0,14.79,8.64A157.44,157.44,0,0,1,146.82,310c1.28.77,2.45,1.87,4.08,1.94,3.86.15,7.72.27,11.58.44,6,.28,11.94.59,17.91.88l0,1.13q-13.62-.72-27.24-1.46a1.27,1.27,0,0,0-1.41.77,24.83,24.83,0,0,0-2.74,9.33c-.08.94.12,1.32,1.14,1.47,4.41.63,8.81,1.36,13.22,2.06-.17,2.19-.17,2.18,2.16,1.87.54-.07,1.09,0,1.63-.07l13.62-1c.77-.06,1.06-.32.43-1a7.62,7.62,0,0,0-.89-.7C180.33,323.12,180.39,320.51,180.46,317.9Zm-38.43-3c.31-.63.57-1.3.94-1.9.66-1,.47-1.64-.67-2.28-3.8-2.13-7.63-4.2-11.56-6.11-4.36-2.11-9-3.75-12.93-6.64-3.43-2.5-7-4.86-10.48-7.28-2-1.5-4.3-2.56-6.42-3.88-1.1-.68-1.46-.25-1.45.87a10.39,10.39,0,0,1-1.61,5.74c-.64,1-.44,1.56.57,2.21,4.28,2.72,8.33,5.77,12.35,8.85,2.07,1.6,4,3.51,6.32,4.62,7.67,3.67,15.63,6.69,23.17,10.65.76.4,1.06.19,1.15-.64C141.57,317.73,141.82,316.33,142,314.93Z"/><path class="cls-11" d="M180.39,313.29c-6-.29-11.94-.6-17.91-.88-3.86-.17-7.72-.29-11.58-.44,0-1.68,1.62-2.11,2.58-2.93,6.45-5.51,12.94-11,19.52-16.33,5.62-4.56,11.39-8.93,17.08-13.4.94-.73,1.89-1.47,2.8-2.25a1.7,1.7,0,0,1,2.56-.07c4.21,3.45,8.48,6.81,12.73,10.2.56.44,1.16.82,1.74,1.23-2.59,2.5-5.68,4.36-8.54,6.52-4.25,3.21-8.6,6.29-12.85,9.5C185.28,306.89,182.93,310.19,180.39,313.29Z"/><path class="cls-14" d="M94.86,280.21a23.41,23.41,0,0,0-.32,3.22,14.79,14.79,0,0,1-2.33,7.95c-2.57-2.68-4.45-5.91-6.9-8.68a6.06,6.06,0,0,1-1.45-5.53c.38-2.2.48-4.44.7-6.67,1.47-2.9,2.63-6,4.38-8.73,1.79,4.56,3,9.3,4.54,13.93C94,277.19,94.4,278.71,94.86,280.21Z"/><path class="cls-13" d="M242.24,258.48h0Z"/><path class="cls-10" d="M356.34,243.72c-2.07,1.85-4.62,2.89-7,4.21q-32.82,18.33-65.71,36.56l-38.95,21.64a5.32,5.32,0,0,0-1.9,1.75c-2.3,3.46-4.67,6.87-6.93,10.34-.57.88-1.11,1.09-2,.6-.08-1.75.85-3.47.55-5.14-.65-3.6-.61-7.49-3.52-10.34,0,0,0-.1,0-.15.43-.69-.13-1.92,1-2.18.93-.22,1.18,1.14,2.4,1.36l-1.61-3.88a28.4,28.4,0,0,1-1.75-3.85l10.55-11.38c1.89-2,3.87-4,5.66-6.13a10.75,10.75,0,0,1,3.5-2.85q53.67-26.8,107.35-53.64c3.31-1.65,6.5-3.57,10.06-4.69-.51,1.5-1,3-1.53,4.48-2.51,6.43-4.12,13.22-7.88,19.14C357.74,240.89,357.08,242.33,356.34,243.72Z"/><path class="cls-15" d="M230.85,303.19c0,.05,0,.12,0,.15,2.91,2.85,2.87,6.74,3.52,10.34.3,1.67-.63,3.39-.55,5.14-.62,1.48-.41,3.14-1,4.61-2,5.07-3.83,10.2-7.39,14.45a8.65,8.65,0,0,0-1.19,1.76c-.51,1-.44,1.94.94,2.2.91.17,1.06.55.57,1.35A13.85,13.85,0,0,1,222,347.4a76.47,76.47,0,0,1-16.11,8.89,3.59,3.59,0,0,1-2.52.28c-1.17-.37-2.1-.52-1-2.07.66-.91.26-2.23.17-3.36a.74.74,0,0,0-.62-.68c-3.78-.82-6.62-3.46-10-5.11-.34-.17-.66-.38-1-.57.37-3.5.73-7,1.1-10.51.29-1,.54-2,.86-3q2.91-9.15,5.85-18.31a5.73,5.73,0,0,1,1.15-1.74c4.41-4.65,9.06-9.05,13.28-13.87a1.68,1.68,0,0,1,1.17-.46c1.13-.15,2.25-.33,3.37-.5l1.28-.19h1.64c2.85,2,6.19,3.28,8.87,5.58A2.8,2.8,0,0,0,230.85,303.19ZM207.54,316.1a4.41,4.41,0,0,0-1.35,1.37c-2,2.53-2,2.52.76,4,0,.47.08.94.12,1.36a.79.79,0,0,1-.84,0c-2.67-1-2.68-1-3.75,1.73-.19.5-.3,1-.45,1.55a2.26,2.26,0,0,0-.44,2.71,2.51,2.51,0,0,1-.16,2.77c-1.83,2.5-.37,4.87.35,7.33l1.87-5h.66a13.07,13.07,0,0,1-.53,3.57c-1.06,1.62-1,1.95.57,2.63v0c0,2.15,1,3.27,3.18,3.24a.75.75,0,0,1,.16,0c1.5.32,1.6.14,1.44-1.44-.26-2.69-.4-5.4-.55-8.09,0-.52-.07-1.28.76-1.1s1.13-.47,1.62-.83c1.07,3,2.15,5.93,3.17,8.92.31.88.61,1,1.34.39,1.19-1,2.4-2.06,3.69-3,1-.67.76-1.17.14-1.94-1.46-1.82-2.84-3.7-4.25-5.56a9.28,9.28,0,0,1,2-2.95,30.1,30.1,0,0,1,6.85,3.2c.75.52.92-.11,1.14-.62.72-1.64,1.38-3.32,2.18-4.93.52-1.07.2-1.39-.88-1.55-1.87-.29-3.8-.21-5.62-.83.29-1.17,0-2-1.31-2.26a2.94,2.94,0,0,0,2.27-.83,7.29,7.29,0,0,0-3.56.1c.17-.74.78-.82,1.38-.93,1.71-.32,3.43-.58,5.12-1,5.08-1.18,4,0,3.28-4.94-.18-1.14-.69-1.28-1.69-.78-2.23,1.13-4.51,2.18-6.77,3.23-.6.28-1.29.9-1.8-.11-.39-.79-.72-1.58.32-2.26a32.88,32.88,0,0,0,2.87-2.14,13.13,13.13,0,0,0,3.18-2.81c-2.55-1.12-4.78-1.29-6.3,1.42-.64,0-1.28,0-1.91-.06a1.45,1.45,0,0,0-1.8,1.32c-1.68-.36-2.72.65-3.75,1.71-.35.36-.34,1.06-1,1.15C208.21,314.31,207.94,315.25,207.54,316.1Z"/><path class="cls-15" d="M356.34,243.72c.74-1.39,1.4-2.83,2.24-4.15,3.76-5.92,5.37-12.71,7.88-19.14.57-1.46,1-3,1.52-4.48.11-.18.21-.36.31-.55,4.88-4.68,9.77-9.35,14.62-14.05a4.13,4.13,0,0,1,2.54-1.29c2.44-.24,4.87-.55,7.31-.83l4.12,2.59a8,8,0,0,1-2.43-.15c-1-.18-2-.69-3.05-.33-2.94,1-6.11,1.47-8.52,3.81-2,2-4.62,3.32-6.46,5.48s-3.35,4.43-4.95,6.7c-.47.66-1.42,1.43-.65,2.29.95,1.07,1.9,2.34,3.63,2.17.92.89,2.18,1.16,3.24,1.79a2.81,2.81,0,0,1-.31,1.56,1.52,1.52,0,0,0-1.65,1.28c-.14.56-.48.69-1,.5-.3-.11-.7-.11-.79-.49-.13-.58.4-.53.72-.66s.8-.42.42-1a1.53,1.53,0,0,0-1.51-1.14c-.61,0-.43.72-.48,1.16,0,1-.71,1.62-1,2.46a3.12,3.12,0,0,0-.47,3.24c.67,1.28.26,2.26-.37,3.35-1,1.75-.75,5,.52,6.83.95-1.79,1.12-3.88,2.43-5.94.31,1.84-.22,3.14-.33,4.47-.84,1.08-1.06,2.12.2,3.07.21.16.53.41.52.59-.16,2.22,1.63,2,2.93,2.38,1.12.36,1.53-.07,1.46-1.16q-.22-3.66-.44-7.31c0-.41,0-.81.07-1.22a3.33,3.33,0,0,0,3.09.35c.81,2.25,1.65,4.5,2.42,6.76.3.88.63,1,1.36.42,1.2-1,2.42-2,3.69-3,.81-.59.87-1,.23-1.82-1.64-2-3.19-4.14-4.77-6.21a1.88,1.88,0,0,0,1.28-1.38c.3-1.46,1.18-1.46,2.33-1a28,28,0,0,1,5.17,2.79c.77.5,1.28.46,1.64-.45.51-1.26,1-2.52,1.57-3.77.89-2.07.85-2.13-1.43-2.45-3.07-.44-6.13-.95-9.21-1.3-1.23-.13-1.36-1.29-1.74-1.91s.94-.68,1.57-.8c3-.62,6.1-1.16,9.13-1.83,4.26-.93,3.77.12,3-4.63,0,0,0-.1,0-.15-.22-1.08-.74-1.31-1.74-.79-1.74.91-3.58,1.64-5.29,2.59-3.75,2.09-7.85,3.28-11.8,4.85a2.92,2.92,0,0,1-.5-2.58,7.77,7.77,0,0,0,.29-3.22c.7-.44,1.16-2,1.86-1.45,1.15.84,1.74-.09,2.56-.23-.05.4-.11.79-.16,1.19l-.28.37c1.22,0,2.26,1.43,3.62.4,2.58-2,5.23-3.83,7.7-6-3.2-1.44-4.14-1.23-6.45,1.37l-2.84-.21a1.6,1.6,0,0,1,1-1.7c2.39-.82,4.62-2.23,7.3-2s5,.85,6.57,3.21c.6.88,1.26.71,1.67-.26a2.39,2.39,0,0,1,1.82-1.68c1,3.92,1.53,7.86.42,11.87a1.82,1.82,0,0,0,.35,1.84c-1.24,1.22-.87,3-1.68,4.47-1.77,3.18-2.73,6.77-4.85,9.79-.63.88-1.35,1.71-1.94,2.62-.91,1.43-.71,2.34.73,3.22.8.49.49.82.16,1.42-1.9,3.44-5.12,5.42-8.24,7.5a89.72,89.72,0,0,1-12.3,6.41c-1.45.67-2.78.13-4.16,0-.38,0-.66-.39-.45-.69,1-1.36-.27-2.89.4-4.29.22-.46-.11-.94-.67-1.12-3.41-1.11-6.17-3.42-9.3-5.05A30.68,30.68,0,0,1,356.34,243.72Z"/><path class="cls-10" d="M192.11,334.27c-.37,3.51-.73,7-1.1,10.51.16,2.09-1.08,2.82-2.89,3.41-4.77,1.55-9.47,3.32-14.21,5-.61.22-1.26.34-1.89.5l-1.14-1.33c.13-.54.47-.68,1-.51a2.65,2.65,0,0,0,3.18-1.27c.67-1,1.76-1.61,2.09-2.81l.64-.68c3.67-2.74,6.54-6.33,9.93-9.37C189.07,336.47,190.2,334.84,192.11,334.27Z"/><path class="cls-9" d="M268.9,185.44l-41.55-24c-.47-.28-.92-.58-1.38-.87,2.46.51,4.39,2.12,6.5,3.32,10.36,5.9,20.65,11.92,31,17.89q2.19,1.28,4.39,2.52C268.31,184.58,268.8,184.82,268.9,185.44Z"/><path class="cls-9" d="M368.29,215.4c-.1.19-.2.37-.31.55-3.55,1.12-6.74,3-10.05,4.69q-53.68,26.79-107.35,53.64a10.75,10.75,0,0,0-3.5,2.85c-1.79,2.13-3.77,4.09-5.66,6.13l-10.55,11.38a13.08,13.08,0,0,0-3.67.68l-1.27,0c-.08-.44-.4-.58-.8-.69-.63-.18-1-.6-.59-1.23a1,1,0,0,1,1.51-.41c.32.21.65.83,1.06.28s.14-.91-.39-1.23c-1.18-.71-.61-1.34.28-1.44.72-.08.83-.5,1.18-.88,2.11-2.26,2.95-5.15,4.11-7.91A12,12,0,0,1,235,278.2c1.78-1.81,1.9-4.35,2.48-6.77,1.17.4,1.25,1.34,1.11,2.47a1.37,1.37,0,0,0,1-1.87c-.13-.59-.83-1.32-.13-1.78s1.69.05,2.48.36c.56.22.69,1.41,1.68.65.81-.62,1.54-.9,1.54-2.41a32.64,32.64,0,0,0-1.25-8.32,1.74,1.74,0,0,1,1-2.26c4.73-2.61,9.43-5.27,14.16-7.87q13.69-7.53,27.42-15c6.36-3.47,12.75-6.92,19.11-10.4q13.57-7.41,27.13-14.86,9.56-5.2,19.13-10.39a29.6,29.6,0,0,1,5.54-2.78c2.5,4.88,5.37,9.54,8.2,14.23C366.44,212.62,367,214.25,368.29,215.4Z"/><path class="cls-9" d="M396.88,201.82l-4.12-2.59a11.07,11.07,0,0,1,2.91-.59c.19,1.55,1.89,2.09,2.32,3.48l-.48.07-.49-.32Z"/><path class="cls-4" d="M396.88,201.82l.14.05.49.32.48-.07c1.42,1.55,2.82,3.11,4.26,4.63a3.49,3.49,0,0,1,1,2.3,2.39,2.39,0,0,0-1.82,1.68c-.41,1-1.07,1.14-1.67.26-1.59-2.36-4-3-6.57-3.21s-4.91,1.17-7.3,2a1.6,1.6,0,0,0-1,1.7c-.53,1-1.06,1.93-1.58,2.9-.83.14-1.42,1.07-2.57.23-.7-.52-1.16,1-1.86,1.45-1.32,2-3.3,3.56-4.44,5.74-1.73.17-2.68-1.1-3.63-2.17-.77-.86.18-1.63.65-2.29,1.6-2.27,3.15-4.59,4.95-6.7s4.44-3.51,6.46-5.48c2.41-2.34,5.58-2.77,8.52-3.81,1-.36,2.05.15,3.05.33A8,8,0,0,0,396.88,201.82Z"/><path class="cls-16" d="M349.44,197.57c-5,2.67-10,5.32-14.94,8l-78,42.58-1.66.91h0l-.37.32-1.63.74c-.37-.48,0-.81.25-1.14,3.74-5.85,7.35-11.79,11-17.68q4.47-7.17,8.88-14.4c3.81-6.25,7.74-12.43,11.59-18.65a5.78,5.78,0,0,1,1.82-1.83c6.49-4.25,12.84-8.73,19.48-12.71,5.1-3,10.57-5.46,15.86-8.19.91-.46,1.44.08,2,.54l25.5,19.51,1.31,1C350.37,197.11,349.75,197.18,349.44,197.57Z"/><path class="cls-14" d="M163.31,326.59c-4.41-.7-8.81-1.43-13.22-2.06-1-.15-1.22-.53-1.14-1.47a24.83,24.83,0,0,1,2.74-9.33,1.27,1.27,0,0,1,1.41-.77q13.62.75,27.24,1.46l.12,3.48c-.07,2.61-.13,5.22-.2,7.83Z"/><path class="cls-7" d="M192.11,334.27c-1.91.57-3,2.2-4.42,3.43-3.39,3-6.26,6.63-9.93,9.37-.11-2.06.71-4,1.11-5.92.77-3.79,1.78-7.53,2.6-11.31a14.52,14.52,0,0,1,1.56-3.72c1.48-.55,2.38-1.87,3.52-2.83,3.52-3,6.89-6.14,10.31-9.24a3.26,3.26,0,0,1,2-1.06q-2.92,9.17-5.85,18.31C192.65,332.28,192.4,333.28,192.11,334.27Z"/><path class="cls-6" d="M225.93,295.29l1.27,0a6.18,6.18,0,0,0,.93,2.73,7.69,7.69,0,0,1,1.45,3.76c-2.68-2.3-6-3.54-8.87-5.58C222.39,295.55,224.23,295.81,225.93,295.29Z"/><path class="cls-7" d="M252.8,250.14l1.63-.74.37-.32h0c1.42.17.75,1,.3,1.4a10.7,10.7,0,0,1-4.26,2.54l.33-1A5.52,5.52,0,0,1,252.8,250.14Z"/><path class="cls-9" d="M251.17,252l-.33,1-3.49,2.85-.28-.31C248.17,254.1,249.13,252.5,251.17,252Z"/><path class="cls-10" d="M349.44,197.57c.31-.39.93-.46,1.12-1,.46.26,1.46.35,1,1S350.16,197.87,349.44,197.57Z"/><path class="cls-9" d="M223.15,293.63c-.09.06-.19.21-.3.22a.32.32,0,0,1-.38-.36.4.4,0,0,1,.26-.29C223,293.18,223.09,293.34,223.15,293.63Z"/><path class="cls-9" d="M219.07,296.23l-1.28.19C218.08,295.42,218.51,295.37,219.07,296.23Z"/><path class="cls-9" d="M227.53,288.71c-.1.46-.25.6-.48.55a.46.46,0,0,1-.25-.31.36.36,0,0,1,.42-.34A1.07,1.07,0,0,1,227.53,288.71Z"/><path class="cls-9" d="M240.14,268.57c.05-.08.09-.22.16-.24s.3.08.29.25a.31.31,0,0,1-.15.25C240.25,268.88,240.16,268.76,240.14,268.57Z"/><path class="cls-8" d="M142,314.93c-.21,1.4-.46,2.8-.62,4.21-.09.83-.39,1-1.15.64-7.54-4-15.5-7-23.17-10.65-2.31-1.11-4.25-3-6.32-4.62-4-3.08-8.07-6.13-12.35-8.85-1-.65-1.21-1.21-.57-2.21a10.39,10.39,0,0,0,1.61-5.74c0-1.12.35-1.55,1.45-.87,2.12,1.32,4.41,2.38,6.42,3.88-.32,2.21,0,4,2.29,5.19a22.64,22.64,0,0,1,2.77,2.28c3.15,2.36,5.72,5.52,9.63,6.86,2.42.82,4.75,1.9,7.15,2.79,4.2,1.57,8.29,3.33,11.55,6.55A1.52,1.52,0,0,0,142,314.93Z"/><path class="cls-2" d="M142,314.93a1.52,1.52,0,0,1-1.31-.54c-3.26-3.22-7.35-5-11.55-6.55-2.4-.89-4.73-2-7.15-2.79-3.91-1.34-6.48-4.5-9.63-6.86a22.64,22.64,0,0,0-2.77-2.28c-2.24-1.16-2.61-3-2.29-5.19,3.5,2.42,7,4.78,10.48,7.28,4,2.89,8.57,4.53,12.93,6.64,3.93,1.91,7.76,4,11.56,6.11,1.14.64,1.33,1.23.67,2.28C142.6,313.63,142.34,314.3,142,314.93Z"/><path class="cls-11" d="M163.31,326.59l16.95-.86a7.62,7.62,0,0,1,.89.7c.63.65.34.91-.43,1l-13.62,1c-.54,0-1.09,0-1.63.07C163.14,328.77,163.14,328.78,163.31,326.59Z"/><path class="cls-7" d="M229.58,301.81a7.69,7.69,0,0,0-1.45-3.76,6.18,6.18,0,0,1-.93-2.73,13.08,13.08,0,0,1,3.67-.68,28.4,28.4,0,0,0,1.75,3.85l1.61,3.88c-1.22-.22-1.47-1.58-2.4-1.36-1.11.26-.55,1.49-1,2.18A2.8,2.8,0,0,1,229.58,301.81Z"/><path class="cls-4" d="M217.05,327.86a9.28,9.28,0,0,0-2,2.95c-.85-1.06-1.69-2.13-2.58-3.16-.44-.52-.67-1.39-1.77-.72A1.4,1.4,0,0,0,210,329a29,29,0,0,1,.94,3c-.49.36-.76,1-1.62.83s-.79.58-.76,1.1c.15,2.69.29,5.4.55,8.09.16,1.58.06,1.76-1.44,1.44a.75.75,0,0,0-.16,0c-2.18,0-3.21-1.09-3.18-3.24a.85.85,0,0,0,.57-.72c.56-3.35,1.21-6.7,1.64-10.07a3.16,3.16,0,0,0-4.53-3.23c.15-.52.26-1.05.45-1.55,1.07-2.71,1.08-2.7,3.75-1.73a.79.79,0,0,0,.84,0c0-.42-.08-.89-.12-1.36,1.39.26,2.39-.51,1.84-1.53-.72-1.33-.23-2.47.09-3.69.47,0,1,.13,1.24-.44.39-.93-.56-1.25-.88-1.86.67-.09.66-.79,1-1.15,1-1.06,2.07-2.07,3.74-1.71a8.08,8.08,0,0,1-.47,1.49c-.39.76.06.92.63,1.05.23.7-.2,1.13-.64,1.55a10.63,10.63,0,0,0-1.44,1.31c-.47.65-1,1.62.17,2,1.69.53,3-.63,4.33-1.45,1-.65,0-1.58-.16-2.36-.24-1.39-1.51-.67-2.27-1,1-1.41,2.79-2.15,3.57-3.81,1.52-2.71,3.75-2.54,6.3-1.42a13.13,13.13,0,0,1-3.18,2.81,32.88,32.88,0,0,1-2.87,2.14c-1,.68-.71,1.47-.32,2.26.51,1,1.2.39,1.8.11,2.26-1.05,4.54-2.1,6.77-3.23,1-.5,1.51-.36,1.69.78.75,4.93,1.8,3.76-3.28,4.94-1.69.4-3.41.66-5.12,1-.6.11-1.21.19-1.38.93-.41.18-.93.13-1.23.59a1,1,0,0,0,.3.12l2.22,0c1.35.23,1.6,1.09,1.31,2.26-1.89-.22-3.8-.31-5.65-.71-1.52-.33-1.49.78-1.93,1.57-.56,1,.2,1.32.85,1.73A12,12,0,0,1,217.05,327.86Z"/><path class="cls-16" d="M217.05,327.86a12,12,0,0,0-3.06-2.14c-.65-.41-1.41-.71-.85-1.73.44-.79.41-1.9,1.93-1.57,1.85.4,3.76.49,5.65.71,1.82.62,3.75.54,5.62.83,1.08.16,1.4.48.88,1.55-.8,1.61-1.46,3.29-2.18,4.93-.22.51-.39,1.14-1.14.62A30.1,30.1,0,0,0,217.05,327.86Z"/><path class="cls-16" d="M211,332a29,29,0,0,0-.94-3,1.4,1.4,0,0,1,.68-2.09c1.1-.67,1.33.2,1.77.72.89,1,1.73,2.1,2.58,3.16,1.41,1.86,2.79,3.74,4.25,5.56.62.77.82,1.27-.14,1.94-1.29.91-2.5,1.94-3.69,3-.73.62-1,.49-1.34-.39C213.11,337.9,212,334.94,211,332Z"/><path class="cls-8" d="M202,326.13a3.16,3.16,0,0,1,4.53,3.23c-.43,3.37-1.08,6.72-1.64,10.07a.85.85,0,0,1-.57.72v0l-.57-2.63a13.07,13.07,0,0,0,.53-3.57c-.07-.18-.12-.5-.21-.52-.36-.07-.4.25-.45.51q-.94,2.49-1.87,5c-.72-2.46-2.18-4.83-.35-7.33a2.51,2.51,0,0,0,.16-2.77A2.26,2.26,0,0,1,202,326.13Z"/><path class="cls-8" d="M208.88,316.26c-.32,1.22-.81,2.36-.09,3.69.55,1-.45,1.79-1.84,1.53-2.73-1.49-2.72-1.48-.76-4a4.41,4.41,0,0,1,1.35-1.37Z"/><path class="cls-8" d="M217.71,309.84c-.78,1.66-2.54,2.4-3.57,3.81h0c-.57-.13-1-.29-.63-1.05a8.08,8.08,0,0,0,.47-1.49,1.46,1.46,0,0,1,1.81-1.32C216.43,309.85,217.07,309.82,217.71,309.84Z"/><path class="cls-2" d="M208.88,316.26l-1.34-.16c.4-.85.67-1.79,1.7-2.14.32.61,1.27.93.88,1.86C209.88,316.39,209.35,316.26,208.88,316.26Z"/><path class="cls-2" d="M219.41,320.87l-2.22,0a1,1,0,0,1-.3-.12c.3-.46.82-.41,1.23-.59a7.29,7.29,0,0,1,3.56-.1A2.94,2.94,0,0,1,219.41,320.87Z"/><path class="cls-4" d="M203.78,337.54l.57,2.63C202.79,339.49,202.72,339.16,203.78,337.54Z"/><path class="cls-4" d="M203.65,334c0-.26.09-.58.45-.51.09,0,.14.34.21.52Z"/><path class="cls-4" d="M379.1,221.85c3.95-1.57,8-2.76,11.8-4.85,1.71-.95,3.55-1.68,5.29-2.59,1-.52,1.52-.29,1.74.79,0,.05,0,.1,0,.15.77,4.75,1.26,3.7-3,4.63-3,.67-6.09,1.21-9.13,1.83-.63.12-1.93.2-1.57.8s.51,1.78,1.74,1.91c3.08.35,6.14.86,9.21,1.3,2.28.32,2.32.38,1.43,2.45-.54,1.25-1.06,2.51-1.57,3.77-.36.91-.87,1-1.64.45a28,28,0,0,0-5.17-2.79c-1.15-.43-2-.43-2.33,1a1.88,1.88,0,0,1-1.28,1.38,17.31,17.31,0,0,1-1.8-2.24c-.89-1.55-1.87-1.62-3.1-.46l-2-.16a6.13,6.13,0,0,1-.34-4.11,2.81,2.81,0,0,0,.31-1.56A1.86,1.86,0,0,0,379.1,221.85Z"/><path class="cls-8" d="M377.72,229.25l2,.16c.21,1.84,1.36,3.39,1.61,5.22-.89.37-2.09-.13-2.73,1,0,.41-.05.81-.07,1.22-2.24.83-3.95,2.09-3.62,5-1.19-.81-.47-1.91-1.05-2.58.11-1.33.64-2.63.33-4.47-1.31,2.06-1.48,4.15-2.43,5.94-1.27-1.78-1.55-5.08-.52-6.83.63-1.09,1-2.07.37-3.35a3.12,3.12,0,0,1,.47-3.24,4.83,4.83,0,0,1,2.67,1.17A2.9,2.9,0,0,0,377.72,229.25Zm.3,2.05c-.09-.33.2-1.22-.71-1.12s-.89,1.08-.89,1.81c0,.47-.24,1.24.69,1.12S378.06,232.23,378,231.3Z"/><path class="cls-16" d="M381.37,234.63c-.25-1.83-1.4-3.38-1.61-5.22,1.23-1.16,2.21-1.09,3.1.46a17.31,17.31,0,0,0,1.8,2.24c1.58,2.07,3.13,4.18,4.77,6.21.64.79.58,1.23-.23,1.82-1.27.93-2.49,2-3.69,3-.73.62-1.06.46-1.36-.42-.77-2.26-1.61-4.51-2.42-6.76Z"/><path class="cls-2" d="M373.9,239.23c.58.67-.14,1.77,1.05,2.58-.33-2.92,1.38-4.18,3.62-5q.21,3.64.44,7.31c.07,1.09-.34,1.52-1.46,1.16-1.3-.41-3.09-.16-2.93-2.38,0-.18-.31-.43-.52-.59C372.84,241.35,373.06,240.31,373.9,239.23Z"/><path class="cls-4" d="M387.74,211.68c2.31-2.6,3.25-2.81,6.45-1.37-2.47,2.19-5.12,4.07-7.7,6-1.36,1-2.4-.38-3.62-.4l.28-.37A8.52,8.52,0,0,0,387.74,211.68Z"/><path class="cls-8" d="M379.1,221.85a1.86,1.86,0,0,1-1.41,1.73c-1.06-.63-2.32-.9-3.24-1.79,1.14-2.18,3.12-3.71,4.44-5.74a7.77,7.77,0,0,1-.29,3.22A2.92,2.92,0,0,0,379.1,221.85Z"/><path class="cls-2" d="M377.72,229.25a2.9,2.9,0,0,1-2.93-.8,4.83,4.83,0,0,0-2.67-1.17c.28-.84,1-1.5,1-2.46.66-.45,1.33.07,2,0,.38.55,0,.78-.42,1s-.85.08-.72.66c.09.38.49.38.79.49.5.19.84.06,1-.5a1.52,1.52,0,0,1,1.65-1.28A6.13,6.13,0,0,0,377.72,229.25Z"/><path class="cls-8" d="M387.74,211.68a8.52,8.52,0,0,1-4.59,3.88c.05-.4.11-.79.16-1.19l1.59-2.9Z"/><path class="cls-2" d="M381.37,234.63l.36,1.3a3.33,3.33,0,0,1-3.09-.35C379.28,234.5,380.48,235,381.37,234.63Z"/><path class="cls-4" d="M375.1,224.8c-.66.09-1.33-.43-2,0,.05-.44-.13-1.12.48-1.16A1.53,1.53,0,0,1,375.1,224.8Z"/><path class="cls-15" d="M397.51,202.19l-.49-.32Z"/><path class="cls-13" d="M254.8,249.08l-.37.32Z"/><path class="cls-8" d="M214.14,313.65c.76.35,2-.37,2.27,1,.14.78,1.17,1.71.16,2.36-1.29.82-2.64,2-4.33,1.45-1.17-.36-.64-1.33-.17-2a10.63,10.63,0,0,1,1.44-1.31c.44-.42.87-.85.64-1.55Z"/><path class="cls-16" d="M378,231.3c0,.93,0,1.69-.91,1.81s-.69-.65-.69-1.12c0-.73-.11-1.7.89-1.81S377.93,231,378,231.3Z"/><path class="cls-17" d="M276,267.87l-21.23-10.4s-6.05,10,1.6,12.95S272.72,270.88,276,267.87Z"/></g><g id="Layer_7" data-name="Layer 7"><path class="cls-18" d="M233,324.26c0,13.57-8.33,24.57-18.62,24.57V299.7C224.64,299.7,233,310.69,233,324.26Z"/><path class="cls-18" d="M143.91,274.39c0,13.57-8.33,24.56-18.62,24.56V249.82C135.58,249.82,143.91,260.82,143.91,274.39Z"/><path class="cls-18" d="M314.59,177.25c0,13.57-8.33,24.57-18.62,24.57V152.69C306.26,152.69,314.59,163.68,314.59,177.25Z"/><path class="cls-18" d="M403.65,227.13c0,13.57-8.33,24.57-18.62,24.57V202.57C395.32,202.57,403.65,213.56,403.65,227.13Z"/></g><g id="Layer_8" data-name="Layer 8"><text class="cls-19" transform="translate(322.95 15.87)">+z</text><text class="cls-19" transform="translate(326.51 299.49)">-z</text><text class="cls-20" transform="translate(2.45 387.43)">+x</text><text class="cls-21" transform="translate(80.38 382.39)">roll</text><text class="cls-22" transform="translate(452.1 232.78)">pitch</text><text class="cls-23" transform="translate(375.23 57.87)">yaw</text><text class="cls-24" transform="translate(182.86 120.13)">-y</text><text class="cls-24" transform="translate(466.98 287.04)">+y</text><text class="cls-20" transform="translate(456.52 127.33)">-x</text><text class="cls-25" transform="translate(337.44 201.62)">base_link</text></g><g id="Layer_6" data-name="Layer 6"><line class="cls-26" x1="335.3" y1="22.05" x2="335.3" y2="282.05"/><line class="cls-27" x1="36.89" y1="223.35" x2="292.5" y2="370.92"/><line class="cls-28" x1="207.5" y1="124.85" x2="463.11" y2="272.42"/><line class="cls-29" x1="34.35" y1="372.4" x2="453.52" y2="130.39"/><circle class="cls-30" cx="335.3" cy="198.64" r="1.54"/></g><g id="Layer_4" data-name="Layer 4"><path class="cls-18" d="M214.35,299.7v49.13c-10.28,0-18.62-11-18.62-24.57S204.07,299.7,214.35,299.7Z"/><path class="cls-18" d="M125.29,249.82V299c-10.28,0-18.62-11-18.62-24.56S115,249.82,125.29,249.82Z"/><path class="cls-18" d="M296,152.69v49.13c-10.28,0-18.62-11-18.62-24.57S285.69,152.69,296,152.69Z"/><path class="cls-18" d="M385,202.57V251.7c-10.28,0-18.62-11-18.62-24.57S374.75,202.57,385,202.57Z"/><path class="cls-31" d="M346.53,68.91A36.24,36.24,0,0,0,338.35,65h0A39.37,39.37,0,0,1,348,63.51c-.53.37-1,.77-1.52,1.19.43.09.86.21,1.29.33.22.06.43.11.65.19l.69.23c.22.07.39.15.66.26a5.46,5.46,0,0,1,.81.38,5,5,0,0,1,2.46,2.24,2.21,2.21,0,0,1,.12,1.6,2.65,2.65,0,0,1-.31.74,2.57,2.57,0,0,1-.49.66,6.38,6.38,0,0,1-1.29,1.12c-.25.15-.51.29-.77.43a7.17,7.17,0,0,1-.72.37,35.92,35.92,0,0,1-10.06,2.34,71.47,71.47,0,0,1-10.13.33,74.54,74.54,0,0,1-10.08-1,43.88,43.88,0,0,1-5-1.15,20.11,20.11,0,0,1-4.9-2.07,9.07,9.07,0,0,1-1.17-.87,5.2,5.2,0,0,1-1.12-1.41,3.31,3.31,0,0,1,.16-3.38,6.16,6.16,0,0,1,1.07-1.33,10.15,10.15,0,0,1,1.12-.89,16.87,16.87,0,0,1,2.37-1.32,42.84,42.84,0,0,1,9.85-2.85,101.22,101.22,0,0,1,20.1-1.4,113.46,113.46,0,0,1,20,2.19,49.59,49.59,0,0,1,9.77,3,16.54,16.54,0,0,1,4.55,2.89,6.24,6.24,0,0,1,1.7,2.59,4.5,4.5,0,0,1-.32,3.37l-2.27-1.16a1.85,1.85,0,0,0,.15-1.46,3.81,3.81,0,0,0-1-1.51,14.5,14.5,0,0,0-3.83-2.4,46.91,46.91,0,0,0-9.24-2.83,111.1,111.1,0,0,0-19.54-2.15,98.43,98.43,0,0,0-19.57,1.37A40.4,40.4,0,0,0,313,64.78a15.2,15.2,0,0,0-2,1.1,4.92,4.92,0,0,0-1.33,1.23,1.15,1.15,0,0,0-.08,1.28,2.07,2.07,0,0,0,.41.5,5.82,5.82,0,0,0,.82.61A17.71,17.71,0,0,0,315,71.29a43,43,0,0,0,4.71,1.09,73.08,73.08,0,0,0,9.72,1,70.6,70.6,0,0,0,9.76-.31,33.94,33.94,0,0,0,9.29-2.12,4.53,4.53,0,0,0,1.27-.75,1.76,1.76,0,0,0,.41-.53.74.74,0,0,0-.05-.65,2.33,2.33,0,0,0-1.06-.82,2,2,0,0,0-.3-.14c-.1,0-.33-.14-.49-.19l-.63-.21c-.18-.07-.38-.11-.57-.17-.38-.11-.77-.21-1.16-.29A17.44,17.44,0,0,1,346.53,68.91Z"/><path class="cls-32" d="M439.43,271.5a20.71,20.71,0,0,0,4.12-6.87l.29-.76v0h0l.18.8a28.37,28.37,0,0,1,.68,4.38,19.87,19.87,0,0,1-.18,4.77,13.5,13.5,0,0,0-.94-1.72,13.69,13.69,0,0,1-.53,1.27,6.11,6.11,0,0,1-.31.63l-.36.63a8.34,8.34,0,0,1-.82,1.11,4.64,4.64,0,0,1-2.75,1.66,6,6,0,0,1-.85,0l-.84-.18a5.66,5.66,0,0,1-1.42-.8,8.39,8.39,0,0,1-1.87-2.06,18.3,18.3,0,0,1-2.08-4.62,35.08,35.08,0,0,1-1.09-4.78,45.67,45.67,0,0,1-.4-9.7,48.29,48.29,0,0,1,1.53-9.58,27.07,27.07,0,0,1,1.72-4.64,12.93,12.93,0,0,1,3.08-4.22l.55-.44.65-.37a5.2,5.2,0,0,1,1.45-.52,4.33,4.33,0,0,1,.8-.07,3.05,3.05,0,0,1,.8.05l.77.17a3.76,3.76,0,0,1,.68.29,9.92,9.92,0,0,1,4,3.56,22.85,22.85,0,0,1,2.35,4.41c.31.75.61,1.52.85,2.29s.5,1.55.7,2.34a64.92,64.92,0,0,1,1.92,19.11,70.46,70.46,0,0,1-3.21,18.93,30.4,30.4,0,0,1-4.38,8.79,11.87,11.87,0,0,1-3.95,3.46,7,7,0,0,1-5.57.41l.85-2.4a4.38,4.38,0,0,0,3.57-.28,9.45,9.45,0,0,0,3.07-2.74,27.79,27.79,0,0,0,4-8.05,67.32,67.32,0,0,0,3.08-18.21,62,62,0,0,0-1.83-18.34A27.23,27.23,0,0,0,444.2,241a7.59,7.59,0,0,0-2.93-2.71,2.46,2.46,0,0,0-1.53-.27,2.93,2.93,0,0,0-.76.28l-.38.2-.36.3a10.56,10.56,0,0,0-2.42,3.37,25.7,25.7,0,0,0-1.56,4.2,45,45,0,0,0-1.44,9,42.29,42.29,0,0,0,.37,9.14,22.38,22.38,0,0,0,2.76,8.4,6.23,6.23,0,0,0,1.27,1.44,2.16,2.16,0,0,0,.62.38,1.48,1.48,0,0,0,.63.08,1.58,1.58,0,0,0,.59-.23,2.91,2.91,0,0,0,.57-.53,5.17,5.17,0,0,0,.58-.77l.29-.51a4.81,4.81,0,0,0,.25-.51c.17-.34.31-.71.45-1.07A12.09,12.09,0,0,1,439.43,271.5Z"/><path class="cls-33" d="M61.92,365.77a9.08,9.08,0,0,0,2.51-2.71,21.76,21.76,0,0,0,1.94-3.79l.23-.58v0h0l.14.62a23.68,23.68,0,0,1,.58,4.52,13.76,13.76,0,0,1-.73,5,9,9,0,0,0-.66-1.91,11.2,11.2,0,0,1-.72,1.25l-.46.6,0,0a4.89,4.89,0,0,1-.44.47,3.62,3.62,0,0,1-.51.43,2.84,2.84,0,0,1-.63.41,3.76,3.76,0,0,1-2.9.28,5.27,5.27,0,0,1-1.28-.65,4.92,4.92,0,0,1-1-.81,9.76,9.76,0,0,1-1.44-1.89A18,18,0,0,1,54.8,363a28.07,28.07,0,0,1-.9-4.22,36.35,36.35,0,0,1-.16-8.53,34.41,34.41,0,0,1,1.72-8.38,18.72,18.72,0,0,1,1.86-4,9.14,9.14,0,0,1,3.35-3.36l.59-.29.66-.19a4.47,4.47,0,0,1,1.37-.14,7,7,0,0,1,1.36.23l1.15.51a11,11,0,0,1,3.42,3.18,26.45,26.45,0,0,1,3.55,7.89,53,53,0,0,1,1.7,16.79A55.83,55.83,0,0,1,71.21,379a24,24,0,0,1-4.35,7.51,10.56,10.56,0,0,1-3.76,2.76,7.35,7.35,0,0,1-2.43.54,7.63,7.63,0,0,1-2.48-.34l.78-2.43c2.11.74,4.35-.36,6-2.24a21.92,21.92,0,0,0,3.86-6.71,53.13,53.13,0,0,0,3.09-15.76,50.21,50.21,0,0,0-1.59-15.94,24.09,24.09,0,0,0-3.17-7.11,8.9,8.9,0,0,0-2.56-2.43,2.61,2.61,0,0,0-2.74-.12,6.66,6.66,0,0,0-2.37,2.45,16.7,16.7,0,0,0-1.62,3.47,31.67,31.67,0,0,0-1.59,7.76,34.07,34.07,0,0,0,.14,7.95,20.7,20.7,0,0,0,2.28,7.36,7.64,7.64,0,0,0,1,1.4,3,3,0,0,0,.6.5,2.73,2.73,0,0,0,.55.31,1.4,1.4,0,0,0,1.08-.09.94.94,0,0,0,.23-.16,1.35,1.35,0,0,0,.28-.22c.08-.1.18-.18.27-.28l0-.05.31-.41a8.58,8.58,0,0,0,.55-.94A7.19,7.19,0,0,1,61.92,365.77Z"/></g></g></svg>