<svg xmlns="http://www.w3.org/2000/svg" viewBox="0 0 326.52 451.81"><defs><style>.cls-1{opacity:0.75;}.cls-2,.cls-26{fill:#324047;}.cls-3{fill:#b64148;}.cls-4{fill:#b1353d;}.cls-5{fill:#a93237;}.cls-6{fill:#96b6c1;}.cls-7{fill:#627985;}.cls-8{fill:#c24861;}.cls-9{fill:#29c5d0;}.cls-10{fill:#c13f45;}.cls-11{fill:#c1474b;}.cls-12{fill:#c3595c;}.cls-13{fill:#52bbcb;}.cls-14{fill:#c1474c;}.cls-15{fill:#c03b58;}.cls-16{fill:#dadde1;}.cls-17,.cls-18,.cls-22,.cls-24,.cls-27{fill:none;}.cls-17{stroke:#000;opacity:0.65;}.cls-17,.cls-18,.cls-22,.cls-24,.cls-27,.cls-30,.cls-31,.cls-32{stroke-miterlimit:10;}.cls-18{stroke:#ceab00;}.cls-18,.cls-22{stroke-width:3px;}.cls-19{fill:#ceab00;}.cls-20,.cls-21,.cls-28{font-size:7px;}.cls-20{fill:#443700;}.cls-20,.cls-21,.cls-28,.cls-29{font-family:Tahoma-Bold, Tahoma;font-weight:700;}.cls-21,.cls-29{fill:#17183d;}.cls-22,.cls-24{stroke:#3072a8;}.cls-23{fill:#3072a8;}.cls-25{fill:#834380;}.cls-26{opacity:0.7;}.cls-27{stroke:#6d236a;}.cls-28{fill:#6d236a;}.cls-29{font-size:5px;}.cls-30,.cls-32{stroke:lime;}.cls-30,.cls-31,.cls-32{stroke-width:5px;}.cls-30{opacity:0.5;}.cls-31{stroke:red;}.cls-33{fill:#fff;}</style></defs><title>Asset 27</title><g id="Layer_2" data-name="Layer 2"><g id="Layer_5" data-name="Layer 5" class="cls-1"><path class="cls-2" d="M114.15,87l-.26.28c-2.49,1.75-5,3.53-7.48,5.24a2.94,2.94,0,0,0-1.43,3c.46,5.59.78,11.2,1.23,16.79a27.35,27.35,0,0,0,.44,5.19,9.16,9.16,0,0,0,.25,3.34c0,4.9,0,9.79,0,14.68,0,2.18,0,4.35.08,6.53-.19,2.39-.07,4.78-.08,7.17,0,4.61,0,9.23.07,13.85,0,.6,0,1.2-.07,1.79-.28,4.86.56,9.66.84,14.49a10.2,10.2,0,0,0,.53,3.37c0,.45.08.91.13,1.36a1.73,1.73,0,0,0,.16,1.28,7,7,0,0,0,.18,2,30.37,30.37,0,0,0,0,5.56c-.18,2.85-.19,5.7-.1,8.56a6.67,6.67,0,0,0-.22,2.27c-.13,7.64-.12,15.28-.3,22.92-.24,10.32-.35,20.64-.41,30.95-.12,18.73-.28,37.45-.63,56.18-.21,11.35-.12,22.71-.13,34.06,0,.6.06,1.2.09,1.8s-.07,1-.07,1.47q0,15.89,0,31.78c0,.92.06,1.85.1,2.78,0,.16-.06.32-.07.48q0,13.5,0,27a3.5,3.5,0,0,0,.32,1.42,6.65,6.65,0,0,0,2.79,3.51c1.42.78,2.52,2.1,4.22,2.4A3.19,3.19,0,0,0,117.4,422c2-.12,3.93-.05,5.9-.05,4.64,0,9.28,0,13.92.27,5.56.34,11.12.77,16.7.78h33.76c1.59,0,3.17-.06,4.75-.15,4.75-.25,9.49-.57,14.24-.79,5.51-.27,11-.1,16.55,0a3.51,3.51,0,0,0,3.33-1.58c1.75-.43,3-1.68,4.45-2.65a6.21,6.21,0,0,0,2.8-5.54c0-8.23,0-16.45,0-24.68,0-.65-.07-1.3-.1-1.95,0-.93.11-1.86.11-2.78q0-13.44,0-26.87c0-1.91-.07-3.82-.11-5.73,0-.76.09-1.52.1-2.28,0-13.64,0-27.28-.25-40.91-.17-10.15-.14-20.3-.22-30.44,0-2.13-.17-4.25-.26-6.38,0-3.3,0-6.6,0-9.9a16.94,16.94,0,0,0-.17-3.56,22.77,22.77,0,0,0-.1-6.17c.09-5.71,0-11.42-.13-17.13a3.73,3.73,0,0,0-.11-.64,16.08,16.08,0,0,0-.09-5.18c0-.77.06-1.53.06-2.29q-.18-17.91-.36-35.83a58.65,58.65,0,0,1,.46-7.5,140.48,140.48,0,0,0,1.2-18.1c-.08-6.38,0-12.76,0-19.15,0-.59-.06-1.19-.09-1.79.27-8.57-.15-17.14.33-25.71a3.62,3.62,0,0,0,.37-1.74q.47-7.08.94-14.17c.14-2.12.24-4.24.44-6.35a2.18,2.18,0,0,0-1-2.21c-.32-.22-.62-.44-.93-.67l-6.86-5c-.43-1.8-1.85-2.31-3.42-2.55-3.35-.5-6.74-.51-10.11-.85-2.33-.23-4.67-.51-7-.59-4.31-.14-8.62-.14-12.94-.2a19.24,19.24,0,0,1-2.28-.12q-7-1-13.94-2a32.63,32.63,0,0,0-7.48-.7c-4.5.39-9,1-13.47,1.71A82.8,82.8,0,0,1,143,83.05a102.66,102.66,0,0,0-12.27.39c-3,.32-6,.57-9,.72-1.58.08-3.16.26-4.72.48s-2.59,1-2.87,2.36Z"/><path class="cls-3" d="M233.69,350.27c0,1.9.11,3.81.11,5.72q0,13.44,0,26.87c0,.92-.07,1.85-.11,2.78a2.07,2.07,0,0,0-.91,1.3c-.52,1.59-1.14,3.16-1.53,4.79-.77,3.17-1.87,6.23-2.84,9.33-.16.51-.26,1.06-.8,1.35-.23-2.32-.46-4.63-.68-7-.26-2.8-.43-5.62-.79-8.41a13,13,0,0,0-.53-3.68c.19-1.8-.57-3.43-.94-5.13-.77-3.62-1.62-7.23-2.39-10.85-.7-3.37-1.73-6.66-2.24-10.06a4.08,4.08,0,0,0-.66-1.83c-.27-2.89-1.31-5.61-1.86-8.45-.71-3.68-1.86-7.27-2.64-10.95s-1.81-7.29-2.7-10.94c-1.65-6.72-3.06-13.5-4.94-20.16.16-5.95,0-11.89.25-17.84.33-9.71,0-19.43.4-29.14.08-2.09-.15-2.24-2.22-2.26H135.39c-.44,0-.87,0-1.31,0a1.15,1.15,0,0,0-1.22,1.25q0,.57,0,1.14c.07,3.11,0,6.21.25,9.33a73.93,73.93,0,0,1,.06,8c-.17,9.83.51,19.64.35,29.47-.22.84-.46,1.68-.67,2.53-.71,3-1.4,5.93-2.12,8.9-1,4.23-2.09,8.45-3.11,12.69-1,4-1.81,8.07-2.87,12.07-1,3.84-1.86,7.73-2.79,11.6a9.79,9.79,0,0,0-.57,3,27.18,27.18,0,0,0-1.54,5.65c-1.13,4.72-2.12,9.47-3.18,14.21a49,49,0,0,0-1.51,7.68,7.25,7.25,0,0,0-.29,1.11q-.69,7.36-1.36,14.75a5.88,5.88,0,0,1-.65,2.5,6.44,6.44,0,0,1-1.15-2.49c-1.12-3.62-2.17-7.26-3.28-10.88a4.91,4.91,0,0,0-1.38-2.7c0-.93-.11-1.86-.1-2.78q0-15.9,0-31.78c0-.49,0-1,.07-1.47a1.15,1.15,0,0,0,.89-1,39.26,39.26,0,0,0,.89-4.47c.25-3.59,1.25-7.05,1.7-10.6.39-3.17,1.16-6.29,1.35-9.5,1.17-.18,1-1.22,1.33-2a3.77,3.77,0,0,0,2.36-4.08c0,.32,0,.65,0,1s0,.56.35.66.46-.21.64-.39c4.79-4.77,9.56-9.57,14.39-14.31a3.75,3.75,0,0,0,1.17-3q-.36-22.28-.64-44.56a16.84,16.84,0,0,0-.58-3.87c-1.71-6.89-3.4-13.77-5.13-20.65-1.57-6.24-3.19-12.47-4.77-18.71-.48-1.91-.88-3.83-1.32-5.74a.58.58,0,0,0,0-.29l-.6-1.39q-1-3.77-2-7.54c-.32-2.53-.65-5.07-1-7.61a1.41,1.41,0,0,0-.65-1.23l.32-3h71.52q18.51,0,37,0V188h-.82L118.57,188c-1.83,0-2.27.54-2,2.36,0,.22.11.43.17.64.41,1.64.83,3.28,1.23,4.92,1.07,4.35,2.11,8.7,3.19,13,1.15,4.55,2.35,9.09,3.49,13.65,1.43,5.71,2.79,11.45,4.23,17.16,1.16,4.66,2.39,9.31,3.59,14,.43,1.7.42,1.71,2.14,1.72h71.14c2.09,0,2.12,0,2.64-2,1-3.75,1.9-7.51,2.84-11.27,1.44-5.71,2.85-11.44,4.29-17.15,1.15-4.55,2.36-9.09,3.51-13.64,1.68-6.62,3.32-13.24,5-19.85a9.36,9.36,0,0,0,.22-3.57c1,.75,1,1.85,1,2.95-.57.3-.6.85-.68,1.4-.3,2.16-.48,4.34-.95,6.47-.65,1.57-.56,3.33-1.18,4.89a10.29,10.29,0,0,0-.48,5.57c-.17-.55.1-1.19-.53-1.95-.36,1.19-.73,2.13-.92,3.12-.81,4.23-2.13,8.34-3,12.55-.76,3.41-1.71,6.77-2.53,10.16-1.5,6.2-3.16,12.36-4.68,18.56a26.1,26.1,0,0,0-1.08,6.1c0,6.38-.18,12.77-.26,19.15-.1,8.4-.17,16.81-.27,25.21a3.07,3.07,0,0,0,.89,2.49c4.7,4.61,9.33,9.29,14,13.94a4.41,4.41,0,0,0,1,.79c.49.26.48-.23.61-.49a3.35,3.35,0,0,0,2.38,2.84c.08.83.32,1.54,1.31,1.65a30.56,30.56,0,0,0,.68,6.81c.42,2.25,1,4.48,1.22,6.75.36,3.92,1.48,7.7,1.89,11.6A1.8,1.8,0,0,0,233.69,350.27Z"/><path class="cls-4" d="M225.28,190.92c0-1.1.05-2.2-1-2.95h0c0-.21,0-.42,0-.63,1.07-.19,1.15-1.1,1.21-1.88a31.41,31.41,0,0,1,.89-4.64c.53-2.39,1.07-4.78,1.55-7.18a27.27,27.27,0,0,0,.62-4.68c1.13-.37,1.37-1.38,1.49-2.33a56.62,56.62,0,0,0,.81-7.12c0-1.73.28-3.46.44-5.18a14.35,14.35,0,0,1,.41-3.38c.82-2.26.44-4.47.12-6.7-.11-.7.05-1,.72-1.15.37,0,.76-.06,1.13-.09,0,.6.09,1.2.09,1.79,0,6.39-.06,12.77,0,19.15a140.48,140.48,0,0,1-1.2,18.1,58.65,58.65,0,0,0-.46,7.5q.21,17.91.36,35.83c0,.76,0,1.52-.06,2.29a8.88,8.88,0,0,0,.09,5.18,3.73,3.73,0,0,1,.11.64c.09,5.71.22,11.42.13,17.13-.55,1.74-.2,3.52-.25,5.28a1.35,1.35,0,0,0,.35.89,16.94,16.94,0,0,1,.17,3.56c0,3.3,0,6.6,0,9.9-1.32.16-2.25-.67-3.23-1.34a2.58,2.58,0,0,0-2.56-.61c-.08-4.2,0-8.4-.3-12.6-.29-3.64,0-7.3-.31-11-.3-3.41-.06-6.86-.34-10.3s0-6.75-.32-10.14c-.29-3.58-.21-7.19-.31-10.79C225.48,206,225.63,198.45,225.28,190.92Z"/><path class="cls-4" d="M115.79,187.32c-.11,1-.22,2-.32,3-.15,5.07.17,10.14-.29,15.22-.29,3.19-.06,6.42-.33,9.65-.28,3.41,0,6.86-.31,10.3-.33,4.12,0,8.28-.34,12.43s-.15,8.39-.29,12.59c-.18,5.62-.64,11.23-.43,16.86,0,.22,0,.43,0,.65a3.19,3.19,0,0,0-1.76,0c-1.45.41-2.16-.23-2-1.77a5.13,5.13,0,0,0,0-1.79,6,6,0,0,1,0-2.59,3.35,3.35,0,0,0,0-1.3,19.92,19.92,0,0,1-.22-4.08q0-8,0-16.05c0-1.63,0-3.28-.17-4.89s.12-3.35,0-5c-.13-2,.18-4,.12-6-.07-2.33-.25-4.66-.13-7a14.45,14.45,0,0,0,0-2.28c-.36-2.7.12-5.41-.14-8.12-.18-1.89-.4-3.76-.68-5.63-.09-2.86-.08-5.71.1-8.56a4.89,4.89,0,0,0,0-5.56,7,7,0,0,1-.18-2,.85.85,0,0,0-.16-1.28c-.05-.45-.09-.91-.13-1.36a5,5,0,0,0,.92-2.75,15.34,15.34,0,0,1,.57-4,16.93,16.93,0,0,0-1.58-11.6A2.12,2.12,0,0,0,107,163c0-4.62-.07-9.24-.07-13.85,0-2.39-.11-4.78.08-7.17a15.76,15.76,0,0,1,5.15.71c0,8.24,0,16.47,0,24.7a32.79,32.79,0,0,0,.46,5c.49,3.18,1.37,6.28,1.93,9.45C114.87,183.73,115.37,185.52,115.79,187.32Z"/><path class="cls-5" d="M108.62,201.44c.28,1.87.5,3.74.68,5.63.26,2.71-.22,5.42.14,8.12a14.45,14.45,0,0,1,0,2.28c-.12,2.34.06,4.67.13,7,.06,2-.25,4-.12,6,.11,1.69-.14,3.35,0,5s.17,3.26.17,4.89q0,8,0,16.05a19.92,19.92,0,0,0,.22,4.08,3.35,3.35,0,0,1,0,1.3,6,6,0,0,0,0,2.59,5.13,5.13,0,0,1,0,1.79c-.15,1.54.56,2.18,2,1.77a3.19,3.19,0,0,1,1.76,0,27.22,27.22,0,0,1-.28,3.26c-.07,3.37-.11,6.75-.28,10.13-.33,6.15.14,12.32-.36,18.48-.27,3.31-.17,6.64-.26,10-.14,4.74-.48,9.48-.43,14.22-.19,3.21-1,6.33-1.35,9.5-.45,3.55-1.45,7-1.7,10.6a39.26,39.26,0,0,1-.89,4.47,1.15,1.15,0,0,1-.89,1c0-.6-.09-1.2-.09-1.8,0-11.35-.08-22.71.13-34.06.35-18.73.51-37.45.63-56.18.06-10.31.17-20.63.41-30.95.18-7.64.17-15.28.3-22.92A6.67,6.67,0,0,1,108.62,201.44Z"/><path class="cls-5" d="M227.27,268.3a2.58,2.58,0,0,1,2.56.61c1,.67,1.91,1.5,3.23,1.34.09,2.13.24,4.25.26,6.38.08,10.14.05,20.29.22,30.44.23,13.63.28,27.27.25,40.91,0,.76-.07,1.52-.1,2.29a1.8,1.8,0,0,1-1-1.74c-.41-3.9-1.53-7.68-1.89-11.6-.21-2.27-.8-4.5-1.22-6.75a30.56,30.56,0,0,1-.68-6.81c.09-1.37-.23-2.72-.27-4.07-.12-4.09-.28-8.18-.29-12.26,0-8-.42-16-.42-24.05a7.32,7.32,0,0,0,0-.81C227.31,277.56,227.78,272.91,227.27,268.3Z"/><path class="cls-3" d="M233.7,143c-.37,0-.76,0-1.13.09-.67.11-.83.45-.72,1.15.32,2.23.7,4.44-.12,6.7a14.35,14.35,0,0,0-.41,3.38c-.16,1.72-.43,3.45-.44,5.18a56.62,56.62,0,0,1-.81,7.12c-.12,1-.36,2-1.49,2.33q0-13.44,0-26.87c-.55-3.07-.22-6.2-.6-9.29s-.62-6.18-.79-9.28c-.17-2.89-.56-5.75-.55-8.64a12,12,0,0,1,.13-1.8c.37-2.59.77-5.17,1.17-7.76a13,13,0,0,0,2-1.84.83.83,0,0,0,0-1.39c-.23-.23-.42-.51-.63-.75-2.12-2.42-4.3-4.79-6.35-7.27-1.44-1.72-2.94-3.22-5.37-3.28a5,5,0,0,1-1.1-.31c-3.46-1-6.9-2-10.45-2.68a14.07,14.07,0,0,0-.81-2.78,6.67,6.67,0,0,1,2.09.06,3,3,0,0,0,2.19,1.28c3.57,1,7.05,2.26,10.61,3.27A4.71,4.71,0,0,1,222.43,91q4.66,5.14,9.41,10.21a3.5,3.5,0,0,1,1,2.16c.37,3.91.46,7.82.63,11.74a3,3,0,0,0,.57,2.15C233.55,125.87,234,134.44,233.7,143Z"/><path class="cls-6" d="M226.55,420.46a3.51,3.51,0,0,1-3.33,1.58c-5.52-.05-11-.22-16.55,0-4.75.22-9.49.54-14.24.79-1.58.09-3.16.15-4.75.15H153.92c-5.58,0-11.14-.44-16.7-.78-4.64-.28-9.28-.25-13.92-.27-2,0-3.94-.07-5.9.05a3.19,3.19,0,0,1-3.14-1.58.44.44,0,0,0,.18-.2l19.75,0a6.32,6.32,0,0,0,1-.13,51.49,51.49,0,0,0,6.21.1c3.16,0,6.33.14,9.49-.09a5.92,5.92,0,0,0,1.78.12h35.16a5.66,5.66,0,0,0,1.79-.13c4,.25,7.95.07,11.92.11a23.19,23.19,0,0,0,4.08-.11,5.32,5.32,0,0,0,.8.12l19.89,0Z"/><path class="cls-5" d="M106.65,117.47a27.35,27.35,0,0,1-.44-5.19c-.45-5.59-.77-11.2-1.23-16.79a2.94,2.94,0,0,1,1.43-3c2.52-1.71,5-3.49,7.48-5.24l.26-.28,0,0a8.86,8.86,0,0,1,5.12-1.26c3.43-.06,6.85-.22,10.26-.46a30,30,0,0,1,4.23-.21,1,1,0,0,1-.7.63c-3.75,1.18-7.45,2.52-11.25,3.49a8.71,8.71,0,0,0-4.72,3c-1.69,2-3.42,4-5.24,5.85-1.24,1.3-2.38,2.69-3.57,4a3.25,3.25,0,0,0-.66,2.6c.08,3.74-.08,7.46-.34,11.19A2.12,2.12,0,0,1,106.65,117.47Z"/><path class="cls-5" d="M234,117.3a3,3,0,0,1-.57-2.15c-.17-3.92-.26-7.83-.63-11.74a3.5,3.5,0,0,0-1-2.16Q227.1,96.18,222.43,91a4.71,4.71,0,0,0-2.32-1.41c-3.56-1-7-2.3-10.61-3.27a3,3,0,0,1-2.19-1.28c4.58.14,9.15.61,13.73.67,2,0,3.94.06,5.61,1.33a1,1,0,0,0,.31.09l6.86,5c.31.23.61.45.93.67a2.18,2.18,0,0,1,1,2.21c-.2,2.11-.3,4.23-.44,6.35q-.47,7.08-.94,14.17A3.62,3.62,0,0,1,234,117.3Z"/><path class="cls-3" d="M112.16,142.73A15.76,15.76,0,0,0,107,142c0-2.18-.07-4.35-.08-6.53,0-4.89,0-9.78,0-14.68.75-.23,1-.85,1.36-1.51a19,19,0,0,1,1.84-3.41,10.3,10.3,0,0,0,1.87-4.45,20.69,20.69,0,0,0-.09-6.8l1,.59a17.6,17.6,0,0,0,.19,1.78,45.15,45.15,0,0,1,.68,15.25,94.4,94.4,0,0,0-.93,12.35c0,.55-.06,1.09-.11,1.63-.17,1.95-.35,3.9-.52,5.85Z"/><path class="cls-7" d="M227,87.17a1,1,0,0,1-.31-.09C225,85.81,223,85.77,221,85.75c-4.58-.06-9.15-.53-13.73-.67a6.67,6.67,0,0,0-2.09-.06,84.37,84.37,0,0,0-8.55-.52c-.7-.07-1.41-.16-2.11-.2-1.85-.12-3.72-.09-5.55-.34-4.75-.65-9.49-1.41-14.23-2.14a24.17,24.17,0,0,0-7.64-.16c-6.3,1-12.6,2-18.94,2.66l-2.85.08-1.12,0c-3,.15-6,.2-9,.59l-1.46,0a30,30,0,0,0-4.23.21c-3.41.24-6.83.4-10.26.46A8.86,8.86,0,0,0,114.13,87c.28-1.35,1.17-2.13,2.87-2.36s3.14-.4,4.72-.48c3-.15,6-.4,9-.72A102.66,102.66,0,0,1,143,83.05a82.8,82.8,0,0,0,13.35-1.18c4.47-.69,9-1.32,13.47-1.71a32.63,32.63,0,0,1,7.48.7q7,1,13.94,2a19.24,19.24,0,0,0,2.28.12c4.32.06,8.63.06,12.94.2,2.34.08,4.68.36,7,.59,3.37.34,6.76.35,10.11.85C225.11,84.86,226.53,85.37,227,87.17Z"/><path class="cls-5" d="M226.55,420.46l-.28-.21a6.14,6.14,0,0,1-1.44-2.12,16,16,0,0,0,0-3.25,5.37,5.37,0,0,0,2.56-2.63,4.51,4.51,0,0,1,2.62-2.75,1.05,1.05,0,0,0,.74-1c.1-1,.18-1.95.24-2.93a1.21,1.21,0,0,0-.48-1,2.77,2.77,0,0,0-2.64-.9h-.33l0-1.28c.54-.29.64-.84.8-1.35,1-3.1,2.07-6.16,2.84-9.33.39-1.63,1-3.2,1.53-4.79a2.07,2.07,0,0,1,.91-1.3c0,.65.1,1.3.1,1.95,0,8.23,0,16.45,0,24.68a6.21,6.21,0,0,1-2.8,5.54C229.57,418.78,228.3,420,226.55,420.46Z"/><path class="cls-5" d="M107,385.65a4.91,4.91,0,0,1,1.38,2.7c1.11,3.62,2.16,7.26,3.28,10.88a6.44,6.44,0,0,0,1.15,2.49V403c-.81.31-1.63.59-2.42.93a1.58,1.58,0,0,0-1.11,1.47c.06,1.13.24,2.26.4,3.38a.81.81,0,0,0,.65.66c1.36.22,1.91,1.31,2.57,2.29.43.62.88,1.24,1.27,1.88a1.75,1.75,0,0,0,1.62.88c0,1.12,0,2.23.07,3.34a4.49,4.49,0,0,1-1.44,2.4.44.44,0,0,1-.18.2c-1.7-.3-2.8-1.62-4.22-2.4a6.65,6.65,0,0,1-2.79-3.51,3.5,3.5,0,0,1-.32-1.42q0-13.5,0-27C107,386,107,385.81,107,385.65Z"/><path class="cls-4" d="M111.88,104.64a20.69,20.69,0,0,1,.09,6.8,10.3,10.3,0,0,1-1.87,4.45,19,19,0,0,0-1.84,3.41c-.32.66-.61,1.28-1.36,1.51a9.16,9.16,0,0,1-.25-3.34,2.12,2.12,0,0,0,.61-1.61c.26-3.73.42-7.45.34-11.19a3.25,3.25,0,0,1,.66-2.6,4.33,4.33,0,0,0,2.07.37C110.26,103.59,111.52,103.8,111.88,104.64Z"/><path class="cls-5" d="M107,163a2.12,2.12,0,0,1,1.21,1.26,16.93,16.93,0,0,1,1.58,11.6,15.34,15.34,0,0,0-.57,4,5,5,0,0,1-.92,2.75,10.2,10.2,0,0,1-.53-3.37c-.28-4.83-1.12-9.63-.84-14.49C107,164.24,107,163.64,107,163Z"/><path class="cls-5" d="M108.77,187.32a4.89,4.89,0,0,1,0,5.56A30.37,30.37,0,0,1,108.77,187.32Z"/><path class="cls-5" d="M232.88,256.79a1.35,1.35,0,0,1-.35-.89c.05-1.76-.3-3.54.25-5.28A22.77,22.77,0,0,1,232.88,256.79Z"/><path class="cls-5" d="M232.54,232.85a8.88,8.88,0,0,1-.09-5.18A16.08,16.08,0,0,1,232.54,232.85Z"/><path class="cls-5" d="M108.43,184.05a.85.85,0,0,1,.16,1.28A1.73,1.73,0,0,1,108.43,184.05Z"/><path class="cls-7" d="M114.15,87l-.26.28Z"/><path class="cls-8" d="M112.16,142.73c0-.21,0-.43,0-.64l17,0c3,0,3.27-.24,3.27-3.25,0-7.1,0-14.2,0-21.29a12.78,12.78,0,0,1,.07-1.64.9.9,0,0,1,1-.87c2.13,0,4.24-.33,6.37-.12a13.64,13.64,0,0,0,2.12,0c3.38-.16,6.74-.41,10.13-.4,12.18.06,24.35,0,36.53,0,2.55,0,5.13-.28,7.66.41a2,2,0,0,0,.65,0c2.83-.26,5.67-.09,8.51-.12,2.58,0,2.69.1,2.69,2.65,0,7,0,14,0,21a15.46,15.46,0,0,0,0,1.8c.14,1.27.61,1.69,1.9,1.77.49,0,1,0,1.48,0l16.87,0q0,13.44,0,26.87a27.27,27.27,0,0,1-.62,4.68c-.48,2.4-1,4.79-1.55,7.18a31.41,31.41,0,0,0-.89,4.64c-.06.78-.14,1.69-1.21,1.88q-18.5,0-37,0H115.79c-.42-1.8-.92-3.59-1.24-5.4-.56-3.17-1.44-6.27-1.93-9.45a32.79,32.79,0,0,1-.46-5C112.18,159.2,112.16,151,112.16,142.73Z"/><path class="cls-9" d="M224.29,188a9.36,9.36,0,0,1-.22,3.57c-1.68,6.61-3.32,13.23-5,19.85-1.15,4.55-2.36,9.09-3.51,13.64-1.44,5.71-2.85,11.44-4.29,17.15-.94,3.76-1.87,7.52-2.84,11.27-.52,2-.55,2-2.64,2H134.65c-1.72,0-1.71,0-2.14-1.72-1.2-4.65-2.43-9.3-3.59-14-1.44-5.71-2.8-11.45-4.23-17.16-1.14-4.56-2.34-9.1-3.49-13.65-1.08-4.34-2.12-8.69-3.19-13-.4-1.64-.82-3.28-1.23-4.92-.06-.21-.13-.42-.17-.64-.31-1.82.13-2.36,2-2.36L223.48,188h.81Z"/><path class="cls-10" d="M227.58,403.69h.33a33.83,33.83,0,0,0,.7,4.36c.22.84,0,1.08-.86,1.19a8.64,8.64,0,0,1-1.14,0H219.4c-4.19,0-8.4-.14-12.58.23-2.19.19-4.35-.11-6.52-.1-1.64,0-3.25.26-4.89.22-3.38-.07-6.76,0-10.14,0h-35c-.88,0-1.76-.14-2.61-.11-1.8.06-3.58-.45-5.38-.09a15.11,15.11,0,0,1-2.6.2c-3,.09-6-.19-9-.3s-6.11,0-9.17,0h-7c-2.66,0-2.67,0-2-2.52a12.65,12.65,0,0,0,.46-3.06h17a17.93,17.93,0,0,0,1.8-.08A77.17,77.17,0,0,1,140,403a67.45,67.45,0,0,0,8.64-.62c2-.23,2.18-.5,2.19-2.5q0-7,0-13.92c0-2-.33-2.32-2.32-2.27-9.17.21-18.34-.44-27.51-.35-2,0-3.94,0-5.9,0a49,49,0,0,1,1.51-7.68c1.06-4.74,2-9.49,3.18-14.21a27.18,27.18,0,0,1,1.54-5.65h95.12a7,7,0,0,0,2.9-.32,4.08,4.08,0,0,1,.66,1.83c.51,3.4,1.54,6.69,2.24,10.06.77,3.62,1.62,7.23,2.39,10.85.37,1.7,1.13,3.33.94,5.13h-1.8c-10.59-.2-21.18.55-31.77.34-1.92,0-2.15.25-2.16,2.2,0,3.11,0,6.23,0,9.34a25.2,25.2,0,0,0,0,5.21c.29,1.45.43,1.74,1.94,1.93a66.29,66.29,0,0,0,9.13.65,29.35,29.35,0,0,1,3.11.07,91,91,0,0,0,9.62.59C218.29,403.66,222.94,403.69,227.58,403.69Z"/><path class="cls-11" d="M219.38,355.5a7,7,0,0,1-2.9.32H121.36a9.79,9.79,0,0,1,.57-3c.93-3.87,1.76-7.76,2.79-11.6,1.06-4,1.9-8.05,2.87-12.07,1-4.24,2.08-8.46,3.11-12.69.72-3,1.41-5.94,2.12-8.9.21-.85.45-1.69.67-2.53h73.75c1.88,6.66,3.29,13.44,4.94,20.16.89,3.65,1.92,7.27,2.7,10.94s1.93,7.27,2.64,10.95C218.07,349.89,219.11,352.61,219.38,355.5Z"/><path class="cls-12" d="M207.24,305H133.49c.16-9.83-.52-19.64-.35-29.47a73.93,73.93,0,0,0-.06-8c-.28-3.12-.18-6.22-.25-9.33q0-.57,0-1.14a1.15,1.15,0,0,1,1.22-1.25c.44,0,.87,0,1.31,0h70.28c2.07,0,2.3.17,2.22,2.26-.4,9.71-.07,19.43-.4,29.14C207.28,293.11,207.4,299.05,207.24,305Z"/><path class="cls-13" d="M225.19,318.88c-.13.26-.12.75-.61.49a4.41,4.41,0,0,1-1-.79c-4.66-4.65-9.29-9.33-14-13.94a3.07,3.07,0,0,1-.89-2.49c.1-8.4.17-16.81.27-25.21.08-6.38.22-12.77.26-19.15a26.1,26.1,0,0,1,1.08-6.1c1.52-6.2,3.18-12.36,4.68-18.56.82-3.39,1.77-6.75,2.53-10.16.92-4.21,2.24-8.32,3-12.55.19-1,.56-1.93.92-3.12.63.76.36,1.4.53,1.95,0,1.1,0,2.19,0,3.28q.84,29.61,1.7,59.23.65,22.26,1.31,44.51C225,317.14,225.13,318,225.19,318.88Z"/><path class="cls-13" d="M119.7,208.33c.44,1.91.84,3.83,1.32,5.74,1.58,6.24,3.2,12.47,4.77,18.71,1.73,6.88,3.42,13.76,5.13,20.65a16.84,16.84,0,0,1,.58,3.87q.3,22.27.64,44.56a3.75,3.75,0,0,1-1.17,3c-4.83,4.74-9.6,9.54-14.39,14.31-.18.18-.3.5-.64.39s-.34-.38-.35-.66,0-.66,0-1c.06-.66.14-1.31.16-2q1-34.29,2.07-68.58c.37-12.33.52-24.67,1-37,.06-1.25.17-2.5.26-3.75l.6,1.39s-.05.07,0,.1A1.11,1.11,0,0,0,119.7,208.33Z"/><path class="cls-14" d="M227.58,403.69c-4.64,0-9.29,0-13.93,0a91,91,0,0,1-9.62-.59,29.35,29.35,0,0,0-3.11-.07,66.29,66.29,0,0,1-9.13-.65c-1.51-.19-1.65-.48-1.94-1.93a25.2,25.2,0,0,1,0-5.21c0-3.11,0-6.23,0-9.34,0-1.95.24-2.23,2.16-2.2,10.59.21,21.18-.54,31.77-.34h1.8a13,13,0,0,1,.53,3.68c.36,2.79.53,5.61.79,8.41.22,2.32.45,4.63.68,7Z"/><path class="cls-14" d="M115.13,383.36c2,0,3.93,0,5.9,0,9.17-.09,18.34.56,27.51.35,2,0,2.31.32,2.32,2.27q0,7,0,13.92c0,2-.24,2.27-2.19,2.5A67.45,67.45,0,0,1,140,403a77.17,77.17,0,0,0-8.32.58,17.93,17.93,0,0,1-1.8.08h-17c0-.22,0-.43,0-.65v-1.31a5.88,5.88,0,0,0,.65-2.5q.67-7.38,1.36-14.75A7.25,7.25,0,0,1,115.13,383.36Z"/><path class="cls-12" d="M119.05,206.65c-.09,1.25-.2,2.5-.26,3.75-.5,12.33-.65,24.67-1,37q-1,34.29-2.07,68.58c0,.65-.1,1.3-.16,2a3.78,3.78,0,0,1-2.36,4.09c-.11-2.13.19-4.25.28-6.37.16-3.21,0-6.43.29-9.65.29-3.69.09-7.41.35-11.12.29-4.18,0-8.39.31-12.59.3-3.53,0-7.08.34-10.63.27-3.09.07-6.2.31-9.32.29-3.58.13-7.19.34-10.79.32-5.49-.12-11,.34-16.52.29-3.31.19-6.65.28-10,.13-5,.51-10,.43-15,0-3.22.51-6.42.34-9.65a2.44,2.44,0,0,1,.3-1.26Q118.07,202.89,119.05,206.65Z"/><path class="cls-12" d="M225.19,318.88c-.06-.87-.16-1.74-.18-2.61q-.66-22.26-1.31-44.51-.85-29.61-1.7-59.23c0-1.09,0-2.18,0-3.28a10.29,10.29,0,0,1,.48-5.57c.62-1.56.53-3.32,1.18-4.89a2.64,2.64,0,0,1,.31,1.26c0,1.91.19,3.81.29,5.72.18,3.48.07,7,.32,10.46.29,4.19,0,8.39.33,12.6.29,3.47,0,7,.32,10.46s.14,6.75.32,10.14c.31,5.88.09,11.78.32,17.67.2,5.39.61,10.79.42,16.2a1.67,1.67,0,0,0,0,.32c.64,4.28.12,8.61.55,12.91.36,3.57.09,7.19.32,10.79.3,4.79-.07,9.61.4,14.4A3.35,3.35,0,0,1,225.19,318.88Z"/><path class="cls-10" d="M117.09,199.11a2.44,2.44,0,0,0-.3,1.26c.17,3.23-.39,6.43-.34,9.65.08,5-.3,10-.43,15-.09,3.32,0,6.66-.28,10-.46,5.51,0,11-.34,16.52-.21,3.6-.05,7.21-.34,10.79-.24,3.12,0,6.23-.31,9.32-.31,3.55,0,7.1-.34,10.63-.35,4.2,0,8.41-.31,12.59-.26,3.71-.06,7.43-.35,11.12-.25,3.22-.13,6.44-.29,9.65-.09,2.12-.39,4.24-.28,6.37-.29.77-.16,1.81-1.33,2,0-4.74.29-9.48.43-14.22.09-3.32,0-6.65.26-10,.5-6.16,0-12.33.36-18.48.17-3.38.21-6.76.28-10.13a27.22,27.22,0,0,0,.28-3.26c0-.22,0-.43,0-.65-.21-5.63.25-11.24.43-16.86.14-4.2,0-8.41.29-12.59s0-8.31.34-12.43c.26-3.44,0-6.89.31-10.3.27-3.23,0-6.46.33-9.65.46-5.08.14-10.15.29-15.22a1.41,1.41,0,0,1,.65,1.23C116.44,194,116.77,196.58,117.09,199.11Z"/><path class="cls-10" d="M227.57,321.72c-.47-4.79-.1-9.61-.4-14.4-.23-3.6,0-7.22-.32-10.79-.43-4.3.09-8.63-.55-12.91a1.67,1.67,0,0,1,0-.32c.19-5.41-.22-10.81-.42-16.2-.23-5.89,0-11.79-.32-17.67-.18-3.39,0-6.78-.32-10.14s0-7-.32-10.46c-.37-4.21,0-8.41-.33-12.6-.25-3.49-.14-7-.32-10.46-.1-1.91-.32-3.81-.29-5.72a2.64,2.64,0,0,0-.31-1.26c.47-2.13.65-4.31.95-6.47.08-.55.11-1.1.68-1.4.35,7.53.2,15.07.41,22.59.1,3.6,0,7.21.31,10.79.29,3.39,0,6.78.32,10.14s0,6.89.34,10.3c.33,3.66,0,7.32.31,11,.33,4.2.22,8.4.3,12.6.51,4.61,0,9.26.59,13.88a7.32,7.32,0,0,1,0,.81c0,8,.38,16,.42,24.05,0,4.08.17,8.17.29,12.26,0,1.35.36,2.7.27,4.07C227.89,323.26,227.65,322.55,227.57,321.72Z"/><path class="cls-12" d="M119.7,208.33a1.11,1.11,0,0,1-.09-.19s0-.07,0-.1A.58.58,0,0,1,119.7,208.33Z"/><path class="cls-15" d="M228.54,142.09l-16.87,0c-.49,0-1,0-1.48,0-1.29-.08-1.76-.5-1.9-1.77a15.46,15.46,0,0,1,0-1.8c0-7,0-14,0-21,0-2.55-.11-2.68-2.69-2.65-2.84,0-5.68-.14-8.51.12a2,2,0,0,1-.65,0c-2.53-.69-5.11-.41-7.66-.41-12.18,0-24.35,0-36.53,0-3.39,0-6.75.24-10.13.4a13.64,13.64,0,0,1-2.12,0c-2.13-.21-4.24.14-6.37.12a.9.9,0,0,0-1,.87,12.78,12.78,0,0,0-.07,1.64c0,7.09,0,14.19,0,21.29,0,3-.25,3.25-3.27,3.25l-17,0c.17-2,.35-3.9.52-5.85,0-.54.11-1.08.11-1.63a94.4,94.4,0,0,1,.93-12.35,45.15,45.15,0,0,0-.68-15.25,17.6,17.6,0,0,1-.19-1.78,71,71,0,0,0,6.85-4.38c3.21-2,6.35-4.18,9.51-6.3,2.06-1.4,4.22-2.68,6.16-4.26l2.32-.05.65,0c5.78-.09,11.56.22,17.34-.56,3.45-.46,6.94-.63,10.41-1a24.66,24.66,0,0,1,5.22-.36l10.74,1.14c2.76.28,5.53.68,8.3.76,4.1.12,8.19,0,12.29,0l2.46-.31a13.17,13.17,0,0,0,2.36,2q5.82,3.87,11.68,7.71c2.9,1.9,5.72,3.93,8.72,5.69-.4,2.59-.8,5.17-1.17,7.76a12,12,0,0,0-.13,1.8c0,2.89.38,5.75.55,8.64.17,3.1.41,6.2.79,9.28S228,139,228.54,142.09Z"/><path class="cls-16" d="M227.9,105.32c-3-1.76-5.82-3.79-8.72-5.69q-5.87-3.84-11.68-7.71a13.17,13.17,0,0,1-2.36-2A6.65,6.65,0,0,1,206,87.8c3.55.65,7,1.69,10.45,2.68a5,5,0,0,0,1.1.31c2.43.06,3.93,1.56,5.37,3.28,2.05,2.48,4.23,4.85,6.35,7.27.21.24.4.52.63.75a.83.83,0,0,1,0,1.39A13,13,0,0,1,227.9,105.32Z"/><path class="cls-5" d="M206,87.8a6.65,6.65,0,0,0-.89,2.13l-2.46.31a2.72,2.72,0,0,0-2.34-.9,21.13,21.13,0,0,1-2.75-.37l-.15-1V87.7c.08-.58.63-1,.56-1.63.34-.21.49-.48,0-.63s-1.09-.33-1.33-.94a84.37,84.37,0,0,1,8.55.52A14.07,14.07,0,0,1,206,87.8Z"/><path class="cls-5" d="M150.85,420.17c-3.16.23-6.33.08-9.49.09a51.49,51.49,0,0,1-6.21-.1l-1.41-2c0-.44.07-.87.1-1.31,4.3-.14,8.61.11,12.92-.29,3.25-.31,6.55-.29,9.81-.3,10.09,0,20.19-.29,30.29.16,5.11.22,10.24.53,15.37.41,1.47,0,2.93.38,4.4,0a3,3,0,0,0,.36,1.31c-.45.7-1.38,1.05-1.41,2a23.19,23.19,0,0,1-4.08.11c-4,0-7.95.14-11.92-.11-.39-.93-1.25-1-2.06-1-1.58,0-3.15-.3-4.72-.31-4.4,0-8.8-.22-13.21-.38-1.9-.07-3.77.45-5.69.33-3.54-.22-7.06.26-10.6.35A2.71,2.71,0,0,0,150.85,420.17Z"/><path class="cls-3" d="M150.85,420.17a2.71,2.71,0,0,1,2.45-1c3.54-.09,7.06-.57,10.6-.35,1.92.12,3.79-.4,5.69-.33,4.41.16,8.81.37,13.21.38,1.57,0,3.14.28,4.72.31.81,0,1.67.08,2.06,1a5.66,5.66,0,0,1-1.79.13H152.63A5.92,5.92,0,0,1,150.85,420.17Z"/><path class="cls-3" d="M205.58,420.16c0-1,1-1.33,1.41-2h17.84a6.14,6.14,0,0,0,1.44,2.12l-19.89,0A5.32,5.32,0,0,1,205.58,420.16Z"/><path class="cls-3" d="M133.74,418.13l1.41,2a6.32,6.32,0,0,1-1,.13l-19.75,0a4.49,4.49,0,0,0,1.44-2.4,6.55,6.55,0,0,0,2.41.26Z"/><path class="cls-3" d="M110.33,102.44a4.33,4.33,0,0,1-2.07-.37c1.19-1.35,2.33-2.74,3.57-4,1.82-1.89,3.55-3.85,5.24-5.85a8.71,8.71,0,0,1,4.72-3c3.8-1,7.5-2.31,11.25-3.49a1,1,0,0,0,.7-.63l1.45,0c-.14.9-.29,1.8-.44,2.7-1.64.42-3.29.78-4.92,1.19-2.7.67-5.32,1.64-8.07,2.14a3.65,3.65,0,0,0-2.28,1.16c-1.37,1.63-2.74,3.25-4.2,4.79C113.6,98.8,112.17,100.8,110.33,102.44Z"/><path class="cls-16" d="M110.33,102.44c1.84-1.64,3.27-3.64,5-5.42,1.46-1.54,2.83-3.16,4.2-4.79a3.65,3.65,0,0,1,2.28-1.16c2.75-.5,5.37-1.47,8.07-2.14,1.63-.41,3.28-.77,4.92-1.19a3.37,3.37,0,0,1,.65,2.55c-1.93,1.58-4.09,2.86-6.15,4.26-3.16,2.12-6.3,4.26-9.51,6.3a71,71,0,0,1-6.85,4.38l-1-.59C111.52,103.8,110.26,103.59,110.33,102.44Z"/><path class="cls-3" d="M196.67,84.5c.24.61.76.78,1.33.94s.34.42,0,.63c-3.15-.34-6.33-.21-9.47-.56-4.93-.56-9.84-1.31-14.75-2a22.36,22.36,0,0,0-6.17-.1c-7.19.91-14.31,2.37-21.6,2.45a6.3,6.3,0,0,0-3.19.52c-.53-.31-.86-.67,0-.93.6-.18,1.36,0,1.41-1l1.12,0c1.12.9,1.83.88,2.85-.08,6.34-.67,12.64-1.64,18.94-2.66a24.17,24.17,0,0,1,7.64.16c4.74.73,9.48,1.49,14.23,2.14,1.83.25,3.7.22,5.55.34C195.26,84.34,196,84.43,196.67,84.5Z"/><path class="cls-5" d="M144.23,84.45c0,.93-.81.79-1.41,1-.86.26-.53.62,0,.93a2.74,2.74,0,0,1,.32,2.28,3.63,3.63,0,0,1-2.43.68c-1.07,0-2.19,0-3,.93l-2.32.05a3.42,3.42,0,0,0-.66-2.55c.15-.9.3-1.8.44-2.7C138.2,84.65,141.22,84.6,144.23,84.45Z"/><path class="cls-5" d="M148.2,84.32c-1,1-1.73,1-2.85.08Z"/><path class="cls-4" d="M206.63,416.82c-1.47.36-2.93-.06-4.4,0-5.13.12-10.26-.19-15.37-.41-10.1-.45-20.2-.2-30.29-.16-3.26,0-6.56,0-9.81.3-4.31.4-8.62.15-12.92.29a2.55,2.55,0,0,0-1.24-.33c-5.63-.36-11.2-1.28-16.79-2a1.75,1.75,0,0,1-1.62-.88c-.39-.64-.84-1.26-1.27-1.88-.66-1-1.21-2.07-2.57-2.29a.81.81,0,0,1-.65-.66c-.16-1.12-.34-2.25-.4-3.38a1.58,1.58,0,0,1,1.11-1.47c.79-.34,1.61-.62,2.42-.93,0,.22,0,.43,0,.65a12.65,12.65,0,0,1-.46,3.06c-.64,2.51-.63,2.52,2,2.52h7c3.06,0,6.12-.09,9.17,0s6,.39,9,.3a15.11,15.11,0,0,0,2.6-.2c1.8-.36,3.58.15,5.38.09.85,0,1.73.11,2.61.11h35c3.38,0,6.76,0,10.14,0,1.64,0,3.25-.21,4.89-.22,2.17,0,4.33.29,6.52.1,4.18-.37,8.39-.22,12.58-.23h7.21a8.64,8.64,0,0,0,1.14,0c.86-.11,1.08-.35.86-1.19a33.83,33.83,0,0,1-.7-4.36,2.77,2.77,0,0,1,2.64.9,1.21,1.21,0,0,1,.48,1c-.06,1-.14,1.95-.24,2.93a1.05,1.05,0,0,1-.74,1,4.51,4.51,0,0,0-2.62,2.75,5.37,5.37,0,0,1-2.56,2.63,25.65,25.65,0,0,0-4.38.19c-3.22.39-6.42,1-9.68,1.15A16.55,16.55,0,0,0,206.63,416.82Z"/><path class="cls-10" d="M206.63,416.82a16.55,16.55,0,0,1,4.18-.6c3.26-.15,6.46-.76,9.68-1.15a25.65,25.65,0,0,1,4.38-.19,16,16,0,0,1,0,3.25H207A3,3,0,0,1,206.63,416.82Z"/><path class="cls-10" d="M115.81,414.52c5.59.69,11.16,1.61,16.79,2a2.55,2.55,0,0,1,1.24.33c0,.44-.06.87-.1,1.31H118.29a6.55,6.55,0,0,1-2.41-.26C115.86,416.75,115.84,415.64,115.81,414.52Z"/><path class="cls-3" d="M137.73,90.24c.79-1,1.91-.9,3-.93a3.63,3.63,0,0,0,2.43-.68,1.72,1.72,0,0,0,1.36.44c3,0,6,.15,9-.13,4.34-.4,8.67-.85,13-1.23a24.88,24.88,0,0,1,4.56-.34l15.45,1.51a54,54,0,0,0,11.08.09,21.13,21.13,0,0,0,2.75.37,2.72,2.72,0,0,1,2.34.9c-4.1,0-8.19.11-12.29,0-2.77-.08-5.54-.48-8.3-.76l-10.74-1.14a24.66,24.66,0,0,0-5.22.36c-3.47.38-7,.55-10.41,1-5.78.78-11.56.47-17.34.56Z"/><path class="cls-7" d="M197.59,89a54,54,0,0,1-11.08-.09l-15.45-1.51a24.88,24.88,0,0,0-4.56.34c-4.34.38-8.67.83-13,1.23-3,.28-6,.11-9,.13a1.72,1.72,0,0,1-1.36-.44,2.74,2.74,0,0,0-.32-2.28,6.3,6.3,0,0,1,3.19-.52c7.29-.08,14.41-1.54,21.6-2.45a22.36,22.36,0,0,1,6.17.1c4.91.72,9.82,1.47,14.75,2,3.14.35,6.32.22,9.47.56.07.63-.48,1.05-.56,1.63l-.07.11.07.12Z"/><path class="cls-3" d="M197.44,87.93l-.07-.12.07-.11Z"/><path class="cls-2" d="M83.69,204.26l27-8.69s-4.13-11.21-13.07-7.51S83.69,199.79,83.69,204.26Z"/><path class="cls-2" d="M257.41,204.26l-27-8.69s4.13-11.21,13.07-7.51S257.41,199.79,257.41,204.26Z"/></g><g id="Layer_7" data-name="Layer 7"><line class="cls-17" x1="258.44" y1="9.84" x2="258.44" y2="448.36"/><line class="cls-17" x1="82.44" y1="9.84" x2="82.44" y2="448.36"/><line class="cls-17" y1="79.58" x2="272.55" y2="79.58"/><rect class="cls-2" x="214.69" y="315.28" width="18" height="58.58" rx="4.15" transform="translate(447.39 689.14) rotate(-180)"/><line class="cls-17" y1="423.57" x2="272.55" y2="423.57"/><line class="cls-17" y1="344.57" x2="96" y2="344.57"/><line class="cls-17" y1="147.25" x2="96" y2="147.25"/><rect class="cls-2" x="108.3" y="315.28" width="18" height="58.58" rx="4.15" transform="translate(234.6 689.14) rotate(-180)"/><line class="cls-17" x1="223.65" y1="9.84" x2="223.65" y2="61.7"/><line class="cls-17" x1="117.69" y1="9.84" x2="117.69" y2="61.7"/></g><g id="Layer_8" data-name="Layer 8"><line class="cls-18" x1="11.36" y1="333.39" x2="11.36" y2="158.48"/><polygon class="cls-19" points="18.02 328.33 11.36 331.16 4.69 328.33 11.36 344.13 18.02 328.33"/><polygon class="cls-19" points="18.02 163.54 11.36 160.71 4.69 163.54 11.36 147.74 18.02 163.54"/><text class="cls-20" transform="translate(15.92 252.3)">wheelbase</text><text class="cls-20" transform="translate(15.92 385.69)">rear_overhang</text><text class="cls-21" transform="translate(148.85 8.85)">track_width</text><text class="cls-21" transform="translate(147.04 448.78)">vehicle_width</text><line class="cls-22" x1="127.81" y1="16.59" x2="212.95" y2="16.9"/><polygon class="cls-23" points="132.84 23.28 130.03 16.6 132.89 9.95 117.07 16.55 132.84 23.28"/><polygon class="cls-23" points="207.87 23.55 210.72 16.89 207.92 10.22 223.69 16.94 207.87 23.55"/><line class="cls-22" x1="93.19" y1="439.47" x2="247.7" y2="439.47"/><polygon class="cls-23" points="98.24 446.13 95.41 439.47 98.24 432.8 82.44 439.47 98.24 446.13"/><polygon class="cls-23" points="242.64 446.13 245.47 439.47 242.64 432.8 258.44 439.47 242.64 446.13"/><line class="cls-24" x1="227.28" y1="16.94" x2="254.86" y2="16.94"/><polygon class="cls-23" points="228.96 19.16 228.02 16.94 228.96 14.72 223.69 16.94 228.96 19.16"/><polygon class="cls-23" points="253.18 19.16 254.12 16.94 253.18 14.72 258.44 16.94 253.18 19.16"/><line class="cls-24" x1="86.02" y1="16.52" x2="114.16" y2="16.52"/><polygon class="cls-23" points="87.71 18.74 86.76 16.52 87.71 14.29 82.44 16.52 87.71 18.74"/><polygon class="cls-23" points="112.47 18.74 113.42 16.52 112.47 14.29 117.74 16.52 112.47 18.74"/><line class="cls-18" x1="11.36" y1="412.29" x2="11.36" y2="356.03"/><polygon class="cls-19" points="18.02 407.24 11.36 410.07 4.69 407.24 11.36 423.04 18.02 407.24"/><polygon class="cls-19" points="18.02 361.09 11.36 358.26 4.69 361.09 11.36 345.29 18.02 361.09"/><line class="cls-18" x1="11.36" y1="136.02" x2="11.36" y2="90.32"/><polygon class="cls-19" points="18.02 130.96 11.36 133.8 4.69 130.96 11.36 146.76 18.02 130.96"/><polygon class="cls-19" points="18.02 95.38 11.36 92.55 4.69 95.38 11.36 79.58 18.02 95.38"/><text class="cls-20" transform="translate(15.92 115.17)">front_overhang</text><path class="cls-25" d="M91.63,75.94a58.68,58.68,0,0,0-9.17,1.16h0a61.87,61.87,0,0,1,7.22-6.4l-.5,1.82,1.2-.46.61-.22,1.52-.53a63.08,63.08,0,0,1,19.67-3.11v2.55a60.85,60.85,0,0,0-12.7,1.32,63.11,63.11,0,0,0-6.17,1.66l-1.45.51c-.2.07-.4.13-.59.21l-1.16.44Z"/><rect class="cls-26" x="108.69" y="117.96" width="18" height="58.58" rx="4.15" transform="translate(235.39 294.5) rotate(-180)"/><rect class="cls-2" x="108.69" y="117.94" width="18" height="58.58" rx="4.15" transform="translate(293.22 215.89) rotate(150)"/><line class="cls-27" x1="117.65" y1="147.25" x2="79.09" y2="80.47"/><line class="cls-27" x1="117.65" y1="147.25" x2="117.65" y2="70.14"/><text class="cls-28" transform="translate(86.86 65.44)">+30°</text><text class="cls-29" transform="translate(223.65 4.32)">right_overhang</text><text class="cls-29" transform="translate(82.43 4.32)">left_overhang</text><line class="cls-18" x1="270.29" y1="412.83" x2="270.29" y2="90.32"/><polygon class="cls-19" points="276.95 407.77 270.29 410.6 263.62 407.77 270.29 423.57 276.95 407.77"/><polygon class="cls-19" points="276.95 95.38 270.29 92.55 263.62 95.38 270.29 79.58 276.95 95.38"/><text class="cls-20" transform="translate(274.76 254.94)">vehicle_length</text><path class="cls-25" d="M197.63,75.94a58.68,58.68,0,0,0-9.17,1.16h0a61.87,61.87,0,0,1,7.22-6.4l-.5,1.82,1.2-.46.61-.22,1.52-.53a63.08,63.08,0,0,1,19.67-3.11v2.55a60.85,60.85,0,0,0-12.7,1.32,63.11,63.11,0,0,0-6.17,1.66l-1.45.51c-.2.07-.4.13-.59.21l-1.16.44Z"/><rect class="cls-26" x="214.69" y="117.96" width="18" height="58.58" rx="4.15" transform="translate(447.39 294.5) rotate(-180)"/><rect class="cls-2" x="214.69" y="117.94" width="18" height="58.58" rx="4.15" transform="translate(491.02 162.89) rotate(150)"/><line class="cls-27" x1="223.65" y1="147.25" x2="185.09" y2="80.47"/><line class="cls-27" x1="223.65" y1="147.25" x2="223.65" y2="70.14"/><text class="cls-28" transform="translate(192.86 65.44)">+30°</text></g><g id="Layer_6" data-name="Layer 6"><line class="cls-30" x1="100.61" y1="147.25" x2="240.49" y2="147.25"/><line class="cls-31" x1="170.17" y1="68.56" x2="170.17" y2="431.47"/><line class="cls-32" x1="100.61" y1="344.57" x2="240.49" y2="344.57"/><circle class="cls-33" cx="170.17" cy="344.57" r="1.54"/></g></g></svg>