<svg xmlns="http://www.w3.org/2000/svg" viewBox="0 0 128.28 80.87"><defs><style>.cls-1{fill:#324047;}.cls-2{font-size:6px;font-family:Tahoma-Bold, Tahoma;font-weight:700;}.cls-3,.cls-5{fill:none;stroke-miterlimit:10;}.cls-3{stroke:#272525;}.cls-4{fill:#272525;}.cls-5{stroke:#1b1464;stroke-width:0.5px;opacity:0.7;}.cls-6{fill:#f2f2f2;opacity:0.43;}</style></defs><title>Asset 28</title><g id="Layer_2" data-name="Layer 2"><g id="Layer_7" data-name="Layer 7"><rect class="cls-1" x="15.01" width="18" height="58.58" rx="4.15" transform="translate(48.02 58.58) rotate(-180)"/><circle class="cls-1" cx="84.34" cy="29.29" r="29.29"/></g><g id="Layer_8" data-name="Layer 8"><text class="cls-2" transform="translate(4.41 77.08)">wheel_width</text><text class="cls-2" transform="translate(78.67 77.07)">wheel_radius</text><line x1="15.01" y1="64.47" x2="33.01" y2="64.47"/><line class="cls-3" x1="18.59" y1="64.47" x2="29.43" y2="64.47"/><polygon class="cls-4" points="20.27 66.69 19.33 64.47 20.27 62.25 15.01 64.47 20.27 66.69"/><polygon class="cls-4" points="27.74 66.69 28.68 64.47 27.74 62.25 33.01 64.47 27.74 66.69"/><line x1="113.63" y1="64.47" x2="84.34" y2="64.47"/><line class="cls-3" x1="110.05" y1="64.47" x2="87.92" y2="64.47"/><polygon class="cls-4" points="108.37 62.25 109.31 64.47 108.37 66.69 113.63 64.47 108.37 62.25"/><polygon class="cls-4" points="89.61 62.25 88.67 64.47 89.61 66.69 84.34 64.47 89.61 62.25"/><line class="cls-5" x1="113.63" y1="29.29" x2="113.63" y2="62.13"/><circle class="cls-6" cx="84.34" cy="29.29" r="18.37"/><line class="cls-5" x1="84.34" y1="29.29" x2="84.34" y2="62.13"/><line class="cls-5" x1="15.01" y1="29.29" x2="15.01" y2="62.13"/><line class="cls-5" x1="33.01" y1="29.29" x2="33.01" y2="62.13"/></g></g></svg>